<?xml version="1.0" standalone="no"?>
<!DOCTYPE svg PUBLIC "-//W3C//DTD SVG 1.1//EN" "http://www.w3.org/Graphics/SVG/1.1/DTD/svg11.dtd" >
<svg xmlns="http://www.w3.org/2000/svg" xmlns:xlink="http://www.w3.org/1999/xlink" version="1.1">
<metadata>
Created by FontForge 20170731 at Sun Jan 10 00:24:44 2016
 By Aleksey,,,
Copyright  2004, Joshua Darden &#38; Phil's Fonts, Inc. All rights reserved. Published by Garagefonts USA 301-260-2285 www.garagefonts.com
</metadata>
<defs>
<font id="FreightTextBlackItalic" horiz-adv-x="400" >
  <font-face 
    font-family="FreightTextBlackItalic"
    font-weight="400"
    font-style="italic"
    font-stretch="normal"
    units-per-em="1000"
    panose-1="2 0 6 3 8 0 0 9 0 4"
    ascent="720"
    descent="-280"
    x-height="473"
    cap-height="625"
    bbox="-204 -280 1100 864"
    underline-thickness="20"
    underline-position="-173"
    slope="-12"
    unicode-range="U+0020-FB04"
  />
<missing-glyph horiz-adv-x="500" 
 />
    <glyph glyph-name=".notdef" horiz-adv-x="500" 
 />
    <glyph glyph-name=".null" horiz-adv-x="0" 
 />
    <glyph glyph-name="nonmarkingreturn" horiz-adv-x="204" 
 />
    <glyph glyph-name="space" unicode=" " horiz-adv-x="204" 
 />
    <glyph glyph-name="space" unicode="&#xa0;" horiz-adv-x="204" 
 />
    <glyph glyph-name="exclam" unicode="!" horiz-adv-x="304" 
d="M164 208q-1 -4 -6 -5.5t-10 -1.5t-9 2.5t-4 6.5l-2 371q0 27 22.5 42.5t54.5 15.5h5q19 0 34.5 -5t26 -14t14.5 -21.5t-1 -27.5zM205 63q0 -32 -23 -55.5t-56 -23.5t-56 23t-23 56t23 56.5t56 23.5t56 -24t23 -56z" />
    <glyph glyph-name="quotedbl" unicode="&#x22;" horiz-adv-x="390" 
d="M258 403h-52l115 242h1l101 -35zM78 403h-52l115 242h1l101 -35z" />
    <glyph glyph-name="numbersign" unicode="#" horiz-adv-x="596" 
d="M479 392l-41 -160h121l-2 -58h-137l-48 -180h-57l46 180h-143l-48 -180h-59l48 180h-120l2 58h136l41 160h-122l3 56h136l48 183h59l-47 -183h142l49 183h57l-47 -183h121l-3 -56h-135zM420 392h-144l-40 -160h145z" />
    <glyph glyph-name="dollar" unicode="$" horiz-adv-x="567" 
d="M192 -166h-54l42 155q-44 5 -82 14t-72 18l23 206l87 -3l33 -163q7 -2 13.5 -4t14.5 -4l51 189q-40 18 -72 36.5t-54.5 41.5t-34.5 53t-12 72q0 40 18.5 75t52 61t80 41t101.5 15h13q7 0 13 -1l28 102h54l-29 -108q23 -4 47 -9.5t51 -12.5l58 21l-28 -217l-82 3l-30 145
q-8 2 -16 4.5t-16 4.5l-49 -179q38 -19 70.5 -37.5t55.5 -40.5t36 -50.5t13 -67.5q0 -50 -19.5 -89t-53.5 -65.5t-81 -40.5t-103 -14h-13q-7 0 -13 1zM339 579h-18q-24 0 -42 -6.5t-31 -17t-19.5 -24t-6.5 -26.5q0 -33 20 -55.5t52 -40.5zM247 43q5 -1 10 -1h11
q50 0 77 25.5t27 65.5q0 32 -22 52.5t-55 38.5z" />
    <glyph glyph-name="percent" unicode="%" horiz-adv-x="746" 
d="M385 500q0 -39 -14.5 -73t-39 -59.5t-58 -40t-72.5 -14.5q-32 0 -60.5 10.5t-49.5 30t-33.5 47t-12.5 61.5q0 38 14.5 71.5t39 59t58 40t70.5 14.5q33 0 61.5 -10t50 -29t34 -46.5t12.5 -61.5zM94 -15h-59l630 654h59zM719 164q0 -39 -14.5 -73t-39.5 -59.5t-58.5 -40
t-71.5 -14.5q-67 0 -110.5 39t-43.5 108q0 39 14 73t38.5 59.5t57.5 40t72 14.5q32 0 60.5 -10t49.5 -29t33.5 -46.5t12.5 -61.5zM335 490q0 50 -31 81.5t-81 31.5q-28 0 -51.5 -11.5t-41 -31t-27.5 -44.5t-10 -52q0 -50 32.5 -79.5t79.5 -29.5q28 0 51.5 10.5t41 29
t27.5 43t10 52.5zM671 158q0 24 -9 44t-24 34.5t-35.5 22.5t-43.5 8q-28 0 -51.5 -11.5t-41 -31t-27.5 -44.5t-10 -52q0 -50 31.5 -79.5t78.5 -29.5q28 0 52 11.5t42 30.5t28 44t10 53z" />
    <glyph glyph-name="ampersand" unicode="&#x26;" horiz-adv-x="699" 
d="M375 111q-54 -64 -111 -94.5t-119 -30.5q-30 0 -56.5 12t-45.5 33t-30 50.5t-11 65.5q0 39 16 68.5t40 51t53 35.5t55 20v2q-29 25 -50 59t-21 79q0 44 21.5 77t56 55.5t77 33.5t83.5 11q43 0 79 -9.5t62 -27.5t40.5 -42.5t14.5 -54.5t-14 -54.5t-39 -43.5t-58 -32.5
t-72 -21.5v-2l124 -128h2l94 88v3q-17 15 -24.5 28.5t-7.5 34.5q0 33 23.5 56t58.5 23q41 0 66 -26t25 -64q0 -56 -49 -92.5t-137 -65.5l-26 -9l154 -163l-151 -66l-121 141h-2zM382 508q0 34 -19 59t-49 25q-29 0 -49 -23.5t-20 -59.5q0 -38 16.5 -66t51.5 -62
q37 27 53 62.5t16 64.5zM198 296q-24 -26 -38.5 -53.5t-14.5 -58.5q0 -35 25 -57t70 -22q23 0 51.5 6.5t53.5 22.5z" />
    <glyph glyph-name="quotesingle" unicode="'" horiz-adv-x="210" 
d="M78 403h-52l115 242h1l101 -35z" />
    <glyph glyph-name="parenleft" unicode="(" horiz-adv-x="395" 
d="M359 -253q-42 21 -89.5 61.5t-88 99.5t-67 135t-26.5 167t26.5 166.5t67 134.5t88 100t89.5 62l29 -42q-39 -21 -81 -59.5t-77.5 -92.5t-58.5 -122t-23 -147t23 -147t58.5 -122t77.5 -92.5t81 -58.5z" />
    <glyph glyph-name="parenright" unicode=")" horiz-adv-x="395" 
d="M8 -212q38 21 80.5 59.5t77.5 93t58 122.5t23 147t-23 147t-58 122t-77.5 92.5t-80.5 59.5l30 42q41 -21 88 -62t87.5 -100t67 -134.5t26.5 -166.5t-26.5 -167t-67 -135t-87.5 -99.5t-88 -61.5z" />
    <glyph glyph-name="asterisk" unicode="*" horiz-adv-x="359" 
d="M353 419l-112 48l-10 -13l83 -92l-26 -52l-21 -8l-56 25l7 124l-15 4l-56 -108l-61 6l-15 17l5 62l118 32v21l-118 32l-5 62l15 17l61 6l56 -107l16 5l-8 122l56 25l21 -8l26 -52l-83 -92l10 -13l112 48l43 -45v-22z" />
    <glyph glyph-name="plus" unicode="+" horiz-adv-x="480" 
d="M271 205v-181h-61v181h-183l3 60h180v181h61v-181h179l3 -60h-182z" />
    <glyph glyph-name="comma" unicode="," horiz-adv-x="232" 
d="M187 53q0 -31 -15 -61.5t-42 -60t-65 -56t-85 -49.5l-25 29q52 31 84.5 68t32.5 72q0 22 -11 38.5t-23.5 28t-23.5 17.5t-11 7q0 13 6.5 26t18 23.5t26.5 17t33 6.5q24 0 43 -9t31.5 -24t19 -34t6.5 -39z" />
    <glyph glyph-name="hyphen" unicode="-" horiz-adv-x="338" 
d="M33 221l3 67h268l3 -67h-274z" />
    <glyph glyph-name="period" unicode="." horiz-adv-x="232" 
d="M185 72q0 -36 -25.5 -62t-62.5 -26t-62.5 25.5t-25.5 62.5t25.5 63t62.5 26q18 0 34 -7t28 -19.5t19 -28.5t7 -34z" />
    <glyph glyph-name="slash" unicode="/" horiz-adv-x="279" 
d="M219 665h56l-217 -877h-56z" />
    <glyph glyph-name="zero" unicode="0" horiz-adv-x="525" 
d="M481 275q0 -55 -17 -107.5t-47.5 -93t-74.5 -65t-98 -24.5q-43 0 -80.5 15t-65.5 43t-44 69t-16 93q0 56 17 108.5t48.5 93.5t75.5 65.5t97 24.5q43 0 80.5 -15t65 -43.5t43.5 -70t16 -93.5zM382 275q0 28 -9 51.5t-24 41t-35 27t-42 9.5q-37 0 -62 -20.5t-41 -51
t-23 -65t-7 -62.5t8.5 -51.5t23 -40t34 -26t41.5 -9.5q37 0 62.5 20t42 50t24 64.5t7.5 62.5z" />
    <glyph glyph-name="one" unicode="1" horiz-adv-x="383" 
d="M16 0l9 48l56 11q24 4 26 23l40 306l-103 11l8 38l262 67l-55 -422q-1 -8 3 -14.5t17 -8.5l55 -11l-3 -48h-315z" />
    <glyph glyph-name="two" unicode="2" horiz-adv-x="488" 
d="M389 0h-384l3 83q52 34 97 63.5t79 56.5t54.5 53.5t24.5 54.5q5 36 -13.5 63t-64.5 30q-26 2 -58 -10t-73 -41l-10 32q22 23 51 44t61.5 37t67 24t67.5 6q70 -5 108.5 -42.5t30.5 -97.5q-5 -37 -34 -68.5t-72 -60.5t-95 -57.5t-103 -60.5l-1 -5h48q62 0 99 0.5t57.5 3.5
t29.5 8.5t16 15.5l31 45h43z" />
    <glyph glyph-name="three" unicode="3" horiz-adv-x="453" 
d="M395 46q0 -52 -27.5 -95.5t-70 -75t-93.5 -49.5t-98 -18q-22 0 -49.5 5t-52 17t-40.5 31.5t-16 48.5t20 50t49 21q24 0 39 -11.5t23 -29.5t10.5 -39t1.5 -40q4 0 7 -0.5t7 -0.5q31 0 56 12t43 32.5t28 47t10 56.5q0 49 -29.5 80.5t-79.5 31.5q-19 0 -38 -4t-38 -9l-15 38
q42 21 79.5 40t65.5 39t44.5 43.5t16.5 53.5q0 40 -28.5 60.5t-65.5 20.5q-34 0 -66.5 -16t-59.5 -35l-11 33q22 23 49 43.5t58 35.5t63.5 24t64.5 9q27 0 54.5 -7.5t49 -22.5t35.5 -37.5t14 -52.5q0 -42 -23 -73.5t-57.5 -55.5t-73.5 -41t-71 -31v-7q35 11 71 11
q30 0 56 -9.5t45.5 -26.5t31 -42t11.5 -55z" />
    <glyph glyph-name="four" unicode="4" horiz-adv-x="567" 
d="M406 18l-26 -202h-141l26 202h-263l-3 53l397 433l71 -22l-52 -401h125l-16 -63h-118zM312 335h-5l-234 -254h201z" />
    <glyph glyph-name="five" unicode="5" horiz-adv-x="490" 
d="M443 360h-270l-36 -83q41 -15 85.5 -37t82 -52.5t62 -70t24.5 -90.5t-23 -92.5t-60.5 -71.5t-84.5 -46t-94 -16q-23 0 -54 5t-59 17t-47 32t-19 50q0 29 19 51.5t49 22.5q24 0 39 -10.5t22.5 -27t9.5 -37t0 -39.5q15 -7 31 -11t33 -4q25 0 44.5 10t33 26.5t21 38.5
t7.5 45q0 41 -23 73t-57 56.5t-73 42.5t-71 30l126 311h302z" />
    <glyph glyph-name="six" unicode="6" horiz-adv-x="565" 
d="M531 257q0 -61 -25 -111t-64 -86t-87 -55.5t-94 -19.5q-47 0 -88 15.5t-71 45.5t-47.5 74.5t-17.5 101.5q0 81 40.5 159.5t110.5 142t164.5 106t202.5 52.5l27 -44q-73 -16 -135.5 -44t-111.5 -65t-83 -83.5t-52 -100.5l5 -3q36 39 82 65.5t97 26.5q29 0 56 -13t47 -36.5
t32 -56t12 -71.5zM374 242q0 60 -22.5 87t-51.5 27q-25 0 -50 -19t-45 -51q-6 -15 -13.5 -48.5t-7.5 -75.5q0 -60 23 -93.5t56 -33.5q23 0 43 16.5t35 44.5t24 66t9 80z" />
    <glyph glyph-name="seven" unicode="7" horiz-adv-x="500" 
d="M103 -184h-91l368 553v1h-70q-62 0 -98 -1.5t-55 -5t-27 -10t-15 -16.5l-41 -60h-43l55 206h415v-38z" />
    <glyph glyph-name="eight" unicode="8" horiz-adv-x="560" 
d="M510 180q0 -46 -22.5 -82.5t-58.5 -61t-80 -37.5t-86 -13t-84 9t-76 28t-55.5 48.5t-21.5 69.5q0 32 12.5 58t33.5 45.5t48 32.5t56 18v2q-20 12 -38 26.5t-32 32t-22.5 38.5t-8.5 47q0 46 20 82.5t53 62t75 39t87 13.5q43 0 84 -8.5t72.5 -27t51 -47t19.5 -68.5
q0 -33 -12.5 -57.5t-33 -41.5t-47 -28t-55.5 -17v-2q22 -13 43.5 -29t39 -36t28 -43.5t10.5 -52.5zM395 483q0 44 -23.5 75t-69.5 31q-39 0 -64.5 -23.5t-25.5 -63.5q0 -27 12.5 -46.5t32 -35.5t42 -28t41.5 -24q27 20 41 51t14 64zM370 120q0 29 -14 51t-35.5 39t-46.5 31
t-46 26q-29 -20 -44.5 -53t-15.5 -68q0 -49 28 -80.5t79 -31.5q40 0 67.5 22t27.5 64z" />
    <glyph glyph-name="nine" unicode="9" horiz-adv-x="565" 
d="M26 226q0 61 25 111t64 86t87 55.5t94 19.5q47 0 88 -15.5t71 -45.5t47.5 -74.5t17.5 -101.5q0 -81 -40.5 -159.5t-110.5 -142t-164.5 -106t-202.5 -52.5l-27 44q74 16 136 44t111 64.5t83 80.5t52 94l-5 3q-36 -39 -82 -65.5t-97 -26.5q-29 0 -55.5 14.5t-47 40
t-32.5 59.5t-12 73zM183 241q0 -60 22.5 -92t51.5 -32q25 0 50 19t45 51q8 25 14.5 59.5t6.5 74.5q0 60 -23 93.5t-56 33.5q-22 0 -42.5 -16.5t-35.5 -44.5t-24 -66t-9 -80z" />
    <glyph glyph-name="colon" unicode=":" horiz-adv-x="232" 
d="M227 371q0 -36 -25.5 -62t-62.5 -26t-62.5 25.5t-25.5 62.5t25.5 63t62.5 26q18 0 34 -7t28 -19.5t19 -28.5t7 -34zM185 72q0 -36 -25.5 -62t-62.5 -26t-62.5 25.5t-25.5 62.5t25.5 63t62.5 26q18 0 34 -7t28 -19.5t19 -28.5t7 -34z" />
    <glyph glyph-name="semicolon" unicode=";" horiz-adv-x="232" 
d="M227 371q0 -36 -25.5 -62t-62.5 -26t-62.5 25.5t-25.5 62.5t25.5 63t62.5 26q18 0 34 -7t28 -19.5t19 -28.5t7 -34zM187 43q0 -31 -15 -61.5t-42 -60t-65 -56t-85 -49.5l-25 29q52 31 84.5 68t32.5 72q0 22 -11 38.5t-23.5 28t-23.5 17.5t-11 7q0 13 6.5 26t18 23.5
t26.5 17t33 6.5q24 0 43 -9t31.5 -24t19 -34t6.5 -39z" />
    <glyph glyph-name="less" unicode="&#x3c;" horiz-adv-x="480" 
d="M26 211v46l409 188l17 -66q-90 -39 -161 -71q-30 -14 -59 -26t-52 -23q-26 -12 -50 -23v-2l322 -142l-17 -67z" />
    <glyph glyph-name="equal" unicode="=" horiz-adv-x="470" 
d="M42 290l-5 71h398l-5 -71h-388zM37 108l5 71h388l5 -71h-398z" />
    <glyph glyph-name="greater" unicode="&#x3e;" horiz-adv-x="480" 
d="M35 25l-17 67l322 142v2l-14 6q-13 6 -35.5 16.5t-52 23.5t-59.5 26q-71 32 -161 71l17 66l409 -188v-46z" />
    <glyph glyph-name="question" unicode="?" horiz-adv-x="403" 
d="M417 448q0 -41 -14.5 -69t-36.5 -46.5t-49 -29t-53 -18.5q-34 -11 -58 -18.5t-24 -23.5q0 -14 9 -28t25 -25h-68q-27 14 -44 40t-17 53q0 30 14.5 51t37.5 35.5t51 23.5t54 16q35 9 59.5 16.5t24.5 18.5q0 12 -10 23.5t-27.5 20t-41 13.5t-51.5 5q-21 0 -40.5 -2.5
t-34.5 -5.5q-24 24 -24 52q0 38 30.5 63.5t87.5 25.5q39 0 75 -14t63.5 -39.5t44.5 -60.5t17 -77zM209 63q0 -32 -23 -55.5t-56 -23.5t-56 23t-23 56t23 56.5t56 23.5t56 -24t23 -56z" />
    <glyph glyph-name="at" unicode="@" horiz-adv-x="910" 
d="M482 102q0 10 5 27.5t11.5 37t13.5 39t11 32.5h-11q-25 -37 -46 -71.5t-41 -60t-42 -41t-49 -15.5q-51 0 -84 33.5t-33 97.5q0 32 8.5 65t24 64.5t36.5 61t45 53.5q29 29 63.5 46t65.5 17q42 0 62 -22.5t31 -61.5h10l31 84h121l-62 -173l-51 -183q-3 -12 20 -25t56 -13
q32 0 58.5 18.5t46 49.5t30.5 70.5t11 82.5q0 76 -26 135t-73.5 99.5t-113 61.5t-144.5 21t-148.5 -31.5t-121 -85t-81 -123t-29.5 -146.5q0 -82 27.5 -149.5t76.5 -115.5t116.5 -74t148.5 -26q31 0 64 5.5t66 15.5l12 -39q-38 -13 -73.5 -19.5t-76.5 -6.5q-86 0 -161 31
t-130.5 85t-87 127.5t-31.5 158.5q0 89 33 168.5t91 139t137.5 94t173.5 34.5q85 0 158 -24t126.5 -69.5t84 -111.5t30.5 -150q0 -57 -18.5 -109.5t-51.5 -93t-79 -65t-102 -24.5q-24 0 -49 6t-45 16t-32.5 23.5t-12.5 28.5zM537 355q-9 15 -22.5 27t-28.5 20.5t-28.5 13
t-21.5 4.5q-11 0 -17 -3t-13 -10q-8 -8 -18.5 -29.5t-19.5 -49t-15.5 -56.5t-6.5 -52q0 -32 12.5 -52.5t32.5 -20.5q14 0 27.5 11t27.5 28.5t29 40t32 45.5z" />
    <glyph glyph-name="A" unicode="A" horiz-adv-x="648" 
d="M298 0l3 46l26 3q19 3 29.5 9t13.5 19t0 35.5t-10 56.5l-5 23h-192l-3 -8q-23 -54 -19 -90.5t35 -42.5l26 -5l3 -46h-250l3 46l20 6q19 5 32.5 11t28.5 26.5t36 60.5t55 113l143 300v43l164 34l117 -537q5 -22 14 -33.5t30 -16.5l23 -7l3 -46h-326zM305 488h-12
l-107 -241h160z" />
    <glyph glyph-name="B" unicode="B" horiz-adv-x="641" 
d="M602 167q0 -59 -44 -103q-31 -31 -81.5 -47.5t-116.5 -16.5h-357l5 44l43 11q15 4 19.5 9.5t6.5 14.5l64 467q2 9 -1 14.5t-19 9.5l-40 11l-2 44h336q102 0 157.5 -34.5t55.5 -103.5q0 -35 -15.5 -62t-41 -47t-59 -33.5t-70.5 -21.5v-5q28 -6 56.5 -16.5t51.5 -28
t37.5 -43.5t14.5 -63zM450 464q0 50 -32.5 81.5t-85.5 31.5h-17l-32 -232h50q22 0 43 7t37.5 21.5t26.5 37t10 53.5zM423 168q0 31 -9 54.5t-24.5 39.5t-36 24.5t-42.5 8.5h-36l-33 -241l43 -7h7q31 0 55 10.5t41 27.5t26 38.5t9 44.5z" />
    <glyph glyph-name="C" unicode="C" horiz-adv-x="682" 
d="M589 0l-69 14q-31 -12 -74 -21.5t-99 -9.5q-76 0 -132 21t-93 58.5t-55 89.5t-18 115q0 71 31 140.5t85 123.5q49 49 115 78.5t144 29.5q25 0 49.5 -2.5t46.5 -7t39.5 -9.5t27.5 -10l99 29l-31 -240h-94l-32 156q-36 28 -82 28q-47 0 -86 -28.5t-66.5 -75t-42.5 -107
t-15 -123.5t15 -106.5t42 -70.5q34 -34 86 -34q20 0 40 5.5t36 13.5l79 161h100z" />
    <glyph glyph-name="D" unicode="D" horiz-adv-x="712" 
d="M695 344q0 -72 -25.5 -129.5t-79.5 -111.5q-46 -47 -124 -75t-171 -28h-292l5 44l43 11q15 4 19.5 9.5t6.5 14.5l64 467q2 9 -1 14.5t-19 9.5l-40 11l-2 44q85 1 149 1h133q83 0 145.5 -20.5t104.5 -58t63 -89.5t21 -114zM512 341q0 51 -9 94t-29 73.5t-53 47.5t-81 17
h-26l-70 -508l65 -15q41 3 78 22.5t65 56t44 90t16 122.5z" />
    <glyph glyph-name="E" unicode="E" horiz-adv-x="676" 
d="M584 0h-581l5 44l43 11q15 4 19.5 9.5t6.5 14.5l64 467q2 9 -1.5 14.5t-18.5 9.5l-40 11l-2 44h591l-29 -225h-89l-10 69q-5 37 -15 58t-30.5 31.5t-52.5 13.5t-82 3h-48l-33 -236h16q27 0 51 7.5t38 34.5l35 69h64l-60 -268h-63l-3 63q-1 25 -15.5 34t-58.5 9h-12
l-31 -238h62q48 0 80.5 3.5t55.5 14.5t40 32t34 57l28 55h90z" />
    <glyph glyph-name="F" unicode="F" horiz-adv-x="641" 
d="M533 400l-11 69q-6 37 -16.5 58t-31 31.5t-52.5 13.5t-81 3h-27l-34 -253h12q28 0 52.5 7t38.5 35l35 70h63l-60 -268h-63l4 62q0 26 -18.5 34t-63.5 8h-9l-25 -191q-3 -20 20 -24l53 -11l3 -44h-319l5 44l43 11q15 4 19.5 9.5t6.5 14.5l64 467q2 9 -1.5 14.5t-18.5 9.5
l-40 11l-2 44h571l-28 -225h-89z" />
    <glyph glyph-name="G" unicode="G" horiz-adv-x="738" 
d="M709 244l-46 -11q-24 -6 -27 -24l-26 -140l58 -7l3 -38q-56 -16 -132 -28.5t-161 -12.5t-147 20t-102.5 57t-60 89.5t-19.5 117.5q0 71 31 140.5t85 123.5q24 24 56.5 44t69 34.5t75.5 22t78 7.5q25 0 49.5 -2.5t46.5 -7t39.5 -9.5t27.5 -10l99 29l-31 -233h-94l-32 149
q-9 7 -21.5 12t-27 8.5t-28.5 5.5t-25 2q-47 0 -86 -28.5t-66.5 -75t-42.5 -107t-15 -123.5t15 -106.5t42 -70.5q17 -17 41.5 -25.5t50.5 -8.5q20 0 35 2t24 4l27 165q2 11 -3 15.5t-21 8.5l-39 11l-3 44h308z" />
    <glyph glyph-name="H" unicode="H" horiz-adv-x="761" 
d="M398 0l3 44l43 11q15 4 19.5 8.5t6.5 15.5l29 212h-225l-29 -212q-3 -19 20 -24l42 -11l3 -44h-305l3 44l43 11q14 4 19 9.5t7 14.5l64 467q2 9 -1.5 14.5t-18.5 9.5l-41 11l-3 44h306l-3 -44l-45 -11q-23 -8 -26 -24l-27 -200h225l27 200q2 11 -1.5 15.5t-18.5 8.5
l-40 11l-3 44h307l-5 -44l-44 -11q-23 -8 -26 -24l-64 -467q-3 -19 20 -24l41 -11l3 -44h-305z" />
    <glyph glyph-name="I" unicode="I" horiz-adv-x="386" 
d="M5 0l3 44l53 11q14 4 19 9.5t7 14.5l64 467q2 9 -1.5 15t-18.5 9l-51 11l-3 44h326l-3 -44l-55 -11q-23 -5 -26 -24l-64 -467q-3 -16 20 -24l52 -11l4 -44h-326z" />
    <glyph glyph-name="J" unicode="J" horiz-adv-x="475" 
d="M491 581l-43 -11q-23 -4 -26 -24l-40 -292q-19 -137 -81.5 -204t-177.5 -67q-30 0 -57 7t-46.5 20t-30.5 32t-10 43q0 14 6.5 26.5t16.5 21.5t22.5 14t24.5 5q17 0 33.5 -5t30 -18.5t22 -38t9.5 -63.5h1q26 23 39.5 69t20.5 94l48 356q3 20 -20 24l-60 11l-2 44h324z" />
    <glyph glyph-name="K" unicode="K" horiz-adv-x="704" 
d="M381 0l3 44l17 7q15 5 17 17t-6 30l-81 186q0 1 -10 -8t-23 -20q-15 -12 -34 -29l-19 -148q-3 -19 20 -24l41 -11l1 -44h-305l5 44l43 11q15 4 19.5 9.5t6.5 14.5l63 467q2 9 -1.5 14.5t-18.5 9.5l-41 11l-1 44h305l-4 -44l-45 -11q-23 -8 -26 -24l-31 -244l167 167
q32 32 44.5 50.5t12.5 29.5q-3 17 -20 25l-24 8l-2 43h274l-4 -43l-37 -12q-22 -8 -56.5 -30t-82.5 -62l-97 -82l142 -287q9 -18 15.5 -28.5t13.5 -17t15 -10t19 -7.5l6 -2l1 -44h-282z" />
    <glyph glyph-name="L" unicode="L" horiz-adv-x="599" 
d="M517 0h-515l5 44l43 11q15 4 19.5 9.5t6.5 14.5l64 467q2 9 -1 14.5t-19 9.5l-40 11l-2 44h304l-4 -44l-43 -11q-23 -8 -26 -24l-68 -496h31q37 0 63 5t46 17.5t35.5 33t31.5 51.5l28 55h90z" />
    <glyph glyph-name="M" unicode="M" horiz-adv-x="929" 
d="M560 0l3 44l49 12q8 2 13.5 8t10 24t9.5 52t11 92l34 314h-15l-221 -526h-168l-49 534h-15l-53 -318q-11 -65 -16 -100.5t-6 -53t3 -21t11 -5.5l56 -12l3 -44h-227l3 44l49 12q8 2 14.5 6.5t13 21.5t14.5 52.5t19 99.5l51 304q2 9 -0.5 19t-15.5 12l-56 10l-1 44h310
l42 -460h15l193 460h298l-4 -44l-53 -11q-13 -2 -19 -9.5t-7 -16.5l-37 -312q-7 -61 -10.5 -95.5t-2.5 -51.5t7 -21.5t16 -7.5l45 -12l2 -44h-319z" />
    <glyph glyph-name="N" unicode="N" horiz-adv-x="715" 
d="M741 581l-48 -13q-10 -3 -18.5 -14t-16 -33.5t-14.5 -59t-15 -90.5l-53 -378h-138l-235 483h-10l-31 -222q-8 -55 -11 -92t-2.5 -60t5.5 -33t13 -12l58 -13l3 -44h-246l3 44l48 13q10 3 18.5 13.5t16 33t14.5 59.5t15 91l41 290q1 5 -1 14t-16 12l-41 11l-2 44h233
l216 -447h10l27 193q8 55 11 92t2.5 60t-5.5 33.5t-13 11.5l-58 13l-3 44h246z" />
    <glyph glyph-name="O" unicode="O" horiz-adv-x="735" 
d="M704 348q0 -80 -32.5 -148t-86.5 -122q-46 -46 -106.5 -69.5t-130.5 -23.5q-64 0 -119.5 21t-95.5 59t-63 91.5t-23 117.5q0 74 25.5 138.5t76.5 115.5q50 50 113.5 79.5t140.5 29.5q64 0 119 -21t95.5 -59t63.5 -91t23 -118zM521 392q0 20 -1.5 42t-6.5 43.5t-14 42
t-23 35.5q-13 12 -29.5 19.5t-39.5 7.5q-36 0 -63 -19.5t-46.5 -51t-32.5 -71t-20.5 -79t-11 -75.5t-3.5 -60q0 -41 8 -85t37 -73q12 -13 28.5 -20.5t40.5 -7.5q35 0 62 19.5t46.5 50.5t32.5 70t21 78t11.5 74.5t3.5 59.5z" />
    <glyph glyph-name="P" unicode="P" horiz-adv-x="613" 
d="M612 446q0 -46 -21.5 -84t-59.5 -65t-91.5 -42t-117.5 -15q-13 0 -27.5 1t-26.5 1l-22 -163q-2 -20 20 -24l52 -11l1 -44h-316l5 44l43 11q15 4 19.5 9.5t6.5 14.5l64 467q2 9 -1.5 14.5t-18.5 9.5l-40 11l-2 44h285q55 0 100.5 -11.5t78.5 -34t51 -56t18 -77.5zM441 434
q0 33 -10 59t-26.5 45t-38.5 29t-45 10h-8l-40 -288q7 -1 13 -1.5t12 -0.5q64 0 103.5 39t39.5 108z" />
    <glyph glyph-name="Q" unicode="Q" horiz-adv-x="735" 
d="M675 -170q-34 -10 -84.5 -17.5t-110.5 -8.5q-45 0 -82.5 9t-70.5 32.5t-62.5 64.5t-57.5 104q-72 35 -116 102t-44 158q0 74 26.5 138t72.5 114q48 51 113.5 81t141.5 30q65 0 120 -21t96 -59t64 -91t23 -118q0 -80 -31 -149t-84 -119q-15 -14 -35.5 -28.5t-44.5 -27
t-50.5 -22t-53.5 -13.5q25 -34 48.5 -57t53.5 -37.5t68.5 -22t93.5 -10.5zM520 394q0 20 -1.5 42t-6.5 44t-14 42t-24 35q-12 12 -29 19.5t-39 7.5q-36 0 -63 -20t-46.5 -52t-32 -72t-20 -80t-10.5 -76t-3 -60q0 -20 1.5 -42t6.5 -43t13.5 -40t23.5 -33q12 -13 28.5 -20.5
t41.5 -7.5q35 0 61.5 19.5t46 51.5t32.5 71t20.5 79t10.5 75.5t3 59.5z" />
    <glyph glyph-name="R" unicode="R" horiz-adv-x="660" 
d="M422 0l-35 90l-79 171l-35 3l-27 -185q-2 -9 3.5 -13.5t16.5 -10.5l28 -11l3 -44h-292l3 44l43 11q15 4 19.5 9.5t6.5 14.5l62 467q2 9 -2 14.5t-18 9.5l-40 11l-2 44h325q56 0 99.5 -11.5t72.5 -32t44 -47.5t15 -59q0 -63 -41.5 -111t-131.5 -74l115 -206
q9 -17 20.5 -24.5t29.5 -13.5l6 -2l1 -44h-210zM449 449q0 29 -9 53t-24.5 40.5t-36 25.5t-44.5 9h-21l-37 -258l54 -11q23 4 44.5 14.5t38 28t26 42t9.5 56.5z" />
    <glyph glyph-name="S" unicode="S" horiz-adv-x="567" 
d="M516 194q0 -50 -19.5 -89t-53.5 -65.5t-81 -40.5t-103 -14q-70 0 -127.5 11t-105.5 25l23 206l87 -3l33 -163q22 -7 45.5 -11.5t54.5 -4.5q48 0 73.5 24.5t25.5 62.5q0 21 -10 36.5t-27 28t-39 23.5l-46 23q-40 20 -72 38.5t-54 41t-33.5 52t-11.5 70.5q0 40 18.5 75
t52 61t80 41t101.5 15q48 0 88 -8.5t89 -20.5l58 21l-28 -217l-82 3l-30 145q-46 16 -102 16q-45 0 -70 -22.5t-25 -47.5q0 -24 11 -41.5t29.5 -32t43 -26.5t50.5 -25q36 -18 65 -35.5t49.5 -39t31.5 -48.5t11 -64z" />
    <glyph glyph-name="T" unicode="T" horiz-adv-x="662" 
d="M582 401l-10 70q-5 37 -15.5 57.5t-24.5 31t-30.5 13t-33.5 2.5h-10l-66 -496q-2 -9 4 -15.5t16 -8.5l50 -11l4 -44h-321l2 44l52 11q14 3 19.5 9t6.5 15l66 496h-6q-19 0 -36 -3.5t-32.5 -15t-31 -33t-30.5 -56.5l-29 -66h-92l49 224h610l-28 -224h-83z" />
    <glyph glyph-name="U" unicode="U" horiz-adv-x="702" 
d="M739 581l-48 -13q-10 -3 -18.5 -14t-16 -33.5t-14.5 -59t-15 -90.5l-23 -159q-9 -61 -32.5 -105.5t-59 -74t-80.5 -44t-97 -14.5q-55 0 -101 13.5t-79 40.5t-51.5 67.5t-18.5 93.5q0 15 0.5 26t2.5 25l41 306q2 9 -1.5 14.5t-18.5 9.5l-40 11l-3 44h305l-3 -44l-44 -11
q-23 -8 -26 -24l-45 -322q-2 -14 -3 -27.5t-1 -36.5q0 -21 8.5 -41t24.5 -35.5t39.5 -25.5t53.5 -10q70 0 111.5 42.5t55.5 144.5l20 136q8 55 11 92t2 60t-5.5 33.5t-13.5 11.5l-57 13l-3 44h246z" />
    <glyph glyph-name="V" unicode="V" horiz-adv-x="634" 
d="M700 579l-21 -6q-19 -5 -32 -11.5t-28 -26.5t-36 -60.5t-56 -112.5l-175 -362h-136l-116 522q-5 22 -14 33.5t-29 16.5l-23 7l-3 46h326l-3 -46l-28 -3q-19 -3 -29 -9t-13.5 -19t-0.5 -35t10 -57l57 -321h10l129 286q18 39 24.5 67t4.5 46t-11.5 27.5t-25.5 12.5l-25 5
l-3 46h250z" />
    <glyph glyph-name="W" unicode="W" horiz-adv-x="997" 
d="M1084 579l-22 -7q-21 -6 -37.5 -14.5t-34.5 -29.5t-39.5 -60t-53.5 -106l-179 -362h-135l-51 373h-10l-175 -373h-139l-107 522q-5 22 -13.5 33.5t-29.5 16.5l-29 7l-3 46h338l-3 -46l-32 -3q-27 -4 -35.5 -30.5t2.5 -89.5l46 -318h10l148 323l-9 61q-3 22 -12 33.5
t-31 16.5l-29 7l-3 46h338l-3 -46l-32 -3q-15 -2 -23.5 -8.5t-12.5 -20.5t-2.5 -36t5.5 -55l34 -318h10l102 222q25 59 38 98t14.5 63.5t-7.5 36.5t-27 16l-17 5l-3 46h257z" />
    <glyph glyph-name="X" unicode="X" horiz-adv-x="650" 
d="M304 0l2 44l26 7q20 5 27 27t-14 58l-52 107h-10l-67 -74q-27 -30 -38.5 -51t-11.5 -35t10 -21.5t25 -11.5l22 -6l4 -44h-259l3 44l43 11q12 3 24.5 12.5t26 22t27 26.5t25.5 26l143 144l-110 190q-26 44 -41 67.5t-25 26.5l-34 11l-3 44h325l-3 -44l-26 -7q-9 -3 -16 -9
t-10 -16t0 -25t15 -35l41 -87h10l69 77q21 24 31 40.5t10.5 28t-7 18t-21.5 9.5l-24 6l-3 44h241l-3 -44l-43 -11q-11 -3 -27.5 -16.5t-34.5 -31t-35 -35.5t-29 -31l-98 -96l123 -224q22 -41 34.5 -59t25.5 -22l33 -11l3 -44h-324z" />
    <glyph glyph-name="Y" unicode="Y" horiz-adv-x="601" 
d="M665 579l-21 -7q-12 -3 -23 -8.5t-25.5 -20t-35 -41t-52.5 -71.5l-123 -173l-23 -179q-3 -19 20 -24l49 -11l-4 -44h-322l9 44l53 11q23 4 26 24l22 167l-124 284q-9 19 -18 27.5t-23 13.5l-22 8l-3 46h315l-3 -46l-38 -6q-29 -5 -27.5 -32t21.5 -85l54 -154h10l88 127
q26 38 39.5 64t15.5 43t-6 25.5t-25 11.5l-27 6l-3 46h229z" />
    <glyph glyph-name="Z" unicode="Z" horiz-adv-x="641" 
d="M543 0h-538l8 54l429 508v10h-98q-30 0 -52 -3.5t-38.5 -14t-30 -30t-27.5 -52.5l-30 -71h-89l29 224h545l-7 -55l-437 -508l-1 -10l105 -2q41 0 66.5 7t42 20.5t28 33t24.5 44.5l29 56h91z" />
    <glyph glyph-name="bracketleft" unicode="[" horiz-adv-x="368" 
d="M90 -222v873h262v-51h-203v-770h203v-52h-262z" />
    <glyph glyph-name="backslash" unicode="\" horiz-adv-x="279" 
d="M220 -212l-217 877h56l217 -877h-56z" />
    <glyph glyph-name="bracketright" unicode="]" horiz-adv-x="368" 
d="M16 -170h203v770h-203v51h262v-873h-262v52z" />
    <glyph glyph-name="asciicircum" unicode="^" 
d="M329 520l-86 112h-2l-116 -112h-68l121 177h144l75 -177h-68z" />
    <glyph glyph-name="underscore" unicode="_" horiz-adv-x="470" 
d="M-9 -53l3 53h482l3 -53h-488z" />
    <glyph glyph-name="grave" unicode="`" horiz-adv-x="398" 
d="M238 520l-159 177h154l73 -177h-68z" />
    <glyph glyph-name="a" unicode="a" horiz-adv-x="582" 
d="M410 388l33 83h135l-69 -192l-54 -206l26 -9l68 43l18 -23q-26 -41 -65.5 -70.5t-87.5 -29.5q-11 0 -28.5 4.5t-34.5 12t-29 16t-12 16.5q0 10 7 31t16 45t18.5 48.5t15.5 40.5h-12q-29 -43 -53 -81.5t-47 -68t-47 -46.5t-54 -17q-56 0 -93 37t-37 108q0 35 9.5 72
t27 72.5t40.5 68t50 59.5q32 32 70 50.5t73 18.5q47 0 72 -24t34 -59h10zM380 324q-10 17 -24 30t-29 22.5t-29.5 14.5t-23.5 5q-11 0 -18 -3.5t-15 -11.5q-18 -19 -32 -44t-23.5 -52.5t-14 -56t-4.5 -54.5q0 -35 13.5 -58.5t36.5 -23.5q16 0 31.5 12t31 32t32.5 46t37 54z
" />
    <glyph glyph-name="b" unicode="b" horiz-adv-x="567" 
d="M544 328q0 -35 -9.5 -72t-27 -72.5t-40.5 -68t-50 -59.5q-32 -32 -75.5 -51.5t-100.5 -19.5q-46 0 -84 13t-65 30.5t-41 34.5t-13 24l97 454q8 35 -17 46l-52 25l8 32l240 53l-58 -226l-57 -212h12q26 52 49.5 92t47.5 67t50 41t56 14q56 0 93 -37t37 -108zM401 284
q0 35 -13.5 58.5t-36.5 23.5q-19 0 -35.5 -14t-33 -37t-34 -52.5t-37.5 -60.5l-27 -88q10 -16 24 -29.5t29 -23t29.5 -14.5t23.5 -5q11 0 18 3.5t15 11.5q18 19 32.5 47t24.5 59.5t15.5 63.5t5.5 57z" />
    <glyph glyph-name="c" unicode="c" horiz-adv-x="468" 
d="M338 390q-17 8 -38 12t-37 4q-7 0 -15 -8q-10 -10 -23.5 -33t-25 -52.5t-19.5 -64t-8 -68.5q0 -48 24 -78t65 -30q11 0 49 21.5t87 52.5l19 -24q-16 -24 -38 -48t-49 -44t-59 -32.5t-68 -12.5q-44 0 -77 14t-55 38t-33 57t-11 71q0 54 23.5 109t64 99t95 72t117.5 28
q29 0 54.5 -8t44.5 -23t30 -36.5t11 -47.5q0 -39 -24 -64t-54 -25q-18 0 -30.5 6.5t-20.5 17t-11.5 23t-3.5 24.5q0 11 4.5 25t11.5 25z" />
    <glyph glyph-name="d" unicode="d" horiz-adv-x="582" 
d="M567 84q-26 -41 -65.5 -70.5t-87.5 -29.5q-11 0 -28 8t-32.5 19t-27 22.5t-11.5 19.5q0 10 6 28t14.5 38.5t17 41.5t14.5 37h-12q-29 -43 -53 -81.5t-47 -68t-47 -46.5t-54 -17q-56 0 -93 37t-37 108q0 35 9.5 72t27 72.5t40.5 68t50 59.5q32 32 70 50.5t73 18.5
q23 0 38.5 -6.5t25.5 -17.5t16.5 -26t10.5 -33h10l36 153q5 18 -0.5 29.5t-16.5 16.5l-52 25l8 32l244 55l-123 -473l-36 -153l26 -9l68 43zM380 324q-10 17 -24 30t-29 22.5t-29.5 14.5t-23.5 5q-11 0 -18 -3.5t-15 -11.5q-18 -19 -32 -44t-23.5 -52.5t-14 -56t-4.5 -54.5
q0 -35 13.5 -58.5t36.5 -23.5q16 0 31.5 12t31 32t32.5 46t37 54z" />
    <glyph glyph-name="e" unicode="e" horiz-adv-x="466" 
d="M173 162q0 -18 6 -34t17.5 -28.5t28 -20t36.5 -7.5q11 0 49 21.5t87 52.5l19 -24q-16 -24 -38 -48t-49 -44t-59 -32.5t-68 -12.5q-46 0 -79.5 14t-55 38t-31.5 57t-10 71q0 54 22.5 109t62 99t93 72t115.5 28q71 0 105 -29.5t34 -74.5q0 -26 -18.5 -47t-54.5 -43.5
t-89 -49.5t-123 -65v-2zM174 205q35 21 64 39t50 36t32.5 37t11.5 41q0 11 -7 20t-17.5 16t-22.5 10.5t-21 3.5q-11 0 -16.5 -2.5t-9.5 -6.5q-9 -9 -20 -29t-21.5 -47t-18 -57.5t-9.5 -60.5h5z" />
    <glyph glyph-name="f" unicode="f" horiz-adv-x="337" 
d="M506 592q0 -31 -20.5 -54.5t-53.5 -23.5q-19 0 -34.5 10t-26.5 27t-18 39t-9 45l-44 -8q-6 -18 -11.5 -42t-10 -49.5t-8.5 -48.5t-7 -39h126l3 -66h-141l-65 -309q-20 -98 -50.5 -162t-68.5 -102q-29 -29 -64 -42t-73 -13q-25 0 -46.5 7t-37.5 20t-25 30.5t-9 38.5
q0 31 19.5 49.5t46.5 18.5q37 0 59.5 -28.5t26.5 -66.5l52 10q9 25 16.5 62.5t15.5 85.5l52 392l-82 9l3 40l96 38q23 102 83 162q76 76 179 76q55 0 91 -29t36 -77z" />
    <glyph glyph-name="g" unicode="g" horiz-adv-x="497" 
d="M378 385l-2 -10q36 -20 50.5 -49t14.5 -55q0 -38 -16.5 -68t-45 -50.5t-67.5 -31.5t-83 -11q-16 0 -37 3t-38 6q-6 -3 -12.5 -12.5t-6.5 -20.5q0 -9 8 -16t20 -13t26.5 -10.5t27.5 -7.5l50 -13q81 -21 118.5 -52.5t37.5 -87.5q0 -31 -18 -60.5t-54 -52t-89 -36
t-122 -13.5q-104 0 -159.5 30.5t-55.5 84.5q0 45 39 72t100 41v10q-14 9 -25.5 26.5t-11.5 39.5q0 36 23.5 61.5t63.5 38.5v10q-35 19 -56.5 52.5t-21.5 72.5q0 44 17.5 82.5t48 67t72 45t89.5 16.5q14 0 31 -2.5t34.5 -6t32 -7t21.5 -5.5l154 4l-30 -106zM314 368
q0 7 -6.5 14t-16 12t-21.5 8.5t-23 3.5q-4 0 -10 -1.5t-8 -3.5q-13 -13 -23 -36.5t-17 -50t-11 -53t-4 -45.5q0 -13 5 -26.5t13 -21.5q3 -3 11.5 -6.5t16.5 -3.5q13 0 21.5 4.5t17.5 13.5q16 15 26.5 40t17 52.5t9 54t2.5 45.5zM308 -168q0 10 -4 19t-15 17.5t-31.5 17.5
t-53.5 19q-22 7 -50 16.5t-56 21.5q-31 -14 -43 -34.5t-12 -46.5q0 -35 37 -57.5t109 -22.5q59 0 89 15.5t30 34.5z" />
    <glyph glyph-name="h" unicode="h" horiz-adv-x="570" 
d="M553 84q-26 -41 -64.5 -70.5t-86.5 -29.5q-11 0 -28.5 5t-34.5 12.5t-29 16t-12 16.5q0 15 15.5 61.5t44.5 130.5q11 32 19.5 61t8.5 46q0 14 -14.5 21t-31.5 7q-13 0 -26.5 -11t-28.5 -35t-34 -61.5t-44 -90.5l-38 -163l-160 -5l39 152l87 394q8 35 -17 46l-52 25l8 32
l240 53l-58 -226l-58 -241h12q11 26 24 54.5t26.5 54.5t27 48t26.5 35q21 21 52 36t63 15q51 0 78.5 -25t27.5 -64q0 -38 -16.5 -90t-34.5 -105l-43 -116l26 -9l68 43z" />
    <glyph glyph-name="i" unicode="i" horiz-adv-x="307" 
d="M327 627q0 -22 -7 -41t-18.5 -33t-26 -22t-30.5 -8q-38 0 -58.5 24t-20.5 56q0 22 7 41t18.5 33.5t26 23t30.5 8.5q38 0 58.5 -25t20.5 -57zM286 84q-26 -41 -64.5 -70.5t-86.5 -29.5q-11 0 -29.5 5.5t-35.5 14t-29 17t-11 14.5l93 344l-31 8l-54 -65l-23 25
q10 21 23.5 43.5t30.5 41t37.5 30t44.5 11.5q11 0 32 -5.5t41.5 -13t35 -16.5t12.5 -15l-98 -350l26 -9l68 43z" />
    <glyph glyph-name="j" unicode="j" horiz-adv-x="282" 
d="M333 627q0 -22 -7 -41t-18.5 -33t-26 -22t-30.5 -8q-38 0 -58.5 24t-20.5 56q0 22 7 41t18.5 33.5t26 23t30.5 8.5q38 0 58.5 -25t20.5 -57zM181 56q-20 -87 -51 -149.5t-71 -101.5q-32 -30 -67.5 -48t-75.5 -18q-54 0 -87 27t-33 69q0 31 19.5 49.5t46.5 18.5
q37 0 59.5 -28.5t26.5 -66.5l37 8q8 20 18 59.5t22 90.5l98 412l-38 10l-52 -66l-23 25q10 21 23.5 43.5t30.5 41t37.5 30t44.5 11.5q11 0 32 -5t41.5 -12.5t35 -16.5t12.5 -16z" />
    <glyph glyph-name="k" unicode="k" horiz-adv-x="504" 
d="M507 103q-7 -21 -23 -42t-36.5 -37.5t-45 -26.5t-49.5 -10q-7 0 -16 2t-17.5 5.5t-15 8t-8.5 8.5l-70 194l-37 -15l-23 -190l-157 -5l39 152l87 394q8 35 -17 46l-52 25l8 32l237 53l-57 -224l-67 -241h7l186 99v15q-20 9 -32 27.5t-12 39.5q0 33 24 56t59 23
q20 0 37.5 -7t30.5 -19t20.5 -28.5t7.5 -35.5q0 -27 -12.5 -48t-34.5 -38t-51.5 -30.5t-62.5 -24.5l-12 -4l76 -170h18l46 40z" />
    <glyph glyph-name="l" unicode="l" horiz-adv-x="296" 
d="M282 84q-26 -41 -64.5 -70.5t-86.5 -29.5q-11 0 -29 5.5t-35.5 14t-29 17t-10.5 14.5l111 506q8 35 -17 46l-52 25l8 32l234 53l-141 -624l26 -9l68 43z" />
    <glyph glyph-name="m" unicode="m" horiz-adv-x="893" 
d="M876 84q-26 -41 -64.5 -70.5t-86.5 -29.5q-11 0 -28.5 5t-34.5 12.5t-29 16t-12 16.5q0 15 15.5 61.5t44.5 130.5q11 32 19.5 61t8.5 46q0 14 -14.5 21t-31.5 7q-13 0 -26.5 -11t-29 -35t-35 -61.5t-45.5 -90.5l-44 -163l-163 -5l43 152q7 24 15 52.5t14.5 55.5t11 48.5
t4.5 29.5q0 14 -14.5 21t-31.5 7q-13 0 -26.5 -11t-28.5 -35t-34 -61.5t-44 -90.5l-38 -163l-160 -5l39 152l48 232l-29 8l-54 -65l-23 25q10 21 23.5 43.5t30.5 41t37.5 30t44.5 11.5q11 0 31 -3t39.5 -8.5t34 -12.5t14.5 -15q0 -15 -6 -44.5t-14 -61.5t-16 -59.5
t-11 -38.5h12q11 26 24 54.5t26.5 54.5t27 48t26.5 35q21 21 52 36t63 15q51 0 78.5 -25t27.5 -64q0 -19 -5.5 -43t-12.5 -46.5t-13 -40.5l-8 -24h12q30 67 55.5 116.5t51.5 75.5q21 21 52 36t63 15q51 0 78.5 -25t27.5 -64q0 -38 -15.5 -90.5t-35.5 -104.5l-43 -116l26 -9
l68 43z" />
    <glyph glyph-name="n" unicode="n" horiz-adv-x="592" 
d="M575 84q-26 -41 -64.5 -70.5t-86.5 -29.5q-11 0 -28.5 5t-34.5 12.5t-29 16t-12 16.5q0 15 15.5 61.5t44.5 130.5q11 32 19.5 61t8.5 46q0 14 -14.5 21t-31.5 7q-13 0 -26.5 -11t-28.5 -35t-34 -61.5t-44 -90.5l-38 -163l-160 -5l39 152l48 232l-29 8l-54 -65l-23 25
q10 21 23.5 43.5t30.5 41t37.5 30t44.5 11.5q11 0 31 -3t39.5 -8.5t34 -12.5t14.5 -15q0 -15 -6 -44.5t-14 -61.5t-16 -59.5t-11 -38.5h12q11 26 24 54.5t26.5 54.5t27 48t26.5 35q21 21 52 36t63 15q51 0 78.5 -25t27.5 -64q0 -38 -16.5 -90t-34.5 -105l-43 -116l26 -9
l68 43z" />
    <glyph glyph-name="o" unicode="o" horiz-adv-x="522" 
d="M492 263q0 -55 -19 -105.5t-53.5 -88.5t-82.5 -61t-105 -23q-46 0 -83.5 15.5t-64 43t-40.5 66.5t-14 85q0 55 19.5 105.5t54.5 88.5t83 61t105 23q47 0 84 -15.5t62.5 -43t39.5 -66t14 -85.5zM351 320q0 44 -15.5 68t-43.5 24q-19 0 -36 -14.5t-30.5 -39t-24.5 -56
t-18 -66.5q-6 -28 -9 -53t-3 -45q0 -43 15.5 -67.5t43.5 -24.5q19 0 36 14.5t30.5 39.5t24.5 57t18 66q6 27 9 52t3 45z" />
    <glyph glyph-name="p" unicode="p" horiz-adv-x="583" 
d="M184 50l-46 -218q-3 -18 23 -24l64 -11l3 -43h-296l3 43l39 11q12 4 16.5 9.5t6.5 14.5l121 547l-29 8l-54 -65l-23 25q10 21 23.5 43.5t30.5 41t37.5 30t44.5 11.5q11 0 30 -6.5t38 -15.5t32.5 -19t13.5 -18q0 -30 -14 -66t-25 -69h13q25 52 47 89t44.5 60t47.5 34
t55 11q56 0 93 -37t37 -108q0 -35 -8.5 -72t-24 -72.5t-37.5 -68t-49 -59.5q-32 -32 -69.5 -51.5t-70.5 -19.5q-34 0 -62 18t-45 47h-10zM206 134q10 -16 23 -32.5t27 -30t27.5 -21.5t22.5 -8q11 0 18 3.5t15 11.5q18 19 32.5 47t24.5 59.5t15.5 63.5t5.5 57
q0 35 -13.5 58.5t-36.5 23.5q-14 0 -30 -14t-33.5 -37t-36 -52.5t-37.5 -60.5z" />
    <glyph glyph-name="q" unicode="q" horiz-adv-x="562" 
d="M355 198q-29 -43 -53 -81.5t-47 -68t-47 -46.5t-54 -17q-56 0 -93 37t-37 108q0 35 9.5 72t27 72.5t40.5 68t50 59.5q32 32 70 50.5t73 18.5q47 0 72 -24t34 -59h10l33 83h135l-69 -192l-94 -447q-3 -19 23 -24l44 -11l3 -43h-296l3 43l59 11q12 4 16.5 9.5t6.5 14.5
l49 221l44 145h-12zM380 324q-10 17 -24 30t-29 22.5t-29.5 14.5t-23.5 5q-11 0 -18 -3.5t-15 -11.5q-18 -19 -32 -44t-23.5 -52.5t-14 -56t-4.5 -54.5q0 -35 13.5 -58.5t36.5 -23.5q16 0 31.5 12t31 32t32.5 46t37 54z" />
    <glyph glyph-name="r" unicode="r" horiz-adv-x="509" 
d="M356 385l-144 -258l-21 -127l-160 -5l39 152l48 232l-29 8l-54 -65l-23 25q10 21 23.5 43.5t30.5 41t37.5 30t44.5 11.5q11 0 31 -3t39.5 -8.5t34 -12.5t14.5 -15q0 -15 -7.5 -47t-18 -69t-21.5 -72t-18 -56h12l80 164q16 33 29.5 56.5t28.5 38.5t33.5 22t44.5 7
q17 0 34 -6.5t30 -19.5t21 -32.5t8 -45.5q0 -19 -6.5 -35t-17.5 -28t-25 -19t-29 -7q-18 0 -33 7.5t-25 20.5t-12.5 30.5t4.5 36.5z" />
    <glyph glyph-name="s" unicode="s" horiz-adv-x="418" 
d="M419 380q0 -37 -18 -56.5t-51 -19.5q-32 0 -50 20t-18 47q0 5 1.5 13t3.5 13q-14 8 -37.5 16.5t-44.5 10.5q-14 -14 -23 -31t-9 -21q0 -9 9 -20.5t22 -24t28 -24.5t26 -23q27 -25 48 -44.5t35 -36t21 -32.5t7 -35q0 -31 -16.5 -58t-45 -46.5t-67.5 -31t-84 -11.5
q-25 0 -53.5 5t-52 16.5t-39 30t-15.5 46.5q0 35 18 55t53 20q29 0 47.5 -19t18.5 -48q0 -4 -1.5 -12t-3.5 -13q7 -4 19 -9t26 -9t28 -7t24 -3q10 11 18 27t8 30q0 9 -7.5 18.5t-19.5 21t-27 23.5t-30 25q-28 26 -49 45t-35 35.5t-20.5 32.5t-6.5 34q0 36 16.5 63t44 44.5
t64 26.5t75.5 9q28 0 57 -4.5t52.5 -15t38.5 -28.5t15 -45z" />
    <glyph glyph-name="t" unicode="t" horiz-adv-x="359" 
d="M157 598h141l-31 -150h126l3 -66h-141l-73 -309l26 -9l68 43l18 -23q-26 -41 -64.5 -70.5t-86.5 -29.5q-11 0 -29.5 5.5t-35.5 14t-29 17t-11 14.5l76 337l-83 10l3 39l97 39z" />
    <glyph glyph-name="u" unicode="u" horiz-adv-x="592" 
d="M23 347q10 21 23.5 43.5t30.5 41t37.5 30t44.5 11.5q11 0 30 -8t37 -19t31.5 -22.5t13.5 -19.5q0 -7 -3 -19.5t-10 -32.5t-17.5 -49t-24.5 -71q-11 -32 -18.5 -56t-7.5 -41q0 -14 13.5 -26t30.5 -12q14 0 27 11t29 35t36 61.5t47 90.5l43 164l160 5l-49 -152l-51 -244
l26 -9l63 43l18 -23q-26 -41 -63 -68t-85 -27q-11 0 -28.5 5t-34.5 12.5t-29.5 16.5t-12.5 17q0 15 7 45t16 60.5t17.5 56t11.5 31.5h-12q-13 -26 -27 -54.5t-28 -54.5t-28 -48t-27 -35q-21 -21 -52 -36t-63 -15q-51 0 -77.5 30t-26.5 69q0 38 15.5 86t33.5 99q6 16 12.5 35
t12.5 36q7 19 14 39l-29 8l-54 -65z" />
    <glyph glyph-name="v" unicode="v" horiz-adv-x="515" 
d="M290 4l-165 -19l-21 394l-29 8l-52 -65l-23 25q10 21 23.5 43.5t30.5 41t37.5 30t44.5 11.5q11 0 30.5 -4.5t38.5 -12t33 -16t14 -16.5l9 -365h15l101 182q14 28 22.5 47t8.5 39q0 25 -25.5 46.5t-59.5 27.5q5 13 14.5 26.5t23 24t30 17t36.5 6.5t38.5 -7t32 -19
t21.5 -28.5t8 -35.5q0 -24 -6 -46t-18 -44.5t-30 -48t-41 -55.5z" />
    <glyph glyph-name="w" unicode="w" horiz-adv-x="796" 
d="M409 289l-114 -285l-172 -19l-19 394l-28 8l-53 -65l-23 25q10 21 23.5 43.5t30.5 41t37.5 30t44.5 11.5q11 0 30.5 -4.5t38.5 -12t33 -16t14 -16.5l9 -365h14l128 319l-8 95l76 -12l69 -11l21 -391h14l83 182q13 28 22 47t9 39q0 25 -21.5 46.5t-53.5 27.5q5 13 14 26.5
t21.5 24t28.5 17t35 6.5q38 0 64 -26t26 -64q0 -24 -5.5 -45.5t-16.5 -44t-27 -47.5t-38 -57l-128 -187l-155 -19l-12 304h-12z" />
    <glyph glyph-name="x" unicode="x" horiz-adv-x="546" 
d="M578 397q-1 -36 -19.5 -59t-46.5 -23q-31 0 -46 20t-11 55l-28 5l-90 -149l58 -164h19l59 55l22 -25q-10 -21 -23.5 -43.5t-30.5 -41t-37.5 -30t-44.5 -11.5q-9 0 -27 5.5t-36 13t-31.5 15.5t-14.5 13l-20 130h-11q-29 -66 -49 -102t-36 -53t-30.5 -20t-32.5 -3
q-45 0 -70 22t-24 56q1 36 19 59t46 23q31 0 46.5 -20t11.5 -55l26 -7l44 78q8 15 16 29l14 25q6 10 10 17l4 6l-63 159h-20l-58 -55l-22 25q10 21 23.5 43.5t30.5 41t37 30t44 11.5q9 0 27 -3.5t36 -10t32 -15t15 -18.5l21 -130h10q25 61 46 96.5t39.5 54t35.5 23.5t35 5
q45 0 70.5 -22t24.5 -56z" />
    <glyph glyph-name="y" unicode="y" horiz-adv-x="523" 
d="M526 382q0 -25 -12 -55.5t-32 -65t-47 -71.5t-56 -73l-82 -102l-52 -112q-35 -77 -79 -113t-103 -36q-23 0 -44.5 7t-38 20t-26 30.5t-9.5 38.5q0 31 18 49.5t45 18.5q37 0 57.5 -25.5t20.5 -68.5l18 -5l118 145l-87 26l-29 389l-29 8l-52 -65l-23 25q10 21 23.5 43.5
t30.5 41t37.5 30t44.5 11.5q11 0 30.5 -4.5t38 -11.5t33 -16t14.5 -17l-1 -379h15l142 258v15q-32 12 -46 33t-14 38q0 36 23.5 60t59.5 24t64.5 -24t28.5 -67z" />
    <glyph glyph-name="z" unicode="z" horiz-adv-x="447" 
d="M286 312q-39 17 -72 42.5t-73 64.5l-13 -14q13 -17 18 -29.5t5 -30.5q0 -26 -16 -42.5t-40 -18.5q-35 -3 -51.5 16.5t-16.5 45.5q0 23 11 44.5t29.5 38.5t44.5 29t56 15q40 0 66.5 -9t44 -24t28 -35t18.5 -42q2 0 4.5 0.5t4.5 0.5h5l28 110q35 2 60.5 -17t25.5 -54
q0 -42 -31.5 -73.5t-94.5 -31.5l-171 -149q47 -21 83.5 -49t76.5 -65l12 13q-13 15 -18 28.5t-5 31.5q0 26 16 42.5t40 18.5q17 2 30 -3.5t21.5 -15t12.5 -22t4 -25.5q0 -23 -9.5 -45t-27.5 -40t-44 -29.5t-59 -14.5q-74 0 -112 33.5t-59 91.5h-10q-3 0 -6 -1l-29 -112
q-35 -2 -60.5 18t-25.5 55q0 42 31.5 71t93.5 29z" />
    <glyph glyph-name="braceleft" unicode="{" horiz-adv-x="362" 
d="M341 -212q-62 2 -106.5 14t-73 32t-41.5 47t-13 59q0 23 7.5 48t17 49t17 45.5t7.5 39.5t-4 31.5t-16.5 23.5t-35.5 16.5t-62 11.5l-11 35l11 33q34 6 57 12.5t36.5 16t19 23t5.5 31.5t-7.5 39.5t-17 45.5t-17 49t-7.5 48q0 32 13 59t41.5 47t73 32t106.5 14v-40
q-29 -3 -48 -9.5t-30 -16.5t-15 -24t-4 -31q0 -22 7.5 -45t17 -47.5t17 -50t7.5 -52.5q0 -45 -42 -80t-138 -49v-11q95 -13 137.5 -49t42.5 -81q0 -27 -7.5 -52.5t-17 -50t-17 -48t-7.5 -45.5q0 -17 4 -31t15 -24t30 -16t48 -9v-40z" />
    <glyph glyph-name="bar" unicode="|" horiz-adv-x="274" 
d="M111 690h52v-877h-52v877z" />
    <glyph glyph-name="braceright" unicode="}" horiz-adv-x="362" 
d="M330 205q-38 -5 -61.5 -11.5t-36 -16.5t-16.5 -23.5t-4 -31.5t7.5 -39.5t17 -45.5t17 -49t7.5 -48q0 -32 -13 -59t-41.5 -47t-72.5 -32t-106 -14v40q29 3 48 9t30 16t15 24t4 31q0 22 -7.5 45.5t-17 48t-17 50t-7.5 52.5q0 45 42 81t137 49v11q-95 14 -137 49t-42 80
q0 27 7.5 52.5t17 50t17 47.5t7.5 45q0 17 -4 31t-15 24t-30 16.5t-48 9.5v40q62 -2 106 -14t72.5 -32t41.5 -47t13 -59q0 -23 -7.5 -48t-17 -49t-17 -45.5t-7.5 -39.5t5.5 -31.5t19 -23t36.5 -16t57 -12.5l11 -33z" />
    <glyph glyph-name="asciitilde" unicode="~" 
d="M267 258q17 0 29 15t26 42h56q-8 -42 -20 -70.5t-28 -45.5t-35.5 -24t-42.5 -7q-21 0 -41.5 11t-40 23.5t-36.5 23.5t-31 11q-19 0 -27 -16t-20 -43h-60q16 83 48 115t78 32q21 0 41 -10.5t38.5 -23t35 -23t30.5 -10.5z" />
    <glyph glyph-name="exclamdown" unicode="&#xa1;" horiz-adv-x="304" 
d="M112 560q0 32 23 55.5t56 23.5t56 -23t23 -56t-23 -56.5t-56 -23.5t-56 24t-23 56zM153 415q2 4 6.5 5.5t9.5 1.5t9 -2t4 -7l2 -371q0 -27 -22.5 -42.5t-54.5 -15.5h-5q-19 0 -34.5 5t-26 14t-14.5 21.5t1 27.5z" />
    <glyph glyph-name="cent" unicode="&#xa2;" horiz-adv-x="442" 
d="M208 -165h-56l37 150q-39 1 -69 15.5t-51 39.5t-32 58.5t-11 71.5q0 54 20 108.5t56.5 97.5t89 70t116.5 27h2l40 163h56l-42 -172q36 -12 59 -36.5t23 -58.5q0 -39 -22.5 -59t-52.5 -20q-17 0 -28.5 5.5t-19.5 14.5l-55 -233q19 8 50 26.5t69 42.5l19 -24
q-26 -38 -66 -75.5t-93 -53.5zM213 81q21 89 39 159q8 30 15 58.5t12.5 51t8.5 36.5l3 13q-21 6 -42 6q-8 0 -18 -10t-21 -33t-19 -53t-13.5 -64.5t-5.5 -69.5q0 -32 10 -57t31 -37z" />
    <glyph glyph-name="sterling" unicode="&#xa3;" horiz-adv-x="577" 
d="M159 305q2 23 4 45q2 23 5 45q7 47 27.5 89t53.5 74.5t78.5 51.5t101.5 19q72 0 110 -26t38 -71q0 -32 -17.5 -51t-52.5 -19q-18 0 -32 9t-22.5 23.5t-9.5 34t7 40.5q-5 5 -15 10.5t-25 5.5q-13 0 -25.5 -6.5t-23.5 -23t-20 -45.5t-15 -74q-5 -36 -9.5 -69t-9.5 -62h134
l3 -51h-146l-4 -16l-4 -16q-9 -34 -21.5 -59.5t-26.5 -42.5v-5q16 -4 35.5 -8.5t40 -8t39.5 -6t34 -2.5q26 0 46 5.5t34 19.5q21 21 35 61l29 -10q5 -97 -32.5 -143.5t-113.5 -46.5q-38 0 -68 13t-52.5 30.5t-38 34t-24.5 23.5q-31 -38 -80.5 -65.5t-103.5 -35.5l-8 55
q37 7 61.5 19.5t40 33t24 49t12.5 67.5q1 10 1.5 23.5t2.5 30.5h-113l3 51h113z" />
    <glyph glyph-name="currency" unicode="&#xa4;" horiz-adv-x="534" 
d="M208 219q10 -69 44 -106.5t97 -37.5q35 0 68.5 15.5t63.5 41.5l17 -16q-13 -28 -34 -52.5t-47.5 -41.5t-57 -27t-63.5 -10q-50 0 -89.5 17.5t-68 49t-45 74.5t-20.5 93h-60l3 53h56v1q2 36 9 72h-52l3 53h63q16 48 42.5 90t62.5 73.5t82 49.5t102 18q69 0 109.5 -25
t41.5 -61q0 -32 -19.5 -51.5t-46.5 -19.5q-35 0 -54 28.5t-14 68.5q-4 2 -13.5 6t-22.5 4q-25 0 -47 -15t-40.5 -40t-33 -58t-24.5 -68h203l3 -53h-217q-2 -17 -3.5 -33.5t-1.5 -32.5v-7h203l3 -53h-202z" />
    <glyph glyph-name="yen" unicode="&#xa5;" horiz-adv-x="612" 
d="M661 580l-24 -7q-13 -4 -24.5 -10t-25.5 -19t-32.5 -36t-45.5 -61l-102 -142h145l3 -51h-168l-10 -76h175l4 -51h-181l-7 -49q-3 -20 20 -24l53 -11l3 -43h-318l3 43l55 11q23 4 26 24l7 49h-157l2 51h165l10 76h-178l3 51h160l-112 237q-6 12 -12 17.5t-18 9.5l-36 11
l-3 45h305l-3 -45l-29 -6q-17 -4 -20 -31t15 -72l47 -144h10l82 120q46 67 53 94.5t-30 34.5l-21 4l-3 45h217z" />
    <glyph glyph-name="brokenbar" unicode="&#xa6;" horiz-adv-x="567" 
d="M591 582l-46 -11q-22 -5 -25 -24l-50 -353q-7 -51 -29 -90t-56 -65t-78.5 -39.5t-96.5 -13.5q-45 0 -82.5 12t-64.5 33t-42 49t-15 60q0 40 26.5 65t64.5 25q31 0 53.5 -21t22.5 -52q0 -25 -10 -45t-25 -32q12 -18 35.5 -29t42.5 -11q35 0 62.5 31t35.5 99l46 377
q1 9 -2.5 15t-16.5 9l-62 11l-3 43h318z" />
    <glyph glyph-name="section" unicode="&#xa7;" horiz-adv-x="493" 
d="M471 298q0 -47 -26 -82t-68 -57q15 -13 24 -30t9 -38q0 -31 -15.5 -59t-43.5 -49.5t-65 -33.5t-81 -12q-79 0 -121.5 24.5t-42.5 66.5q0 31 21.5 51t48.5 20q18 0 35.5 -8.5t31 -23t21 -32.5t4.5 -37q12 -7 24 -9.5t23 -2.5q27 0 43 15.5t16 39.5q0 10 -10.5 21t-27 22
t-38 23t-44.5 25q-27 14 -53.5 29.5t-47.5 33t-34.5 38t-13.5 45.5q2 48 29 83t69 57q-15 13 -24 29t-9 39q0 32 15 59.5t42 48t63.5 32t79.5 11.5q79 0 115.5 -24t36.5 -64q0 -32 -21.5 -53t-48.5 -21q-18 0 -32 8.5t-23.5 22.5t-14 32t-1.5 37q-4 3 -11 5t-14.5 4t-15 3
t-11.5 1q-19 0 -30.5 -4.5t-17.5 -12t-8 -16.5t-2 -18q0 -12 10 -23t26.5 -22.5t38 -23t44.5 -23.5q26 -15 52 -30.5t47 -33.5t34 -38.5t13 -44.5zM378 227q0 16 -7.5 29t-20.5 24.5t-29.5 22t-34.5 20.5q-32 17 -64.5 35t-58.5 38q-26 -14 -26 -48q0 -30 28.5 -52t68.5 -43
q29 -18 61.5 -35t58.5 -37q24 15 24 46z" />
    <glyph glyph-name="dieresis" unicode="&#xa8;" 
d="M433 605q0 -31 -18.5 -53t-52.5 -22t-52.5 22t-18.5 53t18.5 54t52.5 23t52.5 -23t18.5 -54zM205 605q0 -31 -18.5 -53t-52.5 -22t-53.5 22t-19.5 53t19.5 54t53.5 23t52.5 -23t18.5 -54z" />
    <glyph glyph-name="copyright" unicode="&#xa9;" horiz-adv-x="801" 
d="M771 311q0 -77 -29 -144.5t-79 -118t-117.5 -79.5t-144.5 -29t-144.5 29t-118 79.5t-79.5 118t-29 144.5t29 145t79.5 118.5t118 79.5t144.5 29t144.5 -29t117.5 -79.5t79 -118.5t29 -145zM727 311q0 68 -25.5 128t-70 105t-103.5 71t-127 26t-127.5 -26t-104 -71
t-70 -105t-25.5 -128q0 -67 25.5 -127t70 -105t104 -71t127.5 -26t127 26t103.5 71t70 105t25.5 127zM554 117l-46 10q-20 -9 -48.5 -14.5t-51.5 -5.5q-58 0 -99 17t-66.5 45.5t-37.5 66t-12 77.5q0 44 17.5 80.5t47.5 63t69.5 41.5t82.5 15q32 0 55.5 -5.5t37.5 -11.5
l59 16v-145h-58l-30 97q-25 16 -67 16q-51 0 -82 -39t-31 -122q0 -35 8 -67.5t23 -57.5t37.5 -40t51.5 -15q19 0 31.5 3.5t21.5 8.5l36 99h62z" />
    <glyph glyph-name="ordfeminine" unicode="&#xaa;" horiz-adv-x="425" 
d="M327 576l17 62l99 -8l-46 -172l-24 -107l20 -6l49 47l14 -18q-10 -16 -22.5 -32t-27.5 -29.5t-32 -22t-34 -8.5q-8 0 -20 5.5t-23.5 13.5t-19.5 16.5t-8 14.5q0 7 4.5 20.5t11.5 31t15.5 39t16.5 44.5h-9q-25 -42 -46.5 -76.5t-41.5 -58.5t-40 -37t-43 -13
q-33 0 -56.5 24.5t-23.5 74.5q0 55 22.5 110.5t62.5 94.5q27 27 56.5 39t55.5 12q34 0 46.5 -17.5t19.5 -43.5h7zM312 532q-26 19 -48.5 32.5t-36.5 13.5q-8 0 -13 -2.5t-11 -8.5q-7 -7 -14 -23t-12.5 -36.5t-9 -42.5t-3.5 -42q0 -58 38 -58q14 0 36 28.5t56 81.5z" />
    <glyph glyph-name="guillemotleft" unicode="&#xab;" horiz-adv-x="510" 
d="M459 32l-229 156v70l275 160l10 -22l-185 -175l145 -167zM229 42l-221 146v70l263 150l10 -22l-159 -165l123 -157z" />
    <glyph glyph-name="logicalnot" unicode="&#xac;" horiz-adv-x="582" 
d="M410 388l33 83h135l-69 -192l-54 -206l26 -9l68 43l18 -23q-26 -41 -65.5 -70.5t-87.5 -29.5q-11 0 -28.5 4.5t-34.5 12t-29 16t-12 16.5q0 10 7 31t16 45t18.5 48.5t15.5 40.5h-12q-29 -43 -53 -81.5t-47 -68t-47 -46.5t-54 -17q-56 0 -93 37t-37 108q0 35 9.5 72
t27 72.5t40.5 68t50 59.5q32 32 70 50.5t73 18.5q47 0 72 -24t34 -59h10zM380 324q-10 17 -24 30t-29 22.5t-29.5 14.5t-23.5 5q-11 0 -18 -3.5t-15 -11.5q-18 -19 -32 -44t-23.5 -52.5t-14 -56t-4.5 -54.5q0 -35 13.5 -58.5t36.5 -23.5q16 0 31.5 12t31 32t32.5 46t37 54z
" />
    <glyph glyph-name="registered" unicode="&#xae;" horiz-adv-x="802" 
d="M772 314q0 -77 -29 -144.5t-79 -118t-118 -79.5t-145 -29t-144.5 29t-118 79.5t-79.5 118t-29 144.5t29 144.5t79.5 118t118 79.5t144.5 29t145 -29t118 -79.5t79 -118t29 -144.5zM728 314q0 68 -25.5 128t-70 105t-104 71t-127.5 26q-67 0 -127 -26t-104 -71t-70 -105
t-26 -128t26 -128t70 -104.5t104 -70.5t127 -26q68 0 127.5 26t104 70.5t70 104.5t25.5 128zM476 120l-23 43l-72 122l-23 2v-110q0 -9 14 -14l21 -7l4 -36h-182l3 36l28 7q15 4 15 14v271q0 11 -15 15l-28 7l-3 37h202q40 0 68.5 -7.5t47 -21t27 -31.5t8.5 -38
q0 -79 -94 -105l86 -126q5 -8 12.5 -10t12.5 -5l12 -7l3 -36h-124zM466 391q0 40 -24.5 61t-58.5 21h-25v-151l32 -4q34 2 55 18.5t21 54.5z" />
    <glyph glyph-name="macron" unicode="&#xaf;" 
d="M61 551l15 75h320l5 -75h-340z" />
    <glyph glyph-name="degree" unicode="&#xb0;" horiz-adv-x="410" 
d="M411 500q0 -39 -14.5 -73t-39 -59.5t-58 -40t-72.5 -14.5q-32 0 -60.5 10.5t-49.5 30t-33.5 47t-12.5 61.5q0 38 14.5 71.5t39 59t58 40t70.5 14.5q33 0 61.5 -10t50 -29t34 -46.5t12.5 -61.5zM361 490q0 50 -31 81.5t-81 31.5q-28 0 -51.5 -11.5t-41 -31t-27.5 -44.5
t-10 -52q0 -50 32.5 -79.5t79.5 -29.5q28 0 51.5 10.5t41 29t27.5 43t10 52.5z" />
    <glyph glyph-name="plusminus" unicode="&#xb1;" horiz-adv-x="801" 
d="M771 311q0 -77 -29 -144.5t-79 -117.5t-117.5 -79t-144.5 -29t-144.5 29t-118 79t-79.5 117.5t-29 144.5t29 145t79.5 118.5t118 79.5t144.5 29t144.5 -29t117.5 -79.5t79 -118.5t29 -145zM727 311q0 68 -25.5 128t-70 105t-103.5 71t-127 26t-127.5 -26t-104 -71
t-70 -105t-25.5 -128q0 -67 25.5 -127t70 -105t104 -71t127.5 -26t127 26t103.5 71t70 105t25.5 127zM586 393q0 -30 -12 -54t-33.5 -41t-50.5 -26t-64 -9q-8 0 -21.5 0.5t-21.5 1.5v-91q0 -10 14 -14l33 -8l4 -36h-194l3 36l28 8q14 4 14 14v271q0 10 -14 14l-28 8l-3 36
h179q85 0 126 -29.5t41 -80.5zM485 386q0 38 -23 60.5t-55 22.5h-24v-170q8 -1 15.5 -2t21.5 -1q31 0 48 22.5t17 67.5z" />
    <glyph glyph-name="acute" unicode="&#xb4;" horiz-adv-x="398" 
d="M214 520h-66l121 177h154z" />
    <glyph glyph-name="mu" unicode="&#xb5;" horiz-adv-x="497" 
d="M378 385l-2 -10q36 -20 50.5 -49t14.5 -55q0 -38 -16.5 -68t-45 -50.5t-67.5 -31.5t-83 -11q-16 0 -37 3t-38 6q-6 -3 -12.5 -12.5t-6.5 -20.5q0 -9 8 -16t20 -13t26.5 -10.5t27.5 -7.5l50 -13q81 -21 118.5 -52.5t37.5 -87.5q0 -31 -18 -60.5t-54 -52t-89 -36
t-122 -13.5q-104 0 -159.5 30.5t-55.5 84.5q0 45 39 72t100 41v10q-14 9 -25.5 26.5t-11.5 39.5q0 36 23.5 61.5t63.5 38.5v10q-35 19 -56.5 52.5t-21.5 72.5q0 44 17.5 82.5t48 67t72 45t89.5 16.5q14 0 31 -2.5t34.5 -6t32 -7t21.5 -5.5l154 4l-30 -106zM314 368
q0 7 -6.5 14t-16 12t-21.5 8.5t-23 3.5q-4 0 -10 -1.5t-8 -3.5q-13 -13 -23 -36.5t-17 -50t-11 -53t-4 -45.5q0 -13 5 -26.5t13 -21.5q3 -3 11.5 -6.5t16.5 -3.5q13 0 21.5 4.5t17.5 13.5q16 15 26.5 40t17 52.5t9 54t2.5 45.5zM308 -168q0 10 -4 19t-15 17.5t-31.5 17.5
t-53.5 19q-22 7 -50 16.5t-56 21.5q-31 -14 -43 -34.5t-12 -46.5q0 -35 37 -57.5t109 -22.5q59 0 89 15.5t30 34.5z" />
    <glyph glyph-name="paragraph" unicode="&#xb6;" horiz-adv-x="477" 
d="M314 -32l38 269q-14 -1 -24.5 -2t-27.5 -1q-55 0 -101 13.5t-79 37.5t-51.5 58t-18.5 76q0 57 20 96t58.5 63.5t94.5 35.5t129 11h123l-86 -657h-75z" />
    <glyph glyph-name="periodcentered" unicode="&#xb7;" horiz-adv-x="232" 
d="M208 248q0 -36 -25.5 -62t-62.5 -26t-62.5 25.5t-25.5 62.5t25.5 63t62.5 26q18 0 34 -7t28 -19.5t19 -28.5t7 -34z" />
    <glyph glyph-name="cedilla" unicode="&#xb8;" 
d="M8 -250q81 9 125 30t44 48q0 49 -77 49q-22 0 -39.5 -1.5t-36.5 -6.5l2 28l137 124h56l-85 -72q61 -5 96.5 -27.5t35.5 -63.5q0 -30 -19 -54.5t-52.5 -42.5t-79.5 -28.5t-100 -12.5z" />
    <glyph glyph-name="ordmasculine" unicode="&#xba;" horiz-adv-x="381" 
d="M398 484q0 -40 -14 -77t-39.5 -65t-60 -44.5t-76.5 -16.5q-68 0 -107.5 42.5t-39.5 110.5q0 41 14 77.5t39.5 64.5t60.5 44.5t77 16.5q69 0 107.5 -42t38.5 -111zM295 526q0 32 -11.5 49.5t-31.5 17.5q-14 0 -26 -10.5t-22.5 -28.5t-18 -41.5t-12.5 -48.5
q-4 -21 -6.5 -39t-2.5 -32q0 -32 11.5 -49.5t31.5 -17.5q14 0 26 10.5t22.5 28.5t18 41.5t12.5 48.5q4 20 6.5 38.5t2.5 32.5z" />
    <glyph glyph-name="guillemotright" unicode="&#xbb;" horiz-adv-x="510" 
d="M230 38l-10 22l161 165l-123 157l16 22l219 -146v-70zM-2 28l-10 22l183 175l-143 167l14 22l231 -156v-70z" />
    <glyph glyph-name="onequarter" unicode="&#xbc;" horiz-adv-x="616" 
d="M149 -53q4 1 11 1q37 0 59.5 -28.5t26.5 -66.5l52 10q9 25 17 62.5t15 85.5l51 371h-133l-63 -310q-15 -70 -36 -125zM415 523q-22 16 -36 46t-19 62l-64 -11q-11 -45 -18 -86t-16 -86h132q5 22 10 40t11 35zM99 -150q-8 -11 -16.5 -21t-16.5 -19q-29 -29 -63.5 -42.5
t-72.5 -13.5q-24 0 -45.5 7.5t-37.5 20t-25.5 30.5t-9.5 39q0 30 19.5 48.5t46.5 18.5q36 0 59.5 -28t26.5 -66l50 9q9 24 18 62.5t15 86.5l52 390l-83 10l3 39l97 39q5 35 22.5 77t57.5 80q19 18 38 32.5t41 24.5t49 15t61 5q39 0 70 -14.5t49 -37.5q34 27 74 41.5t80 14.5
q55 0 91 -29t36 -77q0 -31 -20.5 -54.5t-53.5 -23.5q-19 0 -34.5 10t-26.5 27t-18 39t-9 45l-44 -8q-11 -35 -19.5 -85t-17.5 -94h126l3 -66h-143l-57 -279q-20 -98 -50.5 -162t-68.5 -102q-29 -29 -65.5 -42t-74.5 -13q-41 0 -71.5 18t-41.5 48z" />
    <glyph glyph-name="onehalf" unicode="&#xbd;" horiz-adv-x="873" 
d="M149 -53q4 1 11 1q37 0 59.5 -28.5t26.5 -66.5l52 10q9 25 17 62.5t15 85.5l51 371h-133l-63 -310q-15 -70 -36 -125zM415 523q-22 16 -36 46t-19 62l-64 -11q-11 -45 -18 -86t-16 -86h132q5 22 10 40t11 35zM504 642q36 27 83 42t100 15q69 0 108 -30.5t39 -83.5
q0 -29 -21 -51.5t-53 -22.5q-18 0 -33 10.5t-26.5 27.5t-19 38.5t-11.5 43.5l-84 -11q-19 -45 -27 -86t-17 -86h115q17 11 34 18t35 7q11 0 28.5 -8.5t34 -20t28 -23.5t9.5 -18l-84 -314l8 -8l84 55l18 -25q-13 -21 -31 -43.5t-38 -41t-42.5 -30t-46.5 -11.5
q-11 0 -28.5 8.5t-34 20.5t-27.5 23.5t-10 17.5l86 319l-8 8h-144l-57 -279q-20 -98 -50.5 -162t-68.5 -102q-29 -29 -65.5 -42t-74.5 -13q-41 0 -71.5 18t-41.5 48q-8 -11 -16.5 -21t-16.5 -19q-29 -29 -63.5 -42.5t-72.5 -13.5q-24 0 -45.5 7.5t-37.5 20t-25.5 30.5
t-9.5 39q0 30 19.5 48.5t46.5 18.5q36 0 59.5 -28t26.5 -66l50 9q9 24 18 62.5t15 86.5l52 390l-83 10l3 39l97 39q5 35 22.5 77t57.5 80q19 18 38 32.5t41 24.5t49 15t61 5q39 0 70 -14.5t49 -37.5z" />
    <glyph glyph-name="threequarters" unicode="&#xbe;" horiz-adv-x="868" 
d="M708 531q-14 14 -23.5 44t-14.5 56l-84 -11q-19 -45 -27 -86t-17 -86h148zM415 523q-22 16 -36 46t-19 62l-64 -11q-11 -45 -18 -86t-16 -86h132q5 22 10 40t11 35zM149 -53q4 1 11 1q37 0 59.5 -28.5t26.5 -66.5l52 10q9 25 17 62.5t15 85.5l51 371h-133l-63 -310
q-15 -70 -36 -125zM504 642q36 27 83 42t100 15q60 0 98 -24l98 22l-136 -608l8 -8l84 55l18 -25q-13 -21 -31 -43.5t-38 -41t-42.5 -30t-46.5 -11.5q-11 0 -27.5 8.5t-32 20.5t-26 23.5t-9.5 17.5l71 327h-147l-57 -279q-20 -98 -50.5 -162t-68.5 -102q-29 -29 -65.5 -42
t-74.5 -13q-41 0 -71.5 18t-41.5 48q-8 -11 -16.5 -21t-16.5 -19q-29 -29 -63.5 -42.5t-72.5 -13.5q-24 0 -45.5 7.5t-37.5 20t-25.5 30.5t-9.5 39q0 30 19.5 48.5t46.5 18.5q36 0 59.5 -28t26.5 -66l50 9q9 24 18 62.5t15 86.5l52 390l-83 10l3 39l97 39q5 35 22.5 77
t57.5 80q19 18 38 32.5t41 24.5t49 15t61 5q39 0 70 -14.5t49 -37.5z" />
    <glyph glyph-name="questiondown" unicode="&#xbf;" horiz-adv-x="403" 
d="M0 175q0 41 14.5 69t36.5 46.5t49.5 29.5t52.5 18q34 11 58 18.5t24 23.5q0 14 -9 28t-25 25h68q27 -14 44 -40t17 -53q0 -30 -14.5 -51t-37.5 -35.5t-51 -23.5t-54 -16q-35 -9 -59.5 -16.5t-24.5 -18.5q0 -12 10 -23.5t27.5 -20t41 -13.5t51.5 -5q21 0 40.5 2.5
t34.5 5.5q24 -24 24 -52q0 -38 -30.5 -63.5t-87.5 -25.5q-39 0 -75 14t-63.5 39.5t-44.5 60.5t-17 77zM208 560q0 32 23 55.5t56 23.5t56 -23t23 -56t-23 -56.5t-56 -23.5t-56 24t-23 56z" />
    <glyph glyph-name="Agrave" unicode="&#xc0;" horiz-adv-x="648" 
d="M298 0l3 46l26 3q19 3 29.5 9t13.5 19t0 35.5t-10 56.5l-5 23h-192l-3 -8q-23 -54 -19 -90.5t35 -42.5l26 -5l3 -46h-250l3 46l20 6q19 5 32.5 11t28.5 26.5t36 60.5t55 113l143 300v43l164 34l117 -537q5 -22 14 -33.5t30 -16.5l23 -7l3 -46h-326zM305 488h-12
l-107 -241h160zM363 687l-159 177h154l73 -177h-68z" />
    <glyph glyph-name="Aacute" unicode="&#xc1;" horiz-adv-x="648" 
d="M298 0l3 46l26 3q19 3 29.5 9t13.5 19t0 35.5t-10 56.5l-5 23h-192l-3 -8q-23 -54 -19 -90.5t35 -42.5l26 -5l3 -46h-250l3 46l20 6q19 5 32.5 11t28.5 26.5t36 60.5t55 113l143 300v43l164 34l117 -537q5 -22 14 -33.5t30 -16.5l23 -7l3 -46h-326zM305 488h-12
l-107 -241h160zM369 687h-66l121 177h154z" />
    <glyph glyph-name="Acircumflex" unicode="&#xc2;" horiz-adv-x="648" 
d="M298 0l3 46l26 3q19 3 29.5 9t13.5 19t0 35.5t-10 56.5l-5 23h-192l-3 -8q-23 -54 -19 -90.5t35 -42.5l26 -5l3 -46h-250l3 46l20 6q19 5 32.5 11t28.5 26.5t36 60.5t55 113l143 300v43l164 34l117 -537q5 -22 14 -33.5t30 -16.5l23 -7l3 -46h-326zM305 488h-12
l-107 -241h160zM453 687l-86 112h-2l-116 -112h-68l121 177h144l75 -177h-68z" />
    <glyph glyph-name="Atilde" unicode="&#xc3;" horiz-adv-x="648" 
d="M298 0l3 46l26 3q19 3 29.5 9t13.5 19t0 35.5t-10 56.5l-5 23h-192l-3 -8q-23 -54 -19 -90.5t35 -42.5l26 -5l3 -46h-250l3 46l20 6q19 5 32.5 11t28.5 26.5t36 60.5t55 113l143 300v43l164 34l117 -537q5 -22 14 -33.5t30 -16.5l23 -7l3 -46h-326zM305 488h-12
l-107 -241h160zM552 840q-8 -42 -20 -70.5t-28 -45.5t-35.5 -24t-42.5 -7q-21 0 -41.5 11t-40 23.5t-36.5 23.5t-31 11q-19 0 -27 -16t-20 -43h-60q16 83 48 115t78 32q21 0 41 -10.5t38.5 -23t35 -23t30.5 -10.5q17 0 29 15t26 42h56z" />
    <glyph glyph-name="Adieresis" unicode="&#xc4;" horiz-adv-x="648" 
d="M298 0l3 46l26 3q19 3 29.5 9t13.5 19t0 35.5t-10 56.5l-5 23h-192l-3 -8q-23 -54 -19 -90.5t35 -42.5l26 -5l3 -46h-250l3 46l20 6q19 5 32.5 11t28.5 26.5t36 60.5t55 113l143 300v43l164 34l117 -537q5 -22 14 -33.5t30 -16.5l23 -7l3 -46h-326zM305 488h-12
l-107 -241h160zM557 772q0 -31 -18.5 -53t-52.5 -22t-52.5 22t-18.5 53t18.5 54t52.5 23t52.5 -23t18.5 -54zM329 772q0 -31 -18.5 -53t-52.5 -22t-53.5 22t-19.5 53t19.5 54t53.5 23t52.5 -23t18.5 -54z" />
    <glyph glyph-name="Aring" unicode="&#xc5;" horiz-adv-x="648" 
d="M308 488h-15l-108 -246h159zM445 696q0 28 -18.5 50.5t-50.5 22.5t-50.5 -22.5t-18.5 -50.5t18.5 -49.5t50.5 -21.5t50.5 21.5t18.5 49.5zM298 617q-31 31 -31 79q1 22 8.5 42t21.5 35t34 24t45 9t45 -9t33.5 -24t21 -35t7.5 -42q0 -26 -10 -49t-29 -38l110 -506
q5 -22 14 -33.5t30 -16.5l23 -7l3 -46h-326l3 46l26 3q19 3 29.5 9t13.5 19t0 35.5t-10 56.5l-5 23h-192l-3 -8q-23 -54 -19 -90.5t35 -42.5l26 -5l3 -46h-250l3 46l20 6q19 5 32 11.5t28 26.5t36 60.5t56 112.5z" />
    <glyph glyph-name="AE" unicode="&#xc6;" horiz-adv-x="952" 
d="M860 0h-587l9 43l45 11q14 3 19 9t7 15l19 141h-198l-20 -29q-24 -35 -34 -59t-10 -41t10 -26.5t26 -12.5l26 -5l3 -46h-250l3 46l20 6q19 6 33 13t31 26t42.5 54.5t66.5 97.5l165 248q25 38 17.5 58t-35.5 25l-41 8l2 43h717l-29 -225h-89l-10 69q-5 37 -15 58
t-30.5 31.5t-52.5 13.5t-82 3h-48l-33 -236h16q27 0 51 7.5t38 34.5l35 69h64l-60 -268h-63l-3 63q-1 25 -15.5 34t-58.5 9h-12l-31 -238h62q48 0 80.5 3.5t55.5 14.5t40 32t34 57l28 55h90zM419 577h-7l-206 -309h172z" />
    <glyph glyph-name="Ccedilla" unicode="&#xc7;" horiz-adv-x="682" 
d="M323 -16q-70 3 -121.5 25.5t-85.5 59.5t-50.5 87.5t-16.5 110.5q0 71 31 140.5t85 123.5q49 49 115 78.5t144 29.5q25 0 49.5 -2.5t46.5 -7t39.5 -9.5t27.5 -10l99 29l-31 -240h-94l-32 156q-36 28 -82 28q-47 0 -86 -28.5t-66.5 -75t-42.5 -107t-15 -123.5t15 -106.5
t42 -70.5q34 -34 86 -34q20 0 40 5.5t36 13.5l79 161h100l-46 -218l-69 14q-26 -11 -62.5 -19.5t-81.5 -10.5l-41 -35q61 -5 96.5 -27.5t35.5 -63.5q0 -30 -19 -54.5t-52.5 -42.5t-79.5 -28.5t-100 -12.5l-7 30q81 9 125 30t44 48q0 49 -77 49q-22 0 -39.5 -1.5t-36.5 -6.5
l2 28z" />
    <glyph glyph-name="Egrave" unicode="&#xc8;" horiz-adv-x="676" 
d="M584 0h-581l5 44l43 11q15 4 19.5 9.5t6.5 14.5l64 467q2 9 -1.5 14.5t-18.5 9.5l-40 11l-2 44h591l-29 -225h-89l-10 69q-5 37 -15 58t-30.5 31.5t-52.5 13.5t-82 3h-48l-33 -236h16q27 0 51 7.5t38 34.5l35 69h64l-60 -268h-63l-3 63q-1 25 -15.5 34t-58.5 9h-12
l-31 -238h62q48 0 80.5 3.5t55.5 14.5t40 32t34 57l28 55h90zM387 687l-159 177h154l73 -177h-68z" />
    <glyph glyph-name="Eacute" unicode="&#xc9;" horiz-adv-x="676" 
d="M584 0h-581l5 44l43 11q15 4 19.5 9.5t6.5 14.5l64 467q2 9 -1.5 14.5t-18.5 9.5l-40 11l-2 44h591l-29 -225h-89l-10 69q-5 37 -15 58t-30.5 31.5t-52.5 13.5t-82 3h-48l-33 -236h16q27 0 51 7.5t38 34.5l35 69h64l-60 -268h-63l-3 63q-1 25 -15.5 34t-58.5 9h-12
l-31 -238h62q48 0 80.5 3.5t55.5 14.5t40 32t34 57l28 55h90zM403 687h-66l121 177h154z" />
    <glyph glyph-name="Ecircumflex" unicode="&#xca;" horiz-adv-x="676" 
d="M584 0h-581l5 44l43 11q15 4 19.5 9.5t6.5 14.5l64 467q2 9 -1.5 14.5t-18.5 9.5l-40 11l-2 44h591l-29 -225h-89l-10 69q-5 37 -15 58t-30.5 31.5t-52.5 13.5t-82 3h-48l-33 -236h16q27 0 51 7.5t38 34.5l35 69h64l-60 -268h-63l-3 63q-1 25 -15.5 34t-58.5 9h-12
l-31 -238h62q48 0 80.5 3.5t55.5 14.5t40 32t34 57l28 55h90zM467 687l-86 112h-2l-116 -112h-68l121 177h144l75 -177h-68z" />
    <glyph glyph-name="Edieresis" unicode="&#xcb;" horiz-adv-x="676" 
d="M584 0h-581l5 44l43 11q15 4 19.5 9.5t6.5 14.5l64 467q2 9 -1.5 14.5t-18.5 9.5l-40 11l-2 44h591l-29 -225h-89l-10 69q-5 37 -15 58t-30.5 31.5t-52.5 13.5t-82 3h-48l-33 -236h16q27 0 51 7.5t38 34.5l35 69h64l-60 -268h-63l-3 63q-1 25 -15.5 34t-58.5 9h-12
l-31 -238h62q48 0 80.5 3.5t55.5 14.5t40 32t34 57l28 55h90zM581 772q0 -31 -18.5 -53t-52.5 -22t-52.5 22t-18.5 53t18.5 54t52.5 23t52.5 -23t18.5 -54zM353 772q0 -31 -18.5 -53t-52.5 -22t-53.5 22t-19.5 53t19.5 54t53.5 23t52.5 -23t18.5 -54z" />
    <glyph glyph-name="Igrave" unicode="&#xcc;" horiz-adv-x="386" 
d="M5 0l3 44l53 11q14 4 19 9.5t7 14.5l64 467q2 9 -1.5 15t-18.5 9l-51 11l-3 44h326l-3 -44l-55 -11q-23 -5 -26 -24l-64 -467q-3 -16 20 -24l52 -11l4 -44h-326zM232 687l-159 177h154l73 -177h-68z" />
    <glyph glyph-name="Iacute" unicode="&#xcd;" horiz-adv-x="386" 
d="M5 0l3 44l53 11q14 4 19 9.5t7 14.5l64 467q2 9 -1.5 15t-18.5 9l-51 11l-3 44h326l-3 -44l-55 -11q-23 -5 -26 -24l-64 -467q-3 -16 20 -24l52 -11l4 -44h-326zM278 687h-66l121 177h154z" />
    <glyph glyph-name="Icircumflex" unicode="&#xce;" horiz-adv-x="386" 
d="M5 0l3 44l53 11q14 4 19 9.5t7 14.5l64 467q2 9 -1.5 15t-18.5 9l-51 11l-3 44h326l-3 -44l-55 -11q-23 -5 -26 -24l-64 -467q-3 -16 20 -24l52 -11l4 -44h-326zM344 687l-86 112h-2l-116 -112h-68l121 177h144l75 -177h-68z" />
    <glyph glyph-name="Idieresis" unicode="&#xcf;" horiz-adv-x="386" 
d="M5 0l3 44l53 11q14 4 19 9.5t7 14.5l64 467q2 9 -1.5 15t-18.5 9l-51 11l-3 44h326l-3 -44l-55 -11q-23 -5 -26 -24l-64 -467q-3 -16 20 -24l52 -11l4 -44h-326zM436 772q0 -31 -18.5 -53t-52.5 -22t-52.5 22t-18.5 53t18.5 54t52.5 23t52.5 -23t18.5 -54zM208 772
q0 -31 -18.5 -53t-52.5 -22t-53.5 22t-19.5 53t19.5 54t53.5 23t52.5 -23t18.5 -54z" />
    <glyph glyph-name="Eth" unicode="&#xd0;" horiz-adv-x="712" 
d="M395 339l3 -51h-123l-31 -223l65 -15q41 3 78 22.5t65 56t44 90t16 122.5q0 51 -9 94t-29 73.5t-53 47.5t-81 17h-26l-32 -234h113zM44 288l3 51h66l28 207q2 9 -1 14.5t-19 9.5l-40 11l-2 44q85 1 149 1h133q83 0 145.5 -20.5t104.5 -58t63 -89.5t21 -114
q0 -72 -25.5 -129.5t-79.5 -111.5q-46 -47 -124 -75t-171 -28h-292l5 44l43 11q15 4 19.5 9.5t6.5 14.5l29 209h-62z" />
    <glyph glyph-name="Ntilde" unicode="&#xd1;" horiz-adv-x="715" 
d="M741 581l-48 -13q-10 -3 -18.5 -14t-16 -33.5t-14.5 -59t-15 -90.5l-53 -378h-138l-235 483h-10l-31 -222q-8 -55 -11 -92t-2.5 -60t5.5 -33t13 -12l58 -13l3 -44h-246l3 44l48 13q10 3 18.5 13.5t16 33t14.5 59.5t15 91l41 290q1 5 -1 14t-16 12l-41 11l-2 44h233
l216 -447h10l27 193q8 55 11 92t2.5 60t-5.5 33.5t-13 11.5l-58 13l-3 44h246zM605 840q-8 -42 -20 -70.5t-28 -45.5t-35.5 -24t-42.5 -7q-21 0 -41.5 11t-40 23.5t-36.5 23.5t-31 11q-19 0 -27 -16t-20 -43h-60q16 83 48 115t78 32q21 0 41 -10.5t38.5 -23t35 -23
t30.5 -10.5q17 0 29 15t26 42h56z" />
    <glyph glyph-name="Ograve" unicode="&#xd2;" horiz-adv-x="735" 
d="M704 348q0 -80 -32.5 -148t-86.5 -122q-46 -46 -106.5 -69.5t-130.5 -23.5q-64 0 -119.5 21t-95.5 59t-63 91.5t-23 117.5q0 74 25.5 138.5t76.5 115.5q50 50 113.5 79.5t140.5 29.5q64 0 119 -21t95.5 -59t63.5 -91t23 -118zM521 392q0 20 -1.5 42t-6.5 43.5t-14 42
t-23 35.5q-13 12 -29.5 19.5t-39.5 7.5q-36 0 -63 -19.5t-46.5 -51t-32.5 -71t-20.5 -79t-11 -75.5t-3.5 -60q0 -41 8 -85t37 -73q12 -13 28.5 -20.5t40.5 -7.5q35 0 62 19.5t46.5 50.5t32.5 70t21 78t11.5 74.5t3.5 59.5zM396 687l-159 177h154l73 -177h-68z" />
    <glyph glyph-name="Oacute" unicode="&#xd3;" horiz-adv-x="735" 
d="M704 348q0 -80 -32.5 -148t-86.5 -122q-46 -46 -106.5 -69.5t-130.5 -23.5q-64 0 -119.5 21t-95.5 59t-63 91.5t-23 117.5q0 74 25.5 138.5t76.5 115.5q50 50 113.5 79.5t140.5 29.5q64 0 119 -21t95.5 -59t63.5 -91t23 -118zM521 392q0 20 -1.5 42t-6.5 43.5t-14 42
t-23 35.5q-13 12 -29.5 19.5t-39.5 7.5q-36 0 -63 -19.5t-46.5 -51t-32.5 -71t-20.5 -79t-11 -75.5t-3.5 -60q0 -41 8 -85t37 -73q12 -13 28.5 -20.5t40.5 -7.5q35 0 62 19.5t46.5 50.5t32.5 70t21 78t11.5 74.5t3.5 59.5zM422 687h-66l121 177h154z" />
    <glyph glyph-name="Ocircumflex" unicode="&#xd4;" horiz-adv-x="735" 
d="M704 348q0 -80 -32.5 -148t-86.5 -122q-46 -46 -106.5 -69.5t-130.5 -23.5q-64 0 -119.5 21t-95.5 59t-63 91.5t-23 117.5q0 74 25.5 138.5t76.5 115.5q50 50 113.5 79.5t140.5 29.5q64 0 119 -21t95.5 -59t63.5 -91t23 -118zM521 392q0 20 -1.5 42t-6.5 43.5t-14 42
t-23 35.5q-13 12 -29.5 19.5t-39.5 7.5q-36 0 -63 -19.5t-46.5 -51t-32.5 -71t-20.5 -79t-11 -75.5t-3.5 -60q0 -41 8 -85t37 -73q12 -13 28.5 -20.5t40.5 -7.5q35 0 62 19.5t46.5 50.5t32.5 70t21 78t11.5 74.5t3.5 59.5zM526 687l-86 112h-2l-116 -112h-68l121 177h144
l75 -177h-68z" />
    <glyph glyph-name="Otilde" unicode="&#xd5;" horiz-adv-x="735" 
d="M704 348q0 -80 -32.5 -148t-86.5 -122q-46 -46 -106.5 -69.5t-130.5 -23.5q-64 0 -119.5 21t-95.5 59t-63 91.5t-23 117.5q0 74 25.5 138.5t76.5 115.5q50 50 113.5 79.5t140.5 29.5q64 0 119 -21t95.5 -59t63.5 -91t23 -118zM521 392q0 20 -1.5 42t-6.5 43.5t-14 42
t-23 35.5q-13 12 -29.5 19.5t-39.5 7.5q-36 0 -63 -19.5t-46.5 -51t-32.5 -71t-20.5 -79t-11 -75.5t-3.5 -60q0 -41 8 -85t37 -73q12 -13 28.5 -20.5t40.5 -7.5q35 0 62 19.5t46.5 50.5t32.5 70t21 78t11.5 74.5t3.5 59.5zM595 840q-8 -42 -20 -70.5t-28 -45.5t-35.5 -24
t-42.5 -7q-21 0 -41.5 11t-40 23.5t-36.5 23.5t-31 11q-19 0 -27 -16t-20 -43h-60q16 83 48 115t78 32q21 0 41 -10.5t38.5 -23t35 -23t30.5 -10.5q17 0 29 15t26 42h56z" />
    <glyph glyph-name="Odieresis" unicode="&#xd6;" horiz-adv-x="735" 
d="M704 348q0 -80 -32.5 -148t-86.5 -122q-46 -46 -106.5 -69.5t-130.5 -23.5q-64 0 -119.5 21t-95.5 59t-63 91.5t-23 117.5q0 74 25.5 138.5t76.5 115.5q50 50 113.5 79.5t140.5 29.5q64 0 119 -21t95.5 -59t63.5 -91t23 -118zM521 392q0 20 -1.5 42t-6.5 43.5t-14 42
t-23 35.5q-13 12 -29.5 19.5t-39.5 7.5q-36 0 -63 -19.5t-46.5 -51t-32.5 -71t-20.5 -79t-11 -75.5t-3.5 -60q0 -41 8 -85t37 -73q12 -13 28.5 -20.5t40.5 -7.5q35 0 62 19.5t46.5 50.5t32.5 70t21 78t11.5 74.5t3.5 59.5zM620 772q0 -31 -18.5 -53t-52.5 -22t-52.5 22
t-18.5 53t18.5 54t52.5 23t52.5 -23t18.5 -54zM392 772q0 -31 -18.5 -53t-52.5 -22t-53.5 22t-19.5 53t19.5 54t53.5 23t52.5 -23t18.5 -54z" />
    <glyph glyph-name="multiply" unicode="&#xd7;" horiz-adv-x="486" 
d="M413 28l-168 169l-169 -169l-37 37l169 169l-169 168l37 37l169 -169l169 170l37 -37l-170 -169l169 -169z" />
    <glyph glyph-name="Oslash" unicode="&#xd8;" horiz-adv-x="735" 
d="M274 75q16 -16 34 -28t48 -12q36 0 63 19.5t47.5 51t34 71t21.5 79.5t12 76t4 60q0 25 -3.5 54.5t-12.5 56.5zM501 546q-24 41 -82 41q-36 0 -63.5 -20t-48 -51.5t-33.5 -71.5t-21.5 -80.5t-12 -76.5t-3.5 -61q0 -26 3 -54.5t12 -54.5zM199 25q-65 37 -103 100.5
t-37 148.5q0 74 25.5 138.5t76.5 115.5q50 50 113.5 79.5t140.5 29.5q67 0 125 -23l43 74h47l-54 -92q65 -36 103 -99.5t37 -148.5q0 -80 -32.5 -148t-86.5 -122q-46 -46 -106.5 -69.5t-130.5 -23.5q-67 0 -125 23l-48 -82h-46z" />
    <glyph glyph-name="Ugrave" unicode="&#xd9;" horiz-adv-x="702" 
d="M739 581l-48 -13q-10 -3 -18.5 -14t-16 -33.5t-14.5 -59t-15 -90.5l-23 -159q-9 -61 -32.5 -105.5t-59 -74t-80.5 -44t-97 -14.5q-55 0 -101 13.5t-79 40.5t-51.5 67.5t-18.5 93.5q0 15 0.5 26t2.5 25l41 306q2 9 -1.5 14.5t-18.5 9.5l-40 11l-3 44h305l-3 -44l-44 -11
q-23 -8 -26 -24l-45 -322q-2 -14 -3 -27.5t-1 -36.5q0 -21 8.5 -41t24.5 -35.5t39.5 -25.5t53.5 -10q70 0 111.5 42.5t55.5 144.5l20 136q8 55 11 92t2 60t-5.5 33.5t-13.5 11.5l-57 13l-3 44h246zM420 687l-159 177h154l73 -177h-68z" />
    <glyph glyph-name="Uacute" unicode="&#xda;" horiz-adv-x="702" 
d="M739 581l-48 -13q-10 -3 -18.5 -14t-16 -33.5t-14.5 -59t-15 -90.5l-23 -159q-9 -61 -32.5 -105.5t-59 -74t-80.5 -44t-97 -14.5q-55 0 -101 13.5t-79 40.5t-51.5 67.5t-18.5 93.5q0 15 0.5 26t2.5 25l41 306q2 9 -1.5 14.5t-18.5 9.5l-40 11l-3 44h305l-3 -44l-44 -11
q-23 -8 -26 -24l-45 -322q-2 -14 -3 -27.5t-1 -36.5q0 -21 8.5 -41t24.5 -35.5t39.5 -25.5t53.5 -10q70 0 111.5 42.5t55.5 144.5l20 136q8 55 11 92t2 60t-5.5 33.5t-13.5 11.5l-57 13l-3 44h246zM446 687h-66l121 177h154z" />
    <glyph glyph-name="Ucircumflex" unicode="&#xdb;" horiz-adv-x="702" 
d="M739 581l-48 -13q-10 -3 -18.5 -14t-16 -33.5t-14.5 -59t-15 -90.5l-23 -159q-9 -61 -32.5 -105.5t-59 -74t-80.5 -44t-97 -14.5q-55 0 -101 13.5t-79 40.5t-51.5 67.5t-18.5 93.5q0 15 0.5 26t2.5 25l41 306q2 9 -1.5 14.5t-18.5 9.5l-40 11l-3 44h305l-3 -44l-44 -11
q-23 -8 -26 -24l-45 -322q-2 -14 -3 -27.5t-1 -36.5q0 -21 8.5 -41t24.5 -35.5t39.5 -25.5t53.5 -10q70 0 111.5 42.5t55.5 144.5l20 136q8 55 11 92t2 60t-5.5 33.5t-13.5 11.5l-57 13l-3 44h246zM533 687l-86 112h-2l-116 -112h-68l121 177h144l75 -177h-68z" />
    <glyph glyph-name="Udieresis" unicode="&#xdc;" horiz-adv-x="702" 
d="M739 581l-48 -13q-10 -3 -18.5 -14t-16 -33.5t-14.5 -59t-15 -90.5l-23 -159q-9 -61 -32.5 -105.5t-59 -74t-80.5 -44t-97 -14.5q-55 0 -101 13.5t-79 40.5t-51.5 67.5t-18.5 93.5q0 15 0.5 26t2.5 25l41 306q2 9 -1.5 14.5t-18.5 9.5l-40 11l-3 44h305l-3 -44l-44 -11
q-23 -8 -26 -24l-45 -322q-2 -14 -3 -27.5t-1 -36.5q0 -21 8.5 -41t24.5 -35.5t39.5 -25.5t53.5 -10q70 0 111.5 42.5t55.5 144.5l20 136q8 55 11 92t2 60t-5.5 33.5t-13.5 11.5l-57 13l-3 44h246zM604 772q0 -31 -18.5 -53t-52.5 -22t-52.5 22t-18.5 53t18.5 54t52.5 23
t52.5 -23t18.5 -54zM376 772q0 -31 -18.5 -53t-52.5 -22t-53.5 22t-19.5 53t19.5 54t53.5 23t52.5 -23t18.5 -54z" />
    <glyph glyph-name="Yacute" unicode="&#xdd;" horiz-adv-x="601" 
d="M665 579l-21 -7q-12 -3 -23 -8.5t-25.5 -20t-35 -41t-52.5 -71.5l-123 -173l-23 -179q-3 -19 20 -24l49 -11l-4 -44h-322l9 44l53 11q23 4 26 24l22 167l-124 284q-9 19 -18 27.5t-23 13.5l-22 8l-3 46h315l-3 -46l-38 -6q-29 -5 -27.5 -32t21.5 -85l54 -154h10l88 127
q26 38 39.5 64t15.5 43t-6 25.5t-25 11.5l-27 6l-3 46h229zM395 687h-66l121 177h154z" />
    <glyph glyph-name="Thorn" unicode="&#xde;" horiz-adv-x="613" 
d="M597 326q0 -46 -21.5 -84t-59.5 -65t-91.5 -42t-117.5 -15q-13 0 -27.5 1t-26.5 1l-7 -43q-2 -20 20 -24l52 -11l1 -44h-316l5 44l43 11q15 4 19.5 9.5t6.5 14.5l64 467q2 9 -1.5 14.5t-18.5 9.5l-41 11l-3 44h306l-3 -44l-45 -11q-23 -8 -26 -24l-5 -41h45
q55 0 100.5 -11.5t78.5 -34t51 -56t18 -77.5zM426 314q0 33 -10 59t-26.5 45t-38.5 29t-45 10h-8l-40 -288q7 -1 13 -1.5t12 -0.5q64 0 103.5 39t39.5 108z" />
    <glyph glyph-name="germandbls" unicode="&#xdf;" horiz-adv-x="674" 
d="M625 132q0 -31 -16.5 -58t-45 -46.5t-67.5 -31t-84 -11.5q-25 0 -53.5 5t-52 16.5t-39 30t-15.5 46.5q0 35 18 55t53 20q29 0 47.5 -19t18.5 -48q0 -4 -1.5 -12t-3.5 -13q7 -4 19 -9t26 -9t28 -7t24 -3q10 11 18 27t8 30q0 9 -7.5 18.5t-19.5 21t-27 23.5t-30 25
q-28 26 -49 45t-35 35.5t-20.5 32.5t-6.5 34q0 36 16.5 63t44 44.5t64 26.5t75.5 9q28 0 57 -4.5t52.5 -15t38.5 -28.5t15 -45q0 -37 -18 -56.5t-51 -19.5q-32 0 -50 20t-18 47q0 5 1.5 13t3.5 13q-14 8 -37.5 16.5t-44.5 10.5q-14 -14 -23 -31t-9 -21q0 -9 9 -20.5t22 -24
t28 -24.5t26 -23q27 -25 48 -44.5t35 -36t21 -32.5t7 -35zM506 592q0 -31 -20.5 -54.5t-53.5 -23.5q-19 0 -34.5 10t-26.5 27t-18 39t-9 45l-44 -8q-11 -35 -20 -84.5t-18 -94.5l-77 -376q-20 -98 -50 -161.5t-68 -101.5q-29 -29 -64 -42t-73 -13q-25 0 -46.5 7t-37.5 20
t-25 30.5t-9 38.5q0 31 19.5 49.5t46.5 18.5q37 0 59.5 -28.5t26.5 -66.5l52 10q9 25 16.5 62.5t15.5 85.5l52 392l-82 9l3 40l96 38q23 102 83 162q76 76 179 76q55 0 91 -29t36 -77z" />
    <glyph glyph-name="agrave" unicode="&#xe0;" horiz-adv-x="582" 
d="M410 388l33 83h135l-69 -192l-54 -206l26 -9l68 43l18 -23q-26 -41 -65.5 -70.5t-87.5 -29.5q-11 0 -28.5 4.5t-34.5 12t-29 16t-12 16.5q0 10 7 31t16 45t18.5 48.5t15.5 40.5h-12q-29 -43 -53 -81.5t-47 -68t-47 -46.5t-54 -17q-56 0 -93 37t-37 108q0 35 9.5 72
t27 72.5t40.5 68t50 59.5q32 32 70 50.5t73 18.5q47 0 72 -24t34 -59h10zM380 324q-10 17 -24 30t-29 22.5t-29.5 14.5t-23.5 5q-11 0 -18 -3.5t-15 -11.5q-18 -19 -32 -44t-23.5 -52.5t-14 -56t-4.5 -54.5q0 -35 13.5 -58.5t36.5 -23.5q16 0 31.5 12t31 32t32.5 46t37 54z
M350 520l-159 177h154l73 -177h-68z" />
    <glyph glyph-name="aacute" unicode="&#xe1;" horiz-adv-x="582" 
d="M410 388l33 83h135l-69 -192l-54 -206l26 -9l68 43l18 -23q-26 -41 -65.5 -70.5t-87.5 -29.5q-11 0 -28.5 4.5t-34.5 12t-29 16t-12 16.5q0 10 7 31t16 45t18.5 48.5t15.5 40.5h-12q-29 -43 -53 -81.5t-47 -68t-47 -46.5t-54 -17q-56 0 -93 37t-37 108q0 35 9.5 72
t27 72.5t40.5 68t50 59.5q32 32 70 50.5t73 18.5q47 0 72 -24t34 -59h10zM380 324q-10 17 -24 30t-29 22.5t-29.5 14.5t-23.5 5q-11 0 -18 -3.5t-15 -11.5q-18 -19 -32 -44t-23.5 -52.5t-14 -56t-4.5 -54.5q0 -35 13.5 -58.5t36.5 -23.5q16 0 31.5 12t31 32t32.5 46t37 54z
M356 520h-66l121 177h154z" />
    <glyph glyph-name="acircumflex" unicode="&#xe2;" horiz-adv-x="582" 
d="M410 388l33 83h135l-69 -192l-54 -206l26 -9l68 43l18 -23q-26 -41 -65.5 -70.5t-87.5 -29.5q-11 0 -28.5 4.5t-34.5 12t-29 16t-12 16.5q0 10 7 31t16 45t18.5 48.5t15.5 40.5h-12q-29 -43 -53 -81.5t-47 -68t-47 -46.5t-54 -17q-56 0 -93 37t-37 108q0 35 9.5 72
t27 72.5t40.5 68t50 59.5q32 32 70 50.5t73 18.5q47 0 72 -24t34 -59h10zM380 324q-10 17 -24 30t-29 22.5t-29.5 14.5t-23.5 5q-11 0 -18 -3.5t-15 -11.5q-18 -19 -32 -44t-23.5 -52.5t-14 -56t-4.5 -54.5q0 -35 13.5 -58.5t36.5 -23.5q16 0 31.5 12t31 32t32.5 46t37 54z
M460 520l-86 112h-2l-116 -112h-68l121 177h144l75 -177h-68z" />
    <glyph glyph-name="atilde" unicode="&#xe3;" horiz-adv-x="582" 
d="M410 388l33 83h135l-69 -192l-54 -206l26 -9l68 43l18 -23q-26 -41 -65.5 -70.5t-87.5 -29.5q-11 0 -28.5 4.5t-34.5 12t-29 16t-12 16.5q0 10 7 31t16 45t18.5 48.5t15.5 40.5h-12q-29 -43 -53 -81.5t-47 -68t-47 -46.5t-54 -17q-56 0 -93 37t-37 108q0 35 9.5 72
t27 72.5t40.5 68t50 59.5q32 32 70 50.5t73 18.5q47 0 72 -24t34 -59h10zM380 324q-10 17 -24 30t-29 22.5t-29.5 14.5t-23.5 5q-11 0 -18 -3.5t-15 -11.5q-18 -19 -32 -44t-23.5 -52.5t-14 -56t-4.5 -54.5q0 -35 13.5 -58.5t36.5 -23.5q16 0 31.5 12t31 32t32.5 46t37 54z
M549 673q-8 -42 -20 -70.5t-28 -45.5t-35.5 -24t-42.5 -7q-21 0 -41.5 11t-40 23.5t-36.5 23.5t-31 11q-19 0 -27 -16t-20 -43h-60q16 83 48 115t78 32q21 0 41 -10.5t38.5 -23t35 -23t30.5 -10.5q17 0 29 15t26 42h56z" />
    <glyph glyph-name="adieresis" unicode="&#xe4;" horiz-adv-x="582" 
d="M410 388l33 83h135l-69 -192l-54 -206l26 -9l68 43l18 -23q-26 -41 -65.5 -70.5t-87.5 -29.5q-11 0 -28.5 4.5t-34.5 12t-29 16t-12 16.5q0 10 7 31t16 45t18.5 48.5t15.5 40.5h-12q-29 -43 -53 -81.5t-47 -68t-47 -46.5t-54 -17q-56 0 -93 37t-37 108q0 35 9.5 72
t27 72.5t40.5 68t50 59.5q32 32 70 50.5t73 18.5q47 0 72 -24t34 -59h10zM380 324q-10 17 -24 30t-29 22.5t-29.5 14.5t-23.5 5q-11 0 -18 -3.5t-15 -11.5q-18 -19 -32 -44t-23.5 -52.5t-14 -56t-4.5 -54.5q0 -35 13.5 -58.5t36.5 -23.5q16 0 31.5 12t31 32t32.5 46t37 54z
M544 605q0 -31 -18.5 -53t-52.5 -22t-52.5 22t-18.5 53t18.5 54t52.5 23t52.5 -23t18.5 -54zM316 605q0 -31 -18.5 -53t-52.5 -22t-53.5 22t-19.5 53t19.5 54t53.5 23t52.5 -23t18.5 -54z" />
    <glyph glyph-name="aring" unicode="&#xe5;" horiz-adv-x="582" 
d="M410 388l33 83h135l-69 -192l-54 -206l26 -9l68 43l18 -23q-26 -41 -65.5 -70.5t-87.5 -29.5q-11 0 -28.5 4.5t-34.5 12t-29 16t-12 16.5q0 10 7 31t16 45t18.5 48.5t15.5 40.5h-12q-29 -43 -53 -81.5t-47 -68t-47 -46.5t-54 -17q-56 0 -93 37t-37 108q0 35 9.5 72
t27 72.5t40.5 68t50 59.5q32 32 70 50.5t73 18.5q47 0 72 -24t34 -59h10zM380 324q-10 17 -24 30t-29 22.5t-29.5 14.5t-23.5 5q-11 0 -18 -3.5t-15 -11.5q-18 -19 -32 -44t-23.5 -52.5t-14 -56t-4.5 -54.5q0 -35 13.5 -58.5t36.5 -23.5q16 0 31.5 12t31 32t32.5 46t37 54z
M486 619q0 -22 -7.5 -42t-21 -35t-33.5 -24t-45 -9t-45 9t-34.5 24t-22 35t-7.5 42q1 22 8.5 42t21.5 35t34 24t45 9t45 -9t33.5 -24t21 -35t7.5 -42zM448 619q0 28 -18.5 50.5t-50.5 22.5t-50.5 -22.5t-18.5 -50.5t18.5 -49.5t50.5 -21.5t50.5 21.5t18.5 49.5z" />
    <glyph glyph-name="ae" unicode="&#xe6;" horiz-adv-x="769" 
d="M399 355q44 54 99 86t124 32q71 0 105 -29.5t34 -74.5q0 -26 -18.5 -47t-54.5 -43.5t-89 -49.5t-123 -65v-2q0 -18 6 -34t17.5 -28.5t28 -20t36.5 -7.5q11 0 49 21.5t87 52.5l19 -24q-16 -24 -38 -48t-49 -44t-59 -32.5t-68 -12.5q-44 0 -76 13t-54 36t-33.5 54t-13.5 67
v4q-19 -30 -38 -60.5t-40 -56t-44.5 -41.5t-51.5 -16q-56 0 -93 37t-37 108q0 35 9.5 72t27 72.5t40.5 68t50 59.5q32 32 70 50.5t73 18.5q47 0 72.5 -26.5t32.5 -89.5zM477 205q35 21 64 39t50 36t32.5 37t11.5 41q0 11 -7 20t-17.5 16t-22.5 10.5t-21 3.5
q-11 0 -16.5 -2.5t-9.5 -6.5q-9 -9 -20 -29t-21.5 -47t-18 -57.5t-9.5 -60.5h5zM380 324q-10 17 -24 30t-29 22.5t-29.5 14.5t-23.5 5q-11 0 -18 -3.5t-15 -11.5q-18 -19 -32 -44t-23.5 -52.5t-14 -56t-4.5 -54.5q0 -35 13.5 -58.5t36.5 -23.5q16 0 33 19t35 47.5t36 62.5
t37 64z" />
    <glyph glyph-name="ccedilla" unicode="&#xe7;" horiz-adv-x="468" 
d="M178 -14q-76 8 -114 57.5t-38 121.5q0 54 23.5 109t64 99t95 72t117.5 28q29 0 54.5 -8t44.5 -23t30 -36.5t11 -47.5q0 -39 -24 -64t-54 -25q-18 0 -30.5 6.5t-20.5 17t-11.5 23t-3.5 24.5q0 11 4.5 25t11.5 25q-17 8 -38 12t-37 4q-7 0 -15 -8q-10 -10 -23.5 -33
t-25 -52.5t-19.5 -64t-8 -68.5q0 -48 24 -78t65 -30q11 0 49 21.5t87 52.5l19 -24q-15 -21 -34 -42.5t-42 -40t-49.5 -32.5t-56.5 -19l-46 -39q61 -5 96.5 -27.5t35.5 -63.5q0 -30 -19 -54.5t-52.5 -42.5t-79.5 -28.5t-100 -12.5l-7 30q81 9 125 30t44 48q0 49 -77 49
q-22 0 -39.5 -1.5t-36.5 -6.5l2 28z" />
    <glyph glyph-name="egrave" unicode="&#xe8;" horiz-adv-x="466" 
d="M173 162q0 -18 6 -34t17.5 -28.5t28 -20t36.5 -7.5q11 0 49 21.5t87 52.5l19 -24q-16 -24 -38 -48t-49 -44t-59 -32.5t-68 -12.5q-46 0 -79.5 14t-55 38t-31.5 57t-10 71q0 54 22.5 109t62 99t93 72t115.5 28q71 0 105 -29.5t34 -74.5q0 -26 -18.5 -47t-54.5 -43.5
t-89 -49.5t-123 -65v-2zM174 205q35 21 64 39t50 36t32.5 37t11.5 41q0 11 -7 20t-17.5 16t-22.5 10.5t-21 3.5q-11 0 -16.5 -2.5t-9.5 -6.5q-9 -9 -20 -29t-21.5 -47t-18 -57.5t-9.5 -60.5h5zM292 520l-159 177h154l73 -177h-68z" />
    <glyph glyph-name="eacute" unicode="&#xe9;" horiz-adv-x="466" 
d="M173 162q0 -18 6 -34t17.5 -28.5t28 -20t36.5 -7.5q11 0 49 21.5t87 52.5l19 -24q-16 -24 -38 -48t-49 -44t-59 -32.5t-68 -12.5q-46 0 -79.5 14t-55 38t-31.5 57t-10 71q0 54 22.5 109t62 99t93 72t115.5 28q71 0 105 -29.5t34 -74.5q0 -26 -18.5 -47t-54.5 -43.5
t-89 -49.5t-123 -65v-2zM174 205q35 21 64 39t50 36t32.5 37t11.5 41q0 11 -7 20t-17.5 16t-22.5 10.5t-21 3.5q-11 0 -16.5 -2.5t-9.5 -6.5q-9 -9 -20 -29t-21.5 -47t-18 -57.5t-9.5 -60.5h5zM298 520h-66l121 177h154z" />
    <glyph glyph-name="ecircumflex" unicode="&#xea;" horiz-adv-x="466" 
d="M173 162q0 -18 6 -34t17.5 -28.5t28 -20t36.5 -7.5q11 0 49 21.5t87 52.5l19 -24q-16 -24 -38 -48t-49 -44t-59 -32.5t-68 -12.5q-46 0 -79.5 14t-55 38t-31.5 57t-10 71q0 54 22.5 109t62 99t93 72t115.5 28q71 0 105 -29.5t34 -74.5q0 -26 -18.5 -47t-54.5 -43.5
t-89 -49.5t-123 -65v-2zM174 205q35 21 64 39t50 36t32.5 37t11.5 41q0 11 -7 20t-17.5 16t-22.5 10.5t-21 3.5q-11 0 -16.5 -2.5t-9.5 -6.5q-9 -9 -20 -29t-21.5 -47t-18 -57.5t-9.5 -60.5h5zM382 520l-86 112h-2l-116 -112h-68l121 177h144l75 -177h-68z" />
    <glyph glyph-name="edieresis" unicode="&#xeb;" horiz-adv-x="466" 
d="M173 162q0 -18 6 -34t17.5 -28.5t28 -20t36.5 -7.5q11 0 49 21.5t87 52.5l19 -24q-16 -24 -38 -48t-49 -44t-59 -32.5t-68 -12.5q-46 0 -79.5 14t-55 38t-31.5 57t-10 71q0 54 22.5 109t62 99t93 72t115.5 28q71 0 105 -29.5t34 -74.5q0 -26 -18.5 -47t-54.5 -43.5
t-89 -49.5t-123 -65v-2zM174 205q35 21 64 39t50 36t32.5 37t11.5 41q0 11 -7 20t-17.5 16t-22.5 10.5t-21 3.5q-11 0 -16.5 -2.5t-9.5 -6.5q-9 -9 -20 -29t-21.5 -47t-18 -57.5t-9.5 -60.5h5zM486 605q0 -31 -18.5 -53t-52.5 -22t-52.5 22t-18.5 53t18.5 54t52.5 23
t52.5 -23t18.5 -54zM258 605q0 -31 -18.5 -53t-52.5 -22t-53.5 22t-19.5 53t19.5 54t53.5 23t52.5 -23t18.5 -54z" />
    <glyph glyph-name="igrave" unicode="&#xec;" horiz-adv-x="307" 
d="M286 84q-26 -41 -64.5 -70.5t-86.5 -29.5q-11 0 -29.5 5.5t-35.5 14t-29 17t-11 14.5l93 344l-31 8l-54 -65l-23 25q10 21 23.5 43.5t30.5 41t37.5 30t44.5 11.5q11 0 32 -5.5t41.5 -13t35 -16.5t12.5 -15l-98 -350l26 -9l68 43zM182 520l-159 177h154l73 -177h-68z" />
    <glyph glyph-name="iacute" unicode="&#xed;" horiz-adv-x="307" 
d="M286 84q-26 -41 -64.5 -70.5t-86.5 -29.5q-11 0 -29.5 5.5t-35.5 14t-29 17t-11 14.5l93 344l-31 8l-54 -65l-23 25q10 21 23.5 43.5t30.5 41t37.5 30t44.5 11.5q11 0 32 -5.5t41.5 -13t35 -16.5t12.5 -15l-98 -350l26 -9l68 43zM178 520h-66l121 177h154z" />
    <glyph glyph-name="icircumflex" unicode="&#xee;" horiz-adv-x="307" 
d="M286 84q-26 -41 -64.5 -70.5t-86.5 -29.5q-11 0 -29.5 5.5t-35.5 14t-29 17t-11 14.5l93 344l-31 8l-54 -65l-23 25q10 21 23.5 43.5t30.5 41t37.5 30t44.5 11.5q11 0 32 -5.5t41.5 -13t35 -16.5t12.5 -15l-98 -350l26 -9l68 43zM292 520l-86 112h-2l-116 -112h-68
l121 177h144l75 -177h-68z" />
    <glyph glyph-name="idieresis" unicode="&#xef;" horiz-adv-x="307" 
d="M286 84q-26 -41 -64.5 -70.5t-86.5 -29.5q-11 0 -29.5 5.5t-35.5 14t-29 17t-11 14.5l93 344l-31 8l-54 -65l-23 25q10 21 23.5 43.5t30.5 41t37.5 30t44.5 11.5q11 0 32 -5.5t41.5 -13t35 -16.5t12.5 -15l-98 -350l26 -9l68 43zM396 605q0 -31 -18.5 -53t-52.5 -22
t-52.5 22t-18.5 53t18.5 54t52.5 23t52.5 -23t18.5 -54zM168 605q0 -31 -18.5 -53t-52.5 -22t-53.5 22t-19.5 53t19.5 54t53.5 23t52.5 -23t18.5 -54z" />
    <glyph glyph-name="eth" unicode="&#xf0;" horiz-adv-x="522" 
d="M159 523l12 52l94 18q-32 27 -81 49l29 38q83 -26 143 -69l129 25l-13 -51l-67 -13q49 -48 75 -107.5t27 -129.5q0 -74 -21.5 -138t-59 -111t-87.5 -74t-107 -27q-46 0 -83.5 15.5t-64 43t-40.5 66.5t-14 85q0 55 19.5 105.5t53 88.5t78.5 61t96 23q50 0 79 -26
q-7 28 -19 54.5t-31 50.5zM183 236q-6 -28 -9 -53t-3 -45q0 -43 15.5 -67.5t43.5 -24.5q19 0 36 14.5t30.5 39.5t24.5 57t18 66q6 27 9 52t3 45q0 44 -15.5 68t-43.5 24q-19 0 -36 -14.5t-30.5 -39t-24.5 -56t-18 -66.5z" />
    <glyph glyph-name="ntilde" unicode="&#xf1;" horiz-adv-x="592" 
d="M575 84q-26 -41 -64.5 -70.5t-86.5 -29.5q-11 0 -28.5 5t-34.5 12.5t-29 16t-12 16.5q0 15 15.5 61.5t44.5 130.5q11 32 19.5 61t8.5 46q0 14 -14.5 21t-31.5 7q-13 0 -26.5 -11t-28.5 -35t-34 -61.5t-44 -90.5l-38 -163l-160 -5l39 152l48 232l-29 8l-54 -65l-23 25
q10 21 23.5 43.5t30.5 41t37.5 30t44.5 11.5q11 0 31 -3t39.5 -8.5t34 -12.5t14.5 -15q0 -15 -6 -44.5t-14 -61.5t-16 -59.5t-11 -38.5h12q11 26 24 54.5t26.5 54.5t27 48t26.5 35q21 21 52 36t63 15q51 0 78.5 -25t27.5 -64q0 -38 -16.5 -90t-34.5 -105l-43 -116l26 -9
l68 43zM534 673q-8 -42 -20 -70.5t-28 -45.5t-35.5 -24t-42.5 -7q-21 0 -41.5 11t-40 23.5t-36.5 23.5t-31 11q-19 0 -27 -16t-20 -43h-60q16 83 48 115t78 32q21 0 41 -10.5t38.5 -23t35 -23t30.5 -10.5q17 0 29 15t26 42h56z" />
    <glyph glyph-name="ograve" unicode="&#xf2;" horiz-adv-x="522" 
d="M492 263q0 -55 -19 -105.5t-53.5 -88.5t-82.5 -61t-105 -23q-46 0 -83.5 15.5t-64 43t-40.5 66.5t-14 85q0 55 19.5 105.5t54.5 88.5t83 61t105 23q47 0 84 -15.5t62.5 -43t39.5 -66t14 -85.5zM351 320q0 44 -15.5 68t-43.5 24q-19 0 -36 -14.5t-30.5 -39t-24.5 -56
t-18 -66.5q-6 -28 -9 -53t-3 -45q0 -43 15.5 -67.5t43.5 -24.5q19 0 36 14.5t30.5 39.5t24.5 57t18 66q6 27 9 52t3 45zM290 520l-159 177h154l73 -177h-68z" />
    <glyph glyph-name="oacute" unicode="&#xf3;" horiz-adv-x="522" 
d="M492 263q0 -55 -19 -105.5t-53.5 -88.5t-82.5 -61t-105 -23q-46 0 -83.5 15.5t-64 43t-40.5 66.5t-14 85q0 55 19.5 105.5t54.5 88.5t83 61t105 23q47 0 84 -15.5t62.5 -43t39.5 -66t14 -85.5zM351 320q0 44 -15.5 68t-43.5 24q-19 0 -36 -14.5t-30.5 -39t-24.5 -56
t-18 -66.5q-6 -28 -9 -53t-3 -45q0 -43 15.5 -67.5t43.5 -24.5q19 0 36 14.5t30.5 39.5t24.5 57t18 66q6 27 9 52t3 45zM326 520h-66l121 177h154z" />
    <glyph glyph-name="ocircumflex" unicode="&#xf4;" horiz-adv-x="522" 
d="M492 263q0 -55 -19 -105.5t-53.5 -88.5t-82.5 -61t-105 -23q-46 0 -83.5 15.5t-64 43t-40.5 66.5t-14 85q0 55 19.5 105.5t54.5 88.5t83 61t105 23q47 0 84 -15.5t62.5 -43t39.5 -66t14 -85.5zM351 320q0 44 -15.5 68t-43.5 24q-19 0 -36 -14.5t-30.5 -39t-24.5 -56
t-18 -66.5q-6 -28 -9 -53t-3 -45q0 -43 15.5 -67.5t43.5 -24.5q19 0 36 14.5t30.5 39.5t24.5 57t18 66q6 27 9 52t3 45zM410 520l-86 112h-2l-116 -112h-68l121 177h144l75 -177h-68z" />
    <glyph glyph-name="otilde" unicode="&#xf5;" horiz-adv-x="522" 
d="M492 263q0 -55 -19 -105.5t-53.5 -88.5t-82.5 -61t-105 -23q-46 0 -83.5 15.5t-64 43t-40.5 66.5t-14 85q0 55 19.5 105.5t54.5 88.5t83 61t105 23q47 0 84 -15.5t62.5 -43t39.5 -66t14 -85.5zM351 320q0 44 -15.5 68t-43.5 24q-19 0 -36 -14.5t-30.5 -39t-24.5 -56
t-18 -66.5q-6 -28 -9 -53t-3 -45q0 -43 15.5 -67.5t43.5 -24.5q19 0 36 14.5t30.5 39.5t24.5 57t18 66q6 27 9 52t3 45zM517 673q-8 -42 -20 -70.5t-28 -45.5t-35.5 -24t-42.5 -7q-21 0 -41.5 11t-40 23.5t-36.5 23.5t-31 11q-19 0 -27 -16t-20 -43h-60q16 83 48 115t78 32
q21 0 41 -10.5t38.5 -23t35 -23t30.5 -10.5q17 0 29 15t26 42h56z" />
    <glyph glyph-name="odieresis" unicode="&#xf6;" horiz-adv-x="522" 
d="M492 263q0 -55 -19 -105.5t-53.5 -88.5t-82.5 -61t-105 -23q-46 0 -83.5 15.5t-64 43t-40.5 66.5t-14 85q0 55 19.5 105.5t54.5 88.5t83 61t105 23q47 0 84 -15.5t62.5 -43t39.5 -66t14 -85.5zM351 320q0 44 -15.5 68t-43.5 24q-19 0 -36 -14.5t-30.5 -39t-24.5 -56
t-18 -66.5q-6 -28 -9 -53t-3 -45q0 -43 15.5 -67.5t43.5 -24.5q19 0 36 14.5t30.5 39.5t24.5 57t18 66q6 27 9 52t3 45zM514 605q0 -31 -18.5 -53t-52.5 -22t-52.5 22t-18.5 53t18.5 54t52.5 23t52.5 -23t18.5 -54zM286 605q0 -31 -18.5 -53t-52.5 -22t-53.5 22t-19.5 53
t19.5 54t53.5 23t52.5 -23t18.5 -54z" />
    <glyph glyph-name="divide" unicode="&#xf7;" horiz-adv-x="486" 
d="M41 208l3 54h399l3 -54h-405zM296 94q0 -20 -14 -36t-37 -16t-37.5 16t-14.5 36t14.5 35.5t37.5 15.5t37 -15.5t14 -35.5zM296 374q0 -20 -14.5 -36t-37.5 -16t-37 16t-14 36t14 36t37 16t37.5 -16t14.5 -36z" />
    <glyph glyph-name="oslash" unicode="&#xf8;" horiz-adv-x="522" 
d="M187 61q17 -20 43 -20q20 0 37 15t32 40t26.5 57.5t18.5 68.5q6 27 9 52.5t3 45.5q0 8 -0.5 15t-1.5 14zM335 397q-17 20 -43 20q-19 0 -36.5 -15t-32.5 -39.5t-26 -57t-19 -68.5q-6 -28 -9 -53.5t-3 -45.5q0 -8 0.5 -15t1.5 -14zM115 17q-41 27 -63 73t-22 105
q0 55 19.5 105.5t54.5 88.5t83 61t105 23q43 0 79 -14l80 139h47l-91 -157q42 -26 63.5 -72t21.5 -106q0 -55 -19 -105.5t-53.5 -88.5t-82.5 -61t-105 -23q-44 0 -81 14l-74 -128h-46q24 40 42 73q8 14 15.5 27t13.5 23.5t10 16.5z" />
    <glyph glyph-name="ugrave" unicode="&#xf9;" horiz-adv-x="592" 
d="M23 347q10 21 23.5 43.5t30.5 41t37.5 30t44.5 11.5q11 0 30 -8t37 -19t31.5 -22.5t13.5 -19.5q0 -7 -3 -19.5t-10 -32.5t-17.5 -49t-24.5 -71q-11 -32 -18.5 -56t-7.5 -41q0 -14 13.5 -26t30.5 -12q14 0 27 11t29 35t36 61.5t47 90.5l43 164l160 5l-49 -152l-51 -244
l26 -9l63 43l18 -23q-26 -41 -63 -68t-85 -27q-11 0 -28.5 5t-34.5 12.5t-29.5 16.5t-12.5 17q0 15 7 45t16 60.5t17.5 56t11.5 31.5h-12q-13 -26 -27 -54.5t-28 -54.5t-28 -48t-27 -35q-21 -21 -52 -36t-63 -15q-51 0 -77.5 30t-26.5 69q0 38 15.5 86t33.5 99q6 16 12.5 35
t12.5 36q7 19 14 39l-29 8l-54 -65zM325 520l-159 177h154l73 -177h-68z" />
    <glyph glyph-name="uacute" unicode="&#xfa;" horiz-adv-x="592" 
d="M23 347q10 21 23.5 43.5t30.5 41t37.5 30t44.5 11.5q11 0 30 -8t37 -19t31.5 -22.5t13.5 -19.5q0 -7 -3 -19.5t-10 -32.5t-17.5 -49t-24.5 -71q-11 -32 -18.5 -56t-7.5 -41q0 -14 13.5 -26t30.5 -12q14 0 27 11t29 35t36 61.5t47 90.5l43 164l160 5l-49 -152l-51 -244
l26 -9l63 43l18 -23q-26 -41 -63 -68t-85 -27q-11 0 -28.5 5t-34.5 12.5t-29.5 16.5t-12.5 17q0 15 7 45t16 60.5t17.5 56t11.5 31.5h-12q-13 -26 -27 -54.5t-28 -54.5t-28 -48t-27 -35q-21 -21 -52 -36t-63 -15q-51 0 -77.5 30t-26.5 69q0 38 15.5 86t33.5 99q6 16 12.5 35
t12.5 36q7 19 14 39l-29 8l-54 -65zM341 520h-66l121 177h154z" />
    <glyph glyph-name="ucircumflex" unicode="&#xfb;" horiz-adv-x="592" 
d="M23 347q10 21 23.5 43.5t30.5 41t37.5 30t44.5 11.5q11 0 30 -8t37 -19t31.5 -22.5t13.5 -19.5q0 -7 -3 -19.5t-10 -32.5t-17.5 -49t-24.5 -71q-11 -32 -18.5 -56t-7.5 -41q0 -14 13.5 -26t30.5 -12q14 0 27 11t29 35t36 61.5t47 90.5l43 164l160 5l-49 -152l-51 -244
l26 -9l63 43l18 -23q-26 -41 -63 -68t-85 -27q-11 0 -28.5 5t-34.5 12.5t-29.5 16.5t-12.5 17q0 15 7 45t16 60.5t17.5 56t11.5 31.5h-12q-13 -26 -27 -54.5t-28 -54.5t-28 -48t-27 -35q-21 -21 -52 -36t-63 -15q-51 0 -77.5 30t-26.5 69q0 38 15.5 86t33.5 99q6 16 12.5 35
t12.5 36q7 19 14 39l-29 8l-54 -65zM445 520l-86 112h-2l-116 -112h-68l121 177h144l75 -177h-68z" />
    <glyph glyph-name="udieresis" unicode="&#xfc;" horiz-adv-x="592" 
d="M23 347q10 21 23.5 43.5t30.5 41t37.5 30t44.5 11.5q11 0 30 -8t37 -19t31.5 -22.5t13.5 -19.5q0 -7 -3 -19.5t-10 -32.5t-17.5 -49t-24.5 -71q-11 -32 -18.5 -56t-7.5 -41q0 -14 13.5 -26t30.5 -12q14 0 27 11t29 35t36 61.5t47 90.5l43 164l160 5l-49 -152l-51 -244
l26 -9l63 43l18 -23q-26 -41 -63 -68t-85 -27q-11 0 -28.5 5t-34.5 12.5t-29.5 16.5t-12.5 17q0 15 7 45t16 60.5t17.5 56t11.5 31.5h-12q-13 -26 -27 -54.5t-28 -54.5t-28 -48t-27 -35q-21 -21 -52 -36t-63 -15q-51 0 -77.5 30t-26.5 69q0 38 15.5 86t33.5 99q6 16 12.5 35
t12.5 36q7 19 14 39l-29 8l-54 -65zM539 605q0 -31 -18.5 -53t-52.5 -22t-52.5 22t-18.5 53t18.5 54t52.5 23t52.5 -23t18.5 -54zM311 605q0 -31 -18.5 -53t-52.5 -22t-53.5 22t-19.5 53t19.5 54t53.5 23t52.5 -23t18.5 -54z" />
    <glyph glyph-name="yacute" unicode="&#xfd;" horiz-adv-x="523" 
d="M526 382q0 -25 -12 -55.5t-32 -65t-47 -71.5t-56 -73l-82 -102l-52 -112q-35 -77 -79 -113t-103 -36q-23 0 -44.5 7t-38 20t-26 30.5t-9.5 38.5q0 31 18 49.5t45 18.5q37 0 57.5 -25.5t20.5 -68.5l18 -5l118 145l-87 26l-29 389l-29 8l-52 -65l-23 25q10 21 23.5 43.5
t30.5 41t37.5 30t44.5 11.5q11 0 30.5 -4.5t38 -11.5t33 -16t14.5 -17l-1 -379h15l142 258v15q-32 12 -46 33t-14 38q0 36 23.5 60t59.5 24t64.5 -24t28.5 -67zM326 520h-66l121 177h154z" />
    <glyph glyph-name="thorn" unicode="&#xfe;" horiz-adv-x="567" 
d="M544 328q0 -35 -8.5 -72t-24 -72.5t-37.5 -68t-49 -59.5q-32 -32 -69.5 -51.5t-70.5 -19.5q-34 0 -62 18t-45 47h-10l-46 -218q-3 -18 23 -24l64 -11l3 -43h-296l3 43l39 11q12 4 16.5 9.5t6.5 14.5l154 709q8 35 -17 46l-52 25l8 32l240 53l-58 -226l-49 -192h13
q25 52 47 89t44.5 60t47.5 34t55 11q56 0 93 -37t37 -108zM401 284q0 35 -13.5 58.5t-36.5 23.5q-14 0 -30 -14t-33.5 -37t-36 -52.5t-37.5 -60.5l-31 -88q10 -16 24.5 -29.5t29.5 -23t29.5 -14.5t23.5 -5q11 0 18 3.5t15 11.5q18 19 32.5 47t24.5 59.5t15.5 63.5t5.5 57z
" />
    <glyph glyph-name="ydieresis" unicode="&#xff;" horiz-adv-x="523" 
d="M526 382q0 -25 -12 -55.5t-32 -65t-47 -71.5t-56 -73l-82 -102l-52 -112q-35 -77 -79 -113t-103 -36q-23 0 -44.5 7t-38 20t-26 30.5t-9.5 38.5q0 31 18 49.5t45 18.5q37 0 57.5 -25.5t20.5 -68.5l18 -5l118 145l-87 26l-29 389l-29 8l-52 -65l-23 25q10 21 23.5 43.5
t30.5 41t37.5 30t44.5 11.5q11 0 30.5 -4.5t38 -11.5t33 -16t14.5 -17l-1 -379h15l142 258v15q-32 12 -46 33t-14 38q0 36 23.5 60t59.5 24t64.5 -24t28.5 -67zM514 605q0 -31 -18.5 -53t-52.5 -22t-52.5 22t-18.5 53t18.5 54t52.5 23t52.5 -23t18.5 -54zM286 605
q0 -31 -18.5 -53t-52.5 -22t-53.5 22t-19.5 53t19.5 54t53.5 23t52.5 -23t18.5 -54z" />
    <glyph glyph-name="dotlessi" unicode="&#x131;" horiz-adv-x="307" 
d="M286 84q-26 -41 -64.5 -70.5t-86.5 -29.5q-11 0 -29.5 5.5t-35.5 14t-29 17t-11 14.5l93 344l-31 8l-54 -65l-23 25q10 21 23.5 43.5t30.5 41t37.5 30t44.5 11.5q11 0 32 -5.5t41.5 -13t35 -16.5t12.5 -15l-98 -350l26 -9l68 43z" />
    <glyph glyph-name="Lslash" unicode="&#x141;" horiz-adv-x="599" 
d="M241 50h31q37 0 63 5t46 17.5t35.5 33t31.5 51.5l28 55h90l-49 -212h-515l5 44l43 11q15 4 19.5 9.5t6.5 14.5l14 104q0 1 -8.5 -1.5t-19.5 -5.5l-28 -8v53l64 17l42 308q2 9 -1 14.5t-19 9.5l-40 11l-2 44h304l-4 -44l-43 -11q-23 -8 -26 -24l-18 -130
q-3 -24 -6.5 -47.5t-6 -41.5t-4.5 -29l-1 -12l82 23v-53l-89 -24z" />
    <glyph glyph-name="lslash" unicode="&#x142;" horiz-adv-x="319" 
d="M216 218l-1 -6q-2 -6 -4 -16t-5 -23t-6 -27q-7 -32 -17 -73l26 -9l68 43l18 -23q-26 -41 -64.5 -70.5t-86.5 -29.5q-11 0 -28.5 9t-33.5 20.5t-27 23.5t-10 18l27 124l-72 -20v53l84 23l67 306q8 35 -17 46l-52 25l8 32l234 53q-27 -118 -48 -211q-9 -40 -17.5 -78
t-15 -67.5t-11.5 -47.5l-4 -18l82 22v-53z" />
    <glyph glyph-name="OE" unicode="&#x152;" horiz-adv-x="1031" 
d="M939 0h-558q-83 0 -145.5 20.5t-104.5 57.5t-63 89t-21 114q0 72 25.5 129.5t79.5 111.5q46 46 124 74.5t171 28.5h578l-29 -225h-89l-10 69q-5 37 -15 58t-30.5 31.5t-52.5 13.5t-82 3h-48l-33 -236h16q27 0 51 7.5t38 34.5l35 69h64l-60 -268h-63l-3 63q-1 25 -15.5 34
t-58.5 9h-12l-31 -238h62q48 0 80.5 3.5t55.5 14.5t40 32t34 57l28 55h90zM432 575q-41 -3 -78 -22.5t-64.5 -56t-43.5 -90t-16 -122.5q0 -112 43.5 -172t128.5 -60h26l70 508z" />
    <glyph glyph-name="oe" unicode="&#x153;" horiz-adv-x="774" 
d="M766 369q0 -26 -18.5 -47t-54.5 -43.5t-89 -49.5t-123 -65v-2q0 -18 6 -34t17.5 -28.5t28 -20t36.5 -7.5q11 0 49 21.5t87 52.5l19 -24q-16 -24 -38 -48t-49 -44t-59 -32.5t-68 -12.5q-51 0 -81.5 17.5t-47.5 47.5q-29 -29 -66.5 -47t-82.5 -18q-46 0 -83.5 15.5t-64 43
t-40.5 66.5t-14 85q0 55 19.5 105.5t54.5 88.5t83 61t105 23q56 0 93.5 -21.5t58.5 -59.5q32 36 77.5 58.5t105.5 22.5q71 0 105 -29.5t34 -74.5zM482 205q35 21 64 39t50 36t32.5 37t11.5 41q0 11 -7 20t-17.5 16t-22.5 10.5t-21 3.5q-11 0 -16.5 -2.5t-9.5 -6.5
q-9 -9 -20 -29t-21.5 -47t-18 -57.5t-9.5 -60.5h5zM351 320q0 44 -15.5 68t-43.5 24q-19 0 -36 -14.5t-30.5 -39t-24.5 -56t-18 -66.5q-6 -28 -9 -53t-3 -45q0 -43 15.5 -67.5t43.5 -24.5q19 0 36 14.5t30.5 39.5t24.5 57t18 66q6 27 9 52t3 45z" />
    <glyph glyph-name="Scaron" unicode="&#x160;" horiz-adv-x="567" 
d="M516 194q0 -50 -19.5 -89t-53.5 -65.5t-81 -40.5t-103 -14q-70 0 -127.5 11t-105.5 25l23 206l87 -3l33 -163q22 -7 45.5 -11.5t54.5 -4.5q48 0 73.5 24.5t25.5 62.5q0 21 -10 36.5t-27 28t-39 23.5l-46 23q-40 20 -72 38.5t-54 41t-33.5 52t-11.5 70.5q0 40 18.5 75
t52 61t80 41t101.5 15q48 0 88 -8.5t89 -20.5l58 21l-28 -217l-82 3l-30 145q-46 16 -102 16q-45 0 -70 -22.5t-25 -47.5q0 -24 11 -41.5t29.5 -32t43 -26.5t50.5 -25q36 -18 65 -35.5t49.5 -39t31.5 -48.5t11 -64zM421 687h-144l-73 177h66l86 -112h2l116 112h68z" />
    <glyph glyph-name="scaron" unicode="&#x161;" horiz-adv-x="418" 
d="M419 380q0 -37 -18 -56.5t-51 -19.5q-32 0 -50 20t-18 47q0 5 1.5 13t3.5 13q-14 8 -37.5 16.5t-44.5 10.5q-14 -14 -23 -31t-9 -21q0 -9 9 -20.5t22 -24t28 -24.5t26 -23q27 -25 48 -44.5t35 -36t21 -32.5t7 -35q0 -31 -16.5 -58t-45 -46.5t-67.5 -31t-84 -11.5
q-25 0 -53.5 5t-52 16.5t-39 30t-15.5 46.5q0 35 18 55t53 20q29 0 47.5 -19t18.5 -48q0 -4 -1.5 -12t-3.5 -13q7 -4 19 -9t26 -9t28 -7t24 -3q10 11 18 27t8 30q0 9 -7.5 18.5t-19.5 21t-27 23.5t-30 25q-28 26 -49 45t-35 35.5t-20.5 32.5t-6.5 34q0 36 16.5 63t44 44.5
t64 26.5t75.5 9q28 0 57 -4.5t52.5 -15t38.5 -28.5t15 -45zM337 520h-144l-73 177h66l86 -112h2l116 112h68z" />
    <glyph glyph-name="Ydieresis" unicode="&#x178;" horiz-adv-x="601" 
d="M665 579l-21 -7q-12 -3 -23 -8.5t-25.5 -20t-35 -41t-52.5 -71.5l-123 -173l-23 -179q-3 -19 20 -24l49 -11l-4 -44h-322l9 44l53 11q23 4 26 24l22 167l-124 284q-9 19 -18 27.5t-23 13.5l-22 8l-3 46h315l-3 -46l-38 -6q-29 -5 -27.5 -32t21.5 -85l54 -154h10l88 127
q26 38 39.5 64t15.5 43t-6 25.5t-25 11.5l-27 6l-3 46h229zM573 772q0 -31 -18.5 -53t-52.5 -22t-52.5 22t-18.5 53t18.5 54t52.5 23t52.5 -23t18.5 -54zM345 772q0 -31 -18.5 -53t-52.5 -22t-53.5 22t-19.5 53t19.5 54t53.5 23t52.5 -23t18.5 -54z" />
    <glyph glyph-name="Zcaron" unicode="&#x17d;" horiz-adv-x="641" 
d="M543 0h-538l8 54l429 508v10h-98q-30 0 -52 -3.5t-38.5 -14t-30 -30t-27.5 -52.5l-30 -71h-89l29 224h545l-7 -55l-437 -508l-1 -10l105 -2q41 0 66.5 7t42 20.5t28 33t24.5 44.5l29 56h91zM458 687h-144l-73 177h66l86 -112h2l116 112h68z" />
    <glyph glyph-name="zcaron" unicode="&#x17e;" horiz-adv-x="442" 
d="M286 312q-39 17 -72 42.5t-73 64.5l-13 -14q13 -17 18 -29.5t5 -30.5q0 -26 -16 -42.5t-40 -18.5q-35 -3 -51.5 16.5t-16.5 45.5q0 23 11 44.5t29.5 38.5t44.5 29t56 15q40 0 66.5 -9t44 -24t28 -35t18.5 -42q2 0 4.5 0.5t4.5 0.5h5l28 110q35 2 60.5 -17t25.5 -54
q0 -42 -31.5 -73.5t-94.5 -31.5l-171 -149q47 -21 83.5 -49t76.5 -65l12 13q-13 15 -18 28.5t-5 31.5q0 26 16 42.5t40 18.5q17 2 30 -3.5t21.5 -15t12.5 -22t4 -25.5q0 -23 -9.5 -45t-27.5 -40t-44 -29.5t-59 -14.5q-74 0 -112 33.5t-59 91.5h-10q-3 0 -6 -1l-29 -112
q-35 -2 -60.5 18t-25.5 55q0 42 31.5 71t93.5 29zM349 520h-144l-73 177h66l86 -112h2l116 112h68z" />
    <glyph glyph-name="florin" unicode="&#x192;" horiz-adv-x="563" 
d="M596 537q0 -32 -20.5 -56.5t-54.5 -24.5q-39 0 -61.5 27.5t-24.5 75.5l-33 -6q-4 -12 -9 -33.5t-10 -45.5t-9.5 -47.5t-8.5 -38.5h136l4 -66h-149q-19 -99 -46 -167t-77 -115q-30 -29 -70 -42.5t-78 -13.5q-24 0 -45.5 7.5t-37.5 20t-25.5 30.5t-9.5 39q0 30 19.5 48.5
t46.5 18.5q36 0 59.5 -23t26.5 -61l52 9q9 24 17.5 57t13.5 80l11 102l-86 10l3 39l95 39q17 65 40.5 103.5t45.5 61.5q18 19 40.5 33t45.5 23.5t45 14.5t38 5q48 0 82 -28t34 -76z" />
    <glyph glyph-name="circumflex" unicode="&#x2c6;" 
d="M329 520l-86 112h-2l-116 -112h-68l121 177h144l75 -177h-68z" />
    <glyph glyph-name="caron" unicode="&#x2c7;" 
d="M298 520h-144l-73 177h66l86 -112h2l116 112h68z" />
    <glyph glyph-name="breve" unicode="&#x2d8;" 
d="M415 697q-20 -93 -71 -137.5t-118 -44.5t-102 44t-37 138h66q8 -50 25.5 -76t55.5 -26t66.5 28.5t50.5 73.5h64z" />
    <glyph glyph-name="dotaccent" unicode="&#x2d9;" 
d="M323 615q0 -32 -20 -55.5t-57 -23.5q-35 0 -54 23.5t-19 55.5t19 56.5t54 24.5q37 0 57 -24.5t20 -56.5z" />
    <glyph glyph-name="ring" unicode="&#x2da;" 
d="M355 619q0 -22 -7.5 -42t-21 -35t-33.5 -24t-45 -9t-45 9t-34.5 24t-22 35t-7.5 42q1 22 8.5 42t21.5 35t34 24t45 9t45 -9t33.5 -24t21 -35t7.5 -42zM317 619q0 28 -18.5 50.5t-50.5 22.5t-50.5 -22.5t-18.5 -50.5t18.5 -49.5t50.5 -21.5t50.5 21.5t18.5 49.5z" />
    <glyph glyph-name="ogonek" unicode="&#x2db;" 
d="M264 -177q-26 -23 -59 -42.5t-77 -19.5q-49 0 -82.5 27.5t-33.5 77.5q0 25 13 49t36 45t54 37.5t66 28.5h62q-37 -16 -64 -35.5t-44.5 -39t-26 -37.5t-8.5 -31q0 -52 65 -52q22 0 46 6t44 14z" />
    <glyph glyph-name="tilde" unicode="&#x2dc;" 
d="M428 673q-8 -42 -20 -70.5t-28 -45.5t-35.5 -24t-42.5 -7q-21 0 -41.5 11t-40 23.5t-36.5 23.5t-31 11q-19 0 -27 -16t-20 -43h-60q16 83 48 115t78 32q21 0 41 -10.5t38.5 -23t35 -23t30.5 -10.5q17 0 29 15t26 42h56z" />
    <glyph glyph-name="hungarumlaut" unicode="&#x2dd;" 
d="M342 520h-60l122 177h148zM142 520h-60l122 177h148z" />
    <glyph glyph-name="endash" unicode="&#x2013;" horiz-adv-x="470" 
d="M33 221l3 67h400l3 -67h-406z" />
    <glyph glyph-name="emdash" unicode="&#x2014;" horiz-adv-x="940" 
d="M33 221l3 67h870l3 -67h-876z" />
    <glyph glyph-name="quoteleft" unicode="&#x2018;" horiz-adv-x="252" 
d="M232 397q0 -13 -6.5 -26t-18 -23.5t-26.5 -17t-33 -6.5q-24 0 -43 9t-31.5 24t-19 34t-6.5 39q0 31 15 61.5t42 60t65.5 56t84.5 49.5l25 -29q-52 -31 -84.5 -68t-32.5 -72q0 -22 11 -38.5t23.5 -28t23.5 -17.5t11 -7z" />
    <glyph glyph-name="quoteright" unicode="&#x2019;" horiz-adv-x="252" 
d="M275 553q0 -31 -15 -61.5t-42 -60t-65 -56t-85 -49.5l-25 29q52 31 84.5 68t32.5 72q0 22 -11 38.5t-23.5 28t-23.5 17.5t-11 7q0 13 6.5 26t18 23.5t26.5 17t33 6.5q24 0 43 -9t31.5 -24t19 -34t6.5 -39z" />
    <glyph glyph-name="quotesinglbase" unicode="&#x201a;" horiz-adv-x="252" 
d="M187 53q0 -31 -15 -61.5t-42 -60t-65 -56t-85 -49.5l-25 29q52 31 84.5 68t32.5 72q0 22 -11 38.5t-23.5 28t-23.5 17.5t-11 7q0 13 6.5 26t18 23.5t26.5 17t33 6.5q24 0 43 -9t31.5 -24t19 -34t6.5 -39z" />
    <glyph glyph-name="quotedblleft" unicode="&#x201c;" horiz-adv-x="481" 
d="M461 397q0 -13 -6.5 -26t-18 -23.5t-26.5 -17t-33 -6.5q-24 0 -43 9t-31.5 24t-19 34t-6.5 39q0 31 15 61.5t42 60t65.5 56t84.5 49.5l25 -29q-52 -31 -84.5 -68t-32.5 -72q0 -22 11 -38.5t23.5 -28t23.5 -17.5t11 -7zM232 397q0 -13 -6.5 -26t-18 -23.5t-26.5 -17
t-33 -6.5q-24 0 -43 9t-31.5 24t-19 34t-6.5 39q0 31 15 61.5t42 60t65.5 56t84.5 49.5l25 -29q-52 -31 -84.5 -68t-32.5 -72q0 -22 11 -38.5t23.5 -28t23.5 -17.5t11 -7z" />
    <glyph glyph-name="quotedblright" unicode="&#x201d;" horiz-adv-x="481" 
d="M504 553q0 -31 -15 -61.5t-42 -60t-65 -56t-85 -49.5l-25 29q52 31 84.5 68t32.5 72q0 22 -11 38.5t-23.5 28t-23.5 17.5t-11 7q0 13 6.5 26t18 23.5t26.5 17t33 6.5q24 0 43 -9t31.5 -24t19 -34t6.5 -39zM275 553q0 -31 -15 -61.5t-42 -60t-65 -56t-85 -49.5l-25 29
q52 31 84.5 68t32.5 72q0 22 -11 38.5t-23.5 28t-23.5 17.5t-11 7q0 13 6.5 26t18 23.5t26.5 17t33 6.5q24 0 43 -9t31.5 -24t19 -34t6.5 -39z" />
    <glyph glyph-name="quotedblbase" unicode="&#x201e;" horiz-adv-x="481" 
d="M416 53q0 -31 -15 -61.5t-42 -60t-65 -56t-85 -49.5l-25 29q52 31 84.5 68t32.5 72q0 22 -11 38.5t-23.5 28t-23.5 17.5t-11 7q0 13 6.5 26t18 23.5t26.5 17t33 6.5q24 0 43 -9t31.5 -24t19 -34t6.5 -39zM187 53q0 -31 -15 -61.5t-42 -60t-65 -56t-85 -49.5l-25 29
q52 31 84.5 68t32.5 72q0 22 -11 38.5t-23.5 28t-23.5 17.5t-11 7q0 13 6.5 26t18 23.5t26.5 17t33 6.5q24 0 43 -9t31.5 -24t19 -34t6.5 -39z" />
    <glyph glyph-name="dagger" unicode="&#x2020;" horiz-adv-x="470" 
d="M466 385h-180v-539h-48v539h-179l-4 51h183v191h48v-191h184z" />
    <glyph glyph-name="daggerdbl" unicode="&#x2021;" horiz-adv-x="470" 
d="M288 19v-173h-48v173h-183l4 49h179v332h-179l-4 49h183v178h48v-178h184l-4 -49h-180v-332h180l4 -49h-184z" />
    <glyph glyph-name="bullet" unicode="&#x2022;" horiz-adv-x="455" 
d="M420 232q0 -11 -6 -30.5t-14.5 -40.5t-18 -39.5t-17.5 -26.5q-7 -7 -25.5 -17t-39.5 -18.5t-41 -14.5t-31 -6q-10 0 -30 6t-41 14.5t-39 18.5t-25 17q-7 8 -17 26.5t-19 39.5t-15 40.5t-6 30.5t6 30.5t15 40.5t19 39.5t17 25.5q8 8 26 17.5t39 18t41 14.5t30 6
q11 0 30.5 -6t40.5 -14.5t39.5 -18t25.5 -17.5q8 -7 17.5 -25.5t18 -39.5t14.5 -40.5t6 -30.5z" />
    <glyph glyph-name="ellipsis" unicode="&#x2026;" horiz-adv-x="696" 
d="M649 72q0 -36 -25.5 -62t-62.5 -26t-62.5 25.5t-25.5 62.5t25.5 63t62.5 26q18 0 34 -7t28 -19.5t19 -28.5t7 -34zM417 72q0 -36 -25.5 -62t-62.5 -26t-62.5 25.5t-25.5 62.5t25.5 63t62.5 26q18 0 34 -7t28 -19.5t19 -28.5t7 -34zM185 72q0 -36 -25.5 -62t-62.5 -26
t-62.5 25.5t-25.5 62.5t25.5 63t62.5 26q18 0 34 -7t28 -19.5t19 -28.5t7 -34z" />
    <glyph glyph-name="perthousand" unicode="&#x2030;" horiz-adv-x="1126" 
d="M385 500q0 -39 -14.5 -73t-39 -59.5t-58 -40t-72.5 -14.5q-32 0 -60.5 10.5t-49.5 30t-33.5 47t-12.5 61.5q0 38 14.5 71.5t39 59t58 40t70.5 14.5q33 0 61.5 -10t50 -29t34 -46.5t12.5 -61.5zM94 -15h-59l630 654h59zM719 164q0 -39 -14.5 -73t-39.5 -59.5t-58.5 -40
t-71.5 -14.5q-67 0 -110.5 39t-43.5 108q0 39 14 73t38.5 59.5t57.5 40t72 14.5q32 0 60.5 -10t49.5 -29t33.5 -46.5t12.5 -61.5zM335 490q0 50 -31 81.5t-81 31.5q-28 0 -51.5 -11.5t-41 -31t-27.5 -44.5t-10 -52q0 -50 32.5 -79.5t79.5 -29.5q28 0 51.5 10.5t41 29
t27.5 43t10 52.5zM671 158q0 24 -9 44t-24 34.5t-35.5 22.5t-43.5 8q-28 0 -51.5 -11.5t-41 -31t-27.5 -44.5t-10 -52q0 -50 31.5 -79.5t78.5 -29.5q28 0 52 11.5t42 30.5t28 44t10 53zM1100 164q0 -39 -14.5 -73t-39.5 -59.5t-58.5 -40t-71.5 -14.5q-67 0 -110.5 39
t-43.5 108q0 39 14 73t38.5 59.5t57.5 40t72 14.5q32 0 60.5 -10t49.5 -29t33.5 -46.5t12.5 -61.5zM1052 158q0 24 -9 44t-24 34.5t-35.5 22.5t-43.5 8q-28 0 -51.5 -11.5t-41 -31t-27.5 -44.5t-10 -52q0 -50 31.5 -79.5t78.5 -29.5q28 0 52 11.5t42 30.5t28 44t10 53z" />
    <glyph glyph-name="guilsinglleft" unicode="&#x2039;" horiz-adv-x="300" 
d="M249 32l-231 156v70l277 160l10 -22l-183 -175l141 -167z" />
    <glyph glyph-name="guilsinglright" unicode="&#x203a;" horiz-adv-x="300" 
d="M20 28l-10 22l167 171l-127 171l14 22l231 -156l-6 -74z" />
    <glyph glyph-name="fraction" unicode="&#x2044;" horiz-adv-x="617" 
d="M66 -14h-68l554 652h69z" />
    <glyph glyph-name="Euro" unicode="&#x20ac;" horiz-adv-x="534" 
d="M208 219q10 -69 44 -106.5t97 -37.5q35 0 68.5 15.5t63.5 41.5l17 -16q-13 -28 -34 -52.5t-47.5 -41.5t-57 -27t-63.5 -10q-50 0 -89.5 17.5t-68 49t-45 74.5t-20.5 93h-60l3 53h56v1q2 36 9 72h-52l3 53h63q16 48 42.5 90t62.5 73.5t82 49.5t102 18q69 0 109.5 -25
t41.5 -61q0 -32 -19.5 -51.5t-46.5 -19.5q-35 0 -54 28.5t-14 68.5q-4 2 -13.5 6t-22.5 4q-25 0 -47 -15t-40.5 -40t-33 -58t-24.5 -68h203l3 -53h-217q-2 -17 -3.5 -33.5t-1.5 -32.5v-7h203l3 -53h-202z" />
    <glyph glyph-name="trademark" unicode="&#x2122;" horiz-adv-x="956" 
d="M769 253l1 32l35 7q4 1 6.5 3t4 8t1.5 17v29l-5 232h-10l-88 -316h-86l-64 319h-10l-7 -195q-1 -33 -1 -52.5t1.5 -29.5t4 -13t6.5 -4l32 -5l3 -32h-146l3 32l30 5q6 1 10 4t6.5 12.5t4 29t2.5 53.5l6 183q0 5 -2.5 9t-10.5 6l-34 6l-2 32h193l42 -266h10l67 266h188
l-2 -32l-33 -6q-8 -2 -11 -6t-3 -9l4 -223q1 -37 6 -46t14 -11l31 -7l2 -32h-199zM420 472h-52l-4 19q-6 28 -11 47t-13 31t-21 17t-34 5h-1v-286q0 -4 2.5 -8t9.5 -6l34 -6l3 -32h-196l3 32l34 6q8 2 10.5 6t2.5 8v286h-1q-19 0 -31.5 -6t-20.5 -18t-14 -31t-13 -45l-5 -19
h-49l8 153h359v-153z" />
    <glyph glyph-name="Delta" unicode="&#x2206;" horiz-adv-x="567" 
d="M591 582l-46 -11q-22 -5 -25 -24l-50 -353q-7 -51 -29 -90t-56 -65t-78.5 -39.5t-96.5 -13.5q-45 0 -82.5 12t-64.5 33t-42 49t-15 60q0 40 26.5 65t64.5 25q31 0 53.5 -21t22.5 -52q0 -25 -10 -45t-25 -32q12 -18 35.5 -29t42.5 -11q35 0 62.5 31t35.5 99l46 377
q1 9 -2.5 15t-16.5 9l-62 11l-3 43h318z" />
    <glyph glyph-name="minus" unicode="&#x2212;" horiz-adv-x="486" 
d="M41 208l3 54h399l3 -54h-405z" />
    <glyph glyph-name="apple" unicode="&#xf8ff;" horiz-adv-x="758" 
d="M583 236l69 -189l-189 69l-85 -181l-84 180l-187 -68l68 187l-181 86l181 83l-68 189l187 -69l86 181l83 -181l189 69l-69 -189l180 -82zM531 382l50 139l-139 -50l-63 133l-63 -133l-139 50l51 -139l-134 -63l134 -63l-51 -138l139 51l62 -135l64 135l139 -51l-50 140
l132 62z" />
    <glyph glyph-name="ff" unicode="&#xfb00;" horiz-adv-x="616" 
d="M149 -53q4 1 11 1q37 0 59.5 -28.5t26.5 -66.5l52 10q9 25 17 62.5t15 85.5l51 371h-133l-63 -310q-15 -70 -36 -125zM415 523q-22 16 -36 46t-19 62l-64 -11q-11 -45 -18 -86t-16 -86h132q5 22 10 40t11 35zM99 -150q-8 -11 -16.5 -21t-16.5 -19q-29 -29 -63.5 -42.5
t-72.5 -13.5q-24 0 -45.5 7.5t-37.5 20t-25.5 30.5t-9.5 39q0 30 19.5 48.5t46.5 18.5q36 0 59.5 -28t26.5 -66l50 9q9 24 18 62.5t15 86.5l52 390l-83 10l3 39l97 39q5 35 22.5 77t57.5 80q19 18 38 32.5t41 24.5t49 15t61 5q39 0 70 -14.5t49 -37.5q34 27 74 41.5t80 14.5
q55 0 91 -29t36 -77q0 -31 -20.5 -54.5t-53.5 -23.5q-19 0 -34.5 10t-26.5 27t-18 39t-9 45l-44 -8q-11 -35 -19.5 -85t-17.5 -94h126l3 -66h-143l-57 -279q-20 -98 -50.5 -162t-68.5 -102q-29 -29 -65.5 -42t-74.5 -13q-41 0 -71.5 18t-41.5 48z" />
    <glyph glyph-name="fi" unicode="&#xfb01;" horiz-adv-x="593" 
d="M185 72q-20 -98 -51 -161t-68 -101q-29 -29 -63.5 -42.5t-72.5 -13.5q-24 0 -45.5 7.5t-37.5 20t-25.5 30.5t-9.5 39q0 30 19.5 48.5t46.5 18.5q36 0 59.5 -28t26.5 -66l50 9q9 24 18 62.5t15 86.5l52 390l-83 10l3 39l97 39q5 35 26 80t59 82q36 36 90 56.5t116 20.5
q69 0 108 -30.5t39 -83.5q0 -29 -21 -51.5t-53 -22.5q-18 0 -33 10.5t-26.5 27.5t-19 38.5t-11.5 43.5l-81 -11q-19 -45 -28.5 -86t-18.5 -86h115q17 11 34 18t35 7q11 0 28.5 -8.5t34 -20t28 -23.5t9.5 -18l-84 -314l8 -8l84 55l18 -25q-13 -21 -31 -43.5t-38 -41
t-42.5 -30t-46.5 -11.5q-11 0 -28.5 8.5t-34 20.5t-27.5 23.5t-10 17.5l86 319l-8 8h-144z" />
    <glyph glyph-name="fl" unicode="&#xfb02;" horiz-adv-x="588" 
d="M248 382l-63 -310q-20 -98 -51 -161t-68 -101q-29 -29 -63.5 -42.5t-72.5 -13.5q-24 0 -45.5 7.5t-37.5 20t-25.5 30.5t-9.5 39q0 30 19.5 48.5t46.5 18.5q36 0 59.5 -28t26.5 -66l50 9q9 24 18 62.5t15 86.5l52 390l-83 10l3 39l97 39q5 35 26 80t59 82q36 36 90 56.5
t116 20.5q60 0 98 -24l98 22l-136 -608l8 -8l84 55l18 -25q-13 -21 -31 -43.5t-38 -41t-42.5 -30t-46.5 -11.5q-11 0 -27.5 8.5t-32 20.5t-26 23.5t-9.5 17.5l71 327h-147zM428 531q-14 14 -23.5 44t-14.5 56l-81 -11q-19 -45 -28.5 -86t-18.5 -86h148z" />
    <glyph glyph-name="ffi" unicode="&#xfb03;" horiz-adv-x="873" 
d="M149 -53q4 1 11 1q37 0 59.5 -28.5t26.5 -66.5l52 10q9 25 17 62.5t15 85.5l51 371h-133l-63 -310q-15 -70 -36 -125zM415 523q-22 16 -36 46t-19 62l-64 -11q-11 -45 -18 -86t-16 -86h132q5 22 10 40t11 35zM504 642q36 27 83 42t100 15q69 0 108 -30.5t39 -83.5
q0 -29 -21 -51.5t-53 -22.5q-18 0 -33 10.5t-26.5 27.5t-19 38.5t-11.5 43.5l-84 -11q-19 -45 -27 -86t-17 -86h115q17 11 34 18t35 7q11 0 28.5 -8.5t34 -20t28 -23.5t9.5 -18l-84 -314l8 -8l84 55l18 -25q-13 -21 -31 -43.5t-38 -41t-42.5 -30t-46.5 -11.5
q-11 0 -28.5 8.5t-34 20.5t-27.5 23.5t-10 17.5l86 319l-8 8h-144l-57 -279q-20 -98 -50.5 -162t-68.5 -102q-29 -29 -65.5 -42t-74.5 -13q-41 0 -71.5 18t-41.5 48q-8 -11 -16.5 -21t-16.5 -19q-29 -29 -63.5 -42.5t-72.5 -13.5q-24 0 -45.5 7.5t-37.5 20t-25.5 30.5
t-9.5 39q0 30 19.5 48.5t46.5 18.5q36 0 59.5 -28t26.5 -66l50 9q9 24 18 62.5t15 86.5l52 390l-83 10l3 39l97 39q5 35 22.5 77t57.5 80q19 18 38 32.5t41 24.5t49 15t61 5q39 0 70 -14.5t49 -37.5z" />
    <glyph glyph-name="ffl" unicode="&#xfb04;" horiz-adv-x="868" 
d="M708 531q-14 14 -23.5 44t-14.5 56l-84 -11q-19 -45 -27 -86t-17 -86h148zM415 523q-22 16 -36 46t-19 62l-64 -11q-11 -45 -18 -86t-16 -86h132q5 22 10 40t11 35zM149 -53q4 1 11 1q37 0 59.5 -28.5t26.5 -66.5l52 10q9 25 17 62.5t15 85.5l51 371h-133l-63 -310
q-15 -70 -36 -125zM504 642q36 27 83 42t100 15q60 0 98 -24l98 22l-136 -608l8 -8l84 55l18 -25q-13 -21 -31 -43.5t-38 -41t-42.5 -30t-46.5 -11.5q-11 0 -27.5 8.5t-32 20.5t-26 23.5t-9.5 17.5l71 327h-147l-57 -279q-20 -98 -50.5 -162t-68.5 -102q-29 -29 -65.5 -42
t-74.5 -13q-41 0 -71.5 18t-41.5 48q-8 -11 -16.5 -21t-16.5 -19q-29 -29 -63.5 -42.5t-72.5 -13.5q-24 0 -45.5 7.5t-37.5 20t-25.5 30.5t-9.5 39q0 30 19.5 48.5t46.5 18.5q36 0 59.5 -28t26.5 -66l50 9q9 24 18 62.5t15 86.5l52 390l-83 10l3 39l97 39q5 35 22.5 77
t57.5 80q19 18 38 32.5t41 24.5t49 15t61 5q39 0 70 -14.5t49 -37.5z" />
  </font>
</defs>
</svg>
