<?xml version="1.0" standalone="no"?>
<!DOCTYPE svg PUBLIC "-//W3C//DTD SVG 1.1//EN" "http://www.w3.org/Graphics/SVG/1.1/DTD/svg11.dtd" >
<svg xmlns="http://www.w3.org/2000/svg" xmlns:xlink="http://www.w3.org/1999/xlink" version="1.1">
<metadata>
Created by FontForge 20170731 at Sun Jan 10 00:35:12 2016
 By Aleksey,,,
Copyright  2004, Joshua Darden &#38; Phil's Fonts, Inc. All rights reserved. Published by Garagefonts USA 301-260-2285 www.garagefonts.com
</metadata>
<defs>
<font id="FreightTextLightItalic" horiz-adv-x="400" >
  <font-face 
    font-family="FreightTextLightItalic"
    font-weight="400"
    font-style="italic"
    font-stretch="normal"
    units-per-em="1000"
    panose-1="2 0 6 6 6 0 0 9 0 4"
    ascent="728"
    descent="-272"
    x-height="459"
    cap-height="625"
    bbox="-126.087 -261 1109 864"
    underline-thickness="20"
    underline-position="-173"
    slope="-12"
    unicode-range="U+0020-FB04"
  />
<missing-glyph horiz-adv-x="500" 
 />
    <glyph glyph-name=".notdef" horiz-adv-x="500" 
 />
    <glyph glyph-name=".null" horiz-adv-x="0" 
 />
    <glyph glyph-name="nonmarkingreturn" horiz-adv-x="155" 
 />
    <glyph glyph-name="space" unicode=" " horiz-adv-x="155" 
 />
    <glyph glyph-name="space" unicode="&#xa0;" horiz-adv-x="155" 
 />
    <glyph glyph-name="exclam" unicode="!" horiz-adv-x="274" 
d="M144 201q-1 -3 -4.5 -4.5t-7 -1.5t-6.5 1.5t-3 4.5l29 415q1 8 4 15.5t14 7.5h44q11 0 12.5 -7.5t-0.5 -15.5zM162 36q-1 -20 -14 -35t-36 -15t-37.5 15t-13.5 35q1 18 15 32.5t37 14.5t36.5 -14t12.5 -33z" />
    <glyph glyph-name="quotedbl" unicode="&#x22;" horiz-adv-x="320" 
d="M217 403h-25l132 245h1l59 -21zM73 403h-23l130 245h1l59 -21z" />
    <glyph glyph-name="numbersign" unicode="#" horiz-adv-x="551" 
d="M441 410l-53 -199h133v-28h-141l-51 -189h-29l51 189h-185l-50 -189h-29l50 189h-131v28h139l53 199h-131v29h139l53 192h29l-52 -192h184l52 192h29l-52 -192h133v-29h-141zM412 410h-183l-55 -199h184z" />
    <glyph glyph-name="dollar" unicode="$" horiz-adv-x="469" 
d="M128 -165h-31l42 152q-30 2 -59 6.5t-57 12.5l6 173h33l18 -140q29 -12 69 -17l78 282q-27 15 -53 31.5t-46.5 37t-33 47t-12.5 60.5q0 45 20 75.5t52 49t71 26.5t77 8h17q1 0 5 15.5t9 34.5l14 50h31l-28 -101q17 -2 32.5 -3.5t30.5 -5.5l55 15l-25 -191h-34l-4 127
q-13 8 -30 13.5t-35 8.5l-3 -11q-3 -11 -8 -29.5t-11.5 -42t-13.5 -48.5q-16 -58 -37 -132q28 -16 55.5 -32.5t49 -36.5t34.5 -46t13 -61q0 -49 -19.5 -83t-51.5 -55t-72.5 -30.5t-83.5 -9.5h-22zM240 353q19 72 35 127q7 24 13.5 46.5t11.5 40t8 28.5l2 11q-5 1 -9 1h-9
q-28 0 -56.5 -5.5t-51.5 -19t-37.5 -35.5t-14.5 -55q0 -26 8.5 -46t23.5 -36.5t34.5 -30t41.5 -26.5zM179 19q5 -1 11 -1h10q31 0 62 6.5t55.5 22t40 40.5t15.5 61q0 27 -9.5 47.5t-26 37t-38 30.5t-45.5 27z" />
    <glyph glyph-name="percent" unicode="%" horiz-adv-x="746" 
d="M395 500q0 -39 -14.5 -73t-39 -59.5t-58 -40t-72.5 -14.5q-32 0 -60.5 10.5t-49.5 30t-33.5 47t-12.5 61.5q0 38 14.5 71.5t39 59t58 40t70.5 14.5q33 0 61.5 -10t50 -29t34 -46.5t12.5 -61.5zM97 -15h-52l637 654h52zM729 164q0 -39 -14.5 -73t-39.5 -59.5t-58.5 -40
t-71.5 -14.5q-67 0 -110.5 39t-43.5 108q0 39 14 73t38.5 59.5t57.5 40t72 14.5q32 0 60.5 -10t49.5 -29t33.5 -46.5t12.5 -61.5zM357 490q0 55 -34.5 90t-89.5 35q-30 0 -56 -12.5t-45 -33.5t-30 -48.5t-11 -56.5q0 -27 9.5 -49.5t26.5 -38.5t39.5 -24.5t48.5 -8.5
q30 0 56 11.5t45 31.5t30 47t11 57zM693 158q0 27 -9.5 49t-26.5 38t-39.5 25t-48.5 9q-30 0 -56 -12.5t-45 -33.5t-30 -48.5t-11 -56.5q0 -55 35 -88t87 -33q30 0 56.5 12t46 33t30.5 48.5t11 57.5z" />
    <glyph glyph-name="ampersand" unicode="&#x26;" horiz-adv-x="597" 
d="M368 130q-25 -31 -50.5 -58t-52.5 -46.5t-57.5 -30.5t-66.5 -11q-27 0 -50.5 10t-41 28t-27 42t-9.5 52q0 43 14.5 76.5t39.5 58.5t58 42.5t70 28.5v1q-32 38 -52.5 73t-20.5 79q0 32 13.5 62t37 52.5t54.5 36t66 13.5q29 0 56 -10t47.5 -27.5t33 -41t12.5 -49.5
q0 -57 -47 -106.5t-139 -75.5v-1l136 -150h2l134 146v1q-18 4 -29.5 16.5t-11.5 29.5q0 15 10.5 27t30.5 12q24 0 36.5 -19t12.5 -38q0 -18 -9 -37t-24.5 -37.5t-35.5 -36.5t-42 -33l-61 -43l149 -162l-55 -18l-129 144h-2zM392 516q0 23 -9 40.5t-23.5 29t-33 17.5t-38.5 6
q-25 0 -46.5 -9.5t-37.5 -26.5t-25 -39.5t-9 -48.5q0 -31 20.5 -65.5t55.5 -77.5q65 31 105.5 73t40.5 101zM208 309q-70 -34 -108 -78.5t-38 -102.5q0 -48 25.5 -76.5t60.5 -28.5q51 0 99 29.5t109 91.5z" />
    <glyph glyph-name="quotesingle" unicode="'" horiz-adv-x="176" 
d="M73 403h-25l132 245h1l59 -21z" />
    <glyph glyph-name="parenleft" unicode="(" horiz-adv-x="395" 
d="M357 -249q-40 20 -85.5 60.5t-84.5 99t-65 133.5t-26 165t26 165t65 133.5t84.5 99t85.5 60.5q6 -8 10 -15q9 -14 9 -18q-37 -19 -79 -58t-76.5 -93.5t-57.5 -124t-23 -149.5t23 -149t57.5 -124t76.5 -93.5t79 -57.5q0 -5 -9 -19q-4 -7 -10 -15z" />
    <glyph glyph-name="parenright" unicode=")" horiz-adv-x="395" 
d="M39 -249q-6 8 -10 15q-4 6 -7 11t-3 7q38 19 79.5 58t76 93.5t57.5 124t23 149.5t-23 149.5t-57.5 124t-76 93.5t-79.5 58q0 2 3 7t7 11q4 7 10 15q39 -20 84.5 -60.5t84.5 -99t65 -133.5t26 -165t-26 -165t-65 -133.5t-84.5 -99t-84.5 -60.5z" />
    <glyph glyph-name="asterisk" unicode="*" horiz-adv-x="344" 
d="M306 443l-79 24l-11 -13l37 -69l-10 -64l-21 -5l-29 53l9 82l-14 4l-60 -60l-63 -21l-11 19l49 53l78 23l2 16l-72 25l-36 51l14 18l61 -19l43 -65l17 5l16 83l40 52l21 -7l-8 -64l-58 -69l8 -13l85 22l56 -19l-3 -22z" />
    <glyph glyph-name="plus" unicode="+" horiz-adv-x="480" 
d="M264 213v-186h-45v186h-183l3 43h180v185h45v-185h179l3 -43h-182z" />
    <glyph glyph-name="comma" unicode="," horiz-adv-x="212" 
d="M144 18q-4 -29 -18.5 -56t-35.5 -50t-46 -43t-51 -36l-13 16q41 29 67 60.5t32 74.5q3 19 -5.5 32.5t-19 21.5t-20 12.5t-9.5 5.5q2 17 14 31.5t38 14.5q35 0 53.5 -24.5t13.5 -59.5z" />
    <glyph glyph-name="hyphen" unicode="-" horiz-adv-x="328" 
d="M7 212l3 45h250l3 -45h-256z" />
    <glyph glyph-name="period" unicode="." horiz-adv-x="214" 
d="M132 36q-1 -20 -14.5 -35t-36.5 -15t-36.5 15.5t-12.5 34.5t14 33.5t36 14.5t37 -14.5t13 -33.5z" />
    <glyph glyph-name="slash" unicode="/" horiz-adv-x="279" 
d="M225 660h40l-213 -869h-40z" />
    <glyph glyph-name="zero" unicode="0" horiz-adv-x="509" 
d="M458 271q0 -53 -16 -104t-45.5 -91.5t-71 -65.5t-92.5 -25q-40 0 -74 15.5t-59.5 43.5t-40 68t-14.5 89q0 53 16 103.5t46 90.5t71.5 64t92.5 24q40 0 74 -14.5t59 -42t39.5 -67t14.5 -88.5zM413 271q0 38 -11 69.5t-30.5 54.5t-46 36t-58.5 13q-46 0 -79.5 -24
t-55.5 -60t-32 -78.5t-10 -80.5t11 -70.5t30 -56.5t46 -38t58 -14q47 0 80.5 24.5t55 62t32 81t10.5 81.5z" />
    <glyph glyph-name="one" unicode="1" horiz-adv-x="337" 
d="M33 0l7 31l88 8q5 0 6 6l51 385l-121 8l6 26l166 14l-57 -433q-1 -6 4 -6l83 -8l-1 -31h-232z" />
    <glyph glyph-name="two" unicode="2" horiz-adv-x="435" 
d="M355 0h-345l1 39q50 37 105.5 76t102 79t77.5 80.5t31 80.5q0 41 -27.5 61.5t-65.5 20.5q-48 0 -90.5 -21.5t-76.5 -53.5l-15 20q17 18 38.5 36.5t46.5 32.5t52 23t55 9q29 0 54.5 -7t44.5 -21.5t30 -36.5t11 -51q0 -43 -30 -85t-76.5 -81.5t-103 -77.5t-108.5 -74v-5h58
q70 0 109 2t59.5 8t27.5 17t14 30l26 72h36z" />
    <glyph glyph-name="three" unicode="3" horiz-adv-x="408" 
d="M350 35q0 -50 -25.5 -93t-66 -75t-91 -50.5t-100.5 -18.5q-12 0 -28 2t-31 8t-25 16.5t-10 26.5q0 20 14 31t32 11q25 0 39 -16.5t21 -38.5q17 -3 33 -3q32 0 64.5 15.5t58.5 41t43 59.5t17 71q0 22 -7.5 41.5t-22.5 34.5t-37 24t-51 9t-57.5 -5.5t-51.5 -14.5l-6 23
q29 18 70 39.5t78.5 47t64 56.5t26.5 67q0 47 -29.5 70t-70.5 23q-44 0 -86 -20t-76 -52l-15 20q16 18 38 35.5t46.5 31.5t51.5 22.5t52 8.5q29 0 55.5 -8.5t47 -24.5t32.5 -40t12 -55q0 -35 -18.5 -62.5t-46.5 -50t-61.5 -40.5t-62.5 -34v-3q6 1 16 2t20 1q28 0 54 -9
t46 -26t32 -41.5t12 -56.5z" />
    <glyph glyph-name="four" unicode="4" horiz-adv-x="439" 
d="M319 36l-29 -220h-47l29 220h-282l2 31l357 416h29l-55 -411h108l-11 -36h-101zM322 401h-2l-280 -329h236z" />
    <glyph glyph-name="five" unicode="5" horiz-adv-x="410" 
d="M390 418h-222l-62 -165q67 -25 111.5 -53.5t70.5 -59.5t35 -64t5 -66q-6 -46 -29 -85t-59.5 -67t-84 -44t-101.5 -16q-45 0 -71.5 18t-23.5 43q2 19 17 31.5t33 12.5q26 0 43 -18.5t19 -43.5q8 -2 15 -3t16 -1q35 0 65 13t53 34.5t37 49t18 56.5q9 68 -45.5 125.5
t-172.5 98.5l100 260h240z" />
    <glyph glyph-name="six" unicode="6" horiz-adv-x="479" 
d="M438 211q0 -43 -19 -84t-49.5 -72.5t-70 -51t-80.5 -19.5q-36 0 -69 15.5t-58.5 45t-41 72t-15.5 96.5q0 49 17 98.5t48 95t75 86t96.5 73t113 55t125.5 31.5l21 -20q-75 -14 -144.5 -45t-128 -76t-102 -103t-66.5 -127l5 -1q16 23 37.5 43.5t46.5 36t52 24.5t52 9
q35 0 63.5 -14t48.5 -38t31.5 -57.5t11.5 -72.5zM384 213q0 39 -11 66.5t-28 45t-37 26t-39 8.5q-51 0 -95 -30.5t-82 -78.5q-3 -15 -5 -31.5t-2 -33.5q0 -28 9.5 -59t27.5 -56.5t43.5 -42t56.5 -16.5q29 0 58 15t52 41.5t37.5 63.5t14.5 82z" />
    <glyph glyph-name="seven" unicode="7" horiz-adv-x="434" 
d="M59 -186h-45l369 601v5h-204q-19 0 -32 -2t-22 -6.5t-14.5 -12t-10.5 -18.5q-6 -14 -11 -25q-5 -10 -9 -20l-6 -15h-30l39 153h352l1 -34z" />
    <glyph glyph-name="eight" unicode="8" horiz-adv-x="461" 
d="M410 144q-11 -80 -69 -123.5t-157 -36.5q-37 3 -67.5 18t-51.5 38t-30.5 52.5t-5.5 61.5t19.5 57t38 44.5t50 34t54.5 25.5v1q-24 14 -45.5 30.5t-37 36t-23 42t-3.5 48.5q5 32 21 61t43 50t63.5 32.5t81.5 8.5q35 -2 64.5 -16t50 -35.5t31 -49t6.5 -57.5
q-8 -60 -49 -100.5t-95 -62.5l-1 -1q26 -14 47.5 -30.5t37 -36t23 -42.5t4.5 -50zM387 452q4 28 -2.5 53.5t-22 45t-38.5 32t-53 14.5q-28 2 -52 -6t-42 -23t-30 -36t-15 -45q-4 -30 5.5 -53.5t30 -44t49 -38t61.5 -35.5q44 26 73.5 58.5t35.5 77.5zM362 132q4 32 -7 56
t-32 44.5t-49.5 37.5t-59.5 33q-22 -11 -44 -25t-40 -31.5t-30.5 -38t-15.5 -44.5q-4 -30 2.5 -57t23 -47.5t43.5 -33.5t63 -15q31 -2 56 6.5t44 24.5t30.5 39t15.5 51z" />
    <glyph glyph-name="nine" unicode="9" horiz-adv-x="479" 
d="M34 256q0 43 19 84t49.5 72.5t70 51t80.5 19.5q36 0 69.5 -15.5t59 -45t40.5 -72t15 -96.5q0 -74 -37.5 -146.5t-102.5 -133t-151 -103t-184 -56.5l-21 20q75 14 144.5 45t128 76t102 103t66.5 127l-5 1q-16 -23 -37.5 -43.5t-46.5 -36t-51.5 -24.5t-52.5 -9
q-34 0 -63 14t-49 38t-31.5 57.5t-11.5 72.5zM88 254q0 -39 11 -66.5t28 -45t37 -26t39 -8.5q51 0 95 30.5t82 78.5q3 15 5 31.5t2 33.5q0 29 -9.5 59.5t-27.5 56t-43 42t-57 16.5q-29 0 -58 -15t-52 -41.5t-37.5 -63.5t-14.5 -82z" />
    <glyph glyph-name="colon" unicode=":" horiz-adv-x="213" 
d="M174 356q-1 -20 -14.5 -35t-36.5 -15t-36 15.5t-13 34.5t13.5 33.5t36.5 14.5t37 -14.5t13 -33.5zM132 36q-1 -20 -14.5 -35t-36.5 -15t-36.5 15.5t-12.5 34.5t14 33.5t36 14.5t37 -14.5t13 -33.5z" />
    <glyph glyph-name="semicolon" unicode=";" horiz-adv-x="213" 
d="M174 356q-1 -20 -14.5 -35t-36.5 -15t-36 15.5t-13 34.5t13.5 33.5t36.5 14.5t37 -14.5t13 -33.5zM144 18q-4 -29 -18.5 -56t-35.5 -50t-46 -43t-51 -36l-13 16q41 29 67 60.5t32 74.5q3 19 -5.5 32.5t-19 21.5t-20 12.5t-9.5 5.5q2 17 14 31.5t38 14.5q35 0 53.5 -24.5
t13.5 -59.5z" />
    <glyph glyph-name="less" unicode="&#x3c;" horiz-adv-x="480" 
d="M2 225v20l395 186l11 -39l-326 -152v-9l326 -153l-11 -39z" />
    <glyph glyph-name="equal" unicode="=" horiz-adv-x="480" 
d="M18 299l-3 45h390l-3 -45h-384zM15 125l3 45h384l3 -45h-390z" />
    <glyph glyph-name="greater" unicode="&#x3e;" horiz-adv-x="480" 
d="M23 39l-11 39l326 153v9l-326 152l11 39l395 -186v-20z" />
    <glyph glyph-name="question" unicode="?" horiz-adv-x="313" 
d="M312 492q0 -31 -9.5 -53t-25 -37.5t-37 -25.5t-45.5 -18l-36 -14q-18 -7 -31.5 -16.5t-22 -23.5t-8.5 -35q1 -25 18 -48.5t38 -41.5l-33 2q-9 9 -19.5 20t-19 24t-14.5 28.5t-6 33.5q0 27 11 46.5t28.5 34t40 25t45.5 18.5q20 7 37 14t30.5 16t21 20.5t7.5 26.5
q0 17 -10.5 33.5t-31 29.5t-49.5 21t-66 8q-12 0 -22 -0.5t-16 -1.5q-2 6 -2 15q0 23 17.5 34.5t43.5 11.5q39 0 69.5 -13t52 -34t33 -47t11.5 -53zM149 36q0 -20 -13 -35t-36 -15t-38 15t-14 35q1 18 15 32.5t37 14.5t36 -14t13 -33z" />
    <glyph glyph-name="at" unicode="@" horiz-adv-x="834" 
d="M535 313h-10q-22 -43 -48.5 -89t-54 -84t-54 -62.5t-49.5 -24.5q-19 0 -37 8.5t-32 23t-22 34.5t-8 43q0 30 10 66.5t27 73t38.5 70t45.5 57.5q15 15 36 23.5t41 8.5q23 0 41.5 -8.5t32.5 -22t24.5 -30.5t17.5 -33h9l32 88h34l-55 -165l-30 -213q6 -3 15 -6
q8 -2 18.5 -4.5t24.5 -2.5q43 0 77 22t58 56.5t36.5 77.5t12.5 86q0 70 -27.5 126.5t-74 96t-107.5 61t-127 21.5q-75 0 -140 -29.5t-114 -80t-77 -116t-28 -137.5t24.5 -135.5t69 -110t106 -73.5t135.5 -27q29 0 59.5 5.5t62.5 16.5l7 -27q-35 -11 -67 -17t-69 -6
q-78 0 -144 28.5t-114 78t-74.5 117t-26.5 144.5q0 81 30.5 153t84 126t125.5 85.5t155 31.5q71 0 136.5 -23.5t116 -66t80.5 -103t30 -135.5q0 -46 -14.5 -95t-42 -88.5t-68 -65t-93.5 -25.5q-19 0 -37.5 3.5t-32.5 9t-22 11.5t-7 10zM518 345q-7 13 -17.5 28t-23.5 28.5
t-28.5 22.5t-31.5 9q-34 0 -59 -25q-16 -16 -33 -46t-31 -64.5t-23 -68t-9 -57.5q0 -25 6.5 -41.5t16 -26.5t21 -14.5t21.5 -4.5q14 0 34.5 19t44.5 52t51 77.5t54 94.5z" />
    <glyph glyph-name="A" unicode="A" horiz-adv-x="546" 
d="M323 0l3 31l77 6q3 0 5.5 2t1.5 5l-35 185h-224l-81 -182q-3 -7 2 -7l76 -9l3 -31h-203l3 31l68 7q5 0 8 7l250 552v20l73 20l114 -591q1 -3 2 -5t6 -3l68 -7l3 -31h-220zM310 576h-5l-137 -309h200z" />
    <glyph glyph-name="B" unicode="B" horiz-adv-x="557" 
d="M506 173q0 -36 -13 -64t-32 -47t-43.5 -31t-53 -19t-58.5 -9.5t-60 -2.5h-228l3 31l78 8q5 0 6 6l70 535q1 6 -4 6l-76 8l-3 31h236q39 0 75.5 -8t64 -25.5t44.5 -44t17 -64.5q0 -61 -47 -105.5t-134 -56.5v-2q78 -14 118 -54.5t40 -91.5zM476 473q0 62 -45.5 90.5
t-119.5 28.5h-81l-34 -256l77 1q42 0 79 8.5t64.5 25t43.5 42t16 60.5zM453 172q0 35 -15 60.5t-41 41.5t-61 23.5t-75 7.5h-69l-34 -263q8 -1 21 -2.5t26.5 -3.5t25.5 -3.5t19 -1.5q11 0 21 0.5t21 0.5q32 1 61.5 9.5t51.5 25.5t35 43t13 62z" />
    <glyph glyph-name="C" unicode="C" horiz-adv-x="600" 
d="M491 -2l-33 11q-35 -9 -70.5 -16t-71.5 -7q-60 0 -109 18t-84 51.5t-54 82t-19 109.5q0 82 28 159t84 133q46 46 106.5 73t134.5 27q33 0 63 -4t60 -12l70 17l-26 -197h-32l-5 134q-32 14 -66.5 22t-67.5 8q-69 0 -123 -31.5t-91.5 -82.5t-57.5 -114.5t-20 -126.5
q0 -56 16 -101.5t48 -77.5q26 -26 63.5 -40.5t86.5 -14.5q35 0 67 8t63 21l56 131h34z" />
    <glyph glyph-name="D" unicode="D" horiz-adv-x="629" 
d="M603 341q0 -69 -24.5 -129.5t-70.5 -106.5q-28 -28 -62 -48t-71 -32.5t-75 -18.5t-75 -6h-207l3 31l78 8q5 0 6 6l70 535q1 6 -4 6l-76 8l-3 31h216q64 0 118 -18.5t93.5 -54.5t61.5 -89t22 -122zM545 338q0 63 -18.5 111t-51.5 80t-80 48.5t-104 16.5h-61l-72 -551
l83 -11q62 3 117 23.5t96.5 58.5t66 93.5t24.5 130.5z" />
    <glyph glyph-name="E" unicode="E" horiz-adv-x="564" 
d="M471 0h-453l3 31l78 8q5 0 6 6l70 535q1 6 -4 6l-76 8l-3 31h460l-22 -169h-31l-4 109q0 9 -5 14.5t-26 8.5t-65 4t-123 1h-46l-34 -257h64q38 0 58.5 0.5t31 2t13.5 4t5 7.5l30 66h24l-44 -193h-24l3 65q0 5 -1.5 8t-11 4.5t-30.5 2.5t-59 1h-63l-36 -272h23q90 0 140 1
t74.5 4t31.5 8.5t10 14.5l40 107h36z" />
    <glyph glyph-name="F" unicode="F" horiz-adv-x="522" 
d="M494 456l-4 109q0 9 -5 14.5t-26 8.5t-65 4t-123 1h-41l-35 -263h59q38 0 58.5 0.5t31 2t13.5 4t5 7.5l31 66h24l-45 -193h-24l3 65q0 5 -1.5 8t-11 4.5t-30.5 2.5t-59 1h-58l-33 -253q-1 -6 4 -6l95 -8l3 -31h-242l3 31l78 8q5 0 6 6l70 535q1 6 -4 6l-76 8l-3 31h455
l-22 -169h-31z" />
    <glyph glyph-name="G" unicode="G" horiz-adv-x="636" 
d="M605 241l-78 -8q-5 0 -6 -6l-23 -172l51 -7l3 -24q-53 -16 -112.5 -27t-119.5 -11t-109.5 18t-85 51.5t-55.5 82t-20 109.5q0 82 28 159t84 133q46 46 106.5 73t134.5 27q28 0 55.5 -4t57.5 -12l70 17l-26 -197h-31l-5 134q-29 14 -61.5 22t-63.5 8q-65 0 -119 -30.5
t-92.5 -80.5t-59.5 -114t-21 -130q0 -113 64 -177q26 -26 67 -41.5t87 -15.5q32 0 66 7t57 15l24 187q1 6 -4 6l-88 8l-3 31h231z" />
    <glyph glyph-name="H" unicode="H" horiz-adv-x="707" 
d="M412 0l3 31l78 8q5 0 6 6l34 258h-341l-34 -258q-1 -6 4 -6l76 -8l3 -31h-223l3 31l78 8q5 0 6 6l70 535q1 6 -4 6l-76 8l-3 31h223l-3 -31l-78 -8q-5 0 -6 -6l-31 -239h341l31 239q1 6 -4 6l-76 8l-3 31h223l-3 -31l-78 -8q-5 0 -6 -6l-70 -535q-1 -6 4 -6l76 -8l3 -31
h-223z" />
    <glyph glyph-name="I" unicode="I" horiz-adv-x="330" 
d="M27 0l3 31l78 8q5 0 6 6l70 535q1 6 -4 6l-76 8l-3 31h223l-3 -31l-78 -8q-5 0 -6 -6l-70 -535q-1 -6 4 -6l76 -8l3 -31h-223z" />
    <glyph glyph-name="J" unicode="J" horiz-adv-x="352" 
d="M369 594l-78 -8q-5 0 -6 -6l-49 -370q-6 -49 -21.5 -90.5t-39 -71.5t-56 -46.5t-73.5 -16.5q-39 0 -60.5 18.5t-18.5 43.5q2 19 14 28.5t27 8.5q26 -2 38.5 -21.5t17.5 -45.5h1q53 8 80 55.5t38 134.5l49 373q1 6 -4 6l-84 8l-3 31h231z" />
    <glyph glyph-name="K" unicode="K" horiz-adv-x="619" 
d="M395 0l4 31l52 6q2 0 4 3t0 5l-157 288l-116 -103l-24 -185q-1 -6 4 -6l76 -8l3 -31h-223l3 31l78 8q5 0 6 6l70 535q1 6 -4 6l-76 8l-3 31h223l-3 -31l-78 -8q-5 0 -6 -6l-38 -295l323 297l1 2l-1 2l-71 8l-3 31h210l-3 -31l-62 -7q-3 0 -7.5 -3t-6.5 -5l-237 -214
l179 -320q2 -2 6 -4t9 -3l51 -7l3 -31h-186z" />
    <glyph glyph-name="L" unicode="L" horiz-adv-x="528" 
d="M443 0h-425l3 31l78 8q5 0 6 6l70 535q1 6 -4 6l-76 8l-3 31h235l-3 -31l-90 -8q-5 0 -6 -6l-72 -546h1q90 0 139 0.5t73 3.5t29.5 8t8.5 14l48 136h35z" />
    <glyph glyph-name="M" unicode="M" horiz-adv-x="774" 
d="M505 0l4 31l86 8q5 0 5 6l53 533h-5l-283 -558h-29l-116 559h-5l-90 -534q-1 -6 3 -6l87 -8l3 -31h-234l3 31l91 8q6 0 7 6l90 535q1 6 -4 6l-87 8l-3 31h181l102 -520h5l259 520h166l-3 -31l-83 -8q-5 0 -5 -6l-52 -535q0 -6 5 -6l76 -8l3 -31h-230z" />
    <glyph glyph-name="N" unicode="N" horiz-adv-x="664" 
d="M715 594l-91 -8q-5 0 -6 -6l-77 -585h-41l-284 583h-3l-68 -533q-1 -6 4 -6l86 -8l3 -31h-233l3 31l91 8q5 0 6 6l69 528q1 5 -4 6l-77 15l-3 31h157l265 -546h2l64 501q1 6 -4 6l-86 8l-3 31h233z" />
    <glyph glyph-name="O" unicode="O" horiz-adv-x="673" 
d="M647 343q0 -72 -25.5 -139.5t-73.5 -119.5q-42 -45 -97.5 -72.5t-122.5 -27.5q-61 0 -112 24t-88 64.5t-57 94.5t-20 113q0 66 21.5 128.5t62.5 113.5q42 53 101.5 85t132.5 32q62 0 113 -24t87.5 -64.5t57 -94.5t20.5 -113zM585 346q0 59 -17.5 111.5t-54.5 89.5
q-28 28 -65 43.5t-85 15.5q-63 0 -110 -31t-78 -79t-46.5 -106t-15.5 -113q0 -60 19 -113.5t56 -90.5q56 -56 147 -56q63 0 110 31t78 79t46.5 106t15.5 113z" />
    <glyph glyph-name="P" unicode="P" horiz-adv-x="519" 
d="M527 454q0 -46 -18.5 -83t-51 -63.5t-75.5 -40.5t-93 -14q-32 0 -57 2t-46 4l-28 -214q-1 -6 4 -6l94 -8l3 -31h-241l3 31l78 8q5 0 6 6l70 535q1 6 -4 6l-76 8l-3 31h207q50 0 92 -11t72 -33t47 -53.5t17 -73.5zM468 450q0 38 -13 65t-36 44.5t-55 26t-71 8.5
q-15 0 -31.5 -1t-32.5 -3l-38 -297q18 -3 42.5 -5.5t53.5 -2.5q39 0 72 10.5t57 31t38 51.5t14 72z" />
    <glyph glyph-name="Q" unicode="Q" horiz-adv-x="673" 
d="M623 -186q-27 -4 -49 -5.5t-49 -1.5q-42 0 -76.5 6t-65 25.5t-58.5 55.5t-57 96q-49 11 -89 35.5t-68.5 61t-44 85.5t-15.5 108q0 66 21.5 128.5t62.5 113.5q42 53 101.5 85t132.5 32q62 0 113 -24t87.5 -64.5t57 -94.5t20.5 -113q0 -72 -25.5 -139.5t-73.5 -119.5
q-42 -45 -100.5 -72.5t-117.5 -27.5q20 -48 45 -77.5t59 -45.5t80 -19t108 3v-16q0 -7 1 -15zM585 346q0 59 -17.5 111.5t-54.5 89.5q-28 28 -65 43.5t-85 15.5q-63 0 -110 -31t-78 -79t-46.5 -106t-15.5 -113q0 -60 19 -113.5t56 -90.5q56 -56 147 -56q63 0 110 31t78 79
t46.5 106t15.5 113z" />
    <glyph glyph-name="R" unicode="R" horiz-adv-x="561" 
d="M423 0l-31 69l-99 204l-105 2l-30 -230q-1 -6 4 -6l76 -8l3 -31h-223l3 31l78 8q5 0 6 6l70 535q1 6 -4 6l-76 8l-3 31h241q49 0 85.5 -12t61 -32t36.5 -47.5t12 -57.5q0 -75 -49 -126t-135 -74l120 -231q2 -5 8 -6l62 -8l3 -31h-114zM470 464q0 29 -11.5 54t-34 42.5
t-56 26.5t-77.5 7l-62 -4l-37 -277l121 -13q33 6 62 20t50 35t33 48.5t12 60.5z" />
    <glyph glyph-name="S" unicode="S" horiz-adv-x="474" 
d="M419 163q0 -49 -19.5 -83t-51.5 -55t-72.5 -30.5t-83.5 -9.5q-42 0 -85 5t-84 16l6 173h33l18 -140q25 -11 59 -16t61 -5q31 0 62 6.5t55.5 22t40 40.5t15.5 61q0 30 -12 52t-31.5 40t-44.5 32.5t-52 28.5q-28 15 -55 31.5t-48.5 37.5t-34.5 47.5t-13 62.5q0 45 20 75.5
t52 49t71 26.5t77 8q28 0 56 -2t55 -8l55 15l-25 -191h-34l-4 127q-22 14 -54.5 20.5t-58.5 6.5q-28 0 -56.5 -5.5t-51.5 -19t-37.5 -35.5t-14.5 -55q0 -30 12 -53t31.5 -41t44.5 -32.5t52 -29.5t53.5 -31t47 -36.5t33.5 -46t13 -59.5z" />
    <glyph glyph-name="T" unicode="T" horiz-adv-x="599" 
d="M558 441l-2 124q0 9 -2.5 14.5t-18 8.5t-49 4t-94.5 1h-19l-72 -548q-1 -6 4 -6l86 -8l3 -31h-243l3 31l88 8q5 0 6 6l72 548h-19q-61 0 -93.5 -1t-48.5 -4t-20 -8.5t-7 -14.5l-42 -122h-36l42 182h516l-24 -184h-30z" />
    <glyph glyph-name="U" unicode="U" horiz-adv-x="706" 
d="M720 594l-91 -8q-5 0 -6 -6l-50 -380q-7 -54 -28.5 -94.5t-53.5 -67t-74 -40t-91 -13.5q-48 0 -88 12t-69 35.5t-45 58t-16 80.5q0 19 2 41t5 43l43 325q1 6 -4 6l-76 8l-3 31h223l-3 -31l-78 -8q-5 0 -6 -6l-45 -345q-2 -11 -3.5 -25t-1.5 -29q0 -75 45.5 -116.5
t131.5 -41.5q37 0 70 11t59 33.5t43.5 56.5t23.5 80l49 376q1 6 -4 6l-86 8l-3 31h233z" />
    <glyph glyph-name="V" unicode="V" horiz-adv-x="560" 
d="M626 594l-68 -7q-5 0 -8 -7l-266 -584h-55l-113 583q-1 3 -2 5t-6 3l-68 7l-3 31h218l-3 -31l-77 -6q-3 0 -5.5 -2t-1.5 -5l98 -532h2l235 529q4 7 -2 7l-76 9l-3 31h207z" />
    <glyph glyph-name="W" unicode="W" horiz-adv-x="841" 
d="M916 594l-68 -7q-4 0 -8 -7l-272 -584h-52l-66 453h-2l-195 -453h-56l-99 583q-2 7 -7 8l-67 7l-3 31h217l-3 -31l-76 -6q-3 0 -6 -2t-2 -5l82 -531h3l200 475l-8 54q-1 3 -2 5t-6 3l-69 7l-3 31h217l-3 -31l-78 -6q-3 0 -5.5 -2t-1.5 -5l73 -531h1l241 528q4 7 -2 7
l-76 9l-3 31h208z" />
    <glyph glyph-name="X" unicode="X" horiz-adv-x="605" 
d="M365 0l3 31l72 6q4 0 5.5 3.5t-0.5 5.5l-135 246h-2l-199 -245q-2 -2 -1 -4.5t3 -2.5l71 -9l3 -31h-212l3 31l67 7q4 1 6.5 2t5.5 5l232 274l-147 260q-4 7 -11 8l-61 7l-3 31h213l-3 -31l-73 -6q-4 0 -5.5 -3.5t0.5 -5.5l124 -226h2l184 227q2 2 1 4.5t-3 2.5l-73 7
l-3 31h212l-3 -31l-66 -7q-4 -1 -6.5 -2t-5.5 -5l-216 -255l161 -279q4 -7 11 -8l62 -7l3 -31h-216z" />
    <glyph glyph-name="Y" unicode="Y" horiz-adv-x="588" 
d="M644 594l-67 -7q-8 -2 -12 -7l-234 -313l-30 -222q-1 -6 5 -6l85 -8l3 -31h-243l3 31l89 8q4 0 5 6l29 220l-157 314q-4 7 -11 8l-61 7l-3 31h210l-3 -31l-72 -6q-9 0 -5 -9l134 -280h2l207 281q2 2 1 4.5t-3 2.5l-71 7l-3 31h205z" />
    <glyph glyph-name="Z" unicode="Z" horiz-adv-x="504" 
d="M442 0h-453l3 28l480 563v2h-109q-79 0 -123.5 -1t-66.5 -4t-28 -8.5t-9 -14.5l-32 -109h-34l22 169h450l-4 -30l-476 -561l-1 -2h87q90 0 140.5 1t75.5 4t32 8.5t10 14.5l44 124h37z" />
    <glyph glyph-name="bracketleft" unicode="[" horiz-adv-x="368" 
d="M98 -215v865h246v-36h-203v-793h203v-36h-246z" />
    <glyph glyph-name="backslash" unicode="\" horiz-adv-x="279" 
d="M226 -209l-213 869h40l213 -869h-40z" />
    <glyph glyph-name="bracketright" unicode="]" horiz-adv-x="368" 
d="M24 -179h203v793h-203v36h246v-865h-246v36z" />
    <glyph glyph-name="asciicircum" unicode="^" 
d="M354 505q-27 40 -48 71q-9 13 -17.5 25.5t-15 22.5t-11.5 16l-4 6h-2l-134 -141h-23l120 177h82l72 -177h-19z" />
    <glyph glyph-name="underscore" unicode="_" horiz-adv-x="470" 
d="M-35 -49l3 45h474l3 -45h-480z" />
    <glyph glyph-name="grave" unicode="`" horiz-adv-x="399" 
d="M266 505l-134 177h80l77 -177h-23z" />
    <glyph glyph-name="a" unicode="a" horiz-adv-x="471" 
d="M354 368l22 91h40l-47 -200l-53 -228l32 -7l81 81l16 -18q-8 -12 -22.5 -30t-30.5 -34t-31.5 -27.5t-27.5 -11.5q-7 0 -18 3.5t-21 8.5t-17 11t-7 11q0 4 5 23.5t13 49.5t19 68.5t24 80.5h-10q-8 -12 -22.5 -35.5t-32.5 -52t-38.5 -58.5t-41.5 -54.5t-41 -40t-38 -15.5
q-22 0 -37.5 12t-25.5 32t-14.5 45.5t-4.5 52.5q0 33 8 72.5t23 78t35 73t44 58.5q20 20 49 36t51 16q23 0 40.5 -11t31 -26t23 -30.5t15.5 -24.5h9zM342 331q-10 12 -24.5 27t-31.5 28.5t-35.5 22.5t-35.5 9q-14 0 -27.5 -7.5t-26.5 -20.5q-18 -18 -34 -49t-27.5 -67
t-18.5 -72t-7 -64q0 -54 11 -84t33 -30q17 0 39 23t49.5 61t59.5 88t67 104z" />
    <glyph glyph-name="b" unicode="b" horiz-adv-x="444" 
d="M417 325q0 -33 -8.5 -73t-23.5 -79.5t-35 -74.5t-42 -57q-57 -57 -123 -57q-25 0 -50.5 8.5t-45.5 20.5t-32.5 25t-10.5 21l127 570q3 13 -10 15l-83 7l3 25l153 21l-56 -234l-73 -281h10q8 15 23 42t33.5 58t39.5 62.5t42 57t41 42t36 16.5q22 0 38 -12t26.5 -31.5
t15.5 -43.5t5 -48zM368 314q0 40 -14 71t-40 34q-12 0 -32.5 -23.5t-48 -65t-61 -97.5t-70.5 -121l-11 -45q9 -9 22 -18.5t28 -17.5t30.5 -13t28.5 -5q18 0 38 11t39 30q18 18 34.5 49.5t29 68t20 74t7.5 68.5z" />
    <glyph glyph-name="c" unicode="c" horiz-adv-x="351" 
d="M296 404q-5 7 -28.5 17.5t-49.5 10.5q-6 0 -19.5 -9t-23.5 -19q-16 -16 -32.5 -43.5t-30.5 -61.5t-23 -72t-9 -75q0 -35 9 -60t23 -40.5t30.5 -23t32.5 -7.5q11 0 26.5 7t32.5 18.5t34 25.5t30 27l16 -18q-15 -17 -35 -34t-41.5 -31t-42.5 -23t-38 -9q-27 0 -50 11.5
t-40 32t-26.5 49t-9.5 61.5q0 66 19.5 124t51.5 102t72.5 69.5t82.5 25.5q18 0 36 -3.5t33 -11t24.5 -19.5t9.5 -29q0 -19 -10 -31t-29 -12q-14 0 -23 7.5t-9 21.5q0 10 7 22z" />
    <glyph glyph-name="d" unicode="d" horiz-adv-x="471" 
d="M445 87q-8 -12 -22.5 -30t-30.5 -34t-31.5 -27.5t-27.5 -11.5q-7 0 -18 3.5t-21 8.5t-17 11t-7 11q0 4 5 23.5t13 49.5t19 68.5t24 80.5h-10q-8 -12 -22.5 -35.5t-32.5 -52t-38.5 -58.5t-41.5 -54.5t-41 -40t-38 -15.5q-22 0 -37.5 12t-25.5 32t-14.5 45.5t-4.5 52.5
q0 33 8 72.5t23 78t35 73t44 58.5q20 20 49 36t51 16q23 0 40.5 -11t31 -26t23 -30.5t15.5 -24.5h9l56 261q3 13 -10 15l-83 7l3 25l153 21l-104 -438l-53 -228l32 -7l81 81zM342 331q-10 12 -24.5 27t-31.5 28.5t-35.5 22.5t-35.5 9q-14 0 -27.5 -7.5t-26.5 -20.5
q-18 -18 -34 -49t-27.5 -67t-18.5 -72t-7 -64q0 -54 11 -84t33 -30q17 0 39 23t49.5 61t59.5 88t67 104z" />
    <glyph glyph-name="e" unicode="e" horiz-adv-x="343" 
d="M81 171q-1 -8 -1 -10v-9q0 -35 9 -60t23 -40.5t30.5 -23t32.5 -7.5q11 0 26.5 7t32.5 18.5t34 25.5t30 27l16 -18q-15 -17 -35 -34t-41.5 -31t-42.5 -23t-38 -9q-27 0 -50 11.5t-40 32t-26.5 49t-9.5 61.5q0 66 20 124t51.5 102t71.5 69.5t80 25.5q24 0 42.5 -7.5t31 -19
t19.5 -25.5t7 -26q0 -21 -9.5 -38t-38.5 -38.5t-82.5 -53t-142.5 -80.5zM85 201l1 -1q63 35 104.5 59.5t66 43.5t34.5 35t10 35q0 25 -17 42t-42 17q-21 0 -40 -12t-33 -26q-10 -10 -22.5 -29.5t-24.5 -45t-22 -55.5t-16 -62z" />
    <glyph glyph-name="f" unicode="f" horiz-adv-x="273" 
d="M384 641q0 -17 -9 -28.5t-23 -11.5q-19 0 -30 13.5t-13 36.5l-81 -28q-17 -31 -30 -77t-21 -98h131l3 -37h-139l-64 -383q-14 -87 -31.5 -143t-49.5 -88q-43 -43 -89 -43q-24 0 -40 15t-16 33q0 16 10 26.5t24 10.5q19 0 30.5 -14t13.5 -36l69 50q11 24 21 73t19 105
l63 393l-87 3l2 27l92 14q24 133 76 188q20 22 49.5 34.5t54.5 12.5q28 0 46.5 -14t18.5 -34z" />
    <glyph glyph-name="g" unicode="g" horiz-adv-x="409" 
d="M302 416v-6q24 -23 39.5 -47t15.5 -58q0 -35 -15.5 -67t-40 -57t-55 -39.5t-60.5 -14.5q-17 0 -35 4t-32 12q-53 -22 -53 -58q0 -24 21.5 -39.5t72.5 -31.5l58 -18q63 -20 97 -46.5t34 -66.5q0 -27 -16.5 -51t-46 -41t-70.5 -27t-91 -10q-33 0 -65 8.5t-57 24.5t-40 39.5
t-15 53.5q0 21 10.5 40t27.5 35t38.5 28.5t43.5 20.5v4q-19 11 -30.5 28t-11.5 38q0 15 6.5 27t17 21.5t24 17t26.5 13.5v3q-20 17 -34.5 44.5t-14.5 68.5q0 35 14 69t39.5 61t60 43.5t76.5 16.5q31 0 58 -5.5t50 -12.5h106l-17 -47zM315 332q0 20 -12 37t-29.5 29.5t-37 20
t-34.5 7.5q-27 0 -56 -29q-20 -20 -34.5 -55t-14.5 -71q0 -30 7.5 -55t27.5 -45q5 -5 16 -11.5t24 -6.5q24 0 47.5 9t42.5 28q26 26 39.5 63.5t13.5 78.5zM305 -128q0 30 -22.5 47.5t-59.5 31.5q-27 10 -60 19.5t-68 22.5q-18 -8 -36.5 -18.5t-33.5 -23.5t-24.5 -29.5
t-9.5 -35.5q0 -24 11.5 -42.5t32.5 -31t50 -19.5t63 -7q35 0 63.5 7t49.5 19t32.5 27.5t11.5 32.5z" />
    <glyph glyph-name="h" unicode="h" horiz-adv-x="485" 
d="M453 87q-8 -12 -22.5 -30t-30.5 -34t-31.5 -27.5t-27.5 -11.5q-7 0 -17.5 3.5t-19.5 8.5t-15.5 11t-6.5 11q0 11 5 31.5t13 47.5t17.5 59t19.5 66q17 58 29 99.5t12 53.5q0 19 -17.5 33t-35.5 14q-11 0 -35.5 -31t-56 -80.5t-66 -110t-66.5 -120.5l-13 -84l-53 5l31 147
l107 481q3 13 -10 15l-83 7l3 25l153 21l-56 -234l-72 -305h10q21 42 46 84.5t49 79.5t44 65.5t31 41.5q6 8 18.5 19t29.5 11q16 0 31.5 -5.5t28 -15.5t20 -23.5t7.5 -28.5q0 -8 -4 -26.5t-11 -43t-14.5 -52t-15.5 -52.5q-17 -57 -31 -104.5t-23 -76.5l32 -7l81 81z" />
    <glyph glyph-name="i" unicode="i" horiz-adv-x="260" 
d="M267 615q0 -23 -12.5 -38.5t-29.5 -15.5q-20 0 -30.5 12t-10.5 30q0 23 13 38.5t29 15.5q20 0 30.5 -12t10.5 -30zM228 87q-8 -12 -22.5 -30t-30.5 -34t-31.5 -27.5t-27.5 -11.5q-7 0 -18 3.5t-20.5 8.5t-16 11t-5.5 11l109 394l-32 7l-81 -81l-16 18q8 12 22.5 30
t30.5 34t31.5 27.5t27.5 11.5q8 0 19.5 -3.5t22 -8.5t17.5 -11t5 -11l-113 -394l32 -7l81 81z" />
    <glyph glyph-name="j" unicode="j" horiz-adv-x="224" 
d="M251 615q0 -23 -12.5 -38.5t-29.5 -15.5q-20 0 -30.5 12t-10.5 30q0 23 13 38.5t29 15.5q20 0 30.5 -12t10.5 -30zM93 -28q-34 -146 -88 -199q-33 -34 -75 -34q-23 0 -39 12.5t-17 29.5q-1 16 9.5 28t29.5 12t28.5 -10t13.5 -24l33 6q17 25 35 72t30 101l102 446l-32 7
l-81 -81l-16 18q8 12 22.5 30t30.5 34t31.5 27.5t27.5 11.5q8 0 19 -3.5t21.5 -8.5t17.5 -11t6 -11z" />
    <glyph glyph-name="k" unicode="k" horiz-adv-x="419" 
d="M390 89q-8 -12 -20.5 -30t-27 -34.5t-28.5 -28.5t-26 -12q-6 0 -15 3.5t-17.5 8.5t-15 11t-8.5 11l-67 218l-45 -23l-42 -218l-50 5l38 146l107 483q3 13 -10 15l-83 7l3 25l153 21l-56 -234l-58 -222h4l188 112l29 26q-31 16 -31 42q0 17 12.5 27.5t29.5 10.5
q20 0 31.5 -14.5t11.5 -32.5q0 -28 -20.5 -51.5t-75.5 -52.5l-100 -53l75 -234h20l78 86z" />
    <glyph glyph-name="l" unicode="l" horiz-adv-x="234" 
d="M202 87q-8 -12 -22.5 -30t-30.5 -34t-31.5 -27.5t-27.5 -11.5q-7 0 -18 3.5t-20.5 8.5t-15.5 11t-5 11l151 611q3 13 -10 15l-83 7l3 25l149 21l-172 -666l32 -7l85 81z" />
    <glyph glyph-name="m" unicode="m" horiz-adv-x="759" 
d="M727 87q-8 -12 -22.5 -30t-30.5 -34t-31.5 -27.5t-27.5 -11.5q-7 0 -17.5 3.5t-19.5 8.5t-15.5 11t-6.5 11q0 6 5 26t13 48.5t17.5 62t19.5 67.5q17 58 30 99t13 53q0 19 -17.5 33.5t-35.5 14.5q-11 0 -36 -31t-56.5 -80.5t-66.5 -110t-67 -120.5l-18 -84l-53 5l60 221
q6 23 13 47l13 46q6 21 9.5 37t3.5 22q0 19 -17.5 33.5t-35.5 14.5q-11 0 -35 -31t-54 -80.5t-64 -110t-66 -120.5l-13 -84l-53 5l31 147l63 264l-32 7l-85 -81l-16 18q8 12 22.5 30t30.5 34t31.5 27.5t27.5 11.5q8 0 18.5 -3.5t20.5 -8.5t17 -11t7 -11q0 -8 -17 -77
t-46 -190h10q21 42 45.5 84.5t47 79.5t42 65.5t30.5 41.5q6 8 18.5 19t29.5 11q16 0 31 -5.5t27 -15.5t19.5 -23.5t7.5 -28.5q0 -16 -18 -77.5t-46 -150.5h10q21 42 46.5 84.5t49.5 79.5t44.5 65.5t31.5 41.5q6 8 18.5 19t29.5 11q16 0 31 -5.5t27 -15.5t19.5 -23.5
t7.5 -28.5q0 -8 -4 -26.5t-11 -43t-14.5 -52t-15.5 -52.5q-8 -28 -17.5 -60t-17.5 -59q-10 -32 -19 -62l32 -7l81 81z" />
    <glyph glyph-name="n" unicode="n" horiz-adv-x="515" 
d="M483 87q-8 -12 -22.5 -30t-30.5 -34t-31.5 -27.5t-27.5 -11.5q-7 0 -17.5 3.5t-19.5 8.5t-15.5 11t-6.5 11q0 11 5 31.5t13 47.5t17.5 59t19.5 66q17 58 29 99.5t12 53.5q0 19 -17.5 33t-35.5 14q-11 0 -35.5 -31t-56 -80.5t-66 -110t-66.5 -120.5l-13 -84l-53 5l31 147
l59 264l-32 7l-81 -81l-16 18q8 12 22.5 30t30.5 34t31.5 27.5t27.5 11.5q8 0 18.5 -3.5t20.5 -8.5t17 -11t7 -11q0 -8 -17 -77t-46 -190h10q22 42 47 84.5t48.5 79.5t43.5 65.5t31 41.5q6 8 18.5 19t29.5 11q16 0 31.5 -5.5t28 -15.5t20 -23.5t7.5 -28.5q0 -8 -4 -26.5
t-11 -43t-14.5 -52t-15.5 -52.5q-17 -57 -31 -104.5t-23 -76.5l32 -7l81 81z" />
    <glyph glyph-name="o" unicode="o" horiz-adv-x="429" 
d="M393 273q0 -45 -15 -95.5t-43 -93.5t-69 -71.5t-92 -28.5q-37 0 -64 17t-43.5 43.5t-24.5 59.5t-8 65q0 45 15 95.5t43 94t69 72t92 28.5q38 0 64.5 -17t43 -44t24.5 -60t8 -65zM344 283q0 27 -5 53.5t-16.5 47.5t-30.5 33.5t-47 12.5q-27 0 -50 -15t-41.5 -39t-32 -54.5
t-22.5 -61.5q-8 -29 -12 -55t-4 -46q0 -27 5 -53.5t16.5 -47t30.5 -33t47 -12.5t51 15t41 39t31.5 54.5t22.5 61.5q8 28 12 54t4 46z" />
    <glyph glyph-name="p" unicode="p" horiz-adv-x="474" 
d="M110 16l-45 -218q0 -2 0.5 -5t2.5 -1l91 -7l2 -31h-232l2 31l80 7q2 -2 4 0.5t3 5.5l137 614l-32 7l-81 -81l-16 18q8 12 22.5 30t30.5 34t31.5 27.5t27.5 11.5q8 0 18.5 -3.5t20.5 -8.5t17 -11t7 -11q0 -4 -7 -30.5t-17 -63t-21.5 -77t-19.5 -72.5h11q8 15 23 42
t33.5 58t39.5 62.5t42 57t41 42t36 16.5q22 0 38 -12t26.5 -31.5t15.5 -43.5t5 -48q0 -33 -8.5 -73t-23.5 -79.5t-35 -74.5t-42 -57q-57 -57 -123 -57q-30 0 -56 9.5t-46 22.5h-3zM121 67q9 -9 22 -18.5t28 -17.5t30.5 -13t28.5 -5q18 0 38 11t39 30q18 18 34.5 49.5t29 68
t20 74t7.5 68.5q0 40 -14 71t-40 34q-12 0 -32.5 -23.5t-48 -65t-61 -97.5t-70.5 -121z" />
    <glyph glyph-name="q" unicode="q" horiz-adv-x="434" 
d="M321 240q-8 -12 -22.5 -35.5t-32.5 -52t-38.5 -58.5t-41.5 -54.5t-41 -40t-38 -15.5q-22 0 -37.5 12t-25.5 32t-14.5 45.5t-4.5 52.5q0 33 8 72.5t23 78t35 73t44 58.5q20 20 49 36t51 16q23 0 40.5 -11t31 -26t23 -30.5t15.5 -24.5h9l18 79l40 -5l-43 -183l-102 -461
q0 -6 3 -6l81 -7l2 -31h-231l2 31l90 7q2 -2 4 0.5t3 5.5l50 220q7 33 17 69q8 31 19 71t24 82h-10zM342 331q-10 12 -24.5 27t-31.5 28.5t-35.5 22.5t-35.5 9q-14 0 -27.5 -7.5t-26.5 -20.5q-18 -18 -34 -49t-27.5 -67t-18.5 -72t-7 -64q0 -54 11 -84t33 -30q17 0 39 23
t49.5 61t59.5 88t67 104z" />
    <glyph glyph-name="r" unicode="r" horiz-adv-x="393" 
d="M327 415l-194 -325l-15 -94l-53 5l31 146l59 265l-32 7l-81 -81l-16 18q8 12 22.5 30t30.5 34t31.5 27.5t27.5 11.5q8 0 18.5 -3.5t20.5 -8.5t17 -11t7 -11q0 -8 -17 -77t-46 -190h10l85 158q23 43 38.5 70.5t28.5 43.5t26.5 22.5t32.5 6.5q26 0 42.5 -20.5t16.5 -41.5
q0 -18 -10 -30.5t-29 -12.5q-7 0 -14.5 3t-12 9.5t-5 16t6.5 22.5z" />
    <glyph glyph-name="s" unicode="s" horiz-adv-x="323" 
d="M319 396q0 -19 -10 -31t-29 -12q-14 0 -23 10t-9 24q0 6 0.5 13t1.5 12q-23 8 -44.5 12t-44.5 5q-33 -10 -47.5 -30.5t-14.5 -50.5q0 -14 4 -25.5t13.5 -23.5t25.5 -26l40 -35q34 -29 61.5 -61t27.5 -68q0 -25 -11.5 -47.5t-32.5 -39.5t-50.5 -27.5t-65.5 -10.5
q-50 0 -80 17.5t-30 46.5q0 18 10.5 30t28.5 12q14 0 24 -10t10 -24q0 -5 -1 -12.5t-2 -9.5q20 -9 44 -13t53 -6q32 14 46.5 36t14.5 52q0 29 -22.5 53t-60.5 57q-16 14 -32 29t-29 31t-20.5 32.5t-7.5 34.5q0 29 13.5 51t35 37t49.5 23t57 8q17 0 35.5 -3t34.5 -10
t26.5 -19t10.5 -31z" />
    <glyph glyph-name="t" unicode="t" horiz-adv-x="278" 
d="M165 584h40l-27 -136h118l3 -37h-129l-78 -380l32 -7l83 81l16 -18q-9 -12 -23.5 -30t-30.5 -34t-32 -27.5t-28 -11.5q-7 0 -17.5 3.5t-19.5 8.5t-15 11t-5 11l78 392l-85 3l2 27l93 14z" />
    <glyph glyph-name="u" unicode="u" horiz-adv-x="515" 
d="M32 356q8 12 22.5 30t30.5 34t31.5 27.5t27.5 11.5q8 0 18 -3.5t19 -8.5t15.5 -11t6.5 -11q0 -11 -5 -31.5t-13 -47.5t-17.5 -59t-19.5 -66q-17 -58 -29 -99t-12 -53q0 -19 17.5 -33.5t35.5 -14.5q11 0 35.5 31t56 80.5t66 110t66.5 120.5l18 84l53 -5l-36 -147l-59 -264
l32 -7l81 81l16 -18q-8 -12 -22.5 -30t-30.5 -34t-31.5 -27.5t-27.5 -11.5q-7 0 -18 3.5t-21 8.5t-17 11t-7 11q0 8 17 77t46 190h-10q-21 -42 -46 -84.5t-49 -79.5t-44 -65t-31 -42q-6 -8 -21 -19t-38 -11q-32 0 -54 21t-22 52q0 8 4 26.5t11 43t15 52t15 52.5
q17 57 31 104.5t23 76.5l-32 7l-81 -81z" />
    <glyph glyph-name="v" unicode="v" horiz-adv-x="417" 
d="M176 -9l-40 -6l-7 420l-30 6l-78 -79l-17 17q8 13 21 31.5t28.5 36t30.5 30t27 12.5q8 0 18 -5t20 -11.5t16.5 -14t6.5 -13.5l3 -378h5l120 195q31 50 47.5 87t15.5 57q-1 24 -16.5 34t-35.5 14q8 14 17 24.5t31 10.5t38 -16t17 -42q1 -13 -5 -32t-20 -46.5t-37.5 -65.5
t-57.5 -89z" />
    <glyph glyph-name="w" unicode="w" horiz-adv-x="656" 
d="M360 335l-181 -344l-42 -6l-8 420l-30 6l-78 -79l-17 17q8 13 21 31.5t28.5 36t30.5 30t27 12.5q8 0 18 -5t20 -11.5t16.5 -14t6.5 -13.5l2 -378h5l178 354l-2 56l24 -2l24 -2l16 -406h7l106 195q28 50 41.5 86.5t12.5 56.5q-1 24 -16.5 34t-35.5 14q8 14 17 24.5
t31 10.5t37.5 -15t17.5 -41q2 -13 -3 -32t-18 -47t-34 -66t-53 -89l-106 -177l-42 -6l-18 350h-3z" />
    <glyph glyph-name="x" unicode="x" horiz-adv-x="460" 
d="M468 411q1 -21 -10.5 -34.5t-27.5 -13.5q-39 0 -34 43h-27l-114 -185l61 -197h24l68 79l15 -18q-9 -12 -21 -30t-25.5 -34t-26.5 -27.5t-25 -11.5q-5 0 -13 3.5t-15.5 8.5t-13.5 11t-8 11l-51 189h-3q-32 -63 -57 -106t-45 -68.5t-37.5 -36.5t-34.5 -11q-26 0 -43.5 13
t-17.5 33q0 22 11 35t27 13q19 0 27.5 -14t6.5 -34h27l125 201l-59 186h-24l-68 -79l-16 18q9 12 21.5 30t26 34t26.5 27.5t25 11.5q6 0 14 -3t15.5 -8t13.5 -11t7 -12l50 -183h2q32 62 55 104t41.5 67.5t34.5 36t34 10.5q27 0 42.5 -14t16.5 -34z" />
    <glyph glyph-name="y" unicode="y" horiz-adv-x="429" 
d="M420 407q0 -26 -13 -52t-36 -62l-152 -240l-57 -87q-33 -66 -58 -109t-47.5 -68t-45.5 -35t-52 -10q-30 0 -53 15.5t-23 40.5q0 18 10.5 29.5t26.5 11.5q18 0 30 -15t7 -37l52 -11q2 1 9.5 10.5t18 24.5t23 34t25.5 39q30 46 66 104l-18 5l-4 410l-30 6l-78 -79l-17 17
q8 13 21 31.5t28.5 36t30.5 30t27 12.5q8 0 18 -5t20 -11.5t16.5 -14t6.5 -13.5v-378h8l181 303l12 33q-15 2 -30.5 12t-15.5 32q0 17 12 29.5t29 12.5q23 0 37.5 -14.5t14.5 -37.5z" />
    <glyph glyph-name="z" unicode="z" horiz-adv-x="371" 
d="M294 348q-25 14 -52 28t-51.5 26t-43.5 21.5t-30 13.5l-18 -26q18 -25 18 -40q0 -14 -9.5 -23t-23.5 -9q-18 0 -27.5 10t-9.5 23q0 15 7.5 30t21 27.5t32 20.5t39.5 9q29 0 54.5 -11t46.5 -27t36 -32.5t22 -28.5l7 2l34 97q22 -4 32.5 -10.5t10.5 -20.5q0 -20 -17 -41.5
t-38 -35.5l-257 -242q74 -42 118.5 -70t65.5 -34l22 29q-14 14 -19.5 24.5t-5.5 18.5q0 12 10 21t27 9q16 0 24.5 -9.5t8.5 -23.5q0 -15 -7 -30t-19 -27.5t-28.5 -21.5t-36.5 -11q-26 0 -54 13t-52 31t-42 37t-26 32l-6 -4l-35 -109q-44 9 -44 36q0 23 17 45t39 36z" />
    <glyph glyph-name="braceleft" unicode="{" horiz-adv-x="326" 
d="M298 -228q-89 5 -133 43t-44 104q0 32 9 56.5t20.5 46t20.5 43t9 47.5q0 22 -11.5 36.5t-30 24t-42.5 14.5t-48 6l-10 25l10 24q24 1 48 5.5t42.5 14t30 24.5t11.5 37q0 26 -9 47.5t-20.5 43.5t-20.5 46.5t-9 56.5q0 66 44 103.5t133 43.5v-27q-60 -6 -91.5 -34
t-31.5 -63q0 -26 9 -47.5t20.5 -43.5t20.5 -47t9 -57q0 -25 -12 -46.5t-31 -37.5t-41.5 -26.5t-43.5 -12.5v-10q21 -3 43.5 -13.5t41.5 -26.5t31 -37t12 -46q0 -31 -9 -55.5t-20.5 -46.5t-20.5 -43.5t-9 -46.5q0 -35 31.5 -64.5t91.5 -35.5v-25z" />
    <glyph glyph-name="bar" unicode="|" horiz-adv-x="278" 
d="M119 685h40v-869h-40v869z" />
    <glyph glyph-name="braceright" unicode="}" horiz-adv-x="326" 
d="M278 193q-24 -1 -48 -6t-42.5 -14.5t-30 -24t-11.5 -36.5q0 -26 9 -47.5t20.5 -43t20.5 -46t9 -56.5q0 -66 -44 -104t-133 -43v25q60 6 91.5 35.5t31.5 64.5q0 25 -9 46.5t-20.5 43.5t-20.5 46.5t-9 55.5q0 25 12 46t31 37t41.5 26.5t43.5 13.5v10q-21 2 -43.5 12.5
t-41.5 26.5t-31 37.5t-12 46.5q0 32 9 57t20.5 47t20.5 43.5t9 47.5q0 35 -31.5 63t-91.5 34v27q89 -6 133 -43.5t44 -103.5q0 -32 -9 -56.5t-20.5 -46.5t-20.5 -43.5t-9 -47.5q0 -22 11.5 -37t30 -24.5t42.5 -14t48 -5.5l10 -24z" />
    <glyph glyph-name="asciitilde" unicode="~" 
d="M263 204q10 0 18 2.5t16.5 9.5t16.5 20t18 34h28q-32 -104 -101 -104q-20 0 -38 11t-33.5 24.5t-29.5 24.5t-26 11q-10 0 -18.5 -2.5t-16.5 -9.5t-16 -20t-19 -34h-27q32 104 101 104q20 0 38 -11t34 -24.5t30 -24.5t25 -11z" />
    <glyph glyph-name="exclamdown" unicode="&#xa1;" horiz-adv-x="274" 
d="M134 589q0 20 14 35t37 15t36 -15t14 -35q1 -19 -13 -33t-37 -14t-37 14.5t-14 32.5zM153 424q1 3 4.5 4.5t7 1.5t6.5 -1.5t3 -4.5l-28 -415q-1 -8 -4 -15.5t-14 -7.5h-44q-11 0 -12.5 7.5t0.5 15.5z" />
    <glyph glyph-name="cent" unicode="&#xa2;" horiz-adv-x="348" 
d="M124 -165h-31l42 151q-45 9 -74.5 50.5t-29.5 101.5q0 66 19.5 124t51.5 102t72.5 69.5t82.5 25.5q6 0 9 -1l49 178h31l-50 -181q26 -5 45 -19.5t19 -39.5q0 -19 -9 -30t-28 -11q-13 0 -21 7t-12 17t-4.5 21.5t0.5 20.5l-111 -400q11 0 26.5 7t32.5 18.5t34 25.5t30 27
l16 -18q-14 -16 -32.5 -32t-39 -29.5t-40.5 -23t-37 -11.5zM257 425q-9 3 -19 5t-20 2q-6 0 -19.5 -9t-23.5 -19q-16 -16 -32.5 -43.5t-30.5 -61.5t-23 -72t-9 -75q0 -55 20 -85t46 -40z" />
    <glyph glyph-name="sterling" unicode="&#xa3;" horiz-adv-x="427" 
d="M135 296q3 33 6 71q3 35 5 61q5 44 20 81t40.5 64t60 41.5t76.5 14.5q22 0 42 -5t35.5 -14t24.5 -22t9 -28q0 -16 -9.5 -29t-29.5 -13q-10 0 -19 5t-14.5 13.5t-6.5 20t5 23.5q-11 8 -25.5 13.5t-33.5 5.5q-45 0 -78.5 -38t-43.5 -127q-3 -31 -5.5 -66t-5.5 -72h169
l1 -35h-173q-2 -20 -4.5 -40t-6.5 -39q-7 -37 -18.5 -66.5t-27.5 -48.5v-3q13 -5 33 -12.5t43.5 -14.5t48 -12t46.5 -5q20 0 31 4.5t18 11.5q12 12 21.5 29t17.5 38l19 -8q-4 -24 -12 -45.5t-22 -38t-34.5 -26t-49.5 -9.5q-27 0 -55 10t-52.5 22t-42 23t-23.5 13
q-17 -19 -50 -38.5t-92 -29.5l-4 28q42 9 69.5 25t45 39.5t26.5 54t14 67.5q2 15 4 33t4 38h-89l3 35h89z" />
    <glyph glyph-name="currency" unicode="&#xa4;" horiz-adv-x="496" 
d="M134 209q3 -32 14 -64.5t30 -59t46 -43t62 -16.5q54 0 94 25t71 62l19 -14q-34 -51 -84 -82.5t-113 -31.5q-47 0 -82.5 19.5t-59.5 51t-37.5 71.5t-16.5 82h-57l2 35h53v1q2 24 4 48.5t7 47.5h-66l3 35h72q14 50 39 95t60.5 78.5t81.5 53.5t101 20q17 0 40.5 -3.5
t45 -12.5t36.5 -24t15 -38q0 -15 -10.5 -27t-26.5 -12q-13 0 -21.5 6.5t-13 16.5t-5.5 22t1 24q-14 11 -37 14.5t-40 3.5q-45 0 -80 -19.5t-61.5 -50.5t-44 -69.5t-27.5 -77.5h215l3 -35h-226q-5 -24 -7 -48t-2 -48v-1h231l4 -35h-232z" />
    <glyph glyph-name="yen" unicode="&#xa5;" horiz-adv-x="611" 
d="M640 594l-67 -7q-7 -1 -11 -7l-204 -273h175l3 -35h-199l-13 -97h208l4 -35h-216l-13 -95q-1 -6 4 -6l87 -8l3 -31h-243l3 31l89 8q5 0 6 6l13 95h-194l2 35h196l13 97h-211l3 35h194l-133 272q-3 6 -11 8l-61 7l-3 31h204l-3 -31l-71 -6q-4 0 -6 -3t0 -6l130 -268h5
l190 269q2 2 0.5 4.5t-3.5 2.5l-72 7l-3 31h208z" />
    <glyph glyph-name="brokenbar" unicode="&#xa6;" horiz-adv-x="461" 
d="M487 594l-78 -8q-4 0 -6 -6l-49 -382q-5 -42 -20 -81t-39.5 -68.5t-60 -47t-82.5 -17.5q-23 0 -50.5 6.5t-51 20t-39.5 34.5t-16 49q0 24 14.5 39.5t38.5 15.5q17 0 27.5 -11.5t10.5 -28.5t-6 -28.5t-21 -23.5q7 -12 18 -19.5t24 -12t26.5 -6.5t24.5 -2q37 0 63.5 16.5
t44 42.5t27.5 58.5t14 63.5l49 382q1 6 -4 6l-86 8l-3 31h233z" />
    <glyph glyph-name="section" unicode="&#xa7;" horiz-adv-x="451" 
d="M411 252q0 -25 -9 -45.5t-24 -37t-34.5 -28.5t-40.5 -21q9 -21 9 -45q0 -29 -11.5 -54t-30.5 -43t-44.5 -28.5t-54.5 -10.5q-15 0 -35 3.5t-38 11.5t-30.5 21t-12.5 32q0 17 10.5 27t27.5 10q11 0 19 -6t13.5 -15t8 -19.5t1.5 -19.5q12 -6 28.5 -9.5t30.5 -3.5
q32 0 52.5 24t20.5 56q0 41 -30 70.5t-73 58.5q-22 15 -41.5 30.5t-34.5 32.5t-24 37t-9 44q0 25 9 45t24 36t34.5 28t40.5 20q-9 21 -9 45q0 29 11.5 54t30.5 43.5t45 29t54 10.5q15 0 35 -3.5t38 -11.5t30.5 -21t12.5 -32q0 -17 -10 -27t-27 -10q-11 0 -19.5 6t-14 15
t-8 19.5t-1.5 19.5q-12 6 -27 9.5t-29 3.5q-34 0 -55 -23t-21 -56q0 -21 8 -38.5t22.5 -33t33.5 -29.5t40 -29q22 -15 41.5 -29.5t34.5 -31t23.5 -36t8.5 -45.5zM364 227q0 21 -7.5 37.5t-19.5 30t-25.5 24t-25.5 19.5q-24 17 -42.5 30.5t-32 25t-22.5 22t-16 20.5
q-27 -13 -49 -34.5t-22 -53.5q0 -29 18 -55t63 -58q31 -21 61.5 -44.5t49.5 -52.5q27 14 48.5 35t21.5 54z" />
    <glyph glyph-name="dieresis" unicode="&#xa8;" 
d="M390 573q0 -19 -12 -34.5t-33 -15.5q-22 0 -34.5 15.5t-12.5 34.5t12.5 34t34.5 15q21 0 33 -15t12 -34zM191 573q0 -19 -12 -34.5t-34 -15.5t-33.5 15.5t-11.5 34.5t11.5 34t33.5 15t34 -15t12 -34z" />
    <glyph glyph-name="copyright" unicode="&#xa9;" horiz-adv-x="734" 
d="M694 312q0 -68 -25.5 -127.5t-70 -104t-104 -70t-127.5 -25.5t-127.5 25.5t-104 70t-70 104t-25.5 127.5t25.5 127.5t70 104t104 70.5t127.5 26t127.5 -26t104 -70.5t70 -104t25.5 -127.5zM662 312q0 61 -23 115t-63 94t-94 63.5t-115 23.5t-115 -23.5t-94 -63.5t-63 -94
t-23 -115t23 -115t63 -94t94 -63t115 -23t115 23t94 63t63 94t23 115zM493 127l-24 6q-17 -5 -43.5 -9t-49.5 -4q-40 0 -75 13.5t-60.5 37.5t-40 58t-14.5 75q0 44 14.5 80.5t40 63t61 41.5t77.5 15q26 0 45.5 -2.5t36.5 -6.5l44 9v-120h-24l-15 78q-11 5 -32.5 11.5
t-58.5 6.5q-32 0 -59.5 -12.5t-47.5 -35t-31 -53.5t-11 -68q0 -74 40.5 -120.5t112.5 -46.5q26 0 46.5 5t32.5 11l25 77h25z" />
    <glyph glyph-name="ordfeminine" unicode="&#xaa;" horiz-adv-x="344" 
d="M288 572l16 66h30l-35 -146l-38 -166l19 -5l70 59l10 -13q-7 -9 -20 -22t-27 -25t-27 -20.5t-22 -8.5q-11 0 -24 8.5t-13 16.5q0 6 14.5 57.5t40.5 141.5h-7q-13 -27 -33.5 -65.5t-44 -73.5t-47 -60t-42.5 -25q-16 0 -27.5 9t-18.5 23.5t-10.5 33.5t-3.5 38q0 24 6 53
t17 57t25.5 53t32.5 43q14 14 35 26t38 12q16 0 29 -8t23 -19t17 -22t11 -18h6zM265 545q-4 9 -12 19.5t-18.5 20.5t-22.5 16.5t-25 6.5q-19 0 -39 -20q-13 -13 -25 -36t-20.5 -49t-13.5 -52.5t-5 -46.5q0 -39 8 -61t24 -22q12 0 28 16.5t34.5 44.5t39 64.5t40.5 75.5z" />
    <glyph glyph-name="guillemotleft" unicode="&#xab;" horiz-adv-x="480" 
d="M393 46l-191 157l4 36l233 157l7 -22l-178 -155l137 -155zM214 56l-197 147l4 36l237 147l6 -22l-171 -145l133 -145z" />
    <glyph glyph-name="logicalnot" unicode="&#xac;" horiz-adv-x="471" 
d="M354 368l22 91h40l-47 -200l-53 -228l32 -7l81 81l16 -18q-8 -12 -22.5 -30t-30.5 -34t-31.5 -27.5t-27.5 -11.5q-7 0 -18 3.5t-21 8.5t-17 11t-7 11q0 4 5 23.5t13 49.5t19 68.5t24 80.5h-10q-8 -12 -22.5 -35.5t-32.5 -52t-38.5 -58.5t-41.5 -54.5t-41 -40t-38 -15.5
q-22 0 -37.5 12t-25.5 32t-14.5 45.5t-4.5 52.5q0 33 8 72.5t23 78t35 73t44 58.5q20 20 49 36t51 16q23 0 40.5 -11t31 -26t23 -30.5t15.5 -24.5h9zM342 331q-10 12 -24.5 27t-31.5 28.5t-35.5 22.5t-35.5 9q-14 0 -27.5 -7.5t-26.5 -20.5q-18 -18 -34 -49t-27.5 -67
t-18.5 -72t-7 -64q0 -54 11 -84t33 -30q17 0 39 23t49.5 61t59.5 88t67 104z" />
    <glyph glyph-name="registered" unicode="&#xae;" horiz-adv-x="734" 
d="M694 312q0 -68 -25.5 -127.5t-70 -104t-104 -70t-127.5 -25.5t-127.5 25.5t-104 70t-70 104t-25.5 127.5t25.5 127.5t70 104t104 70.5t127.5 26t127.5 -26t104 -70.5t70 -104t25.5 -127.5zM662 312q0 61 -23 115t-63 94t-94 63.5t-115 23.5t-115 -23.5t-94 -63.5t-63 -94
t-23 -115t23 -115t63 -94t94 -63t115 -23t115 23t94 63t63 94t23 115zM474 134l-25 41l-72 112l-67 2v-121q0 -5 3 -5l66 -5l2 -24h-172l3 24l57 5q3 0 3 5v294q0 5 -3 5l-57 5l-3 24h171q63 0 94.5 -27t31.5 -65q0 -41 -25.5 -68t-67.5 -41l87 -129q4 -4 6 -4l43 -4l3 -24
h-78zM465 395q0 39 -26.5 59t-80.5 18l-48 -2v-155l66 -6q35 5 62 26.5t27 59.5z" />
    <glyph glyph-name="macron" unicode="&#xaf;" 
d="M128 536l2 38h229l4 -38h-235z" />
    <glyph glyph-name="degree" unicode="&#xb0;" horiz-adv-x="412" 
d="M426 500q0 -39 -14.5 -73t-39 -59.5t-58 -40t-72.5 -14.5q-32 0 -60.5 10.5t-49.5 30t-33.5 47t-12.5 61.5q0 38 14.5 71.5t39 59t58 40t70.5 14.5q33 0 61.5 -10t50 -29t34 -46.5t12.5 -61.5zM388 490q0 55 -34.5 90t-89.5 35q-30 0 -56 -12.5t-45 -33.5t-30 -48.5
t-11 -56.5q0 -27 9.5 -49.5t26.5 -38.5t39.5 -24.5t48.5 -8.5q30 0 56 11.5t45 31.5t30 47t11 57z" />
    <glyph glyph-name="plusminus" unicode="&#xb1;" horiz-adv-x="734" 
d="M694 312q0 -68 -25.5 -127.5t-70 -104t-104 -70t-127.5 -25.5t-127.5 25.5t-104 70t-70 104t-25.5 127.5t25.5 127.5t70 104t104 70.5t127.5 26t127.5 -26t104 -70.5t70 -104t25.5 -127.5zM662 312q0 61 -23 115t-63 94t-94 63.5t-115 23.5t-115 -23.5t-94 -63.5t-63 -94
t-23 -115t23 -115t63 -94t94 -63t115 -23t115 23t94 63t63 94t23 115zM518 390q0 -25 -10.5 -46t-29.5 -36t-44 -23.5t-54 -8.5q-13 0 -26 0.5t-24 1.5v-110q0 -5 3 -5l66 -5l2 -24h-172l3 24l57 5q3 0 3 5v294q0 5 -3 5l-57 5l-3 24h142q76 0 111.5 -30.5t35.5 -75.5z
M478 384q0 44 -29 67t-85 21h-17q-7 0 -17 -1v-167q11 -3 24.5 -5t27.5 -2q47 0 71.5 23t24.5 64z" />
    <glyph glyph-name="acute" unicode="&#xb4;" horiz-adv-x="399" 
d="M206 505h-23l125 177h80z" />
    <glyph glyph-name="mu" unicode="&#xb5;" horiz-adv-x="409" 
d="M302 416v-6q24 -23 39.5 -47t15.5 -58q0 -35 -15.5 -67t-40 -57t-55 -39.5t-60.5 -14.5q-17 0 -35 4t-32 12q-53 -22 -53 -58q0 -24 21.5 -39.5t72.5 -31.5l58 -18q63 -20 97 -46.5t34 -66.5q0 -27 -16.5 -51t-46 -41t-70.5 -27t-91 -10q-33 0 -65 8.5t-57 24.5t-40 39.5
t-15 53.5q0 21 10.5 40t27.5 35t38.5 28.5t43.5 20.5v4q-19 11 -30.5 28t-11.5 38q0 15 6.5 27t17 21.5t24 17t26.5 13.5v3q-20 17 -34.5 44.5t-14.5 68.5q0 35 14 69t39.5 61t60 43.5t76.5 16.5q31 0 58 -5.5t50 -12.5h106l-17 -47zM315 332q0 20 -12 37t-29.5 29.5t-37 20
t-34.5 7.5q-27 0 -56 -29q-20 -20 -34.5 -55t-14.5 -71q0 -30 7.5 -55t27.5 -45q5 -5 16 -11.5t24 -6.5q24 0 47.5 9t42.5 28q26 26 39.5 63.5t13.5 78.5zM305 -128q0 30 -22.5 47.5t-59.5 31.5q-27 10 -60 19.5t-68 22.5q-18 -8 -36.5 -18.5t-33.5 -23.5t-24.5 -29.5
t-9.5 -35.5q0 -24 11.5 -42.5t32.5 -31t50 -19.5t63 -7q35 0 63.5 7t49.5 19t32.5 27.5t11.5 32.5z" />
    <glyph glyph-name="paragraph" unicode="&#xb6;" horiz-adv-x="479" 
d="M327 -32l42 321q-24 -7 -49.5 -11.5t-51.5 -4.5q-37 0 -72.5 7.5t-64 25t-46 46.5t-17.5 72q0 51 20 89t53.5 62.5t77 37t90.5 12.5h144l-86 -657h-40z" />
    <glyph glyph-name="periodcentered" unicode="&#xb7;" horiz-adv-x="213" 
d="M132 226q-1 -20 -14.5 -35t-36.5 -15t-36.5 15.5t-12.5 34.5t14 33.5t36 14.5t37 -14.5t13 -33.5z" />
    <glyph glyph-name="cedilla" unicode="&#xb8;" 
d="M48 -243q86 13 127 37.5t41 63.5q0 21 -19 35t-59 14q-10 0 -23.5 -1t-26.5 -3l2 12l104 100h32l-82 -77q49 4 82 -16t33 -58q0 -25 -15 -46t-42 -37t-65 -27t-85 -15z" />
    <glyph glyph-name="ordmasculine" unicode="&#xba;" horiz-adv-x="313" 
d="M317 503q0 -33 -11 -70t-31.5 -68.5t-50 -52t-67.5 -20.5q-27 0 -46.5 12.5t-32 32t-18 43.5t-5.5 47q0 33 11 70t31.5 68.5t50.5 52.5t67 21q27 0 46.5 -12.5t32 -32t18 -43.5t5.5 -48zM281 511q0 20 -3.5 39t-12 34t-22.5 24.5t-34 9.5t-36.5 -11t-30 -28.5
t-23.5 -39.5t-17 -45q-6 -21 -8.5 -40t-2.5 -34q0 -20 3.5 -39t12 -34t22 -24.5t34.5 -9.5q20 0 37 11t30.5 28.5t23 40t15.5 45.5q12 41 12 73z" />
    <glyph glyph-name="guillemotright" unicode="&#xbb;" horiz-adv-x="480" 
d="M216 56l-6 22l172 145l-134 145l12 18l197 -147l-4 -36zM36 46l-6 22l177 155l-136 155l11 18l190 -157l-4 -36z" />
    <glyph glyph-name="onequarter" unicode="&#xbc;" horiz-adv-x="506" 
d="M617 641q0 -17 -9 -28.5t-23 -11.5q-19 0 -30 13.5t-13 36.5l-81 -28q-17 -31 -30 -77t-21 -98h131l3 -37h-139l-61 -363q-14 -87 -31.5 -143t-49.5 -88q-43 -43 -89 -43q-24 0 -40 15t-16 33q0 16 10 26.5t24 10.5q19 0 30.5 -14t13.5 -36l69 50q11 24 21 73t19 105
l60 374h-193l-64 -383q-14 -87 -31.5 -143t-49.5 -88q-43 -43 -89 -43q-24 0 -40 15t-16 33q0 16 10 26.5t24 10.5q19 0 30.5 -14t13.5 -36l69 50q11 24 21 73t19 105l63 393l-87 3l2 27l92 14q11 65 30.5 107.5t45.5 70.5q20 22 49.5 34.5t54.5 12.5q28 0 46.5 -14
t18.5 -34q0 -17 -9 -28.5t-23 -11.5q-19 0 -30 13.5t-13 36.5l-81 -28q-17 -31 -30 -75t-21 -90h194q12 67 31.5 116.5t45.5 77.5q20 22 49.5 34.5t54.5 12.5q28 0 46.5 -14t18.5 -34z" />
    <glyph glyph-name="onehalf" unicode="&#xbd;" horiz-adv-x="723" 
d="M458 646q18 18 48.5 30.5t55.5 12.5q28 0 46.5 -14t18.5 -34q0 -17 -9 -28.5t-23 -11.5q-19 0 -30 15.5t-13 38.5l-81 -28q-24 -29 -38.5 -78t-22.5 -101h177q17 11 29 11q8 0 17.5 -3.5t17.5 -8.5t13.5 -11t3.5 -11l-115 -404l10 -5l115 89l13 -18q-10 -12 -27.5 -30
t-36.5 -34t-37 -27.5t-30 -11.5q-7 0 -16 3.5t-16.5 9t-12 11.5t-3.5 10l107 389l-4 4h-210l-61 -363q-17 -87 -33 -143t-48 -88q-43 -43 -89 -43q-24 0 -40 15t-16 33q0 16 10 26.5t24 10.5q19 0 30.5 -14t13.5 -36l69 50q11 24 21 73t19 105l60 374h-193l-64 -383
q-14 -87 -31.5 -143t-49.5 -88q-43 -43 -89 -43q-24 0 -40 15t-16 33q0 16 10 26.5t24 10.5q19 0 30.5 -14t13.5 -36l69 50q11 24 21 73t19 105l63 393l-87 3l2 27l92 14q11 65 30.5 107.5t45.5 70.5q20 22 49.5 34.5t54.5 12.5q28 0 46.5 -14t18.5 -34q0 -17 -9 -28.5
t-23 -11.5q-19 0 -30 13.5t-13 36.5l-81 -28q-17 -31 -30 -75t-21 -90h194q13 72 35.5 120.5t51.5 77.5z" />
    <glyph glyph-name="threequarters" unicode="&#xbe;" horiz-adv-x="720" 
d="M384 631q0 -17 -9 -28.5t-23 -11.5q-19 0 -30 13.5t-13 36.5l-81 -28q-17 -31 -30 -75t-21 -90h194q13 72 35.5 120.5t51.5 77.5q18 18 48.5 30.5t55.5 12.5t42 -10l123 18l-172 -666l27 -7l100 81l13 -18q-10 -12 -27.5 -30t-36.5 -34t-37 -27.5t-30 -11.5q-7 0 -16 3.5
t-16 8.5t-11.5 11t-3.5 11l97 393h-209l-61 -363q-12 -88 -30.5 -143.5t-50.5 -87.5q-43 -43 -89 -43q-24 0 -40 15t-16 33q0 16 10 26.5t24 10.5q19 0 30.5 -14t13.5 -36l69 50q11 24 21 73t19 105l60 374h-193l-64 -383q-14 -87 -31.5 -143t-49.5 -88q-43 -43 -89 -43
q-24 0 -40 15t-16 33q0 16 10 26.5t24 10.5q19 0 30.5 -14t13.5 -36l69 50q11 24 21 73t19 105l63 393l-87 3l2 27l92 14q11 65 30.5 107.5t45.5 70.5q20 22 49.5 34.5t54.5 12.5q28 0 46.5 -14t18.5 -34zM674 655q-15 -20 -30.5 -28.5t-28.5 -7t-22 12t-11 27.5l-101 -22
q-15 -15 -26 -36.5t-20 -47t-15 -52.5t-10 -53h213z" />
    <glyph glyph-name="questiondown" unicode="&#xbf;" horiz-adv-x="313" 
d="M23 132q0 31 9.5 53t25 37.5t37 25.5t45.5 18l36 14q18 7 31.5 16.5t22 23.5t8.5 35q-1 25 -18 48.5t-38 41.5l33 -2q9 -9 19.5 -20t19 -24t14.5 -28.5t6 -33.5q0 -27 -11 -46.5t-28.5 -34t-40 -25t-45.5 -18.5q-19 -7 -36.5 -14t-31 -16t-21 -20.5t-7.5 -26.5
q0 -17 11 -33.5t31 -29.5t49 -21t66 -8q12 0 22 0.5t16 1.5q2 -6 2 -15q0 -23 -17.5 -34.5t-43.5 -11.5q-39 0 -69.5 13t-52 34t-33 47t-11.5 53zM186 588q0 20 13 35t36 15t38 -15t14 -35q-1 -18 -15 -32.5t-37 -14.5t-36 14t-13 33z" />
    <glyph glyph-name="Agrave" unicode="&#xc0;" horiz-adv-x="546" 
d="M323 0l3 31l77 6q3 0 5.5 2t1.5 5l-35 185h-224l-81 -182q-3 -7 2 -7l76 -9l3 -31h-203l3 31l68 7q5 0 8 7l250 552v20l73 20l114 -591q1 -3 2 -5t6 -3l68 -7l3 -31h-220zM310 576h-5l-137 -309h200zM340 687l-134 177h80l77 -177h-23z" />
    <glyph glyph-name="Aacute" unicode="&#xc1;" horiz-adv-x="546" 
d="M323 0l3 31l77 6q3 0 5.5 2t1.5 5l-35 185h-224l-81 -182q-3 -7 2 -7l76 -9l3 -31h-203l3 31l68 7q5 0 8 7l250 552v20l73 20l114 -591q1 -3 2 -5t6 -3l68 -7l3 -31h-220zM310 576h-5l-137 -309h200zM330 687h-23l125 177h80z" />
    <glyph glyph-name="Acircumflex" unicode="&#xc2;" horiz-adv-x="546" 
d="M323 0l3 31l77 6q3 0 5.5 2t1.5 5l-35 185h-224l-81 -182q-3 -7 2 -7l76 -9l3 -31h-203l3 31l68 7q5 0 8 7l250 552v20l73 20l114 -591q1 -3 2 -5t6 -3l68 -7l3 -31h-220zM310 576h-5l-137 -309h200zM427 687q-27 40 -48 71q-9 13 -17.5 25.5t-15 22.5t-11.5 16l-4 6h-2
l-134 -141h-23l120 177h82l72 -177h-19z" />
    <glyph glyph-name="Atilde" unicode="&#xc3;" horiz-adv-x="546" 
d="M323 0l3 31l77 6q3 0 5.5 2t1.5 5l-35 185h-224l-81 -182q-3 -7 2 -7l76 -9l3 -31h-203l3 31l68 7q5 0 8 7l250 552v20l73 20l114 -591q1 -3 2 -5t6 -3l68 -7l3 -31h-220zM310 576h-5l-137 -309h200zM486 806q-32 -104 -101 -104q-20 0 -38 11t-33.5 24.5t-29.5 24.5
t-26 11q-10 0 -18.5 -2.5t-16.5 -9.5t-16 -20t-19 -34h-27q32 104 101 104q20 0 38 -11t34 -24.5t30 -24.5t25 -11q10 0 18 2.5t16.5 9.5t16.5 20t18 34h28z" />
    <glyph glyph-name="Adieresis" unicode="&#xc4;" horiz-adv-x="546" 
d="M323 0l3 31l77 6q3 0 5.5 2t1.5 5l-35 185h-224l-81 -182q-3 -7 2 -7l76 -9l3 -31h-203l3 31l68 7q5 0 8 7l250 552v20l73 20l114 -591q1 -3 2 -5t6 -3l68 -7l3 -31h-220zM310 576h-5l-137 -309h200zM463 755q0 -19 -12 -34.5t-33 -15.5q-22 0 -34.5 15.5t-12.5 34.5
t12.5 34t34.5 15q21 0 33 -15t12 -34zM264 755q0 -19 -12 -34.5t-34 -15.5t-33.5 15.5t-11.5 34.5t11.5 34t33.5 15t34 -15t12 -34z" />
    <glyph glyph-name="Aring" unicode="&#xc5;" horiz-adv-x="546" 
d="M310 576h-5l-137 -309h200zM385 690q0 26 -15.5 45.5t-44.5 19.5t-44 -19.5t-16 -45.5t15.5 -45.5t45.5 -19.5t44 19.5t15 45.5zM282 610q-22 11 -34 32.5t-12 47.5q0 37 23.5 63.5t65.5 26.5t66 -26.5t23 -63.5q-1 -29 -16 -52.5t-42 -32.5l108 -559q1 -3 2 -5t6 -3
l68 -7l3 -31h-220l3 31l77 6q3 0 5.5 2t1.5 5l-35 185h-224l-81 -182q-3 -7 2 -7l76 -9l3 -31h-203l3 31l68 7q5 0 8 7z" />
    <glyph glyph-name="AE" unicode="&#xc6;" horiz-adv-x="812" 
d="M719 0h-457l7 31l79 8q4 0 5 6l24 184h-209l-58 -87l-63 -95q-2 -2 -1 -4.5t3 -2.5l70 -9l3 -31h-203l3 31l70 7q2 0 6 3.5t6 7.5l361 531q4 6 -3 6l-79 8l1 31h516l-22 -169h-31l-4 109q0 9 -5 14.5t-26 8.5t-65 4t-123 1h-46l-34 -257h64q38 0 58.5 0.5t31 2t13.5 4
t5 7.5l30 66h24l-44 -193h-24l3 65q0 5 -1.5 8t-11 4.5t-30.5 2.5t-59 1h-63l-36 -272h23q90 0 140 1t74.5 4t31.5 8.5t10 14.5l40 107h36zM424 587h-14l-216 -320h188z" />
    <glyph glyph-name="Ccedilla" unicode="&#xc7;" horiz-adv-x="600" 
d="M244 -62q49 4 82 -16t33 -58q0 -25 -15 -46t-42 -37t-65 -27t-85 -15l-4 18q86 13 127 37.5t41 63.5q0 21 -19 35t-59 14q-10 0 -23.5 -1t-26.5 -3l2 12q22 20 39 37q14 14 26 25.5t12 12.5q-49 6 -89.5 26.5t-68.5 53.5t-43.5 77.5t-15.5 99.5q0 82 28 159t84 133
q46 46 106.5 73t134.5 27q33 0 63 -4t60 -12l70 17l-26 -197h-32l-5 134q-32 14 -66.5 22t-67.5 8q-69 0 -123 -31.5t-91.5 -82.5t-57.5 -114.5t-20 -126.5q0 -56 16 -101.5t48 -77.5q26 -26 63.5 -40.5t86.5 -14.5q35 0 67 8t63 21l56 131h34l-50 -180l-33 11
q-35 -9 -70.5 -16t-71.5 -7h-10q-5 0 -10 1z" />
    <glyph glyph-name="Egrave" unicode="&#xc8;" horiz-adv-x="564" 
d="M471 0h-453l3 31l78 8q5 0 6 6l70 535q1 6 -4 6l-76 8l-3 31h460l-22 -169h-31l-4 109q0 9 -5 14.5t-26 8.5t-65 4t-123 1h-46l-34 -257h64q38 0 58.5 0.5t31 2t13.5 4t5 7.5l30 66h24l-44 -193h-24l3 65q0 5 -1.5 8t-11 4.5t-30.5 2.5t-59 1h-63l-36 -272h23q90 0 140 1
t74.5 4t31.5 8.5t10 14.5l40 107h36zM349 687l-134 177h80l77 -177h-23z" />
    <glyph glyph-name="Eacute" unicode="&#xc9;" horiz-adv-x="564" 
d="M471 0h-453l3 31l78 8q5 0 6 6l70 535q1 6 -4 6l-76 8l-3 31h460l-22 -169h-31l-4 109q0 9 -5 14.5t-26 8.5t-65 4t-123 1h-46l-34 -257h64q38 0 58.5 0.5t31 2t13.5 4t5 7.5l30 66h24l-44 -193h-24l3 65q0 5 -1.5 8t-11 4.5t-30.5 2.5t-59 1h-63l-36 -272h23q90 0 140 1
t74.5 4t31.5 8.5t10 14.5l40 107h36zM289 687h-23l125 177h80z" />
    <glyph glyph-name="Ecircumflex" unicode="&#xca;" horiz-adv-x="564" 
d="M471 0h-453l3 31l78 8q5 0 6 6l70 535q1 6 -4 6l-76 8l-3 31h460l-22 -169h-31l-4 109q0 9 -5 14.5t-26 8.5t-65 4t-123 1h-46l-34 -257h64q38 0 58.5 0.5t31 2t13.5 4t5 7.5l30 66h24l-44 -193h-24l3 65q0 5 -1.5 8t-11 4.5t-30.5 2.5t-59 1h-63l-36 -272h23q90 0 140 1
t74.5 4t31.5 8.5t10 14.5l40 107h36zM436 687q-27 40 -48 71q-9 13 -17.5 25.5t-15 22.5t-11.5 16l-4 6h-2l-134 -141h-23l120 177h82l72 -177h-19z" />
    <glyph glyph-name="Edieresis" unicode="&#xcb;" horiz-adv-x="564" 
d="M471 0h-453l3 31l78 8q5 0 6 6l70 535q1 6 -4 6l-76 8l-3 31h460l-22 -169h-31l-4 109q0 9 -5 14.5t-26 8.5t-65 4t-123 1h-46l-34 -257h64q38 0 58.5 0.5t31 2t13.5 4t5 7.5l30 66h24l-44 -193h-24l3 65q0 5 -1.5 8t-11 4.5t-30.5 2.5t-59 1h-63l-36 -272h23q90 0 140 1
t74.5 4t31.5 8.5t10 14.5l40 107h36zM492 755q0 -19 -12 -34.5t-33 -15.5q-22 0 -34.5 15.5t-12.5 34.5t12.5 34t34.5 15q21 0 33 -15t12 -34zM293 755q0 -19 -12 -34.5t-34 -15.5t-33.5 15.5t-11.5 34.5t11.5 34t33.5 15t34 -15t12 -34z" />
    <glyph glyph-name="Igrave" unicode="&#xcc;" horiz-adv-x="330" 
d="M27 0l3 31l78 8q5 0 6 6l70 535q1 6 -4 6l-76 8l-3 31h223l-3 -31l-78 -8q-5 0 -6 -6l-70 -535q-1 -6 4 -6l76 -8l3 -31h-223zM202 687l-134 177h80l77 -177h-23z" />
    <glyph glyph-name="Iacute" unicode="&#xcd;" horiz-adv-x="330" 
d="M27 0l3 31l78 8q5 0 6 6l70 535q1 6 -4 6l-76 8l-3 31h223l-3 -31l-78 -8q-5 0 -6 -6l-70 -535q-1 -6 4 -6l76 -8l3 -31h-223zM222 687h-23l125 177h80z" />
    <glyph glyph-name="Icircumflex" unicode="&#xce;" horiz-adv-x="330" 
d="M27 0l3 31l78 8q5 0 6 6l70 535q1 6 -4 6l-76 8l-3 31h223l-3 -31l-78 -8q-5 0 -6 -6l-70 -535q-1 -6 4 -6l76 -8l3 -31h-223zM339 687q-27 40 -48 71q-9 13 -17.5 25.5t-15 22.5t-10.5 16l-5 6h-2l-134 -141h-23l120 177h82l72 -177h-19z" />
    <glyph glyph-name="Idieresis" unicode="&#xcf;" horiz-adv-x="330" 
d="M27 0l3 31l78 8q5 0 6 6l70 535q1 6 -4 6l-76 8l-3 31h223l-3 -31l-78 -8q-5 0 -6 -6l-70 -535q-1 -6 4 -6l76 -8l3 -31h-223zM365 755q0 -19 -12 -34.5t-33 -15.5q-22 0 -34.5 15.5t-12.5 34.5t12.5 34t34.5 15q21 0 33 -15t12 -34zM166 755q0 -19 -12 -34.5t-34 -15.5
t-33.5 15.5t-11.5 34.5t11.5 34t33.5 15t34 -15t12 -34z" />
    <glyph glyph-name="Eth" unicode="&#xd0;" horiz-adv-x="629" 
d="M333 339l3 -35h-144l-34 -261l83 -11q62 3 117 23.5t96.5 58.5t66 93.5t24.5 130.5q0 63 -18.5 111t-51.5 80t-80 48.5t-104 16.5h-61l-33 -255h136zM43 304l3 35h97l1 10q2 11 4.5 28t5 39t5.5 44l16 120q1 6 -4 6l-76 8l-3 31h216q64 0 118 -18.5t93.5 -54.5t61.5 -89
t22 -122t-24.5 -129.5t-70.5 -106.5q-28 -28 -62 -48t-71 -32.5t-75 -18.5t-75 -6h-207l3 31l78 8q5 0 6 6l34 259h-96z" />
    <glyph glyph-name="Ntilde" unicode="&#xd1;" horiz-adv-x="664" 
d="M715 594l-91 -8q-5 0 -6 -6l-77 -585h-41l-284 583h-3l-68 -533q-1 -6 4 -6l86 -8l3 -31h-233l3 31l91 8q5 0 6 6l69 528q1 5 -4 6l-77 15l-3 31h157l265 -546h2l64 501q1 6 -4 6l-86 8l-3 31h233zM540 806q-32 -104 -101 -104q-20 0 -38 11t-33.5 24.5t-29.5 24.5
t-26 11q-10 0 -18.5 -2.5t-16.5 -9.5t-16 -20t-19 -34h-27q32 104 101 104q20 0 38 -11t34 -24.5t30 -24.5t25 -11q10 0 18 2.5t16.5 9.5t16.5 20t18 34h28z" />
    <glyph glyph-name="Ograve" unicode="&#xd2;" horiz-adv-x="673" 
d="M647 343q0 -72 -25.5 -139.5t-73.5 -119.5q-42 -45 -97.5 -72.5t-122.5 -27.5q-61 0 -112 24t-88 64.5t-57 94.5t-20 113q0 66 21.5 128.5t62.5 113.5q42 53 101.5 85t132.5 32q62 0 113 -24t87.5 -64.5t57 -94.5t20.5 -113zM585 346q0 59 -17.5 111.5t-54.5 89.5
q-28 28 -65 43.5t-85 15.5q-63 0 -110 -31t-78 -79t-46.5 -106t-15.5 -113q0 -60 19 -113.5t56 -90.5q56 -56 147 -56q63 0 110 31t78 79t46.5 106t15.5 113zM373 687l-134 177h80l77 -177h-23z" />
    <glyph glyph-name="Oacute" unicode="&#xd3;" horiz-adv-x="673" 
d="M647 343q0 -72 -25.5 -139.5t-73.5 -119.5q-42 -45 -97.5 -72.5t-122.5 -27.5q-61 0 -112 24t-88 64.5t-57 94.5t-20 113q0 66 21.5 128.5t62.5 113.5q42 53 101.5 85t132.5 32q62 0 113 -24t87.5 -64.5t57 -94.5t20.5 -113zM585 346q0 59 -17.5 111.5t-54.5 89.5
q-28 28 -65 43.5t-85 15.5q-63 0 -110 -31t-78 -79t-46.5 -106t-15.5 -113q0 -60 19 -113.5t56 -90.5q56 -56 147 -56q63 0 110 31t78 79t46.5 106t15.5 113zM403 687h-23l125 177h80z" />
    <glyph glyph-name="Ocircumflex" unicode="&#xd4;" horiz-adv-x="673" 
d="M647 343q0 -72 -25.5 -139.5t-73.5 -119.5q-42 -45 -97.5 -72.5t-122.5 -27.5q-61 0 -112 24t-88 64.5t-57 94.5t-20 113q0 66 21.5 128.5t62.5 113.5q42 53 101.5 85t132.5 32q62 0 113 -24t87.5 -64.5t57 -94.5t20.5 -113zM585 346q0 59 -17.5 111.5t-54.5 89.5
q-28 28 -65 43.5t-85 15.5q-63 0 -110 -31t-78 -79t-46.5 -106t-15.5 -113q0 -60 19 -113.5t56 -90.5q56 -56 147 -56q63 0 110 31t78 79t46.5 106t15.5 113zM510 687q-27 40 -48 71q-9 13 -17.5 25.5t-15 22.5t-10.5 16l-5 6h-2l-134 -141h-23l120 177h82l72 -177h-19z" />
    <glyph glyph-name="Otilde" unicode="&#xd5;" horiz-adv-x="673" 
d="M647 343q0 -72 -25.5 -139.5t-73.5 -119.5q-42 -45 -97.5 -72.5t-122.5 -27.5q-61 0 -112 24t-88 64.5t-57 94.5t-20 113q0 66 21.5 128.5t62.5 113.5q42 53 101.5 85t132.5 32q62 0 113 -24t87.5 -64.5t57 -94.5t20.5 -113zM585 346q0 59 -17.5 111.5t-54.5 89.5
q-28 28 -65 43.5t-85 15.5q-63 0 -110 -31t-78 -79t-46.5 -106t-15.5 -113q0 -60 19 -113.5t56 -90.5q56 -56 147 -56q63 0 110 31t78 79t46.5 106t15.5 113zM544 806q-32 -104 -101 -104q-20 0 -38 11t-33.5 24.5t-29.5 24.5t-26 11q-10 0 -18.5 -2.5t-16.5 -9.5t-16 -20
t-19 -34h-27q32 104 101 104q20 0 38 -11t34 -24.5t30 -24.5t25 -11q10 0 18 2.5t16.5 9.5t16.5 20t18 34h28z" />
    <glyph glyph-name="Odieresis" unicode="&#xd6;" horiz-adv-x="673" 
d="M647 343q0 -72 -25.5 -139.5t-73.5 -119.5q-42 -45 -97.5 -72.5t-122.5 -27.5q-61 0 -112 24t-88 64.5t-57 94.5t-20 113q0 66 21.5 128.5t62.5 113.5q42 53 101.5 85t132.5 32q62 0 113 -24t87.5 -64.5t57 -94.5t20.5 -113zM585 346q0 59 -17.5 111.5t-54.5 89.5
q-28 28 -65 43.5t-85 15.5q-63 0 -110 -31t-78 -79t-46.5 -106t-15.5 -113q0 -60 19 -113.5t56 -90.5q56 -56 147 -56q63 0 110 31t78 79t46.5 106t15.5 113zM526 755q0 -19 -12 -34.5t-33 -15.5q-22 0 -34.5 15.5t-12.5 34.5t12.5 34t34.5 15q21 0 33 -15t12 -34zM327 755
q0 -19 -12 -34.5t-34 -15.5t-33.5 15.5t-11.5 34.5t11.5 34t33.5 15t34 -15t12 -34z" />
    <glyph glyph-name="multiply" unicode="&#xd7;" horiz-adv-x="486" 
d="M413 28l-168 169l-169 -169l-37 37l169 169l-169 168l37 37l169 -169l169 170l37 -37l-170 -169l169 -169z" />
    <glyph glyph-name="Oslash" unicode="&#xd8;" horiz-adv-x="673" 
d="M195 66q26 -23 61 -36t79 -13q63 0 110 31t78 79t46.5 106t15.5 113q0 53 -14 100.5t-43 84.5zM506 553q-27 25 -62.5 39t-80.5 14q-63 0 -110 -31t-78 -79t-46.5 -106t-15.5 -113q0 -54 15.5 -103t45.5 -86zM148 52q-45 42 -71 101.5t-26 126.5q0 66 21.5 128.5
t62.5 113.5q42 53 101.5 85t132.5 32q47 0 87.5 -14t73.5 -39l73 102h37q-24 -35 -43 -61q-17 -23 -30 -41.5t-13 -19.5q44 -42 68.5 -99.5t24.5 -123.5q0 -72 -25.5 -139.5t-73.5 -119.5q-42 -45 -97.5 -72.5t-122.5 -27.5q-45 0 -84.5 13t-71.5 36q0 1 -12 -16t-26 -37
q-17 -24 -39 -54h-37z" />
    <glyph glyph-name="Ugrave" unicode="&#xd9;" horiz-adv-x="706" 
d="M720 594l-91 -8q-5 0 -6 -6l-50 -380q-7 -54 -28.5 -94.5t-53.5 -67t-74 -40t-91 -13.5q-48 0 -88 12t-69 35.5t-45 58t-16 80.5q0 19 2 41t5 43l43 325q1 6 -4 6l-76 8l-3 31h223l-3 -31l-78 -8q-5 0 -6 -6l-45 -345q-2 -11 -3.5 -25t-1.5 -29q0 -75 45.5 -116.5
t131.5 -41.5q37 0 70 11t59 33.5t43.5 56.5t23.5 80l49 376q1 6 -4 6l-86 8l-3 31h233zM390 687l-134 177h80l77 -177h-23z" />
    <glyph glyph-name="Uacute" unicode="&#xda;" horiz-adv-x="706" 
d="M720 594l-91 -8q-5 0 -6 -6l-50 -380q-7 -54 -28.5 -94.5t-53.5 -67t-74 -40t-91 -13.5q-48 0 -88 12t-69 35.5t-45 58t-16 80.5q0 19 2 41t5 43l43 325q1 6 -4 6l-76 8l-3 31h223l-3 -31l-78 -8q-5 0 -6 -6l-45 -345q-2 -11 -3.5 -25t-1.5 -29q0 -75 45.5 -116.5
t131.5 -41.5q37 0 70 11t59 33.5t43.5 56.5t23.5 80l49 376q1 6 -4 6l-86 8l-3 31h233zM410 687h-23l125 177h80z" />
    <glyph glyph-name="Ucircumflex" unicode="&#xdb;" horiz-adv-x="706" 
d="M720 594l-91 -8q-5 0 -6 -6l-50 -380q-7 -54 -28.5 -94.5t-53.5 -67t-74 -40t-91 -13.5q-48 0 -88 12t-69 35.5t-45 58t-16 80.5q0 19 2 41t5 43l43 325q1 6 -4 6l-76 8l-3 31h223l-3 -31l-78 -8q-5 0 -6 -6l-45 -345q-2 -11 -3.5 -25t-1.5 -29q0 -75 45.5 -116.5
t131.5 -41.5q37 0 70 11t59 33.5t43.5 56.5t23.5 80l49 376q1 6 -4 6l-86 8l-3 31h233zM522 687q-27 40 -48 71q-9 13 -17.5 25.5t-15 22.5t-11.5 16l-4 6h-2l-134 -141h-23l120 177h82l72 -177h-19z" />
    <glyph glyph-name="Udieresis" unicode="&#xdc;" horiz-adv-x="706" 
d="M720 594l-91 -8q-5 0 -6 -6l-50 -380q-7 -54 -28.5 -94.5t-53.5 -67t-74 -40t-91 -13.5q-48 0 -88 12t-69 35.5t-45 58t-16 80.5q0 19 2 41t5 43l43 325q1 6 -4 6l-76 8l-3 31h223l-3 -31l-78 -8q-5 0 -6 -6l-45 -345q-2 -11 -3.5 -25t-1.5 -29q0 -75 45.5 -116.5
t131.5 -41.5q37 0 70 11t59 33.5t43.5 56.5t23.5 80l49 376q1 6 -4 6l-86 8l-3 31h233zM543 755q0 -19 -12 -34.5t-33 -15.5q-22 0 -34.5 15.5t-12.5 34.5t12.5 34t34.5 15q21 0 33 -15t12 -34zM344 755q0 -19 -12 -34.5t-34 -15.5t-33.5 15.5t-11.5 34.5t11.5 34t33.5 15
t34 -15t12 -34z" />
    <glyph glyph-name="Yacute" unicode="&#xdd;" horiz-adv-x="588" 
d="M644 594l-67 -7q-8 -2 -12 -7l-234 -313l-30 -222q-1 -6 5 -6l85 -8l3 -31h-243l3 31l89 8q4 0 5 6l29 220l-157 314q-4 7 -11 8l-61 7l-3 31h210l-3 -31l-72 -6q-9 0 -5 -9l134 -280h2l207 281q2 2 1 4.5t-3 2.5l-71 7l-3 31h205zM351 687h-23l125 177h80z" />
    <glyph glyph-name="Thorn" unicode="&#xde;" horiz-adv-x="519" 
d="M511 334q0 -46 -18.5 -83t-51 -63.5t-75.5 -40.5t-93 -14q-32 0 -57 2t-46 4l-12 -94q-1 -6 4 -6l94 -8l3 -31h-241l3 31l78 8q5 0 6 6l70 535q1 6 -4 6l-76 8l-3 31h223l-3 -31l-78 -8q-5 0 -6 -6l-9 -75h64q50 0 92 -11t72 -33t47 -53.5t17 -73.5zM452 330q0 38 -13 65
t-36 44.5t-55 26t-71 8.5q-15 0 -31 -1t-32 -3l-39 -297q18 -3 42.5 -5.5t53.5 -2.5q39 0 72 10.5t57 31t38 51.5t14 72z" />
    <glyph glyph-name="germandbls" unicode="&#xdf;" horiz-adv-x="524" 
d="M472 109q0 -25 -11.5 -47.5t-32.5 -39.5t-50.5 -27.5t-65.5 -10.5q-50 0 -80 17.5t-30 46.5q0 18 10.5 30t28.5 12q14 0 24 -10t10 -24q0 -5 -1 -12.5t-2 -9.5q20 -9 44 -13t53 -6q32 14 46.5 36t14.5 52q0 29 -22.5 53t-60.5 57q-16 14 -32 29t-29 31t-20.5 32.5
t-7.5 34.5q0 29 13.5 51t35 37t49.5 23t57 8q17 0 35.5 -3t34.5 -10t26.5 -19t10.5 -31t-10 -31t-29 -12q-14 0 -23 10t-9 24q0 6 0.5 13t1.5 12q-23 8 -44.5 12t-44.5 5q-33 -10 -47.5 -30.5t-14.5 -50.5q0 -14 4 -25.5t13.5 -23.5t25.5 -26l40 -35q34 -29 61.5 -61
t27.5 -68zM384 641q0 -17 -9 -28.5t-23 -11.5q-19 0 -30 13.5t-13 36.5l-81 -28q-17 -31 -30 -77t-21 -98l-69 -420q-14 -87 -31.5 -143t-49.5 -88q-43 -43 -89 -43q-24 0 -40 15t-16 33q0 16 10 26.5t24 10.5q19 0 30.5 -14t13.5 -36l69 50q11 24 21 73t19 105l63 393
l-87 3l2 27l92 14q24 133 76 188q20 22 49.5 34.5t54.5 12.5q28 0 46.5 -14t18.5 -34z" />
    <glyph glyph-name="agrave" unicode="&#xe0;" horiz-adv-x="471" 
d="M354 368l22 91h40l-47 -200l-53 -228l32 -7l81 81l16 -18q-8 -12 -22.5 -30t-30.5 -34t-31.5 -27.5t-27.5 -11.5q-7 0 -18 3.5t-21 8.5t-17 11t-7 11q0 4 5 23.5t13 49.5t19 68.5t24 80.5h-10q-8 -12 -22.5 -35.5t-32.5 -52t-38.5 -58.5t-41.5 -54.5t-41 -40t-38 -15.5
q-22 0 -37.5 12t-25.5 32t-14.5 45.5t-4.5 52.5q0 33 8 72.5t23 78t35 73t44 58.5q20 20 49 36t51 16q23 0 40.5 -11t31 -26t23 -30.5t15.5 -24.5h9zM342 331q-10 12 -24.5 27t-31.5 28.5t-35.5 22.5t-35.5 9q-14 0 -27.5 -7.5t-26.5 -20.5q-18 -18 -34 -49t-27.5 -67
t-18.5 -72t-7 -64q0 -54 11 -84t33 -30q17 0 39 23t49.5 61t59.5 88t67 104zM282 505l-134 177h80l77 -177h-23z" />
    <glyph glyph-name="aacute" unicode="&#xe1;" horiz-adv-x="471" 
d="M354 368l22 91h40l-47 -200l-53 -228l32 -7l81 81l16 -18q-8 -12 -22.5 -30t-30.5 -34t-31.5 -27.5t-27.5 -11.5q-7 0 -18 3.5t-21 8.5t-17 11t-7 11q0 4 5 23.5t13 49.5t19 68.5t24 80.5h-10q-8 -12 -22.5 -35.5t-32.5 -52t-38.5 -58.5t-41.5 -54.5t-41 -40t-38 -15.5
q-22 0 -37.5 12t-25.5 32t-14.5 45.5t-4.5 52.5q0 33 8 72.5t23 78t35 73t44 58.5q20 20 49 36t51 16q23 0 40.5 -11t31 -26t23 -30.5t15.5 -24.5h9zM342 331q-10 12 -24.5 27t-31.5 28.5t-35.5 22.5t-35.5 9q-14 0 -27.5 -7.5t-26.5 -20.5q-18 -18 -34 -49t-27.5 -67
t-18.5 -72t-7 -64q0 -54 11 -84t33 -30q17 0 39 23t49.5 61t59.5 88t67 104zM252 505h-23l125 177h80z" />
    <glyph glyph-name="acircumflex" unicode="&#xe2;" horiz-adv-x="471" 
d="M354 368l22 91h40l-47 -200l-53 -228l32 -7l81 81l16 -18q-8 -12 -22.5 -30t-30.5 -34t-31.5 -27.5t-27.5 -11.5q-7 0 -18 3.5t-21 8.5t-17 11t-7 11q0 4 5 23.5t13 49.5t19 68.5t24 80.5h-10q-8 -12 -22.5 -35.5t-32.5 -52t-38.5 -58.5t-41.5 -54.5t-41 -40t-38 -15.5
q-22 0 -37.5 12t-25.5 32t-14.5 45.5t-4.5 52.5q0 33 8 72.5t23 78t35 73t44 58.5q20 20 49 36t51 16q23 0 40.5 -11t31 -26t23 -30.5t15.5 -24.5h9zM342 331q-10 12 -24.5 27t-31.5 28.5t-35.5 22.5t-35.5 9q-14 0 -27.5 -7.5t-26.5 -20.5q-18 -18 -34 -49t-27.5 -67
t-18.5 -72t-7 -64q0 -54 11 -84t33 -30q17 0 39 23t49.5 61t59.5 88t67 104zM389 505q-27 40 -48 71q-9 13 -17.5 25.5t-15 22.5t-10.5 16l-5 6h-2l-134 -141h-23l120 177h82l72 -177h-19z" />
    <glyph glyph-name="atilde" unicode="&#xe3;" horiz-adv-x="471" 
d="M354 368l22 91h40l-47 -200l-53 -228l32 -7l81 81l16 -18q-8 -12 -22.5 -30t-30.5 -34t-31.5 -27.5t-27.5 -11.5q-7 0 -18 3.5t-21 8.5t-17 11t-7 11q0 4 5 23.5t13 49.5t19 68.5t24 80.5h-10q-8 -12 -22.5 -35.5t-32.5 -52t-38.5 -58.5t-41.5 -54.5t-41 -40t-38 -15.5
q-22 0 -37.5 12t-25.5 32t-14.5 45.5t-4.5 52.5q0 33 8 72.5t23 78t35 73t44 58.5q20 20 49 36t51 16q23 0 40.5 -11t31 -26t23 -30.5t15.5 -24.5h9zM342 331q-10 12 -24.5 27t-31.5 28.5t-35.5 22.5t-35.5 9q-14 0 -27.5 -7.5t-26.5 -20.5q-18 -18 -34 -49t-27.5 -67
t-18.5 -72t-7 -64q0 -54 11 -84t33 -30q17 0 39 23t49.5 61t59.5 88t67 104zM443 624q-32 -104 -101 -104q-20 0 -38 11t-33.5 24.5t-29.5 24.5t-26 11q-10 0 -18.5 -2.5t-16.5 -9.5t-16 -20t-19 -34h-27q32 104 101 104q20 0 38 -11t34 -24.5t30 -24.5t25 -11q10 0 18 2.5
t16.5 9.5t16.5 20t18 34h28z" />
    <glyph glyph-name="adieresis" unicode="&#xe4;" horiz-adv-x="471" 
d="M354 368l22 91h40l-47 -200l-53 -228l32 -7l81 81l16 -18q-8 -12 -22.5 -30t-30.5 -34t-31.5 -27.5t-27.5 -11.5q-7 0 -18 3.5t-21 8.5t-17 11t-7 11q0 4 5 23.5t13 49.5t19 68.5t24 80.5h-10q-8 -12 -22.5 -35.5t-32.5 -52t-38.5 -58.5t-41.5 -54.5t-41 -40t-38 -15.5
q-22 0 -37.5 12t-25.5 32t-14.5 45.5t-4.5 52.5q0 33 8 72.5t23 78t35 73t44 58.5q20 20 49 36t51 16q23 0 40.5 -11t31 -26t23 -30.5t15.5 -24.5h9zM342 331q-10 12 -24.5 27t-31.5 28.5t-35.5 22.5t-35.5 9q-14 0 -27.5 -7.5t-26.5 -20.5q-18 -18 -34 -49t-27.5 -67
t-18.5 -72t-7 -64q0 -54 11 -84t33 -30q17 0 39 23t49.5 61t59.5 88t67 104zM425 573q0 -19 -12 -34.5t-33 -15.5q-22 0 -34.5 15.5t-12.5 34.5t12.5 34t34.5 15q21 0 33 -15t12 -34zM226 573q0 -19 -12 -34.5t-34 -15.5t-33.5 15.5t-11.5 34.5t11.5 34t33.5 15t34 -15
t12 -34z" />
    <glyph glyph-name="aring" unicode="&#xe5;" horiz-adv-x="471" 
d="M354 368l22 91h40l-47 -200l-53 -228l32 -7l81 81l16 -18q-8 -12 -22.5 -30t-30.5 -34t-31.5 -27.5t-27.5 -11.5q-7 0 -18 3.5t-21 8.5t-17 11t-7 11q0 4 5 23.5t13 49.5t19 68.5t24 80.5h-10q-8 -12 -22.5 -35.5t-32.5 -52t-38.5 -58.5t-41.5 -54.5t-41 -40t-38 -15.5
q-22 0 -37.5 12t-25.5 32t-14.5 45.5t-4.5 52.5q0 33 8 72.5t23 78t35 73t44 58.5q20 20 49 36t51 16q23 0 40.5 -11t31 -26t23 -30.5t15.5 -24.5h9zM342 331q-10 12 -24.5 27t-31.5 28.5t-35.5 22.5t-35.5 9q-14 0 -27.5 -7.5t-26.5 -20.5q-18 -18 -34 -49t-27.5 -67
t-18.5 -72t-7 -64q0 -54 11 -84t33 -30q17 0 39 23t49.5 61t59.5 88t67 104zM373 602q-1 -37 -24 -63.5t-65 -26.5t-65.5 26.5t-23.5 63.5t23.5 63.5t65.5 26.5t66 -26.5t23 -63.5zM344 602q0 26 -15.5 45.5t-44.5 19.5t-44 -19.5t-16 -45.5t15.5 -45.5t45.5 -19.5t44 19.5
t15 45.5z" />
    <glyph glyph-name="ae" unicode="&#xe6;" horiz-adv-x="589" 
d="M347 366q32 42 72 67.5t82 25.5q23 0 41 -7t31 -18t20 -24t7 -25q0 -18 -10 -32.5t-39.5 -34.5t-83.5 -51.5t-142 -83.5q-1 -8 -1 -16v-15q0 -35 9 -60t23 -40.5t30.5 -23t32.5 -7.5q11 0 26.5 7t32.5 18.5t34 25.5t30 27l16 -18q-15 -17 -35 -34t-41.5 -31t-42.5 -23
t-38 -9q-27 0 -50 11.5t-40 32t-26.5 49t-9.5 61.5q0 11 0.5 21t1.5 20q-20 -35 -42 -70t-44.5 -62.5t-44 -45t-39.5 -17.5q-22 0 -37.5 12t-25.5 32t-14.5 45.5t-4.5 52.5q0 33 8 72.5t23 78t35 73t44 58.5q20 20 49 36t51 16q23 0 41 -11t32 -26.5t23.5 -31.5t15.5 -25z
M330 215q69 41 112.5 65.5t68 40.5t33 27.5t8.5 26.5q0 11 -7 21t-18.5 18t-27 13t-32.5 5q-10 0 -24 -9t-24 -19q-12 -12 -25.5 -32t-26 -45t-23 -53.5t-16.5 -58.5h2zM322 331q-6 12 -17 27t-25.5 28.5t-31 22.5t-33.5 9q-14 0 -27.5 -7.5t-26.5 -20.5q-18 -18 -34 -49
t-27.5 -67t-18.5 -72t-7 -64q0 -54 11 -84t33 -30q17 0 39 23t47.5 61t53 88t55.5 104z" />
    <glyph glyph-name="ccedilla" unicode="&#xe7;" horiz-adv-x="351" 
d="M137 -14q-46 8 -76 49.5t-30 102.5q0 66 19.5 124t51.5 102t72.5 69.5t82.5 25.5q18 0 36 -3.5t33 -11t24.5 -19.5t9.5 -29q0 -19 -10 -31t-29 -12q-14 0 -23 7.5t-9 21.5q0 10 7 22q-5 7 -28.5 17.5t-49.5 10.5q-6 0 -19.5 -9t-23.5 -19q-16 -16 -32.5 -43.5
t-30.5 -61.5t-23 -72t-9 -75q0 -35 9 -60t23 -40.5t30.5 -23t32.5 -7.5q11 0 26.5 7t32.5 18.5t34 25.5t30 27l16 -18q-14 -15 -32 -31t-38 -29.5t-39.5 -23t-36.5 -12.5l-50 -47q49 4 82 -16t33 -58q0 -25 -15 -46t-42 -37t-65 -27t-85 -15l-4 18q86 13 127 37.5t41 63.5
q0 21 -19 35t-59 14q-10 0 -23.5 -1t-26.5 -3l2 12z" />
    <glyph glyph-name="egrave" unicode="&#xe8;" horiz-adv-x="343" 
d="M81 171q-1 -8 -1 -10v-9q0 -35 9 -60t23 -40.5t30.5 -23t32.5 -7.5q11 0 26.5 7t32.5 18.5t34 25.5t30 27l16 -18q-15 -17 -35 -34t-41.5 -31t-42.5 -23t-38 -9q-27 0 -50 11.5t-40 32t-26.5 49t-9.5 61.5q0 66 20 124t51.5 102t71.5 69.5t80 25.5q24 0 42.5 -7.5t31 -19
t19.5 -25.5t7 -26q0 -21 -9.5 -38t-38.5 -38.5t-82.5 -53t-142.5 -80.5zM85 201l1 -1q63 35 104.5 59.5t66 43.5t34.5 35t10 35q0 25 -17 42t-42 17q-21 0 -40 -12t-33 -26q-10 -10 -22.5 -29.5t-24.5 -45t-22 -55.5t-16 -62zM248 505l-134 177h80l77 -177h-23z" />
    <glyph glyph-name="eacute" unicode="&#xe9;" horiz-adv-x="343" 
d="M81 171q-1 -8 -1 -10v-9q0 -35 9 -60t23 -40.5t30.5 -23t32.5 -7.5q11 0 26.5 7t32.5 18.5t34 25.5t30 27l16 -18q-15 -17 -35 -34t-41.5 -31t-42.5 -23t-38 -9q-27 0 -50 11.5t-40 32t-26.5 49t-9.5 61.5q0 66 20 124t51.5 102t71.5 69.5t80 25.5q24 0 42.5 -7.5t31 -19
t19.5 -25.5t7 -26q0 -21 -9.5 -38t-38.5 -38.5t-82.5 -53t-142.5 -80.5zM85 201l1 -1q63 35 104.5 59.5t66 43.5t34.5 35t10 35q0 25 -17 42t-42 17q-21 0 -40 -12t-33 -26q-10 -10 -22.5 -29.5t-24.5 -45t-22 -55.5t-16 -62zM218 505h-23l125 177h80z" />
    <glyph glyph-name="ecircumflex" unicode="&#xea;" horiz-adv-x="343" 
d="M81 171q-1 -8 -1 -10v-9q0 -35 9 -60t23 -40.5t30.5 -23t32.5 -7.5q11 0 26.5 7t32.5 18.5t34 25.5t30 27l16 -18q-15 -17 -35 -34t-41.5 -31t-42.5 -23t-38 -9q-27 0 -50 11.5t-40 32t-26.5 49t-9.5 61.5q0 66 20 124t51.5 102t71.5 69.5t80 25.5q24 0 42.5 -7.5t31 -19
t19.5 -25.5t7 -26q0 -21 -9.5 -38t-38.5 -38.5t-82.5 -53t-142.5 -80.5zM85 201l1 -1q63 35 104.5 59.5t66 43.5t34.5 35t10 35q0 25 -17 42t-42 17q-21 0 -40 -12t-33 -26q-10 -10 -22.5 -29.5t-24.5 -45t-22 -55.5t-16 -62zM355 505q-27 40 -48 71q-9 13 -17.5 25.5
t-15 22.5t-11.5 16l-4 6h-2l-134 -141h-23l120 177h82l72 -177h-19z" />
    <glyph glyph-name="edieresis" unicode="&#xeb;" horiz-adv-x="343" 
d="M81 171q-1 -8 -1 -10v-9q0 -35 9 -60t23 -40.5t30.5 -23t32.5 -7.5q11 0 26.5 7t32.5 18.5t34 25.5t30 27l16 -18q-15 -17 -35 -34t-41.5 -31t-42.5 -23t-38 -9q-27 0 -50 11.5t-40 32t-26.5 49t-9.5 61.5q0 66 20 124t51.5 102t71.5 69.5t80 25.5q24 0 42.5 -7.5t31 -19
t19.5 -25.5t7 -26q0 -21 -9.5 -38t-38.5 -38.5t-82.5 -53t-142.5 -80.5zM85 201l1 -1q63 35 104.5 59.5t66 43.5t34.5 35t10 35q0 25 -17 42t-42 17q-21 0 -40 -12t-33 -26q-10 -10 -22.5 -29.5t-24.5 -45t-22 -55.5t-16 -62zM391 573q0 -19 -12 -34.5t-33 -15.5
q-22 0 -34.5 15.5t-12.5 34.5t12.5 34t34.5 15q21 0 33 -15t12 -34zM192 573q0 -19 -12 -34.5t-34 -15.5t-33.5 15.5t-11.5 34.5t11.5 34t33.5 15t34 -15t12 -34z" />
    <glyph glyph-name="igrave" unicode="&#xec;" horiz-adv-x="260" 
d="M228 87q-8 -12 -22.5 -30t-30.5 -34t-31.5 -27.5t-27.5 -11.5q-7 0 -18 3.5t-20.5 8.5t-16 11t-5.5 11l109 394l-32 7l-81 -81l-16 18q8 12 22.5 30t30.5 34t31.5 27.5t27.5 11.5q8 0 19.5 -3.5t22 -8.5t17.5 -11t5 -11l-113 -394l32 -7l81 81zM187 505l-134 177h80
l77 -177h-23z" />
    <glyph glyph-name="iacute" unicode="&#xed;" horiz-adv-x="260" 
d="M228 87q-8 -12 -22.5 -30t-30.5 -34t-31.5 -27.5t-27.5 -11.5q-7 0 -18 3.5t-20.5 8.5t-16 11t-5.5 11l109 394l-32 7l-81 -81l-16 18q8 12 22.5 30t30.5 34t31.5 27.5t27.5 11.5q8 0 19.5 -3.5t22 -8.5t17.5 -11t5 -11l-113 -394l32 -7l81 81zM167 505h-23l125 177h80z
" />
    <glyph glyph-name="icircumflex" unicode="&#xee;" horiz-adv-x="260" 
d="M228 87q-8 -12 -22.5 -30t-30.5 -34t-31.5 -27.5t-27.5 -11.5q-7 0 -18 3.5t-20.5 8.5t-16 11t-5.5 11l109 394l-32 7l-81 -81l-16 18q8 12 22.5 30t30.5 34t31.5 27.5t27.5 11.5q8 0 19.5 -3.5t22 -8.5t17.5 -11t5 -11l-113 -394l32 -7l81 81zM294 505q-27 40 -48 71
q-9 13 -17.5 25.5t-15 22.5t-11.5 16l-4 6h-2l-134 -141h-23l120 177h82l72 -177h-19z" />
    <glyph glyph-name="idieresis" unicode="&#xef;" horiz-adv-x="260" 
d="M228 87q-8 -12 -22.5 -30t-30.5 -34t-31.5 -27.5t-27.5 -11.5q-7 0 -18 3.5t-20.5 8.5t-16 11t-5.5 11l109 394l-32 7l-81 -81l-16 18q8 12 22.5 30t30.5 34t31.5 27.5t27.5 11.5q8 0 19.5 -3.5t22 -8.5t17.5 -11t5 -11l-113 -394l32 -7l81 81zM320 573q0 -19 -12 -34.5
t-33 -15.5q-22 0 -34.5 15.5t-12.5 34.5t12.5 34t34.5 15q21 0 33 -15t12 -34zM121 573q0 -19 -12 -34.5t-34 -15.5t-33.5 15.5t-11.5 34.5t11.5 34t33.5 15t34 -15t12 -34z" />
    <glyph glyph-name="eth" unicode="&#xf0;" horiz-adv-x="429" 
d="M99 260q-8 -29 -12 -55t-4 -46q0 -27 5 -53.5t16.5 -47t30.5 -33t47 -12.5t51 15t41 39t31.5 54.5t22.5 61.5q8 28 12 54t4 46q0 27 -5 53.5t-16.5 47.5t-30.5 33.5t-47 12.5q-27 0 -50 -15t-41.5 -39t-32 -54.5t-22.5 -61.5zM133 514l9 38l123 38q-44 44 -107 71l26 15
q35 -12 64.5 -31t54.5 -43l152 47l-9 -38q-33 -10 -59 -18q-22 -7 -40 -12.5t-19 -5.5q40 -49 61 -109t20 -126q0 -36 -7 -76.5t-21 -80t-34 -75.5t-46 -63.5t-58 -44t-69 -16.5t-64 17t-43.5 43.5t-24.5 59.5t-8 65q0 45 15 95.5t43 94t69 72t92 28.5q48 0 73.5 -24.5
t39.5 -66.5q-4 53 -22.5 103t-53.5 92z" />
    <glyph glyph-name="ntilde" unicode="&#xf1;" horiz-adv-x="515" 
d="M483 87q-8 -12 -22.5 -30t-30.5 -34t-31.5 -27.5t-27.5 -11.5q-7 0 -17.5 3.5t-19.5 8.5t-15.5 11t-6.5 11q0 11 5 31.5t13 47.5t17.5 59t19.5 66q17 58 29 99.5t12 53.5q0 19 -17.5 33t-35.5 14q-11 0 -35.5 -31t-56 -80.5t-66 -110t-66.5 -120.5l-13 -84l-53 5l31 147
l59 264l-32 7l-81 -81l-16 18q8 12 22.5 30t30.5 34t31.5 27.5t27.5 11.5q8 0 18.5 -3.5t20.5 -8.5t17 -11t7 -11q0 -8 -17 -77t-46 -190h10q22 42 47 84.5t48.5 79.5t43.5 65.5t31 41.5q6 8 18.5 19t29.5 11q16 0 31.5 -5.5t28 -15.5t20 -23.5t7.5 -28.5q0 -8 -4 -26.5
t-11 -43t-14.5 -52t-15.5 -52.5q-17 -57 -31 -104.5t-23 -76.5l32 -7l81 81zM465 624q-32 -104 -101 -104q-20 0 -38 11t-33.5 24.5t-29.5 24.5t-26 11q-10 0 -18.5 -2.5t-16.5 -9.5t-16 -20t-19 -34h-27q32 104 101 104q20 0 38 -11t34 -24.5t30 -24.5t25 -11q10 0 18 2.5
t16.5 9.5t16.5 20t18 34h28z" />
    <glyph glyph-name="ograve" unicode="&#xf2;" horiz-adv-x="429" 
d="M393 273q0 -45 -15 -95.5t-43 -93.5t-69 -71.5t-92 -28.5q-37 0 -64 17t-43.5 43.5t-24.5 59.5t-8 65q0 45 15 95.5t43 94t69 72t92 28.5q38 0 64.5 -17t43 -44t24.5 -60t8 -65zM344 283q0 27 -5 53.5t-16.5 47.5t-30.5 33.5t-47 12.5q-27 0 -50 -15t-41.5 -39t-32 -54.5
t-22.5 -61.5q-8 -29 -12 -55t-4 -46q0 -27 5 -53.5t16.5 -47t30.5 -33t47 -12.5t51 15t41 39t31.5 54.5t22.5 61.5q8 28 12 54t4 46zM281 505l-134 177h80l77 -177h-23z" />
    <glyph glyph-name="oacute" unicode="&#xf3;" horiz-adv-x="429" 
d="M393 273q0 -45 -15 -95.5t-43 -93.5t-69 -71.5t-92 -28.5q-37 0 -64 17t-43.5 43.5t-24.5 59.5t-8 65q0 45 15 95.5t43 94t69 72t92 28.5q38 0 64.5 -17t43 -44t24.5 -60t8 -65zM344 283q0 27 -5 53.5t-16.5 47.5t-30.5 33.5t-47 12.5q-27 0 -50 -15t-41.5 -39t-32 -54.5
t-22.5 -61.5q-8 -29 -12 -55t-4 -46q0 -27 5 -53.5t16.5 -47t30.5 -33t47 -12.5t51 15t41 39t31.5 54.5t22.5 61.5q8 28 12 54t4 46zM251 505h-23l125 177h80z" />
    <glyph glyph-name="ocircumflex" unicode="&#xf4;" horiz-adv-x="429" 
d="M393 273q0 -45 -15 -95.5t-43 -93.5t-69 -71.5t-92 -28.5q-37 0 -64 17t-43.5 43.5t-24.5 59.5t-8 65q0 45 15 95.5t43 94t69 72t92 28.5q38 0 64.5 -17t43 -44t24.5 -60t8 -65zM344 283q0 27 -5 53.5t-16.5 47.5t-30.5 33.5t-47 12.5q-27 0 -50 -15t-41.5 -39t-32 -54.5
t-22.5 -61.5q-8 -29 -12 -55t-4 -46q0 -27 5 -53.5t16.5 -47t30.5 -33t47 -12.5t51 15t41 39t31.5 54.5t22.5 61.5q8 28 12 54t4 46zM378 505q-27 40 -48 71q-9 13 -17.5 25.5t-15 22.5t-11.5 16l-4 6h-2l-134 -141h-23l120 177h82l72 -177h-19z" />
    <glyph glyph-name="otilde" unicode="&#xf5;" horiz-adv-x="429" 
d="M393 273q0 -45 -15 -95.5t-43 -93.5t-69 -71.5t-92 -28.5q-37 0 -64 17t-43.5 43.5t-24.5 59.5t-8 65q0 45 15 95.5t43 94t69 72t92 28.5q38 0 64.5 -17t43 -44t24.5 -60t8 -65zM344 283q0 27 -5 53.5t-16.5 47.5t-30.5 33.5t-47 12.5q-27 0 -50 -15t-41.5 -39t-32 -54.5
t-22.5 -61.5q-8 -29 -12 -55t-4 -46q0 -27 5 -53.5t16.5 -47t30.5 -33t47 -12.5t51 15t41 39t31.5 54.5t22.5 61.5q8 28 12 54t4 46zM432 624q-32 -104 -101 -104q-20 0 -38 11t-33.5 24.5t-29.5 24.5t-26 11q-10 0 -18.5 -2.5t-16.5 -9.5t-16 -20t-19 -34h-27
q32 104 101 104q20 0 38 -11t34 -24.5t30 -24.5t25 -11q10 0 18 2.5t16.5 9.5t16.5 20t18 34h28z" />
    <glyph glyph-name="odieresis" unicode="&#xf6;" horiz-adv-x="429" 
d="M393 273q0 -45 -15 -95.5t-43 -93.5t-69 -71.5t-92 -28.5q-37 0 -64 17t-43.5 43.5t-24.5 59.5t-8 65q0 45 15 95.5t43 94t69 72t92 28.5q38 0 64.5 -17t43 -44t24.5 -60t8 -65zM344 283q0 27 -5 53.5t-16.5 47.5t-30.5 33.5t-47 12.5q-27 0 -50 -15t-41.5 -39t-32 -54.5
t-22.5 -61.5q-8 -29 -12 -55t-4 -46q0 -27 5 -53.5t16.5 -47t30.5 -33t47 -12.5t51 15t41 39t31.5 54.5t22.5 61.5q8 28 12 54t4 46zM414 573q0 -19 -12 -34.5t-33 -15.5q-22 0 -34.5 15.5t-12.5 34.5t12.5 34t34.5 15q21 0 33 -15t12 -34zM215 573q0 -19 -12 -34.5
t-34 -15.5t-33.5 15.5t-11.5 34.5t11.5 34t33.5 15t34 -15t12 -34z" />
    <glyph glyph-name="divide" unicode="&#xf7;" horiz-adv-x="486" 
d="M41 208l3 54h399l3 -54h-405zM296 94q0 -20 -14 -36t-37 -16t-37.5 16t-14.5 36t14.5 35.5t37.5 15.5t37 -15.5t14 -35.5zM296 374q0 -20 -14.5 -36t-37.5 -16t-37 16t-14 36t14 36t37 16t37.5 -16t14.5 -36z" />
    <glyph glyph-name="oslash" unicode="&#xf8;" horiz-adv-x="429" 
d="M109 51q12 -17 29.5 -27.5t43.5 -10.5q28 0 51 15t41 39t31.5 54.5t22.5 61.5q8 28 12 54t4 46q0 21 -3 41.5t-10 38.5zM317 392q-12 17 -29 27.5t-43 10.5q-27 0 -50 -15t-41.5 -39t-32 -54.5t-22.5 -61.5q-8 -29 -12 -55t-4 -46t2.5 -40t8.5 -38zM67 43
q-17 27 -25 60.5t-8 65.5q0 45 15 95.5t43 94t69 72t92 28.5q28 0 49.5 -9.5t37.5 -25.5l66 92h34q-23 -31 -41 -57q-15 -22 -27.5 -39.5t-13.5 -18.5q18 -27 26.5 -61t8.5 -67q0 -45 -15 -95.5t-43 -93.5t-69 -71.5t-92 -28.5q-28 0 -49.5 9.5t-38.5 25.5l-66 -93h-37z" />
    <glyph glyph-name="ugrave" unicode="&#xf9;" horiz-adv-x="515" 
d="M32 356q8 12 22.5 30t30.5 34t31.5 27.5t27.5 11.5q8 0 18 -3.5t19 -8.5t15.5 -11t6.5 -11q0 -11 -5 -31.5t-13 -47.5t-17.5 -59t-19.5 -66q-17 -58 -29 -99t-12 -53q0 -19 17.5 -33.5t35.5 -14.5q11 0 35.5 31t56 80.5t66 110t66.5 120.5l18 84l53 -5l-36 -147l-59 -264
l32 -7l81 81l16 -18q-8 -12 -22.5 -30t-30.5 -34t-31.5 -27.5t-27.5 -11.5q-7 0 -18 3.5t-21 8.5t-17 11t-7 11q0 8 17 77t46 190h-10q-21 -42 -46 -84.5t-49 -79.5t-44 -65t-31 -42q-6 -8 -21 -19t-38 -11q-32 0 -54 21t-22 52q0 8 4 26.5t11 43t15 52t15 52.5
q17 57 31 104.5t23 76.5l-32 7l-81 -81zM304 505l-134 177h80l77 -177h-23z" />
    <glyph glyph-name="uacute" unicode="&#xfa;" horiz-adv-x="515" 
d="M32 356q8 12 22.5 30t30.5 34t31.5 27.5t27.5 11.5q8 0 18 -3.5t19 -8.5t15.5 -11t6.5 -11q0 -11 -5 -31.5t-13 -47.5t-17.5 -59t-19.5 -66q-17 -58 -29 -99t-12 -53q0 -19 17.5 -33.5t35.5 -14.5q11 0 35.5 31t56 80.5t66 110t66.5 120.5l18 84l53 -5l-36 -147l-59 -264
l32 -7l81 81l16 -18q-8 -12 -22.5 -30t-30.5 -34t-31.5 -27.5t-27.5 -11.5q-7 0 -18 3.5t-21 8.5t-17 11t-7 11q0 8 17 77t46 190h-10q-21 -42 -46 -84.5t-49 -79.5t-44 -65t-31 -42q-6 -8 -21 -19t-38 -11q-32 0 -54 21t-22 52q0 8 4 26.5t11 43t15 52t15 52.5
q17 57 31 104.5t23 76.5l-32 7l-81 -81zM284 505h-23l125 177h80z" />
    <glyph glyph-name="ucircumflex" unicode="&#xfb;" horiz-adv-x="515" 
d="M32 356q8 12 22.5 30t30.5 34t31.5 27.5t27.5 11.5q8 0 18 -3.5t19 -8.5t15.5 -11t6.5 -11q0 -11 -5 -31.5t-13 -47.5t-17.5 -59t-19.5 -66q-17 -58 -29 -99t-12 -53q0 -19 17.5 -33.5t35.5 -14.5q11 0 35.5 31t56 80.5t66 110t66.5 120.5l18 84l53 -5l-36 -147l-59 -264
l32 -7l81 81l16 -18q-8 -12 -22.5 -30t-30.5 -34t-31.5 -27.5t-27.5 -11.5q-7 0 -18 3.5t-21 8.5t-17 11t-7 11q0 8 17 77t46 190h-10q-21 -42 -46 -84.5t-49 -79.5t-44 -65t-31 -42q-6 -8 -21 -19t-38 -11q-32 0 -54 21t-22 52q0 8 4 26.5t11 43t15 52t15 52.5
q17 57 31 104.5t23 76.5l-32 7l-81 -81zM421 505q-27 40 -48 71q-9 13 -17.5 25.5t-15 22.5t-10.5 16l-5 6h-2l-134 -141h-23l120 177h82l72 -177h-19z" />
    <glyph glyph-name="udieresis" unicode="&#xfc;" horiz-adv-x="515" 
d="M32 356q8 12 22.5 30t30.5 34t31.5 27.5t27.5 11.5q8 0 18 -3.5t19 -8.5t15.5 -11t6.5 -11q0 -11 -5 -31.5t-13 -47.5t-17.5 -59t-19.5 -66q-17 -58 -29 -99t-12 -53q0 -19 17.5 -33.5t35.5 -14.5q11 0 35.5 31t56 80.5t66 110t66.5 120.5l18 84l53 -5l-36 -147l-59 -264
l32 -7l81 81l16 -18q-8 -12 -22.5 -30t-30.5 -34t-31.5 -27.5t-27.5 -11.5q-7 0 -18 3.5t-21 8.5t-17 11t-7 11q0 8 17 77t46 190h-10q-21 -42 -46 -84.5t-49 -79.5t-44 -65t-31 -42q-6 -8 -21 -19t-38 -11q-32 0 -54 21t-22 52q0 8 4 26.5t11 43t15 52t15 52.5
q17 57 31 104.5t23 76.5l-32 7l-81 -81zM457 573q0 -19 -12 -34.5t-33 -15.5q-22 0 -34.5 15.5t-12.5 34.5t12.5 34t34.5 15q21 0 33 -15t12 -34zM258 573q0 -19 -12 -34.5t-34 -15.5t-33.5 15.5t-11.5 34.5t11.5 34t33.5 15t34 -15t12 -34z" />
    <glyph glyph-name="yacute" unicode="&#xfd;" horiz-adv-x="429" 
d="M420 407q0 -26 -13 -52t-36 -62l-152 -240l-57 -87q-33 -66 -58 -109t-47.5 -68t-45.5 -35t-52 -10q-30 0 -53 15.5t-23 40.5q0 18 10.5 29.5t26.5 11.5q18 0 30 -15t7 -37l52 -11q2 1 9.5 10.5t18 24.5t23 34t25.5 39q30 46 66 104l-18 5l-4 410l-30 6l-78 -79l-17 17
q8 13 21 31.5t28.5 36t30.5 30t27 12.5q8 0 18 -5t20 -11.5t16.5 -14t6.5 -13.5v-378h8l181 303l12 33q-15 2 -30.5 12t-15.5 32q0 17 12 29.5t29 12.5q23 0 37.5 -14.5t14.5 -37.5zM221 505h-23l125 177h80z" />
    <glyph glyph-name="thorn" unicode="&#xfe;" horiz-adv-x="443" 
d="M416 325q0 -33 -7.5 -71.5t-21 -76.5t-32 -71.5t-39.5 -54.5q-29 -29 -64 -48t-68 -19q-30 0 -56 9.5t-46 22.5h-3l-45 -218q0 -2 0.5 -5t2.5 -1l91 -7l2 -31h-232l2 31l80 7q2 -2 4 0.5t3 5.5l186 831q3 13 -10 15l-83 7l3 25l153 21l-56 -234l-86 -312h10
q26 50 56 103.5t60.5 98.5t59 75t51.5 32q22 0 38 -12t26.5 -31.5t15.5 -43.5t5 -48zM367 314q0 40 -14 71t-40 34q-12 0 -32.5 -22.5t-47 -63.5t-59 -97t-68.5 -124l-11 -45q9 -9 21.5 -18.5t26 -17.5t28.5 -13t28 -5q10 0 31 8t36 23q21 21 39 54t32 71t22 76t8 69z" />
    <glyph glyph-name="ydieresis" unicode="&#xff;" horiz-adv-x="429" 
d="M420 407q0 -26 -13 -52t-36 -62l-152 -240l-57 -87q-33 -66 -58 -109t-47.5 -68t-45.5 -35t-52 -10q-30 0 -53 15.5t-23 40.5q0 18 10.5 29.5t26.5 11.5q18 0 30 -15t7 -37l52 -11q2 1 9.5 10.5t18 24.5t23 34t25.5 39q30 46 66 104l-18 5l-4 410l-30 6l-78 -79l-17 17
q8 13 21 31.5t28.5 36t30.5 30t27 12.5q8 0 18 -5t20 -11.5t16.5 -14t6.5 -13.5v-378h8l181 303l12 33q-15 2 -30.5 12t-15.5 32q0 17 12 29.5t29 12.5q23 0 37.5 -14.5t14.5 -37.5zM414 573q0 -19 -12 -34.5t-33 -15.5q-22 0 -34.5 15.5t-12.5 34.5t12.5 34t34.5 15
q21 0 33 -15t12 -34zM215 573q0 -19 -12 -34.5t-34 -15.5t-33.5 15.5t-11.5 34.5t11.5 34t33.5 15t34 -15t12 -34z" />
    <glyph glyph-name="dotlessi" unicode="&#x131;" horiz-adv-x="260" 
d="M228 87q-8 -12 -22.5 -30t-30.5 -34t-31.5 -27.5t-27.5 -11.5q-7 0 -18 3.5t-20.5 8.5t-16 11t-5.5 11l109 394l-32 7l-81 -81l-16 18q8 12 22.5 30t30.5 34t31.5 27.5t27.5 11.5q8 0 19.5 -3.5t22 -8.5t17.5 -11t5 -11l-113 -394l32 -7l81 81z" />
    <glyph glyph-name="Lslash" unicode="&#x141;" horiz-adv-x="528" 
d="M44 185v38l87 23l44 334q1 6 -4 6l-76 8l-3 31h235l-3 -31l-90 -8q-5 0 -6 -6l-42 -319l119 32v-38l-124 -33l-25 -188h1q90 0 139 0.5t73 3.5t29.5 8t8.5 14l48 136h35l-47 -196h-425l3 31l78 8q5 0 6 6l21 162z" />
    <glyph glyph-name="lslash" unicode="&#x142;" horiz-adv-x="254" 
d="M17 185v38l91 25l94 381q3 13 -10 15l-83 7l3 25l149 21l-113 -438l76 21v-38l-87 -24l-48 -187l32 -7l85 81l16 -18q-8 -12 -22.5 -30t-30.5 -34t-31.5 -27.5t-27.5 -11.5q-7 0 -18 3.5t-20.5 8.5t-15.5 11t-5 11l47 189z" />
    <glyph glyph-name="OE" unicode="&#x152;" horiz-adv-x="885" 
d="M792 0h-446q-64 0 -118 18.5t-93.5 54.5t-61.5 89t-22 122t24.5 129.5t70.5 106.5q28 28 62 48t71 32.5t75 18.5t75 6h444l-22 -169h-31l-4 109q0 9 -5 14.5t-26 8.5t-65 4t-123 1h-46l-34 -257h64q38 0 58.5 0.5t31 2t13.5 4t5 7.5l30 66h24l-44 -193h-24l3 65
q0 5 -1.5 8t-11 4.5t-30.5 2.5t-59 1h-63l-36 -272h23q90 0 140 1t74.5 4t31.5 8.5t10 14.5l40 107h36zM413 593q-62 -3 -117 -23.5t-96.5 -58.5t-66 -93.5t-24.5 -130.5q0 -63 18.5 -111t51.5 -80t80 -48.5t104 -16.5h61l72 551z" />
    <glyph glyph-name="oe" unicode="&#x153;" horiz-adv-x="644" 
d="M655 385q0 -18 -10 -32.5t-39.5 -34.5t-83.5 -51.5t-142 -83.5q-1 -8 -1 -16v-15q0 -35 9 -60t23 -40.5t30.5 -23t32.5 -7.5q11 0 26.5 7t32.5 18.5t34 25.5t30 27l16 -18q-15 -17 -35 -34t-41.5 -31t-42.5 -23t-38 -9q-42 0 -74.5 28t-44.5 75q-29 -45 -69.5 -74
t-93.5 -29q-37 0 -64 17t-43.5 43.5t-24.5 59.5t-8 65q0 45 15 95.5t43 94t69 72t92 28.5q28 0 49.5 -9.5t38 -26t27.5 -38t17 -45.5q32 54 77.5 86.5t93.5 32.5q23 0 41 -7t31 -18t20 -24t7 -25zM385 215q69 41 112.5 65.5t68 40.5t33 27.5t8.5 26.5q0 11 -7 21t-18.5 18
t-27 13t-32.5 5q-10 0 -24 -9t-24 -19q-12 -12 -25.5 -32t-26 -45t-23 -53.5t-16.5 -58.5h2zM344 283q0 27 -5 53.5t-16.5 47.5t-30.5 33.5t-47 12.5q-27 0 -50 -15t-41.5 -39t-32 -54.5t-22.5 -61.5q-8 -29 -12 -55t-4 -46q0 -27 5 -53.5t16.5 -47t30.5 -33t47 -12.5t51 15
t41 39t31.5 54.5t22.5 61.5q8 28 12 54t4 46z" />
    <glyph glyph-name="Scaron" unicode="&#x160;" horiz-adv-x="474" 
d="M419 163q0 -49 -19.5 -83t-51.5 -55t-72.5 -30.5t-83.5 -9.5q-42 0 -85 5t-84 16l6 173h33l18 -140q25 -11 59 -16t61 -5q31 0 62 6.5t55.5 22t40 40.5t15.5 61q0 30 -12 52t-31.5 40t-44.5 32.5t-52 28.5q-28 15 -55 31.5t-48.5 37.5t-34.5 47.5t-13 62.5q0 45 20 75.5
t52 49t71 26.5t77 8q28 0 56 -2t55 -8l55 15l-25 -191h-34l-4 127q-22 14 -54.5 20.5t-58.5 6.5q-28 0 -56.5 -5.5t-51.5 -19t-37.5 -35.5t-14.5 -55q0 -30 12 -53t31.5 -41t44.5 -32.5t52 -29.5t53.5 -31t47 -36.5t33.5 -46t13 -59.5zM334 687h-82l-72 177h19l96 -141h2
l134 141h23z" />
    <glyph glyph-name="scaron" unicode="&#x161;" horiz-adv-x="323" 
d="M319 396q0 -19 -10 -31t-29 -12q-14 0 -23 10t-9 24q0 6 0.5 13t1.5 12q-23 8 -44.5 12t-44.5 5q-33 -10 -47.5 -30.5t-14.5 -50.5q0 -14 4 -25.5t13.5 -23.5t25.5 -26l40 -35q34 -29 61.5 -61t27.5 -68q0 -25 -11.5 -47.5t-32.5 -39.5t-50.5 -27.5t-65.5 -10.5
q-50 0 -80 17.5t-30 46.5q0 18 10.5 30t28.5 12q14 0 24 -10t10 -24q0 -5 -1 -12.5t-2 -9.5q20 -9 44 -13t53 -6q32 14 46.5 36t14.5 52q0 29 -22.5 53t-60.5 57q-16 14 -32 29t-29 31t-20.5 32.5t-7.5 34.5q0 29 13.5 51t35 37t49.5 23t57 8q17 0 35.5 -3t34.5 -10
t26.5 -19t10.5 -31zM248 505h-82l-72 177h19l96 -141h2l134 141h23z" />
    <glyph glyph-name="Ydieresis" unicode="&#x178;" horiz-adv-x="588" 
d="M644 594l-67 -7q-8 -2 -12 -7l-234 -313l-30 -222q-1 -6 5 -6l85 -8l3 -31h-243l3 31l89 8q4 0 5 6l29 220l-157 314q-4 7 -11 8l-61 7l-3 31h210l-3 -31l-72 -6q-9 0 -5 -9l134 -280h2l207 281q2 2 1 4.5t-3 2.5l-71 7l-3 31h205zM514 755q0 -19 -12 -34.5t-33 -15.5
q-22 0 -34.5 15.5t-12.5 34.5t12.5 34t34.5 15q21 0 33 -15t12 -34zM315 755q0 -19 -12 -34.5t-34 -15.5t-33.5 15.5t-11.5 34.5t11.5 34t33.5 15t34 -15t12 -34z" />
    <glyph glyph-name="Zcaron" unicode="&#x17d;" horiz-adv-x="504" 
d="M442 0h-453l3 28l480 563v2h-109q-79 0 -123.5 -1t-66.5 -4t-28 -8.5t-9 -14.5l-32 -109h-34l22 169h450l-4 -30l-476 -561l-1 -2h87q90 0 140.5 1t75.5 4t32 8.5t10 14.5l44 124h37zM369 687h-82l-72 177h19l96 -141h2l134 141h23z" />
    <glyph glyph-name="zcaron" unicode="&#x17e;" horiz-adv-x="371" 
d="M294 348q-25 14 -52 28t-51.5 26t-43.5 21.5t-30 13.5l-18 -26q18 -25 18 -40q0 -14 -9.5 -23t-23.5 -9q-18 0 -27.5 10t-9.5 23q0 15 7.5 30t21 27.5t32 20.5t39.5 9q29 0 54.5 -11t46.5 -27t36 -32.5t22 -28.5l7 2l34 97q22 -4 32.5 -10.5t10.5 -20.5q0 -20 -17 -41.5
t-38 -35.5l-257 -242q74 -42 118.5 -70t65.5 -34l22 29q-14 14 -19.5 24.5t-5.5 18.5q0 12 10 21t27 9q16 0 24.5 -9.5t8.5 -23.5q0 -15 -7 -30t-19 -27.5t-28.5 -21.5t-36.5 -11q-26 0 -54 13t-52 31t-42 37t-26 32l-6 -4l-35 -109q-44 9 -44 36q0 23 17 45t39 36zM282 505
h-82l-72 177h19l96 -141h2l134 141h23z" />
    <glyph glyph-name="florin" unicode="&#x192;" horiz-adv-x="499" 
d="M474 587q0 -18 -9.5 -30.5t-23.5 -12.5q-20 0 -32 14t-10 37l-59 -26q-7 -10 -14.5 -29.5t-14.5 -44.5t-13.5 -53t-12.5 -54h136l2 -38h-139q-3 -14 -7.5 -40t-11 -57.5t-15 -65.5t-18.5 -65.5t-22 -56t-25 -37.5q-22 -21 -46.5 -32.5t-45.5 -11.5q-23 0 -39.5 15.5
t-16.5 33.5q0 15 10 26t24 11q18 0 30 -14.5t14 -35.5l65 39q5 12 11 32.5t11.5 45.5t11 53t10.5 56l16 104l-87 2l3 27l91 15q17 81 38.5 127t44.5 69q16 16 41.5 28.5t48.5 12.5q21 0 37.5 -11.5t16.5 -32.5z" />
    <glyph glyph-name="circumflex" unicode="&#x2c6;" 
d="M354 505q-27 40 -48 71q-9 13 -17.5 25.5t-15 22.5t-11.5 16l-4 6h-2l-134 -141h-23l120 177h82l72 -177h-19z" />
    <glyph glyph-name="caron" unicode="&#x2c7;" 
d="M277 505h-82l-72 177h19l96 -141h2l134 141h23z" />
    <glyph glyph-name="breve" unicode="&#x2d8;" 
d="M397 682q-10 -29 -24 -60t-32.5 -57t-44 -43t-60.5 -17q-33 0 -54 17t-33 43t-17.5 57t-8.5 60h24q11 -77 34.5 -107.5t58.5 -30.5t66 30.5t63 107.5h28z" />
    <glyph glyph-name="dotaccent" unicode="&#x2d9;" horiz-adv-x="399" 
d="M298 593q0 -21 -13.5 -38t-37.5 -17t-37 17t-13 38t13 37.5t37 16.5t37.5 -16.5t13.5 -37.5z" />
    <glyph glyph-name="ring" unicode="&#x2da;" 
d="M338 602q-1 -37 -24 -63.5t-65 -26.5t-65.5 26.5t-23.5 63.5t23.5 63.5t65.5 26.5t66 -26.5t23 -63.5zM309 602q0 26 -15.5 45.5t-44.5 19.5t-44 -19.5t-16 -45.5t15.5 -45.5t45.5 -19.5t44 19.5t15 45.5z" />
    <glyph glyph-name="ogonek" unicode="&#x2db;" 
d="M246 -202q-20 -15 -44.5 -25.5t-50.5 -10.5q-19 0 -37 7t-31.5 20.5t-20.5 32.5t-4 42q3 26 18 49t37.5 42.5t50 35t55.5 25.5h37q-69 -32 -109.5 -67.5t-47.5 -81.5q-5 -33 17 -52.5t51 -19.5q23 0 39.5 6t36.5 15z" />
    <glyph glyph-name="tilde" unicode="&#x2dc;" 
d="M408 624q-32 -104 -101 -104q-20 0 -38 11t-33.5 24.5t-29.5 24.5t-26 11q-10 0 -18.5 -2.5t-16.5 -9.5t-16 -20t-19 -34h-27q32 104 101 104q20 0 38 -11t34 -24.5t30 -24.5t25 -11q10 0 18 2.5t16.5 9.5t16.5 20t18 34h28z" />
    <glyph glyph-name="hungarumlaut" unicode="&#x2dd;" 
d="M280 505h-24l112 177h71zM132 505h-24l112 177h71z" />
    <glyph glyph-name="endash" unicode="&#x2013;" horiz-adv-x="470" 
d="M23 205l2 38h418l4 -38h-424z" />
    <glyph glyph-name="emdash" unicode="&#x2014;" horiz-adv-x="932" 
d="M23 205l2 38h880l4 -38h-886z" />
    <glyph glyph-name="quoteleft" unicode="&#x2018;" horiz-adv-x="212" 
d="M193 445q-2 -17 -14 -31.5t-38 -14.5q-35 0 -53.5 24.5t-13.5 59.5q4 29 18.5 56t35.5 50t46.5 43t50.5 36l13 -16q-41 -29 -67 -60.5t-32 -74.5q-3 -19 5.5 -32.5t19 -21.5t20 -12.5t9.5 -5.5z" />
    <glyph glyph-name="quoteright" unicode="&#x2019;" horiz-adv-x="212" 
d="M218 575q-4 -29 -19 -56t-36 -50t-46 -43t-51 -36l-13 16q41 29 67.5 60.5t31.5 74.5q3 20 -5 33.5t-18.5 21.5t-20 12t-9.5 5q2 17 14 31.5t38 14.5q35 0 53.5 -24.5t13.5 -59.5z" />
    <glyph glyph-name="quotesinglbase" unicode="&#x201a;" horiz-adv-x="212" 
d="M144 18q-4 -29 -19 -56t-36 -50t-46 -43t-51 -36l-13 16q41 29 67.5 60.5t31.5 74.5q3 20 -5 33.5t-18.5 21.5t-20 12t-9.5 5q2 17 14 31.5t38 14.5q35 0 53.5 -24.5t13.5 -59.5z" />
    <glyph glyph-name="quotedblleft" unicode="&#x201c;" horiz-adv-x="402" 
d="M383 445q-2 -17 -14 -31.5t-38 -14.5q-35 0 -53.5 24.5t-13.5 59.5q4 29 18.5 56t35.5 50t46.5 43t50.5 36l13 -16q-41 -29 -67 -60.5t-32 -74.5q-3 -19 5.5 -32.5t19 -21.5t20 -12.5t9.5 -5.5zM193 445q-2 -17 -14 -31.5t-38 -14.5q-35 0 -53.5 24.5t-13.5 59.5
q4 29 18.5 56t35.5 50t46.5 43t50.5 36l13 -16q-41 -29 -67 -60.5t-32 -74.5q-3 -19 5.5 -32.5t19 -21.5t20 -12.5t9.5 -5.5z" />
    <glyph glyph-name="quotedblright" unicode="&#x201d;" horiz-adv-x="402" 
d="M408 575q-4 -29 -19 -56t-36 -50t-46 -43t-51 -36l-13 16q41 29 67.5 60.5t31.5 74.5q3 20 -5 33.5t-18.5 21.5t-20 12t-9.5 5q2 17 14 31.5t38 14.5q35 0 53.5 -24.5t13.5 -59.5zM218 575q-4 -29 -19 -56t-36 -50t-46 -43t-51 -36l-13 16q41 29 67.5 60.5t31.5 74.5
q3 20 -5 33.5t-18.5 21.5t-20 12t-9.5 5q2 17 14 31.5t38 14.5q35 0 53.5 -24.5t13.5 -59.5z" />
    <glyph glyph-name="quotedblbase" unicode="&#x201e;" horiz-adv-x="402" 
d="M334 18q-4 -29 -19 -56t-36 -50t-46 -43t-51 -36l-13 16q41 29 67.5 60.5t31.5 74.5q3 20 -5 33.5t-18.5 21.5t-20 12t-9.5 5q2 17 14 31.5t38 14.5q35 0 53.5 -24.5t13.5 -59.5zM144 18q-4 -29 -19 -56t-36 -50t-46 -43t-51 -36l-13 16q41 29 67.5 60.5t31.5 74.5
q3 20 -5 33.5t-18.5 21.5t-20 12t-9.5 5q2 17 14 31.5t38 14.5q35 0 53.5 -24.5t13.5 -59.5z" />
    <glyph glyph-name="dagger" unicode="&#x2020;" horiz-adv-x="470" 
d="M403 396h-180v-552h-34v552h-179l-4 36h183v193h34v-193h184z" />
    <glyph glyph-name="daggerdbl" unicode="&#x2021;" horiz-adv-x="470" 
d="M254 21l-1 -177h-34l1 177h-183l4 36h179v354h-179l-4 36h183v178h34v-178h184l-4 -36h-180v-354h180l4 -36h-184z" />
    <glyph glyph-name="bullet" unicode="&#x2022;" horiz-adv-x="455" 
d="M420 232q0 -11 -6 -30.5t-14.5 -40.5t-18 -39.5t-17.5 -26.5q-7 -7 -25.5 -17t-39.5 -18.5t-41 -14.5t-31 -6q-10 0 -30 6t-41 14.5t-39 18.5t-25 17q-7 8 -17 26.5t-19 39.5t-15 40.5t-6 30.5t6 30.5t15 40.5t19 39.5t17 25.5q8 8 26 17.5t39 18t41 14.5t30 6
q11 0 30.5 -6t40.5 -14.5t39.5 -18t25.5 -17.5q8 -7 17.5 -25.5t18 -39.5t14.5 -40.5t6 -30.5z" />
    <glyph glyph-name="ellipsis" unicode="&#x2026;" horiz-adv-x="642" 
d="M560 36q-1 -20 -14.5 -35t-36.5 -15t-36.5 15.5t-12.5 34.5t14 33.5t36 14.5t37 -14.5t13 -33.5zM346 36q-1 -20 -14.5 -35t-36.5 -15t-36.5 15.5t-12.5 34.5t14 33.5t36 14.5t37 -14.5t13 -33.5zM132 36q-1 -20 -14.5 -35t-36.5 -15t-36.5 15.5t-12.5 34.5t14 33.5
t36 14.5t37 -14.5t13 -33.5z" />
    <glyph glyph-name="perthousand" unicode="&#x2030;" horiz-adv-x="1126" 
d="M395 500q0 -39 -14.5 -73t-39 -59.5t-58 -40t-72.5 -14.5q-32 0 -60.5 10.5t-49.5 30t-33.5 47t-12.5 61.5q0 38 14.5 71.5t39 59t58 40t70.5 14.5q33 0 61.5 -10t50 -29t34 -46.5t12.5 -61.5zM97 -15h-52l637 654h52zM729 164q0 -39 -14.5 -73t-39.5 -59.5t-58.5 -40
t-71.5 -14.5q-67 0 -110.5 39t-43.5 108q0 39 14 73t38.5 59.5t57.5 40t72 14.5q32 0 60.5 -10t49.5 -29t33.5 -46.5t12.5 -61.5zM357 490q0 55 -34.5 90t-89.5 35q-30 0 -56 -12.5t-45 -33.5t-30 -48.5t-11 -56.5q0 -27 9.5 -49.5t26.5 -38.5t39.5 -24.5t48.5 -8.5
q30 0 56 11.5t45 31.5t30 47t11 57zM693 158q0 27 -9.5 49t-26.5 38t-39.5 25t-48.5 9q-30 0 -56 -12.5t-45 -33.5t-30 -48.5t-11 -56.5q0 -55 35 -88t87 -33q30 0 56.5 12t46 33t30.5 48.5t11 57.5zM1109 164q0 -39 -14.5 -73t-39.5 -59.5t-58.5 -40t-71.5 -14.5
q-67 0 -110.5 39t-43.5 108q0 39 14 73t38.5 59.5t57.5 40t72 14.5q32 0 60.5 -10t49.5 -29t33.5 -46.5t12.5 -61.5zM1073 158q0 27 -9.5 49t-26.5 38t-39.5 25t-48.5 9q-30 0 -56 -12.5t-45 -33.5t-30 -48.5t-11 -56.5q0 -55 35 -88t87 -33q30 0 56.5 12t46 33t30.5 48.5
t11 57.5z" />
    <glyph glyph-name="guilsinglleft" unicode="&#x2039;" horiz-adv-x="310" 
d="M228 46l-191 157l4 36l233 157l7 -22l-180 -155l139 -155z" />
    <glyph glyph-name="guilsinglright" unicode="&#x203a;" horiz-adv-x="310" 
d="M29 46l-6 22l179 155l-138 155l11 18l191 -157l-4 -36z" />
    <glyph glyph-name="fraction" unicode="&#x2044;" horiz-adv-x="581" 
d="M15 -15h-52l637 654h52z" />
    <glyph glyph-name="Euro" unicode="&#x20ac;" horiz-adv-x="496" 
d="M134 209q3 -32 14 -64.5t30 -59t46 -43t62 -16.5q54 0 94 25t71 62l19 -14q-34 -51 -84 -82.5t-113 -31.5q-47 0 -82.5 19.5t-59.5 51t-37.5 71.5t-16.5 82h-57l2 35h53v1q2 24 4 48.5t7 47.5h-66l3 35h72q14 50 39 95t60.5 78.5t81.5 53.5t101 20q17 0 40.5 -3.5
t45 -12.5t36.5 -24t15 -38q0 -15 -10.5 -27t-26.5 -12q-13 0 -21.5 6.5t-13 16.5t-5.5 22t1 24q-14 11 -37 14.5t-40 3.5q-45 0 -80 -19.5t-61.5 -50.5t-44 -69.5t-27.5 -77.5h215l3 -35h-226q-5 -24 -7 -48t-2 -48v-1h231l4 -35h-232z" />
    <glyph glyph-name="trademark" unicode="&#x2122;" horiz-adv-x="896" 
d="M736 253l2 27l59 5q3 0 3 5l-10 303h-8l-123 -328h-33l-105 330h-8l-12 -305q0 -5 3 -5l59 -5l2 -27h-157l3 27l59 5q3 0 3 5l11 298q0 5 -2 5l-60 5l-1 27h130l93 -303h8l111 303h127l-2 -27l-59 -5q-2 0 -2 -5l10 -298q0 -5 4 -5l59 -5l3 -27h-167zM373 507h-25l-11 70
q-1 7 -3.5 11t-12 6.5t-28 3.5t-52.5 1h-10v-309q0 -5 3 -5l66 -5l2 -27h-181l2 27l66 5q3 0 3 5v309q0 1 -5 0.5t-6 -0.5q-33 0 -52 -1t-28.5 -3t-12 -6.5t-3.5 -10.5l-15 -71h-26l10 118h319v-118z" />
    <glyph glyph-name="Delta" unicode="&#x2206;" horiz-adv-x="461" 
d="M487 594l-78 -8q-4 0 -6 -6l-49 -382q-5 -42 -20 -81t-39.5 -68.5t-60 -47t-82.5 -17.5q-23 0 -50.5 6.5t-51 20t-39.5 34.5t-16 49q0 24 14.5 39.5t38.5 15.5q17 0 27.5 -11.5t10.5 -28.5t-6 -28.5t-21 -23.5q7 -12 18 -19.5t24 -12t26.5 -6.5t24.5 -2q37 0 63.5 16.5
t44 42.5t27.5 58.5t14 63.5l49 382q1 6 -4 6l-86 8l-3 31h233z" />
    <glyph glyph-name="minus" unicode="&#x2212;" horiz-adv-x="486" 
d="M41 208l3 54h399l3 -54h-405z" />
    <glyph glyph-name="apple" unicode="&#xf8ff;" horiz-adv-x="758" 
d="M583 236l69 -189l-189 69l-85 -181l-84 180l-187 -68l68 187l-181 86l181 83l-68 189l187 -69l86 181l83 -181l189 69l-69 -189l180 -82zM531 382l50 139l-139 -50l-63 133l-63 -133l-139 50l51 -139l-134 -63l134 -63l-51 -138l139 51l62 -135l64 135l139 -51l-50 140
l132 62z" />
    <glyph glyph-name="ff" unicode="&#xfb00;" horiz-adv-x="506" 
d="M617 641q0 -17 -9 -28.5t-23 -11.5q-19 0 -30 13.5t-13 36.5l-81 -28q-17 -31 -30 -77t-21 -98h131l3 -37h-139l-61 -363q-14 -87 -31.5 -143t-49.5 -88q-43 -43 -89 -43q-24 0 -40 15t-16 33q0 16 10 26.5t24 10.5q19 0 30.5 -14t13.5 -36l69 50q11 24 21 73t19 105
l60 374h-193l-64 -383q-14 -87 -31.5 -143t-49.5 -88q-43 -43 -89 -43q-24 0 -40 15t-16 33q0 16 10 26.5t24 10.5q19 0 30.5 -14t13.5 -36l69 50q11 24 21 73t19 105l63 393l-87 3l2 27l92 14q11 65 30.5 107.5t45.5 70.5q20 22 49.5 34.5t54.5 12.5q28 0 46.5 -14
t18.5 -34q0 -17 -9 -28.5t-23 -11.5q-19 0 -30 13.5t-13 36.5l-81 -28q-17 -31 -30 -75t-21 -90h194q12 67 31.5 116.5t45.5 77.5q20 22 49.5 34.5t54.5 12.5q28 0 46.5 -14t18.5 -34z" />
    <glyph glyph-name="fi" unicode="&#xfb01;" horiz-adv-x="490" 
d="M108 28q-14 -87 -31.5 -143t-49.5 -88q-43 -43 -89 -43q-24 0 -40 15t-16 33q0 16 10 26.5t24 10.5q19 0 30.5 -14t13.5 -36l69 50q11 24 21 73t19 105l63 393l-87 3l2 27l92 14q12 67 34.5 115t51.5 77q18 18 48.5 30.5t55.5 12.5q28 0 46.5 -14t18.5 -34
q0 -17 -9 -28.5t-23 -11.5q-19 0 -30 15.5t-13 38.5l-81 -28q-24 -29 -38.5 -78t-22.5 -101h177q17 11 29 11q8 0 17.5 -3.5t17.5 -8.5t13.5 -11t3.5 -11l-115 -404l10 -5l115 89l13 -18q-10 -12 -27.5 -30t-36.5 -34t-37 -27.5t-30 -11.5q-7 0 -16 3.5t-16.5 9t-12 11.5
t-3.5 10l107 389l-4 4h-210z" />
    <glyph glyph-name="fl" unicode="&#xfb02;" horiz-adv-x="487" 
d="M172 411l-64 -383q-14 -87 -31.5 -143t-49.5 -88q-43 -43 -89 -43q-24 0 -40 15t-16 33q0 16 10 26.5t24 10.5q19 0 30.5 -14t13.5 -36l69 50q11 24 21 73t19 105l63 393l-87 3l2 27l92 14q12 67 34.5 115t51.5 77q18 18 48.5 30.5t55.5 12.5t42 -10l123 18l-172 -666
l27 -7l100 81l13 -18q-10 -12 -27.5 -30t-36.5 -34t-37 -27.5t-30 -11.5q-7 0 -16 3.5t-16 8.5t-11.5 11t-3.5 11l97 393h-209zM441 655q-15 -20 -30.5 -28.5t-28.5 -7t-22 12t-11 27.5l-101 -22q-15 -15 -26 -36.5t-20 -47t-15 -52.5t-10 -53h213z" />
    <glyph glyph-name="ffi" unicode="&#xfb03;" horiz-adv-x="723" 
d="M458 646q18 18 48.5 30.5t55.5 12.5q28 0 46.5 -14t18.5 -34q0 -17 -9 -28.5t-23 -11.5q-19 0 -30 15.5t-13 38.5l-81 -28q-24 -29 -38.5 -78t-22.5 -101h177q17 11 29 11q8 0 17.5 -3.5t17.5 -8.5t13.5 -11t3.5 -11l-115 -404l10 -5l115 89l13 -18q-10 -12 -27.5 -30
t-36.5 -34t-37 -27.5t-30 -11.5q-7 0 -16 3.5t-16.5 9t-12 11.5t-3.5 10l107 389l-4 4h-210l-61 -363q-17 -87 -33 -143t-48 -88q-43 -43 -89 -43q-24 0 -40 15t-16 33q0 16 10 26.5t24 10.5q19 0 30.5 -14t13.5 -36l69 50q11 24 21 73t19 105l60 374h-193l-64 -383
q-14 -87 -31.5 -143t-49.5 -88q-43 -43 -89 -43q-24 0 -40 15t-16 33q0 16 10 26.5t24 10.5q19 0 30.5 -14t13.5 -36l69 50q11 24 21 73t19 105l63 393l-87 3l2 27l92 14q11 65 30.5 107.5t45.5 70.5q20 22 49.5 34.5t54.5 12.5q28 0 46.5 -14t18.5 -34q0 -17 -9 -28.5
t-23 -11.5q-19 0 -30 13.5t-13 36.5l-81 -28q-17 -31 -30 -75t-21 -90h194q13 72 35.5 120.5t51.5 77.5z" />
    <glyph glyph-name="ffl" unicode="&#xfb04;" horiz-adv-x="720" 
d="M384 631q0 -17 -9 -28.5t-23 -11.5q-19 0 -30 13.5t-13 36.5l-81 -28q-17 -31 -30 -75t-21 -90h194q13 72 35.5 120.5t51.5 77.5q18 18 48.5 30.5t55.5 12.5t42 -10l123 18l-172 -666l27 -7l100 81l13 -18q-10 -12 -27.5 -30t-36.5 -34t-37 -27.5t-30 -11.5q-7 0 -16 3.5
t-16 8.5t-11.5 11t-3.5 11l97 393h-209l-61 -363q-12 -88 -30.5 -143.5t-50.5 -87.5q-43 -43 -89 -43q-24 0 -40 15t-16 33q0 16 10 26.5t24 10.5q19 0 30.5 -14t13.5 -36l69 50q11 24 21 73t19 105l60 374h-193l-64 -383q-14 -87 -31.5 -143t-49.5 -88q-43 -43 -89 -43
q-24 0 -40 15t-16 33q0 16 10 26.5t24 10.5q19 0 30.5 -14t13.5 -36l69 50q11 24 21 73t19 105l63 393l-87 3l2 27l92 14q11 65 30.5 107.5t45.5 70.5q20 22 49.5 34.5t54.5 12.5q28 0 46.5 -14t18.5 -34zM674 655q-15 -20 -30.5 -28.5t-28.5 -7t-22 12t-11 27.5l-101 -22
q-15 -15 -26 -36.5t-20 -47t-15 -52.5t-10 -53h213z" />
  </font>
</defs>
</svg>
