<?xml version="1.0" standalone="no"?>
<!DOCTYPE svg PUBLIC "-//W3C//DTD SVG 1.1//EN" "http://www.w3.org/Graphics/SVG/1.1/DTD/svg11.dtd" >
<svg xmlns="http://www.w3.org/2000/svg" xmlns:xlink="http://www.w3.org/1999/xlink" version="1.1">
<metadata>
Created by FontForge 20170731 at Sun Jan 10 00:27:51 2016
 By Aleksey,,,
Copyright  2004, Joshua Darden &#38; Phil's Fonts, Inc. All rights reserved. Published by Garagefonts USA 301-260-2285 www.garagefonts.com
</metadata>
<defs>
<font id="FreightTextMediumItalicSC" horiz-adv-x="500" >
  <font-face 
    font-family="FreightTextMediumItalicSC"
    font-weight="400"
    font-style="italic"
    font-stretch="normal"
    units-per-em="1000"
    panose-1="2 0 6 6 7 0 0 9 0 4"
    ascent="771"
    descent="-229"
    x-height="458"
    cap-height="625"
    bbox="-47 -270 1389 864"
    underline-thickness="20"
    underline-position="-173"
    slope="-12"
    unicode-range="U+0020-FB04"
  />
<missing-glyph 
 />
    <glyph glyph-name=".notdef" 
 />
    <glyph glyph-name=".null" horiz-adv-x="0" 
 />
    <glyph glyph-name="nonmarkingreturn" horiz-adv-x="160" 
 />
    <glyph glyph-name="space" unicode=" " horiz-adv-x="160" 
 />
    <glyph glyph-name="space" unicode="&#xa0;" horiz-adv-x="160" 
 />
    <glyph glyph-name="exclam" unicode="!" horiz-adv-x="284" 
d="M145 195q-2 -6 -11 -5.5t-9 6.5l10 403q1 19 11 30t35 11h3q36 0 48 -12.5t7 -34.5zM179 45q0 -24 -16.5 -42t-42.5 -18t-43.5 18t-17.5 42q0 23 17.5 40.5t43.5 17.5t42.5 -17.5t16.5 -40.5z" />
    <glyph glyph-name="quotedbl" unicode="&#x22;" horiz-adv-x="370" 
d="M234 403h-37l107 243h1l80 -28zM72 403h-38l107 243h2l80 -28z" />
    <glyph glyph-name="numbersign" unicode="#" horiz-adv-x="566" 
d="M437 404l-50 -186h129v-38h-139l-50 -186h-39l50 186h-171l-50 -186h-39l50 186h-128v38h138l50 186h-128v38h138l52 189h39l-51 -189h170l51 189h39l-51 -189h129v-38h-139zM398 404h-170l-51 -186h171z" />
    <glyph glyph-name="dollar" unicode="$" 
d="M139 -166h-39l41 153q-37 4 -67.5 11t-59.5 16l12 179h41l28 -137q24 -13 59 -21l68 253q-32 18 -58.5 36.5t-46 40.5t-30 49t-10.5 62q0 36 18 65.5t47 51.5t66.5 34t76.5 12h16q8 0 15 -1l27 100h39q-8 -28 -14 -51q-5 -20 -9 -35.5t-5 -15.5q20 -2 36 -5t35 -8
q0 1 8 2.5t18 3.5l26 6l-26 -192h-44l-13 124q-12 6 -25.5 10.5t-27.5 8.5l-60 -222q30 -18 58.5 -37t50 -41.5t35 -50.5t13.5 -64q0 -41 -18.5 -75.5t-50.5 -59t-75 -38t-93 -13.5h-21zM304 592q-8 1 -17 1.5t-18 0.5q-19 0 -38 -5.5t-34 -16.5t-24.5 -26t-9.5 -35
q-1 -42 21 -70.5t64 -55.5zM192 30q7 -1 14 -1h13q63 0 96.5 30t34.5 78q1 42 -25.5 71.5t-69.5 58.5z" />
    <glyph glyph-name="percent" unicode="%" horiz-adv-x="746" 
d="M395 500q0 -39 -14.5 -73t-39 -59.5t-58 -40t-72.5 -14.5q-32 0 -60.5 10.5t-49.5 30t-33.5 47t-12.5 61.5q0 38 14.5 71.5t39 59t58 40t70.5 14.5q33 0 61.5 -10t50 -29t34 -46.5t12.5 -61.5zM104 -15h-59l630 654h59zM729 164q0 -39 -14.5 -73t-39.5 -59.5t-58.5 -40
t-71.5 -14.5q-67 0 -110.5 39t-43.5 108q0 39 14 73t38.5 59.5t57.5 40t72 14.5q32 0 60.5 -10t49.5 -29t33.5 -46.5t12.5 -61.5zM345 490q0 50 -31 81.5t-81 31.5q-28 0 -51.5 -11.5t-41 -31t-27.5 -44.5t-10 -52q0 -50 32.5 -79.5t79.5 -29.5q28 0 51.5 10.5t41 29
t27.5 43t10 52.5zM681 158q0 24 -9 44t-24 34.5t-35.5 22.5t-43.5 8q-28 0 -51.5 -11.5t-41 -31t-27.5 -44.5t-10 -52q0 -50 31.5 -79.5t78.5 -29.5q28 0 52 11.5t42 30.5t28 44t10 53z" />
    <glyph glyph-name="ampersand" unicode="&#x26;" horiz-adv-x="627" 
d="M369 124q-56 -65 -108.5 -102.5t-119.5 -37.5q-30 0 -55.5 12.5t-43.5 33.5t-28.5 48.5t-10.5 58.5q0 43 16 76.5t41.5 57.5t58.5 39t66 21v1q-29 29 -48 61.5t-19 77.5q0 38 15.5 69t42 53t61 34t72.5 12q34 0 63 -9t50.5 -26t33.5 -40.5t12 -53.5q0 -64 -46 -103.5
t-143 -64.5v-1l131 -143h1l119 102v2q-24 5 -36.5 20.5t-12.5 32.5q0 23 17.5 36.5t42.5 13.5q27 0 44 -18t17 -41q0 -32 -24.5 -65.5t-86.5 -71.5l-58 -36l149 -162l-92 -27l-120 140h-1zM385 499q0 21 -5 39.5t-15 32.5t-26 22.5t-38 8.5q-48 0 -74 -31t-26 -74
q0 -27 4 -46t11.5 -34t17.5 -27.5t22 -26.5q65 31 97 61t32 75zM203 312q-51 -27 -83.5 -65t-32.5 -88q0 -48 26 -76t60 -28q32 0 75.5 23.5t100.5 68.5z" />
    <glyph glyph-name="quotesingle" unicode="'" horiz-adv-x="208" 
d="M72 403h-38l108 243h1l80 -28z" />
    <glyph glyph-name="parenleft" unicode="(" horiz-adv-x="395" 
d="M358 -254q-40 20 -86.5 60.5t-86.5 99.5t-66.5 135.5t-26.5 167.5q0 92 26.5 168t66.5 135t86.5 99.5t86.5 60.5l26 -35q-37 -20 -79.5 -59.5t-78 -94.5t-59 -124t-23.5 -150t23.5 -150t59 -124t78 -94t79.5 -59z" />
    <glyph glyph-name="parenright" unicode=")" horiz-adv-x="395" 
d="M11 -219q38 20 80 59.5t77.5 94.5t59 124t23.5 150t-23.5 150t-59 124t-77.5 94.5t-80 59.5l27 35q40 -20 86.5 -60.5t86 -99.5t66 -135t26.5 -168q0 -91 -26.5 -167.5t-66 -135.5t-86 -99.5t-86.5 -60.5z" />
    <glyph glyph-name="asterisk" unicode="*" horiz-adv-x="349" 
d="M325 433l-92 34l-10 -13l60 -76l-11 -61l-21 -6l-45 43l4 97l-15 4l-52 -78l-62 -10l-14 18l28 58l91 24v18l-91 26l-29 56l13 18l64 -9l52 -81l16 5l-2 97l43 42l22 -7l11 -61l-62 -76l10 -13l92 33l53 -30v-22z" />
    <glyph glyph-name="plus" unicode="+" horiz-adv-x="480" 
d="M267 283v-185h-53v185h-183l3 53h180v184h53v-184h179l3 -53h-182z" />
    <glyph glyph-name="comma" unicode="," horiz-adv-x="232" 
d="M163 23q0 -33 -16.5 -61.5t-41 -52t-54.5 -43t-57 -34.5l-24 19q18 10 36.5 23.5t33 30t24 35t9.5 38.5q0 21 -10.5 36.5t-23.5 26t-23.5 16t-10.5 6.5q0 23 21.5 38.5t47.5 15.5q17 0 33 -7t28.5 -19.5t20 -30t7.5 -37.5z" />
    <glyph glyph-name="hyphen" unicode="-" horiz-adv-x="328" 
d="M33 208l3 53h258l3 -53h-264z" />
    <glyph glyph-name="period" unicode="." horiz-adv-x="232" 
d="M161 52q0 -26 -18.5 -46.5t-47.5 -20.5t-48.5 20.5t-19.5 46.5t19.5 45.5t48.5 19.5t47.5 -19.5t18.5 -45.5z" />
    <glyph glyph-name="slash" unicode="/" horiz-adv-x="279" 
d="M222 665h48l-215 -877h-48z" />
    <glyph glyph-name="zero" unicode="0" 
d="M483 378q0 -37 -7 -80.5t-21 -87t-35.5 -84t-50.5 -72t-65.5 -50.5t-80.5 -19q-51 0 -87.5 24t-59 62t-33 84.5t-10.5 90.5q0 37 6.5 80.5t20 87t35 84t50.5 72t66 50.5t83 19q51 0 87 -24t58.5 -62t33 -84.5t10.5 -90.5zM392 422q0 26 -3.5 57.5t-14.5 59t-31.5 46
t-54.5 18.5q-32 0 -57 -23.5t-43 -60.5t-30.5 -82.5t-20 -90t-10.5 -83t-3 -61.5q0 -26 3.5 -57.5t14.5 -59t31.5 -46t54.5 -18.5q32 0 57 23.5t43 60.5t30.5 82.5t20 90t10.5 83t3 61.5z" />
    <glyph glyph-name="one" unicode="1" 
d="M54 0l2 39l118 13q14 2 19.5 8.5t6.5 14.5l65 483l-139 17l7 30l223 28l-75 -558q-1 -8 3 -14.5t17 -8.5l98 -13l2 -39h-347z" />
    <glyph glyph-name="two" unicode="2" horiz-adv-x="494" 
d="M413 0h-399l3 56q70 59 133.5 110.5t112 99t77 92t28.5 89.5q0 60 -35 91t-86 31q-45 0 -86 -21.5t-76 -50.5l-7 24q18 19 41 39.5t50.5 38t60.5 29t70 11.5q31 0 60 -11.5t51.5 -32.5t36.5 -49t14 -61q0 -57 -35 -110t-89.5 -104t-120.5 -100t-129 -98v-5h70q68 0 110 2
t67.5 7.5t38.5 16t24 28.5l24 39h43z" />
    <glyph glyph-name="three" unicode="3" 
d="M433 193q0 -49 -26.5 -89.5t-68 -69t-91.5 -44t-97 -15.5q-22 0 -46 3.5t-44 12t-33 22t-13 33.5q0 21 15.5 36t35.5 15q15 0 28.5 -6.5t23.5 -17t16.5 -24.5t6.5 -28q8 -2 21 -3t21 -1q37 0 66.5 13t49.5 34.5t31 49t11 56.5q0 27 -10 49t-26.5 37t-38.5 23t-47 8
q-26 0 -50 -4.5t-40 -11.5l-9 24q31 16 70 35t74 42.5t59 50.5t24 59q0 24 -9 41.5t-23.5 29t-31.5 16.5t-32 5q-47 0 -87 -18.5t-69 -38.5l-8 26q18 17 42 34t52.5 30.5t59.5 22.5t64 9q27 0 53.5 -8t48 -23t35 -37t13.5 -50q0 -41 -23 -72.5t-55.5 -55t-68 -38.5
t-59.5 -24v-1q8 2 22 4t22 2q30 0 55.5 -9.5t44.5 -28t30 -45t11 -60.5z" />
    <glyph glyph-name="four" unicode="4" 
d="M351 186l-26 -186h-80l25 186h-264l1 38l353 410h49l-52 -400h109l-13 -48h-102zM315 521h-7l-249 -287h217z" />
    <glyph glyph-name="five" unicode="5" 
d="M476 541h-260l-48 -135q17 -1 43.5 -5.5t56 -14.5t58.5 -25t52.5 -38t38 -54t14.5 -72q0 -49 -22 -88.5t-57.5 -67.5t-80.5 -43t-91 -15q-25 0 -53 5t-51.5 16t-38.5 28.5t-15 41.5q0 21 15.5 36t35.5 15q32 0 50.5 -23.5t20.5 -52.5q16 -12 38 -18t43 -6q27 0 50 9
t39.5 25t26 38t9.5 48q0 46 -20.5 80.5t-55.5 58t-81 37.5t-96 19l102 284h291z" />
    <glyph glyph-name="six" unicode="6" 
d="M41 221q0 86 39 160t103.5 130.5t149 91.5t174.5 43l7 -27q-157 -34 -250.5 -116.5t-134.5 -200.5h5q18 25 40 44.5t45.5 33t47.5 20.5t45 7q30 0 58 -11t49.5 -33.5t34.5 -56t13 -78.5q0 -51 -20 -95t-52.5 -76.5t-73.5 -51.5t-84 -19t-79.5 18t-62 49.5t-40 74.5
t-14.5 93zM122 190q0 -34 7.5 -64.5t22.5 -54t37 -37t51 -13.5q30 0 56 15.5t45.5 42.5t30.5 63t11 76q0 32 -9.5 57.5t-24.5 43.5t-34.5 28t-39.5 10q-50 0 -86 -29t-59 -70q-4 -14 -6 -32.5t-2 -35.5z" />
    <glyph glyph-name="seven" unicode="7" 
d="M159 -7h-65l363 551v5h-150h-77q-28 0 -43.5 -2.5t-22.5 -7.5t-13 -15l-36 -60h-33l41 161h406l-1 -46z" />
    <glyph glyph-name="eight" unicode="8" 
d="M445 162q0 -45 -17.5 -78.5t-47 -55.5t-67 -32.5t-78.5 -10.5q-36 0 -70.5 11.5t-61.5 33t-44 52t-17 69.5q0 36 13.5 63t35.5 46.5t50.5 33t58.5 22.5v3q-42 25 -68.5 62t-27.5 85q0 41 16 73t43 54t62.5 33.5t73.5 11.5q32 0 62 -11t53.5 -31.5t37 -49t13.5 -64.5
q0 -33 -11 -57.5t-29 -42.5t-42.5 -31t-52.5 -23l1 -3q24 -14 44.5 -30.5t36 -36.5t24.5 -43.5t9 -52.5zM388 483q0 24 -6.5 47t-19.5 40t-33 27.5t-47 10.5q-48 0 -75.5 -29.5t-27.5 -77.5q0 -26 11 -48.5t29 -42.5t41 -36.5t47 -30.5q42 25 61 59t20 81zM369 129
q0 30 -14 55.5t-35.5 46.5t-47.5 38.5t-50 32.5q-42 -26 -72 -63t-30 -90q0 -59 35 -95t97 -36q52 0 84 27t33 84z" />
    <glyph glyph-name="nine" unicode="9" 
d="M482 404q0 -86 -39 -160t-103.5 -130.5t-149 -91.5t-174.5 -43l-7 27q157 34 250.5 116.5t134.5 200.5h-5q-18 -25 -40 -44.5t-45.5 -33t-47.5 -20.5t-45 -7q-30 0 -58 11t-49.5 33.5t-34.5 56t-13 78.5q0 51 20 95t52.5 76.5t73.5 51.5t84 19q44 0 80 -18t61.5 -49.5
t40 -74.5t14.5 -93zM401 435q0 34 -7.5 64.5t-22.5 54t-37 37t-51 13.5q-30 0 -56 -15.5t-45.5 -42.5t-30.5 -62.5t-11 -76.5q0 -31 9.5 -57t24.5 -44t34.5 -28t39.5 -10q50 0 86 29t59 70q4 14 6 32.5t2 35.5z" />
    <glyph glyph-name="colon" unicode=":" horiz-adv-x="232" 
d="M202 358q0 -26 -18.5 -46.5t-47.5 -20.5t-48.5 20.5t-19.5 46.5t19.5 45.5t48.5 19.5t47.5 -19.5t18.5 -45.5zM161 52q0 -26 -18.5 -46.5t-47.5 -20.5t-48.5 20.5t-19.5 46.5t19.5 45.5t48.5 19.5t47.5 -19.5t18.5 -45.5z" />
    <glyph glyph-name="semicolon" unicode=";" horiz-adv-x="232" 
d="M203 358q0 -26 -18.5 -46.5t-47.5 -20.5t-48.5 20.5t-19.5 46.5t19.5 45.5t48.5 19.5t47.5 -19.5t18.5 -45.5zM163 23q0 -33 -16.5 -61.5t-41 -52t-54.5 -43t-57 -34.5l-24 19q18 10 36.5 23.5t33 30t24 35t9.5 38.5q0 21 -10.5 36.5t-23.5 26t-23.5 16t-10.5 6.5
q0 23 21.5 38.5t47.5 15.5q17 0 33 -7t28.5 -19.5t20 -30t7.5 -37.5z" />
    <glyph glyph-name="less" unicode="&#x3c;" horiz-adv-x="480" 
d="M28 297v26l402 189l13 -48l-327 -152v-3l327 -153l-13 -48z" />
    <glyph glyph-name="equal" unicode="=" horiz-adv-x="480" 
d="M44 370l-3 53h398l-3 -53h-392zM41 196l3 53h392l3 -53h-398z" />
    <glyph glyph-name="greater" unicode="&#x3e;" horiz-adv-x="480" 
d="M50 108l-13 48l327 153v3l-327 152l13 48l402 -189v-26z" />
    <glyph glyph-name="question" unicode="?" horiz-adv-x="373" 
d="M360 474q0 -35 -11 -58.5t-28.5 -39t-39.5 -25t-44 -16.5q-19 -6 -36.5 -12.5t-31 -15t-21.5 -21t-8 -30.5q0 -20 9 -37.5t24 -36.5l-30 2q-7 7 -16 18t-17.5 24.5t-14.5 29.5t-6 33q0 29 11.5 48.5t29.5 33t41 22.5t46 16q19 6 37 12t31.5 13t21.5 17t8 23
q0 16 -12.5 31t-34.5 27t-51.5 19t-62.5 7q-15 0 -27.5 -1t-23.5 -3q-7 10 -7 25q0 25 19.5 42t59.5 17q39 0 73 -14t58.5 -37t39 -52.5t14.5 -60.5zM185 45q0 -24 -16.5 -42t-42.5 -18t-43.5 18t-17.5 42q0 23 17.5 40.5t43.5 17.5t42.5 -17.5t16.5 -40.5z" />
    <glyph glyph-name="at" unicode="@" horiz-adv-x="834" 
d="M508 247h-14q-21 -40 -43 -76t-44 -62.5t-42.5 -42t-40.5 -15.5q-21 0 -39.5 9t-32.5 22.5t-22.5 30t-8.5 31.5q0 29 9.5 67t25 76t36.5 72.5t43 56.5q26 26 54 39t54 13q32 0 57 -18.5t36 -54.5h11l22 59h53l-58 -163l-18 -163q-5 -23 7 -37.5t45 -14.5q32 0 60 15
t49.5 42t35.5 65t17 85q5 67 -17 124t-64.5 99t-102 66.5t-128.5 26.5t-131.5 -23t-111 -70t-78.5 -106t-35 -130q-5 -79 18.5 -144.5t67 -112.5t103.5 -73t127 -26q32 0 63 5.5t60 13.5l11 -36q-36 -12 -67.5 -17.5t-68.5 -5.5q-76 0 -144 29t-117.5 81.5t-76 125.5
t-20.5 161q5 78 39 146.5t88.5 118t125.5 77.5t149 25t145.5 -30.5t115.5 -74.5t73 -111.5t20 -140.5q-4 -60 -25 -105t-51.5 -76t-68.5 -46.5t-77 -15.5q-44 0 -67 10t-31.5 24.5t-7.5 31t5 29.5zM513 353q-4 9 -13.5 20t-23 21.5t-29.5 17.5t-33 7q-24 0 -36 -12
q-13 -13 -27 -43.5t-25.5 -67t-18.5 -73.5t-7 -64q0 -14 5.5 -24.5t13 -17t16.5 -10t16 -3.5q10 0 27.5 19.5t38 49t41.5 65t39 66.5q8 14 12 30t4 19z" />
    <glyph glyph-name="A" unicode="A" horiz-adv-x="591" 
d="M310 0l3 35l52 9q16 3 18.5 13t0.5 22l-22 146h-184l-33 -85q-18 -46 -16 -67.5t23 -26.5l45 -11l3 -35h-223l3 35l37 12q23 7 35.5 20t26.5 45l207 469v33l101 25l98 -560q3 -14 8.5 -21.5t24.5 -11.5l52 -11l3 -35h-263zM314 541h-5l-114 -274h160z" />
    <glyph glyph-name="B" unicode="B" horiz-adv-x="577" 
d="M537 177q0 -35 -12.5 -62t-35.5 -50q-32 -32 -85.5 -48.5t-118.5 -16.5h-274l3 35l55 11q23 4 26 24l65 485q2 9 -2 15t-18 9l-51 11l-3 35h246q60 0 100.5 -12t65.5 -32t36 -46t11 -55q0 -31 -12.5 -56.5t-34 -45t-49 -34t-57.5 -22.5l5 -5q66 -13 103 -51t37 -89z
M445 462q0 31 -11.5 54t-32.5 38.5t-49.5 23.5t-62.5 8h-28l-34 -246h63q33 0 61 8t49 23.5t33 38.5t12 52zM430 167q0 30 -11.5 55t-31.5 43t-46.5 27.5t-57.5 9.5h-61l-33 -248l68 -15h35q30 0 55 9.5t43.5 26.5t29 40.5t10.5 51.5z" />
    <glyph glyph-name="C" unicode="C" horiz-adv-x="618" 
d="M521 0l-51 9q-29 -10 -66.5 -17t-68.5 -7q-71 0 -124.5 20t-89 56.5t-53.5 88.5t-18 115q0 75 28.5 145t81.5 123q48 48 110.5 77t136.5 29q18 0 38 -2t39.5 -5t36 -6.5t26.5 -6.5l72 15l-28 -205h-45l-12 132q-24 15 -54 25.5t-75 10.5q-49 0 -94.5 -24t-80.5 -68
t-56.5 -107t-21.5 -140q0 -60 17.5 -107t49.5 -79q20 -20 52 -32.5t68 -12.5q62 0 117 30l60 136h52z" />
    <glyph glyph-name="D" unicode="D" horiz-adv-x="659" 
d="M632 354q0 -72 -23.5 -132.5t-75.5 -111.5q-48 -48 -124.5 -79t-176.5 -31h-221l3 35l55 11q23 4 26 24l65 485q2 9 -2 15t-18 9l-51 11l-3 35h249q69 0 124.5 -20t93.5 -55.5t58.5 -85.5t20.5 -110zM528 359q0 50 -13 91.5t-39.5 71.5t-67 47t-94.5 17h-54l-71 -532
l69 -15q58 2 107.5 24t85.5 63t56.5 99.5t20.5 133.5z" />
    <glyph glyph-name="E" unicode="E" horiz-adv-x="578" 
d="M494 0h-483l3 35l55 11q23 4 26 24l66 485q2 9 -2 15t-18 9l-51 11l-3 35h490l-25 -186h-49l-11 97q-2 17 -7.5 27t-25.5 15t-59.5 6.5t-108.5 1.5h-30l-34 -249h21q29 0 47 0.5t29 2.5t16.5 6.5t9.5 12.5l32 67h39l-51 -215h-38l5 64q1 7 -2 11.5t-13 7.5t-29.5 4
t-51.5 1h-19l-35 -260h24q75 0 118 1.5t66 6.5t32.5 15t16.5 27l39 92h54z" />
    <glyph glyph-name="F" unicode="F" horiz-adv-x="563" 
d="M493 439l-11 97q-2 18 -8 28t-25.5 15t-59 6t-109.5 1h-19l-34 -255h32q29 0 46.5 0.5t28.5 2.5t16.5 6.5t9.5 12.5l33 67h38l-51 -215h-37l5 64q1 7 -2 11.5t-13.5 7.5t-30 4t-51.5 1h-30l-30 -223q-3 -19 20 -24l52 -11l3 -35h-255l3 35l55 11q23 4 26 24l66 485
q2 9 -2 15t-18 9l-51 11l-3 35h480l-25 -186h-49z" />
    <glyph glyph-name="G" unicode="G" horiz-adv-x="663" 
d="M631 242l-48 -11q-24 -6 -27 -24l-22 -144l58 -11l2 -28q-21 -6 -52 -12.5t-66.5 -12.5t-73 -10t-71.5 -4q-71 0 -123.5 20.5t-87.5 57.5t-52.5 88.5t-17.5 113.5q0 75 28.5 145t81.5 123q48 48 110.5 77t136.5 29q18 0 38 -2t39.5 -5t36 -6.5t26.5 -6.5l72 15l-28 -205
h-45l-12 132q-24 15 -54 25.5t-75 10.5q-49 0 -94.5 -24t-80.5 -68t-56.5 -107t-21.5 -140q0 -60 17.5 -107t49.5 -79q20 -20 52 -32.5t68 -12.5q52 0 100 21l23 159q2 11 -2.5 16.5t-18.5 7.5l-55 11l-3 35h251z" />
    <glyph glyph-name="H" unicode="H" horiz-adv-x="721" 
d="M396 0l3 35l55 11q23 4 26 24l31 229h-288l-30 -229q-3 -19 20 -24l51 -11l3 -35h-254l3 35l55 11q23 4 26 24l65 485q2 9 -2 15t-18 9l-50 11l-3 35h253l-3 -35l-55 -11q-23 -4 -26 -24l-28 -214h287l29 214q2 11 -2 16t-18 8l-51 11l-3 35h254l-4 -35l-54 -11
q-23 -4 -26 -24l-66 -485q-3 -19 20 -24l51 -11l3 -35h-254z" />
    <glyph glyph-name="I" unicode="I" horiz-adv-x="359" 
d="M14 0l3 35l65 11q23 4 26 24l66 485q2 9 -2 15.5t-18 8.5l-61 11l-3 35h273l-3 -35l-65 -11q-23 -5 -26 -24l-65 -485q-3 -20 20 -24l61 -11l3 -35h-274z" />
    <glyph glyph-name="J" unicode="J" horiz-adv-x="407" 
d="M429 590l-64 -11q-23 -4 -26 -24l-40 -305q-9 -71 -28.5 -121.5t-46.5 -82.5t-61.5 -46.5t-73.5 -14.5q-46 0 -78 17.5t-32 49.5q0 20 13.5 33t37.5 13q27 0 47 -17t26 -63h1q17 4 31 13.5t25.5 32.5t21 64.5t18.5 108.5l43 318q2 9 -2 15.5t-18 8.5l-71 11l-3 35h283z
" />
    <glyph glyph-name="K" unicode="K" horiz-adv-x="638" 
d="M375 0l3 35l35 11q14 4 2 24l-131 236l-70 -59l-23 -177q-3 -19 20 -24l51 -11l3 -35h-254l3 35l55 11q23 4 26 24l66 485q2 9 -2 15t-18 9l-51 11l-3 35h254l-4 -35l-54 -11q-23 -4 -26 -24l-34 -251l183 163q38 36 61 58t23 35q0 9 -6 14t-23 10l-27 7l-3 35h248
l-3 -34l-16 -2q-32 -5 -60.5 -22t-67.5 -49l-179 -159l164 -276q8 -13 14 -21t12 -12t12.5 -5.5t14.5 -3.5l29 -7l3 -35h-227z" />
    <glyph glyph-name="L" unicode="L" horiz-adv-x="558" 
d="M473 0h-462l3 35l55 11q23 4 26 24l64 485q3 20 -20 24l-52 11l-3 35h263l-3 -35l-63 -11q-14 -2 -19 -8.5t-7 -15.5l-68 -516h29q64 0 101.5 1.5t59 7t30.5 15.5t16 26l46 111h52z" />
    <glyph glyph-name="M" unicode="M" horiz-adv-x="797" 
d="M490 0l3 35l58 12q8 2 13.5 10t10.5 29t10 58t11 95l32 312h-5l-256 -531h-71l-80 541h-5l-52 -318q-11 -68 -16.5 -106.5t-6 -58t3 -24.5t10.5 -7l55 -12l3 -35h-217l3 35l58 12q8 2 14.5 6.5t13.5 24t15.5 58t19.5 107.5l52 315q3 19 -17 22l-60 10l-3 35h214l71 -489
h5l235 489h204l-3 -35l-64 -11q-24 -4 -26 -24l-32 -316q-7 -61 -9 -98.5t-0.5 -57.5t6.5 -27t12 -9l54 -12l3 -35h-267z" />
    <glyph glyph-name="N" unicode="N" horiz-adv-x="716" 
d="M734 590l-48 -8q-14 -3 -24 -9t-17.5 -26t-14.5 -58.5t-16 -106.5l-53 -391h-54l-289 535h-5l-37 -283q-9 -67 -13 -106t-2.5 -59t9.5 -26t23 -9l47 -8l3 -35h-233l3 35l48 8q15 3 24.5 10t17 27t14 58.5t15.5 104.5l33 246q5 44 -1.5 63t-29.5 26l-45 12l-3 35h185
l260 -483h5l33 240q9 69 13.5 108t3 58.5t-9 25t-22.5 8.5l-48 8l-3 35h234z" />
    <glyph glyph-name="O" unicode="O" horiz-adv-x="695" 
d="M668 348q0 -77 -26.5 -146t-76.5 -120q-43 -45 -101 -71t-129 -26q-64 0 -116.5 22t-90 60.5t-58 92t-20.5 116.5q0 72 22.5 136t64.5 114q44 52 106 82.5t140 30.5q64 0 116.5 -22t90 -60.5t58 -92t20.5 -116.5zM566 363q0 54 -14 102.5t-46 80.5q-24 24 -56 37.5
t-77 13.5q-39 0 -70.5 -15.5t-56 -42t-42.5 -60.5t-29.5 -71t-17 -74.5t-5.5 -70.5q0 -54 14 -102.5t46 -80.5q24 -24 56 -37.5t77 -13.5q39 0 70.5 15.5t56 42t42.5 60.5t29.5 71t17 74.5t5.5 70.5z" />
    <glyph glyph-name="P" unicode="P" horiz-adv-x="562" 
d="M555 453q0 -49 -22 -86t-58 -62t-82.5 -37.5t-95.5 -12.5q-20 0 -40 2t-40 5l-26 -192q-3 -21 20 -24l72 -11l3 -35h-275l3 35l55 11q23 4 26 24l66 485q2 9 -2 15t-18 9l-51 11l-3 35h244q51 0 92.5 -12.5t71 -35.5t45 -54.5t15.5 -69.5zM454 455q0 30 -10.5 54
t-29 41.5t-44.5 27t-58 9.5h-50l-39 -285q17 -5 36 -7.5t35 -2.5q71 0 115.5 42.5t44.5 120.5z" />
    <glyph glyph-name="Q" unicode="Q" horiz-adv-x="698" 
d="M631 -179q-20 -5 -48 -8.5t-68 -3.5q-57 0 -98 9t-72.5 31t-56.5 58.5t-51 92.5q-43 14 -77.5 40.5t-59 62t-37.5 79.5t-13 94q0 72 22.5 136t64.5 114q44 52 106 82.5t140 30.5q64 0 116.5 -22t90 -60.5t58 -92t20.5 -116.5q0 -77 -26.5 -146t-76.5 -120
q-39 -42 -90.5 -66.5t-114.5 -29.5q20 -38 46 -64t59.5 -42t74.5 -22t91 -4v-33zM566 363q0 54 -14 102.5t-46 80.5q-24 24 -56 37.5t-77 13.5q-39 0 -70.5 -15.5t-56 -42t-42.5 -60.5t-29.5 -71t-17 -74.5t-5.5 -70.5q0 -54 14 -102.5t46 -80.5q24 -24 56 -37.5t77 -13.5
q39 0 70.5 15.5t56 42t42.5 60.5t29.5 71t17 74.5t5.5 70.5z" />
    <glyph glyph-name="R" unicode="R" horiz-adv-x="606" 
d="M425 0l-34 69l-102 207l-69 3l-29 -209q-3 -20 20 -24l60 -11l3 -35h-262l3 35l54 11q23 4 26 24l64 485q3 19 -20 24l-51 11l-3 35h265q52 0 91 -11.5t65 -31.5t39 -47t13 -58q0 -74 -49.5 -121.5t-127.5 -67.5l104 -188q10 -20 18.5 -31t15 -16.5t12.5 -7t11 -3.5
l28 -7l3 -35h-148zM452 459q0 59 -37.5 93t-106.5 34h-49l-33 -261l71 -14q69 8 112 44.5t43 103.5z" />
    <glyph glyph-name="S" unicode="S" horiz-adv-x="502" 
d="M443 171q0 -41 -18.5 -75.5t-50.5 -59t-75 -38t-93 -13.5q-59 0 -103.5 8t-83.5 21l12 179h41l28 -137q23 -12 53 -19.5t71 -7.5q63 0 96.5 30t34.5 78q0 26 -9.5 46t-27 38t-42 34.5t-53.5 34.5q-33 20 -59.5 39t-44.5 40t-27.5 47t-9.5 60q0 36 18 65.5t47 51.5
t66.5 34t76.5 12q26 0 45 -1t35 -3.5t30 -5.5t30 -6q0 1 8 2.5t18 3.5l26 6l-26 -192h-44l-13 124q-26 12 -56.5 19.5t-68.5 7.5q-19 0 -38 -5.5t-34 -16.5t-24.5 -26t-9.5 -35q0 -26 8.5 -47t26 -39t42.5 -35t56 -35q28 -16 54 -34.5t45.5 -40t31 -48.5t11.5 -61z" />
    <glyph glyph-name="T" unicode="T" horiz-adv-x="620" 
d="M562 429l-12 97q-2 16 -6.5 27t-19 18t-43 10.5t-77.5 4.5h-2l-68 -516q-3 -20 20 -24l69 -11l3 -35h-292l4 35l74 11q13 2 18.5 8.5t7.5 15.5l67 516h-1q-46 0 -74.5 -1.5t-45.5 -6.5t-26 -15t-17 -27l-41 -107h-52l42 196h544l-26 -196h-46z" />
    <glyph glyph-name="U" unicode="U" horiz-adv-x="714" 
d="M734 590l-48 -8q-14 -3 -23.5 -9t-17 -26t-14.5 -58.5t-17 -106.5l-25 -183q-8 -55 -30.5 -95.5t-56 -67t-77 -39t-93.5 -12.5q-48 0 -89 11.5t-71 35t-47.5 59t-17.5 84.5q0 14 1 30.5t3 28.5l45 321q2 9 -2 15t-18 9l-51 11l-3 35h254l-3 -35l-55 -11q-23 -4 -26 -24
l-42 -305q-2 -11 -3.5 -26.5t-1.5 -29.5q0 -42 12.5 -71t34 -47.5t51.5 -27t65 -8.5q34 0 63.5 8.5t53 28t39.5 52.5t23 81l23 172q10 69 14 107.5t2.5 58.5t-9.5 25.5t-23 8.5l-47 8l-3 35h233z" />
    <glyph glyph-name="V" unicode="V" horiz-adv-x="590" 
d="M646 590l-39 -12q-23 -7 -35.5 -20t-26.5 -45l-237 -513h-83l-104 546q-2 14 -8 21.5t-25 11.5l-52 11l-3 35h263l-3 -35l-52 -9q-16 -3 -18.5 -13t-0.5 -22l77 -452h5l190 435q8 17 3.5 31t-25.5 19l-43 11l-3 35h223z" />
    <glyph glyph-name="W" unicode="W" horiz-adv-x="866" 
d="M922 590l-39 -12q-22 -7 -37.5 -22t-26.5 -43l-194 -513h-92l-61 397h-5l-175 -397h-90l-81 546q-2 14 -8 21.5t-25 11.5l-52 11l-3 35h263l-3 -35l-52 -9q-16 -3 -18.5 -13.5t-0.5 -21.5l57 -458l4 -1l169 391l-11 68q-2 14 -8.5 21.5t-25.5 11.5l-52 11l-3 35h262
l-3 -35l-52 -9q-16 -3 -19 -13t-1 -22l69 -456l5 -1l159 440q5 14 1 29.5t-25 20.5l-43 11l-3 35h223z" />
    <glyph glyph-name="X" unicode="X" horiz-adv-x="629" 
d="M341 0l4 35l41 6q26 4 26 21t-20 55l-82 160h-4l-145 -181q-14 -17 -12 -31t31 -21l38 -9l3 -35h-237l3 35l28 7q27 7 50.5 21.5t51.5 48.5l168 202l-111 199q-9 16 -15.5 26.5t-13 18t-14.5 12.5t-19 8l-39 12l-2 35h258l-4 -35l-41 -6q-26 -4 -26 -21t20 -55l68 -136h5
l125 157q14 17 12 31t-31 21l-38 9l-3 35h237l-3 -35l-28 -7q-13 -3 -25.5 -8t-24.5 -13t-25 -20t-27 -29l-148 -178l124 -223q9 -16 15.5 -26.5t13.5 -18t14.5 -12.5t18.5 -8l39 -12l2 -35h-258z" />
    <glyph glyph-name="Y" unicode="Y" horiz-adv-x="593" 
d="M645 590l-28 -7q-27 -7 -49 -20t-47 -50l-166 -245l-26 -198q-3 -20 20 -24l69 -11l3 -35h-292l4 35l74 11q13 2 18.5 8.5t7.5 15.5l26 198l-120 245q-16 32 -29 45t-35 20l-39 12l-2 35h258l-4 -35l-41 -6q-25 -4 -25 -23t19 -57l88 -193h5l143 218q11 18 10.5 32
t-29.5 20l-44 9l-3 35h237z" />
    <glyph glyph-name="Z" unicode="Z" horiz-adv-x="563" 
d="M479 0h-476l5 36l459 545v5h-109q-62 0 -97.5 -3.5t-55 -11.5t-29 -21.5t-19.5 -33.5l-31 -83h-44l25 192h478l-5 -37l-460 -545v-5l105 1q66 1 104.5 4t59.5 9.5t31 18t19 29.5l35 88h51z" />
    <glyph glyph-name="bracketleft" unicode="[" horiz-adv-x="368" 
d="M94 -222v873h254v-44h-203v-785h203v-44h-254z" />
    <glyph glyph-name="backslash" unicode="\" horiz-adv-x="279" 
d="M223 -212l-215 877h48l215 -877h-48z" />
    <glyph glyph-name="bracketright" unicode="]" horiz-adv-x="368" 
d="M20 -178h203v785h-203v44h254v-873h-254v44z" />
    <glyph glyph-name="asciicircum" unicode="^" horiz-adv-x="300" 
d="M273 510l-85 128h-2l-123 -128h-22l107 187h92l55 -187h-22z" />
    <glyph glyph-name="underscore" unicode="_" horiz-adv-x="470" 
d="M-39 -53l3 53h482l3 -53h-488z" />
    <glyph glyph-name="grave" unicode="`" horiz-adv-x="400" 
d="M253 510l-144 187h100l66 -187h-22z" />
    <glyph glyph-name="a" unicode="a" horiz-adv-x="447" 
d="M223 389h-10l-89 -199h134zM92 117q-9 -22 -14 -36t-5 -22.5t4.5 -12.5t13.5 -6l26 -5l3 -35h-164l2 35l19 4q15 3 24.5 7t19.5 17.5t23.5 40t35.5 74.5l117 246v20l96 27l80 -412q2 -10 8 -12t18 -5l31 -7l3 -35h-212l2 35l31 5q11 2 17 4.5t7.5 10t-0.5 20.5t-6 36
l-8 46h-154z" />
    <glyph glyph-name="b" unicode="b" horiz-adv-x="486" 
d="M432 130q0 -26 -9.5 -45.5t-26.5 -36.5q-26 -27 -72.5 -37.5t-108.5 -10.5h-197l3 35l37 8q17 4 19 17l44 338q2 13 -14 17l-35 8l-3 35h213q48 0 79 -8.5t49 -23.5t25 -34t7 -40q0 -45 -37 -75.5t-98 -36.5v-6q67 -7 96 -36.5t29 -67.5zM348 339q0 39 -28.5 62t-83.5 23
h-24l-23 -174l51 1q49 2 78.5 23t29.5 65zM339 127q0 45 -31 68t-85 23h-38l-23 -175l40 -9h33q44 0 74 25t30 68z" />
    <glyph glyph-name="c" unicode="c" horiz-adv-x="532" 
d="M424 0l-43 9q-18 -6 -51.5 -13.5t-68.5 -7.5q-46 0 -87 13t-71 39.5t-47.5 66t-17.5 91.5q0 51 21 100t57 85q39 39 89 62t117 23q38 0 65.5 -6t41.5 -11l64 14l-23 -161h-49l-10 100q-16 11 -40 18t-52 7q-44 0 -79 -19.5t-60 -52.5t-38 -77t-13 -93q0 -43 12.5 -74
t32.5 -51q17 -17 42.5 -26t52.5 -9q22 0 48.5 5.5t48.5 17.5l47 101h46z" />
    <glyph glyph-name="d" unicode="d" horiz-adv-x="541" 
d="M503 267q0 -50 -19.5 -98t-57.5 -86q-40 -40 -97 -61.5t-132 -21.5h-179l3 35l37 8q17 4 19 17l44 338q2 13 -14 17l-35 8l-2 35l191 2q57 1 102 -14.5t76 -42t47.5 -62t16.5 -74.5zM410 255q-1 75 -44 121.5t-131 46.5h-24l-48 -368l51 -16q48 -4 84.5 12.5t61 46.5
t37.5 71t13 86z" />
    <glyph glyph-name="e" unicode="e" horiz-adv-x="492" 
d="M412 0h-394l3 35l37 8q17 4 19 17l44 338q2 13 -14 17l-35 8l-2 35h404l-19 -149h-45l-8 64q-2 17 -7.5 27t-20 15t-42 6t-73.5 1h-48l-22 -175h35q35 0 49 3.5t21 17.5l24 50h35l-39 -170h-34v47q0 6 -2 10t-8.5 6.5t-19.5 3.5t-34 1h-31l-23 -180h45q49 0 78 1.5
t45.5 6.5t25.5 15t17 26l24 59h48z" />
    <glyph glyph-name="f" unicode="f" horiz-adv-x="485" 
d="M405 309l-8 64q-3 17 -8.5 27t-20 15t-41.5 6t-74 1h-41l-24 -181h38q35 0 50 3.5t22 17.5l24 49h35l-39 -170h-33l-1 47q0 12 -10.5 17t-52.5 5h-37l-20 -150q-2 -13 14 -17l46 -8l3 -35h-209l3 35l37 8q17 4 19 17l44 338q2 13 -14 17l-35 8l-2 35h398l-19 -149h-44z
" />
    <glyph glyph-name="g" unicode="g" horiz-adv-x="554" 
d="M503 171l-40 -8q-17 -3 -19 -18l-11 -88l40 -5l3 -24q-19 -7 -45.5 -14t-56 -13t-60.5 -9.5t-58 -3.5q-46 0 -86 13t-69.5 39.5t-46 66t-16.5 91.5q0 51 21 100t57 85q39 39 89 62t117 23q38 0 65.5 -6t41.5 -11l64 14l-23 -161h-49l-10 100q-16 11 -40 18t-52 7
q-44 0 -79 -19.5t-60 -52.5t-38 -77t-13 -93q0 -83 44 -127q33 -33 91 -33q22 0 44.5 4t38.5 11l13 103q2 15 -16 18l-39 8l-3 35h203z" />
    <glyph glyph-name="h" unicode="h" horiz-adv-x="586" 
d="M312 0l4 35l37 8q18 4 19 17l21 157h-208l-21 -157q-2 -13 14 -17l36 -8l3 -35h-199l3 35l37 8q17 4 19 17l44 338q2 13 -14 17l-35 8l-2 35h198l-3 -35l-38 -8q-17 -4 -19 -17l-19 -146h208l19 146q1 14 -14 17l-35 8l-3 35h199l-3 -35l-38 -8q-18 -4 -20 -17l-44 -338
q-2 -13 15 -17l36 -8l3 -35h-200z" />
    <glyph glyph-name="i" unicode="i" horiz-adv-x="310" 
d="M20 0l3 35l45 8q17 3 19 17l44 338q2 14 -14 17l-43 8l-3 35h214l-3 -35l-44 -8q-11 -2 -15 -6.5t-5 -10.5l-44 -338q-2 -14 15 -17l42 -8l3 -35h-214z" />
    <glyph glyph-name="j" unicode="j" horiz-adv-x="328" 
d="M319 423l-41 -8q-11 -2 -15 -6.5t-5 -10.5l-26 -197q-14 -111 -60.5 -161.5t-117.5 -50.5q-36 0 -57.5 17.5t-18.5 40.5q2 18 15 28.5t31 10.5q19 0 35.5 -16t18.5 -49h1q12 6 21 15.5t16.5 26t13.5 42.5t11 65l30 228q2 14 -14 17l-50 8l-2 35h217z" />
    <glyph glyph-name="k" unicode="k" horiz-adv-x="519" 
d="M296 0l2 35l21 7q10 3 3 16q-25 46 -45 82q-17 31 -31 56.5t-15 25.5q0 1 -8 -6.5t-18 -15.5l-26 -22l-15 -118q-2 -13 14 -17l36 -8l3 -35h-199l3 35l37 8q17 4 19 17l44 338q2 13 -14 17l-35 8l-3 35h199l-3 -35l-38 -8q-17 -4 -19 -17l-23 -176l118 107
q32 29 49.5 45.5t17.5 29.5q0 9 -5 12.5t-16 5.5l-12 2l-3 34h192l-3 -34l-19 -4q-28 -6 -51 -16.5t-52 -36.5l-104 -88l123 -211q11 -19 21.5 -22t21.5 -6l20 -5l3 -35h-190z" />
    <glyph glyph-name="l" unicode="l" horiz-adv-x="471" 
d="M382 0h-364l3 35l37 8q17 4 19 17l44 338q2 13 -14 17l-35 8l-3 35h202l-2 -35l-42 -8q-17 -3 -19 -17l-47 -359h27q46 0 73 1.5t42.5 6.5t24 15t16.5 26l28 68h47z" />
    <glyph glyph-name="m" unicode="m" horiz-adv-x="652" 
d="M395 0l2 35l40 8q6 1 10 5.5t7.5 17.5t7 38.5t7.5 68.5l25 230h-10l-187 -388h-69l-61 394h-10l-38 -233q-8 -50 -12 -76.5t-4.5 -38.5t2.5 -14.5t9 -3.5l41 -8l3 -35h-161l2 35l40 8q6 1 10.5 3t9 14t10.5 39t14 77l37 222q2 14 -12 18l-42 7l-3 35h184l52 -340h10
l165 340h171l-3 -35l-45 -8q-17 -3 -19 -18l-24 -224q-5 -45 -6.5 -70.5t-0.5 -38.5t5 -16.5t10 -4.5l38 -8l3 -35h-208z" />
    <glyph glyph-name="n" unicode="n" horiz-adv-x="580" 
d="M564 423l-36 -7q-9 -2 -15.5 -6.5t-12 -18.5t-10.5 -42.5t-12 -78.5l-37 -276h-65l-206 385h-10l-25 -191q-6 -50 -8 -78.5t-0.5 -43t7 -18.5t12.5 -6l36 -7l3 -35h-172l3 35l35 7q9 2 15.5 6t12 18.5t10.5 43t12 78.5q6 47 11 85q2 17 4 32t4 27q2 14 3 27q3 23 -1.5 35
t-17.5 18l-32 11l-3 35h153l190 -356h10l23 168q7 49 9 77.5t0.5 43t-6.5 19t-14 6.5l-36 7l-3 35h172z" />
    <glyph glyph-name="o" unicode="o" horiz-adv-x="539" 
d="M501 260q0 -57 -20.5 -109.5t-58.5 -90.5q-34 -33 -76.5 -52t-94.5 -19q-48 0 -87.5 16t-67 44t-43 66t-15.5 81q0 55 18.5 106t53.5 89q34 36 78.5 56t99.5 20q47 0 86.5 -16t67.5 -43.5t43.5 -65.5t15.5 -82zM408 277q0 38 -9.5 69.5t-27.5 49.5q-15 15 -35 24t-47 9
q-41 0 -71 -24.5t-49.5 -61.5t-29 -81.5t-9.5 -83.5q0 -80 42 -122q29 -29 78 -29q42 0 72 24.5t49 61.5t28 81t9 83z" />
    <glyph glyph-name="p" unicode="p" horiz-adv-x="481" 
d="M451 322q0 -36 -18.5 -63.5t-47.5 -46t-65 -28t-71 -9.5q-23 0 -39.5 1.5t-30.5 3.5l-15 -120q-2 -14 14 -17l47 -8l3 -35h-210l3 35l37 8q17 4 19 17l44 338q2 13 -14 17l-35 8l-3 35h194q96 0 142 -39.5t46 -96.5zM355 321q0 45 -30.5 73t-72.5 28h-41l-26 -204
q26 -8 59 -8q48 -1 79.5 30.5t31.5 80.5z" />
    <glyph glyph-name="q" unicode="q" horiz-adv-x="539" 
d="M450 -131q-13 -4 -36.5 -6.5t-48.5 -2.5q-43 0 -71 6.5t-48.5 22t-36.5 43t-36 69.5q-63 22 -99 74.5t-36 120.5q0 55 18.5 106t53.5 89q34 36 78.5 56t99.5 20q47 0 86.5 -16t67.5 -43.5t43.5 -65.5t15.5 -82q0 -57 -20.5 -109.5t-58.5 -90.5q-29 -28 -64 -46t-77 -23
q15 -27 28 -45t31 -28t44 -13.5t66 -1.5v-34zM408 277q0 38 -9.5 69.5t-27.5 49.5q-15 15 -35 24t-47 9q-41 0 -71 -24.5t-49.5 -61.5t-29 -81.5t-9.5 -83.5q0 -80 42 -122q29 -29 78 -29q42 0 72 24.5t49 61.5t28 81t9 83z" />
    <glyph glyph-name="r" unicode="r" horiz-adv-x="504" 
d="M332 0l-31 71l-59 122l-60 5l-18 -138q-2 -13 14 -17l36 -8l3 -35h-199l3 35l37 8q17 4 19 17l44 338q2 13 -14 17l-35 8l-3 35h204q53 0 89.5 -10t58.5 -26.5t31.5 -37.5t9.5 -44q0 -54 -38 -88t-95 -48l68 -131q9 -17 22 -23.5t24 -9.5l20 -5l3 -35h-134zM365 327
q0 42 -27 69.5t-81 27.5h-46l-24 -188l65 -11q23 2 43.5 8t36 18.5t24.5 31t9 44.5z" />
    <glyph glyph-name="s" unicode="s" horiz-adv-x="434" 
d="M369 132q0 -28 -12 -54t-36 -45.5t-59.5 -31.5t-82.5 -12q-45 0 -83.5 7t-70.5 16l11 141h42l21 -105q17 -8 41.5 -13.5t47.5 -5.5q52 0 77 22t25 53q0 16 -8 29t-21.5 24.5t-31.5 21.5t-38 19q-23 12 -45 24.5t-39.5 29t-28 37.5t-10.5 48q0 25 9.5 48.5t30.5 41.5
t54 29.5t81 11.5q33 0 61 -3.5t51 -8.5l42 11l-20 -153h-40l-17 96q-18 8 -41.5 13t-42.5 5q-46 0 -68.5 -16.5t-22.5 -45.5q0 -33 26 -55t77 -46q23 -12 45 -24.5t39 -28.5t27 -35.5t10 -44.5z" />
    <glyph glyph-name="t" unicode="t" horiz-adv-x="493" 
d="M425 301l-8 64q-2 17 -6.5 27.5t-15 16.5t-28.5 8t-47 2h-8l-47 -359q-2 -13 14 -17l46 -8l3 -35h-219l3 35l47 8q17 4 19 17l47 359h-6q-28 0 -46.5 -1.5t-31 -6.5t-20.5 -14.5t-15 -26.5l-28 -69h-46l33 157h424l-20 -157h-44z" />
    <glyph glyph-name="u" unicode="u" horiz-adv-x="544" 
d="M543 423l-36 -7q-9 -2 -15.5 -6.5t-12 -18.5t-10.5 -42.5t-12 -78.5l-17 -129q-9 -70 -58 -111.5t-128 -41.5q-83 0 -130 38.5t-47 108.5q0 8 0.5 14t1.5 14l33 235q2 13 -14 17l-35 8l-4 35h200l-3 -35l-38 -8q-18 -4 -20 -17l-30 -214q-2 -8 -2 -14v-16q0 -60 32 -87.5
t85 -27.5t85 30.5t40 90.5l15 110q7 50 9 78.5t0.5 42.5t-6.5 18.5t-14 6.5l-36 7l-3 35h173z" />
    <glyph glyph-name="v" unicode="v" horiz-adv-x="448" 
d="M495 422l-20 -4q-15 -3 -24.5 -7t-20 -17.5t-24 -39.5t-36.5 -74l-136 -281h-84l-85 400q-2 11 -8 12.5t-17 3.5l-32 7l-3 36h212l-2 -36l-32 -5q-11 -2 -16 -4.5t-6 -9.5t2 -20t7 -36l55 -276h10l103 223q18 38 26 62t8.5 37.5t-6.5 19.5t-20 7l-18 2l-3 36h172z" />
    <glyph glyph-name="w" unicode="w" horiz-adv-x="706" 
d="M744 422l-18 -5q-12 -3 -22 -8.5t-22 -19.5t-26.5 -39.5t-35.5 -69.5l-134 -281h-73l-52 299h-10l-139 -299h-74l-82 400q-3 12 -25 16l-34 7l-3 36h217l-3 -36l-34 -5q-9 -1 -14 -4t-6.5 -10.5t0.5 -20.5t6 -35l49 -253h10l121 253l-9 52q-2 8 -10 11t-16 5l-32 7l-3 36
h221l-3 -36l-33 -5q-6 -1 -10 -3.5t-6 -10t-1.5 -20.5t4.5 -36l42 -253h10l85 186q21 45 31 71.5t12 40.5t-2.5 18.5t-13.5 6.5l-23 5l-3 36h167z" />
    <glyph glyph-name="x" unicode="x" horiz-adv-x="489" 
d="M245 0l3 35l26 4q15 2 15 15.5t-18 50.5l-44 90h-5l-82 -100q-26 -32 -26 -42t20 -14l22 -4l3 -35h-175l3 35l30 7q17 4 32.5 14.5t34.5 31.5l120 135l-93 165q-8 15 -15 20t-16 7l-32 8l-3 35h204l-3 -35l-26 -4q-15 -2 -15.5 -15t18.5 -51l39 -81h5l75 91
q26 32 25.5 42t-20.5 14l-21 4l-3 35h175l-3 -35l-30 -7q-17 -4 -32.5 -15t-34.5 -31l-114 -125l100 -178q8 -14 15.5 -18t15.5 -6l31 -8l3 -35h-204z" />
    <glyph glyph-name="y" unicode="y" horiz-adv-x="437" 
d="M471 422l-13 -4q-8 -3 -16.5 -6.5t-18.5 -11t-21.5 -19.5t-26.5 -32l-119 -162l-17 -127q-2 -14 15 -17l47 -8l3 -35h-223l3 35l49 8q17 3 19 17l16 122l-102 207q-5 10 -13.5 17t-19.5 10l-22 6l-3 36h204l-3 -36l-28 -4q-15 -2 -19 -18.5t15 -59.5l53 -123h10l93 132
q25 35 25.5 51t-19.5 19l-19 3l-3 36h157z" />
    <glyph glyph-name="z" unicode="z" horiz-adv-x="474" 
d="M387 0h-381l5 37l341 377v5h-89q-38 0 -60.5 -2.5t-36.5 -9t-21.5 -17.5t-15.5 -29l-23 -58h-42l20 155h380l-5 -38l-343 -377v-5l92 1q42 0 67 3t39.5 9.5t22 16.5t14.5 25l25 57h47z" />
    <glyph glyph-name="braceleft" unicode="{" horiz-adv-x="336" 
d="M302 -235q-93 5 -144 44t-51 107q0 32 9 56.5t20.5 46t20.5 43t9 47.5q0 21 -11.5 35.5t-30 23.5t-42 13t-47.5 5l-11 29l11 28q24 1 47.5 5t42 12.5t30 23t11.5 36.5q0 26 -9 47.5t-20.5 43.5t-20.5 46.5t-9 56.5q0 68 51 107t144 44v-35q-59 -5 -91 -31.5t-32 -61.5
q0 -26 9 -47.5t20.5 -43.5t20.5 -47t9 -57q0 -25 -12.5 -47.5t-31.5 -39t-41.5 -26t-42.5 -9.5v-12q20 -1 42.5 -10.5t41.5 -26t31.5 -38t12.5 -47.5q0 -31 -9 -55.5t-20.5 -46.5t-20.5 -43.5t-9 -46.5q0 -35 32 -63t91 -33v-33z" />
    <glyph glyph-name="bar" unicode="|" horiz-adv-x="276" 
d="M115 690h46v-877h-46v877z" />
    <glyph glyph-name="braceright" unicode="}" horiz-adv-x="336" 
d="M291 186q-24 -1 -47.5 -5t-42 -13t-30 -23.5t-11.5 -35.5q0 -26 9 -47.5t20.5 -43t20.5 -46t9 -56.5q0 -68 -51 -107t-144 -44v33q59 5 91 33t32 63q0 25 -9 46.5t-20.5 43.5t-20.5 46.5t-9 55.5q0 26 12.5 47.5t31.5 38t41.5 26t42.5 10.5v12q-20 0 -42.5 9.5t-41.5 26
t-31.5 39t-12.5 47.5q0 32 9 57t20.5 47t20.5 43.5t9 47.5q0 35 -32 61.5t-91 31.5v35q93 -5 144 -44t51 -107q0 -32 -9 -56.5t-20.5 -46.5t-20.5 -43.5t-9 -47.5q0 -22 11.5 -36.5t30 -23t42 -12.5t47.5 -5l11 -28z" />
    <glyph glyph-name="asciitilde" unicode="~" horiz-adv-x="368" 
d="M269 223q14 0 26.5 13.5t32.5 51.5h26q-18 -60 -44.5 -86.5t-68.5 -26.5q-24 0 -44.5 11.5t-37.5 25t-32.5 25t-29.5 11.5t-26.5 -13.5t-32.5 -51.5h-26q18 60 44.5 86.5t68.5 26.5q24 0 44.5 -11.5t37.5 -25t32 -25t30 -11.5z" />
    <glyph glyph-name="exclamdown" unicode="&#xa1;" horiz-adv-x="284" 
d="M127 579q0 24 16.5 42t42.5 18t43.5 -18t17.5 -42q0 -23 -17.5 -40.5t-43.5 -17.5t-42.5 17.5t-16.5 40.5zM161 429q2 6 11 5.5t9 -6.5l-10 -403q-1 -19 -11 -30t-35 -11h-3q-36 0 -48 12.5t-7 34.5z" />
    <glyph glyph-name="cent" unicode="&#xa2;" 
d="M191 -166h-37l40 154q-22 4 -41 17t-32.5 33.5t-21.5 46.5t-8 56q0 55 16.5 111.5t46.5 103t72 76.5t93 32h1l47 172h37l-48 -176q38 -9 60.5 -33t22.5 -52q0 -23 -16 -40t-36 -17q-19 0 -34.5 10.5t-20.5 23.5l-83 -307q8 -1 22 3.5t30.5 13t35 19.5t36.5 23l16 -18
q-40 -48 -77 -73t-82 -27zM311 404q-8 5 -20 7.5t-24 2.5q-8 0 -19 -11q-13 -13 -26.5 -41.5t-25 -64t-19 -74t-7.5 -71.5q0 -41 13 -67t33 -35z" />
    <glyph glyph-name="sterling" unicode="&#xa3;" 
d="M153 309q2 33 4.5 62.5t4.5 47.5q14 103 73.5 161.5t146.5 58.5q51 0 82 -21t31 -54q0 -23 -14.5 -40t-38.5 -17q-29 0 -44 22.5t-5 56.5q-8 6 -20.5 10.5t-27.5 4.5q-16 0 -31 -6.5t-28 -23.5t-22.5 -46t-14.5 -73q-5 -35 -7 -71t-5 -72h153l3 -41h-160
q-2 -16 -3.5 -30.5t-4.5 -28.5q-6 -32 -16 -59t-27 -48v-5q15 -4 33 -11t37.5 -13.5t38.5 -11t36 -4.5q20 0 33 5t23 15q13 13 24 31l22 37l21 -7q-3 -29 -12 -56.5t-26 -48.5t-41 -34t-57 -13q-27 0 -49.5 8t-40.5 21t-33.5 28t-29.5 28q-32 -34 -75.5 -56t-94.5 -30l-6 39
q41 10 68.5 25t46 35.5t28.5 47t14 59.5q2 17 4 37l4 40h-108l3 41h108z" />
    <glyph glyph-name="currency" unicode="&#xa4;" 
d="M163 213q11 -78 51.5 -124.5t109.5 -46.5q43 0 75.5 17.5t60.5 40.5l12 -25q-31 -38 -77.5 -64t-100.5 -26q-49 0 -87.5 18t-65.5 49.5t-43.5 73t-22.5 87.5h-71l3 41h65v11q0 18 1.5 35.5t3.5 34.5h-57l3 41h62q15 58 43.5 105t66.5 80.5t84 51.5t95 18q78 0 115 -27
t37 -62q0 -24 -12 -41t-37 -17q-14 0 -25 7t-19 19t-12.5 27t-5.5 30q-13 10 -34 15.5t-39 5.5q-65 0 -111.5 -52t-63.5 -160h201l3 -41h-208q-3 -31 -3 -67v-14h192l3 -41h-192z" />
    <glyph glyph-name="yen" unicode="&#xa5;" 
d="M567 590l-14 -4q-22 -6 -45.5 -20.5t-49.5 -53.5l-136 -207h137l4 -41h-163l-8 -81h167l4 -41h-176l-10 -72q-2 -9 2 -15.5t15 -8.5l70 -11l3 -35h-271l2 35l70 11q24 4 26 24l7 72h-152l1 41h156l11 81h-168l1 41h154l-112 241q-5 11 -17.5 21.5t-27.5 14.5l-32 8l-3 35
h236l-3 -35l-39 -6q-23 -4 -22 -27t27 -79l73 -157h2l118 189q23 36 22 52.5t-23 22.5l-19 5l-3 35h189z" />
    <glyph glyph-name="brokenbar" unicode="&#xa6;" horiz-adv-x="396" 
d="M388 423l-44 -8q-18 -3 -20 -17l-32 -247q-4 -36 -20 -65.5t-38.5 -51.5t-50 -34t-56.5 -12q-41 0 -68.5 8.5t-44 21.5t-23 29t-6.5 32q0 25 14.5 39.5t34.5 14.5q17 0 30 -10.5t13 -29.5q0 -26 -15 -41q8 -10 22 -18.5t39 -8.5q33 0 56.5 28t31.5 89l33 256q2 14 -14 17
l-51 8l-2 35h213z" />
    <glyph glyph-name="section" unicode="&#xa7;" 
d="M442 263q0 -22 -8.5 -42.5t-22.5 -37.5t-32 -30.5t-37 -21.5q16 -28 16 -59q0 -21 -11 -44.5t-32 -43.5t-52 -33.5t-71 -13.5q-16 0 -35.5 4.5t-37 13.5t-29 23t-11.5 34q0 23 16 38t37 15q27 0 41.5 -21t18.5 -60q10 -5 20 -7t18 -2q29 0 46 21.5t17 48.5q0 19 -9 35.5
t-23.5 31.5t-33 29.5t-37.5 28.5q-21 15 -41.5 31t-36 34t-25.5 38.5t-10 45.5q0 23 8.5 43t22.5 37.5t32 30.5t37 20q-15 30 -15 59q0 23 11 46t31.5 41t49.5 29.5t65 11.5q16 0 35.5 -4.5t36.5 -13.5t28.5 -23t11.5 -33q0 -23 -15.5 -38.5t-35.5 -15.5q-55 0 -61 82
q-14 7 -27 7q-35 0 -50.5 -20t-15.5 -41q0 -19 9 -36t23.5 -32t33.5 -29t38 -29q20 -15 40 -31t36 -34t26 -38.5t10 -44.5zM379 226q0 32 -23 58t-54 49q-29 22 -59 45t-51 52q-20 -11 -36 -31.5t-16 -42.5q0 -32 24 -57.5t56 -50.5q29 -22 59 -44.5t50 -51.5q28 14 39 33
t11 41z" />
    <glyph glyph-name="dieresis" unicode="&#xa8;" horiz-adv-x="400" 
d="M407 607q0 -25 -15.5 -44t-43.5 -19t-43.5 19t-15.5 44t15.5 44t43.5 19t43.5 -19t15.5 -44zM207 607q0 -25 -15.5 -44t-43.5 -19t-43.5 19t-15.5 44t15.5 44t43.5 19t43.5 -19t15.5 -44z" />
    <glyph glyph-name="copyright" unicode="&#xa9;" horiz-adv-x="734" 
d="M694 312q0 -68 -25.5 -127.5t-70 -104t-104 -70t-127.5 -25.5t-127.5 25.5t-104 70t-70 104t-25.5 127.5t25.5 127.5t70 104t104 70.5t127.5 26t127.5 -26t104 -70.5t70 -104t25.5 -127.5zM656 312q0 60 -22.5 113.5t-62 93.5t-92 63.5t-112.5 23.5t-112.5 -23.5
t-92 -63.5t-62 -93.5t-22.5 -113.5t22.5 -113.5t62 -93t92 -63t112.5 -23.5t112.5 23.5t92 63t62 93t22.5 113.5zM496 137l-30 6q-18 -7 -42 -11t-44 -4q-46 0 -81 14t-59 38t-36 56.5t-12 70.5q0 41 13.5 76t38 60t58.5 39t74 14q25 0 45.5 -3.5t34.5 -8.5l46 12v-131h-27
l-23 73q-28 22 -81 22q-49 0 -82.5 -36t-33.5 -98q0 -72 34.5 -117.5t100.5 -45.5q15 0 30 4t26 12l34 79h28z" />
    <glyph glyph-name="ordfeminine" unicode="&#xaa;" horiz-adv-x="345" 
d="M289 588l12 51h47l-29 -124l-38 -176l19 -5l67 59l9 -13q-9 -15 -22.5 -31t-28.5 -29.5t-29.5 -22t-25.5 -8.5q-6 0 -13 4.5t-13 10.5t-10 12.5t-4 10.5q0 14 14 50t34 104h-5q-48 -96 -82.5 -144t-63.5 -48q-33 0 -51.5 27t-18.5 75q0 24 6 52.5t16.5 55.5t25 51.5
t30.5 40.5q23 23 48 35.5t51 12.5q23 0 33.5 -16.5t16.5 -34.5h5zM274 537q-6 9 -14.5 19.5t-19.5 19.5t-23 15t-24 6t-24 -12q-9 -9 -18.5 -28.5t-17.5 -45t-13.5 -54.5t-5.5 -56q0 -28 12 -43t28 -15q6 0 18 14t27 35.5t31.5 48.5t31.5 52z" />
    <glyph glyph-name="guillemotleft" unicode="&#xab;" horiz-adv-x="490" 
d="M415 50l-197 152v42l243 156l7 -20l-178 -160l137 -150zM226 60l-198 142v42l242 146l7 -20l-167 -150l129 -140z" />
    <glyph glyph-name="logicalnot" unicode="&#xac;" horiz-adv-x="447" 
d="M223 389h-10l-89 -199h134zM92 117q-9 -22 -14 -36t-5 -22.5t4.5 -12.5t13.5 -6l26 -5l3 -35h-164l2 35l19 4q15 3 24.5 7t19.5 17.5t23.5 40t35.5 74.5l117 246v20l96 27l80 -412q2 -10 8 -12t18 -5l31 -7l3 -35h-212l2 35l31 5q11 2 17 4.5t7.5 10t-0.5 20.5t-6 36
l-8 46h-154z" />
    <glyph glyph-name="registered" unicode="&#xae;" horiz-adv-x="734" 
d="M694 312q0 -68 -25.5 -127.5t-70 -104t-104 -70t-127.5 -25.5t-127.5 25.5t-104 70t-70 104t-25.5 127.5t25.5 127.5t70 104t104 70.5t127.5 26t127.5 -26t104 -70.5t70 -104t25.5 -127.5zM656 312q0 60 -22.5 113.5t-62 93.5t-92 63.5t-112.5 23.5t-112.5 -23.5
t-92 -63.5t-62 -93.5t-22.5 -113.5t22.5 -113.5t62 -93t92 -63t112.5 -23.5t112.5 23.5t92 63t62 93t22.5 113.5zM448 139l-21 39l-67 107l-39 2v-98q0 -10 14 -13l33 -6l1 -31h-151l2 31l29 6q13 3 13 13v250q0 11 -13 14l-29 6l-2 31h152q35 0 60 -7.5t40.5 -20.5t23 -29
t7.5 -33q0 -37 -21.5 -63t-62.5 -38l65 -98q13 -17 19 -21t13 -6l31 -4l2 -31h-99zM437 391q0 70 -93 65l-23 -1v-133l38 -5q35 2 56.5 19.5t21.5 54.5z" />
    <glyph glyph-name="macron" unicode="&#xaf;" horiz-adv-x="400" 
d="M106 541l9 41h246l-3 -41h-252z" />
    <glyph glyph-name="degree" unicode="&#xb0;" horiz-adv-x="410" 
d="M408 502q0 -39 -14.5 -73t-39 -59.5t-58 -40t-72.5 -14.5q-32 0 -60.5 10.5t-49.5 30t-33.5 47t-12.5 61.5q0 38 14.5 71.5t39 59t58 40t70.5 14.5q33 0 61.5 -10t50 -29t34 -46.5t12.5 -61.5zM358 492q1 50 -31 80.5t-82 31.5q-28 0 -51.5 -11t-40.5 -30.5t-27 -44.5
t-10 -52q0 -25 8.5 -45t23.5 -34.5t35.5 -22.5t43.5 -8q28 0 51.5 10.5t41 29.5t28 43.5t10.5 52.5z" />
    <glyph glyph-name="acute" unicode="&#xb4;" horiz-adv-x="400" 
d="M201 510h-22l116 187h100z" />
    <glyph glyph-name="mu" unicode="&#xb5;" horiz-adv-x="554" 
d="M503 171l-40 -8q-17 -3 -19 -18l-11 -88l40 -5l3 -24q-19 -7 -45.5 -14t-56 -13t-60.5 -9.5t-58 -3.5q-46 0 -86 13t-69.5 39.5t-46 66t-16.5 91.5q0 51 21 100t57 85q39 39 89 62t117 23q38 0 65.5 -6t41.5 -11l64 14l-23 -161h-49l-10 100q-16 11 -40 18t-52 7
q-44 0 -79 -19.5t-60 -52.5t-38 -77t-13 -93q0 -83 44 -127q33 -33 91 -33q22 0 44.5 4t38.5 11l13 103q2 15 -16 18l-39 8l-3 35h203z" />
    <glyph glyph-name="paragraph" unicode="&#xb6;" 
d="M330 -32l38 292q-20 -4 -36 -6t-38 -2q-51 0 -93 13.5t-71 36.5t-45 55.5t-16 69.5q0 54 19 91.5t52 61.5t77 34.5t94 10.5h156l-86 -657h-51z" />
    <glyph glyph-name="periodcentered" unicode="&#xb7;" horiz-adv-x="232" 
d="M161 228q0 -26 -18.5 -46.5t-47.5 -20.5t-48.5 20.5t-19.5 46.5t19.5 45.5t48.5 19.5t47.5 -19.5t18.5 -45.5z" />
    <glyph glyph-name="cedilla" unicode="&#xb8;" horiz-adv-x="400" 
d="M26 -246q168 21 168 93q0 20 -19 33t-59 13q-30 0 -63 -6l3 20l124 114h44l-86 -78q57 0 89 -21.5t32 -59.5q0 -53 -61.5 -89t-166.5 -43z" />
    <glyph glyph-name="ordmasculine" unicode="&#xba;" horiz-adv-x="321" 
d="M335 496q0 -36 -12 -73t-33 -67t-51 -48.5t-66 -18.5q-57 0 -84 39.5t-27 102.5q0 37 12 74t33.5 67t51 48.5t65.5 18.5q57 0 84 -40t27 -103zM278 523q0 17 -3 33t-9.5 28t-17 19.5t-24.5 7.5q-18 0 -34 -14.5t-28.5 -35t-21 -42t-12.5 -36.5q-9 -34 -9 -71q0 -17 3 -34
t9.5 -30.5t17 -22t24.5 -8.5q20 0 36 15t28.5 36t20.5 44t12 38q5 18 6.5 36.5t1.5 36.5z" />
    <glyph glyph-name="guillemotright" unicode="&#xbb;" horiz-adv-x="490" 
d="M199 56l-7 20l167 150l-129 140l13 20l198 -142v-42zM8 46l-7 20l178 160l-137 150l12 20l197 -152v-42z" />
    <glyph glyph-name="onequarter" unicode="&#xbc;" horiz-adv-x="970" 
d="M405 309l-8 64q-3 17 -8.5 27t-20 15t-41.5 6t-74 1h-41l-24 -181h38q35 0 50 3.5t22 17.5l24 49h35l-39 -170h-33l-1 47q0 12 -10.5 17t-52.5 5h-37l-20 -150q-2 -13 14 -17l46 -8l3 -35h-209l3 35l37 8q17 4 19 17l44 338q2 13 -14 17l-35 8l-2 35h398l-19 -149h-44z
M890 309l-8 64q-3 17 -8.5 27t-20 15t-41.5 6t-74 1h-41l-24 -181h38q35 0 50 3.5t22 17.5l24 49h35l-39 -170h-33l-1 47q0 12 -10.5 17t-52.5 5h-37l-20 -150q-2 -13 14 -17l46 -8l3 -35h-209l3 35l37 8q17 4 19 17l44 338q2 13 -14 17l-35 8l-2 35h398l-19 -149h-44z" />
    <glyph glyph-name="onehalf" unicode="&#xbd;" horiz-adv-x="1280" 
d="M405 309l-8 64q-3 17 -8.5 27t-20 15t-41.5 6t-74 1h-41l-24 -181h38q35 0 50 3.5t22 17.5l24 49h35l-39 -170h-33l-1 47q0 12 -10.5 17t-52.5 5h-37l-20 -150q-2 -13 14 -17l46 -8l3 -35h-209l3 35l37 8q17 4 19 17l44 338q2 13 -14 17l-35 8l-2 35h398l-19 -149h-44z
M890 309l-8 64q-3 17 -8.5 27t-20 15t-41.5 6t-74 1h-41l-24 -181h38q35 0 50 3.5t22 17.5l24 49h35l-39 -170h-33l-1 47q0 12 -10.5 17t-52.5 5h-37l-20 -150q-2 -13 14 -17l46 -8l3 -35h-209l3 35l37 8q17 4 19 17l44 338q2 13 -14 17l-35 8l-2 35h398l-19 -149h-44z
M990 0l3 35l45 8q17 3 19 17l44 338q2 14 -14 17l-43 8l-3 35h214l-3 -35l-44 -8q-11 -2 -15 -6.5t-5 -10.5l-44 -338q-2 -14 15 -17l42 -8l3 -35h-214z" />
    <glyph glyph-name="threequarters" unicode="&#xbe;" horiz-adv-x="1441" 
d="M405 309l-8 64q-3 17 -8.5 27t-20 15t-41.5 6t-74 1h-41l-24 -181h38q35 0 50 3.5t22 17.5l24 49h35l-39 -170h-33l-1 47q0 12 -10.5 17t-52.5 5h-37l-20 -150q-2 -13 14 -17l46 -8l3 -35h-209l3 35l37 8q17 4 19 17l44 338q2 13 -14 17l-35 8l-2 35h398l-19 -149h-44z
M890 309l-8 64q-3 17 -8.5 27t-20 15t-41.5 6t-74 1h-41l-24 -181h38q35 0 50 3.5t22 17.5l24 49h35l-39 -170h-33l-1 47q0 12 -10.5 17t-52.5 5h-37l-20 -150q-2 -13 14 -17l46 -8l3 -35h-209l3 35l37 8q17 4 19 17l44 338q2 13 -14 17l-35 8l-2 35h398l-19 -149h-44z
M1352 0h-364l3 35l37 8q17 4 19 17l44 338q2 13 -14 17l-35 8l-3 35h202l-2 -35l-42 -8q-17 -3 -19 -17l-47 -359h27q46 0 73 1.5t42.5 6.5t24 15t16.5 26l28 68h47z" />
    <glyph glyph-name="questiondown" unicode="&#xbf;" horiz-adv-x="373" 
d="M24 156q0 35 11 58.5t28.5 39t39.5 25t44 16.5q19 6 36.5 12t31 15t21.5 21.5t8 30.5q0 20 -9 37.5t-24 36.5l30 -2q7 -7 16 -18t17.5 -24.5t14.5 -29.5t6 -33q0 -29 -11.5 -48.5t-29.5 -33t-41 -22.5t-46 -16q-19 -6 -37 -12t-31.5 -13t-21.5 -16.5t-8 -23.5
q0 -16 12.5 -31t34.5 -27t51.5 -19t62.5 -7q15 0 27.5 1t23.5 3q7 -10 7 -25q0 -25 -19.5 -42t-59.5 -17q-39 0 -73 14t-58.5 37t-39 52.5t-14.5 60.5zM199 585q0 24 16.5 42t42.5 18t43.5 -18t17.5 -42q0 -23 -17.5 -40.5t-43.5 -17.5t-42.5 17.5t-16.5 40.5z" />
    <glyph glyph-name="Agrave" unicode="&#xc0;" horiz-adv-x="591" 
d="M310 0l3 35l52 9q16 3 18.5 13t0.5 22l-22 146h-184l-33 -85q-18 -46 -16 -67.5t23 -26.5l45 -11l3 -35h-223l3 35l37 12q23 7 35.5 20t26.5 45l207 469v33l101 25l98 -560q3 -14 8.5 -21.5t24.5 -11.5l52 -11l3 -35h-263zM314 541h-5l-114 -274h160zM348 677l-144 187
h100l66 -187h-22z" />
    <glyph glyph-name="Aacute" unicode="&#xc1;" horiz-adv-x="591" 
d="M310 0l3 35l52 9q16 3 18.5 13t0.5 22l-22 146h-184l-33 -85q-18 -46 -16 -67.5t23 -26.5l45 -11l3 -35h-223l3 35l37 12q23 7 35.5 20t26.5 45l207 469v33l101 25l98 -560q3 -14 8.5 -21.5t24.5 -11.5l52 -11l3 -35h-263zM314 541h-5l-114 -274h160zM316 677h-22
l116 187h100z" />
    <glyph glyph-name="Acircumflex" unicode="&#xc2;" horiz-adv-x="591" 
d="M310 0l3 35l52 9q16 3 18.5 13t0.5 22l-22 146h-184l-33 -85q-18 -46 -16 -67.5t23 -26.5l45 -11l3 -35h-223l3 35l37 12q23 7 35.5 20t26.5 45l207 469v33l101 25l98 -560q3 -14 8.5 -21.5t24.5 -11.5l52 -11l3 -35h-263zM314 541h-5l-114 -274h160zM447 677l-86 128h-2
l-122 -128h-22l106 187h92l56 -187h-22z" />
    <glyph glyph-name="Atilde" unicode="&#xc3;" horiz-adv-x="591" 
d="M310 0l3 35l52 9q16 3 18.5 13t0.5 22l-22 146h-184l-33 -85q-18 -46 -16 -67.5t23 -26.5l45 -11l3 -35h-223l3 35l37 12q23 7 35.5 20t26.5 45l207 469v33l101 25l98 -560q3 -14 8.5 -21.5t24.5 -11.5l52 -11l3 -35h-263zM314 541h-5l-114 -274h160zM534 810
q-18 -60 -45.5 -91.5t-69.5 -31.5q-24 0 -44 11.5t-37.5 25t-32.5 25t-29 11.5t-26.5 -13.5t-32.5 -51.5h-26q17 60 44.5 91.5t69.5 31.5q24 0 44 -11.5t37 -25t32 -25t30 -11.5q14 0 27 13.5t33 51.5h26z" />
    <glyph glyph-name="Adieresis" unicode="&#xc4;" horiz-adv-x="591" 
d="M310 0l3 35l52 9q16 3 18.5 13t0.5 22l-22 146h-184l-33 -85q-18 -46 -16 -67.5t23 -26.5l45 -11l3 -35h-223l3 35l37 12q23 7 35.5 20t26.5 45l207 469v33l101 25l98 -560q3 -14 8.5 -21.5t24.5 -11.5l52 -11l3 -35h-263zM314 541h-5l-114 -274h160zM502 774
q0 -25 -15.5 -44t-43.5 -19t-43.5 19t-15.5 44t15.5 44t43.5 19t43.5 -19t15.5 -44zM302 774q0 -25 -15.5 -44t-43.5 -19t-43.5 19t-15.5 44t15.5 44t43.5 19t43.5 -19t15.5 -44z" />
    <glyph glyph-name="Aring" unicode="&#xc5;" horiz-adv-x="591" 
d="M314 541h-5l-114 -274h160zM409 688q0 25 -15.5 44t-43.5 19t-43.5 -19t-15.5 -44t15.5 -44t43.5 -19t43.5 19t15.5 44zM299 612q-18 12 -28.5 32.5t-9.5 43.5q1 37 24 63.5t65 26.5t65.5 -26.5t23.5 -63.5q0 -26 -12 -47.5t-34 -32.5l92 -529q2 -14 8 -21.5t25 -11.5
l52 -11l3 -35h-263l3 35l52 9q16 3 18.5 13t0.5 22l-22 146h-184l-33 -85q-18 -46 -16 -67.5t23 -26.5l45 -11l3 -35h-223l3 35l37 12q23 7 35.5 20t26.5 45z" />
    <glyph glyph-name="AE" unicode="&#xc6;" horiz-adv-x="797" 
d="M718 0h-459l3 35l56 11q23 4 26 24l21 155h-179l-43 -71q-15 -25 -27 -49.5t-12 -36.5q0 -11 6.5 -15.5t17.5 -6.5l45 -11l3 -35h-223l3 35l37 12q23 7 40 24t32 41l273 443q5 8 1.5 14.5t-17.5 9.5l-53 11l-3 35h535l-25 -186h-49l-11 97q-2 17 -7.5 27t-25.5 15
t-59.5 6.5t-108.5 1.5h-13l-35 -249h5q29 0 47 0.5t29 2.5t16.5 6.5t9.5 12.5l32 67h39l-51 -215h-38l5 64q1 7 -2 11.5t-13 7.5t-29.5 4t-51.5 1h-3l-34 -260h7q75 0 118 1.5t66 6.5t32.5 15t16.5 27l39 92h54zM415 589h-7l-196 -322h159z" />
    <glyph glyph-name="Ccedilla" unicode="&#xc7;" horiz-adv-x="618" 
d="M292 -13q-61 6 -106.5 28.5t-75.5 58.5t-45 84.5t-15 106.5q0 75 28.5 145t81.5 123q48 48 110.5 77t136.5 29q18 0 38 -2t39.5 -5t36 -6.5t26.5 -6.5l72 15l-28 -205h-45l-12 132q-24 15 -54 25.5t-75 10.5q-49 0 -94.5 -24t-80.5 -68t-56.5 -107t-21.5 -140
q0 -60 17.5 -107t49.5 -79q20 -20 52 -32.5t68 -12.5q62 0 117 30l60 136h52l-47 -193l-51 9q-29 -10 -66.5 -17t-68.5 -7h-2l-46 -42q57 0 89 -21.5t32 -59.5q0 -53 -61.5 -89t-166.5 -43l-5 24q168 21 168 93q0 20 -19 33t-59 13q-30 0 -63 -6l3 20z" />
    <glyph glyph-name="Egrave" unicode="&#xc8;" horiz-adv-x="578" 
d="M494 0h-483l3 35l55 11q23 4 26 24l66 485q2 9 -2 15t-18 9l-51 11l-3 35h490l-25 -186h-49l-11 97q-2 17 -7.5 27t-25.5 15t-59.5 6.5t-108.5 1.5h-30l-34 -249h21q29 0 47 0.5t29 2.5t16.5 6.5t9.5 12.5l32 67h39l-51 -215h-38l5 64q1 7 -2 11.5t-13 7.5t-29.5 4
t-51.5 1h-19l-35 -260h24q75 0 118 1.5t66 6.5t32.5 15t16.5 27l39 92h54zM362 677l-144 187h100l66 -187h-22z" />
    <glyph glyph-name="Eacute" unicode="&#xc9;" horiz-adv-x="578" 
d="M494 0h-483l3 35l55 11q23 4 26 24l66 485q2 9 -2 15t-18 9l-51 11l-3 35h490l-25 -186h-49l-11 97q-2 17 -7.5 27t-25.5 15t-59.5 6.5t-108.5 1.5h-30l-34 -249h21q29 0 47 0.5t29 2.5t16.5 6.5t9.5 12.5l32 67h39l-51 -215h-38l5 64q1 7 -2 11.5t-13 7.5t-29.5 4
t-51.5 1h-19l-35 -260h24q75 0 118 1.5t66 6.5t32.5 15t16.5 27l39 92h54zM290 677h-22l116 187h100z" />
    <glyph glyph-name="Ecircumflex" unicode="&#xca;" horiz-adv-x="578" 
d="M494 0h-483l3 35l55 11q23 4 26 24l66 485q2 9 -2 15t-18 9l-51 11l-3 35h490l-25 -186h-49l-11 97q-2 17 -7.5 27t-25.5 15t-59.5 6.5t-108.5 1.5h-30l-34 -249h21q29 0 47 0.5t29 2.5t16.5 6.5t9.5 12.5l32 67h39l-51 -215h-38l5 64q1 7 -2 11.5t-13 7.5t-29.5 4
t-51.5 1h-19l-35 -260h24q75 0 118 1.5t66 6.5t32.5 15t16.5 27l39 92h54zM451 677l-86 128h-2l-122 -128h-22l106 187h92l56 -187h-22z" />
    <glyph glyph-name="Edieresis" unicode="&#xcb;" horiz-adv-x="578" 
d="M494 0h-483l3 35l55 11q23 4 26 24l66 485q2 9 -2 15t-18 9l-51 11l-3 35h490l-25 -186h-49l-11 97q-2 17 -7.5 27t-25.5 15t-59.5 6.5t-108.5 1.5h-30l-34 -249h21q29 0 47 0.5t29 2.5t16.5 6.5t9.5 12.5l32 67h39l-51 -215h-38l5 64q1 7 -2 11.5t-13 7.5t-29.5 4
t-51.5 1h-19l-35 -260h24q75 0 118 1.5t66 6.5t32.5 15t16.5 27l39 92h54zM506 774q0 -25 -15.5 -44t-43.5 -19t-43.5 19t-15.5 44t15.5 44t43.5 19t43.5 -19t15.5 -44zM306 774q0 -25 -15.5 -44t-43.5 -19t-43.5 19t-15.5 44t15.5 44t43.5 19t43.5 -19t15.5 -44z" />
    <glyph glyph-name="Igrave" unicode="&#xcc;" horiz-adv-x="359" 
d="M14 0l3 35l65 11q23 4 26 24l66 485q2 9 -2 15.5t-18 8.5l-61 11l-3 35h273l-3 -35l-65 -11q-23 -5 -26 -24l-65 -485q-3 -20 20 -24l61 -11l3 -35h-274zM232 677l-144 187h100l66 -187h-22z" />
    <glyph glyph-name="Iacute" unicode="&#xcd;" horiz-adv-x="359" 
d="M14 0l3 35l65 11q23 4 26 24l66 485q2 9 -2 15.5t-18 8.5l-61 11l-3 35h273l-3 -35l-65 -11q-23 -5 -26 -24l-65 -485q-3 -20 20 -24l61 -11l3 -35h-274zM240 677h-22l116 187h100z" />
    <glyph glyph-name="Icircumflex" unicode="&#xce;" horiz-adv-x="359" 
d="M14 0l3 35l65 11q23 4 26 24l66 485q2 9 -2 15.5t-18 8.5l-61 11l-3 35h273l-3 -35l-65 -11q-23 -5 -26 -24l-65 -485q-3 -20 20 -24l61 -11l3 -35h-274zM336 677l-86 128h-2l-122 -128h-22l106 187h92l56 -187h-22z" />
    <glyph glyph-name="Idieresis" unicode="&#xcf;" horiz-adv-x="359" 
d="M14 0l3 35l65 11q23 4 26 24l66 485q2 9 -2 15.5t-18 8.5l-61 11l-3 35h273l-3 -35l-65 -11q-23 -5 -26 -24l-65 -485q-3 -20 20 -24l61 -11l3 -35h-274zM399 774q0 -25 -15.5 -44t-43.5 -19t-43.5 19t-15.5 44t15.5 44t43.5 19t43.5 -19t15.5 -44zM199 774
q0 -25 -15.5 -44t-43.5 -19t-43.5 19t-15.5 44t15.5 44t43.5 19t43.5 -19t15.5 -44z" />
    <glyph glyph-name="Eth" unicode="&#xd0;" horiz-adv-x="659" 
d="M335 339l3 -41h-116l-33 -244l69 -15q58 2 107.5 24t85.5 63t56.5 99.5t20.5 133.5q0 50 -13 91.5t-39.5 71.5t-67 47t-94.5 17h-54l-33 -247h108zM44 298l3 41h84l29 216q2 9 -2 15t-18 9l-51 11l-3 35h249q69 0 124.5 -20t93.5 -55.5t58.5 -85.5t20.5 -110
q0 -72 -23.5 -132.5t-75.5 -111.5q-48 -48 -124.5 -79t-176.5 -31h-221l3 35l55 11q23 4 26 24l31 228h-82z" />
    <glyph glyph-name="Ntilde" unicode="&#xd1;" horiz-adv-x="716" 
d="M734 590l-48 -8q-14 -3 -24 -9t-17.5 -26t-14.5 -58.5t-16 -106.5l-53 -391h-54l-289 535h-5l-37 -283q-9 -67 -13 -106t-2.5 -59t9.5 -26t23 -9l47 -8l3 -35h-233l3 35l48 8q15 3 24.5 10t17 27t14 58.5t15.5 104.5l33 246q5 44 -1.5 63t-29.5 26l-45 12l-3 35h185
l260 -483h5l33 240q9 69 13.5 108t3 58.5t-9 25t-22.5 8.5l-48 8l-3 35h234zM567 810q-18 -60 -45.5 -91.5t-69.5 -31.5q-24 0 -44 11.5t-37.5 25t-32.5 25t-29 11.5t-26.5 -13.5t-32.5 -51.5h-26q17 60 44.5 91.5t69.5 31.5q24 0 44 -11.5t37 -25t32 -25t30 -11.5
q14 0 27 13.5t33 51.5h26z" />
    <glyph glyph-name="Ograve" unicode="&#xd2;" horiz-adv-x="695" 
d="M668 348q0 -77 -26.5 -146t-76.5 -120q-43 -45 -101 -71t-129 -26q-64 0 -116.5 22t-90 60.5t-58 92t-20.5 116.5q0 72 22.5 136t64.5 114q44 52 106 82.5t140 30.5q64 0 116.5 -22t90 -60.5t58 -92t20.5 -116.5zM566 363q0 54 -14 102.5t-46 80.5q-24 24 -56 37.5
t-77 13.5q-39 0 -70.5 -15.5t-56 -42t-42.5 -60.5t-29.5 -71t-17 -74.5t-5.5 -70.5q0 -54 14 -102.5t46 -80.5q24 -24 56 -37.5t77 -13.5q39 0 70.5 15.5t56 42t42.5 60.5t29.5 71t17 74.5t5.5 70.5zM400 677l-144 187h100l66 -187h-22z" />
    <glyph glyph-name="Oacute" unicode="&#xd3;" horiz-adv-x="695" 
d="M668 348q0 -77 -26.5 -146t-76.5 -120q-43 -45 -101 -71t-129 -26q-64 0 -116.5 22t-90 60.5t-58 92t-20.5 116.5q0 72 22.5 136t64.5 114q44 52 106 82.5t140 30.5q64 0 116.5 -22t90 -60.5t58 -92t20.5 -116.5zM566 363q0 54 -14 102.5t-46 80.5q-24 24 -56 37.5
t-77 13.5q-39 0 -70.5 -15.5t-56 -42t-42.5 -60.5t-29.5 -71t-17 -74.5t-5.5 -70.5q0 -54 14 -102.5t46 -80.5q24 -24 56 -37.5t77 -13.5q39 0 70.5 15.5t56 42t42.5 60.5t29.5 71t17 74.5t5.5 70.5zM368 677h-22l116 187h100z" />
    <glyph glyph-name="Ocircumflex" unicode="&#xd4;" horiz-adv-x="695" 
d="M668 348q0 -77 -26.5 -146t-76.5 -120q-43 -45 -101 -71t-129 -26q-64 0 -116.5 22t-90 60.5t-58 92t-20.5 116.5q0 72 22.5 136t64.5 114q44 52 106 82.5t140 30.5q64 0 116.5 -22t90 -60.5t58 -92t20.5 -116.5zM566 363q0 54 -14 102.5t-46 80.5q-24 24 -56 37.5
t-77 13.5q-39 0 -70.5 -15.5t-56 -42t-42.5 -60.5t-29.5 -71t-17 -74.5t-5.5 -70.5q0 -54 14 -102.5t46 -80.5q24 -24 56 -37.5t77 -13.5q39 0 70.5 15.5t56 42t42.5 60.5t29.5 71t17 74.5t5.5 70.5zM509 677l-86 128h-2l-122 -128h-22l106 187h92l56 -187h-22z" />
    <glyph glyph-name="Otilde" unicode="&#xd5;" horiz-adv-x="695" 
d="M668 348q0 -77 -26.5 -146t-76.5 -120q-43 -45 -101 -71t-129 -26q-64 0 -116.5 22t-90 60.5t-58 92t-20.5 116.5q0 72 22.5 136t64.5 114q44 52 106 82.5t140 30.5q64 0 116.5 -22t90 -60.5t58 -92t20.5 -116.5zM566 363q0 54 -14 102.5t-46 80.5q-24 24 -56 37.5
t-77 13.5q-39 0 -70.5 -15.5t-56 -42t-42.5 -60.5t-29.5 -71t-17 -74.5t-5.5 -70.5q0 -54 14 -102.5t46 -80.5q24 -24 56 -37.5t77 -13.5q39 0 70.5 15.5t56 42t42.5 60.5t29.5 71t17 74.5t5.5 70.5zM596 810q-18 -60 -45.5 -91.5t-69.5 -31.5q-24 0 -44 11.5t-37.5 25
t-32.5 25t-29 11.5t-26.5 -13.5t-32.5 -51.5h-26q17 60 44.5 91.5t69.5 31.5q24 0 44 -11.5t37 -25t32 -25t30 -11.5q14 0 27 13.5t33 51.5h26z" />
    <glyph glyph-name="Odieresis" unicode="&#xd6;" horiz-adv-x="695" 
d="M668 348q0 -77 -26.5 -146t-76.5 -120q-43 -45 -101 -71t-129 -26q-64 0 -116.5 22t-90 60.5t-58 92t-20.5 116.5q0 72 22.5 136t64.5 114q44 52 106 82.5t140 30.5q64 0 116.5 -22t90 -60.5t58 -92t20.5 -116.5zM566 363q0 54 -14 102.5t-46 80.5q-24 24 -56 37.5
t-77 13.5q-39 0 -70.5 -15.5t-56 -42t-42.5 -60.5t-29.5 -71t-17 -74.5t-5.5 -70.5q0 -54 14 -102.5t46 -80.5q24 -24 56 -37.5t77 -13.5q39 0 70.5 15.5t56 42t42.5 60.5t29.5 71t17 74.5t5.5 70.5zM554 774q0 -25 -15.5 -44t-43.5 -19t-43.5 19t-15.5 44t15.5 44t43.5 19
t43.5 -19t15.5 -44zM354 774q0 -25 -15.5 -44t-43.5 -19t-43.5 19t-15.5 44t15.5 44t43.5 19t43.5 -19t15.5 -44z" />
    <glyph glyph-name="multiply" unicode="&#xd7;" horiz-adv-x="486" 
d="M413 103l-168 169l-169 -169l-37 37l169 169l-169 168l37 37l169 -169l169 170l37 -37l-170 -169l169 -169z" />
    <glyph glyph-name="Oslash" unicode="&#xd8;" horiz-adv-x="695" 
d="M236 60q43 -31 109 -31q39 0 70.5 15.5t56 42t42.5 60.5t29.5 71t17 74.5t5.5 70.5q0 51 -12 97t-40 78zM483 565q-22 16 -48.5 24t-61.5 8q-39 0 -70.5 -15.5t-56 -42t-42.5 -60.5t-29.5 -71t-17 -74.5t-5.5 -70.5q0 -51 12 -97.5t41 -78.5zM173 31q-58 38 -90.5 101.5
t-32.5 143.5q0 72 22.5 136t64.5 114q44 52 106 82.5t140 30.5q72 0 127 -27l44 76h47l-28 -48q-11 -18 -19 -32.5t-9 -15.5q58 -38 90.5 -101t32.5 -143q0 -77 -26.5 -146t-76.5 -120q-43 -45 -101 -71t-129 -26t-127 27l-50 -86h-46z" />
    <glyph glyph-name="Ugrave" unicode="&#xd9;" horiz-adv-x="714" 
d="M734 590l-48 -8q-14 -3 -23.5 -9t-17 -26t-14.5 -58.5t-17 -106.5l-25 -183q-8 -55 -30.5 -95.5t-56 -67t-77 -39t-93.5 -12.5q-48 0 -89 11.5t-71 35t-47.5 59t-17.5 84.5q0 14 1 30.5t3 28.5l45 321q2 9 -2 15t-18 9l-51 11l-3 35h254l-3 -35l-55 -11q-23 -4 -26 -24
l-42 -305q-2 -11 -3.5 -26.5t-1.5 -29.5q0 -42 12.5 -71t34 -47.5t51.5 -27t65 -8.5q34 0 63.5 8.5t53 28t39.5 52.5t23 81l23 172q10 69 14 107.5t2.5 58.5t-9.5 25.5t-23 8.5l-47 8l-3 35h233zM430 677l-144 187h100l66 -187h-22z" />
    <glyph glyph-name="Uacute" unicode="&#xda;" horiz-adv-x="714" 
d="M734 590l-48 -8q-14 -3 -23.5 -9t-17 -26t-14.5 -58.5t-17 -106.5l-25 -183q-8 -55 -30.5 -95.5t-56 -67t-77 -39t-93.5 -12.5q-48 0 -89 11.5t-71 35t-47.5 59t-17.5 84.5q0 14 1 30.5t3 28.5l45 321q2 9 -2 15t-18 9l-51 11l-3 35h254l-3 -35l-55 -11q-23 -4 -26 -24
l-42 -305q-2 -11 -3.5 -26.5t-1.5 -29.5q0 -42 12.5 -71t34 -47.5t51.5 -27t65 -8.5q34 0 63.5 8.5t53 28t39.5 52.5t23 81l23 172q10 69 14 107.5t2.5 58.5t-9.5 25.5t-23 8.5l-47 8l-3 35h233zM408 677h-22l116 187h100z" />
    <glyph glyph-name="Ucircumflex" unicode="&#xdb;" horiz-adv-x="714" 
d="M734 590l-48 -8q-14 -3 -23.5 -9t-17 -26t-14.5 -58.5t-17 -106.5l-25 -183q-8 -55 -30.5 -95.5t-56 -67t-77 -39t-93.5 -12.5q-48 0 -89 11.5t-71 35t-47.5 59t-17.5 84.5q0 14 1 30.5t3 28.5l45 321q2 9 -2 15t-18 9l-51 11l-3 35h254l-3 -35l-55 -11q-23 -4 -26 -24
l-42 -305q-2 -11 -3.5 -26.5t-1.5 -29.5q0 -42 12.5 -71t34 -47.5t51.5 -27t65 -8.5q34 0 63.5 8.5t53 28t39.5 52.5t23 81l23 172q10 69 14 107.5t2.5 58.5t-9.5 25.5t-23 8.5l-47 8l-3 35h233zM524 677l-86 128h-2l-122 -128h-22l106 187h92l56 -187h-22z" />
    <glyph glyph-name="Udieresis" unicode="&#xdc;" horiz-adv-x="714" 
d="M734 590l-48 -8q-14 -3 -23.5 -9t-17 -26t-14.5 -58.5t-17 -106.5l-25 -183q-8 -55 -30.5 -95.5t-56 -67t-77 -39t-93.5 -12.5q-48 0 -89 11.5t-71 35t-47.5 59t-17.5 84.5q0 14 1 30.5t3 28.5l45 321q2 9 -2 15t-18 9l-51 11l-3 35h254l-3 -35l-55 -11q-23 -4 -26 -24
l-42 -305q-2 -11 -3.5 -26.5t-1.5 -29.5q0 -42 12.5 -71t34 -47.5t51.5 -27t65 -8.5q34 0 63.5 8.5t53 28t39.5 52.5t23 81l23 172q10 69 14 107.5t2.5 58.5t-9.5 25.5t-23 8.5l-47 8l-3 35h233zM564 774q0 -25 -15.5 -44t-43.5 -19t-43.5 19t-15.5 44t15.5 44t43.5 19
t43.5 -19t15.5 -44zM364 774q0 -25 -15.5 -44t-43.5 -19t-43.5 19t-15.5 44t15.5 44t43.5 19t43.5 -19t15.5 -44z" />
    <glyph glyph-name="Yacute" unicode="&#xdd;" horiz-adv-x="593" 
d="M645 590l-28 -7q-27 -7 -49 -20t-47 -50l-166 -245l-26 -198q-3 -20 20 -24l69 -11l3 -35h-292l4 35l74 11q13 2 18.5 8.5t7.5 15.5l26 198l-120 245q-16 32 -29 45t-35 20l-39 12l-2 35h258l-4 -35l-41 -6q-25 -4 -25 -23t19 -57l88 -193h5l143 218q11 18 10.5 32
t-29.5 20l-44 9l-3 35h237zM347 677h-22l116 187h100z" />
    <glyph glyph-name="Thorn" unicode="&#xde;" horiz-adv-x="562" 
d="M539 328q0 -49 -22 -86t-58 -62t-82.5 -37.5t-95.5 -12.5q-20 0 -40 2t-40 5l-10 -67q-3 -21 20 -24l72 -11l3 -35h-275l3 35l55 11q23 4 26 24l67 485q2 9 -2 15t-18 9l-50 11l-3 35h253l-3 -35l-55 -11q-23 -4 -26 -24l-7 -55h64q51 0 92.5 -12.5t71 -35.5t45 -54.5
t15.5 -69.5zM438 330q0 30 -10.5 54t-29 41.5t-44.5 27t-58 9.5h-50l-39 -285q17 -5 36 -7.5t35 -2.5q71 0 115.5 42.5t44.5 120.5z" />
    <glyph glyph-name="germandbls" unicode="&#xdf;" horiz-adv-x="868" 
d="M369 132q0 -28 -12 -54t-36 -45.5t-59.5 -31.5t-82.5 -12q-45 0 -83.5 7t-70.5 16l11 141h42l21 -105q17 -8 41.5 -13.5t47.5 -5.5q52 0 77 22t25 53q0 16 -8 29t-21.5 24.5t-31.5 21.5t-38 19q-23 12 -45 24.5t-39.5 29t-28 37.5t-10.5 48q0 25 9.5 48.5t30.5 41.5
t54 29.5t81 11.5q33 0 61 -3.5t51 -8.5l42 11l-20 -153h-40l-17 96q-18 8 -41.5 13t-42.5 5q-46 0 -68.5 -16.5t-22.5 -45.5q0 -33 26 -55t77 -46q23 -12 45 -24.5t39 -28.5t27 -35.5t10 -44.5zM803 132q0 -28 -12 -54t-36 -45.5t-59.5 -31.5t-82.5 -12q-45 0 -83.5 7
t-70.5 16l11 141h42l21 -105q17 -8 41.5 -13.5t47.5 -5.5q52 0 77 22t25 53q0 16 -8 29t-21.5 24.5t-31.5 21.5t-38 19q-23 12 -45 24.5t-39.5 29t-28 37.5t-10.5 48q0 25 9.5 48.5t30.5 41.5t54 29.5t81 11.5q33 0 61 -3.5t51 -8.5l42 11l-20 -153h-40l-17 96
q-18 8 -41.5 13t-42.5 5q-46 0 -68.5 -16.5t-22.5 -45.5q0 -33 26 -55t77 -46q23 -12 45 -24.5t39 -28.5t27 -35.5t10 -44.5z" />
    <glyph glyph-name="agrave" unicode="&#xe0;" horiz-adv-x="447" 
d="M276 510l-144 187h100l66 -187h-22zM223 389h-10l-89 -199h134zM92 117q-9 -22 -14 -36t-5 -22.5t4.5 -12.5t13.5 -6l26 -5l3 -35h-164l2 35l19 4q15 3 24.5 7t19.5 17.5t23.5 40t35.5 74.5l117 246v20l96 27l80 -412q2 -10 8 -12t18 -5l31 -7l3 -35h-212l2 35l31 5
q11 2 17 4.5t7.5 10t-0.5 20.5t-6 36l-8 46h-154z" />
    <glyph glyph-name="aacute" unicode="&#xe1;" horiz-adv-x="447" 
d="M223 389h-10l-89 -199h134zM92 117q-9 -22 -14 -36t-5 -22.5t4.5 -12.5t13.5 -6l26 -5l3 -35h-164l2 35l19 4q15 3 24.5 7t19.5 17.5t23.5 40t35.5 74.5l117 246v20l96 27l80 -412q2 -10 8 -12t18 -5l31 -7l3 -35h-212l2 35l31 5q11 2 17 4.5t7.5 10t-0.5 20.5t-6 36
l-8 46h-154zM224 510h-22l116 187h100z" />
    <glyph glyph-name="acircumflex" unicode="&#xe2;" horiz-adv-x="447" 
d="M223 389h-10l-89 -199h134zM92 117q-9 -22 -14 -36t-5 -22.5t4.5 -12.5t13.5 -6l26 -5l3 -35h-164l2 35l19 4q15 3 24.5 7t19.5 17.5t23.5 40t35.5 74.5l117 246v20l96 27l80 -412q2 -10 8 -12t18 -5l31 -7l3 -35h-212l2 35l31 5q11 2 17 4.5t7.5 10t-0.5 20.5t-6 36
l-8 46h-154zM355 510l-86 128h-2l-122 -128h-22l106 187h92l56 -187h-22z" />
    <glyph glyph-name="atilde" unicode="&#xe3;" horiz-adv-x="447" 
d="M223 389h-10l-89 -199h134zM92 117q-9 -22 -14 -36t-5 -22.5t4.5 -12.5t13.5 -6l26 -5l3 -35h-164l2 35l19 4q15 3 24.5 7t19.5 17.5t23.5 40t35.5 74.5l117 246v20l96 27l80 -412q2 -10 8 -12t18 -5l31 -7l3 -35h-212l2 35l31 5q11 2 17 4.5t7.5 10t-0.5 20.5t-6 36
l-8 46h-154zM432 643q-18 -60 -45.5 -91.5t-69.5 -31.5q-24 0 -44 11.5t-37.5 25t-32.5 25t-29 11.5t-26.5 -13.5t-32.5 -51.5h-26q17 60 44.5 91.5t69.5 31.5q24 0 44 -11.5t37 -25t32 -25t30 -11.5q14 0 27 13.5t33 51.5h26z" />
    <glyph glyph-name="adieresis" unicode="&#xe4;" horiz-adv-x="447" 
d="M223 389h-10l-89 -199h134zM92 117q-9 -22 -14 -36t-5 -22.5t4.5 -12.5t13.5 -6l26 -5l3 -35h-164l2 35l19 4q15 3 24.5 7t19.5 17.5t23.5 40t35.5 74.5l117 246v20l96 27l80 -412q2 -10 8 -12t18 -5l31 -7l3 -35h-212l2 35l31 5q11 2 17 4.5t7.5 10t-0.5 20.5t-6 36
l-8 46h-154zM430 607q0 -25 -15.5 -44t-43.5 -19t-43.5 19t-15.5 44t15.5 44t43.5 19t43.5 -19t15.5 -44zM230 607q0 -25 -15.5 -44t-43.5 -19t-43.5 19t-15.5 44t15.5 44t43.5 19t43.5 -19t15.5 -44z" />
    <glyph glyph-name="aring" unicode="&#xe5;" horiz-adv-x="447" 
d="M223 389h-10l-89 -199h134zM318 521q0 25 -15.5 44t-43.5 19t-43.5 -19t-15.5 -44t15.5 -44t43.5 -19t43.5 19t15.5 44zM299 439l3 -16q3 -16 8.5 -43t12 -61t13.5 -70q17 -84 37 -190q2 -10 8 -12t18 -5l31 -7l3 -35h-212l2 35l31 5q11 2 17 4.5t7.5 10t-0.5 20.5t-6 36
l-8 46h-154l-18 -40q-9 -22 -14 -36t-5 -22.5t4.5 -12.5t13.5 -6l26 -5l3 -35h-164l2 35l19 4q15 3 24.5 7.5t19 18t23 40t36.5 73.5l127 268q-18 12 -28 32t-9 43q1 37 24 63.5t65 26.5t65.5 -26.5t23.5 -63.5q0 -27 -13 -49t-36 -33z" />
    <glyph glyph-name="ae" unicode="&#xe6;" horiz-adv-x="697" 
d="M617 0h-390l3 35l39 8q16 3 18 17l13 103h-156l-28 -38q-20 -26 -27.5 -43t-7.5 -26q0 -12 14 -15l26 -6l3 -35h-168l3 35l20 5q9 2 18 7.5t23.5 20t35.5 40.5t54 70l143 197q12 17 12 28t-23 16l-31 4l-3 35h471l-19 -149h-45l-8 64q-2 17 -7.5 27t-20 15t-42 6t-73.5 1
h-48l-23 -175h36q35 0 49 3.5t21 17.5l24 50h35l-39 -170h-34v47q0 6 -2 10t-8.5 6.5t-19.5 3.5t-34 1l-32 1l-24 -182l47 1q49 0 78 1.5t45.5 6.5t25.5 15t17 26l24 59h48zM335 425h-6l-164 -229h140z" />
    <glyph glyph-name="ccedilla" unicode="&#xe7;" horiz-adv-x="532" 
d="M232 -11q-41 4 -76.5 19t-61.5 41t-41 63.5t-15 85.5q0 51 21 100t57 85q39 39 89 62t117 23q38 0 65.5 -6t41.5 -11l64 14l-23 -161h-49l-10 100q-16 11 -40 18t-52 7q-44 0 -79 -19.5t-60 -52.5t-38 -77t-13 -93q0 -43 12.5 -74t32.5 -51q17 -17 42.5 -26t52.5 -9
q22 0 48.5 5.5t48.5 17.5l47 101h46l-35 -151l-43 9q-17 -5 -45.5 -12t-60.5 -9l-50 -45q57 0 89 -21.5t32 -59.5q0 -53 -61.5 -89t-166.5 -43l-5 24q168 21 168 93q0 20 -19 33t-59 13q-30 0 -63 -6l3 20z" />
    <glyph glyph-name="egrave" unicode="&#xe8;" horiz-adv-x="492" 
d="M299 510l-144 187h100l66 -187h-22zM412 0h-394l3 35l37 8q17 4 19 17l44 338q2 13 -14 17l-35 8l-2 35h404l-19 -149h-45l-8 64q-2 17 -7.5 27t-20 15t-42 6t-73.5 1h-48l-22 -175h35q35 0 49 3.5t21 17.5l24 50h35l-39 -170h-34v47q0 6 -2 10t-8.5 6.5t-19.5 3.5t-34 1
h-31l-23 -180h45q49 0 78 1.5t45.5 6.5t25.5 15t17 26l24 59h48z" />
    <glyph glyph-name="eacute" unicode="&#xe9;" horiz-adv-x="492" 
d="M412 0h-394l3 35l37 8q17 4 19 17l44 338q2 13 -14 17l-35 8l-2 35h404l-19 -149h-45l-8 64q-2 17 -7.5 27t-20 15t-42 6t-73.5 1h-48l-22 -175h35q35 0 49 3.5t21 17.5l24 50h35l-39 -170h-34v47q0 6 -2 10t-8.5 6.5t-19.5 3.5t-34 1h-31l-23 -180h45q49 0 78 1.5
t45.5 6.5t25.5 15t17 26l24 59h48zM267 510h-22l116 187h100z" />
    <glyph glyph-name="ecircumflex" unicode="&#xea;" horiz-adv-x="492" 
d="M412 0h-394l3 35l37 8q17 4 19 17l44 338q2 13 -14 17l-35 8l-2 35h404l-19 -149h-45l-8 64q-2 17 -7.5 27t-20 15t-42 6t-73.5 1h-48l-22 -175h35q35 0 49 3.5t21 17.5l24 50h35l-39 -170h-34v47q0 6 -2 10t-8.5 6.5t-19.5 3.5t-34 1h-31l-23 -180h45q49 0 78 1.5
t45.5 6.5t25.5 15t17 26l24 59h48zM398 510l-86 128h-2l-122 -128h-22l106 187h92l56 -187h-22z" />
    <glyph glyph-name="edieresis" unicode="&#xeb;" horiz-adv-x="492" 
d="M412 0h-394l3 35l37 8q17 4 19 17l44 338q2 13 -14 17l-35 8l-2 35h404l-19 -149h-45l-8 64q-2 17 -7.5 27t-20 15t-42 6t-73.5 1h-48l-22 -175h35q35 0 49 3.5t21 17.5l24 50h35l-39 -170h-34v47q0 6 -2 10t-8.5 6.5t-19.5 3.5t-34 1h-31l-23 -180h45q49 0 78 1.5
t45.5 6.5t25.5 15t17 26l24 59h48zM453 607q0 -25 -15.5 -44t-43.5 -19t-43.5 19t-15.5 44t15.5 44t43.5 19t43.5 -19t15.5 -44zM253 607q0 -25 -15.5 -44t-43.5 -19t-43.5 19t-15.5 44t15.5 44t43.5 19t43.5 -19t15.5 -44z" />
    <glyph glyph-name="igrave" unicode="&#xec;" horiz-adv-x="310" 
d="M198 510l-144 187h100l66 -187h-22zM20 0l3 35l45 8q17 3 19 17l44 338q2 14 -14 17l-43 8l-3 35h214l-3 -35l-44 -8q-11 -2 -15 -6.5t-5 -10.5l-44 -338q-2 -14 15 -17l42 -8l3 -35h-214z" />
    <glyph glyph-name="iacute" unicode="&#xed;" horiz-adv-x="310" 
d="M166 510h-22l116 187h100zM20 0l3 35l45 8q17 3 19 17l44 338q2 14 -14 17l-43 8l-3 35h214l-3 -35l-44 -8q-11 -2 -15 -6.5t-5 -10.5l-44 -338q-2 -14 15 -17l42 -8l3 -35h-214z" />
    <glyph glyph-name="icircumflex" unicode="&#xee;" horiz-adv-x="310" 
d="M20 0l3 35l45 8q17 3 19 17l44 338q2 14 -14 17l-43 8l-3 35h214l-3 -35l-44 -8q-11 -2 -15 -6.5t-5 -10.5l-44 -338q-2 -14 15 -17l42 -8l3 -35h-214zM287 510l-86 128h-2l-122 -128h-22l106 187h92l56 -187h-22z" />
    <glyph glyph-name="idieresis" unicode="&#xef;" horiz-adv-x="310" 
d="M347 607q0 -25 -15.5 -44t-43.5 -19t-43.5 19t-15.5 44t15.5 44t43.5 19t43.5 -19t15.5 -44zM147 607q0 -25 -15.5 -44t-43.5 -19t-43.5 19t-15.5 44t15.5 44t43.5 19t43.5 -19t15.5 -44zM20 0l3 35l45 8q17 3 19 17l44 338q2 14 -14 17l-43 8l-3 35h214l-3 -35l-44 -8
q-11 -2 -15 -6.5t-5 -10.5l-44 -338q-2 -14 15 -17l42 -8l3 -35h-214z" />
    <glyph glyph-name="eth" unicode="&#xf0;" horiz-adv-x="561" 
d="M314 254l3 -41h-113l-21 -158l51 -16q48 -4 84.5 12.5t61 46.5t37.5 71t13 86q-1 75 -44 121.5t-131 46.5h-24l-22 -169h105zM43 213l3 41h76l19 144q2 13 -14 17l-35 8l-2 35l191 2q57 1 102 -14.5t76 -42t47.5 -62t16.5 -74.5q0 -50 -19.5 -98t-57.5 -86
q-40 -40 -97 -61.5t-132 -21.5h-179l3 35l37 8q17 4 19 17l20 153h-74z" />
    <glyph glyph-name="ntilde" unicode="&#xf1;" horiz-adv-x="580" 
d="M564 423l-36 -7q-9 -2 -15.5 -6.5t-12 -18.5t-10.5 -42.5t-12 -78.5l-37 -276h-65l-206 385h-10l-25 -191q-6 -50 -8 -78.5t-0.5 -43t7 -18.5t12.5 -6l36 -7l3 -35h-172l3 35l35 7q9 2 15.5 6t12 18.5t10.5 43t12 78.5q6 47 11 85q2 17 4 32t4 27q2 14 3 27q3 23 -1.5 35
t-17.5 18l-32 11l-3 35h153l190 -356h10l23 168q7 49 9 77.5t0.5 43t-6.5 19t-14 6.5l-36 7l-3 35h172zM499 643q-18 -60 -45.5 -91.5t-69.5 -31.5q-24 0 -44 11.5t-37.5 25t-32.5 25t-29 11.5t-26.5 -13.5t-32.5 -51.5h-26q17 60 44.5 91.5t69.5 31.5q24 0 44 -11.5t37 -25
t32 -25t30 -11.5q14 0 27 13.5t33 51.5h26z" />
    <glyph glyph-name="ograve" unicode="&#xf2;" horiz-adv-x="539" 
d="M322 510l-144 187h100l66 -187h-22zM501 260q0 -57 -20.5 -109.5t-58.5 -90.5q-34 -33 -76.5 -52t-94.5 -19q-48 0 -87.5 16t-67 44t-43 66t-15.5 81q0 55 18.5 106t53.5 89q34 36 78.5 56t99.5 20q47 0 86.5 -16t67.5 -43.5t43.5 -65.5t15.5 -82zM408 277
q0 38 -9.5 69.5t-27.5 49.5q-15 15 -35 24t-47 9q-41 0 -71 -24.5t-49.5 -61.5t-29 -81.5t-9.5 -83.5q0 -80 42 -122q29 -29 78 -29q42 0 72 24.5t49 61.5t28 81t9 83z" />
    <glyph glyph-name="oacute" unicode="&#xf3;" horiz-adv-x="539" 
d="M501 260q0 -57 -20.5 -109.5t-58.5 -90.5q-34 -33 -76.5 -52t-94.5 -19q-48 0 -87.5 16t-67 44t-43 66t-15.5 81q0 55 18.5 106t53.5 89q34 36 78.5 56t99.5 20q47 0 86.5 -16t67.5 -43.5t43.5 -65.5t15.5 -82zM408 277q0 38 -9.5 69.5t-27.5 49.5q-15 15 -35 24t-47 9
q-41 0 -71 -24.5t-49.5 -61.5t-29 -81.5t-9.5 -83.5q0 -80 42 -122q29 -29 78 -29q42 0 72 24.5t49 61.5t28 81t9 83zM290 510h-22l116 187h100z" />
    <glyph glyph-name="ocircumflex" unicode="&#xf4;" horiz-adv-x="539" 
d="M501 260q0 -57 -20.5 -109.5t-58.5 -90.5q-34 -33 -76.5 -52t-94.5 -19q-48 0 -87.5 16t-67 44t-43 66t-15.5 81q0 55 18.5 106t53.5 89q34 36 78.5 56t99.5 20q47 0 86.5 -16t67.5 -43.5t43.5 -65.5t15.5 -82zM408 277q0 38 -9.5 69.5t-27.5 49.5q-15 15 -35 24t-47 9
q-41 0 -71 -24.5t-49.5 -61.5t-29 -81.5t-9.5 -83.5q0 -80 42 -122q29 -29 78 -29q42 0 72 24.5t49 61.5t28 81t9 83zM401 510l-86 128h-2l-122 -128h-22l106 187h92l56 -187h-22z" />
    <glyph glyph-name="otilde" unicode="&#xf5;" horiz-adv-x="539" 
d="M501 260q0 -57 -20.5 -109.5t-58.5 -90.5q-34 -33 -76.5 -52t-94.5 -19q-48 0 -87.5 16t-67 44t-43 66t-15.5 81q0 55 18.5 106t53.5 89q34 36 78.5 56t99.5 20q47 0 86.5 -16t67.5 -43.5t43.5 -65.5t15.5 -82zM408 277q0 38 -9.5 69.5t-27.5 49.5q-15 15 -35 24t-47 9
q-41 0 -71 -24.5t-49.5 -61.5t-29 -81.5t-9.5 -83.5q0 -80 42 -122q29 -29 78 -29q42 0 72 24.5t49 61.5t28 81t9 83zM488 643q-18 -60 -45.5 -91.5t-69.5 -31.5q-24 0 -44 11.5t-37.5 25t-32.5 25t-29 11.5t-26.5 -13.5t-32.5 -51.5h-26q17 60 44.5 91.5t69.5 31.5
q24 0 44 -11.5t37 -25t32 -25t30 -11.5q14 0 27 13.5t33 51.5h26z" />
    <glyph glyph-name="odieresis" unicode="&#xf6;" horiz-adv-x="539" 
d="M501 260q0 -57 -20.5 -109.5t-58.5 -90.5q-34 -33 -76.5 -52t-94.5 -19q-48 0 -87.5 16t-67 44t-43 66t-15.5 81q0 55 18.5 106t53.5 89q34 36 78.5 56t99.5 20q47 0 86.5 -16t67.5 -43.5t43.5 -65.5t15.5 -82zM408 277q0 38 -9.5 69.5t-27.5 49.5q-15 15 -35 24t-47 9
q-41 0 -71 -24.5t-49.5 -61.5t-29 -81.5t-9.5 -83.5q0 -80 42 -122q29 -29 78 -29q42 0 72 24.5t49 61.5t28 81t9 83zM486 607q0 -25 -15.5 -44t-43.5 -19t-43.5 19t-15.5 44t15.5 44t43.5 19t43.5 -19t15.5 -44zM286 607q0 -25 -15.5 -44t-43.5 -19t-43.5 19t-15.5 44
t15.5 44t43.5 19t43.5 -19t15.5 -44z" />
    <glyph glyph-name="divide" unicode="&#xf7;" horiz-adv-x="486" 
d="M41 283l3 54h399l3 -54h-405zM296 169q0 -20 -14 -36t-37 -16t-37.5 16t-14.5 36t14.5 35.5t37.5 15.5t37 -15.5t14 -35.5zM296 449q0 -20 -14.5 -36t-37.5 -16t-37 16t-14 36t14 36t37 16t37.5 -16t14.5 -36z" />
    <glyph glyph-name="oslash" unicode="&#xf8;" horiz-adv-x="539" 
d="M168 60l4 -4q29 -29 78 -29q42 0 72 24.5t49 61.5t28 81t9 83q0 55 -18 92zM370 397q-15 14 -35 23t-46 9q-41 0 -71 -24.5t-49.5 -61.5t-29 -81.5t-9.5 -83.5q0 -54 19 -89zM111 36q-35 28 -54 69.5t-19 90.5q0 55 18.5 106t53.5 89q34 36 78.5 56t99.5 20q62 0 112 -28
l47 65h40l-60 -83q35 -29 54.5 -70t19.5 -91q0 -57 -20.5 -109.5t-58.5 -90.5q-34 -33 -76.5 -52t-94.5 -19q-65 0 -114 29q1 0 -7 -11t-18 -25l-26 -36h-40z" />
    <glyph glyph-name="ugrave" unicode="&#xf9;" horiz-adv-x="544" 
d="M325 510l-144 187h100l66 -187h-22zM543 423l-36 -7q-9 -2 -15.5 -6.5t-12 -18.5t-10.5 -42.5t-12 -78.5l-17 -129q-9 -70 -58 -111.5t-128 -41.5q-83 0 -130 38.5t-47 108.5q0 8 0.5 14t1.5 14l33 235q2 13 -14 17l-35 8l-4 35h200l-3 -35l-38 -8q-18 -4 -20 -17
l-30 -214q-2 -8 -2 -14v-16q0 -60 32 -87.5t85 -27.5t85 30.5t40 90.5l15 110q7 50 9 78.5t0.5 42.5t-6.5 18.5t-14 6.5l-36 7l-3 35h173z" />
    <glyph glyph-name="uacute" unicode="&#xfa;" horiz-adv-x="544" 
d="M543 423l-36 -7q-9 -2 -15.5 -6.5t-12 -18.5t-10.5 -42.5t-12 -78.5l-17 -129q-9 -70 -58 -111.5t-128 -41.5q-83 0 -130 38.5t-47 108.5q0 8 0.5 14t1.5 14l33 235q2 13 -14 17l-35 8l-4 35h200l-3 -35l-38 -8q-18 -4 -20 -17l-30 -214q-2 -8 -2 -14v-16q0 -60 32 -87.5
t85 -27.5t85 30.5t40 90.5l15 110q7 50 9 78.5t0.5 42.5t-6.5 18.5t-14 6.5l-36 7l-3 35h173zM308 510h-22l116 187h100z" />
    <glyph glyph-name="ucircumflex" unicode="&#xfb;" horiz-adv-x="544" 
d="M543 423l-36 -7q-9 -2 -15.5 -6.5t-12 -18.5t-10.5 -42.5t-12 -78.5l-17 -129q-9 -70 -58 -111.5t-128 -41.5q-83 0 -130 38.5t-47 108.5q0 8 0.5 14t1.5 14l33 235q2 13 -14 17l-35 8l-4 35h200l-3 -35l-38 -8q-18 -4 -20 -17l-30 -214q-2 -8 -2 -14v-16q0 -60 32 -87.5
t85 -27.5t85 30.5t40 90.5l15 110q7 50 9 78.5t0.5 42.5t-6.5 18.5t-14 6.5l-36 7l-3 35h173zM414 510l-86 128h-2l-122 -128h-22l106 187h92l56 -187h-22z" />
    <glyph glyph-name="udieresis" unicode="&#xfc;" horiz-adv-x="544" 
d="M543 423l-36 -7q-9 -2 -15.5 -6.5t-12 -18.5t-10.5 -42.5t-12 -78.5l-17 -129q-9 -70 -58 -111.5t-128 -41.5q-83 0 -130 38.5t-47 108.5q0 8 0.5 14t1.5 14l33 235q2 13 -14 17l-35 8l-4 35h200l-3 -35l-38 -8q-18 -4 -20 -17l-30 -214q-2 -8 -2 -14v-16q0 -60 32 -87.5
t85 -27.5t85 30.5t40 90.5l15 110q7 50 9 78.5t0.5 42.5t-6.5 18.5t-14 6.5l-36 7l-3 35h173zM479 607q0 -25 -15.5 -44t-43.5 -19t-43.5 19t-15.5 44t15.5 44t43.5 19t43.5 -19t15.5 -44zM279 607q0 -25 -15.5 -44t-43.5 -19t-43.5 19t-15.5 44t15.5 44t43.5 19t43.5 -19
t15.5 -44z" />
    <glyph glyph-name="yacute" unicode="&#xfd;" horiz-adv-x="437" 
d="M471 422l-13 -4q-8 -3 -16.5 -6.5t-18.5 -11t-21.5 -19.5t-26.5 -32l-119 -162l-17 -127q-2 -14 15 -17l47 -8l3 -35h-223l3 35l49 8q17 3 19 17l16 122l-102 207q-5 10 -13.5 17t-19.5 10l-22 6l-3 36h204l-3 -36l-28 -4q-15 -2 -19 -18.5t15 -59.5l53 -123h10l93 132
q25 35 25.5 51t-19.5 19l-19 3l-3 36h157zM259 510h-22l116 187h100z" />
    <glyph glyph-name="thorn" unicode="&#xfe;" horiz-adv-x="486" 
d="M448 243q0 -36 -18.5 -63.5t-47.5 -46t-65 -28t-71 -9.5q-23 0 -39.5 1.5t-30.5 3.5l-4 -41q-2 -14 15 -17l42 -8l3 -35h-214l3 35l45 8q17 3 19 17l44 338q2 14 -14 17l-43 8l-3 35h214l-3 -36l-44 -7q-11 -2 -15 -6.5t-5 -10.5l-2 -19h46q96 0 142 -39.5t46 -96.5z
M352 242q0 45 -30.5 73t-72.5 28h-41l-26 -204q26 -8 59 -8q48 -1 79.5 30.5t31.5 80.5z" />
    <glyph glyph-name="ydieresis" unicode="&#xff;" horiz-adv-x="437" 
d="M471 422l-13 -4q-8 -3 -16.5 -6.5t-18.5 -11t-21.5 -19.5t-26.5 -32l-119 -162l-17 -127q-2 -14 15 -17l47 -8l3 -35h-223l3 35l49 8q17 3 19 17l16 122l-102 207q-5 10 -13.5 17t-19.5 10l-22 6l-3 36h204l-3 -36l-28 -4q-15 -2 -19 -18.5t15 -59.5l53 -123h10l93 132
q25 35 25.5 51t-19.5 19l-19 3l-3 36h157zM425 607q0 -25 -15.5 -44t-43.5 -19t-43.5 19t-15.5 44t15.5 44t43.5 19t43.5 -19t15.5 -44zM225 607q0 -25 -15.5 -44t-43.5 -19t-43.5 19t-15.5 44t15.5 44t43.5 19t43.5 -19t15.5 -44z" />
    <glyph glyph-name="dotlessi" unicode="&#x131;" horiz-adv-x="310" 
d="M20 0l3 35l45 8q17 3 19 17l44 338q2 14 -14 17l-43 8l-3 35h214l-3 -35l-44 -8q-11 -2 -15 -6.5t-5 -10.5l-44 -338q-2 -14 15 -17l42 -8l3 -35h-214z" />
    <glyph glyph-name="Lslash" unicode="&#x141;" horiz-adv-x="558" 
d="M112 200q0 1 -12 -2.5t-27 -7.5q-18 -4 -39 -10v43l84 22l41 310q3 20 -20 24l-52 11l-3 35h263l-3 -35l-63 -11q-14 -2 -19 -8.5t-7 -15.5l-18 -142q-3 -27 -6.5 -52t-6.5 -45t-4 -33l-2 -12l107 29v-43l-113 -30l-25 -188h29q64 0 101.5 1.5t59 7t30.5 15.5t16 26
l46 111h52l-48 -200h-462l3 35l55 11q23 4 26 24z" />
    <glyph glyph-name="lslash" unicode="&#x142;" horiz-adv-x="491" 
d="M181 39h27q46 0 73 1.5t42.5 6.5t24 15t16.5 26l28 68h47l-37 -156h-364l3 35l37 8q17 4 19 17l16 123q0 1 -11 -2t-25 -7l-36 -10l1 44l77 21l22 169q2 13 -14 17l-35 8l-3 35h202l-2 -35l-42 -8q-17 -3 -19 -17l-19 -145l84 23v-44l-90 -24z" />
    <glyph glyph-name="OE" unicode="&#x152;" horiz-adv-x="904" 
d="M825 0h-478q-69 0 -124.5 20t-93.5 55.5t-58.5 85.5t-20.5 110q0 72 23.5 132.5t75.5 111.5q48 48 124.5 79t176.5 31h458l-35 -186h-39l-11 97q-2 17 -7.5 27t-25.5 15t-59.5 6.5t-108.5 1.5h-30l-34 -249h21q29 0 48.5 1.5t32 5t20 9t12.5 13.5l21 60h39l-51 -215h-38
l5 64q1 7 -2 11.5t-13 7.5t-29.5 4t-51.5 1h-19l-35 -260h24q75 0 118 1.5t66 6.5t32.5 15t16.5 27l39 92h54zM424 586q-58 -2 -107.5 -24t-85.5 -63t-56.5 -99.5t-20.5 -133.5q0 -50 13 -91.5t39.5 -71.5t67 -47t94.5 -17h54l71 532z" />
    <glyph glyph-name="oe" unicode="&#x153;" horiz-adv-x="756" 
d="M284 0q-58 -1 -104 13.5t-77.5 41t-48 62.5t-16.5 79q0 46 20.5 93.5t58.5 85.5q40 40 97 61.5t132 21.5h392l-19 -149h-45l-8 64q-2 17 -7.5 27t-20 15t-42 6t-73.5 1h-53l-22 -175h40q35 0 49 3.5t21 17.5l24 50h35l-39 -170h-34v47q0 6 -2 10t-8.5 6.5t-19.5 3.5
t-34 1h-36l-23 -180h50q49 0 78 1.5t45.5 6.5t25.5 15t17 26l24 59h48l-33 -144h-392zM133 203q1 -75 44 -121.5t131 -46.5h24l48 368l-51 16q-48 4 -84.5 -12.5t-61 -46.5t-37.5 -71t-13 -86z" />
    <glyph glyph-name="Scaron" unicode="&#x160;" horiz-adv-x="502" 
d="M443 171q0 -41 -18.5 -75.5t-50.5 -59t-75 -38t-93 -13.5q-59 0 -103.5 8t-83.5 21l12 179h41l28 -137q23 -12 53 -19.5t71 -7.5q63 0 96.5 30t34.5 78q0 26 -9.5 46t-27 38t-42 34.5t-53.5 34.5q-33 20 -59.5 39t-44.5 40t-27.5 47t-9.5 60q0 36 18 65.5t47 51.5
t66.5 34t76.5 12q26 0 45 -1t35 -3.5t30 -5.5t30 -6q0 1 8 2.5t18 3.5l26 6l-26 -192h-44l-13 124q-26 12 -56.5 19.5t-68.5 7.5q-19 0 -38 -5.5t-34 -16.5t-24.5 -26t-9.5 -35q0 -26 8.5 -47t26 -39t42.5 -35t56 -35q28 -16 54 -34.5t45.5 -40t31 -48.5t11.5 -61zM354 677
h-92l-56 187h22l87 -128h2l121 128h22z" />
    <glyph glyph-name="scaron" unicode="&#x161;" horiz-adv-x="434" 
d="M369 132q0 -28 -12 -54t-36 -45.5t-59.5 -31.5t-82.5 -12q-45 0 -83.5 7t-70.5 16l11 141h42l21 -105q17 -8 41.5 -13.5t47.5 -5.5q52 0 77 22t25 53q0 16 -8 29t-21.5 24.5t-31.5 21.5t-38 19q-23 12 -45 24.5t-39.5 29t-28 37.5t-10.5 48q0 25 9.5 48.5t30.5 41.5
t54 29.5t81 11.5q33 0 61 -3.5t51 -8.5l42 11l-20 -153h-40l-17 96q-18 8 -41.5 13t-42.5 5q-46 0 -68.5 -16.5t-22.5 -45.5q0 -33 26 -55t77 -46q23 -12 45 -24.5t39 -28.5t27 -35.5t10 -44.5zM290 510h-92l-56 187h22l87 -128h2l121 128h22z" />
    <glyph glyph-name="Ydieresis" unicode="&#x178;" horiz-adv-x="593" 
d="M645 590l-28 -7q-27 -7 -49 -20t-47 -50l-166 -245l-26 -198q-3 -20 20 -24l69 -11l3 -35h-292l4 35l74 11q13 2 18.5 8.5t7.5 15.5l26 198l-120 245q-16 32 -29 45t-35 20l-39 12l-2 35h258l-4 -35l-41 -6q-25 -4 -25 -23t19 -57l88 -193h5l143 218q11 18 10.5 32
t-29.5 20l-44 9l-3 35h237zM523 774q0 -25 -15.5 -44t-43.5 -19t-43.5 19t-15.5 44t15.5 44t43.5 19t43.5 -19t15.5 -44zM323 774q0 -25 -15.5 -44t-43.5 -19t-43.5 19t-15.5 44t15.5 44t43.5 19t43.5 -19t15.5 -44z" />
    <glyph glyph-name="Zcaron" unicode="&#x17d;" horiz-adv-x="563" 
d="M479 0h-476l5 36l459 545v5h-109q-62 0 -97.5 -3.5t-55 -11.5t-29 -21.5t-19.5 -33.5l-31 -83h-44l25 192h478l-5 -37l-460 -545v-5l105 1q66 1 104.5 4t59.5 9.5t31 18t19 29.5l35 88h51zM404 677h-92l-56 187h22l87 -128h2l121 128h22z" />
    <glyph glyph-name="zcaron" unicode="&#x17e;" horiz-adv-x="474" 
d="M387 0h-381l5 37l341 377v5h-89q-38 0 -60.5 -2.5t-36.5 -9t-21.5 -17.5t-15.5 -29l-23 -58h-42l20 155h380l-5 -38l-343 -377v-5l92 1q42 0 67 3t39.5 9.5t22 16.5t14.5 25l25 57h47zM310 510h-92l-56 187h22l87 -128h2l121 128h22z" />
    <glyph glyph-name="florin" unicode="&#x192;" 
d="M526 561q0 -24 -13.5 -41t-36.5 -17q-27 0 -43 20t-19 52l-60 -11q-6 -10 -12 -29.5t-12 -43.5t-11.5 -50.5t-10.5 -52.5h118l4 -48h-128q-9 -48 -19.5 -93.5t-23.5 -85t-30 -72.5t-39 -57q-23 -23 -55.5 -35.5t-62.5 -12.5q-32 0 -55 17t-23 46q0 24 13.5 39.5
t36.5 15.5q27 0 42 -20.5t18 -49.5l58 23q5 11 11.5 32t13 47t12.5 55t10 55l14 92l-87 4l3 29l95 23q14 60 36.5 109t45.5 74q25 26 60 40.5t65 14.5q39 0 62 -20t23 -49z" />
    <glyph glyph-name="circumflex" unicode="&#x2c6;" horiz-adv-x="400" 
d="M332 510l-86 128h-2l-122 -128h-22l106 187h92l56 -187h-22z" />
    <glyph glyph-name="caron" unicode="&#x2c7;" horiz-adv-x="400" 
d="M273 510h-92l-56 187h22l87 -128h2l121 128h22z" />
    <glyph glyph-name="breve" unicode="&#x2d8;" horiz-adv-x="400" 
d="M389 697q-12 -34 -25.5 -68.5t-32 -62t-44 -44.5t-61.5 -17t-56.5 17t-32 44.5t-15.5 62t-7 68.5h22q8 -24 16 -48.5t19 -44.5t26 -32.5t36 -12.5t39 12.5t34 32.5t31 44.5t29 48.5h22z" />
    <glyph glyph-name="dotaccent" unicode="&#x2d9;" horiz-adv-x="400" 
d="M307 607q0 -25 -15.5 -44t-43.5 -19t-43.5 19t-15.5 44t15.5 44t43.5 19t43.5 -19t15.5 -44z" />
    <glyph glyph-name="ring" unicode="&#x2da;" horiz-adv-x="400" 
d="M337 607q0 -37 -23.5 -63.5t-65.5 -26.5t-66 26.5t-23 63.5t24 63.5t65 26.5t65.5 -26.5t23.5 -63.5zM307 607q0 25 -15.5 44t-43.5 19t-43.5 -19t-15.5 -44t15.5 -44t43.5 -19t43.5 19t15.5 44z" />
    <glyph glyph-name="ogonek" unicode="&#x2db;" horiz-adv-x="400" 
d="M246 -201q-25 -16 -51 -26t-56 -10q-21 0 -39.5 6.5t-32.5 18t-22.5 27.5t-8.5 35q0 27 12.5 52t34.5 46.5t50.5 38.5t59.5 29h50q-73 -34 -108 -73t-35 -79q0 -26 18 -44.5t53 -18.5q20 0 36 6t33 16z" />
    <glyph glyph-name="tilde" unicode="&#x2dc;" horiz-adv-x="400" 
d="M409 643q-18 -60 -45.5 -91.5t-69.5 -31.5q-24 0 -44 11.5t-37.5 25t-32.5 25t-29 11.5t-26.5 -13.5t-32.5 -51.5h-26q17 60 44.5 91.5t69.5 31.5q24 0 44 -11.5t37 -25t32 -25t30 -11.5q14 0 27 13.5t33 51.5h26z" />
    <glyph glyph-name="hungarumlaut" unicode="&#x2dd;" horiz-adv-x="400" 
d="M279 510h-22l111 187h90zM127 510h-22l111 187h90z" />
    <glyph glyph-name="endash" unicode="&#x2013;" 
d="M0 208v53h500v-53h-500z" />
    <glyph glyph-name="emdash" unicode="&#x2014;" horiz-adv-x="1000" 
d="M0 208v53h1000v-53h-1000z" />
    <glyph glyph-name="quoteleft" unicode="&#x2018;" horiz-adv-x="232" 
d="M212 427q-6 -23 -26 -38t-48 -15q-37 0 -60 25t-23 59t18 65.5t48 59t69 50.5t82 39l15 -20q-21 -10 -44 -26t-41.5 -35.5t-31 -41t-12.5 -42.5q0 -18 8.5 -32.5t19 -25t18.5 -16t8 -6.5z" />
    <glyph glyph-name="quoteright" unicode="&#x2019;" horiz-adv-x="232" 
d="M237 565q0 -33 -16.5 -61.5t-41 -52t-54.5 -43t-57 -34.5l-24 19q18 10 36.5 23.5t33 30t24 35.5t9.5 38q0 21 -10.5 36.5t-23.5 26t-23.5 16t-10.5 6.5q0 23 21.5 38.5t47.5 15.5q17 0 33 -7t28.5 -19.5t20 -30t7.5 -37.5z" />
    <glyph glyph-name="quotesinglbase" unicode="&#x201a;" horiz-adv-x="232" 
d="M163 23q0 -33 -16.5 -61.5t-41 -52t-54.5 -43t-57 -34.5l-24 19q18 10 36.5 23.5t33 30t24 35t9.5 38.5q0 21 -10.5 36.5t-23.5 26t-23.5 16t-10.5 6.5q0 23 21.5 38.5t47.5 15.5q17 0 33 -7t28.5 -19.5t20 -30t7.5 -37.5z" />
    <glyph glyph-name="quotedblleft" unicode="&#x201c;" horiz-adv-x="434" 
d="M429 428q0 -23 -21.5 -38.5t-47.5 -15.5q-17 0 -33 7t-28.5 19.5t-20 30t-7.5 37.5q0 33 16.5 61.5t41 52t54.5 43t57 34.5l24 -19q-18 -10 -36.5 -23.5t-33 -30t-24 -35t-9.5 -38.5q0 -21 10.5 -36.5t23.5 -26t23.5 -16t10.5 -6.5zM213 428q0 -23 -21.5 -38.5
t-47.5 -15.5q-17 0 -33 7t-28.5 19.5t-20 30t-7.5 37.5q0 33 16.5 61.5t41 52t54.5 43t57 34.5l24 -19q-18 -10 -36.5 -23.5t-33 -30t-24 -35t-9.5 -38.5q0 -21 10.5 -36.5t23.5 -26t23.5 -16t10.5 -6.5z" />
    <glyph glyph-name="quotedblright" unicode="&#x201d;" horiz-adv-x="434" 
d="M460 565q0 -33 -16.5 -61.5t-41 -52t-54.5 -43t-57 -34.5l-24 19q18 10 36.5 23.5t33 30t24 35.5t9.5 38q0 21 -10.5 36.5t-23.5 26t-23.5 16t-10.5 6.5q0 23 21.5 38.5t47.5 15.5q17 0 33 -7t28.5 -19.5t20 -30t7.5 -37.5zM244 565q0 -33 -16.5 -61.5t-41 -52t-54.5 -43
t-57 -34.5l-24 19q18 10 36.5 23.5t33 30t24 35.5t9.5 38q0 21 -10.5 36.5t-23.5 26t-23.5 16t-10.5 6.5q0 23 21.5 38.5t47.5 15.5q17 0 33 -7t28.5 -19.5t20 -30t7.5 -37.5z" />
    <glyph glyph-name="quotedblbase" unicode="&#x201e;" horiz-adv-x="434" 
d="M386 23q0 -33 -16.5 -61.5t-41 -52t-54.5 -43t-57 -34.5l-24 19q18 10 36.5 23.5t33 30t24 35t9.5 38.5q0 21 -10.5 36.5t-23.5 26t-23.5 16t-10.5 6.5q0 23 21.5 38.5t47.5 15.5q17 0 33 -7t28.5 -19.5t20 -30t7.5 -37.5zM170 23q0 -33 -16.5 -61.5t-41 -52t-54.5 -43
t-57 -34.5l-24 19q18 10 36.5 23.5t33 30t24 35t9.5 38.5q0 21 -10.5 36.5t-23.5 26t-23.5 16t-10.5 6.5q0 23 21.5 38.5t47.5 15.5q17 0 33 -7t28.5 -19.5t20 -30t7.5 -37.5z" />
    <glyph glyph-name="dagger" unicode="&#x2020;" horiz-adv-x="470" 
d="M463 391h-180v-547h-40v547h-179l-4 41h183v193h40v-193h184z" />
    <glyph glyph-name="daggerdbl" unicode="&#x2021;" horiz-adv-x="470" 
d="M284 21v-177h-40v177h-183l4 41h179v344h-179l-4 41h183v178h40v-178h184l-4 -41h-180v-344h180l4 -41h-184z" />
    <glyph glyph-name="bullet" unicode="&#x2022;" horiz-adv-x="455" 
d="M420 232q0 -11 -6 -30.5t-14.5 -40.5t-18 -39.5t-17.5 -26.5q-7 -7 -25.5 -17t-39.5 -18.5t-41 -14.5t-31 -6q-10 0 -30 6t-41 14.5t-39 18.5t-25 17q-7 8 -17 26.5t-19 39.5t-15 40.5t-6 30.5t6 30.5t15 40.5t19 39.5t17 25.5q8 8 26 17.5t39 18t41 14.5t30 6
q11 0 30.5 -6t40.5 -14.5t39.5 -18t25.5 -17.5q8 -7 17.5 -25.5t18 -39.5t14.5 -40.5t6 -30.5z" />
    <glyph glyph-name="ellipsis" unicode="&#x2026;" horiz-adv-x="696" 
d="M625 52q0 -26 -18.5 -46.5t-47.5 -20.5t-48.5 20.5t-19.5 46.5t19.5 45.5t48.5 19.5t47.5 -19.5t18.5 -45.5zM393 52q0 -26 -18.5 -46.5t-47.5 -20.5t-48.5 20.5t-19.5 46.5t19.5 45.5t48.5 19.5t47.5 -19.5t18.5 -45.5zM161 52q0 -26 -18.5 -46.5t-47.5 -20.5
t-48.5 20.5t-19.5 46.5t19.5 45.5t48.5 19.5t47.5 -19.5t18.5 -45.5z" />
    <glyph glyph-name="perthousand" unicode="&#x2030;" horiz-adv-x="1126" 
d="M395 500q0 -39 -14.5 -73t-39 -59.5t-58 -40t-72.5 -14.5q-32 0 -60.5 10.5t-49.5 30t-33.5 47t-12.5 61.5q0 38 14.5 71.5t39 59t58 40t70.5 14.5q33 0 61.5 -10t50 -29t34 -46.5t12.5 -61.5zM104 -15h-59l630 654h59zM729 164q0 -39 -14.5 -73t-39.5 -59.5t-58.5 -40
t-71.5 -14.5q-67 0 -110.5 39t-43.5 108q0 39 14 73t38.5 59.5t57.5 40t72 14.5q32 0 60.5 -10t49.5 -29t33.5 -46.5t12.5 -61.5zM345 490q0 50 -31 81.5t-81 31.5q-28 0 -51.5 -11.5t-41 -31t-27.5 -44.5t-10 -52q0 -50 32.5 -79.5t79.5 -29.5q28 0 51.5 10.5t41 29
t27.5 43t10 52.5zM681 158q0 24 -9 44t-24 34.5t-35.5 22.5t-43.5 8q-28 0 -51.5 -11.5t-41 -31t-27.5 -44.5t-10 -52q0 -50 31.5 -79.5t78.5 -29.5q28 0 52 11.5t42 30.5t28 44t10 53zM1110 164q0 -39 -14.5 -73t-39.5 -59.5t-58.5 -40t-71.5 -14.5q-67 0 -110.5 39
t-43.5 108q0 39 14 73t38.5 59.5t57.5 40t72 14.5q32 0 60.5 -10t49.5 -29t33.5 -46.5t12.5 -61.5zM1062 158q0 24 -9 44t-24 34.5t-35.5 22.5t-43.5 8q-28 0 -51.5 -11.5t-41 -31t-27.5 -44.5t-10 -52q0 -50 31.5 -79.5t78.5 -29.5q28 0 52 11.5t42 30.5t28 44t10 53z" />
    <glyph glyph-name="guilsinglleft" unicode="&#x2039;" horiz-adv-x="300" 
d="M225 50l-197 152v42l243 156l7 -20l-178 -160l137 -150z" />
    <glyph glyph-name="guilsinglright" unicode="&#x203a;" horiz-adv-x="300" 
d="M30 46l-7 20l163 155l-122 155l12 20l197 -152l-6 -46z" />
    <glyph glyph-name="fraction" unicode="&#x2044;" horiz-adv-x="618" 
d="M63 -15h-61l554 654h61z" />
    <glyph glyph-name="Euro" unicode="&#x20ac;" 
d="M163 213q11 -78 51.5 -124.5t109.5 -46.5q43 0 75.5 17.5t60.5 40.5l12 -25q-31 -38 -77.5 -64t-100.5 -26q-49 0 -87.5 18t-65.5 49.5t-43.5 73t-22.5 87.5h-71l3 41h65v11q0 18 1.5 35.5t3.5 34.5h-57l3 41h62q15 58 43.5 105t66.5 80.5t84 51.5t95 18q78 0 115 -27
t37 -62q0 -24 -12 -41t-37 -17q-14 0 -25 7t-19 19t-12.5 27t-5.5 30q-13 10 -34 15.5t-39 5.5q-65 0 -111.5 -52t-63.5 -160h201l3 -41h-208q-3 -31 -3 -67v-14h192l3 -41h-192z" />
    <glyph glyph-name="trademark" unicode="&#x2122;" horiz-adv-x="917" 
d="M755 253l1 27l30 7q8 2 10.5 13.5t1.5 48.5l-4 232h-10l-107 -316h-50l-85 319h-10l-6 -195q-1 -33 -1.5 -53t0.5 -30.5t4 -14.5t8 -6l32 -5l1 -27h-132l2 27l30 5q5 1 8.5 4.5t6.5 14t5 31t3 54.5l6 188q0 5 -2 9t-10 6l-35 6l-2 27h146l68 -278h10l90 278h148l-2 -27
l-34 -6q-8 -2 -11 -6t-3 -9l4 -228q0 -19 2 -31t4.5 -18.5t6 -9t7.5 -3.5l30 -7l2 -27h-163zM391 489h-30l-6 19q-9 27 -16 44t-17.5 27t-26.5 13.5t-42 3.5h-1v-296q0 -4 2.5 -8t9.5 -6l44 -6l1 -27h-181l2 27l44 6q8 2 10.5 6t2.5 8v296h-1q-21 0 -35.5 -4t-26 -14
t-20 -27t-17.5 -43l-7 -19h-27l7 136h331v-136z" />
    <glyph glyph-name="Delta" unicode="&#x2206;" horiz-adv-x="396" 
d="M388 423l-44 -8q-18 -3 -20 -17l-32 -247q-4 -36 -20 -65.5t-38.5 -51.5t-50 -34t-56.5 -12q-41 0 -68.5 8.5t-44 21.5t-23 29t-6.5 32q0 25 14.5 39.5t34.5 14.5q17 0 30 -10.5t13 -29.5q0 -26 -15 -41q8 -10 22 -18.5t39 -8.5q33 0 56.5 28t31.5 89l33 256q2 14 -14 17
l-51 8l-2 35h213z" />
    <glyph glyph-name="product" unicode="&#x220f;" horiz-adv-x="554" 
d="M503 171l-40 -8q-17 -3 -19 -18l-11 -88l40 -5l3 -24q-19 -7 -45.5 -14t-56 -13t-60.5 -9.5t-58 -3.5q-46 0 -86 13t-69.5 39.5t-46 66t-16.5 91.5q0 51 21 100t57 85q39 39 89 62t117 23q38 0 65.5 -6t41.5 -11l64 14l-23 -161h-49l-10 100q-16 11 -40 18t-52 7
q-44 0 -79 -19.5t-60 -52.5t-38 -77t-13 -93q0 -83 44 -127q33 -33 91 -33q22 0 44.5 4t38.5 11l13 103q2 15 -16 18l-39 8l-3 35h203z" />
    <glyph glyph-name="minus" unicode="&#x2212;" horiz-adv-x="486" 
d="M41 283l3 54h399l3 -54h-405z" />
    <glyph glyph-name="apple" unicode="&#xf8ff;" horiz-adv-x="758" 
d="M583 236l69 -189l-189 69l-85 -181l-84 180l-187 -68l68 187l-181 86l181 83l-68 189l187 -69l86 181l83 -181l189 69l-69 -189l180 -82zM531 382l50 139l-139 -50l-63 133l-63 -133l-139 50l51 -139l-134 -63l134 -63l-51 -138l139 51l62 -135l64 135l139 -51l-50 140
l132 62z" />
    <glyph glyph-name="ff" unicode="&#xfb00;" horiz-adv-x="970" 
d="M405 309l-8 64q-3 17 -8.5 27t-20 15t-41.5 6t-74 1h-41l-24 -181h38q35 0 50 3.5t22 17.5l24 49h35l-39 -170h-33l-1 47q0 12 -10.5 17t-52.5 5h-37l-20 -150q-2 -13 14 -17l46 -8l3 -35h-209l3 35l37 8q17 4 19 17l44 338q2 13 -14 17l-35 8l-2 35h398l-19 -149h-44z
M890 309l-8 64q-3 17 -8.5 27t-20 15t-41.5 6t-74 1h-41l-24 -181h38q35 0 50 3.5t22 17.5l24 49h35l-39 -170h-33l-1 47q0 12 -10.5 17t-52.5 5h-37l-20 -150q-2 -13 14 -17l46 -8l3 -35h-209l3 35l37 8q17 4 19 17l44 338q2 13 -14 17l-35 8l-2 35h398l-19 -149h-44z" />
    <glyph glyph-name="fi" unicode="&#xfb01;" horiz-adv-x="795" 
d="M405 309l-8 64q-3 17 -8.5 27t-20 15t-41.5 6t-74 1h-41l-24 -181h38q35 0 50 3.5t22 17.5l24 49h35l-39 -170h-33l-1 47q0 12 -10.5 17t-52.5 5h-37l-20 -150q-2 -13 14 -17l46 -8l3 -35h-209l3 35l37 8q17 4 19 17l44 338q2 13 -14 17l-35 8l-2 35h398l-19 -149h-44z
M505 0l3 35l45 8q17 3 19 17l44 338q2 14 -14 17l-43 8l-3 35h214l-3 -35l-44 -8q-11 -2 -15 -6.5t-5 -10.5l-44 -338q-2 -14 15 -17l42 -8l3 -35h-214z" />
    <glyph glyph-name="fl" unicode="&#xfb02;" horiz-adv-x="956" 
d="M405 309l-8 64q-3 17 -8.5 27t-20 15t-41.5 6t-74 1h-41l-24 -181h38q35 0 50 3.5t22 17.5l24 49h35l-39 -170h-33l-1 47q0 12 -10.5 17t-52.5 5h-37l-20 -150q-2 -13 14 -17l46 -8l3 -35h-209l3 35l37 8q17 4 19 17l44 338q2 13 -14 17l-35 8l-2 35h398l-19 -149h-44z
M867 0h-364l3 35l37 8q17 4 19 17l44 338q2 13 -14 17l-35 8l-3 35h202l-2 -35l-42 -8q-17 -3 -19 -17l-47 -359h27q46 0 73 1.5t42.5 6.5t24 15t16.5 26l28 68h47z" />
    <glyph glyph-name="ffi" unicode="&#xfb03;" horiz-adv-x="1280" 
d="M405 309l-8 64q-3 17 -8.5 27t-20 15t-41.5 6t-74 1h-41l-24 -181h38q35 0 50 3.5t22 17.5l24 49h35l-39 -170h-33l-1 47q0 12 -10.5 17t-52.5 5h-37l-20 -150q-2 -13 14 -17l46 -8l3 -35h-209l3 35l37 8q17 4 19 17l44 338q2 13 -14 17l-35 8l-2 35h398l-19 -149h-44z
M890 309l-8 64q-3 17 -8.5 27t-20 15t-41.5 6t-74 1h-41l-24 -181h38q35 0 50 3.5t22 17.5l24 49h35l-39 -170h-33l-1 47q0 12 -10.5 17t-52.5 5h-37l-20 -150q-2 -13 14 -17l46 -8l3 -35h-209l3 35l37 8q17 4 19 17l44 338q2 13 -14 17l-35 8l-2 35h398l-19 -149h-44z
M990 0l3 35l45 8q17 3 19 17l44 338q2 14 -14 17l-43 8l-3 35h214l-3 -35l-44 -8q-11 -2 -15 -6.5t-5 -10.5l-44 -338q-2 -14 15 -17l42 -8l3 -35h-214z" />
    <glyph glyph-name="ffl" unicode="&#xfb04;" horiz-adv-x="1441" 
d="M405 309l-8 64q-3 17 -8.5 27t-20 15t-41.5 6t-74 1h-41l-24 -181h38q35 0 50 3.5t22 17.5l24 49h35l-39 -170h-33l-1 47q0 12 -10.5 17t-52.5 5h-37l-20 -150q-2 -13 14 -17l46 -8l3 -35h-209l3 35l37 8q17 4 19 17l44 338q2 13 -14 17l-35 8l-2 35h398l-19 -149h-44z
M890 309l-8 64q-3 17 -8.5 27t-20 15t-41.5 6t-74 1h-41l-24 -181h38q35 0 50 3.5t22 17.5l24 49h35l-39 -170h-33l-1 47q0 12 -10.5 17t-52.5 5h-37l-20 -150q-2 -13 14 -17l46 -8l3 -35h-209l3 35l37 8q17 4 19 17l44 338q2 13 -14 17l-35 8l-2 35h398l-19 -149h-44z
M1352 0h-364l3 35l37 8q17 4 19 17l44 338q2 13 -14 17l-35 8l-3 35h202l-2 -35l-42 -8q-17 -3 -19 -17l-47 -359h27q46 0 73 1.5t42.5 6.5t24 15t16.5 26l28 68h47z" />
    <glyph glyph-name="plusminus" horiz-adv-x="734" 
d="M694 312q0 -68 -25.5 -127.5t-70 -104t-104 -70t-127.5 -25.5t-127.5 25.5t-104 70t-70 104t-25.5 127.5t25.5 127.5t70 104t104 70.5t127.5 26t127.5 -26t104 -70.5t70 -104t25.5 -127.5zM656 312q0 60 -22.5 113.5t-62 93.5t-92 63.5t-112.5 23.5t-112.5 -23.5
t-92 -63.5t-62 -93.5t-22.5 -113.5t22.5 -113.5t62 -93t92 -63t112.5 -23.5t112.5 23.5t92 63t62 93t22.5 113.5zM522 394q0 -27 -11 -50t-29.5 -39.5t-43 -25.5t-50.5 -9q-13 0 -22 0.5t-21 2.5v-84q0 -5 3 -8.5t10 -4.5l39 -6l1 -31h-156l1 31l30 6q13 3 13 13v251
q0 10 -13 13l-30 7l-1 30h144q70 0 103 -26.5t33 -69.5zM462 383q0 35 -23 54t-63 19h-31v-149q11 -2 19 -3t21 -1q35 0 56 22t21 58z" />
  </font>
</defs>
</svg>
