<?xml version="1.0" standalone="no"?>
<!DOCTYPE svg PUBLIC "-//W3C//DTD SVG 1.1//EN" "http://www.w3.org/Graphics/SVG/1.1/DTD/svg11.dtd" >
<svg xmlns="http://www.w3.org/2000/svg" xmlns:xlink="http://www.w3.org/1999/xlink" version="1.1">
<metadata>
Created by FontForge 20170731 at Sun Jan 10 00:33:45 2016
 By Aleksey,,,
Copyright  2004, Joshua Darden &#38; Phil's Fonts, Inc. All rights reserved. Published by Garagefonts USA 301-260-2285 www.garagefonts.com
</metadata>
<defs>
<font id="FreightTextBoldItalicSC" horiz-adv-x="500" >
  <font-face 
    font-family="FreightTextBoldItalicSC"
    font-weight="400"
    font-style="italic"
    font-stretch="normal"
    units-per-em="1000"
    panose-1="2 0 8 3 8 0 0 9 0 4"
    ascent="768"
    descent="-232"
    x-height="466"
    cap-height="625"
    bbox="-61 -275 1477 864"
    underline-thickness="20"
    underline-position="-173"
    slope="-12"
    unicode-range="U+0020-FB04"
  />
<missing-glyph 
 />
    <glyph glyph-name=".notdef" 
 />
    <glyph glyph-name=".null" horiz-adv-x="0" 
 />
    <glyph glyph-name="nonmarkingreturn" horiz-adv-x="182" 
 />
    <glyph glyph-name="space" unicode=" " horiz-adv-x="182" 
 />
    <glyph glyph-name="space" unicode="&#xa0;" horiz-adv-x="182" 
 />
    <glyph glyph-name="exclam" unicode="!" horiz-adv-x="294" 
d="M155 202q-1 -3 -5 -5t-8.5 -2t-8 2t-3.5 6l4 387q0 23 16.5 36t45.5 13h4q37 0 54.5 -15.5t9.5 -41.5zM192 54q0 -28 -19.5 -49t-49.5 -21t-50 20.5t-20 49.5t20 49t50 20t49.5 -20.5t19.5 -48.5z" />
    <glyph glyph-name="quotedbl" unicode="&#x22;" horiz-adv-x="380" 
d="M246 403h-44l111 242h1l90 -31zM75 403h-45l111 242h1l91 -31z" />
    <glyph glyph-name="numbersign" unicode="#" horiz-adv-x="581" 
d="M458 398l-45 -173h125l-1 -48h-138l-49 -183h-48l48 183h-157l-49 -183h-49l49 183h-124l1 48h137l45 173h-125l2 47h137l50 186h49l-49 -186h156l50 186h48l-49 -186h125l-2 -47h-137zM409 398h-157l-45 -173h158z" />
    <glyph glyph-name="dollar" unicode="$" 
d="M147 -166h-45l41 154q-40 5 -73.5 13t-63.5 17l17 192l62 -1l30 -150q18 -9 42 -15l58 221q-35 18 -63.5 36.5t-49 41t-31.5 51t-11 66.5t18 70.5t48.5 56.5t71 37.5t86.5 13.5h15q7 0 13 -1l27 101h45l-27 -105q20 -3 39.5 -7.5t42.5 -10.5q0 1 8.5 3.5t18.5 5.5l26 8
l-26 -205l-62 2l-20 134q-10 5 -20 8t-21 6l-54 -200q33 -18 62.5 -36.5t51.5 -41t35 -50.5t13 -66q0 -46 -18.5 -83t-50.5 -62.5t-76.5 -39t-95.5 -13.5h-11q-6 0 -12 1zM300 585q-6 1 -12 1h-14q-21 0 -40 -6t-32.5 -16.5t-21.5 -25t-8 -30.5q-1 -37 20.5 -62.5
t57.5 -48.5zM199 37q5 -1 11 -1h13q56 0 86 27.5t31 71.5q0 37 -24 62t-62 48z" />
    <glyph glyph-name="percent" unicode="%" horiz-adv-x="746" 
d="M390 500q0 -39 -14.5 -73t-39 -59.5t-58 -40t-72.5 -14.5q-32 0 -60.5 10.5t-49.5 30t-33.5 47t-12.5 61.5q0 38 14.5 71.5t39 59t58 40t70.5 14.5q33 0 61.5 -10t50 -29t34 -46.5t12.5 -61.5zM99 -15h-59l630 654h59zM724 164q0 -39 -14.5 -73t-39.5 -59.5t-58.5 -40
t-71.5 -14.5q-67 0 -110.5 39t-43.5 108q0 39 14 73t38.5 59.5t57.5 40t72 14.5q32 0 60.5 -10t49.5 -29t33.5 -46.5t12.5 -61.5zM340 490q0 50 -31 81.5t-81 31.5q-28 0 -51.5 -11.5t-41 -31t-27.5 -44.5t-10 -52q0 -50 32.5 -79.5t79.5 -29.5q28 0 51.5 10.5t41 29
t27.5 43t10 52.5zM676 158q0 24 -9 44t-24 34.5t-35.5 22.5t-43.5 8q-28 0 -51.5 -11.5t-41 -31t-27.5 -44.5t-10 -52q0 -50 31.5 -79.5t78.5 -29.5q28 0 52 11.5t42 30.5t28 44t10 53z" />
    <glyph glyph-name="ampersand" unicode="&#x26;" horiz-adv-x="663" 
d="M372 117q-54 -64 -109.5 -98t-119.5 -34q-30 0 -56 12t-44.5 33t-29.5 50t-11 62q0 41 16 72.5t41 54t56 37t60 20.5v2q-29 26 -49 59.5t-20 78.5q0 41 19 73.5t49.5 54.5t69 33.5t77.5 11.5t71.5 -9.5t56 -26.5t37 -41.5t13.5 -54.5q0 -61 -49.5 -100t-136.5 -59v-2
l127 -135h2l106 95v2q-40 21 -40 58q0 29 20.5 47t50.5 18q34 0 55 -22t21 -53q0 -45 -37 -79.5t-112 -68.5l-42 -22l152 -162l-122 -47l-120 140h-2zM383 504q0 37 -19 65t-56 28q-38 0 -61.5 -27t-23.5 -67q0 -23 4 -40.5t12 -32.5t19.5 -29t26.5 -29q51 29 74.5 62
t23.5 70zM200 304q-37 -26 -60.5 -59t-23.5 -73q0 -42 25.5 -67t65.5 -25q57 0 140 60z" />
    <glyph glyph-name="quotesingle" unicode="'" horiz-adv-x="209" 
d="M75 403h-45l111 242h1l91 -31z" />
    <glyph glyph-name="parenleft" unicode="(" horiz-adv-x="395" 
d="M359 -253q-41 20 -88.5 60.5t-87.5 99.5t-66.5 135.5t-26.5 167.5t26.5 167t66.5 135t87.5 99.5t88.5 61.5l27 -39q-38 -21 -80 -60t-77.5 -93.5t-59 -122.5t-23.5 -148t23.5 -148.5t59 -123.5t77.5 -93.5t80 -58.5z" />
    <glyph glyph-name="parenright" unicode=")" horiz-adv-x="395" 
d="M9 -215q38 20 80 59t77.5 94t59 123.5t23.5 148.5t-23.5 148t-59 122.5t-77.5 93.5t-80 60l29 39q41 -21 87.5 -61.5t86.5 -99.5t66.5 -135t26.5 -167t-26.5 -167.5t-66.5 -135.5t-86.5 -99.5t-87.5 -60.5z" />
    <glyph glyph-name="asterisk" unicode="*" horiz-adv-x="354" 
d="M339 426l-102 41l-10 -13l72 -84l-19 -57l-21 -7l-50 34l5 111l-15 4l-54 -93l-61 -2l-15 17l16 60l105 28v20l-105 29l-16 59l14 18l62 -2l54 -94l16 5l-5 110l50 33l21 -7l19 -57l-73 -84l10 -13l102 41l48 -38v-22z" />
    <glyph glyph-name="plus" unicode="+" horiz-adv-x="480" 
d="M269 281v-182h-57v182h-183l3 57h180v183h57v-183h179l3 -57h-182z" />
    <glyph glyph-name="comma" unicode="," horiz-adv-x="232" 
d="M175 38q0 -32 -15.5 -61.5t-41.5 -56t-60 -49.5t-71 -42l-25 24q22 13 42 28.5t35 32.5t24 35.5t9 37.5q0 21 -10.5 37t-23.5 27t-23.5 17t-10.5 7q0 24 23 43.5t54 19.5q42 0 68 -29.5t26 -70.5z" />
    <glyph glyph-name="hyphen" unicode="-" horiz-adv-x="333" 
d="M33 215l3 60h263l3 -60h-269z" />
    <glyph glyph-name="period" unicode="." horiz-adv-x="232" 
d="M173 62q0 -31 -22 -54.5t-55 -23.5t-55.5 23t-22.5 55t22.5 54.5t55.5 22.5t55 -22.5t22 -54.5z" />
    <glyph glyph-name="slash" unicode="/" horiz-adv-x="279" 
d="M220 665h53l-216 -877h-53z" />
    <glyph glyph-name="zero" unicode="0" 
d="M482 385q0 -37 -6.5 -81.5t-19.5 -89t-34 -86t-50 -73.5t-66 -51t-84 -19q-53 0 -90.5 21t-61 56t-34 80t-10.5 92q0 38 6 82.5t19.5 89.5t34 87t49.5 74t67 51.5t85 19.5q53 0 90.5 -22t60.5 -57.5t33.5 -81t10.5 -92.5zM365 449q0 21 -2 47t-10.5 49t-24.5 38.5
t-44 15.5q-26 0 -47 -24t-36.5 -62t-26.5 -86t-18 -95.5t-10 -90t-3 -70.5q0 -20 2 -45.5t10.5 -48t24.5 -38t43 -15.5q26 0 47 23.5t36.5 61.5t26.5 85t18.5 94.5t10.5 90t3 70.5z" />
    <glyph glyph-name="one" unicode="1" 
d="M48 0l2 46l107 13q14 2 19.5 8.5t7.5 14.5l61 457l-127 18l7 34l245 47l-74 -556q-1 -8 3.5 -14.5t16.5 -8.5l84 -13l2 -46h-354z" />
    <glyph glyph-name="two" unicode="2" horiz-adv-x="497" 
d="M404 0h-401l1 61q66 56 127 104.5t108 94.5t75 91t28 93q0 27 -9 47t-24.5 34t-35.5 21t-41 7q-45 0 -85.5 -21t-75.5 -49l-9 26q17 20 41 42.5t53.5 42t64.5 32t73 12.5q35 0 65.5 -11.5t53.5 -32.5t36.5 -50.5t13.5 -64.5q0 -53 -32.5 -102.5t-84.5 -97t-117 -94
t-130 -93.5v-6h67q63 0 102.5 1t63.5 5.5t36 12.5t21 22l27 42h43z" />
    <glyph glyph-name="three" unicode="3" 
d="M440 196q0 -49 -26 -90t-66.5 -70t-90.5 -45t-98 -16q-21 0 -48 4.5t-50 15t-39 27t-16 41.5q0 24 17.5 41.5t40.5 17.5q19 0 34 -9t24.5 -23.5t14.5 -31.5t5 -34q6 -1 16.5 -2.5t19.5 -1.5q33 0 59 13.5t44 35t27.5 49.5t9.5 58q0 48 -29 75.5t-73 27.5q-24 0 -44 -4.5
t-36 -10.5l-12 32q38 20 75.5 39t67.5 40t48.5 45t18.5 53q0 21 -8.5 36.5t-21.5 26t-29.5 15.5t-33.5 5q-45 0 -85.5 -20.5t-72.5 -44.5l-9 27q21 24 48 46t57.5 38.5t64 26t67.5 9.5q28 0 55.5 -8t49.5 -23.5t35.5 -38t13.5 -50.5q0 -43 -22.5 -74t-55.5 -53.5t-69.5 -37
t-65.5 -25.5v-4q14 4 29.5 6.5t27.5 2.5q58 0 94.5 -35.5t36.5 -101.5z" />
    <glyph glyph-name="four" unicode="4" 
d="M371 179l-26 -179h-106l25 179h-256l-2 45l356 415l67 -12l-52 -393h104l-13 -55h-97zM309 507h-9l-234 -273h204z" />
    <glyph glyph-name="five" unicode="5" 
d="M480 522h-271l-40 -113q37 -5 83.5 -17.5t87 -36.5t68 -61t27.5 -93q0 -50 -22 -90.5t-57.5 -69t-80.5 -44t-91 -15.5q-27 0 -57.5 4.5t-56 16t-41.5 30.5t-16 48q0 24 17 41.5t41 17.5q21 0 36 -8.5t24.5 -22t14.5 -31.5t5 -36q11 -8 27.5 -11.5t32.5 -3.5
q52 0 86.5 29.5t34.5 83.5q0 42 -19 72.5t-52.5 52.5t-78.5 35.5t-97 20.5l108 304h302z" />
    <glyph glyph-name="six" unicode="6" 
d="M33 229q0 77 33 148t94.5 127.5t149 94t196.5 45.5l10 -35q-75 -15 -134 -42t-103.5 -65t-75.5 -85.5t-49 -101.5h5q34 43 79.5 66t85.5 23q31 0 58 -11.5t47.5 -33.5t32.5 -54t12 -73q0 -49 -20 -94t-53 -79t-76 -54t-89 -20t-84 19.5t-64 52.5t-40.5 77.5t-14.5 94.5z
M146 182q0 -30 5.5 -58t16.5 -49.5t28.5 -34.5t42.5 -13q22 0 43.5 13.5t38.5 38.5t27.5 59.5t10.5 77.5q0 60 -25 94t-63 34q-35 0 -63.5 -21t-48.5 -51q-6 -18 -9.5 -41.5t-3.5 -48.5z" />
    <glyph glyph-name="seven" unicode="7" 
d="M167 -8h-87l360 535v3h-122q-55 0 -87 -1t-49.5 -4t-25 -8.5t-14.5 -15.5l-38 -60h-38l47 184h423l-1 -42z" />
    <glyph glyph-name="eight" unicode="8" 
d="M452 169q0 -46 -19.5 -80t-51 -57t-71 -34.5t-80.5 -11.5q-37 0 -74 10.5t-66 30.5t-47.5 50t-18.5 70q0 34 13 60.5t34 46.5t48.5 33.5t56.5 20.5v2q-41 25 -68 60.5t-28 85.5q0 43 17.5 77t46.5 57t66 35.5t77 12.5q36 0 69.5 -10t60 -29.5t42.5 -48t16 -66.5
q0 -33 -11.5 -57.5t-30 -42.5t-43.5 -30t-53 -20l1 -3q23 -13 43.5 -29.5t36 -36.5t25 -43.5t9.5 -52.5zM372 483q0 23 -6 44.5t-18 37.5t-30.5 25.5t-43.5 9.5q-44 0 -69.5 -26.5t-25.5 -70.5q0 -26 11.5 -48t29.5 -40.5t40.5 -33.5t43.5 -28q35 23 51.5 56t16.5 74z
M351 124q0 30 -13.5 54t-34.5 44t-46 36t-47 30q-36 -24 -59.5 -59.5t-23.5 -81.5q0 -54 31 -88t87 -34q46 0 75.5 24t30.5 75z" />
    <glyph glyph-name="nine" unicode="9" 
d="M490 394q0 -76 -33 -147t-94.5 -127.5t-149.5 -94t-197 -45.5l-9 34q75 15 134 42.5t103.5 65.5t75 85t48.5 102h-4q-35 -44 -80 -67t-86 -23q-30 0 -57.5 11.5t-48 33.5t-32.5 54t-12 74q0 49 20 93.5t53 78.5t76.5 54t89.5 20q47 0 84.5 -19t63.5 -52t40.5 -77.5
t14.5 -95.5zM376 442q0 30 -5 58t-16.5 49.5t-29 34.5t-41.5 13q-22 0 -43.5 -13.5t-39 -38.5t-28 -60t-10.5 -77q0 -60 25.5 -94.5t63.5 -34.5q35 0 63 21t49 51q6 18 9 41.5t3 49.5z" />
    <glyph glyph-name="colon" unicode=":" horiz-adv-x="232" 
d="M215 365q0 -32 -22 -55t-55 -23q-34 0 -56.5 23t-22.5 55t22.5 54.5t56.5 22.5q33 0 55 -23t22 -54zM173 62q0 -31 -22 -54.5t-55 -23.5t-55.5 23t-22.5 55t22.5 54.5t55.5 22.5t55 -22.5t22 -54.5z" />
    <glyph glyph-name="semicolon" unicode=";" horiz-adv-x="232" 
d="M215 365q0 -32 -22 -55t-55 -23t-55.5 23t-22.5 55t22.5 54.5t55.5 22.5t55 -23t22 -54zM175 33q0 -32 -15.5 -61.5t-41.5 -56t-60 -49.5t-71 -42l-25 24q22 13 42 28.5t35 32.5t24 35.5t9 37.5q0 21 -10.5 37t-23.5 27t-23.5 17t-10.5 7q0 24 23 43.5t54 19.5
q42 0 68 -29.5t26 -70.5z" />
    <glyph glyph-name="less" unicode="&#x3c;" horiz-adv-x="480" 
d="M27 291v37l406 188l15 -57l-325 -148v-2l325 -147l-15 -58z" />
    <glyph glyph-name="equal" unicode="=" horiz-adv-x="475" 
d="M43 367l-4 63h398l-4 -63h-390zM39 189l4 63h390l4 -63h-398z" />
    <glyph glyph-name="greater" unicode="&#x3e;" horiz-adv-x="480" 
d="M42 104l-15 58l325 147v2l-325 148l15 57l406 -188v-37z" />
    <glyph glyph-name="question" unicode="?" horiz-adv-x="388" 
d="M389 461q0 -38 -12.5 -64t-32.5 -43t-44.5 -27t-48.5 -17l-34 -12q-17 -5 -29 -11.5t-19.5 -15.5t-7.5 -22q0 -17 9 -33t25 -30l-49 1q-21 14 -39.5 41t-18.5 58q0 29 13 49.5t33.5 34.5t46 23t50.5 16q18 5 34.5 10t29 10.5t20 12.5t7.5 17q0 14 -11.5 27.5t-31 23.5
t-46 16t-57.5 6q-18 0 -34 -2t-29 -4q-15 16 -15 38q0 32 25 53.5t73 21.5q39 0 74 -14t61.5 -38.5t42 -57t15.5 -68.5zM197 54q0 -28 -19.5 -49t-49.5 -21t-50 20.5t-20 49.5t20 49t50 20t49.5 -20.5t19.5 -48.5z" />
    <glyph glyph-name="at" unicode="@" horiz-adv-x="872" 
d="M482 117q0 5 4.5 22.5t10.5 38t11.5 39t7.5 25.5h-13q-23 -39 -44.5 -74t-42.5 -61t-42.5 -41.5t-44.5 -15.5t-43 9t-35 24t-23.5 35.5t-8.5 44.5q0 30 9 65.5t24.5 70.5t36 67t44.5 55q27 27 58.5 42t60.5 15q37 0 59.5 -20t33.5 -58h10l27 71h87l-60 -168l-35 -173
q-4 -17 13.5 -31t50.5 -14q32 0 59.5 16.5t48 45.5t33 68t13.5 84q3 72 -21 130t-69 99t-107.5 64t-136.5 24q-75 1 -141 -27.5t-116 -77.5t-80 -114.5t-32 -138.5q-2 -81 23.5 -147.5t72 -114t110 -73.5t137.5 -26q32 0 64 5.5t63 14.5l11 -37q-37 -13 -70.5 -19t-72.5 -6
q-81 0 -152.5 30t-123.5 83.5t-81.5 126.5t-26.5 160q2 84 35.5 157.5t90 128.5t132 86t161.5 30q81 -1 151 -27t121 -72.5t79 -111.5t25 -145q-2 -58 -21.5 -107t-51.5 -85t-74 -56t-89 -20q-34 0 -58 8t-38.5 20t-20 27t-3.5 29zM525 354q-6 12 -18 24t-26 21t-29 15
t-27 6q-20 0 -33 -13q-10 -10 -22.5 -36t-22.5 -58t-17 -65t-7 -58q0 -30 15.5 -47t32.5 -17q12 0 27.5 15t33 38.5t35.5 52.5t35 56q2 3 6 13.5t7.5 22t6.5 20.5t3 10z" />
    <glyph glyph-name="A" unicode="A" horiz-adv-x="620" 
d="M304 0l3 41l39 6q27 4 30.5 20t-4.5 57l-14 84h-188l-17 -46q-21 -50 -18 -79t29 -34l36 -8l3 -41h-237l3 41l28 9q15 4 26 9.5t22.5 19t25 39t34.5 70.5l174 384v38l133 30l108 -549q4 -17 11 -26.5t27 -14.5l38 -9l3 -41h-295zM309 514h-8l-111 -257h160z" />
    <glyph glyph-name="B" unicode="B" horiz-adv-x="609" 
d="M570 172q0 -32 -12 -58.5t-34 -49.5q-32 -31 -83.5 -47.5t-117.5 -16.5h-316l4 40l49 11q14 3 19 8.5t7 15.5l64 475q2 9 -1.5 15t-18.5 9l-45 11l-3 40h292q111 0 162 -39t51 -102q0 -33 -14 -59.5t-37.5 -46.5t-54.5 -33.5t-64 -21.5q0 2 1.5 -0.5t1.5 -4.5
q30 -6 57 -18t48 -30t33 -42.5t12 -55.5zM448 463q0 56 -38.5 87t-98.5 31h-23l-33 -238h57q27 0 51.5 7.5t43.5 22.5t30 37.5t11 52.5zM426 168q0 30 -10 54.5t-27.5 41t-41 25.5t-50.5 9h-48l-33 -244l55 -11h21q30 0 55 10t42.5 27t27 40t9.5 48z" />
    <glyph glyph-name="C" unicode="C" horiz-adv-x="650" 
d="M555 0l-60 12q-30 -11 -70 -19.5t-84 -8.5q-73 0 -128 20.5t-91.5 57.5t-54.5 89t-18 115q0 72 30 142t84 124q48 48 112.5 77.5t140.5 29.5q21 0 43.5 -2.5t43 -6t37.5 -8t27 -8.5l86 23l-30 -223h-69l-23 144q-20 14 -45.5 23t-59.5 9q-48 0 -90 -26t-73.5 -72
t-49.5 -107t-18 -132q0 -121 62 -181q39 -39 103 -39q25 0 49.5 6.5t46.5 17.5l70 149h76z" />
    <glyph glyph-name="D" unicode="D" horiz-adv-x="686" 
d="M664 349q0 -72 -24.5 -131t-77.5 -112q-47 -48 -124.5 -77t-173.5 -29h-257l4 40l49 11q14 3 19 8.5t7 15.5l64 475q2 9 -1.5 15t-18.5 9l-45 11l-3 40q77 1 137 1h129q76 0 135 -20.5t99 -57t61 -87.5t21 -112zM520 350q0 51 -11 93t-34 72t-60 47t-88 17h-40l-70 -519
l67 -15q50 2 93 23t74.5 59.5t50 94.5t18.5 128z" />
    <glyph glyph-name="E" unicode="E" horiz-adv-x="627" 
d="M539 0h-532l4 40l49 11q14 3 19 8.5t7 15.5l65 475q2 9 -2 15t-18 9l-46 11l-2 40h541l-27 -206h-69l-11 83q-3 27 -11 42.5t-28 23.5t-56 10t-95 2h-39l-34 -242h19q42 0 63 5.5t32 26.5l34 68h51l-55 -242h-51l1 64q0 9 -3 15.5t-12 10.5t-26 5.5t-44 1.5h-15l-33 -248
h43q61 0 98.5 2.5t61 10.5t36.5 23.5t25 41.5l34 74h72z" />
    <glyph glyph-name="F" unicode="F" horiz-adv-x="602" 
d="M513 419l-11 83q-4 27 -12 43t-28 23.5t-56 9.5t-95 2h-23l-34 -254h22q42 0 63.5 5t32.5 28l34 68h50l-55 -242h-50l4 63q1 20 -17 26.5t-72 6.5h-20l-27 -206q-3 -20 20 -24l52 -11l3 -40h-287l4 40l49 11q14 3 19 8.5t7 15.5l65 475q2 9 -2 15t-18 9l-46 11l-2 40h526
l-27 -206h-69z" />
    <glyph glyph-name="G" unicode="G" horiz-adv-x="701" 
d="M670 243l-47 -11q-24 -6 -27 -24l-24 -142l58 -9l3 -33q-25 -7 -57 -14t-68.5 -13t-75.5 -9.5t-77 -3.5q-78 0 -135.5 20t-95.5 57t-56.5 89t-18.5 116q0 72 30 142t84 124q48 48 117.5 77.5t145.5 29.5q21 0 43.5 -2.5t43 -6t37.5 -8t27 -8.5l86 23l-30 -220h-69
l-22 141q-21 14 -51.5 23t-64.5 9q-48 0 -90 -26t-73.5 -72t-49.5 -107t-18 -132q0 -121 62 -181q19 -19 47 -29t59 -10q23 0 42.5 3.5t36.5 9.5l25 162q2 11 -2.5 16t-19.5 8l-47 11l-3 40h279z" />
    <glyph glyph-name="H" unicode="H" horiz-adv-x="741" 
d="M397 0l3 40l49 11q14 3 19 8t7 16l30 220h-256l-30 -220q-3 -19 20 -24l47 -11l3 -40h-280l3 40l49 11q14 3 19 8.5t7 15.5l64 475q2 9 -1.5 15t-18.5 9l-45 11l-3 40h280l-3 -40l-50 -11q-23 -6 -26 -24l-28 -206h256l28 206q2 11 -2 16t-18 8l-46 11l-3 40h281l-4 -40
l-49 -11q-23 -6 -26 -24l-65 -475q-3 -19 20 -24l46 -11l3 -40h-280z" />
    <glyph glyph-name="I" unicode="I" horiz-adv-x="373" 
d="M9 0l3 40l59 11q14 3 19 8.5t7 15.5l65 475q2 9 -2 15.5t-18 8.5l-56 11l-3 40h300l-3 -40l-60 -11q-23 -5 -26 -24l-64 -475q-3 -18 20 -24l56 -11l4 -40h-301z" />
    <glyph glyph-name="J" unicode="J" horiz-adv-x="441" 
d="M460 585l-53 -11q-23 -4 -26 -24l-40 -298q-19 -140 -78.5 -204t-156.5 -64q-27 0 -50 5.5t-40.5 16.5t-27 27t-9.5 36q1 24 19 40t42 16q15 0 29.5 -4.5t26 -15.5t19 -31t9.5 -51h1q15 8 27 21.5t21 36t16.5 55t13.5 77.5l45 337q2 9 -2 15.5t-18 8.5l-65 11l-3 40h304z
" />
    <glyph glyph-name="K" unicode="K" horiz-adv-x="671" 
d="M378 0l3 40l26 9q21 6 6 35l-105 211l-69 -58l-21 -162q-3 -19 20 -24l46 -11l2 -40h-280l4 40l49 11q14 3 19 8.5t7 15.5l65 475q2 9 -2 15t-18 9l-46 11l-2 40h280l-4 -40l-50 -11q-23 -6 -26 -24l-32 -247l175 165q35 34 52.5 54t17.5 32q-1 17 -24 25l-26 7l-2 39
h261l-4 -38l-26 -7q-27 -7 -58.5 -26.5t-75.5 -55.5l-138 -120l153 -281q8 -16 14.5 -25t13 -14t13.5 -8t17 -6l18 -4l2 -40h-255z" />
    <glyph glyph-name="L" unicode="L" horiz-adv-x="579" 
d="M495 0h-489l4 40l49 11q14 3 19 9t7 15l64 475q2 9 -2 15t-18 9l-46 11l-2 40h284l-4 -40l-53 -11q-23 -6 -26 -24l-68 -505h30q50 0 82 3.5t53 12t33.5 23.5t23.5 39l37 83h71z" />
    <glyph glyph-name="M" unicode="M" horiz-adv-x="863" 
d="M525 0l3 40l54 12q8 2 13.5 8.5t10.5 26t9.5 55t10.5 93.5l33 313h-10l-238 -528h-120l-64 537h-10l-53 -318q-11 -66 -16 -103t-6 -55t3 -22.5t11 -6.5l55 -12l3 -40h-222l3 40l53 12q8 2 14.5 6.5t13.5 22.5t15 55t19 103l52 310q2 9 -2 16.5t-15 9.5l-58 10l-2 40h263
l56 -474h10l214 474h251l-3 -40l-59 -11q-24 -4 -26 -25l-34 -314q-7 -61 -10 -97t-1.5 -54.5t6.5 -24t14 -7.5l50 -12l2 -40h-293z" />
    <glyph glyph-name="N" unicode="N" horiz-adv-x="715" 
d="M738 585l-48 -10q-12 -3 -21.5 -11.5t-17 -30t-14.5 -59t-15 -98.5l-53 -384h-97l-262 509h-7l-34 -252q-9 -61 -12.5 -99t-2 -59.5t7.5 -30t18 -10.5l52 -10l3 -40h-239l3 40l48 10q12 3 21 11.5t16.5 30.5t14.5 59.5t15 97.5l37 268q3 24 -1 38t-23 19l-43 11l-2 40
h209l238 -465h8l29 216q9 62 12.5 100t2.5 59.5t-7 29.5t-17 10l-54 10l-3 40h241z" />
    <glyph glyph-name="O" unicode="O" horiz-adv-x="715" 
d="M686 348q0 -78 -29.5 -146.5t-81.5 -121.5q-45 -46 -104 -70.5t-129 -24.5q-64 0 -118 21.5t-93 60t-61 91.5t-22 117q0 73 24.5 137.5t70.5 114.5q47 51 110 81t140 30q64 0 118 -21.5t93 -60t60.5 -91.5t21.5 -117zM543 378q0 47 -11 94t-41 79q-19 17 -43 27.5
t-58 10.5q-37 0 -66.5 -17.5t-51.5 -46.5t-37 -66t-25 -75t-14.5 -74.5t-4.5 -65.5q0 -48 11 -94t42 -76q18 -18 42 -28.5t58 -10.5q37 0 66.5 17.5t51.5 46t37.5 65t25 75t14 75t4.5 64.5z" />
    <glyph glyph-name="P" unicode="P" horiz-adv-x="588" 
d="M584 449q0 -48 -21.5 -85.5t-59 -63.5t-87 -39.5t-106.5 -13.5q-17 0 -34 1.5t-33 3.5l-24 -177q-3 -21 20 -24l62 -11l2 -40h-296l4 40l49 11q14 3 19 8.5t7 15.5l65 475q2 9 -2 15t-18 9l-46 11l-2 40h265q53 0 96.5 -12t74.5 -34.5t48 -55.5t17 -74zM447 444
q0 31 -10 56.5t-28 43.5t-41.5 28t-50.5 10h-29l-40 -287q12 -2 24.5 -4t23.5 -2q67 0 109 41t42 114z" />
    <glyph glyph-name="Q" unicode="Q" horiz-adv-x="717" 
d="M653 -174q-27 -8 -66 -13.5t-90 -6.5q-51 0 -90 9t-71.5 32t-59.5 62t-54 98q-39 16 -71.5 42t-55 60.5t-35 76.5t-12.5 89q0 73 24.5 137t69.5 114q46 51 109.5 81.5t140.5 30.5q64 0 118 -21.5t93 -60t61 -91.5t22 -117q0 -78 -29 -147.5t-80 -119.5
q-35 -35 -85.5 -60.5t-108.5 -32.5q22 -36 47 -60.5t56.5 -39.5t71.5 -22t92 -8zM543 379q0 47 -11 94t-42 79q-18 17 -42.5 27.5t-57.5 10.5q-38 0 -67 -18t-51 -47t-37 -66t-24.5 -75.5t-14 -75t-4.5 -65.5q0 -23 2.5 -47t8.5 -46.5t16 -42t25 -34.5q18 -18 42.5 -28.5
t59.5 -10.5q37 0 66 17.5t51 46.5t37 66t24.5 75t14 75t4.5 65z" />
    <glyph glyph-name="R" unicode="R" horiz-adv-x="633" 
d="M423 0l-34 80l-90 188l-52 3l-28 -196q-3 -16 20 -24l44 -11l3 -40h-278l3 40l49 11q14 3 19 9t7 15l63 475q3 19 -20 24l-46 11l-2 40h295q54 0 95 -11.5t69 -32t42 -47.5t14 -58q0 -69 -45.5 -116.5t-129.5 -70.5l109 -197q8 -14 14.5 -22.5t13 -13.5t13 -7.5
t13.5 -4.5l17 -4l2 -40h-180zM450 454q0 59 -35 93t-93 34h-35l-35 -259l62 -13q58 8 97 43.5t39 101.5z" />
    <glyph glyph-name="S" unicode="S" horiz-adv-x="535" 
d="M480 183q0 -46 -19 -83t-52 -62.5t-78 -39t-98 -13.5q-65 0 -115.5 9.5t-94.5 23.5l17 192l64 -1l31 -150q22 -10 49 -16t63 -6q55 0 84.5 27t30.5 70q0 23 -10 41t-27 33.5t-40.5 29t-49.5 28.5q-37 20 -66 38.5t-49 40.5t-31 49.5t-11 65.5t18 70.5t49.5 56.5
t73.5 37.5t90 13.5q25 0 45.5 -2t38.5 -5t36 -7t38 -9q0 1 8.5 3.5t19.5 5.5q12 4 27 8l-27 -205l-63 2l-21 134q-24 10 -52.5 16t-61.5 6q-21 0 -39 -6t-31.5 -16.5t-21.5 -24.5t-8 -30q0 -25 9.5 -44t27.5 -35t42.5 -30.5t53.5 -30.5q32 -17 59.5 -34.5t47.5 -39.5
t31.5 -49t11.5 -62z" />
    <glyph glyph-name="T" unicode="T" horiz-adv-x="641" 
d="M572 415l-11 83q-3 27 -11 43t-22 24.5t-36.5 11.5t-55.5 3h-6l-67 -505q-3 -19 20 -24l60 -11l3 -40h-306l3 40l62 11q14 2 19.5 8.5t6.5 15.5l67 505h-4q-33 0 -55.5 -2.5t-38.5 -10.5t-28 -24t-24 -42l-35 -86h-72l45 210h578l-27 -210h-65z" />
    <glyph glyph-name="U" unicode="U" horiz-adv-x="708" 
d="M737 585l-48 -10q-12 -3 -21 -11.5t-16.5 -30t-14.5 -59t-16 -98.5l-24 -170q-9 -58 -32 -101t-57.5 -71t-78.5 -41.5t-95 -13.5q-52 0 -95.5 12.5t-75 38t-49.5 63.5t-18 89q0 30 3 55l43 313q2 9 -2 15t-18 9l-45 11l-3 40h280l-3 -40l-50 -11q-23 -6 -26 -24l-43 -313
q-2 -13 -3.5 -27.5t-1.5 -32.5q0 -63 39.5 -98t105.5 -35q35 0 63.5 9.5t50 30.5t36.5 55t22 84l22 153q9 62 12.5 100t2 59t-7.5 29.5t-18 10.5l-52 10l-3 40h240z" />
    <glyph glyph-name="V" unicode="V" horiz-adv-x="612" 
d="M673 584l-30 -9q-15 -4 -25.5 -9.5t-22 -19.5t-25 -39.5t-34.5 -69.5l-206 -437h-110l-110 534q-3 17 -10.5 26.5t-27.5 14.5l-37 9l-3 41h295l-3 -41l-40 -6q-27 -4 -30.5 -20t4.5 -57l67 -386h7l159 360q22 48 17 72t-31 29l-34 8l-3 41h236z" />
    <glyph glyph-name="W" unicode="W" horiz-adv-x="932" 
d="M1003 584l-30 -9q-16 -5 -29 -12t-26 -21.5t-27 -39t-33 -65.5l-186 -437h-114l-56 385h-7l-175 -385h-115l-94 534q-4 17 -11 27t-27 14l-41 9l-3 41h301l-3 -41l-42 -6q-21 -3 -26.5 -21.5t0.5 -55.5l52 -388h7l158 356l-10 65q-2 17 -10 27t-28 14l-41 9l-3 41h300
l-3 -41l-42 -6q-23 -3 -27.5 -20.5t1.5 -56.5l51 -387h8l130 330q28 66 27 95.5t-30 36.5l-30 8l-3 41h240z" />
    <glyph glyph-name="X" unicode="X" horiz-adv-x="640" 
d="M322 0l3 40l34 6q23 5 26.5 24.5t-17.5 56.5l-67 133h-7l-105 -127q-34 -38 -31 -58t33 -28l30 -7l3 -40h-248l3 40l35 9q26 6 51.5 27.5t51.5 50.5l155 173l-110 194q-22 38 -35 56.5t-29 23.5l-37 11l-2 40h292l-4 -40l-33 -6q-22 -5 -26.5 -23.5t17.5 -57.5l55 -111h7
l97 117q29 32 27 49.5t-30 24.5l-31 7l-3 40h239l-3 -40l-35 -9q-12 -3 -27 -12.5t-30 -22t-30 -27.5t-28 -30l-122 -136l123 -224q20 -36 32 -52t29 -21l36 -11l3 -40h-292z" />
    <glyph glyph-name="Y" unicode="Y" horiz-adv-x="597" 
d="M655 584l-24 -7q-13 -3 -24.5 -8t-25 -16t-29.5 -30t-38 -51l-144 -209l-24 -188q-3 -20 20 -24l59 -11l-1 -40h-307l6 40l64 11q13 2 18.5 8.5t7.5 15.5l24 182l-122 265q-13 25 -24 36t-29 16l-30 10l-3 41h287l-3 -41l-40 -6q-27 -4 -26.5 -27t20.5 -71l71 -174h8
l115 173q32 47 33 69.5t-30 28.5l-36 7l-3 41h233z" />
    <glyph glyph-name="Z" unicode="Z" horiz-adv-x="602" 
d="M511 0h-507l7 45l443 526v8h-103q-46 0 -74.5 -3.5t-46.5 -13t-29.5 -26t-23.5 -42.5l-31 -77h-67l27 208h512l-6 -46l-448 -526l-1 -8h105q54 0 86 5t51 15t29.5 26t21.5 37l32 72h71z" />
    <glyph glyph-name="bracketleft" unicode="[" horiz-adv-x="368" 
d="M92 -222v873h258v-48h-203v-777h203v-48h-258z" />
    <glyph glyph-name="backslash" unicode="\" horiz-adv-x="279" 
d="M221 -212l-216 877h53l216 -877h-53z" />
    <glyph glyph-name="bracketright" unicode="]" horiz-adv-x="368" 
d="M18 -174h203v777h-203v48h258v-873h-258v48z" />
    <glyph glyph-name="asciicircum" unicode="^" horiz-adv-x="300" 
d="M302 515l-86 120h-2l-118 -120h-46l115 182h118l65 -182h-46z" />
    <glyph glyph-name="underscore" unicode="_" horiz-adv-x="470" 
d="M-24 -53l3 53h482l3 -53h-488z" />
    <glyph glyph-name="grave" unicode="`" horiz-adv-x="399" 
d="M245 515l-151 182h127l70 -182h-46z" />
    <glyph glyph-name="a" unicode="a" horiz-adv-x="502" 
d="M244 379h-12l-90 -193h139zM113 122q-17 -43 -17 -58t24 -20l22 -5v-39h-182l5 39l17 4q13 3 23.5 7.5t22 18t26.5 39.5t38 73l123 247l1 24l122 26l86 -405q2 -14 11 -19t26 -10l21 -5v-39h-239l5 39l23 4q12 2 19.5 5t10 10.5t1 21t-6.5 36.5l-6 32h-164z" />
    <glyph glyph-name="b" unicode="b" horiz-adv-x="521" 
d="M470 129q0 -48 -34 -80q-48 -49 -178 -49h-247l6 39l34 9q17 4 19 17l44 336q2 13 -15 17l-31 9l-1 39h240q95 0 135 -28t40 -79q0 -25 -11 -44t-30 -33.5t-44 -23.5t-52 -13v-7q25 -3 47.5 -11t40 -22t27.5 -33t10 -43zM360 342q0 38 -24.5 61.5t-77.5 23.5h-22
l-23 -173l48 1q42 1 70.5 23t28.5 64zM348 129q0 46 -29 68t-74 22h-37l-22 -169l31 -11h30q44 0 72.5 24t28.5 66z" />
    <glyph glyph-name="c" unicode="c" horiz-adv-x="564" 
d="M452 0l-51 10q-22 -8 -58.5 -15.5t-78.5 -7.5q-107 0 -168 56.5t-61 156.5q0 52 21.5 103t59.5 89t89 61t117 23q39 0 75.5 -7t52.5 -12l74 18l-24 -172h-68l-21 109q-14 11 -38 17t-42 6q-40 0 -71 -19.5t-53 -52.5t-33.5 -77.5t-11.5 -94.5q0 -48 13 -79.5t33 -51.5
q17 -17 38.5 -24t42.5 -7q17 0 36.5 4t33.5 12l58 113h70z" />
    <glyph glyph-name="d" unicode="d" horiz-adv-x="573" 
d="M537 259q0 -47 -20 -93.5t-58 -83.5q-39 -38 -98.5 -60t-135.5 -22h-214l6 39l34 9q17 4 19 17l44 336q2 13 -15 17l-31 9l-3 39l225 1q58 1 103.5 -15t77.5 -44t49 -66.5t17 -82.5zM408 257q0 77 -38.5 123t-107.5 46h-27l-49 -371l52 -14q38 -1 69 14.5t53.5 44
t35 68.5t12.5 89z" />
    <glyph glyph-name="e" unicode="e" horiz-adv-x="532" 
d="M447 0h-436l6 39l34 9q17 4 19 17l44 336q2 13 -15 17l-31 9l-3 39h448l-21 -160h-61l-8 58q-3 21 -10 33t-22.5 18.5t-41 8.5t-65.5 2h-49l-22 -174h25q24 0 41.5 5t25.5 21l26 52h45l-43 -187h-44l-2 47q-1 15 -11.5 21t-45.5 6h-22l-23 -177h49q40 0 66.5 2t44.5 9
t29 19t20 32l22 55h66z" />
    <glyph glyph-name="f" unicode="f" horiz-adv-x="516" 
d="M424 306l-8 58q-3 20 -10 32.5t-22.5 19t-41.5 8.5t-66 2h-40l-25 -184h28q24 0 41.5 3.5t26.5 22.5l25 51h46l-43 -187h-44l-2 47q-1 15 -11.5 21t-45.5 6h-25l-19 -141q-2 -14 14 -17l46 -9l-1 -39h-236l6 39l34 9q17 4 19 17l44 336q2 13 -15 17l-31 9l-3 39h440
l-20 -160h-61z" />
    <glyph glyph-name="g" unicode="g" horiz-adv-x="578" 
d="M530 175l-37 -9q-17 -3 -20 -18l-12 -91l44 -5l1 -29q-21 -7 -48 -13.5t-57.5 -11.5t-63 -8t-63.5 -3q-113 0 -176 56.5t-63 156.5q0 53 21.5 103.5t60.5 88.5q38 38 89 61t116 23q39 0 75.5 -7t52.5 -12l74 18l-24 -172h-68l-21 109q-14 11 -38 17t-42 6
q-40 0 -71 -19.5t-53 -52.5t-33.5 -77.5t-11.5 -94.5q0 -47 13 -79.5t33 -52.5q16 -17 36.5 -24t42.5 -7q15 0 29.5 2.5t25.5 7.5l14 110q1 14 -18 18l-31 9l-2 39h229z" />
    <glyph glyph-name="h" unicode="h" horiz-adv-x="612" 
d="M321 0l3 39l34 9q11 3 14.5 6t4.5 11l21 152h-190l-20 -152q-2 -13 14 -17l33 -9l3 -39h-224l3 39l34 9q17 4 19 17l44 336q2 13 -15 17l-31 9l-3 39h223l-2 -39l-35 -9q-17 -4 -19 -17l-19 -144h189l19 144q1 8 -1.5 11.5t-12.5 5.5l-32 9l-3 39h224l-3 -39l-35 -9
q-11 -2 -15 -6.5t-5 -10.5l-44 -336q-1 -6 2 -10t14 -7l32 -9l3 -39h-224z" />
    <glyph glyph-name="i" unicode="i" horiz-adv-x="322" 
d="M13 0l5 39l41 9q17 3 19 17l44 336q2 14 -14 17l-39 9l-4 39h241l-4 -39l-42 -9q-17 -3 -19 -17l-44 -336q-2 -14 15 -17l39 -9l3 -39h-241z" />
    <glyph glyph-name="j" unicode="j" horiz-adv-x="377" 
d="M366 427l-37 -9q-11 -2 -15 -6.5t-5 -10.5l-24 -186q-8 -62 -27 -105.5t-46 -71t-61.5 -40t-73.5 -12.5q-46 0 -70.5 20.5t-22.5 49.5q1 20 15 33.5t35 13.5q33 0 48 -22t13 -57h10q23 16 35 47.5t20 89.5l31 240q2 14 -14 17l-46 9l-3 39h241z" />
    <glyph glyph-name="k" unicode="k" horiz-adv-x="565" 
d="M313 0l2 39l19 6q16 4 5 27l-40 74q-15 28 -27.5 51t-13.5 23l-56 -47l-14 -108q-2 -13 14 -17l33 -9l3 -39h-224l3 39l34 9q17 4 19 17l44 336q2 13 -15 17l-31 9l-3 39h224l-3 -39l-35 -9q-17 -4 -19 -17l-23 -176l130 114q26 23 39.5 38t14.5 27q2 17 -19 21l-16 4
l-3 37h210l-3 -39l-32 -6q-26 -6 -54 -23.5t-70 -53.5l-58 -49l125 -220q9 -16 19.5 -21t21.5 -9l18 -6l3 -39h-222z" />
    <glyph glyph-name="l" unicode="l" horiz-adv-x="489" 
d="M407 0h-393l3 39l34 9q17 4 19 17l44 336q2 13 -15 17l-31 9l-3 39h232l-3 -39l-43 -9q-17 -3 -19 -17l-47 -360h17q40 0 66 3t43 10.5t27.5 21t19.5 33.5l24 59h63z" />
    <glyph glyph-name="m" unicode="m" horiz-adv-x="715" 
d="M429 0l3 39l35 9q6 2 10 4.5t6.5 10t4.5 21.5t4 37l31 287h-12l-180 -393h-99l-47 399h-12l-39 -230q-8 -46 -12 -72.5t-4 -40t3.5 -17.5t10.5 -6l40 -9l3 -39h-172l3 39l36 9q7 2 12.5 6t10.5 18t11 40.5t14 71.5l37 217q3 14 -13 18l-41 8l-3 39h230l32 -326h13
l147 326h205l-3 -39l-38 -9q-11 -2 -14.5 -6.5t-4.5 -11.5l-28 -279q-3 -24 -3.5 -38t1 -21t5 -9.5t9.5 -4.5l34 -9l3 -39h-229z" />
    <glyph glyph-name="n" unicode="n" horiz-adv-x="597" 
d="M588 427l-34 -8q-8 -2 -14 -7.5t-11.5 -20.5t-10.5 -42.5t-11 -72.5l-38 -281h-106l-196 357h-13l-20 -162q-6 -45 -8 -72t-0.5 -42t6.5 -21t12 -8l38 -8l3 -39h-179l3 39l33 8q9 2 15 7.5t11.5 20.5t10.5 42t11 73l25 191q3 28 -17 36l-30 10l-4 39h179l188 -343h13
l19 153q6 44 8 71.5t0.5 42.5t-6 21t-12.5 8l-37 8l-3 39h178z" />
    <glyph glyph-name="o" unicode="o" horiz-adv-x="564" 
d="M528 262q0 -60 -23 -111.5t-64 -91.5q-35 -34 -80.5 -53.5t-98.5 -19.5q-49 0 -90.5 16.5t-71.5 45t-47 68.5t-17 86q0 56 18.5 106t56.5 88q37 38 85.5 60t105.5 22q48 0 89.5 -16.5t72 -45t47.5 -68t17 -86.5zM402 288q0 34 -7.5 67t-26.5 52q-21 26 -65 26
q-40 0 -67 -28t-43.5 -68t-24 -85t-7.5 -78q0 -35 8 -67.5t27 -52.5q22 -24 65 -24q40 0 67 28t43.5 68t23.5 84.5t7 77.5z" />
    <glyph glyph-name="p" unicode="p" horiz-adv-x="511" 
d="M492 333q0 -41 -20.5 -71t-52.5 -49.5t-71.5 -29t-78.5 -9.5q-23 0 -40 1t-27 3l-14 -113q-2 -14 14 -17l46 -9l3 -39h-237l3 39l34 9q17 4 19 17l44 336q2 13 -14 17l-32 9l-3 39h233q99 0 146.5 -37t47.5 -96zM363 328q0 44 -26 72t-73 28h-29l-27 -209q9 -3 24 -4.5
t29 -1.5q22 0 40.5 9t32 24.5t21.5 36.5t8 45z" />
    <glyph glyph-name="q" unicode="q" horiz-adv-x="564" 
d="M507 -130q-23 -5 -57 -9.5t-75 -4.5q-37 0 -65.5 6.5t-52 23t-44 44.5t-41.5 72q-62 24 -99 77t-37 123q0 56 18.5 106t56.5 88q37 38 85.5 60t105.5 22q48 0 89.5 -16.5t72 -45t47.5 -68t17 -86.5q0 -60 -23 -111.5t-64 -91.5q-27 -26 -61.5 -44t-75.5 -25
q19 -27 36.5 -44t39.5 -26.5t51.5 -12.5t71.5 -2zM402 288q0 34 -7.5 67t-26.5 52q-21 26 -65 26q-40 0 -67 -28t-43.5 -68t-24 -85t-7.5 -78q0 -35 8 -67.5t27 -52.5q22 -24 65 -24q40 0 67 28t43.5 68t23.5 84.5t7 77.5z" />
    <glyph glyph-name="r" unicode="r" horiz-adv-x="543" 
d="M344 0l-29 69l-58 125l-52 3l-17 -132q-2 -13 14 -17l33 -9l3 -39h-224l3 39l34 9q17 4 19 17l44 336q2 13 -15 17l-31 9l-3 39h244q50 0 86 -10t59.5 -27t34.5 -39t11 -47q0 -48 -32.5 -84t-98.5 -55l72 -126q8 -17 20.5 -25t26.5 -10l17 -4l3 -39h-164zM371 334
q0 45 -27 70t-70 25h-39l-25 -190l64 -9q17 2 34.5 8.5t31.5 19.5t22.5 31.5t8.5 44.5z" />
    <glyph glyph-name="s" unicode="s" horiz-adv-x="462" 
d="M400 139q0 -33 -14 -60.5t-39.5 -47.5t-62.5 -31.5t-82 -11.5q-57 0 -98.5 6.5t-76.5 15.5l16 149h62l24 -114q17 -6 33.5 -9.5t39.5 -3.5q45 0 69 20.5t24 50.5t-26 49t-73 41q-23 11 -46 24t-41.5 29.5t-30 38.5t-11.5 52q0 59 50.5 98.5t142.5 40.5q38 0 66.5 -4
t63.5 -11l44 11l-21 -156h-57l-25 104q-16 5 -36.5 9.5t-41.5 4.5q-40 0 -60.5 -16.5t-20.5 -42.5q0 -33 27 -53t78 -45q22 -11 44 -24t39.5 -29.5t28.5 -37t11 -47.5z" />
    <glyph glyph-name="t" unicode="t" horiz-adv-x="535" 
d="M454 299l-7 61q-3 20 -8 33t-14.5 20t-24 9.5t-35.5 2.5h-13l-48 -360q-2 -13 15 -17l41 -9l3 -39h-241l3 39l42 9q17 4 19 17l48 360h-11q-22 0 -37.5 -2.5t-27 -9.5t-20 -19t-16.5 -32l-25 -63h-64l35 167h468l-21 -167h-61z" />
    <glyph glyph-name="u" unicode="u" horiz-adv-x="569" 
d="M570 427l-34 -8q-8 -2 -14 -6t-11.5 -18.5t-10.5 -42t-12 -77.5l-17 -122q-11 -79 -61 -124t-139 -45q-91 0 -144.5 39.5t-53.5 114.5q0 9 0.5 16t1.5 15l32 232q2 13 -14 17l-32 9l-3 39h225l-3 -39l-36 -9q-17 -4 -19 -17l-29 -215q-2 -10 -3 -19t-1 -22q0 -55 31 -80
t83 -25q49 0 82 30.5t42 97.5l15 108q6 45 8 72t0.5 42t-6 21t-12.5 8l-37 8l-3 39h178z" />
    <glyph glyph-name="v" unicode="v" horiz-adv-x="502" 
d="M540 426l-18 -4q-14 -3 -24 -7t-21.5 -17.5t-26.5 -39.5t-39 -73l-144 -285h-107l-87 392q-3 14 -11.5 19t-25.5 10l-20 5l-3 40h239l-2 -40l-24 -4q-13 -2 -20 -5t-9 -10.5t0 -20.5t7 -36l54 -262h13l106 226q15 31 21.5 51t6.5 32t-7.5 17.5t-21.5 8.5l-17 3l-3 40h187
z" />
    <glyph glyph-name="w" unicode="w" horiz-adv-x="775" 
d="M807 426l-17 -4q-12 -3 -23 -8.5t-23 -19t-27.5 -39.5t-36.5 -70l-138 -285h-101l-46 282h-12l-132 -282h-102l-78 392q-2 13 -10.5 18.5t-25.5 10.5l-22 5l-3 40h244l-3 -40l-25 -4q-12 -2 -18.5 -5.5t-9 -11.5t-1.5 -21t4 -34l44 -251h12l116 254l-7 39q-2 13 -11.5 19
t-25.5 10l-21 5l-3 40h245l-3 -40l-24 -4q-23 -4 -27 -18.5t2 -53.5l39 -251h12l93 208q15 35 22.5 56t8 33t-6 17.5t-18.5 8.5l-19 4l-3 40h184z" />
    <glyph glyph-name="x" unicode="x" horiz-adv-x="525" 
d="M256 0l3 39l21 4q18 3 20.5 13.5t-11.5 35.5l-57 104h-4l-76 -86q-27 -32 -28 -46t21 -19l22 -5l3 -40h-188l3 39l22 6q23 7 45 23t54 49l100 108l-114 174q-6 11 -13 15t-18 7l-21 6l-3 39h237l-3 -39l-22 -4q-20 -3 -20 -15t14 -39l50 -90h4l69 77q27 30 28.5 45
t-21.5 20l-22 5l-3 40h188l-3 -39l-23 -6q-22 -6 -43.5 -23t-54.5 -50l-95 -98l121 -185q5 -9 12.5 -13t17.5 -7l21 -6l3 -39h-236z" />
    <glyph glyph-name="y" unicode="y" horiz-adv-x="489" 
d="M524 426l-14 -4q-11 -3 -22 -9t-23.5 -17t-28 -28.5t-35.5 -44.5l-100 -133l-16 -125q-2 -14 15 -17l42 -9l3 -39h-244l3 39l44 9q17 3 19 17l15 116l-114 219q-7 15 -31 22l-16 4l-3 40h233l-3 -40l-22 -3q-23 -4 -24 -22t16 -59l50 -119h12l81 111q30 41 31.5 61.5
t-20.5 25.5l-22 5l-3 40h180z" />
    <glyph glyph-name="z" unicode="z" horiz-adv-x="509" 
d="M418 0h-409l5 39l336 381l1 5h-92q-26 0 -44 -2.5t-30.5 -10t-22 -21t-18.5 -34.5l-22 -56h-57l16 165h415l-5 -42l-342 -378v-5h70q36 0 60.5 3t41.5 10.5t27.5 20t18.5 31.5l23 54h65z" />
    <glyph glyph-name="braceleft" unicode="{" horiz-adv-x="349" 
d="M322 -223q-109 5 -162 45t-53 106q0 28 8.5 52.5t18.5 47.5t18.5 44.5t8.5 43.5q0 40 -30.5 57t-93.5 23l-11 32l11 30q58 7 91 23.5t33 56.5q0 22 -8.5 43.5t-18.5 44.5t-18.5 48t-8.5 52q0 66 53 106.5t162 45.5v-38q-59 -5 -84.5 -28.5t-25.5 -58.5q0 -24 8.5 -46
t18.5 -45.5t18.5 -48.5t8.5 -55q0 -24 -11.5 -45.5t-32 -38t-48.5 -27.5t-62 -14v-12q34 -4 62 -15t48.5 -27.5t32 -38t11.5 -45.5q0 -29 -8.5 -54t-18.5 -48t-18.5 -45.5t-8.5 -46.5q0 -35 25.5 -59t84.5 -29v-36z" />
    <glyph glyph-name="bar" unicode="|" horiz-adv-x="275" 
d="M113 690h49v-877h-49v877z" />
    <glyph glyph-name="braceright" unicode="}" horiz-adv-x="349" 
d="M311 196q-63 -6 -94 -23t-31 -57q0 -22 8.5 -43.5t18.5 -44.5t18.5 -47.5t8.5 -52.5q0 -66 -52.5 -106t-161.5 -45v36q59 5 84.5 29t25.5 59q0 24 -8.5 46.5t-18.5 45.5t-18.5 48t-8.5 54q0 24 11.5 45.5t31.5 38t48.5 27.5t62.5 15v12q-34 3 -62.5 14t-48.5 27.5
t-31.5 38t-11.5 45.5q0 30 8.5 55t18.5 48.5t18.5 45.5t8.5 46q0 35 -25.5 58.5t-84.5 28.5v38q109 -5 161.5 -45.5t52.5 -106.5q0 -27 -8.5 -52t-18.5 -48t-18.5 -44.5t-8.5 -43.5q0 -40 33 -56.5t92 -23.5l11 -30z" />
    <glyph glyph-name="asciitilde" unicode="~" horiz-adv-x="384" 
d="M268 241q16 0 28 14.5t29 46.5h41q-17 -73 -46 -102t-73 -29q-22 0 -43 11t-39.5 24.5t-34.5 24.5t-30 11q-17 0 -27 -15t-26 -47h-43q17 72 46 101.5t73 29.5q23 0 43 -11t38 -24t34 -24t30 -11z" />
    <glyph glyph-name="exclamdown" unicode="&#xa1;" horiz-adv-x="294" 
d="M119 569q0 29 20 49.5t50 20.5q29 0 49.5 -20.5t20.5 -49.5q0 -28 -20.5 -48.5t-49.5 -20.5q-30 0 -50 20.5t-20 48.5zM157 422q1 3 5 4.5t8.5 1.5t8 -2t3.5 -6l-4 -386q-1 -23 -17 -36.5t-45 -13.5h-4q-37 0 -55 16t-10 42z" />
    <glyph glyph-name="cent" unicode="&#xa2;" 
d="M214 -165h-46l38 151q-30 3 -55 17t-42 36.5t-26.5 52.5t-9.5 64q0 55 18 110t51.5 100t80.5 73.5t105 29.5h2l43 167h47l-45 -174q37 -11 59.5 -35t22.5 -55q0 -32 -19 -50t-44 -18q-18 0 -31.5 8t-20.5 19l-69 -270q18 3 51.5 22t70.5 42l17 -21q-33 -42 -71.5 -73.5
t-87.5 -40.5zM316 401q-9 4 -20.5 6t-22.5 2q-7 0 -19 -10q-12 -12 -24 -37.5t-21.5 -58t-16 -69t-6.5 -70.5q0 -76 43 -98z" />
    <glyph glyph-name="sterling" unicode="&#xa3;" 
d="M131 312q2 28 4 53q2 26 5 47q7 49 26.5 90.5t50 72t71.5 47.5t90 17q61 0 95 -24t34 -62q0 -28 -16 -46t-45 -18q-16 0 -28.5 7.5t-20 20.5t-9 29.5t5.5 35.5q-6 5 -17.5 10.5t-26.5 5.5q-14 0 -27.5 -6.5t-25.5 -23.5t-21 -45.5t-15 -73.5q-5 -36 -8 -70.5t-7 -66.5
h142l2 -46h-150q-2 -12 -4 -23l-4 -22q-15 -66 -45 -105v-5q15 -4 33.5 -9.5t38 -10.5t38.5 -8.5t35 -3.5q45 0 67 22q12 12 21 28t19 37l25 -9q0 -78 -34.5 -124.5t-104.5 -46.5q-33 0 -59 10.5t-46 25.5t-35.5 31t-26.5 26q-32 -36 -77.5 -60.5t-97.5 -32.5l-7 47
q38 8 64 22t43 34.5t26 48t13 63.5q2 14 3 30.5t3 34.5h-105l3 46h105z" />
    <glyph glyph-name="currency" unicode="&#xa4;" 
d="M177 216q11 -74 48 -115.5t103 -41.5q39 0 72 16.5t62 40.5l15 -20q-29 -48 -80 -79.5t-111 -31.5q-50 0 -88.5 18t-66.5 49t-44.5 73.5t-21.5 90.5h-65l3 47h60v6q1 18 2.5 36t4.5 35h-54l3 47h62q15 53 42.5 97.5t65 76.5t83.5 50.5t98 18.5q73 0 112 -26t40 -61
q0 -29 -16 -47t-42 -18q-16 0 -28.5 7.5t-20.5 20t-12.5 28.5t-3.5 34q-8 6 -23.5 10.5t-30.5 4.5q-28 0 -53.5 -14t-46 -39.5t-36 -62t-24.5 -80.5h202l3 -47h-212q-2 -17 -3 -33t-1 -33v-11h197l3 -47h-197z" />
    <glyph glyph-name="yen" unicode="&#xa5;" 
d="M571 585l-18 -6q-12 -3 -23 -8.5t-23.5 -16t-27 -28.5t-34.5 -47l-115 -174h132l3 -46h-155l-8 -79h160l3 -46h-167l-8 -60q-3 -20 18 -24l59 -11l3 -39h-284l3 39l60 11q23 4 25 24l7 60h-144l1 46h150l10 79h-162l2 46h147l-108 239q-11 24 -37 31l-32 10l-3 40h260
l-3 -40l-33 -6q-19 -4 -19.5 -29t19.5 -76l59 -150h5l97 154q32 51 35 73t-26 29l-19 5l-3 40h197z" />
    <glyph glyph-name="brokenbar" unicode="&#xa6;" horiz-adv-x="429" 
d="M424 427l-38 -9q-11 -2 -15 -6.5t-5 -10.5l-34 -247q-6 -43 -24 -75t-44.5 -53t-58 -31t-63.5 -10q-39 0 -68 8.5t-48.5 22t-29 31t-9.5 36.5q0 29 18 48t44 19q22 0 38.5 -13t16.5 -34q0 -31 -23 -49q8 -10 22 -18.5t35 -8.5q28 0 48.5 26.5t28.5 80.5l36 267
q2 14 -14 17l-46 9v39h238z" />
    <glyph glyph-name="section" unicode="&#xa7;" 
d="M458 281q0 -46 -28.5 -81.5t-68.5 -54.5q25 -28 25 -63q0 -26 -13.5 -52t-37.5 -46.5t-58.5 -33.5t-76.5 -13q-28 0 -53 5.5t-44 16t-30.5 26t-11.5 35.5q0 27 19 44.5t43 17.5q15 0 29 -7t24.5 -19t16.5 -28.5t6 -36.5q11 -6 22 -8t21 -2q28 0 44.5 18t16.5 44
q0 15 -9.5 28.5t-25.5 26.5t-36 26.5t-41 26.5q-24 15 -47.5 30.5t-42 33t-30 38t-11.5 45.5q1 47 30 82t69 54q-24 29 -24 63q0 28 13 53t36.5 44.5t56.5 31t72 11.5q28 0 52 -5.5t42 -16t28.5 -25.5t10.5 -34q0 -27 -18.5 -45.5t-42.5 -18.5q-32 0 -50 26t-16 65
q-7 4 -19.5 7t-20.5 3q-36 0 -49 -18.5t-13 -37.5q0 -16 9.5 -30t25 -27t36 -25.5t41.5 -26.5q23 -15 46 -31t41.5 -33.5t30 -38t11.5 -44.5zM380 227q0 32 -25.5 55.5t-59.5 45.5q-30 20 -61.5 40.5t-54.5 44.5q-17 -9 -28 -25t-11 -36q0 -32 26.5 -55t62.5 -46
q29 -20 60 -40t54 -44q20 11 28.5 25.5t8.5 34.5z" />
    <glyph glyph-name="dieresis" unicode="&#xa8;" horiz-adv-x="400" 
d="M420 606q0 -28 -17 -48.5t-48 -20.5t-48 20.5t-17 48.5t17 49t48 21t48 -21t17 -49zM206 606q0 -28 -17 -48.5t-48 -20.5t-48.5 20.5t-17.5 48.5t17.5 49t48.5 21t48 -21t17 -49z" />
    <glyph glyph-name="copyright" unicode="&#xa9;" horiz-adv-x="768" 
d="M733 311q0 -72 -27.5 -136t-74.5 -111t-111 -74.5t-136 -27.5t-136 27.5t-111 74.5t-74.5 111t-27.5 136q0 73 27.5 137t74.5 111.5t111 75t136 27.5t136 -27.5t111 -75t74.5 -111.5t27.5 -137zM692 311q0 64 -24 121t-66 99.5t-98 67.5t-120 25t-120 -25t-98 -67.5
t-66 -99.5t-24 -121t24 -120.5t66 -99t98 -67t120 -24.5t120 24.5t98 67t66 99t24 120.5zM525 127l-38 8q-19 -8 -45 -13t-48 -5q-52 0 -90 15.5t-62.5 42t-36.5 61.5t-12 74q0 43 15.5 78.5t42.5 61.5t63.5 40.5t78.5 14.5q29 0 51 -5t36 -10l52 14v-138h-42l-27 85
q-25 19 -74 19q-50 0 -82 -37.5t-32 -110.5q0 -35 8.5 -66t24.5 -54.5t39.5 -37t54.5 -13.5q35 0 55 14l35 89h45z" />
    <glyph glyph-name="ordfeminine" unicode="&#xaa;" horiz-adv-x="385" 
d="M308 582l15 56l73 -4l-38 -148l-31 -141l20 -5l58 52l11 -15q-9 -15 -22.5 -31.5t-28.5 -30t-30.5 -22t-29.5 -8.5q-7 0 -16.5 5t-18 12t-14.5 15t-6 13q0 14 15 50.5t33 93.5h-7q-25 -45 -46 -80t-39.5 -59.5t-36.5 -37t-37 -12.5q-33 0 -54 26t-21 75q0 26 6 54
t16.5 55t26 51t33.5 42q25 26 52 38t53 12q29 0 40.5 -17t17.5 -39h6zM293 534q-18 19 -40.5 36t-42.5 17q-13 0 -24 -11q-8 -8 -16.5 -25.5t-15 -40.5t-11 -48.5t-4.5 -49.5q0 -29 11 -43.5t28 -14.5q7 0 17.5 10.5t23.5 28.5t28 41.5t31 49.5z" />
    <glyph glyph-name="guillemotleft" unicode="&#xab;" 
d="M437 41l-213 154v56l259 158l9 -21l-182 -167l141 -159zM228 51l-210 144v56l253 148l8 -21l-163 -157l126 -149z" />
    <glyph glyph-name="logicalnot" unicode="&#xac;" horiz-adv-x="502" 
d="M244 379h-12l-90 -193h139zM113 122q-17 -43 -17 -58t24 -20l22 -5v-39h-182l5 39l17 4q13 3 23.5 7.5t22 18t26.5 39.5t38 73l123 247l1 24l122 26l86 -405q2 -14 11 -19t26 -10l21 -5v-39h-239l5 39l23 4q12 2 19.5 5t10 10.5t1 21t-6.5 36.5l-6 32h-164z" />
    <glyph glyph-name="registered" unicode="&#xae;" horiz-adv-x="768" 
d="M733 313q0 -73 -27 -136.5t-74.5 -110.5t-111 -74.5t-136.5 -27.5q-72 0 -136 27.5t-111 74.5t-74.5 110.5t-27.5 136.5q0 72 27.5 136t74.5 111.5t111 75t136 27.5q73 0 136.5 -27.5t111 -75t74.5 -111.5t27 -136zM692 313q0 64 -24 120.5t-66 99t-98 67.5t-120 25
t-120 -25t-98 -67.5t-66 -99t-24 -120.5t24 -120.5t66 -99t98 -67t120 -24.5t120 24.5t98 67t66 99t24 120.5zM462 129l-22 41l-69 115l-31 2v-104q0 -10 14 -14l27 -6l2 -34h-167l3 34l28 6q14 4 14 14v261q0 11 -14 14l-28 7l-3 34h178q74 0 107.5 -28.5t33.5 -65.5
q0 -78 -89 -103l75 -113q9 -12 16 -15.5t13 -5.5l21 -5l3 -34h-112zM452 391q0 38 -24 56.5t-64 17.5l-24 -1v-142l35 -4q35 2 56 18.5t21 54.5z" />
    <glyph glyph-name="macron" unicode="&#xaf;" horiz-adv-x="400" 
d="M83 546l12 58h284l1 -58h-297z" />
    <glyph glyph-name="degree" unicode="&#xb0;" horiz-adv-x="410" 
d="M410 501q0 -39 -14.5 -73t-39 -59.5t-58 -40t-72.5 -14.5q-32 0 -60.5 10.5t-49.5 30t-33.5 47t-12.5 61.5q0 38 14.5 71.5t39 59t58 40t70.5 14.5q33 0 61.5 -10t50 -29t34 -46.5t12.5 -61.5zM360 491q0 50 -31.5 81t-81.5 31q-28 0 -51.5 -11t-40.5 -30.5t-27 -44.5
t-10 -52q0 -25 8.5 -45t23.5 -34.5t35.5 -22.5t43.5 -8q28 0 51.5 11t41 29.5t28 43t10.5 52.5z" />
    <glyph glyph-name="plusminus" unicode="&#xb1;" horiz-adv-x="768" 
d="M733 311q0 -72 -27.5 -135.5t-74.5 -111t-111 -74.5t-136 -27t-136 27t-111 74.5t-74.5 111t-27.5 135.5q0 73 27.5 137t74.5 111.5t111 75t136 27.5t136 -27.5t111 -75t74.5 -111.5t27.5 -137zM692 311q0 64 -24 121t-66 99.5t-98 67.5t-120 25t-120 -25t-98 -67.5
t-66 -99.5t-24 -121t24 -120.5t66 -99t98 -67t120 -24.5t120 24.5t98 67t66 99t24 120.5zM554 393q0 -28 -11.5 -51.5t-31.5 -40.5t-47 -26t-57 -9q-23 0 -43 3v-88q0 -10 14 -13l36 -7l2 -34h-175l2 34l29 7q13 3 13 13v262q0 10 -13 13l-29 8l-2 33h162q77 0 114 -28
t37 -76zM474 385q0 37 -23.5 57.5t-58.5 20.5h-28v-160q10 -2 17.5 -3t21.5 -1q32 0 51.5 22.5t19.5 63.5z" />
    <glyph glyph-name="acute" unicode="&#xb4;" horiz-adv-x="399" 
d="M208 515h-45l119 182h127z" />
    <glyph glyph-name="mu" unicode="&#xb5;" horiz-adv-x="578" 
d="M530 175l-37 -9q-17 -3 -20 -18l-12 -91l44 -5l1 -29q-21 -7 -48 -13.5t-57.5 -11.5t-63 -8t-63.5 -3q-113 0 -176 56.5t-63 156.5q0 53 21.5 103.5t60.5 88.5q38 38 89 61t116 23q39 0 75.5 -7t52.5 -12l74 18l-24 -172h-68l-21 109q-14 11 -38 17t-42 6
q-40 0 -71 -19.5t-53 -52.5t-33.5 -77.5t-11.5 -94.5q0 -47 13 -79.5t33 -52.5q16 -17 36.5 -24t42.5 -7q15 0 29.5 2.5t25.5 7.5l14 110q1 14 -18 18l-31 9l-2 39h229z" />
    <glyph glyph-name="paragraph" unicode="&#xb6;" 
d="M327 -32l38 280q-17 -2 -29.5 -3.5t-32.5 -1.5q-53 0 -97 13t-75.5 37t-48.5 57t-17 73q0 55 19.5 93.5t55 62.5t86 35t111.5 11h140l-86 -657h-64z" />
    <glyph glyph-name="periodcentered" unicode="&#xb7;" horiz-adv-x="232" 
d="M185 238q0 -31 -22 -54.5t-55 -23.5t-55.5 23t-22.5 55t22.5 54.5t55.5 22.5t55 -22.5t22 -54.5z" />
    <glyph glyph-name="cedilla" unicode="&#xb8;" horiz-adv-x="400" 
d="M17 -248q82 10 125 32t43 53q0 23 -18.5 35.5t-58.5 12.5q-36 0 -70 -7l3 24l130 119h50l-85 -75q59 -2 93 -24.5t34 -61.5q0 -28 -17.5 -51.5t-49 -41.5t-76 -28.5t-97.5 -13.5z" />
    <glyph glyph-name="ordmasculine" unicode="&#xba;" horiz-adv-x="351" 
d="M367 490q0 -38 -13 -75t-36.5 -66t-55.5 -46.5t-71 -17.5q-63 0 -96.5 41t-33.5 107q0 39 13 75.5t36.5 65.5t56 46.5t71.5 17.5q63 0 96 -41t33 -107zM287 525q0 32 -12 54.5t-37 22.5q-16 0 -30 -12.5t-25.5 -31.5t-19.5 -42t-12 -43q-9 -37 -9 -71q0 -33 12 -56.5
t36 -23.5q17 0 31.5 12.5t25.5 32t19 42.5t12 44q9 38 9 72z" />
    <glyph glyph-name="guillemotright" unicode="&#xbb;" 
d="M215 47l-9 21l164 157l-126 149l15 21l208 -144v-56zM3 37l-9 21l181 167l-140 159l13 21l214 -154v-56z" />
    <glyph glyph-name="onequarter" unicode="&#xbc;" horiz-adv-x="1032" 
d="M424 306l-8 58q-3 20 -10 32.5t-22.5 19t-41.5 8.5t-66 2h-40l-25 -184h28q24 0 41.5 3.5t26.5 22.5l25 51h46l-43 -187h-44l-2 47q-1 15 -11.5 21t-45.5 6h-25l-19 -141q-2 -14 14 -17l46 -9l-1 -39h-236l6 39l34 9q17 4 19 17l44 336q2 13 -15 17l-31 9l-3 39h440
l-20 -160h-61zM940 306l-8 58q-3 20 -10 32.5t-22.5 19t-41.5 8.5t-66 2h-40l-25 -184h28q24 0 41.5 3.5t26.5 22.5l25 51h46l-43 -187h-44l-2 47q-1 15 -11.5 21t-45.5 6h-25l-19 -141q-2 -14 14 -17l46 -9l-1 -39h-236l6 39l34 9q17 4 19 17l44 336q2 13 -14 17l-32 9
l-3 39h440l-20 -160h-61z" />
    <glyph glyph-name="onehalf" unicode="&#xbd;" horiz-adv-x="1354" 
d="M424 306l-8 58q-3 20 -10 32.5t-22.5 19t-41.5 8.5t-66 2h-40l-25 -184h28q24 0 41.5 3.5t26.5 22.5l25 51h46l-43 -187h-44l-2 47q-1 15 -11.5 21t-45.5 6h-25l-19 -141q-2 -14 14 -17l46 -9l-1 -39h-236l6 39l34 9q17 4 19 17l44 336q2 13 -15 17l-31 9l-3 39h440
l-20 -160h-61zM940 306l-8 58q-3 20 -10 32.5t-22.5 19t-41.5 8.5t-66 2h-40l-25 -184h28q24 0 41.5 3.5t26.5 22.5l25 51h46l-43 -187h-44l-2 47q-1 15 -11.5 21t-45.5 6h-25l-19 -141q-2 -14 14 -17l46 -9l-1 -39h-236l6 39l34 9q17 4 19 17l44 336q2 13 -14 17l-32 9
l-3 39h440l-20 -160h-61zM1046 0l4 39l42 9q17 3 19 17l44 336q2 14 -15 17l-39 9l-3 39h240l-4 -39l-42 -9q-17 -3 -19 -17l-44 -336q-2 -14 15 -17l39 -9l3 -39h-240z" />
    <glyph glyph-name="threequarters" unicode="&#xbe;" horiz-adv-x="1521" 
d="M424 306l-8 58q-3 20 -10 32.5t-22.5 19t-41.5 8.5t-66 2h-40l-25 -184h28q24 0 41.5 3.5t26.5 22.5l25 51h46l-43 -187h-44l-2 47q-1 15 -11.5 21t-45.5 6h-25l-19 -141q-2 -14 14 -17l46 -9l-1 -39h-236l6 39l34 9q17 4 19 17l44 336q2 13 -15 17l-31 9l-3 39h440
l-20 -160h-61zM940 306l-8 58q-3 20 -10 32.5t-22.5 19t-41.5 8.5t-66 2h-40l-25 -184h28q24 0 41.5 3.5t26.5 22.5l25 51h46l-43 -187h-44l-2 47q-1 15 -11.5 21t-45.5 6h-25l-19 -141q-2 -14 14 -17l46 -9l-1 -39h-236l6 39l34 9q17 4 19 17l44 336q2 13 -14 17l-32 9
l-3 39h440l-20 -160h-61zM1439 0h-393l3 39l34 9q17 4 19 17l44 336q2 13 -14 17l-32 9l-3 39h232l-3 -39l-43 -9q-17 -3 -19 -17l-47 -360h17q41 0 67 3t42.5 10.5t27 21t19.5 33.5l24 59h63z" />
    <glyph glyph-name="questiondown" unicode="&#xbf;" horiz-adv-x="388" 
d="M12 166q0 38 12.5 63.5t32.5 42.5t44.5 27.5t48.5 17.5q36 11 62.5 22.5t26.5 37.5q0 17 -9 33t-24 30l49 -1q10 -7 20.5 -17.5t18.5 -23.5t13.5 -28t5.5 -30q0 -29 -13 -49.5t-33.5 -34.5t-46 -23t-50.5 -16q-18 -5 -34.5 -10t-29 -10.5t-20 -12.5t-7.5 -16
q0 -14 11.5 -27.5t31 -23.5t46 -16t56.5 -6q18 0 34.5 2t29.5 4q15 -16 15 -39q0 -32 -25 -53t-74 -21q-39 0 -73.5 14t-61 38t-42 56.5t-15.5 69.5zM204 572q0 29 19.5 49.5t49.5 20.5q29 0 49.5 -20.5t20.5 -49.5q0 -28 -20.5 -48.5t-49.5 -20.5q-30 0 -49.5 20.5
t-19.5 48.5z" />
    <glyph glyph-name="Agrave" unicode="&#xc0;" horiz-adv-x="620" 
d="M304 0l3 41l39 6q27 4 30.5 20t-4.5 57l-14 84h-188l-17 -46q-21 -50 -18 -79t29 -34l36 -8l3 -41h-237l3 41l28 9q15 4 26 9.5t22.5 19t25 39t34.5 70.5l174 384v38l133 30l108 -549q4 -17 11 -26.5t27 -14.5l38 -9l3 -41h-295zM309 514h-8l-111 -257h160zM355 682
l-151 182h127l70 -182h-46z" />
    <glyph glyph-name="Aacute" unicode="&#xc1;" horiz-adv-x="620" 
d="M304 0l3 41l39 6q27 4 30.5 20t-4.5 57l-14 84h-188l-17 -46q-21 -50 -18 -79t29 -34l36 -8l3 -41h-237l3 41l28 9q15 4 26 9.5t22.5 19t25 39t34.5 70.5l174 384v38l133 30l108 -549q4 -17 11 -26.5t27 -14.5l38 -9l3 -41h-295zM309 514h-8l-111 -257h160zM343 682h-45
l119 182h127z" />
    <glyph glyph-name="Acircumflex" unicode="&#xc2;" horiz-adv-x="620" 
d="M304 0l3 41l39 6q27 4 30.5 20t-4.5 57l-14 84h-188l-17 -46q-21 -50 -18 -79t29 -34l36 -8l3 -41h-237l3 41l28 9q15 4 26 9.5t22.5 19t25 39t34.5 70.5l174 384v38l133 30l108 -549q4 -17 11 -26.5t27 -14.5l38 -9l3 -41h-295zM309 514h-8l-111 -257h160zM450 682
l-86 120h-2l-118 -120h-46l114 182h118l66 -182h-46z" />
    <glyph glyph-name="Atilde" unicode="&#xc3;" horiz-adv-x="620" 
d="M304 0l3 41l39 6q27 4 30.5 20t-4.5 57l-14 84h-188l-17 -46q-21 -50 -18 -79t29 -34l36 -8l3 -41h-237l3 41l28 9q15 4 26 9.5t22.5 19t25 39t34.5 70.5l174 384v38l133 30l108 -549q4 -17 11 -26.5t27 -14.5l38 -9l3 -41h-295zM309 514h-8l-111 -257h160zM544 825
q-17 -72 -47 -103.5t-74 -31.5q-22 0 -42.5 11t-39 24.5t-34.5 24.5t-30 11q-17 0 -27 -15t-26 -47h-43q17 72 46.5 103.5t73.5 31.5q23 0 42.5 -11t37.5 -24t34 -24t30 -11q16 0 28 14.5t29 46.5h42z" />
    <glyph glyph-name="Adieresis" unicode="&#xc4;" horiz-adv-x="620" 
d="M304 0l3 41l39 6q27 4 30.5 20t-4.5 57l-14 84h-188l-17 -46q-21 -50 -18 -79t29 -34l36 -8l3 -41h-237l3 41l28 9q15 4 26 9.5t22.5 19t25 39t34.5 70.5l174 384v38l133 30l108 -549q4 -17 11 -26.5t27 -14.5l38 -9l3 -41h-295zM309 514h-8l-111 -257h160zM530 773
q0 -28 -17 -48.5t-48 -20.5t-48 20.5t-17 48.5t17 49t48 21t48 -21t17 -49zM316 773q0 -28 -17 -48.5t-48 -20.5t-48.5 20.5t-17.5 48.5t17.5 49t48.5 21t48 -21t17 -49z" />
    <glyph glyph-name="Aring" unicode="&#xc5;" horiz-adv-x="620" 
d="M311 514h-10l-111 -260h159zM427 692q0 26 -17 47t-47 21t-47 -21t-17 -47t17 -46.5t47 -20.5t47 20.5t17 46.5zM298 615q-16 14 -25 34t-9 43q2 41 27.5 70.5t71.5 29.5t72 -29.5t26 -70.5q0 -26 -11 -48t-31 -35l101 -518q3 -17 10.5 -26.5t27.5 -14.5l38 -9l3 -41
h-295l3 41l39 6q27 4 30.5 20t-4.5 57l-14 84h-188l-17 -46q-21 -50 -18 -79t29 -34l36 -8l3 -41h-237l3 41l28 9q15 4 26 9.5t22 19.5t25 39.5t35 69.5z" />
    <glyph glyph-name="AE" unicode="&#xc6;" horiz-adv-x="875" 
d="M789 0h-523l6 39l51 11q23 5 26 24l20 148h-189l-31 -50q-20 -29 -31 -54t-11 -39t8.5 -21t21.5 -9l35 -8l3 -41h-236l3 41l28 9q15 5 27 11.5t25.5 20t30 36.5t40.5 60l219 345q14 23 8.5 36t-25.5 17l-47 10l-1 39h627l-27 -206h-69l-11 83q-3 27 -11 42.5t-28 23.5
t-56 10t-95 2h-31l-34 -242h11q42 0 63 5.5t32 26.5l34 68h51l-55 -242h-51l1 64q0 9 -3 15.5t-12 10.5t-26 5.5t-44 1.5h-7l-33 -248h35q61 0 98.5 2.5t61 10.5t36.5 23.5t25 41.5l34 74h72zM417 583h-7l-201 -315h166z" />
    <glyph glyph-name="Ccedilla" unicode="&#xc7;" horiz-adv-x="650" 
d="M307 -15q-65 5 -113.5 27t-80.5 59t-48 86.5t-16 108.5q0 72 30 142t84 124q48 48 112.5 77.5t140.5 29.5q21 0 43.5 -2.5t43 -6t37.5 -8t27 -8.5l86 23l-30 -223h-69l-23 144q-20 14 -45.5 23t-59.5 9q-48 0 -90 -26t-73.5 -72t-49.5 -107t-18 -132q0 -121 62 -181
q39 -39 103 -39q25 0 49.5 6.5t46.5 17.5l70 149h76l-47 -206l-60 12q-28 -11 -64 -18.5t-77 -9.5l-43 -38q59 -2 93 -24.5t34 -61.5q0 -28 -17.5 -51.5t-49 -41.5t-76 -28.5t-97.5 -13.5l-6 27q82 10 125 32t43 53q0 23 -18.5 35.5t-58.5 12.5q-36 0 -70 -7l3 24z" />
    <glyph glyph-name="Egrave" unicode="&#xc8;" horiz-adv-x="627" 
d="M539 0h-532l4 40l49 11q14 3 19 8.5t7 15.5l65 475q2 9 -2 15t-18 9l-46 11l-2 40h541l-27 -206h-69l-11 83q-3 27 -11 42.5t-28 23.5t-56 10t-95 2h-39l-34 -242h19q42 0 63 5.5t32 26.5l34 68h51l-55 -242h-51l1 64q0 9 -3 15.5t-12 10.5t-26 5.5t-44 1.5h-15l-33 -248
h43q61 0 98.5 2.5t61 10.5t36.5 23.5t25 41.5l34 74h72zM374 682l-151 182h127l70 -182h-46z" />
    <glyph glyph-name="Eacute" unicode="&#xc9;" horiz-adv-x="627" 
d="M539 0h-532l4 40l49 11q14 3 19 8.5t7 15.5l65 475q2 9 -2 15t-18 9l-46 11l-2 40h541l-27 -206h-69l-11 83q-3 27 -11 42.5t-28 23.5t-56 10t-95 2h-39l-34 -242h19q42 0 63 5.5t32 26.5l34 68h51l-55 -242h-51l1 64q0 9 -3 15.5t-12 10.5t-26 5.5t-44 1.5h-15l-33 -248
h43q61 0 98.5 2.5t61 10.5t36.5 23.5t25 41.5l34 74h72zM347 682h-45l119 182h127z" />
    <glyph glyph-name="Ecircumflex" unicode="&#xca;" horiz-adv-x="627" 
d="M539 0h-532l4 40l49 11q14 3 19 8.5t7 15.5l65 475q2 9 -2 15t-18 9l-46 11l-2 40h541l-27 -206h-69l-11 83q-3 27 -11 42.5t-28 23.5t-56 10t-95 2h-39l-34 -242h19q42 0 63 5.5t32 26.5l34 68h51l-55 -242h-51l1 64q0 9 -3 15.5t-12 10.5t-26 5.5t-44 1.5h-15l-33 -248
h43q61 0 98.5 2.5t61 10.5t36.5 23.5t25 41.5l34 74h72zM459 682l-86 120h-2l-118 -120h-46l114 182h118l66 -182h-46z" />
    <glyph glyph-name="Edieresis" unicode="&#xcb;" horiz-adv-x="627" 
d="M539 0h-532l4 40l49 11q14 3 19 8.5t7 15.5l65 475q2 9 -2 15t-18 9l-46 11l-2 40h541l-27 -206h-69l-11 83q-3 27 -11 42.5t-28 23.5t-56 10t-95 2h-39l-34 -242h19q42 0 63 5.5t32 26.5l34 68h51l-55 -242h-51l1 64q0 9 -3 15.5t-12 10.5t-26 5.5t-44 1.5h-15l-33 -248
h43q61 0 98.5 2.5t61 10.5t36.5 23.5t25 41.5l34 74h72zM544 773q0 -28 -17 -48.5t-48 -20.5t-48 20.5t-17 48.5t17 49t48 21t48 -21t17 -49zM330 773q0 -28 -17 -48.5t-48 -20.5t-48.5 20.5t-17.5 48.5t17.5 49t48.5 21t48 -21t17 -49z" />
    <glyph glyph-name="Igrave" unicode="&#xcc;" horiz-adv-x="373" 
d="M9 0l3 40l59 11q14 3 19 8.5t7 15.5l65 475q2 9 -2 15.5t-18 8.5l-56 11l-3 40h300l-3 -40l-60 -11q-23 -5 -26 -24l-64 -475q-3 -18 20 -24l56 -11l4 -40h-301zM232 682l-151 182h127l70 -182h-46z" />
    <glyph glyph-name="Iacute" unicode="&#xcd;" horiz-adv-x="373" 
d="M9 0l3 40l59 11q14 3 19 8.5t7 15.5l65 475q2 9 -2 15.5t-18 8.5l-56 11l-3 40h300l-3 -40l-60 -11q-23 -5 -26 -24l-64 -475q-3 -18 20 -24l56 -11l4 -40h-301zM260 682h-45l119 182h127z" />
    <glyph glyph-name="Icircumflex" unicode="&#xce;" horiz-adv-x="373" 
d="M9 0l3 40l59 11q14 3 19 8.5t7 15.5l65 475q2 9 -2 15.5t-18 8.5l-56 11l-3 40h300l-3 -40l-60 -11q-23 -5 -26 -24l-64 -475q-3 -18 20 -24l56 -11l4 -40h-301zM340 682l-86 120h-2l-118 -120h-46l114 182h118l66 -182h-46z" />
    <glyph glyph-name="Idieresis" unicode="&#xcf;" horiz-adv-x="373" 
d="M9 0l3 40l59 11q14 3 19 8.5t7 15.5l65 475q2 9 -2 15.5t-18 8.5l-56 11l-3 40h300l-3 -40l-60 -11q-23 -5 -26 -24l-64 -475q-3 -18 20 -24l56 -11l4 -40h-301zM418 773q0 -28 -17 -48.5t-48 -20.5t-48 20.5t-17 48.5t17 49t48 21t48 -21t17 -49zM204 773
q0 -28 -17 -48.5t-48 -20.5t-48.5 20.5t-17.5 48.5t17.5 49t48.5 21t48 -21t17 -49z" />
    <glyph glyph-name="Eth" unicode="&#xd0;" horiz-adv-x="686" 
d="M365 339l3 -46h-120l-1 -10q-1 -10 -3 -26.5t-5 -37t-6 -42.5q-7 -51 -16 -117l67 -15q50 2 93 23t74.5 59.5t50 94.5t18.5 128q0 51 -11 93t-34 72t-60 47t-88 17h-40l-32 -240h110zM44 293l3 46h74l29 211q2 9 -1.5 15t-18.5 9l-45 11l-3 40q77 1 137 1h129
q76 0 135 -20.5t99 -57t61 -87.5t21 -112q0 -72 -24.5 -131t-77.5 -112q-47 -48 -124.5 -77t-173.5 -29h-257l4 40l49 11q14 3 19 8.5t7 15.5l29 218h-71z" />
    <glyph glyph-name="Ntilde" unicode="&#xd1;" horiz-adv-x="715" 
d="M738 585l-48 -10q-12 -3 -21.5 -11.5t-17 -30t-14.5 -59t-15 -98.5l-53 -384h-97l-262 509h-7l-34 -252q-9 -61 -12.5 -99t-2 -59.5t7.5 -30t18 -10.5l52 -10l3 -40h-239l3 40l48 10q12 3 21 11.5t16.5 30.5t14.5 59.5t15 97.5l37 268q3 24 -1 38t-23 19l-43 11l-2 40
h209l238 -465h8l29 216q9 62 12.5 100t2.5 59.5t-7 29.5t-17 10l-54 10l-3 40h241zM587 825q-17 -72 -47 -103.5t-74 -31.5q-22 0 -42.5 11t-39 24.5t-34.5 24.5t-30 11q-17 0 -27 -15t-26 -47h-43q17 72 46.5 103.5t73.5 31.5q23 0 42.5 -11t37.5 -24t34 -24t30 -11
q16 0 28 14.5t29 46.5h42z" />
    <glyph glyph-name="Ograve" unicode="&#xd2;" horiz-adv-x="715" 
d="M686 348q0 -78 -29.5 -146.5t-81.5 -121.5q-45 -46 -104 -70.5t-129 -24.5q-64 0 -118 21.5t-93 60t-61 91.5t-22 117q0 73 24.5 137.5t70.5 114.5q47 51 110 81t140 30q64 0 118 -21.5t93 -60t60.5 -91.5t21.5 -117zM543 378q0 47 -11 94t-41 79q-19 17 -43 27.5
t-58 10.5q-37 0 -66.5 -17.5t-51.5 -46.5t-37 -66t-25 -75t-14.5 -74.5t-4.5 -65.5q0 -48 11 -94t42 -76q18 -18 42 -28.5t58 -10.5q37 0 66.5 17.5t51.5 46t37.5 65t25 75t14 75t4.5 64.5zM398 682l-151 182h127l70 -182h-46z" />
    <glyph glyph-name="Oacute" unicode="&#xd3;" horiz-adv-x="715" 
d="M686 348q0 -78 -29.5 -146.5t-81.5 -121.5q-45 -46 -104 -70.5t-129 -24.5q-64 0 -118 21.5t-93 60t-61 91.5t-22 117q0 73 24.5 137.5t70.5 114.5q47 51 110 81t140 30q64 0 118 -21.5t93 -60t60.5 -91.5t21.5 -117zM543 378q0 47 -11 94t-41 79q-19 17 -43 27.5
t-58 10.5q-37 0 -66.5 -17.5t-51.5 -46.5t-37 -66t-25 -75t-14.5 -74.5t-4.5 -65.5q0 -48 11 -94t42 -76q18 -18 42 -28.5t58 -10.5q37 0 66.5 17.5t51.5 46t37.5 65t25 75t14 75t4.5 64.5zM396 682h-45l119 182h127z" />
    <glyph glyph-name="Ocircumflex" unicode="&#xd4;" horiz-adv-x="715" 
d="M686 348q0 -78 -29.5 -146.5t-81.5 -121.5q-45 -46 -104 -70.5t-129 -24.5q-64 0 -118 21.5t-93 60t-61 91.5t-22 117q0 73 24.5 137.5t70.5 114.5q47 51 110 81t140 30q64 0 118 -21.5t93 -60t60.5 -91.5t21.5 -117zM543 378q0 47 -11 94t-41 79q-19 17 -43 27.5
t-58 10.5q-37 0 -66.5 -17.5t-51.5 -46.5t-37 -66t-25 -75t-14.5 -74.5t-4.5 -65.5q0 -48 11 -94t42 -76q18 -18 42 -28.5t58 -10.5q37 0 66.5 17.5t51.5 46t37.5 65t25 75t14 75t4.5 64.5zM517 682l-86 120h-2l-118 -120h-46l114 182h118l66 -182h-46z" />
    <glyph glyph-name="Otilde" unicode="&#xd5;" horiz-adv-x="715" 
d="M686 348q0 -78 -29.5 -146.5t-81.5 -121.5q-45 -46 -104 -70.5t-129 -24.5q-64 0 -118 21.5t-93 60t-61 91.5t-22 117q0 73 24.5 137.5t70.5 114.5q47 51 110 81t140 30q64 0 118 -21.5t93 -60t60.5 -91.5t21.5 -117zM543 378q0 47 -11 94t-41 79q-19 17 -43 27.5
t-58 10.5q-37 0 -66.5 -17.5t-51.5 -46.5t-37 -66t-25 -75t-14.5 -74.5t-4.5 -65.5q0 -48 11 -94t42 -76q18 -18 42 -28.5t58 -10.5q37 0 66.5 17.5t51.5 46t37.5 65t25 75t14 75t4.5 64.5zM596 825q-17 -72 -47 -103.5t-74 -31.5q-22 0 -42.5 11t-39 24.5t-34.5 24.5
t-30 11q-17 0 -27 -15t-26 -47h-43q17 72 46.5 103.5t73.5 31.5q23 0 42.5 -11t37.5 -24t34 -24t30 -11q16 0 28 14.5t29 46.5h42z" />
    <glyph glyph-name="Odieresis" unicode="&#xd6;" horiz-adv-x="715" 
d="M686 348q0 -78 -29.5 -146.5t-81.5 -121.5q-45 -46 -104 -70.5t-129 -24.5q-64 0 -118 21.5t-93 60t-61 91.5t-22 117q0 73 24.5 137.5t70.5 114.5q47 51 110 81t140 30q64 0 118 -21.5t93 -60t60.5 -91.5t21.5 -117zM543 378q0 47 -11 94t-41 79q-19 17 -43 27.5
t-58 10.5q-37 0 -66.5 -17.5t-51.5 -46.5t-37 -66t-25 -75t-14.5 -74.5t-4.5 -65.5q0 -48 11 -94t42 -76q18 -18 42 -28.5t58 -10.5q37 0 66.5 17.5t51.5 46t37.5 65t25 75t14 75t4.5 64.5zM587 773q0 -28 -17 -48.5t-48 -20.5t-48 20.5t-17 48.5t17 49t48 21t48 -21t17 -49
zM373 773q0 -28 -17 -48.5t-48 -20.5t-48.5 20.5t-17.5 48.5t17.5 49t48.5 21t48 -21t17 -49z" />
    <glyph glyph-name="multiply" unicode="&#xd7;" horiz-adv-x="486" 
d="M413 103l-168 169l-169 -169l-37 37l169 169l-169 168l37 37l169 -169l169 170l37 -37l-170 -169l169 -169z" />
    <glyph glyph-name="Oslash" unicode="&#xd8;" horiz-adv-x="715" 
d="M255 68q19 -16 41.5 -26t54.5 -10q37 0 66.5 17.5t51.5 46.5t38 66t25.5 75.5t14.5 75t5 65.5q0 38 -8 75.5t-26 66.5zM492 555q-34 37 -96 37q-37 0 -66.5 -18t-52 -47t-38 -66t-25.5 -75.5t-14.5 -75.5t-4.5 -66q0 -38 7.5 -75.5t26.5 -66.5zM186 28
q-61 38 -96.5 101.5t-34.5 145.5q0 73 24 137.5t70 114.5q47 51 110 81t140 30q68 0 126 -25l44 75h47q-15 -27 -27 -47q-11 -17 -19.5 -31.5t-8.5 -15.5q61 -37 96.5 -100.5t34.5 -145.5q0 -78 -29.5 -146.5t-81.5 -121.5q-45 -46 -104 -70.5t-129 -24.5q-35 0 -66.5 6
t-59.5 19l-49 -84h-46z" />
    <glyph glyph-name="Ugrave" unicode="&#xd9;" horiz-adv-x="708" 
d="M737 585l-48 -10q-12 -3 -21 -11.5t-16.5 -30t-14.5 -59t-16 -98.5l-24 -170q-9 -58 -32 -101t-57.5 -71t-78.5 -41.5t-95 -13.5q-52 0 -95.5 12.5t-75 38t-49.5 63.5t-18 89q0 30 3 55l43 313q2 9 -2 15t-18 9l-45 11l-3 40h280l-3 -40l-50 -11q-23 -6 -26 -24l-43 -313
q-2 -13 -3.5 -27.5t-1.5 -32.5q0 -63 39.5 -98t105.5 -35q35 0 63.5 9.5t50 30.5t36.5 55t22 84l22 153q9 62 12.5 100t2 59t-7.5 29.5t-18 10.5l-52 10l-3 40h240zM425 682l-151 182h127l70 -182h-46z" />
    <glyph glyph-name="Uacute" unicode="&#xda;" horiz-adv-x="708" 
d="M737 585l-48 -10q-12 -3 -21 -11.5t-16.5 -30t-14.5 -59t-16 -98.5l-24 -170q-9 -58 -32 -101t-57.5 -71t-78.5 -41.5t-95 -13.5q-52 0 -95.5 12.5t-75 38t-49.5 63.5t-18 89q0 30 3 55l43 313q2 9 -2 15t-18 9l-45 11l-3 40h280l-3 -40l-50 -11q-23 -6 -26 -24l-43 -313
q-2 -13 -3.5 -27.5t-1.5 -32.5q0 -63 39.5 -98t105.5 -35q35 0 63.5 9.5t50 30.5t36.5 55t22 84l22 153q9 62 12.5 100t2 59t-7.5 29.5t-18 10.5l-52 10l-3 40h240zM428 682h-45l119 182h127z" />
    <glyph glyph-name="Ucircumflex" unicode="&#xdb;" horiz-adv-x="708" 
d="M737 585l-48 -10q-12 -3 -21 -11.5t-16.5 -30t-14.5 -59t-16 -98.5l-24 -170q-9 -58 -32 -101t-57.5 -71t-78.5 -41.5t-95 -13.5q-52 0 -95.5 12.5t-75 38t-49.5 63.5t-18 89q0 30 3 55l43 313q2 9 -2 15t-18 9l-45 11l-3 40h280l-3 -40l-50 -11q-23 -6 -26 -24l-43 -313
q-2 -13 -3.5 -27.5t-1.5 -32.5q0 -63 39.5 -98t105.5 -35q35 0 63.5 9.5t50 30.5t36.5 55t22 84l22 153q9 62 12.5 100t2 59t-7.5 29.5t-18 10.5l-52 10l-3 40h240zM528 682l-86 120h-2l-118 -120h-46l114 182h118l66 -182h-46z" />
    <glyph glyph-name="Udieresis" unicode="&#xdc;" horiz-adv-x="708" 
d="M737 585l-48 -10q-12 -3 -21 -11.5t-16.5 -30t-14.5 -59t-16 -98.5l-24 -170q-9 -58 -32 -101t-57.5 -71t-78.5 -41.5t-95 -13.5q-52 0 -95.5 12.5t-75 38t-49.5 63.5t-18 89q0 30 3 55l43 313q2 9 -2 15t-18 9l-45 11l-3 40h280l-3 -40l-50 -11q-23 -6 -26 -24l-43 -313
q-2 -13 -3.5 -27.5t-1.5 -32.5q0 -63 39.5 -98t105.5 -35q35 0 63.5 9.5t50 30.5t36.5 55t22 84l22 153q9 62 12.5 100t2 59t-7.5 29.5t-18 10.5l-52 10l-3 40h240zM584 773q0 -28 -17 -48.5t-48 -20.5t-48 20.5t-17 48.5t17 49t48 21t48 -21t17 -49zM370 773
q0 -28 -17 -48.5t-48 -20.5t-48.5 20.5t-17.5 48.5t17.5 49t48.5 21t48 -21t17 -49z" />
    <glyph glyph-name="Yacute" unicode="&#xdd;" horiz-adv-x="597" 
d="M655 584l-24 -7q-13 -3 -24.5 -8t-25 -16t-29.5 -30t-38 -51l-144 -209l-24 -188q-3 -20 20 -24l59 -11l-1 -40h-307l6 40l64 11q13 2 18.5 8.5t7.5 15.5l24 182l-122 265q-13 25 -24 36t-29 16l-30 10l-3 41h287l-3 -41l-40 -6q-27 -4 -26.5 -27t20.5 -71l71 -174h8
l115 173q32 47 33 69.5t-30 28.5l-36 7l-3 41h233zM372 682h-45l119 182h127z" />
    <glyph glyph-name="Thorn" unicode="&#xde;" horiz-adv-x="588" 
d="M568 327q0 -48 -21.5 -85.5t-59 -63.5t-87 -39.5t-106.5 -13.5q-17 0 -34 1t-33 3l-8 -54q-3 -21 20 -24l62 -11l2 -40h-296l4 40l49 11q14 3 19 8.5t7 15.5l65 475q2 9 -1.5 15t-18.5 9l-45 11l-3 40h280l-3 -40l-50 -11q-23 -6 -26 -24l-6 -47h54q53 0 96.5 -12
t74.5 -34.5t48 -55.5t17 -74zM432 322q0 31 -10 56.5t-28 43.5t-42 27.5t-51 9.5h-29l-39 -286q24 -6 48 -6q67 0 109 40.5t42 114.5z" />
    <glyph glyph-name="germandbls" unicode="&#xdf;" horiz-adv-x="924" 
d="M400 139q0 -33 -14 -60.5t-39.5 -47.5t-62.5 -31.5t-82 -11.5q-57 0 -98.5 6.5t-76.5 15.5l16 149h62l24 -114q17 -6 33.5 -9.5t39.5 -3.5q45 0 69 20.5t24 50.5t-26 49t-73 41q-23 11 -46 24t-41.5 29.5t-30 38.5t-11.5 52q0 59 50.5 98.5t142.5 40.5q38 0 66.5 -4
t63.5 -11l44 11l-21 -156h-57l-25 104q-16 5 -36.5 9.5t-41.5 4.5q-40 0 -60.5 -16.5t-20.5 -42.5q0 -33 27 -53t78 -45q22 -11 44 -24t39.5 -29.5t28.5 -37t11 -47.5zM862 139q0 -33 -14 -60.5t-39.5 -47.5t-62.5 -31.5t-82 -11.5q-57 0 -98.5 6.5t-76.5 15.5l16 149h62
l24 -114q17 -6 33.5 -9.5t39.5 -3.5q45 0 69 20.5t24 50.5t-26 49t-73 41q-23 11 -46 24t-41 29.5t-29.5 38.5t-11.5 52q0 59 50 98.5t142 40.5q38 0 66.5 -4t63.5 -11l44 11l-21 -156h-57l-25 104q-16 5 -36.5 9.5t-41.5 4.5q-40 0 -60.5 -16.5t-20.5 -42.5q0 -33 27 -53
t78 -45q22 -11 44 -24t39.5 -29.5t28.5 -37t11 -47.5z" />
    <glyph glyph-name="agrave" unicode="&#xe0;" horiz-adv-x="502" 
d="M286 515l-151 182h127l70 -182h-46zM244 379h-12l-90 -193h139zM113 122q-17 -43 -17 -58t24 -20l22 -5v-39h-182l5 39l17 4q13 3 23.5 7.5t22 18t26.5 39.5t38 73l123 247l1 24l122 26l86 -405q2 -14 11 -19t26 -10l21 -5v-39h-239l5 39l23 4q12 2 19.5 5t10 10.5t1 21
t-6.5 36.5l-6 32h-164z" />
    <glyph glyph-name="aacute" unicode="&#xe1;" horiz-adv-x="502" 
d="M244 379h-12l-90 -193h139zM113 122q-17 -43 -17 -58t24 -20l22 -5v-39h-182l5 39l17 4q13 3 23.5 7.5t22 18t26.5 39.5t38 73l123 247l1 24l122 26l86 -405q2 -14 11 -19t26 -10l21 -5v-39h-239l5 39l23 4q12 2 19.5 5t10 10.5t1 21t-6.5 36.5l-6 32h-164zM274 515h-45
l119 182h127z" />
    <glyph glyph-name="acircumflex" unicode="&#xe2;" horiz-adv-x="502" 
d="M244 379h-12l-90 -193h139zM113 122q-17 -43 -17 -58t24 -20l22 -5v-39h-182l5 39l17 4q13 3 23.5 7.5t22 18t26.5 39.5t38 73l123 247l1 24l122 26l86 -405q2 -14 11 -19t26 -10l21 -5v-39h-239l5 39l23 4q12 2 19.5 5t10 10.5t1 21t-6.5 36.5l-6 32h-164zM381 515
l-86 120h-2l-118 -120h-46l114 182h118l66 -182h-46z" />
    <glyph glyph-name="atilde" unicode="&#xe3;" horiz-adv-x="502" 
d="M244 379h-12l-90 -193h139zM113 122q-17 -43 -17 -58t24 -20l22 -5v-39h-182l5 39l17 4q13 3 23.5 7.5t22 18t26.5 39.5t38 73l123 247l1 24l122 26l86 -405q2 -14 11 -19t26 -10l21 -5v-39h-239l5 39l23 4q12 2 19.5 5t10 10.5t1 21t-6.5 36.5l-6 32h-164zM470 658
q-17 -72 -47 -103.5t-74 -31.5q-22 0 -42.5 11t-39 24.5t-34.5 24.5t-30 11q-17 0 -27 -15t-26 -47h-43q17 72 46.5 103.5t73.5 31.5q23 0 42.5 -11t37.5 -24t34 -24t30 -11q16 0 28 14.5t29 46.5h42z" />
    <glyph glyph-name="adieresis" unicode="&#xe4;" horiz-adv-x="502" 
d="M244 379h-12l-90 -193h139zM113 122q-17 -43 -17 -58t24 -20l22 -5v-39h-182l5 39l17 4q13 3 23.5 7.5t22 18t26.5 39.5t38 73l123 247l1 24l122 26l86 -405q2 -14 11 -19t26 -10l21 -5v-39h-239l5 39l23 4q12 2 19.5 5t10 10.5t1 21t-6.5 36.5l-6 32h-164zM471 606
q0 -28 -17 -48.5t-48 -20.5t-48 20.5t-17 48.5t17 49t48 21t48 -21t17 -49zM257 606q0 -28 -17 -48.5t-48 -20.5t-48.5 20.5t-17.5 48.5t17.5 49t48.5 21t48 -21t17 -49z" />
    <glyph glyph-name="aring" unicode="&#xe5;" horiz-adv-x="502" 
d="M244 379h-12l-90 -193h139zM357 532q0 26 -17 47t-47 21t-47 -21t-17 -47t17 -46.5t47 -20.5t47 20.5t17 46.5zM424 73q2 -14 11 -19t26 -10l21 -5v-39h-239l5 39l23 4q12 2 19.5 5t10 10.5t1 21t-6.5 36.5l-6 32h-164l-12 -26q-17 -43 -17 -58t24 -20l22 -5v-39h-182
l5 39l17 4q13 3 23.5 7.5t21.5 18t26 40t39 72.5l136 274q-17 14 -25.5 34t-8.5 43q2 41 27.5 70.5t71.5 29.5t72 -29.5t26 -70.5q0 -27 -12 -50t-34 -36z" />
    <glyph glyph-name="ae" unicode="&#xe6;" horiz-adv-x="760" 
d="M675 0h-434l6 39l35 9q17 3 19 17l11 86h-160l-16 -21q-20 -26 -28 -44t-8 -26q0 -13 16 -16l28 -5l3 -39h-187l4 39l19 5q12 3 22.5 8t25.5 18.5t36 39.5t52 71l139 193q13 20 11 31t-25 16l-31 6l-3 39h531l-21 -160h-61l-8 58q-3 21 -10 33t-22.5 18.5t-41 8.5
t-65.5 2h-49l-23 -174h26q25 0 42 5t25 21l26 52h45l-43 -187h-44l-2 47q-1 15 -11.5 21t-45.5 6l-22 1l-24 -179l50 1q40 0 66.5 2t44.5 9t29 19t20 32l22 55h66zM348 424h-8l-163 -235h140z" />
    <glyph glyph-name="ccedilla" unicode="&#xe7;" horiz-adv-x="564" 
d="M228 -11q-91 9 -142 64.5t-51 146.5q0 52 21.5 103t59.5 89t89 61t117 23q39 0 75.5 -7t52.5 -12l74 18l-24 -172h-68l-21 109q-14 11 -38 17t-42 6q-40 0 -71 -19.5t-53 -52.5t-33.5 -77.5t-11.5 -94.5q0 -48 13 -79.5t33 -51.5q17 -17 38.5 -24t42.5 -7q17 0 36.5 4
t33.5 12l58 113h70l-35 -158l-51 10q-20 -8 -54 -14.5t-72 -8.5l-47 -41q59 -2 93 -24.5t34 -61.5q0 -28 -17.5 -51.5t-49 -41.5t-76 -28.5t-97.5 -13.5l-6 27q82 10 125 32t43 53q0 23 -18.5 35.5t-58.5 12.5q-36 0 -70 -7l3 24z" />
    <glyph glyph-name="egrave" unicode="&#xe8;" horiz-adv-x="532" 
d="M312 515l-151 182h127l70 -182h-46zM447 0h-436l6 39l34 9q17 4 19 17l44 336q2 13 -15 17l-31 9l-3 39h448l-21 -160h-61l-8 58q-3 21 -10 33t-22.5 18.5t-41 8.5t-65.5 2h-49l-22 -174h25q24 0 41.5 5t25.5 21l26 52h45l-43 -187h-44l-2 47q-1 15 -11.5 21t-45.5 6h-22
l-23 -177h49q40 0 66.5 2t44.5 9t29 19t20 32l22 55h66z" />
    <glyph glyph-name="eacute" unicode="&#xe9;" horiz-adv-x="532" 
d="M447 0h-436l6 39l34 9q17 4 19 17l44 336q2 13 -15 17l-31 9l-3 39h448l-21 -160h-61l-8 58q-3 21 -10 33t-22.5 18.5t-41 8.5t-65.5 2h-49l-22 -174h25q24 0 41.5 5t25.5 21l26 52h45l-43 -187h-44l-2 47q-1 15 -11.5 21t-45.5 6h-22l-23 -177h49q40 0 66.5 2t44.5 9
t29 19t20 32l22 55h66zM305 515h-45l119 182h127z" />
    <glyph glyph-name="ecircumflex" unicode="&#xea;" horiz-adv-x="532" 
d="M447 0h-436l6 39l34 9q17 4 19 17l44 336q2 13 -15 17l-31 9l-3 39h448l-21 -160h-61l-8 58q-3 21 -10 33t-22.5 18.5t-41 8.5t-65.5 2h-49l-22 -174h25q24 0 41.5 5t25.5 21l26 52h45l-43 -187h-44l-2 47q-1 15 -11.5 21t-45.5 6h-22l-23 -177h49q40 0 66.5 2t44.5 9
t29 19t20 32l22 55h66zM406 515l-86 120h-2l-118 -120h-46l114 182h118l66 -182h-46z" />
    <glyph glyph-name="edieresis" unicode="&#xeb;" horiz-adv-x="532" 
d="M447 0h-436l6 39l34 9q17 4 19 17l44 336q2 13 -15 17l-31 9l-3 39h448l-21 -160h-61l-8 58q-3 21 -10 33t-22.5 18.5t-41 8.5t-65.5 2h-49l-22 -174h25q24 0 41.5 5t25.5 21l26 52h45l-43 -187h-44l-2 47q-1 15 -11.5 21t-45.5 6h-22l-23 -177h49q40 0 66.5 2t44.5 9
t29 19t20 32l22 55h66zM486 606q0 -28 -17 -48.5t-48 -20.5t-48 20.5t-17 48.5t17 49t48 21t48 -21t17 -49zM272 606q0 -28 -17 -48.5t-48 -20.5t-48.5 20.5t-17.5 48.5t17.5 49t48.5 21t48 -21t17 -49z" />
    <glyph glyph-name="igrave" unicode="&#xec;" horiz-adv-x="322" 
d="M186 515l-151 182h127l70 -182h-46zM13 0l5 39l41 9q17 3 19 17l44 336q2 14 -14 17l-39 9l-4 39h241l-4 -39l-42 -9q-17 -3 -19 -17l-44 -336q-2 -14 15 -17l39 -9l3 -39h-241z" />
    <glyph glyph-name="iacute" unicode="&#xed;" horiz-adv-x="322" 
d="M194 515h-45l119 182h127zM13 0l5 39l41 9q17 3 19 17l44 336q2 14 -14 17l-39 9l-4 39h241l-4 -39l-42 -9q-17 -3 -19 -17l-44 -336q-2 -14 15 -17l39 -9l3 -39h-241z" />
    <glyph glyph-name="icircumflex" unicode="&#xee;" horiz-adv-x="322" 
d="M13 0l5 39l41 9q17 3 19 17l44 336q2 14 -14 17l-39 9l-4 39h241l-4 -39l-42 -9q-17 -3 -19 -17l-44 -336q-2 -14 15 -17l39 -9l3 -39h-241zM291 515l-86 120h-2l-118 -120h-46l114 182h118l66 -182h-46z" />
    <glyph glyph-name="idieresis" unicode="&#xef;" horiz-adv-x="322" 
d="M371 606q0 -28 -17 -48.5t-48 -20.5t-48 20.5t-17 48.5t17 49t48 21t48 -21t17 -49zM157 606q0 -28 -17 -48.5t-48 -20.5t-48.5 20.5t-17.5 48.5t17.5 49t48.5 21t48 -21t17 -49zM13 0l5 39l41 9q17 3 19 17l44 336q2 14 -14 17l-39 9l-4 39h241l-4 -39l-42 -9
q-17 -3 -19 -17l-44 -336q-2 -14 15 -17l39 -9l3 -39h-241z" />
    <glyph glyph-name="eth" unicode="&#xf0;" horiz-adv-x="584" 
d="M324 260l3 -46h-105l-21 -159l52 -14q38 -1 69 14.5t53.5 44t35 68.5t12.5 89q0 77 -39 123t-107 46h-27l-22 -166h96zM37 214l3 46h71l18 141q2 13 -15 17l-31 9l-3 39l225 1q58 1 103.5 -15t77.5 -44t49 -66.5t17 -82.5q0 -47 -20 -93.5t-58 -83.5q-39 -38 -98.5 -60
t-135.5 -22h-214l6 39l34 9q17 4 19 17q6 42 10 75q4 28 7 51t2 23h-67z" />
    <glyph glyph-name="ntilde" unicode="&#xf1;" horiz-adv-x="597" 
d="M588 427l-34 -8q-8 -2 -14 -7.5t-11.5 -20.5t-10.5 -42.5t-11 -72.5l-38 -281h-106l-196 357h-13l-20 -162q-6 -45 -8 -72t-0.5 -42t6.5 -21t12 -8l38 -8l3 -39h-179l3 39l33 8q9 2 15 7.5t11.5 20.5t10.5 42t11 73l25 191q3 28 -17 36l-30 10l-4 39h179l188 -343h13
l19 153q6 44 8 71.5t0.5 42.5t-6 21t-12.5 8l-37 8l-3 39h178zM517 658q-17 -72 -47 -103.5t-74 -31.5q-22 0 -42.5 11t-39 24.5t-34.5 24.5t-30 11q-17 0 -27 -15t-26 -47h-43q17 72 46.5 103.5t73.5 31.5q23 0 42.5 -11t37.5 -24t34 -24t30 -11q16 0 28 14.5t29 46.5h42z
" />
    <glyph glyph-name="ograve" unicode="&#xf2;" horiz-adv-x="564" 
d="M312 515l-151 182h127l70 -182h-46zM528 262q0 -60 -23 -111.5t-64 -91.5q-35 -34 -80.5 -53.5t-98.5 -19.5q-49 0 -90.5 16.5t-71.5 45t-47 68.5t-17 86q0 56 18.5 106t56.5 88q37 38 85.5 60t105.5 22q48 0 89.5 -16.5t72 -45t47.5 -68t17 -86.5zM402 288q0 34 -7.5 67
t-26.5 52q-21 26 -65 26q-40 0 -67 -28t-43.5 -68t-24 -85t-7.5 -78q0 -35 8 -67.5t27 -52.5q22 -24 65 -24q40 0 67 28t43.5 68t23.5 84.5t7 77.5z" />
    <glyph glyph-name="oacute" unicode="&#xf3;" horiz-adv-x="564" 
d="M528 262q0 -60 -23 -111.5t-64 -91.5q-35 -34 -80.5 -53.5t-98.5 -19.5q-49 0 -90.5 16.5t-71.5 45t-47 68.5t-17 86q0 56 18.5 106t56.5 88q37 38 85.5 60t105.5 22q48 0 89.5 -16.5t72 -45t47.5 -68t17 -86.5zM402 288q0 34 -7.5 67t-26.5 52q-21 26 -65 26
q-40 0 -67 -28t-43.5 -68t-24 -85t-7.5 -78q0 -35 8 -67.5t27 -52.5q22 -24 65 -24q40 0 67 28t43.5 68t23.5 84.5t7 77.5zM315 515h-45l119 182h127z" />
    <glyph glyph-name="ocircumflex" unicode="&#xf4;" horiz-adv-x="564" 
d="M528 262q0 -60 -23 -111.5t-64 -91.5q-35 -34 -80.5 -53.5t-98.5 -19.5q-49 0 -90.5 16.5t-71.5 45t-47 68.5t-17 86q0 56 18.5 106t56.5 88q37 38 85.5 60t105.5 22q48 0 89.5 -16.5t72 -45t47.5 -68t17 -86.5zM402 288q0 34 -7.5 67t-26.5 52q-21 26 -65 26
q-40 0 -67 -28t-43.5 -68t-24 -85t-7.5 -78q0 -35 8 -67.5t27 -52.5q22 -24 65 -24q40 0 67 28t43.5 68t23.5 84.5t7 77.5zM412 515l-86 120h-2l-118 -120h-46l114 182h118l66 -182h-46z" />
    <glyph glyph-name="otilde" unicode="&#xf5;" horiz-adv-x="564" 
d="M528 262q0 -60 -23 -111.5t-64 -91.5q-35 -34 -80.5 -53.5t-98.5 -19.5q-49 0 -90.5 16.5t-71.5 45t-47 68.5t-17 86q0 56 18.5 106t56.5 88q37 38 85.5 60t105.5 22q48 0 89.5 -16.5t72 -45t47.5 -68t17 -86.5zM402 288q0 34 -7.5 67t-26.5 52q-21 26 -65 26
q-40 0 -67 -28t-43.5 -68t-24 -85t-7.5 -78q0 -35 8 -67.5t27 -52.5q22 -24 65 -24q40 0 67 28t43.5 68t23.5 84.5t7 77.5zM506 658q-17 -72 -47 -103.5t-74 -31.5q-22 0 -42.5 11t-39 24.5t-34.5 24.5t-30 11q-17 0 -27 -15t-26 -47h-43q17 72 46.5 103.5t73.5 31.5
q23 0 42.5 -11t37.5 -24t34 -24t30 -11q16 0 28 14.5t29 46.5h42z" />
    <glyph glyph-name="odieresis" unicode="&#xf6;" horiz-adv-x="564" 
d="M528 262q0 -60 -23 -111.5t-64 -91.5q-35 -34 -80.5 -53.5t-98.5 -19.5q-49 0 -90.5 16.5t-71.5 45t-47 68.5t-17 86q0 56 18.5 106t56.5 88q37 38 85.5 60t105.5 22q48 0 89.5 -16.5t72 -45t47.5 -68t17 -86.5zM402 288q0 34 -7.5 67t-26.5 52q-21 26 -65 26
q-40 0 -67 -28t-43.5 -68t-24 -85t-7.5 -78q0 -35 8 -67.5t27 -52.5q22 -24 65 -24q40 0 67 28t43.5 68t23.5 84.5t7 77.5zM507 606q0 -28 -17 -48.5t-48 -20.5t-48 20.5t-17 48.5t17 49t48 21t48 -21t17 -49zM293 606q0 -28 -17 -48.5t-48 -20.5t-48.5 20.5t-17.5 48.5
t17.5 49t48.5 21t48 -21t17 -49z" />
    <glyph glyph-name="divide" unicode="&#xf7;" horiz-adv-x="486" 
d="M41 283l3 54h399l3 -54h-405zM296 169q0 -20 -14 -36t-37 -16t-37.5 16t-14.5 36t14.5 35.5t37.5 15.5t37 -15.5t14 -35.5zM296 449q0 -20 -14.5 -36t-37.5 -16t-37 16t-14 36t14 36t37 16t37.5 -16t14.5 -36z" />
    <glyph glyph-name="oslash" unicode="&#xf8;" horiz-adv-x="560" 
d="M187 66l9 -12q22 -24 65 -24q40 0 67 28t43.5 68t23.5 84.5t7 77.5q0 17 -1.5 34.5t-6.5 33.5zM377 396q-6 8 -9 11q-21 26 -65 26q-40 0 -67 -28t-43.5 -68t-24 -85t-7.5 -78q0 -34 8 -68zM117 33q-38 29 -59.5 72.5t-21.5 96.5q0 56 18.5 106t56.5 88q37 38 85.5 60
t105.5 22q63 0 114 -28l45 63h45q-16 -23 -29 -41q-11 -16 -20.5 -28.5t-9.5 -13.5q38 -29 59.5 -72t21.5 -96q0 -60 -23 -111.5t-64 -91.5q-35 -34 -80.5 -53.5t-98.5 -19.5q-32 0 -60 7t-53 20l-49 -68h-46z" />
    <glyph glyph-name="ugrave" unicode="&#xf9;" horiz-adv-x="569" 
d="M330 515l-151 182h127l70 -182h-46zM570 427l-34 -8q-8 -2 -14 -6t-11.5 -18.5t-10.5 -42t-12 -77.5l-17 -122q-11 -79 -61 -124t-139 -45q-91 0 -144.5 39.5t-53.5 114.5q0 9 0.5 16t1.5 15l32 232q2 13 -14 17l-32 9l-3 39h225l-3 -39l-36 -9q-17 -4 -19 -17l-29 -215
q-2 -10 -3 -19t-1 -22q0 -55 31 -80t83 -25q49 0 82 30.5t42 97.5l15 108q6 45 8 72t0.5 42t-6 21t-12.5 8l-37 8l-3 39h178z" />
    <glyph glyph-name="uacute" unicode="&#xfa;" horiz-adv-x="569" 
d="M570 427l-34 -8q-8 -2 -14 -6t-11.5 -18.5t-10.5 -42t-12 -77.5l-17 -122q-11 -79 -61 -124t-139 -45q-91 0 -144.5 39.5t-53.5 114.5q0 9 0.5 16t1.5 15l32 232q2 13 -14 17l-32 9l-3 39h225l-3 -39l-36 -9q-17 -4 -19 -17l-29 -215q-2 -10 -3 -19t-1 -22q0 -55 31 -80
t83 -25q49 0 82 30.5t42 97.5l15 108q6 45 8 72t0.5 42t-6 21t-12.5 8l-37 8l-3 39h178zM341 515h-45l119 182h127z" />
    <glyph glyph-name="ucircumflex" unicode="&#xfb;" horiz-adv-x="569" 
d="M570 427l-34 -8q-8 -2 -14 -6t-11.5 -18.5t-10.5 -42t-12 -77.5l-17 -122q-11 -79 -61 -124t-139 -45q-91 0 -144.5 39.5t-53.5 114.5q0 9 0.5 16t1.5 15l32 232q2 13 -14 17l-32 9l-3 39h225l-3 -39l-36 -9q-17 -4 -19 -17l-29 -215q-2 -10 -3 -19t-1 -22q0 -55 31 -80
t83 -25q49 0 82 30.5t42 97.5l15 108q6 45 8 72t0.5 42t-6 21t-12.5 8l-37 8l-3 39h178zM425 515l-86 120h-2l-118 -120h-46l114 182h118l66 -182h-46z" />
    <glyph glyph-name="udieresis" unicode="&#xfc;" horiz-adv-x="569" 
d="M570 427l-34 -8q-8 -2 -14 -6t-11.5 -18.5t-10.5 -42t-12 -77.5l-17 -122q-11 -79 -61 -124t-139 -45q-91 0 -144.5 39.5t-53.5 114.5q0 9 0.5 16t1.5 15l32 232q2 13 -14 17l-32 9l-3 39h225l-3 -39l-36 -9q-17 -4 -19 -17l-29 -215q-2 -10 -3 -19t-1 -22q0 -55 31 -80
t83 -25q49 0 82 30.5t42 97.5l15 108q6 45 8 72t0.5 42t-6 21t-12.5 8l-37 8l-3 39h178zM510 606q0 -28 -17 -48.5t-48 -20.5t-48 20.5t-17 48.5t17 49t48 21t48 -21t17 -49zM296 606q0 -28 -17 -48.5t-48 -20.5t-48.5 20.5t-17.5 48.5t17.5 49t48.5 21t48 -21t17 -49z" />
    <glyph glyph-name="yacute" unicode="&#xfd;" horiz-adv-x="489" 
d="M524 426l-14 -4q-11 -3 -22 -9t-23.5 -17t-28 -28.5t-35.5 -44.5l-100 -133l-16 -125q-2 -14 15 -17l42 -9l3 -39h-244l3 39l44 9q17 3 19 17l15 116l-114 219q-7 15 -31 22l-16 4l-3 40h233l-3 -40l-22 -3q-23 -4 -24 -22t16 -59l50 -119h12l81 111q30 41 31.5 61.5
t-20.5 25.5l-22 5l-3 40h180zM273 515h-45l119 182h127z" />
    <glyph glyph-name="thorn" unicode="&#xfe;" horiz-adv-x="514" 
d="M485 252q0 -41 -20.5 -71t-52.5 -49.5t-71.5 -28.5t-78.5 -9q-23 0 -40 1t-27 3l-3 -33q-2 -14 15 -17l43 -9v-39h-239l6 39l38 9q17 3 19 17l44 336q2 13 -15 17l-35 9l-3 39h236l-3 -40l-42 -8q-18 -3 -20 -17l-2 -16h57q99 0 146.5 -37t47.5 -96zM356 248q0 44 -26 72
t-73 28h-29l-27 -210q9 -2 24 -3.5t29 -1.5q22 0 40.5 8.5t32 24t21.5 37t8 45.5z" />
    <glyph glyph-name="ydieresis" unicode="&#xff;" horiz-adv-x="489" 
d="M524 426l-14 -4q-11 -3 -22 -9t-23.5 -17t-28 -28.5t-35.5 -44.5l-100 -133l-16 -125q-2 -14 15 -17l42 -9l3 -39h-244l3 39l44 9q17 3 19 17l15 116l-114 219q-7 15 -31 22l-16 4l-3 40h233l-3 -40l-22 -3q-23 -4 -24 -22t16 -59l50 -119h12l81 111q30 41 31.5 61.5
t-20.5 25.5l-22 5l-3 40h180zM469 606q0 -28 -17 -48.5t-48 -20.5t-48 20.5t-17 48.5t17 49t48 21t48 -21t17 -49zM255 606q0 -28 -17 -48.5t-48 -20.5t-48.5 20.5t-17.5 48.5t17.5 49t48.5 21t48 -21t17 -49z" />
    <glyph glyph-name="dotlessi" unicode="&#x131;" horiz-adv-x="322" 
d="M13 0l5 39l41 9q17 3 19 17l44 336q2 14 -14 17l-39 9l-4 39h241l-4 -39l-42 -9q-17 -3 -19 -17l-44 -336q-2 -14 15 -17l39 -9l3 -39h-241z" />
    <glyph glyph-name="Lslash" unicode="&#x141;" horiz-adv-x="579" 
d="M34 174v48l73 20l2 13q2 13 5 35t6.5 49.5t7.5 56.5q9 68 21 154q2 9 -2 15t-18 9l-46 11l-2 40h284l-4 -40l-53 -11q-23 -6 -26 -24l-18 -135q-3 -25 -6.5 -49.5t-6 -44t-4.5 -30.5l-2 -12l95 26v-49l-50 -14q-19 -5 -35 -9t-16 -5l-25 -183h30q50 0 82 3.5t53 12
t33.5 23.5t23.5 39l37 83h71l-49 -206h-489l4 40l49 11q14 3 19 9t7 15l16 117z" />
    <glyph glyph-name="lslash" unicode="&#x142;" horiz-adv-x="499" 
d="M195 41h17q40 0 66 3t43 10.5t27.5 21t19.5 33.5l24 59h63l-38 -168h-393l3 39l34 9q17 4 19 17q3 31 7 56q3 21 5.5 38t1.5 17l-57 -16l1 49l63 17l23 175q2 13 -15 17l-31 9l-3 39h232l-3 -39l-43 -9q-17 -3 -19 -17l-18 -142l90 25v-48l-97 -27z" />
    <glyph glyph-name="OE" unicode="&#x152;" horiz-adv-x="968" 
d="M882 0h-518q-76 0 -135 20t-99 56.5t-61 87.5t-21 112q0 72 24.5 131t78.5 112q47 47 124 76.5t173 29.5h519l-32 -206h-64l-11 83q-3 27 -11 42.5t-28 23.5t-56 10t-95 2h-39l-34 -242h19q42 0 65.5 7t35.5 29l28 64h51l-55 -242h-51l1 64q0 9 -3 15.5t-12 10.5t-26 5.5
t-44 1.5h-15l-33 -248h43q61 0 98.5 2.5t61 10.5t36.5 23.5t25 41.5l34 74h72zM428 580q-49 -2 -92.5 -23t-75 -59.5t-50 -94.5t-18.5 -128q0 -106 48 -167.5t145 -61.5h40l71 519z" />
    <glyph glyph-name="oe" unicode="&#x153;" horiz-adv-x="807" 
d="M285 0q-58 0 -104.5 15.5t-79 43t-49 66t-16.5 84.5q0 45 20 91t58 84q39 38 99 60t136 22h439l-21 -160h-61l-8 58q-3 21 -10 33t-22.5 18.5t-41 8.5t-65.5 2h-51l-23 -174h28q25 0 42 5t25 21l26 52h45l-43 -187h-44l-2 47q-1 15 -11.5 21t-45.5 6h-24l-23 -177h51
q40 0 66.5 2t44.5 9t29 19t20 32l22 55h66l-35 -157h-437zM165 209q1 -77 39.5 -123t107.5 -46h27l49 371l-52 14q-38 1 -69.5 -14.5t-54 -44t-35 -68.5t-12.5 -89z" />
    <glyph glyph-name="Scaron" unicode="&#x160;" horiz-adv-x="535" 
d="M480 183q0 -46 -19 -83t-52 -62.5t-78 -39t-98 -13.5q-65 0 -115.5 9.5t-94.5 23.5l17 192l64 -1l31 -150q22 -10 49 -16t63 -6q55 0 84.5 27t30.5 70q0 23 -10 41t-27 33.5t-40.5 29t-49.5 28.5q-37 20 -66 38.5t-49 40.5t-31 49.5t-11 65.5t18 70.5t49.5 56.5
t73.5 37.5t90 13.5q25 0 45.5 -2t38.5 -5t36 -7t38 -9q0 1 8.5 3.5t19.5 5.5q12 4 27 8l-27 -205l-63 2l-21 134q-24 10 -52.5 16t-61.5 6q-21 0 -39 -6t-31.5 -16.5t-21.5 -24.5t-8 -30q0 -25 9.5 -44t27.5 -35t42.5 -30.5t53.5 -30.5q32 -17 59.5 -34.5t47.5 -39.5
t31.5 -49t11.5 -62zM388 682h-119l-64 182h44l86 -120h2l119 120h45z" />
    <glyph glyph-name="scaron" unicode="&#x161;" horiz-adv-x="462" 
d="M400 139q0 -33 -14 -60.5t-39.5 -47.5t-62.5 -31.5t-82 -11.5q-57 0 -98.5 6.5t-76.5 15.5l16 149h62l24 -114q17 -6 33.5 -9.5t39.5 -3.5q45 0 69 20.5t24 50.5t-26 49t-73 41q-23 11 -46 24t-41.5 29.5t-30 38.5t-11.5 52q0 59 50.5 98.5t142.5 40.5q38 0 66.5 -4
t63.5 -11l44 11l-21 -156h-57l-25 104q-16 5 -36.5 9.5t-41.5 4.5q-40 0 -60.5 -16.5t-20.5 -42.5q0 -33 27 -53t78 -45q22 -11 44 -24t39.5 -29.5t28.5 -37t11 -47.5zM317 515h-119l-64 182h44l86 -120h2l119 120h45z" />
    <glyph glyph-name="Ydieresis" unicode="&#x178;" horiz-adv-x="597" 
d="M655 584l-24 -7q-13 -3 -24.5 -8t-25 -16t-29.5 -30t-38 -51l-144 -209l-24 -188q-3 -20 20 -24l59 -11l-1 -40h-307l6 40l64 11q13 2 18.5 8.5t7.5 15.5l24 182l-122 265q-13 25 -24 36t-29 16l-30 10l-3 41h287l-3 -41l-40 -6q-27 -4 -26.5 -27t20.5 -71l71 -174h8
l115 173q32 47 33 69.5t-30 28.5l-36 7l-3 41h233zM548 773q0 -28 -17 -48.5t-48 -20.5t-48 20.5t-17 48.5t17 49t48 21t48 -21t17 -49zM334 773q0 -28 -17 -48.5t-48 -20.5t-48.5 20.5t-17.5 48.5t17.5 49t48.5 21t48 -21t17 -49z" />
    <glyph glyph-name="Zcaron" unicode="&#x17d;" horiz-adv-x="602" 
d="M511 0h-507l7 45l443 526v8h-103q-46 0 -74.5 -3.5t-46.5 -13t-29.5 -26t-23.5 -42.5l-31 -77h-67l27 208h512l-6 -46l-448 -526l-1 -8h105q54 0 86 5t51 15t29.5 26t21.5 37l32 72h71zM432 682h-119l-64 182h44l86 -120h2l119 120h45z" />
    <glyph glyph-name="zcaron" unicode="&#x17e;" horiz-adv-x="509" 
d="M418 0h-409l5 39l336 381l1 5h-92q-26 0 -44 -2.5t-30.5 -10t-22 -21t-18.5 -34.5l-22 -56h-57l16 165h415l-5 -42l-342 -378v-5h70q36 0 60.5 3t41.5 10.5t27.5 20t18.5 31.5l23 54h65zM340 515h-119l-64 182h44l86 -120h2l119 120h45z" />
    <glyph glyph-name="florin" unicode="&#x192;" 
d="M537 551q0 -28 -16.5 -48.5t-43.5 -20.5q-32 0 -51.5 22.5t-21.5 62.5l-45 -9q-5 -11 -10 -31.5t-10.5 -44.5t-10 -48.5t-9.5 -45.5h123l4 -57h-135q-18 -98 -43 -172.5t-71 -122.5q-26 -26 -61.5 -39t-68.5 -13q-39 0 -67 22t-28 56q0 29 16 46t41 17q30 0 48.5 -22
t21.5 -55l54 16q10 23 20.5 68t17.5 95l13 97l-85 7l3 34l93 31q15 63 37 106.5t45 67.5q15 16 33 28.5t37 20.5t38 12.5t34 4.5q43 0 70.5 -23t27.5 -62z" />
    <glyph glyph-name="circumflex" unicode="&#x2c6;" horiz-adv-x="400" 
d="M330 515l-86 120h-2l-118 -120h-46l114 182h118l66 -182h-46z" />
    <glyph glyph-name="caron" unicode="&#x2c7;" horiz-adv-x="400" 
d="M286 515h-119l-64 182h44l86 -120h2l119 120h45z" />
    <glyph glyph-name="breve" unicode="&#x2d8;" horiz-adv-x="400" 
d="M402 697q-11 -40 -27 -74.5t-37.5 -59.5t-49 -39t-62.5 -14q-34 0 -57.5 14t-37.5 39t-21 59.5t-9 74.5h44q6 -24 13 -46t17.5 -38.5t24.5 -26t34 -9.5t37 10t32.5 26.5t29 38.5t26.5 45h43z" />
    <glyph glyph-name="dotaccent" unicode="&#x2d9;" horiz-adv-x="400" 
d="M315 611q0 -29 -18 -50t-50 -21t-49 21t-17 50t17 50.5t49 21.5t50 -21.5t18 -50.5z" />
    <glyph glyph-name="ring" unicode="&#x2da;" horiz-adv-x="400" 
d="M346 613q0 -41 -26 -70.5t-72 -29.5t-73 29.5t-26 70.5t27 70.5t72 29.5t72 -29.5t26 -70.5zM312 613q0 26 -17 47t-47 21t-47 -21t-17 -47t17 -46.5t47 -20.5t47 20.5t17 46.5z" />
    <glyph glyph-name="ogonek" unicode="&#x2db;" horiz-adv-x="400" 
d="M255 -189q-25 -20 -54.5 -34.5t-67.5 -14.5q-45 0 -77 26t-32 70q0 27 13 51t35 45t52 38t63 29h56q-74 -33 -108.5 -74t-34.5 -73q0 -26 17 -42t51 -16q21 0 41.5 6t38.5 15z" />
    <glyph glyph-name="tilde" unicode="&#x2dc;" horiz-adv-x="400" 
d="M419 658q-17 -72 -47 -103.5t-74 -31.5q-22 0 -42.5 11t-39 24.5t-34.5 24.5t-30 11q-17 0 -27 -15t-26 -47h-43q17 72 46.5 103.5t73.5 31.5q23 0 42.5 -11t37.5 -24t34 -24t30 -11q16 0 28 14.5t29 46.5h42z" />
    <glyph glyph-name="hungarumlaut" unicode="&#x2dd;" horiz-adv-x="400" 
d="M311 515h-41l116 182h119zM135 515h-42l117 182h119z" />
    <glyph glyph-name="endash" unicode="&#x2013;" 
d="M0 215v60h500v-60h-500z" />
    <glyph glyph-name="emdash" unicode="&#x2014;" horiz-adv-x="1000" 
d="M0 215v60h1000v-60h-1000z" />
    <glyph glyph-name="quoteleft" unicode="&#x2018;" horiz-adv-x="242" 
d="M222 412q-3 -25 -25 -44t-54 -19q-21 0 -38 8t-29 21t-18.5 30.5t-6.5 35.5q0 32 16.5 63t45 59.5t67 53.5t83.5 44l20 -24q-23 -13 -45 -29.5t-39 -35t-27.5 -38.5t-10.5 -40t9.5 -35.5t21 -26t21 -16.5t9.5 -7z" />
    <glyph glyph-name="quoteright" unicode="&#x2019;" horiz-adv-x="242" 
d="M256 559q0 -32 -15.5 -61.5t-41.5 -56t-60 -49.5t-71 -42l-25 24q22 12 42 27.5t35.5 33t24.5 36t9 36.5q0 21 -11 37.5t-23.5 27.5t-23.5 16.5t-11 6.5q0 25 23 44.5t54 19.5q21 0 38 -8t29.5 -22t19.5 -32t7 -38z" />
    <glyph glyph-name="quotesinglbase" unicode="&#x201a;" horiz-adv-x="242" 
d="M175 38q0 -32 -15.5 -61.5t-41.5 -56t-60 -49.5t-71 -42l-25 24q22 12 42 27.5t35.5 33t24.5 36t9 36.5q0 21 -11 37.5t-23.5 27.5t-23.5 16.5t-11 6.5q0 25 23 44.5t54 19.5q21 0 38 -8t29.5 -22t19.5 -32t7 -38z" />
    <glyph glyph-name="quotedblleft" unicode="&#x201c;" horiz-adv-x="458" 
d="M445 412q0 -24 -22.5 -43.5t-53.5 -19.5q-21 0 -38.5 8t-30 21.5t-19.5 32t-7 38.5q0 32 15.5 61.5t41.5 56t60 49.5t71 42l25 -24q-22 -13 -42 -28.5t-35 -32.5t-24 -35.5t-9 -37.5q0 -21 10.5 -37t23.5 -27t23.5 -17t10.5 -7zM223 412q0 -24 -23 -43.5t-54 -19.5
q-42 0 -68.5 29.5t-26.5 70.5q0 32 15.5 61.5t42 56t60.5 49.5t71 42l24 -24q-22 -13 -42 -28.5t-35 -32.5t-24 -35.5t-9 -37.5q0 -21 11 -37t23.5 -27t23.5 -17t11 -7z" />
    <glyph glyph-name="quotedblright" unicode="&#x201d;" horiz-adv-x="458" 
d="M482 559q0 -32 -15.5 -61.5t-41.5 -56t-60 -49.5t-71 -42l-24 24q22 12 42 27.5t35 33t24 36t9 36.5q0 21 -11 37.5t-23.5 27.5t-23.5 16.5t-11 6.5q0 25 23 44.5t54 19.5q21 0 38 -8t29.5 -22t19.5 -32t7 -38zM260 559q0 -32 -15.5 -61.5t-42 -56t-60.5 -49.5t-71 -42
l-24 24q22 12 42 27.5t35 33t24 36t9 36.5q0 21 -10.5 37.5t-23.5 27.5t-23.5 16.5t-10.5 6.5q0 25 22.5 44.5t53.5 19.5q21 0 38 -8t30 -22t20 -32t7 -38z" />
    <glyph glyph-name="quotedblbase" unicode="&#x201e;" horiz-adv-x="458" 
d="M401 38q0 -32 -15.5 -61.5t-41.5 -56t-60 -49.5t-71 -42l-24 24q22 12 42 27.5t35 33t24 36t9 36.5q0 21 -11 37.5t-23.5 27.5t-23.5 16.5t-11 6.5q0 25 23 44.5t54 19.5q21 0 38 -8t29.5 -22t19.5 -32t7 -38zM179 38q0 -32 -15.5 -61.5t-42 -56t-60.5 -49.5t-71 -42
l-24 24q22 12 42 27.5t35 33t24 36t9 36.5q0 21 -10.5 37.5t-23.5 27.5t-23.5 16.5t-10.5 6.5q0 25 22.5 44.5t53.5 19.5q21 0 38 -8t30 -22t20 -32t7 -38z" />
    <glyph glyph-name="dagger" unicode="&#x2020;" horiz-adv-x="470" 
d="M465 388h-180v-543h-45v543h-179l-4 46h183v192h45v-192h184z" />
    <glyph glyph-name="daggerdbl" unicode="&#x2021;" horiz-adv-x="470" 
d="M286 20v-175h-44v175h-183l4 45h179v338h-179l-4 45h183v178h44v-178h184l-4 -45h-180v-338h180l4 -45h-184z" />
    <glyph glyph-name="bullet" unicode="&#x2022;" horiz-adv-x="455" 
d="M420 232q0 -11 -6 -30.5t-14.5 -40.5t-18 -39.5t-17.5 -26.5q-7 -7 -25.5 -17t-39.5 -18.5t-41 -14.5t-31 -6q-10 0 -30 6t-41 14.5t-39 18.5t-25 17q-7 8 -17 26.5t-19 39.5t-15 40.5t-6 30.5t6 30.5t15 40.5t19 39.5t17 25.5q8 8 26 17.5t39 18t41 14.5t30 6
q11 0 30.5 -6t40.5 -14.5t39.5 -18t25.5 -17.5q8 -7 17.5 -25.5t18 -39.5t14.5 -40.5t6 -30.5z" />
    <glyph glyph-name="ellipsis" unicode="&#x2026;" horiz-adv-x="696" 
d="M637 62q0 -31 -22 -54.5t-55 -23.5t-55.5 23t-22.5 55t22.5 54.5t55.5 22.5t55 -22.5t22 -54.5zM405 62q0 -31 -22 -54.5t-55 -23.5t-55.5 23t-22.5 55t22.5 54.5t55.5 22.5t55 -22.5t22 -54.5zM173 62q0 -31 -22 -54.5t-55 -23.5t-55.5 23t-22.5 55t22.5 54.5t55.5 22.5
t55 -22.5t22 -54.5z" />
    <glyph glyph-name="perthousand" unicode="&#x2030;" horiz-adv-x="1126" 
d="M390 500q0 -39 -14.5 -73t-39 -59.5t-58 -40t-72.5 -14.5q-32 0 -60.5 10.5t-49.5 30t-33.5 47t-12.5 61.5q0 38 14.5 71.5t39 59t58 40t70.5 14.5q33 0 61.5 -10t50 -29t34 -46.5t12.5 -61.5zM99 -15h-59l630 654h59zM724 164q0 -39 -14.5 -73t-39.5 -59.5t-58.5 -40
t-71.5 -14.5q-67 0 -110.5 39t-43.5 108q0 39 14 73t38.5 59.5t57.5 40t72 14.5q32 0 60.5 -10t49.5 -29t33.5 -46.5t12.5 -61.5zM340 490q0 50 -31 81.5t-81 31.5q-28 0 -51.5 -11.5t-41 -31t-27.5 -44.5t-10 -52q0 -50 32.5 -79.5t79.5 -29.5q28 0 51.5 10.5t41 29
t27.5 43t10 52.5zM676 158q0 24 -9 44t-24 34.5t-35.5 22.5t-43.5 8q-28 0 -51.5 -11.5t-41 -31t-27.5 -44.5t-10 -52q0 -50 31.5 -79.5t78.5 -29.5q28 0 52 11.5t42 30.5t28 44t10 53zM1105 164q0 -39 -14.5 -73t-39.5 -59.5t-58.5 -40t-71.5 -14.5q-67 0 -110.5 39
t-43.5 108q0 39 14 73t38.5 59.5t57.5 40t72 14.5q32 0 60.5 -10t49.5 -29t33.5 -46.5t12.5 -61.5zM1057 158q0 24 -9 44t-24 34.5t-35.5 22.5t-43.5 8q-28 0 -51.5 -11.5t-41 -31t-27.5 -44.5t-10 -52q0 -50 31.5 -79.5t78.5 -29.5q28 0 52 11.5t42 30.5t28 44t10 53z" />
    <glyph glyph-name="guilsinglleft" unicode="&#x2039;" horiz-adv-x="300" 
d="M237 41l-214 154v56l260 158l9 -21l-181 -167l139 -159z" />
    <glyph glyph-name="guilsinglright" unicode="&#x203a;" horiz-adv-x="300" 
d="M25 37l-9 21l165 163l-124 163l13 21l214 -154l-6 -60z" />
    <glyph glyph-name="fraction" unicode="&#x2044;" horiz-adv-x="617" 
d="M65 -14h-65l554 652h65z" />
    <glyph glyph-name="Euro" unicode="&#x20ac;" 
d="M177 216q11 -74 48 -115.5t103 -41.5q39 0 72 16.5t62 40.5l15 -20q-29 -48 -80 -79.5t-111 -31.5q-50 0 -88.5 18t-66.5 49t-44.5 73.5t-21.5 90.5h-65l3 47h60v6q1 18 2.5 36t4.5 35h-54l3 47h62q15 53 42.5 97.5t65 76.5t83.5 50.5t98 18.5q73 0 112 -26t40 -61
q0 -29 -16 -47t-42 -18q-16 0 -28.5 7.5t-20.5 20t-12.5 28.5t-3.5 34q-8 6 -23.5 10.5t-30.5 4.5q-28 0 -53.5 -14t-46 -39.5t-36 -62t-24.5 -80.5h202l3 -47h-212q-2 -17 -3 -33t-1 -33v-11h197l3 -47h-197z" />
    <glyph glyph-name="trademark" unicode="&#x2122;" horiz-adv-x="937" 
d="M762 253l1 30l33 7q8 2 10.5 12.5t1.5 46.5l-5 232h-10l-97 -316h-68l-75 319h-10l-6 -195q-1 -33 -1.5 -52.5t1 -29.5t4 -13.5t7.5 -5.5l32 -5l2 -30h-139l2 30l30 5q6 1 9.5 4t6.5 13t4.5 30t2.5 54l6 185q0 5 -2 9t-10 6l-35 6l-2 30h170l55 -272h10l78 272h168
l-2 -30l-33 -6q-8 -2 -11 -6t-3 -9l4 -225q0 -19 1.5 -30t4 -17.5t6.5 -8.5t8 -3l30 -7l2 -30h-181zM406 480h-41l-5 19q-7 28 -13.5 46t-16 28.5t-23.5 15t-38 4.5h-1v-290q0 -4 2.5 -8t9.5 -6l39 -6l2 -30h-188l2 30l39 6q8 2 10.5 6t2.5 8v290h-1q-20 0 -33.5 -5
t-23.5 -16t-17 -29t-15 -44l-6 -19h-38l8 145h345v-145z" />
    <glyph glyph-name="product" unicode="&#x220f;" horiz-adv-x="578" 
d="M530 175l-37 -9q-17 -3 -20 -18l-12 -91l44 -5l1 -29q-21 -7 -48 -13.5t-57.5 -11.5t-63 -8t-63.5 -3q-113 0 -176 56.5t-63 156.5q0 53 21.5 103.5t60.5 88.5q38 38 89 61t116 23q39 0 75.5 -7t52.5 -12l74 18l-24 -172h-68l-21 109q-14 11 -38 17t-42 6
q-40 0 -71 -19.5t-53 -52.5t-33.5 -77.5t-11.5 -94.5q0 -47 13 -79.5t33 -52.5q16 -17 36.5 -24t42.5 -7q15 0 29.5 2.5t25.5 7.5l14 110q1 14 -18 18l-31 9l-2 39h229z" />
    <glyph glyph-name="minus" unicode="&#x2212;" horiz-adv-x="486" 
d="M41 283l3 54h399l3 -54h-405z" />
    <glyph glyph-name="apple" unicode="&#xf8ff;" horiz-adv-x="758" 
d="M583 236l69 -189l-189 69l-85 -181l-84 180l-187 -68l68 187l-181 86l181 83l-68 189l187 -69l86 181l83 -181l189 69l-69 -189l180 -82zM531 382l50 139l-139 -50l-63 133l-63 -133l-139 50l51 -139l-134 -63l134 -63l-51 -138l139 51l62 -135l64 135l139 -51l-50 140
l132 62z" />
    <glyph glyph-name="ff" unicode="&#xfb00;" horiz-adv-x="1032" 
d="M424 306l-8 58q-3 20 -10 32.5t-22.5 19t-41.5 8.5t-66 2h-40l-25 -184h28q24 0 41.5 3.5t26.5 22.5l25 51h46l-43 -187h-44l-2 47q-1 15 -11.5 21t-45.5 6h-25l-19 -141q-2 -14 14 -17l46 -9l-1 -39h-236l6 39l34 9q17 4 19 17l44 336q2 13 -15 17l-31 9l-3 39h440
l-20 -160h-61zM940 306l-8 58q-3 20 -10 32.5t-22.5 19t-41.5 8.5t-66 2h-40l-25 -184h28q24 0 41.5 3.5t26.5 22.5l25 51h46l-43 -187h-44l-2 47q-1 15 -11.5 21t-45.5 6h-25l-19 -141q-2 -14 14 -17l46 -9l-1 -39h-236l6 39l34 9q17 4 19 17l44 336q2 13 -14 17l-32 9
l-3 39h440l-20 -160h-61z" />
    <glyph glyph-name="fi" unicode="&#xfb01;" horiz-adv-x="838" 
d="M424 306l-8 58q-3 20 -10 32.5t-22.5 19t-41.5 8.5t-66 2h-40l-25 -184h28q24 0 41.5 3.5t26.5 22.5l25 51h46l-43 -187h-44l-2 47q-1 15 -11.5 21t-45.5 6h-25l-19 -141q-2 -14 14 -17l46 -9l-1 -39h-236l6 39l34 9q17 4 19 17l44 336q2 13 -15 17l-31 9l-3 39h440
l-20 -160h-61zM530 0l4 39l42 9q17 3 19 17l44 336q2 14 -15 17l-39 9l-3 39h240l-4 -39l-42 -9q-17 -3 -19 -17l-44 -336q-2 -14 15 -17l39 -9l3 -39h-240z" />
    <glyph glyph-name="fl" unicode="&#xfb02;" horiz-adv-x="1005" 
d="M424 306l-8 58q-3 20 -10 32.5t-22.5 19t-41.5 8.5t-66 2h-40l-25 -184h28q24 0 41.5 3.5t26.5 22.5l25 51h46l-43 -187h-44l-2 47q-1 15 -11.5 21t-45.5 6h-25l-19 -141q-2 -14 14 -17l46 -9l-1 -39h-236l6 39l34 9q17 4 19 17l44 336q2 13 -15 17l-31 9l-3 39h440
l-20 -160h-61zM923 0h-393l3 39l34 9q17 4 19 17l44 336q2 13 -14 17l-32 9l-3 39h232l-3 -39l-43 -9q-17 -3 -19 -17l-47 -360h17q41 0 67 3t42.5 10.5t27 21t19.5 33.5l24 59h63z" />
    <glyph glyph-name="ffi" unicode="&#xfb03;" horiz-adv-x="1354" 
d="M424 306l-8 58q-3 20 -10 32.5t-22.5 19t-41.5 8.5t-66 2h-40l-25 -184h28q24 0 41.5 3.5t26.5 22.5l25 51h46l-43 -187h-44l-2 47q-1 15 -11.5 21t-45.5 6h-25l-19 -141q-2 -14 14 -17l46 -9l-1 -39h-236l6 39l34 9q17 4 19 17l44 336q2 13 -15 17l-31 9l-3 39h440
l-20 -160h-61zM940 306l-8 58q-3 20 -10 32.5t-22.5 19t-41.5 8.5t-66 2h-40l-25 -184h28q24 0 41.5 3.5t26.5 22.5l25 51h46l-43 -187h-44l-2 47q-1 15 -11.5 21t-45.5 6h-25l-19 -141q-2 -14 14 -17l46 -9l-1 -39h-236l6 39l34 9q17 4 19 17l44 336q2 13 -14 17l-32 9
l-3 39h440l-20 -160h-61zM1046 0l4 39l42 9q17 3 19 17l44 336q2 14 -15 17l-39 9l-3 39h240l-4 -39l-42 -9q-17 -3 -19 -17l-44 -336q-2 -14 15 -17l39 -9l3 -39h-240z" />
    <glyph glyph-name="ffl" unicode="&#xfb04;" horiz-adv-x="1521" 
d="M424 306l-8 58q-3 20 -10 32.5t-22.5 19t-41.5 8.5t-66 2h-40l-25 -184h28q24 0 41.5 3.5t26.5 22.5l25 51h46l-43 -187h-44l-2 47q-1 15 -11.5 21t-45.5 6h-25l-19 -141q-2 -14 14 -17l46 -9l-1 -39h-236l6 39l34 9q17 4 19 17l44 336q2 13 -15 17l-31 9l-3 39h440
l-20 -160h-61zM940 306l-8 58q-3 20 -10 32.5t-22.5 19t-41.5 8.5t-66 2h-40l-25 -184h28q24 0 41.5 3.5t26.5 22.5l25 51h46l-43 -187h-44l-2 47q-1 15 -11.5 21t-45.5 6h-25l-19 -141q-2 -14 14 -17l46 -9l-1 -39h-236l6 39l34 9q17 4 19 17l44 336q2 13 -14 17l-32 9
l-3 39h440l-20 -160h-61zM1439 0h-393l3 39l34 9q17 4 19 17l44 336q2 13 -14 17l-32 9l-3 39h232l-3 -39l-43 -9q-17 -3 -19 -17l-47 -360h17q41 0 67 3t42.5 10.5t27 21t19.5 33.5l24 59h63z" />
    <glyph glyph-name="j.alt" horiz-adv-x="429" 
d="M424 427l-38 -9q-11 -2 -15 -6.5t-5 -10.5l-34 -247q-6 -43 -24 -75t-44.5 -53t-58 -31t-63.5 -10q-39 0 -68 8.5t-48.5 22t-29 31t-9.5 36.5q0 29 18 48t44 19q22 0 38.5 -13t16.5 -34q0 -31 -23 -49q8 -10 22 -18.5t35 -8.5q28 0 48.5 26.5t28.5 80.5l36 267
q2 14 -14 17l-46 9v39h238z" />
  </font>
</defs>
</svg>
