<?xml version="1.0" standalone="no"?>
<!DOCTYPE svg PUBLIC "-//W3C//DTD SVG 1.1//EN" "http://www.w3.org/Graphics/SVG/1.1/DTD/svg11.dtd" >
<svg xmlns="http://www.w3.org/2000/svg" xmlns:xlink="http://www.w3.org/1999/xlink" version="1.1">
<metadata>
Created by FontForge 20170731 at Sun Jan 10 00:35:57 2016
 By Aleksey,,,
Copyright  2004, Joshua Darden &#38; Phil's Fonts, Inc. All rights reserved. Published by Garagefonts USA 301-260-2285 www.garagefonts.com
</metadata>
<defs>
<font id="FreightTextMediumItalic" horiz-adv-x="400" >
  <font-face 
    font-family="FreightTextMediumItalic"
    font-weight="400"
    font-style="italic"
    font-stretch="normal"
    units-per-em="1000"
    panose-1="2 0 6 6 6 0 0 9 0 4"
    ascent="727"
    descent="-273"
    x-height="464"
    cap-height="625"
    bbox="-163 -270 1110 864"
    underline-thickness="20"
    underline-position="-173"
    slope="-12"
    unicode-range="U+0020-FB04"
  />
<missing-glyph horiz-adv-x="500" 
 />
    <glyph glyph-name=".notdef" horiz-adv-x="500" 
 />
    <glyph glyph-name=".null" horiz-adv-x="0" 
 />
    <glyph glyph-name="nonmarkingreturn" horiz-adv-x="160" 
 />
    <glyph glyph-name="space" unicode=" " horiz-adv-x="160" 
 />
    <glyph glyph-name="space" unicode="&#xa0;" horiz-adv-x="160" 
 />
    <glyph glyph-name="exclam" unicode="!" horiz-adv-x="284" 
d="M145 195q-2 -6 -11 -5.5t-9 6.5l10 403q1 19 11 30t35 11h3q36 0 48 -12.5t7 -34.5zM179 45q0 -24 -16.5 -42t-42.5 -18t-43.5 18t-17.5 42q0 23 17.5 40.5t43.5 17.5t42.5 -17.5t16.5 -40.5z" />
    <glyph glyph-name="quotedbl" unicode="&#x22;" horiz-adv-x="370" 
d="M234 403h-37l107 243h1l80 -28zM72 403h-38l107 243h2l80 -28z" />
    <glyph glyph-name="numbersign" unicode="#" horiz-adv-x="566" 
d="M437 404l-50 -186h129v-38h-139l-50 -186h-39l50 186h-171l-50 -186h-39l50 186h-128v38h138l50 186h-128v38h138l52 189h39l-51 -189h170l51 189h39l-51 -189h129v-38h-139zM398 404h-170l-51 -186h171z" />
    <glyph glyph-name="dollar" unicode="$" horiz-adv-x="510" 
d="M144 -166h-39l41 153q-37 4 -67.5 11t-59.5 16l12 179h41l28 -137q24 -13 59 -21l68 253q-32 18 -58.5 36.5t-46 40.5t-30 49t-10.5 62q0 36 18 65.5t47 51.5t66.5 34t76.5 12h16q8 0 15 -1l27 100h39q-8 -28 -14 -51q-5 -20 -9 -35.5t-5 -15.5q20 -2 36 -5t35 -8
q0 1 8 2.5t18 3.5l26 6l-26 -192h-44l-13 124q-12 6 -25.5 10.5t-27.5 8.5l-60 -222q30 -18 58.5 -37t50 -41.5t35 -50.5t13.5 -64q0 -41 -18.5 -75.5t-50.5 -59t-75 -38t-93 -13.5h-21zM309 592q-8 1 -17 1.5t-18 0.5q-19 0 -38 -5.5t-34 -16.5t-24.5 -26t-9.5 -35
q-1 -42 21 -70.5t64 -55.5zM197 30q7 -1 13 -1h14q63 0 96.5 30t34.5 78q1 42 -25.5 71.5t-69.5 58.5z" />
    <glyph glyph-name="percent" unicode="%" horiz-adv-x="746" 
d="M395 500q0 -39 -14.5 -73t-39 -59.5t-58 -40t-72.5 -14.5q-32 0 -60.5 10.5t-49.5 30t-33.5 47t-12.5 61.5q0 38 14.5 71.5t39 59t58 40t70.5 14.5q33 0 61.5 -10t50 -29t34 -46.5t12.5 -61.5zM104 -15h-59l630 654h59zM729 164q0 -39 -14.5 -73t-39.5 -59.5t-58.5 -40
t-71.5 -14.5q-67 0 -110.5 39t-43.5 108q0 39 14 73t38.5 59.5t57.5 40t72 14.5q32 0 60.5 -10t49.5 -29t33.5 -46.5t12.5 -61.5zM345 490q0 50 -31 81.5t-81 31.5q-28 0 -51.5 -11.5t-41 -31t-27.5 -44.5t-10 -52q0 -50 32.5 -79.5t79.5 -29.5q28 0 51.5 10.5t41 29
t27.5 43t10 52.5zM681 158q0 24 -9 44t-24 34.5t-35.5 22.5t-43.5 8q-28 0 -51.5 -11.5t-41 -31t-27.5 -44.5t-10 -52q0 -50 31.5 -79.5t78.5 -29.5q28 0 52 11.5t42 30.5t28 44t10 53z" />
    <glyph glyph-name="ampersand" unicode="&#x26;" horiz-adv-x="627" 
d="M369 124q-56 -65 -108.5 -102.5t-119.5 -37.5q-30 0 -55.5 12.5t-43.5 33.5t-28.5 48.5t-10.5 58.5q0 43 16 76.5t41.5 57.5t58.5 39t66 21v1q-29 29 -48 61.5t-19 77.5q0 38 15.5 69t42 53t61 34t72.5 12q34 0 63 -9t50.5 -26t33.5 -40.5t12 -53.5q0 -64 -46 -103.5
t-143 -64.5v-1l131 -143h1l119 102v2q-24 5 -36.5 20.5t-12.5 32.5q0 23 17.5 36.5t42.5 13.5q27 0 44 -18t17 -41q0 -32 -24.5 -65.5t-86.5 -71.5l-58 -36l149 -162l-92 -27l-120 140h-1zM385 499q0 21 -5 39.5t-15 32.5t-26 22.5t-38 8.5q-48 0 -74 -31t-26 -74
q0 -27 4 -46t11.5 -34t17.5 -27.5t22 -26.5q65 31 97 61t32 75zM203 312q-51 -27 -83.5 -65t-32.5 -88q0 -48 26 -76t60 -28q32 0 75.5 23.5t100.5 68.5z" />
    <glyph glyph-name="quotesingle" unicode="'" horiz-adv-x="208" 
d="M72 403h-38l108 243h1l80 -28z" />
    <glyph glyph-name="parenleft" unicode="(" horiz-adv-x="395" 
d="M358 -254q-40 20 -86.5 60.5t-86.5 99.5t-66.5 135.5t-26.5 167.5q0 92 26.5 168t66.5 135t86.5 99.5t86.5 60.5l26 -35q-37 -20 -79.5 -59.5t-78 -94.5t-59 -124t-23.5 -150t23.5 -150t59 -124t78 -94t79.5 -59z" />
    <glyph glyph-name="parenright" unicode=")" horiz-adv-x="395" 
d="M11 -219q38 20 80 59.5t77.5 94.5t59 124t23.5 150t-23.5 150t-59 124t-77.5 94.5t-80 59.5l27 35q40 -20 86.5 -60.5t86 -99.5t66 -135t26.5 -168q0 -91 -26.5 -167.5t-66 -135.5t-86 -99.5t-86.5 -60.5z" />
    <glyph glyph-name="asterisk" unicode="*" horiz-adv-x="349" 
d="M325 433l-92 34l-10 -13l60 -76l-11 -61l-21 -6l-45 43l4 97l-15 4l-52 -78l-62 -10l-14 18l28 58l91 24v18l-91 26l-29 56l13 18l64 -9l52 -81l16 5l-2 97l43 42l22 -7l11 -61l-62 -76l10 -13l92 33l53 -30v-22z" />
    <glyph glyph-name="plus" unicode="+" horiz-adv-x="480" 
d="M267 208v-185h-53v185h-183l3 53h180v184h53v-184h179l3 -53h-182z" />
    <glyph glyph-name="comma" unicode="," horiz-adv-x="232" 
d="M163 23q0 -33 -16.5 -61.5t-41 -52t-54.5 -43t-57 -34.5l-24 19q18 10 36.5 23.5t33 30t24 35t9.5 38.5q0 21 -10.5 36.5t-23.5 26t-23.5 16t-10.5 6.5q0 23 21.5 38.5t47.5 15.5q17 0 33 -7t28.5 -19.5t20 -30t7.5 -37.5z" />
    <glyph glyph-name="hyphen" unicode="-" horiz-adv-x="328" 
d="M33 208l3 53h258l3 -53h-264z" />
    <glyph glyph-name="period" unicode="." horiz-adv-x="232" 
d="M161 52q0 -26 -18.5 -46.5t-47.5 -20.5t-48.5 20.5t-19.5 46.5t19.5 45.5t48.5 19.5t47.5 -19.5t18.5 -45.5z" />
    <glyph glyph-name="slash" unicode="/" horiz-adv-x="279" 
d="M222 665h48l-215 -877h-48z" />
    <glyph glyph-name="zero" unicode="0" horiz-adv-x="503" 
d="M460 269q0 -54 -16.5 -105t-46.5 -91t-72.5 -64t-94.5 -24q-41 0 -76.5 14.5t-61 42t-40 67t-14.5 90.5q0 54 16.5 105t46.5 91t72.5 64t94.5 24q41 0 76.5 -14.5t61 -42t40 -67t14.5 -90.5zM395 269q0 35 -10 63.5t-27 48.5t-41 31.5t-52 11.5q-43 0 -74 -22
t-50.5 -55.5t-28.5 -73t-9 -74.5q0 -34 10 -63t27 -49t41 -31.5t52 -11.5q43 0 74 22t50.5 55.5t28.5 73t9 74.5z" />
    <glyph glyph-name="one" unicode="1" horiz-adv-x="379" 
d="M26 0l3 35l75 11q14 2 19.5 8.5t6.5 14.5l46 343l-109 16l7 30l192 19l-55 -408q-1 -8 3 -14.5t17 -8.5l77 -11l3 -35h-285z" />
    <glyph glyph-name="two" unicode="2" horiz-adv-x="453" 
d="M356 0h-346l3 62q61 43 112 77.5t88 65.5t58 59.5t21 59.5q0 45 -31.5 69t-74.5 24q-33 0 -68.5 -17t-60.5 -39l-7 24q17 20 40 37t49 30t53.5 20.5t53.5 7.5q27 0 52.5 -8t45 -23.5t31 -38.5t11.5 -52q0 -44 -24 -80.5t-65 -69.5t-95.5 -66t-115.5 -69l-1 -5h16
q68 0 110 2t67.5 7.5t38.5 16t24 28.5l24 39h43z" />
    <glyph glyph-name="three" unicode="3" horiz-adv-x="418" 
d="M364 28q0 -48 -25 -90t-64 -73t-86.5 -49t-92.5 -18q-15 0 -37.5 3.5t-43 11.5t-35.5 22t-15 34q0 21 15 36.5t36 15.5q15 0 28 -6.5t23 -17.5t16 -25t7 -28q15 -4 33 -4q32 0 58.5 12.5t46.5 34t31 49.5t11 58q0 55 -32.5 89t-88.5 34q-18 0 -35.5 -4t-34.5 -11l-10 25
q25 15 59 35.5t64.5 46t52 55t21.5 62.5q0 44 -26.5 68t-68.5 24q-36 0 -70.5 -17t-66.5 -39l-7 25q42 38 92 66t113 28q27 0 52.5 -8t45.5 -23t32 -37.5t12 -52.5q0 -33 -18.5 -63t-46.5 -55t-60.5 -45t-60.5 -33v-2q17 3 35 3q30 0 55.5 -10t44.5 -28t30 -43.5t11 -55.5z
" />
    <glyph glyph-name="four" unicode="4" horiz-adv-x="479" 
d="M346 40l-29 -224h-81l29 224h-278v38l389 410h29l-52 -400h115l-14 -48h-108zM312 356h-5l-254 -268h219z" />
    <glyph glyph-name="five" unicode="5" horiz-adv-x="435" 
d="M402 385h-232l-49 -131q38 -15 79 -36t74.5 -50t55.5 -66t22 -84q0 -51 -21.5 -92t-57 -69.5t-81 -43.5t-92.5 -15q-15 0 -38 3t-44.5 11t-36.5 21.5t-15 34.5q0 22 15.5 37t36.5 15q31 0 50 -23.5t21 -52.5q13 -4 32 -4q29 0 56 9t48 26.5t34 42t13 55.5q0 42 -23 75.5
t-57 60.5t-73.5 47t-71.5 34l108 278h261z" />
    <glyph glyph-name="six" unicode="6" horiz-adv-x="517" 
d="M469 228q0 -51 -20 -95t-52.5 -76.5t-73.5 -51.5t-84 -19t-79.5 18t-62 49.5t-40 74.5t-14.5 93q0 57 20 110t55 99.5t82.5 85t102.5 67.5t115.5 47.5t120.5 23.5l9 -31q-158 -34 -263 -115.5t-158 -205.5h12q37 50 84.5 77.5t90.5 27.5q30 0 58 -11t49.5 -33.5t34.5 -56
t13 -78.5zM385 218q0 32 -9 58.5t-23.5 45.5t-33 30t-38.5 11q-25 0 -46.5 -8.5t-39.5 -23t-32 -33.5t-25 -40q-4 -17 -7.5 -34t-3.5 -34q0 -34 7 -64.5t21.5 -54t36 -37t50.5 -13.5q30 0 56 15.5t45.5 42.5t30.5 63t11 76z" />
    <glyph glyph-name="seven" unicode="7" horiz-adv-x="452" 
d="M64 -184h-55l365 571l1 5h-110q-48 0 -75 -0.5t-41.5 -3t-20 -7.5t-10.5 -14l-36 -60h-33l42 161h356l-1 -46z" />
    <glyph glyph-name="eight" unicode="8" horiz-adv-x="498" 
d="M446 162q0 -45 -17 -78.5t-46 -55t-67 -32t-79 -10.5q-36 0 -71 11.5t-62 32.5t-44 52t-17 70q0 35 12.5 62t33.5 46.5t49 33t58 22.5v3q-42 25 -67 62t-26 85q0 41 15.5 72.5t42 54t61.5 34t74 11.5q32 0 62 -11t53.5 -31t37 -49.5t13.5 -65.5q0 -32 -10 -56t-27.5 -42
t-41.5 -30.5t-53 -22.5l1 -3q24 -14 44.5 -30.5t36.5 -36.5t25 -44.5t9 -53.5zM381 485q0 23 -6 45.5t-18 39.5t-31 27.5t-45 10.5q-47 0 -72.5 -29t-25.5 -76q0 -26 10.5 -48.5t28 -42t39.5 -36t45 -30.5q42 24 58.5 58t16.5 81zM366 126q0 31 -14 56.5t-36 47t-48 39
t-50 32.5q-42 -26 -67.5 -63.5t-25.5 -89.5q0 -58 34 -93.5t94 -35.5q51 0 81.5 26.5t31.5 80.5z" />
    <glyph glyph-name="nine" unicode="9" horiz-adv-x="517" 
d="M48 239q0 51 20 95t52.5 76.5t73.5 51.5t84 19q44 0 80 -18t61.5 -49.5t40 -74.5t14.5 -93q0 -57 -20 -110t-55 -99.5t-82.5 -85t-102.5 -67.5t-115.5 -47.5t-120.5 -23.5l-9 31q158 34 263 115.5t158 205.5h-12q-37 -50 -84.5 -77.5t-90.5 -27.5q-30 0 -58 11
t-49.5 33.5t-34.5 56t-13 78.5zM132 249q0 -31 9 -58t23.5 -46t33 -30t38.5 -11q25 0 46.5 8.5t39.5 23t32 33.5t25 40q4 17 7.5 34t3.5 34q0 34 -7 64.5t-21.5 54t-36 37t-50.5 13.5q-30 0 -56 -15.5t-45.5 -42.5t-30.5 -62.5t-11 -76.5z" />
    <glyph glyph-name="colon" unicode=":" horiz-adv-x="232" 
d="M202 358q0 -26 -18.5 -46.5t-47.5 -20.5t-48.5 20.5t-19.5 46.5t19.5 45.5t48.5 19.5t47.5 -19.5t18.5 -45.5zM161 52q0 -26 -18.5 -46.5t-47.5 -20.5t-48.5 20.5t-19.5 46.5t19.5 45.5t48.5 19.5t47.5 -19.5t18.5 -45.5z" />
    <glyph glyph-name="semicolon" unicode=";" horiz-adv-x="232" 
d="M203 358q0 -26 -18.5 -46.5t-47.5 -20.5t-48.5 20.5t-19.5 46.5t19.5 45.5t48.5 19.5t47.5 -19.5t18.5 -45.5zM163 23q0 -33 -16.5 -61.5t-41 -52t-54.5 -43t-57 -34.5l-24 19q18 10 36.5 23.5t33 30t24 35t9.5 38.5q0 21 -10.5 36.5t-23.5 26t-23.5 16t-10.5 6.5
q0 23 21.5 38.5t47.5 15.5q17 0 33 -7t28.5 -19.5t20 -30t7.5 -37.5z" />
    <glyph glyph-name="less" unicode="&#x3c;" horiz-adv-x="480" 
d="M28 222v26l402 189l13 -48l-327 -152v-3l327 -153l-13 -48z" />
    <glyph glyph-name="equal" unicode="=" horiz-adv-x="480" 
d="M44 295l-3 53h398l-3 -53h-392zM41 121l3 53h392l3 -53h-398z" />
    <glyph glyph-name="greater" unicode="&#x3e;" horiz-adv-x="480" 
d="M50 33l-13 48l327 153v3l-327 152l13 48l402 -189v-26z" />
    <glyph glyph-name="question" unicode="?" horiz-adv-x="373" 
d="M360 474q0 -35 -11 -58.5t-28.5 -39t-39.5 -25t-44 -16.5q-19 -6 -36.5 -12.5t-31 -15t-21.5 -21t-8 -30.5q0 -20 9 -37.5t24 -36.5l-30 2q-7 7 -16 18t-17.5 24.5t-14.5 29.5t-6 33q0 29 11.5 48.5t29.5 33t41 22.5t46 16q19 6 37 12t31.5 13t21.5 17t8 23
q0 16 -12.5 31t-34.5 27t-51.5 19t-62.5 7q-15 0 -27.5 -1t-23.5 -3q-7 10 -7 25q0 25 19.5 42t59.5 17q39 0 73 -14t58.5 -37t39 -52.5t14.5 -60.5zM185 45q0 -24 -16.5 -42t-42.5 -18t-43.5 18t-17.5 42q0 23 17.5 40.5t43.5 17.5t42.5 -17.5t16.5 -40.5z" />
    <glyph glyph-name="at" unicode="@" horiz-adv-x="834" 
d="M508 247h-14q-21 -40 -43 -76t-44 -62.5t-42.5 -42t-40.5 -15.5q-21 0 -39.5 9t-32.5 22.5t-22.5 30t-8.5 31.5q0 29 9.5 67t25 76t36.5 72.5t43 56.5q26 26 54 39t54 13q32 0 57 -18.5t36 -54.5h11l22 59h53l-58 -163l-18 -163q-5 -23 7 -37.5t45 -14.5q32 0 60 15
t49.5 42t35.5 65t17 85q5 67 -17 124t-64.5 99t-102 66.5t-128.5 26.5t-131.5 -23t-111 -70t-78.5 -106t-35 -130q-5 -79 18.5 -144.5t67 -112.5t103.5 -73t127 -26q32 0 63 5.5t60 13.5l11 -36q-36 -12 -67.5 -17.5t-68.5 -5.5q-76 0 -144 29t-117.5 81.5t-76 125.5
t-20.5 161q5 78 39 146.5t88.5 118t125.5 77.5t149 25t145.5 -30.5t115.5 -74.5t73 -111.5t20 -140.5q-4 -60 -25 -105t-51.5 -76t-68.5 -46.5t-77 -15.5q-44 0 -67 10t-31.5 24.5t-7.5 31t5 29.5zM513 353q-4 9 -13.5 20t-23 21.5t-29.5 17.5t-33 7q-24 0 -36 -12
q-13 -13 -27 -43.5t-25.5 -67t-18.5 -73.5t-7 -64q0 -14 5.5 -24.5t13 -17t16.5 -10t16 -3.5q10 0 27.5 19.5t38 49t41.5 65t39 66.5q8 14 12 30t4 19z" />
    <glyph glyph-name="A" unicode="A" horiz-adv-x="591" 
d="M310 0l3 35l52 9q16 3 18.5 13t0.5 22l-22 146h-184l-33 -85q-18 -46 -16 -67.5t23 -26.5l45 -11l3 -35h-223l3 35l37 12q23 7 35.5 20t26.5 45l207 469v33l101 25l98 -560q3 -14 8.5 -21.5t24.5 -11.5l52 -11l3 -35h-263zM314 541h-5l-114 -274h160z" />
    <glyph glyph-name="B" unicode="B" horiz-adv-x="577" 
d="M537 177q0 -35 -12.5 -62t-35.5 -50q-32 -32 -85.5 -48.5t-118.5 -16.5h-274l3 35l55 11q23 4 26 24l65 485q2 9 -2 15t-18 9l-51 11l-3 35h246q60 0 100.5 -12t65.5 -32t36 -46t11 -55q0 -31 -12.5 -56.5t-34 -45t-49 -34t-57.5 -22.5l5 -5q66 -13 103 -51t37 -89z
M445 462q0 31 -11.5 54t-32.5 38.5t-49.5 23.5t-62.5 8h-28l-34 -246h63q33 0 61 8t49 23.5t33 38.5t12 52zM430 167q0 30 -11.5 55t-31.5 43t-46.5 27.5t-57.5 9.5h-61l-33 -248l68 -15h35q30 0 55 9.5t43.5 26.5t29 40.5t10.5 51.5z" />
    <glyph glyph-name="C" unicode="C" horiz-adv-x="618" 
d="M521 0l-51 9q-29 -10 -66.5 -17t-68.5 -7q-71 0 -124.5 20t-89 56.5t-53.5 88.5t-18 115q0 75 28.5 145t81.5 123q48 48 110.5 77t136.5 29q18 0 38 -2t39.5 -5t36 -6.5t26.5 -6.5l72 15l-28 -205h-45l-12 132q-24 15 -54 25.5t-75 10.5q-49 0 -94.5 -24t-80.5 -68
t-56.5 -107t-21.5 -140q0 -60 17.5 -107t49.5 -79q20 -20 52 -32.5t68 -12.5q62 0 117 30l60 136h52z" />
    <glyph glyph-name="D" unicode="D" horiz-adv-x="659" 
d="M632 354q0 -72 -23.5 -132.5t-75.5 -111.5q-48 -48 -124.5 -79t-176.5 -31h-221l3 35l55 11q23 4 26 24l65 485q2 9 -2 15t-18 9l-51 11l-3 35h249q69 0 124.5 -20t93.5 -55.5t58.5 -85.5t20.5 -110zM528 359q0 50 -13 91.5t-39.5 71.5t-67 47t-94.5 17h-54l-71 -532
l69 -15q58 2 107.5 24t85.5 63t56.5 99.5t20.5 133.5z" />
    <glyph glyph-name="E" unicode="E" horiz-adv-x="578" 
d="M494 0h-483l3 35l55 11q23 4 26 24l66 485q2 9 -2 15t-18 9l-51 11l-3 35h490l-25 -186h-49l-11 97q-2 17 -7.5 27t-25.5 15t-59.5 6.5t-108.5 1.5h-30l-34 -249h21q29 0 47 0.5t29 2.5t16.5 6.5t9.5 12.5l32 67h39l-51 -215h-38l5 64q1 7 -2 11.5t-13 7.5t-29.5 4
t-51.5 1h-19l-35 -260h24q75 0 118 1.5t66 6.5t32.5 15t16.5 27l39 92h54z" />
    <glyph glyph-name="F" unicode="F" horiz-adv-x="563" 
d="M493 439l-11 97q-2 18 -8 28t-25.5 15t-59 6t-109.5 1h-19l-34 -255h32q29 0 46.5 0.5t28.5 2.5t16.5 6.5t9.5 12.5l33 67h38l-51 -215h-37l5 64q1 7 -2 11.5t-13.5 7.5t-30 4t-51.5 1h-30l-30 -223q-3 -19 20 -24l52 -11l3 -35h-255l3 35l55 11q23 4 26 24l66 485
q2 9 -2 15t-18 9l-51 11l-3 35h480l-25 -186h-49z" />
    <glyph glyph-name="G" unicode="G" horiz-adv-x="663" 
d="M631 242l-48 -11q-24 -6 -27 -24l-22 -144l58 -11l2 -28q-21 -6 -52 -12.5t-66.5 -12.5t-73 -10t-71.5 -4q-71 0 -123.5 20.5t-87.5 57.5t-52.5 88.5t-17.5 113.5q0 75 28.5 145t81.5 123q48 48 110.5 77t136.5 29q18 0 38 -2t39.5 -5t36 -6.5t26.5 -6.5l72 15l-28 -205
h-45l-12 132q-24 15 -54 25.5t-75 10.5q-49 0 -94.5 -24t-80.5 -68t-56.5 -107t-21.5 -140q0 -60 17.5 -107t49.5 -79q20 -20 52 -32.5t68 -12.5q52 0 100 21l23 159q2 11 -2.5 16.5t-18.5 7.5l-55 11l-3 35h251z" />
    <glyph glyph-name="H" unicode="H" horiz-adv-x="721" 
d="M396 0l3 35l55 11q23 4 26 24l31 229h-288l-30 -229q-3 -19 20 -24l51 -11l3 -35h-254l3 35l55 11q23 4 26 24l65 485q2 9 -2 15t-18 9l-50 11l-3 35h253l-3 -35l-55 -11q-23 -4 -26 -24l-28 -214h287l29 214q2 11 -2 16t-18 8l-51 11l-3 35h254l-4 -35l-54 -11
q-23 -4 -26 -24l-66 -485q-3 -19 20 -24l51 -11l3 -35h-254z" />
    <glyph glyph-name="I" unicode="I" horiz-adv-x="359" 
d="M14 0l3 35l65 11q23 4 26 24l66 485q2 9 -2 15.5t-18 8.5l-61 11l-3 35h273l-3 -35l-65 -11q-23 -5 -26 -24l-65 -485q-3 -20 20 -24l61 -11l3 -35h-274z" />
    <glyph glyph-name="J" unicode="J" horiz-adv-x="407" 
d="M429 590l-64 -11q-23 -4 -26 -24l-40 -305q-9 -71 -28.5 -121.5t-46.5 -82.5t-61.5 -46.5t-73.5 -14.5q-46 0 -78 17.5t-32 49.5q0 20 13.5 33t37.5 13q27 0 47 -17t26 -63h1q17 4 31 13.5t25.5 32.5t21 64.5t18.5 108.5l43 318q2 9 -2 15.5t-18 8.5l-71 11l-3 35h283z
" />
    <glyph glyph-name="K" unicode="K" horiz-adv-x="638" 
d="M375 0l3 35l35 11q14 4 2 24l-131 236l-70 -59l-23 -177q-3 -19 20 -24l51 -11l3 -35h-254l3 35l55 11q23 4 26 24l66 485q2 9 -2 15t-18 9l-51 11l-3 35h254l-4 -35l-54 -11q-23 -4 -26 -24l-34 -251l183 163q38 36 61 58t23 35q0 9 -6 14t-23 10l-27 7l-3 35h248
l-3 -34l-16 -2q-32 -5 -60.5 -22t-67.5 -49l-179 -159l164 -276q8 -13 14 -21t12 -12t12.5 -5.5t14.5 -3.5l29 -7l3 -35h-227z" />
    <glyph glyph-name="L" unicode="L" horiz-adv-x="558" 
d="M473 0h-462l3 35l55 11q23 4 26 24l64 485q3 20 -20 24l-52 11l-3 35h263l-3 -35l-63 -11q-14 -2 -19 -8.5t-7 -15.5l-68 -516h29q64 0 101.5 1.5t59 7t30.5 15.5t16 26l46 111h52z" />
    <glyph glyph-name="M" unicode="M" horiz-adv-x="797" 
d="M490 0l3 35l58 12q8 2 13.5 10t10.5 29t10 58t11 95l32 312h-5l-256 -531h-71l-80 541h-5l-52 -318q-11 -68 -16.5 -106.5t-6 -58t3 -24.5t10.5 -7l55 -12l3 -35h-217l3 35l58 12q8 2 14.5 6.5t13.5 24t15.5 58t19.5 107.5l52 315q3 19 -17 22l-60 10l-3 35h214l71 -489
h5l235 489h204l-3 -35l-64 -11q-24 -4 -26 -24l-32 -316q-7 -61 -9 -98.5t-0.5 -57.5t6.5 -27t12 -9l54 -12l3 -35h-267z" />
    <glyph glyph-name="N" unicode="N" horiz-adv-x="716" 
d="M734 590l-48 -8q-14 -3 -24 -9t-17.5 -26t-14.5 -58.5t-16 -106.5l-53 -391h-54l-289 535h-5l-37 -283q-9 -67 -13 -106t-2.5 -59t9.5 -26t23 -9l47 -8l3 -35h-233l3 35l48 8q15 3 24.5 10t17 27t14 58.5t15.5 104.5l33 246q5 44 -1.5 63t-29.5 26l-45 12l-3 35h185
l260 -483h5l33 240q9 69 13.5 108t3 58.5t-9 25t-22.5 8.5l-48 8l-3 35h234z" />
    <glyph glyph-name="O" unicode="O" horiz-adv-x="695" 
d="M668 348q0 -77 -26.5 -146t-76.5 -120q-43 -45 -101 -71t-129 -26q-64 0 -116.5 22t-90 60.5t-58 92t-20.5 116.5q0 72 22.5 136t64.5 114q44 52 106 82.5t140 30.5q64 0 116.5 -22t90 -60.5t58 -92t20.5 -116.5zM566 363q0 54 -14 102.5t-46 80.5q-24 24 -56 37.5
t-77 13.5q-39 0 -70.5 -15.5t-56 -42t-42.5 -60.5t-29.5 -71t-17 -74.5t-5.5 -70.5q0 -54 14 -102.5t46 -80.5q24 -24 56 -37.5t77 -13.5q39 0 70.5 15.5t56 42t42.5 60.5t29.5 71t17 74.5t5.5 70.5z" />
    <glyph glyph-name="P" unicode="P" horiz-adv-x="562" 
d="M555 453q0 -49 -22 -86t-58 -62t-82.5 -37.5t-95.5 -12.5q-20 0 -40 2t-40 5l-26 -192q-3 -21 20 -24l72 -11l3 -35h-275l3 35l55 11q23 4 26 24l66 485q2 9 -2 15t-18 9l-51 11l-3 35h244q51 0 92.5 -12.5t71 -35.5t45 -54.5t15.5 -69.5zM454 455q0 30 -10.5 54
t-29 41.5t-44.5 27t-58 9.5h-50l-39 -285q17 -5 36 -7.5t35 -2.5q71 0 115.5 42.5t44.5 120.5z" />
    <glyph glyph-name="Q" unicode="Q" horiz-adv-x="698" 
d="M631 -179q-20 -5 -48 -8.5t-68 -3.5q-57 0 -98 9t-72.5 31t-56.5 58.5t-51 92.5q-43 14 -77.5 40.5t-59 62t-37.5 79.5t-13 94q0 72 22.5 136t64.5 114q44 52 106 82.5t140 30.5q64 0 116.5 -22t90 -60.5t58 -92t20.5 -116.5q0 -77 -26.5 -146t-76.5 -120
q-39 -42 -90.5 -66.5t-114.5 -29.5q20 -38 46 -64t59.5 -42t74.5 -22t91 -4v-33zM566 363q0 54 -14 102.5t-46 80.5q-24 24 -56 37.5t-77 13.5q-39 0 -70.5 -15.5t-56 -42t-42.5 -60.5t-29.5 -71t-17 -74.5t-5.5 -70.5q0 -54 14 -102.5t46 -80.5q24 -24 56 -37.5t77 -13.5
q39 0 70.5 15.5t56 42t42.5 60.5t29.5 71t17 74.5t5.5 70.5z" />
    <glyph glyph-name="R" unicode="R" horiz-adv-x="606" 
d="M425 0l-34 69l-102 207l-69 3l-29 -209q-3 -20 20 -24l60 -11l3 -35h-262l3 35l54 11q23 4 26 24l64 485q3 19 -20 24l-51 11l-3 35h265q52 0 91 -11.5t65 -31.5t39 -47t13 -58q0 -74 -49.5 -121.5t-127.5 -67.5l104 -188q10 -20 18.5 -31t15 -16.5t12.5 -7t11 -3.5
l28 -7l3 -35h-148zM452 459q0 59 -37.5 93t-106.5 34h-49l-33 -261l71 -14q69 8 112 44.5t43 103.5z" />
    <glyph glyph-name="S" unicode="S" horiz-adv-x="502" 
d="M443 171q0 -41 -18.5 -75.5t-50.5 -59t-75 -38t-93 -13.5q-59 0 -103.5 8t-83.5 21l12 179h41l28 -137q23 -12 53 -19.5t71 -7.5q63 0 96.5 30t34.5 78q0 26 -9.5 46t-27 38t-42 34.5t-53.5 34.5q-33 20 -59.5 39t-44.5 40t-27.5 47t-9.5 60q0 36 18 65.5t47 51.5
t66.5 34t76.5 12q26 0 45 -1t35 -3.5t30 -5.5t30 -6q0 1 8 2.5t18 3.5l26 6l-26 -192h-44l-13 124q-26 12 -56.5 19.5t-68.5 7.5q-19 0 -38 -5.5t-34 -16.5t-24.5 -26t-9.5 -35q0 -26 8.5 -47t26 -39t42.5 -35t56 -35q28 -16 54 -34.5t45.5 -40t31 -48.5t11.5 -61z" />
    <glyph glyph-name="T" unicode="T" horiz-adv-x="620" 
d="M562 429l-12 97q-2 16 -6.5 27t-19 18t-43 10.5t-77.5 4.5h-2l-68 -516q-3 -20 20 -24l69 -11l3 -35h-292l4 35l74 11q13 2 18.5 8.5t7.5 15.5l67 516h-1q-46 0 -74.5 -1.5t-45.5 -6.5t-26 -15t-17 -27l-41 -107h-52l42 196h544l-26 -196h-46z" />
    <glyph glyph-name="U" unicode="U" horiz-adv-x="714" 
d="M734 590l-48 -8q-14 -3 -23.5 -9t-17 -26t-14.5 -58.5t-17 -106.5l-25 -183q-8 -55 -30.5 -95.5t-56 -67t-77 -39t-93.5 -12.5q-48 0 -89 11.5t-71 35t-47.5 59t-17.5 84.5q0 14 1 30.5t3 28.5l45 321q2 9 -2 15t-18 9l-51 11l-3 35h254l-3 -35l-55 -11q-23 -4 -26 -24
l-42 -305q-2 -11 -3.5 -26.5t-1.5 -29.5q0 -42 12.5 -71t34 -47.5t51.5 -27t65 -8.5q34 0 63.5 8.5t53 28t39.5 52.5t23 81l23 172q10 69 14 107.5t2.5 58.5t-9.5 25.5t-23 8.5l-47 8l-3 35h233z" />
    <glyph glyph-name="V" unicode="V" horiz-adv-x="590" 
d="M646 590l-39 -12q-23 -7 -35.5 -20t-26.5 -45l-237 -513h-83l-104 546q-2 14 -8 21.5t-25 11.5l-52 11l-3 35h263l-3 -35l-52 -9q-16 -3 -18.5 -13t-0.5 -22l77 -452h5l190 435q8 17 3.5 31t-25.5 19l-43 11l-3 35h223z" />
    <glyph glyph-name="W" unicode="W" horiz-adv-x="866" 
d="M922 590l-39 -12q-22 -7 -37.5 -22t-26.5 -43l-194 -513h-92l-61 397h-5l-175 -397h-90l-81 546q-2 14 -8 21.5t-25 11.5l-52 11l-3 35h263l-3 -35l-52 -9q-16 -3 -18.5 -13.5t-0.5 -21.5l57 -458l4 -1l169 391l-11 68q-2 14 -8.5 21.5t-25.5 11.5l-52 11l-3 35h262
l-3 -35l-52 -9q-16 -3 -19 -13t-1 -22l69 -456l5 -1l159 440q5 14 1 29.5t-25 20.5l-43 11l-3 35h223z" />
    <glyph glyph-name="X" unicode="X" horiz-adv-x="629" 
d="M341 0l4 35l41 6q26 4 26 21t-20 55l-82 160h-4l-145 -181q-14 -17 -12 -31t31 -21l38 -9l3 -35h-237l3 35l28 7q27 7 50.5 21.5t51.5 48.5l168 202l-111 199q-9 16 -15.5 26.5t-13 18t-14.5 12.5t-19 8l-39 12l-2 35h258l-4 -35l-41 -6q-26 -4 -26 -21t20 -55l68 -136h5
l125 157q14 17 12 31t-31 21l-38 9l-3 35h237l-3 -35l-28 -7q-13 -3 -25.5 -8t-24.5 -13t-25 -20t-27 -29l-148 -178l124 -223q9 -16 15.5 -26.5t13.5 -18t14.5 -12.5t18.5 -8l39 -12l2 -35h-258z" />
    <glyph glyph-name="Y" unicode="Y" horiz-adv-x="593" 
d="M645 590l-28 -7q-27 -7 -49 -20t-47 -50l-166 -245l-26 -198q-3 -20 20 -24l69 -11l3 -35h-292l4 35l74 11q13 2 18.5 8.5t7.5 15.5l26 198l-120 245q-16 32 -29 45t-35 20l-39 12l-2 35h258l-4 -35l-41 -6q-25 -4 -25 -23t19 -57l88 -193h5l143 218q11 18 10.5 32
t-29.5 20l-44 9l-3 35h237z" />
    <glyph glyph-name="Z" unicode="Z" horiz-adv-x="563" 
d="M479 0h-476l5 36l459 545v5h-109q-62 0 -97.5 -3.5t-55 -11.5t-29 -21.5t-19.5 -33.5l-31 -83h-44l25 192h478l-5 -37l-460 -545v-5l105 1q66 1 104.5 4t59.5 9.5t31 18t19 29.5l35 88h51z" />
    <glyph glyph-name="bracketleft" unicode="[" horiz-adv-x="368" 
d="M94 -222v873h254v-44h-203v-785h203v-44h-254z" />
    <glyph glyph-name="backslash" unicode="\" horiz-adv-x="279" 
d="M223 -212l-215 877h48l215 -877h-48z" />
    <glyph glyph-name="bracketright" unicode="]" horiz-adv-x="368" 
d="M20 -178h203v785h-203v44h254v-873h-254v44z" />
    <glyph glyph-name="asciicircum" unicode="^" 
d="M323 510l-85 128h-2l-123 -128h-22l107 187h92l55 -187h-22z" />
    <glyph glyph-name="underscore" unicode="_" horiz-adv-x="470" 
d="M-39 -53l3 53h482l3 -53h-488z" />
    <glyph glyph-name="grave" unicode="`" 
d="M253 510l-144 187h100l66 -187h-22z" />
    <glyph glyph-name="a" unicode="a" horiz-adv-x="473" 
d="M342 395l20 69h71l-50 -169l-53 -242l29 -10l79 60l17 -18q-9 -18 -24.5 -35.5t-33.5 -32t-36.5 -23.5t-33.5 -9q-8 0 -20.5 2.5t-24.5 7t-21 10.5t-9 12q0 5 5 22.5t12.5 43.5t17 57t19.5 62h-8q-57 -108 -97.5 -162.5t-85.5 -54.5q-38 0 -66.5 31.5t-28.5 92.5
q0 40 9 81t24 79t35.5 70.5t43.5 55.5q30 30 64.5 50t70.5 20q15 0 26.5 -6.5t19.5 -16.5t13.5 -22.5t9.5 -24.5h6zM328 335q-8 13 -20 27.5t-27 26.5t-31.5 20t-33.5 8q-10 0 -17.5 -4.5t-15.5 -12.5q-12 -12 -26.5 -42.5t-27 -70t-21.5 -81.5t-9 -77q0 -39 13.5 -57.5
t37.5 -18.5q13 0 26.5 10t32 34.5t43.5 65.5t60 102z" />
    <glyph glyph-name="b" unicode="b" horiz-adv-x="448" 
d="M413 320q0 -81 -25 -150.5t-71 -115.5q-30 -30 -70.5 -50.5t-80.5 -20.5q-19 0 -42 8t-43 18.5t-33 21t-12 15.5l101 527q3 19 -6 23l-63 28l4 25l167 48l-55 -233l-52 -217h8q57 108 97.5 162.5t85.5 54.5q19 0 35.5 -11t28.5 -30.5t19 -46t7 -56.5zM334 300
q0 39 -11 67.5t-35 28.5q-13 0 -26.5 -10t-32 -34.5t-43.5 -65t-60 -102.5l-22 -98q13 -13 28.5 -24.5t31.5 -20.5t31 -14.5t27 -5.5q7 0 15 4.5t16 12.5q15 15 30 45t26 67t18 76.5t7 73.5z" />
    <glyph glyph-name="c" unicode="c" horiz-adv-x="383" 
d="M298 393q-2 3 -11 7.5t-21 8.5t-25.5 7t-25.5 3q-5 0 -12 -5.5t-12 -10.5q-13 -13 -27.5 -40.5t-26.5 -62.5t-20 -74t-8 -74q0 -51 25.5 -79t61.5 -28q22 0 49.5 14.5t69.5 44.5l13 -18q-40 -47 -76 -74t-86 -27q-30 0 -55 12t-43 33t-28 49.5t-10 61.5q0 56 19 113.5
t51.5 104t76.5 76t94 29.5q24 0 44 -7t35 -18.5t23.5 -26.5t8.5 -32q0 -23 -14.5 -40t-34.5 -17q-43 0 -43 40q0 9 2.5 17t5.5 13z" />
    <glyph glyph-name="d" unicode="d" horiz-adv-x="473" 
d="M455 85q-9 -18 -24.5 -35.5t-33.5 -32t-36.5 -23.5t-33.5 -9q-8 0 -20.5 2.5t-24.5 7t-21 10.5t-9 12q0 5 5 22.5t12.5 43.5t17 57t19.5 62h-8q-57 -108 -97.5 -162.5t-85.5 -54.5q-38 0 -66.5 31.5t-28.5 92.5q0 40 9 81t24 79t35.5 70.5t43.5 55.5q30 30 64.5 50
t70.5 20q15 0 26.5 -6.5t19.5 -16.5t13.5 -22.5t9.5 -24.5h6l34 178q3 19 -6 23l-63 28l4 25l167 48l-98 -413l-50 -231l29 -10l79 60zM328 335q-8 13 -20 27.5t-27 26.5t-31.5 20t-33.5 8q-10 0 -17.5 -4.5t-15.5 -12.5q-12 -12 -26.5 -42.5t-27 -70t-21.5 -81.5t-9 -77
q0 -39 13.5 -57.5t37.5 -18.5q13 0 26.5 10t32 34.5t43.5 65.5t60 102z" />
    <glyph glyph-name="e" unicode="e" horiz-adv-x="378" 
d="M109 152q0 -51 25.5 -79t61.5 -28q22 0 49.5 14.5t69.5 44.5l13 -18q-40 -47 -76 -74t-86 -27q-30 0 -55 12t-43 33t-28 49.5t-10 61.5q0 58 19.5 116t51.5 104t75 74.5t89 28.5q49 0 78 -27.5t29 -66.5q0 -26 -14 -46t-45 -40.5t-81 -46t-123 -61.5v-24zM112 205
q59 31 96 53.5t57.5 41.5t28 35.5t7.5 35.5q0 9 -9.5 17t-23 14t-26.5 9t-21 3q-14 0 -22 -3.5t-13 -8.5q-18 -18 -40 -70t-36 -127h2z" />
    <glyph glyph-name="f" unicode="f" horiz-adv-x="269" 
d="M434 615q0 -23 -13.5 -39t-35.5 -16q-26 0 -42 20t-22 51l-81 -14q-14 -32 -25 -74.5t-18 -94.5h114l4 -48h-127l-54 -286q-9 -49 -20 -97t-24.5 -90t-28.5 -74.5t-32 -50.5q-23 -24 -53.5 -36t-60.5 -12q-32 0 -55 17t-23 46q0 24 13.5 39.5t36.5 15.5q27 0 42 -20.5
t18 -49.5l55 23q5 10 10.5 31t11.5 47.5t12 55t11 55.5l69 382l-91 4l3 29l97 23q4 23 11 47.5t17 48.5t23 45.5t29 37.5q26 26 57 41t76 15t70.5 -22.5t25.5 -49.5z" />
    <glyph glyph-name="g" unicode="g" horiz-adv-x="434" 
d="M341 395v-10q20 -24 29 -45t9 -49q0 -34 -15.5 -62.5t-39.5 -49t-53.5 -32t-57.5 -11.5q-32 0 -65 12q-24 -5 -37.5 -21t-13.5 -29q0 -19 17.5 -30t64.5 -28l41 -15q29 -10 57 -22t50 -27t35 -35t13 -48q0 -25 -16.5 -50t-48.5 -45t-79.5 -32.5t-110.5 -12.5
q-36 0 -69 7.5t-58 23t-40 38t-15 52.5q0 23 14 42.5t34.5 35t44.5 27t44 18.5v5q-23 13 -36.5 28.5t-13.5 38.5q0 31 26.5 54t69.5 36v5q-29 20 -47 53.5t-18 71.5q0 41 16.5 73t44 55t63 35t73.5 12q40 0 69 -7t49 -12h99l-20 -74zM310 343q0 15 -7 29t-19 25t-26.5 18
t-29.5 7q-20 0 -29 -5t-16 -12q-25 -25 -39.5 -65t-13.5 -78q2 -29 10 -51t15 -29q16 -16 35 -16q20 0 38.5 10t33.5 25q24 25 36 65t12 77zM310 -129q0 13 -9 24.5t-25 21t-36.5 18t-43.5 16.5q-31 11 -53.5 18.5t-41.5 16.5q-36 -18 -64.5 -42.5t-28.5 -55.5
q0 -20 12.5 -37t35 -30t53 -20.5t65.5 -7.5q26 0 50.5 5.5t43.5 15.5t30.5 24.5t11.5 32.5z" />
    <glyph glyph-name="h" unicode="h" horiz-adv-x="494" 
d="M449 85q-9 -18 -24.5 -35.5t-33.5 -32t-36.5 -23.5t-33.5 -9q-8 0 -20.5 2.5t-24 7t-20 10.5t-8.5 12q0 9 5.5 31t13 48.5t16.5 55t16 51.5q6 21 13 42.5t13 41.5t9.5 36t3.5 26q0 16 -14 29.5t-32 13.5q-23 0 -64 -64.5t-102 -192.5l-27 -140l-82 5l36 147l84 426
q3 19 -6 23l-63 28l4 25l167 48l-56 -234l-65 -280h9q47 101 79 159.5t59 85.5q21 21 39.5 28.5t38.5 7.5q13 0 25.5 -5.5t22.5 -14.5t16 -21.5t6 -27.5q0 -29 -12 -79t-29 -105q-13 -44 -26 -88.5t-21 -70.5l28 -9l79 60z" />
    <glyph glyph-name="i" unicode="i" horiz-adv-x="253" 
d="M270 617q0 -30 -16.5 -50t-37.5 -20q-26 0 -39.5 15.5t-13.5 38.5q0 30 16.5 50t37.5 20q26 0 39.5 -15.5t13.5 -38.5zM236 85q-9 -18 -24.5 -35.5t-33.5 -32t-36.5 -23.5t-33.5 -9q-8 0 -20.5 3t-24.5 8t-20 10.5t-7 10.5l99 380l-29 5l-76 -80l-17 18q9 20 23.5 42
t32 40t35.5 30t33 12q8 0 21.5 -3t26.5 -7.5t22 -10t7 -11.5l-103 -379l29 -10l79 60z" />
    <glyph glyph-name="j" unicode="j" horiz-adv-x="252" 
d="M270 617q0 -30 -16.5 -50t-37.5 -20q-26 0 -39.5 15.5t-13.5 38.5q0 30 16.5 50t37.5 20q26 0 39.5 -15.5t13.5 -38.5zM139 102q-26 -113 -53.5 -198t-69.5 -127q-18 -18 -38 -28.5t-47 -10.5q-26 0 -47.5 15.5t-21.5 43.5q0 23 16.5 36.5t36.5 13.5q24 0 39.5 -16
t25.5 -39l14 3q6 12 12.5 32t14.5 50.5t18 73.5t23 103l73 343l-29 5l-76 -80l-17 18q9 20 23.5 42t32 40t35.5 30t33 12q8 0 21.5 -3t26.5 -7.5t22 -10t7 -11.5z" />
    <glyph glyph-name="k" unicode="k" horiz-adv-x="438" 
d="M413 101q-9 -20 -24 -40.5t-32 -37t-35.5 -27t-33.5 -10.5q-4 0 -12 3t-15.5 7t-13 8t-6.5 7l-70 224l-36 -16l-36 -224l-82 5l36 147l84 426q3 19 -6 23l-63 28l4 25l167 48l-56 -234l-49 -213h7l201 106v9q-23 3 -33.5 16t-10.5 31q0 23 18 39.5t41 16.5q26 0 43 -18.5
t17 -39.5q0 -30 -12 -50.5t-35.5 -36.5t-58 -30.5t-79.5 -33.5l73 -205h22l69 65z" />
    <glyph glyph-name="l" unicode="l" horiz-adv-x="250" 
d="M225 85q-9 -18 -24.5 -35.5t-33.5 -32t-36.5 -23.5t-33.5 -9q-8 0 -20.5 3.5t-24.5 8t-20.5 10.5t-7.5 10l110 556q3 19 -6 23l-63 28l4 25l165 48l-134 -644l29 -10l79 60z" />
    <glyph glyph-name="m" unicode="m" horiz-adv-x="737" 
d="M711 85q-9 -18 -24.5 -35.5t-33.5 -32t-36.5 -23.5t-33.5 -9q-8 0 -20.5 2.5t-24 7t-20 10.5t-8.5 12q0 9 5.5 31t13 48.5t16.5 55t16 51.5q6 21 13 42.5t13 41.5t9.5 36t3.5 26q0 16 -14 29.5t-32 13.5q-23 0 -64 -64.5t-102 -192.5l-33 -140l-82 5l58 203q6 21 13 42.5
t12.5 41.5t9.5 36t4 26q0 16 -14 29.5t-32 13.5q-23 0 -64 -64.5t-102 -192.5l-27 -140l-82 5l35 147l51 250l-29 5l-76 -80l-17 18q9 20 23.5 42t32 40t35.5 30t33 12q8 0 20.5 -2.5t24.5 -7t21 -10.5t9 -12q0 -9 -8 -42.5t-18.5 -73.5t-20.5 -77.5t-15 -55.5h9
q47 101 79 159.5t59 85.5q21 21 39.5 28.5t38.5 7.5q26 0 41.5 -20.5t15.5 -52.5q0 -14 -6.5 -42t-15 -59t-17 -60.5t-13.5 -46.5h9q47 101 79 159.5t59 85.5q21 21 39.5 28.5t38.5 7.5q13 0 25.5 -5.5t22.5 -14.5t16 -21.5t6 -27.5q0 -29 -12 -79t-29 -105q-6 -22 -13 -45
t-13.5 -44t-12 -39t-9.5 -30l29 -10l79 60z" />
    <glyph glyph-name="n" unicode="n" horiz-adv-x="507" 
d="M481 85q-9 -18 -24.5 -35.5t-33.5 -32t-36.5 -23.5t-33.5 -9q-8 0 -20.5 2.5t-24 7t-20 10.5t-8.5 12q0 9 5.5 31t13 48.5t16.5 55t16 51.5q6 21 13 42.5t13 41.5t9.5 36t3.5 26q0 16 -14 29.5t-32 13.5q-23 0 -64 -64.5t-102 -192.5l-27 -140l-82 5l35 147l51 245l-28 5
l-78 -75l-16 18q9 20 23.5 42t31.5 40t35 30t33 12q8 0 21 -2.5t25 -7t21 -10.5t9 -12q0 -9 -8 -42.5t-18.5 -73.5t-20.5 -77.5t-15 -55.5h9q47 101 79 159.5t59 85.5q21 21 39.5 28.5t38.5 7.5q13 0 25.5 -5.5t22.5 -14.5t16 -21.5t6 -27.5q0 -29 -12 -79t-29 -105
q-7 -22 -13.5 -45t-13 -44t-12 -39t-9.5 -30l29 -10l79 60z" />
    <glyph glyph-name="o" unicode="o" horiz-adv-x="440" 
d="M406 268q0 -50 -17.5 -100.5t-47.5 -91t-70.5 -66t-86.5 -25.5q-39 0 -67.5 14.5t-47.5 40.5t-28 62t-9 79q0 50 17.5 100.5t47.5 91t70.5 66t86.5 25.5q39 0 67.5 -14.5t47.5 -40.5t28 -62t9 -79zM328 305q0 23 -4 45.5t-13 40.5t-23 29t-34 11q-25 0 -47 -20t-39 -47.5
t-29 -57.5t-17 -50q-6 -24 -9.5 -51t-3.5 -52q0 -23 4.5 -47t13.5 -43.5t23.5 -32t33.5 -12.5q27 0 49 20.5t39 49.5t28 60t16 52q5 25 8.5 52.5t3.5 52.5z" />
    <glyph glyph-name="p" unicode="p" horiz-adv-x="476" 
d="M122 23l-39 -199q-3 -20 19 -24l67 -11l4 -35h-251l2 35l56 11q14 2 19.5 8t7.5 16l129 571l-30 7l-76 -80l-17 18q9 20 23.5 42t32 40t35.5 30t33 12q8 0 21.5 -2.5t26 -7t22 -10.5t9.5 -12q0 -4 -5 -22t-12.5 -44t-17 -57t-19.5 -62h8q57 108 97.5 162.5t85.5 54.5
q19 0 35.5 -11t28.5 -30.5t19 -46t7 -56.5q0 -81 -30.5 -152.5t-76.5 -117.5q-30 -30 -64.5 -48t-70.5 -18q-25 0 -45 11.5t-33 27.5h-1zM136 96q11 -13 24.5 -26t27 -24t27 -18t25.5 -7q7 0 15 4.5t16 12.5q15 15 31.5 45t30 67t22.5 76.5t9 73.5q0 39 -11 67.5t-35 28.5
q-13 0 -26.5 -10t-32 -34.5t-43.5 -65t-60 -102.5z" />
    <glyph glyph-name="q" unicode="q" horiz-adv-x="443" 
d="M298 202q-57 -108 -97.5 -162.5t-85.5 -54.5q-38 0 -66.5 31.5t-28.5 92.5q0 40 9 81t24 79t35.5 70.5t43.5 55.5q30 30 64.5 50t70.5 20q15 0 26.5 -6.5t19.5 -16.5t13.5 -22.5t9.5 -24.5h6l20 69h71l-50 -169l-100 -471q-5 -20 19 -24l57 -11l3 -35h-245l3 35l56 11
q14 2 19.5 8.5t7.5 15.5l57 229l46 149h-8zM328 335q-8 13 -20 27.5t-27 26.5t-31.5 20t-33.5 8q-10 0 -17.5 -4.5t-15.5 -12.5q-12 -12 -26.5 -42.5t-27 -70t-21.5 -81.5t-9 -77q0 -39 13.5 -57.5t37.5 -18.5q13 0 26.5 10t32 34.5t43.5 65.5t60 102z" />
    <glyph glyph-name="r" unicode="r" horiz-adv-x="393" 
d="M322 399q-1 2 -4 4q-5 4 -8 1q-16 -14 -35.5 -44.5t-39.5 -69t-40 -80.5t-37 -80l-27 -135l-82 5l35 147l51 250l-29 5l-76 -80l-17 18q9 20 23.5 42t32 40t35.5 30t33 12q8 0 20.5 -2.5t24.5 -7t21 -10.5t9 -12t-3.5 -23.5t-9.5 -41.5t-13 -51t-14 -52.5t-13.5 -47
t-10.5 -33.5h15q13 36 28 73.5t31.5 72t34.5 63.5t36 47q14 14 28 19.5t35 5.5q26 0 43 -17t17 -43q0 -28 -14.5 -45.5t-35.5 -17.5q-24 0 -36 15.5t-8 42.5z" />
    <glyph glyph-name="s" unicode="s" horiz-adv-x="347" 
d="M340 389q0 -22 -13.5 -36t-35.5 -14q-17 0 -27 12t-10 29q0 10 6 22q-17 8 -38 14.5t-44 8.5q-7 -2 -15 -9t-15.5 -16t-12.5 -19.5t-6 -19.5q-1 -14 5 -28t17 -28t24.5 -27.5t26.5 -27.5q11 -12 26.5 -28t29 -34.5t22.5 -39t7 -40.5q-3 -31 -19.5 -54t-40 -38.5
t-49.5 -23t-48 -7.5q-28 0 -52.5 3.5t-43 12.5t-29.5 24t-11 37q0 21 14 35t36 14q18 0 27.5 -12t9.5 -29q0 -10 -7 -22q19 -8 44.5 -15.5t47.5 -9.5q7 3 16 11t16.5 17.5t13.5 20t7 18.5q1 14 -5.5 28t-17 27.5t-24 27t-27.5 26.5q-12 11 -27 27t-28.5 35t-22.5 39.5
t-7 41.5q3 31 19.5 54t39 38t49 22.5t48.5 7.5q54 0 89 -15.5t35 -59.5z" />
    <glyph glyph-name="t" unicode="t" horiz-adv-x="303" 
d="M152 586h75l-28 -138h126l3 -48h-138l-74 -347l29 -10l79 60l17 -18q-9 -18 -24.5 -35.5t-33.5 -32t-36.5 -23.5t-33.5 -9q-8 0 -20.5 2t-24.5 6t-20.5 8.5t-7.5 9.5l78 384l-81 5l3 30q26 9 45 17q17 7 30.5 12.5t13.5 4.5z" />
    <glyph glyph-name="u" unicode="u" horiz-adv-x="507" 
d="M28 340q9 20 23.5 42t32 40t35.5 30t33 12q8 0 20.5 -2.5t24.5 -7t21 -10.5t9 -12q0 -9 -5.5 -31t-13 -48.5t-16.5 -55t-16 -51.5q-6 -21 -13 -42.5t-13 -41.5t-9.5 -36t-3.5 -26q0 -16 14 -29.5t32 -13.5q23 0 64 64.5t102 192.5l27 140l82 -5l-35 -147
q-11 -61 -22 -112q-4 -22 -8.5 -43.5t-8.5 -40.5t-7.5 -33t-5.5 -20l29 -10l79 60l17 -18q-9 -18 -24.5 -35.5t-33.5 -32t-36.5 -23.5t-33.5 -9q-8 0 -20.5 2.5t-24 7t-20 10.5t-8.5 12q0 9 8 42.5t18.5 73.5t20.5 77.5t15 55.5h-9q-47 -101 -79 -159.5t-59 -85.5
q-21 -21 -39.5 -28.5t-38.5 -7.5q-13 0 -25.5 5.5t-22.5 14.5t-16 21.5t-6 27.5q0 29 12 79t29 105q14 45 26.5 89t20.5 70l-29 5l-76 -80z" />
    <glyph glyph-name="v" unicode="v" horiz-adv-x="432" 
d="M200 4l-85 -19l3 412l-29 5l-76 -80l-17 18q9 20 23.5 42t32 40t35.5 30t33 12q8 0 21 -2.5t25.5 -7t21.5 -10.5t9 -12l-9 -379h8l120 192q38 58 38 96q0 20 -16 34.5t-45 20.5q5 36 25 52.5t44 16.5q26 0 47.5 -17.5t20.5 -57.5q0 -41 -30.5 -92.5t-83.5 -123.5z" />
    <glyph glyph-name="w" unicode="w" horiz-adv-x="668" 
d="M351 294l-148 -290l-85 -19v412l-29 5l-76 -80l-17 18q9 20 23.5 42t32 40t35.5 30t33 12q8 0 21 -2.5t25.5 -7t21.5 -10.5t9 -12l-3 -379h5l153 316l-1 95l33 -8l40 -8l11 -395h5l107 192q17 29 27.5 53t10.5 43q0 20 -16 34.5t-45 20.5q5 36 25 52.5t44 16.5
q26 0 47.5 -17.5t20.5 -57.5q0 -40 -32 -91t-82 -125l-108 -170l-85 -19v309h-3z" />
    <glyph glyph-name="x" unicode="x" horiz-adv-x="473" 
d="M486 404q-1 -28 -15.5 -45.5t-35.5 -17.5q-24 0 -35.5 15.5t-8.5 42.5l-29 4l-93 -164l76 -190h22l53 70l15 -18q-10 -20 -22 -40.5t-25 -37t-27.5 -27t-29.5 -10.5q-4 0 -13.5 3t-19 7t-16.5 8t-8 7l-53 172h-5q-34 -70 -55.5 -109.5t-36.5 -59t-27 -24t-27 -4.5
q-34 0 -57.5 17t-22.5 43q1 28 15 45.5t35 17.5q24 0 36 -15.5t9 -42.5l28 -5l95 170l-74 186h-23l-52 -70l-15 18q10 20 21.5 40.5t24.5 37t27.5 27t29.5 10.5q5 0 14 -3t18.5 -7t17 -8t8.5 -7l52 -172h2q29 64 49.5 102.5t37 59.5t30.5 27.5t29 6.5q34 0 58 -17t23 -43z
" />
    <glyph glyph-name="y" unicode="y" horiz-adv-x="429" 
d="M434 397q0 -20 -10.5 -46t-26.5 -54t-35 -55.5t-35 -50.5l-101 -144l-59 -112q-49 -93 -96 -142t-101 -49q-15 0 -29 4.5t-25 13.5t-17.5 21.5t-6.5 27.5q0 24 17.5 39.5t35.5 15.5q12 0 23.5 -5t20.5 -14t14.5 -21t4.5 -26l17 2l135 191l-49 13l7 391l-29 5l-76 -80
l-17 18q9 20 23.5 42t32 40t35.5 30t33 12q8 0 21 -2.5t25.5 -7t21.5 -10.5t9 -12l-12 -379h11l169 282v10q-21 8 -36.5 23t-15.5 36q0 25 15 43.5t40 18.5q31 0 48.5 -18.5t17.5 -50.5z" />
    <glyph glyph-name="z" unicode="z" horiz-adv-x="406" 
d="M309 332q-17 5 -41.5 18t-49 27.5t-45.5 28t-31 17.5l-20 -16q9 -12 14.5 -23t5.5 -21q0 -19 -12 -30.5t-31 -11.5q-24 0 -35.5 13t-11.5 30t8.5 34t25 31t40.5 23.5t55 10.5q36 0 59 -11.5t37.5 -28t22.5 -34t15 -30.5h10l25 105q28 0 46.5 -16t18.5 -36
q0 -29 -20.5 -48t-52.5 -40l-235 -201q17 -4 42.5 -19.5t52 -32.5t49 -32t32.5 -19l21 17q-25 27 -25 48q0 17 12.5 28.5t34.5 11.5q21 0 32 -12t11 -31q0 -16 -7.5 -33.5t-22.5 -31.5t-37.5 -24t-52.5 -13q-33 0 -57.5 10t-41.5 26.5t-29 37t-20 42.5h-10l-27 -111
q-28 0 -46.5 16t-18.5 36q0 29 18 48t50 40z" />
    <glyph glyph-name="braceleft" unicode="{" horiz-adv-x="336" 
d="M302 -235q-93 5 -144 44t-51 107q0 32 9 56.5t20.5 46t20.5 43t9 47.5q0 21 -11.5 35.5t-30 23.5t-42 13t-47.5 5l-11 29l11 28q24 1 47.5 5t42 12.5t30 23t11.5 36.5q0 26 -9 47.5t-20.5 43.5t-20.5 46.5t-9 56.5q0 68 51 107t144 44v-35q-59 -5 -91 -31.5t-32 -61.5
q0 -26 9 -47.5t20.5 -43.5t20.5 -47t9 -57q0 -25 -12.5 -47.5t-31.5 -39t-41.5 -26t-42.5 -9.5v-12q20 -1 42.5 -10.5t41.5 -26t31.5 -38t12.5 -47.5q0 -31 -9 -55.5t-20.5 -46.5t-20.5 -43.5t-9 -46.5q0 -35 32 -63t91 -33v-33z" />
    <glyph glyph-name="bar" unicode="|" horiz-adv-x="276" 
d="M115 690h46v-877h-46v877z" />
    <glyph glyph-name="braceright" unicode="}" horiz-adv-x="336" 
d="M291 186q-24 -1 -47.5 -5t-42 -13t-30 -23.5t-11.5 -35.5q0 -26 9 -47.5t20.5 -43t20.5 -46t9 -56.5q0 -68 -51 -107t-144 -44v33q59 5 91 33t32 63q0 25 -9 46.5t-20.5 43.5t-20.5 46.5t-9 55.5q0 26 12.5 47.5t31.5 38t41.5 26t42.5 10.5v12q-20 0 -42.5 9.5t-41.5 26
t-31.5 39t-12.5 47.5q0 32 9 57t20.5 47t20.5 43.5t9 47.5q0 35 -32 61.5t-91 31.5v35q93 -5 144 -44t51 -107q0 -32 -9 -56.5t-20.5 -46.5t-20.5 -43.5t-9 -47.5q0 -22 11.5 -36.5t30 -23t42 -12.5t47.5 -5l11 -28z" />
    <glyph glyph-name="asciitilde" unicode="~" horiz-adv-x="368" 
d="M269 223q14 0 26.5 13.5t32.5 51.5h26q-18 -60 -44.5 -86.5t-68.5 -26.5q-24 0 -44.5 11.5t-37.5 25t-32.5 25t-29.5 11.5t-26.5 -13.5t-32.5 -51.5h-26q18 60 44.5 86.5t68.5 26.5q24 0 44.5 -11.5t37.5 -25t32 -25t30 -11.5z" />
    <glyph glyph-name="exclamdown" unicode="&#xa1;" horiz-adv-x="284" 
d="M127 579q0 24 16.5 42t42.5 18t43.5 -18t17.5 -42q0 -23 -17.5 -40.5t-43.5 -17.5t-42.5 17.5t-16.5 40.5zM161 429q2 6 11 5.5t9 -6.5l-10 -403q-1 -19 -11 -30t-35 -11h-3q-36 0 -48 12.5t-7 34.5z" />
    <glyph glyph-name="cent" unicode="&#xa2;" horiz-adv-x="378" 
d="M130 -166h-37l40 154q-22 4 -41 17t-32.5 33.5t-21.5 46.5t-8 56q0 55 16.5 111.5t46.5 103t72 76.5t93 32h1l47 172h37l-48 -176q38 -9 60.5 -33t22.5 -52q0 -23 -16 -40t-36 -17q-19 0 -34.5 10.5t-20.5 23.5l-83 -307q8 -1 22 3.5t30.5 13t35 19.5t36.5 23l16 -18
q-40 -48 -77 -73t-82 -27zM250 404q-8 5 -20 7.5t-24 2.5q-8 0 -19 -11q-13 -13 -26.5 -41.5t-25 -64t-19 -74t-7.5 -71.5q0 -41 13 -67t33 -35z" />
    <glyph glyph-name="sterling" unicode="&#xa3;" horiz-adv-x="477" 
d="M142 299q2 33 4.5 62.5t4.5 47.5q14 103 73.5 161.5t146.5 58.5q51 0 82 -21t31 -54q0 -23 -14.5 -40t-38.5 -17q-29 0 -44 22.5t-5 56.5q-8 6 -20.5 10.5t-27.5 4.5q-16 0 -31 -6.5t-28 -23.5t-22.5 -46t-14.5 -73q-5 -35 -7 -71t-5 -72h153l3 -41h-160
q-2 -16 -3.5 -30.5t-4.5 -28.5q-6 -32 -16 -59t-27 -48v-5q15 -4 33 -11t37.5 -13.5t38.5 -11t36 -4.5q20 0 33 5t23 15q13 13 24 31l22 37l21 -7q-3 -29 -12 -56.5t-26 -48.5t-41 -34t-57 -13q-27 0 -49.5 8t-40.5 21t-33.5 28t-29.5 28q-32 -34 -75.5 -56t-94.5 -30l-6 39
q41 10 68.5 25t46 35.5t28.5 47t14 59.5q2 17 4 37l4 40h-108l3 41h108z" />
    <glyph glyph-name="currency" unicode="&#xa4;" horiz-adv-x="504" 
d="M165 213q11 -78 51.5 -124.5t109.5 -46.5q43 0 75.5 17.5t60.5 40.5l12 -25q-31 -38 -77.5 -64t-100.5 -26q-49 0 -87.5 18t-65.5 49.5t-43.5 73t-22.5 87.5h-71l3 41h65v11q0 18 1.5 35.5t3.5 34.5h-57l3 41h62q15 58 43.5 105t66.5 80.5t84 51.5t95 18q78 0 115 -27
t37 -62q0 -24 -12 -41t-37 -17q-14 0 -25 7t-19 19t-12.5 27t-5.5 30q-13 10 -34 15.5t-39 5.5q-65 0 -111.5 -52t-63.5 -160h201l3 -41h-208q-3 -31 -3 -67v-14h192l3 -41h-192z" />
    <glyph glyph-name="yen" unicode="&#xa5;" horiz-adv-x="612" 
d="M641 590l-14 -4q-26 -7 -50 -21t-51 -53l-145 -207h151l4 -41h-177l-11 -81h184l4 -41h-193l-10 -72q-3 -20 20 -24l73 -11l3 -35h-289l3 35l75 11q13 2 18.5 8.5t7.5 15.5l10 72h-164l2 41h167l11 81h-180l2 41h165l-121 241q-5 11 -18 21t-30 15l-32 8l-3 35h251
l-3 -35l-42 -6q-25 -4 -24 -26.5t29 -79.5l76 -157h2l129 189q25 36 24 53t-25 22l-22 5l-3 35h199z" />
    <glyph glyph-name="brokenbar" unicode="&#xa6;" horiz-adv-x="467" 
d="M511 590l-66 -11q-23 -4 -26 -24l-50 -371q-7 -55 -28 -93.5t-50 -61.5t-65 -33.5t-74 -10.5q-31 0 -62.5 8.5t-57 25t-41 40.5t-15.5 55q0 14 5 26.5t13 21t19.5 13.5t24.5 4q21 -2 35.5 -14t14.5 -32q0 -16 -6 -28.5t-15 -20.5q11 -24 36 -41t52 -17q56 0 85.5 39
t40.5 122l50 368q2 9 -2 15.5t-18 8.5l-72 11l-3 35h278z" />
    <glyph glyph-name="section" unicode="&#xa7;" horiz-adv-x="421" 
d="M403 263q0 -22 -8.5 -42.5t-22.5 -37.5t-32 -30.5t-37 -21.5q16 -28 16 -59q0 -21 -11 -44.5t-32 -43.5t-52 -33.5t-71 -13.5q-16 0 -35.5 4.5t-37 13.5t-29 23t-11.5 34q0 23 16 38t37 15q27 0 41.5 -21t18.5 -60q10 -5 20 -7t18 -2q29 0 46 21.5t17 48.5q0 19 -9 35.5
t-23.5 31.5t-33 29.5t-37.5 28.5q-21 15 -41.5 31t-36 34t-25.5 38.5t-10 45.5q0 23 8.5 43t22.5 37.5t32 30.5t37 20q-15 30 -15 59q0 23 11 46t31.5 41t49.5 29.5t65 11.5q16 0 35.5 -4.5t36.5 -13.5t28.5 -23t11.5 -33q0 -23 -15.5 -38.5t-35.5 -15.5q-55 0 -61 82
q-14 7 -27 7q-35 0 -50.5 -20t-15.5 -41q0 -19 9 -36t23.5 -32t33.5 -29t38 -29q20 -15 40 -31t36 -34t26 -38.5t10 -44.5zM340 226q0 32 -23 58t-54 49q-29 22 -59 45t-51 52q-20 -11 -36 -31.5t-16 -42.5q0 -32 24 -57.5t56 -50.5q29 -22 59 -44.5t50 -51.5q28 14 39 33
t11 41z" />
    <glyph glyph-name="dieresis" unicode="&#xa8;" 
d="M407 607q0 -25 -15.5 -44t-43.5 -19t-43.5 19t-15.5 44t15.5 44t43.5 19t43.5 -19t15.5 -44zM207 607q0 -25 -15.5 -44t-43.5 -19t-43.5 19t-15.5 44t15.5 44t43.5 19t43.5 -19t15.5 -44z" />
    <glyph glyph-name="copyright" unicode="&#xa9;" horiz-adv-x="734" 
d="M694 312q0 -68 -25.5 -127.5t-70 -104t-104 -70t-127.5 -25.5t-127.5 25.5t-104 70t-70 104t-25.5 127.5t25.5 127.5t70 104t104 70.5t127.5 26t127.5 -26t104 -70.5t70 -104t25.5 -127.5zM656 312q0 60 -22.5 113.5t-62 93.5t-92 63.5t-112.5 23.5t-112.5 -23.5
t-92 -63.5t-62 -93.5t-22.5 -113.5t22.5 -113.5t62 -93t92 -63t112.5 -23.5t112.5 23.5t92 63t62 93t22.5 113.5zM496 137l-30 6q-18 -7 -42 -11t-44 -4q-46 0 -81 14t-59 38t-36 56.5t-12 70.5q0 41 13.5 76t38 60t58.5 39t74 14q25 0 45.5 -3.5t34.5 -8.5l46 12v-131h-27
l-23 73q-28 22 -81 22q-49 0 -82.5 -36t-33.5 -98q0 -72 34.5 -117.5t100.5 -45.5q15 0 30 4t26 12l34 79h28z" />
    <glyph glyph-name="ordfeminine" unicode="&#xaa;" horiz-adv-x="345" 
d="M289 588l12 51h47l-29 -124l-38 -176l19 -5l67 59l9 -13q-9 -15 -22.5 -31t-28.5 -29.5t-29.5 -22t-25.5 -8.5q-6 0 -13 4.5t-13 10.5t-10 12.5t-4 10.5q0 14 14 50t34 104h-5q-48 -96 -82.5 -144t-63.5 -48q-33 0 -51.5 27t-18.5 75q0 24 6 52.5t16.5 55.5t25 51.5
t30.5 40.5q23 23 48 35.5t51 12.5q23 0 33.5 -16.5t16.5 -34.5h5zM274 537q-6 9 -14.5 19.5t-19.5 19.5t-23 15t-24 6t-24 -12q-9 -9 -18.5 -28.5t-17.5 -45t-13.5 -54.5t-5.5 -56q0 -28 12 -43t28 -15q6 0 18 14t27 35.5t31.5 48.5t31.5 52z" />
    <glyph glyph-name="guillemotleft" unicode="&#xab;" horiz-adv-x="490" 
d="M415 50l-197 152v42l243 156l7 -20l-178 -160l137 -150zM226 60l-198 142v42l242 146l7 -20l-167 -150l129 -140z" />
    <glyph glyph-name="logicalnot" unicode="&#xac;" horiz-adv-x="473" 
d="M342 395l20 69h71l-50 -169l-53 -242l29 -10l79 60l17 -18q-9 -18 -24.5 -35.5t-33.5 -32t-36.5 -23.5t-33.5 -9q-8 0 -20.5 2.5t-24.5 7t-21 10.5t-9 12q0 5 5 22.5t12.5 43.5t17 57t19.5 62h-8q-57 -108 -97.5 -162.5t-85.5 -54.5q-38 0 -66.5 31.5t-28.5 92.5
q0 40 9 81t24 79t35.5 70.5t43.5 55.5q30 30 64.5 50t70.5 20q15 0 26.5 -6.5t19.5 -16.5t13.5 -22.5t9.5 -24.5h6zM328 335q-8 13 -20 27.5t-27 26.5t-31.5 20t-33.5 8q-10 0 -17.5 -4.5t-15.5 -12.5q-12 -12 -26.5 -42.5t-27 -70t-21.5 -81.5t-9 -77q0 -39 13.5 -57.5
t37.5 -18.5q13 0 26.5 10t32 34.5t43.5 65.5t60 102z" />
    <glyph glyph-name="registered" unicode="&#xae;" horiz-adv-x="734" 
d="M694 312q0 -68 -25.5 -127.5t-70 -104t-104 -70t-127.5 -25.5t-127.5 25.5t-104 70t-70 104t-25.5 127.5t25.5 127.5t70 104t104 70.5t127.5 26t127.5 -26t104 -70.5t70 -104t25.5 -127.5zM656 312q0 60 -22.5 113.5t-62 93.5t-92 63.5t-112.5 23.5t-112.5 -23.5
t-92 -63.5t-62 -93.5t-22.5 -113.5t22.5 -113.5t62 -93t92 -63t112.5 -23.5t112.5 23.5t92 63t62 93t22.5 113.5zM448 139l-21 39l-67 107l-39 2v-98q0 -10 14 -13l33 -6l1 -31h-151l2 31l29 6q13 3 13 13v250q0 11 -13 14l-29 6l-2 31h152q35 0 60 -7.5t40.5 -20.5t23 -29
t7.5 -33q0 -37 -21.5 -63t-62.5 -38l65 -98q13 -17 19 -21t13 -6l31 -4l2 -31h-99zM437 391q0 70 -93 65l-23 -1v-133l38 -5q35 2 56.5 19.5t21.5 54.5z" />
    <glyph glyph-name="macron" unicode="&#xaf;" 
d="M106 541l9 41h246l-3 -41h-252z" />
    <glyph glyph-name="degree" unicode="&#xb0;" horiz-adv-x="410" 
d="M408 502q0 -39 -14.5 -73t-39 -59.5t-58 -40t-72.5 -14.5q-32 0 -60.5 10.5t-49.5 30t-33.5 47t-12.5 61.5q0 38 14.5 71.5t39 59t58 40t70.5 14.5q33 0 61.5 -10t50 -29t34 -46.5t12.5 -61.5zM358 492q1 50 -31 80.5t-82 31.5q-28 0 -51.5 -11t-40.5 -30.5t-27 -44.5
t-10 -52q0 -25 8.5 -45t23.5 -34.5t35.5 -22.5t43.5 -8q28 0 51.5 10.5t41 29.5t28 43.5t10.5 52.5z" />
    <glyph glyph-name="acute" unicode="&#xb4;" 
d="M201 510h-22l116 187h100z" />
    <glyph glyph-name="mu" unicode="&#xb5;" horiz-adv-x="434" 
d="M341 395v-10q20 -24 29 -45t9 -49q0 -34 -15.5 -62.5t-39.5 -49t-53.5 -32t-57.5 -11.5q-32 0 -65 12q-24 -5 -37.5 -21t-13.5 -29q0 -19 17.5 -30t64.5 -28l41 -15q29 -10 57 -22t50 -27t35 -35t13 -48q0 -25 -16.5 -50t-48.5 -45t-79.5 -32.5t-110.5 -12.5
q-36 0 -69 7.5t-58 23t-40 38t-15 52.5q0 23 14 42.5t34.5 35t44.5 27t44 18.5v5q-23 13 -36.5 28.5t-13.5 38.5q0 31 26.5 54t69.5 36v5q-29 20 -47 53.5t-18 71.5q0 41 16.5 73t44 55t63 35t73.5 12q40 0 69 -7t49 -12h99l-20 -74zM310 343q0 15 -7 29t-19 25t-26.5 18
t-29.5 7q-20 0 -29 -5t-16 -12q-25 -25 -39.5 -65t-13.5 -78q2 -29 10 -51t15 -29q16 -16 35 -16q20 0 38.5 10t33.5 25q24 25 36 65t12 77zM310 -129q0 13 -9 24.5t-25 21t-36.5 18t-43.5 16.5q-31 11 -53.5 18.5t-41.5 16.5q-36 -18 -64.5 -42.5t-28.5 -55.5
q0 -20 12.5 -37t35 -30t53 -20.5t65.5 -7.5q26 0 50.5 5.5t43.5 15.5t30.5 24.5t11.5 32.5z" />
    <glyph glyph-name="paragraph" unicode="&#xb6;" horiz-adv-x="501" 
d="M331 -32l38 292q-20 -4 -36 -6t-38 -2q-51 0 -93 13.5t-71 36.5t-45 55.5t-16 69.5q0 54 19 91.5t52 61.5t77 34.5t94 10.5h156l-86 -657h-51z" />
    <glyph glyph-name="periodcentered" unicode="&#xb7;" horiz-adv-x="232" 
d="M161 228q0 -26 -18.5 -46.5t-47.5 -20.5t-48.5 20.5t-19.5 46.5t19.5 45.5t48.5 19.5t47.5 -19.5t18.5 -45.5z" />
    <glyph glyph-name="cedilla" unicode="&#xb8;" 
d="M26 -246q168 21 168 93q0 20 -19 33t-59 13q-30 0 -63 -6l3 20l124 114h44l-86 -78q57 0 89 -21.5t32 -59.5q0 -53 -61.5 -89t-166.5 -43z" />
    <glyph glyph-name="ordmasculine" unicode="&#xba;" horiz-adv-x="321" 
d="M335 496q0 -36 -12 -73t-33 -67t-51 -48.5t-66 -18.5q-57 0 -84 39.5t-27 102.5q0 37 12 74t33.5 67t51 48.5t65.5 18.5q57 0 84 -40t27 -103zM278 523q0 17 -3 33t-9.5 28t-17 19.5t-24.5 7.5q-18 0 -34 -14.5t-28.5 -35t-21 -42t-12.5 -36.5q-9 -34 -9 -71q0 -17 3 -34
t9.5 -30.5t17 -22t24.5 -8.5q20 0 36 15t28.5 36t20.5 44t12 38q5 18 6.5 36.5t1.5 36.5z" />
    <glyph glyph-name="guillemotright" unicode="&#xbb;" horiz-adv-x="490" 
d="M199 56l-7 20l167 150l-129 140l13 20l198 -142v-42zM8 46l-7 20l178 160l-137 150l12 20l197 -152v-42z" />
    <glyph glyph-name="onequarter" unicode="&#xbc;" horiz-adv-x="500" 
d="M665 621q0 -24 -13.5 -41t-36.5 -17q-27 0 -43 20t-19 52l-60 -11q-6 -10 -12 -29.5t-12 -43.5t-11.5 -50.5t-10.5 -52.5h119l4 -48h-132l-50 -256q-9 -49 -20.5 -97t-24.5 -90t-28 -74.5t-32 -50.5q-23 -23 -49 -36t-52 -13q-32 0 -55 17t-23 46q0 24 13.5 39.5
t36.5 15.5q27 0 42 -20.5t18 -49.5l45 24q5 10 11 31t12.5 47.5t13 55.5t10.5 55l57 356h-175l-54 -286q-9 -49 -20.5 -97t-24.5 -90t-28 -74.5t-32 -50.5q-23 -24 -53.5 -36t-60.5 -12q-32 0 -55 17t-23 46q0 24 13.5 39.5t36.5 15.5q27 0 42 -20.5t18 -49.5l55 23
q5 10 10.5 31t11.5 47.5t12 55t11 55.5l69 382l-91 4l3 29l95 23q14 60 33 99t42 64q25 26 60 40.5t65 14.5q39 0 62 -20t23 -49q0 -24 -8.5 -39.5t-31.5 -15.5q-27 0 -43 20t-19 52l-70 -14q-12 -21 -20 -62.5t-19 -93.5h176q14 63 36.5 112.5t45.5 74.5q25 26 60 40.5
t65 14.5q39 0 62 -20t23 -49z" />
    <glyph glyph-name="onehalf" unicode="&#xbd;" horiz-adv-x="732" 
d="M405 564q-5 -2 -10 -3t-10 -1q-26 0 -42 20t-22 51l-81 -14q-14 -32 -25 -74.5t-18 -94.5h176q12 72 32 116zM434 612q5 5 9.5 10.5t9.5 10.5q27 27 68.5 45t92.5 18q48 0 74.5 -23t26.5 -52q0 -24 -14 -41t-37 -17q-27 0 -44 21t-24 53l-106 -14q-14 -33 -25 -78
t-18 -97h121q26 16 42 16q8 0 20.5 -6t24.5 -14.5t20 -17t6 -14.5l-98 -359l29 -10l79 60l17 -18q-9 -18 -24.5 -35.5t-33.5 -32t-36.5 -23.5t-33.5 -9q-8 0 -20 6.5t-22.5 15t-18 17t-6.5 13.5l94 360l-8 3h-161l-50 -256q-9 -49 -20.5 -97t-24.5 -90t-28 -74.5t-32 -50.5
q-23 -23 -49 -36t-52 -13q-32 0 -55 17t-23 46q0 24 13.5 39.5t36.5 15.5q27 0 42 -20.5t18 -49.5l45 24q5 10 11 31t12.5 47.5t13 55.5t10.5 55l57 356h-175l-54 -286q-9 -49 -20 -97t-24.5 -90t-28.5 -74.5t-32 -50.5q-23 -24 -53.5 -36t-60.5 -12q-32 0 -55 17t-23 46
q0 24 13.5 39.5t36.5 15.5q27 0 42 -20.5t18 -49.5l55 23q5 10 10.5 31t11.5 47.5t12 55t11 55.5l69 382l-91 4l3 29l95 23q4 23 11 47.5t17 48.5t23 45.5t29 37.5q26 26 56.5 41t78.5 15q45 0 70.5 -22.5t25.5 -49.5v-3z" />
    <glyph glyph-name="threequarters" unicode="&#xbe;" horiz-adv-x="749" 
d="M633 572q-14 10 -23 26t-14 39l-106 -14q-14 -33 -25 -78t-18 -97h161zM405 564q-5 -2 -10 -3t-10 -1q-26 0 -42 20t-22 51l-81 -14q-14 -32 -25 -74.5t-18 -94.5h176q12 72 32 116zM434 612q5 5 9.5 10.5t9.5 10.5q27 27 68.5 45t92.5 18q19 0 34.5 -4t27.5 -11l57 16
l-134 -644l29 -10l79 60l17 -18q-9 -18 -24.5 -35.5t-33.5 -32t-36.5 -23.5t-33.5 -9q-8 0 -20 6.5t-23 15t-18.5 17.5t-6.5 13l71 363h-161l-50 -256q-9 -49 -20.5 -97t-24.5 -90t-28 -74.5t-32 -50.5q-23 -23 -49 -36t-52 -13q-32 0 -55 17t-23 46q0 24 13.5 39.5
t36.5 15.5q27 0 42 -20.5t18 -49.5l45 24q5 10 11 31t12.5 47.5t13 55.5t10.5 55l57 356h-175l-54 -286q-9 -49 -20 -97t-24.5 -90t-28.5 -74.5t-32 -50.5q-23 -24 -53.5 -36t-60.5 -12q-32 0 -55 17t-23 46q0 24 13.5 39.5t36.5 15.5q27 0 42 -20.5t18 -49.5l55 23
q5 10 10.5 31t11.5 47.5t12 55t11 55.5l69 382l-91 4l3 29l95 23q4 23 11 47.5t17 48.5t23 45.5t29 37.5q26 26 56.5 41t78.5 15q45 0 70.5 -22.5t25.5 -49.5v-3z" />
    <glyph glyph-name="questiondown" unicode="&#xbf;" horiz-adv-x="373" 
d="M24 156q0 35 11 58.5t28.5 39t39.5 25t44 16.5q19 6 36.5 12t31 15t21.5 21.5t8 30.5q0 20 -9 37.5t-24 36.5l30 -2q7 -7 16 -18t17.5 -24.5t14.5 -29.5t6 -33q0 -29 -11.5 -48.5t-29.5 -33t-41 -22.5t-46 -16q-19 -6 -37 -12t-31.5 -13t-21.5 -16.5t-8 -23.5
q0 -16 12.5 -31t34.5 -27t51.5 -19t62.5 -7q15 0 27.5 1t23.5 3q7 -10 7 -25q0 -25 -19.5 -42t-59.5 -17q-39 0 -73 14t-58.5 37t-39 52.5t-14.5 60.5zM199 585q0 24 16.5 42t42.5 18t43.5 -18t17.5 -42q0 -23 -17.5 -40.5t-43.5 -17.5t-42.5 17.5t-16.5 40.5z" />
    <glyph glyph-name="Agrave" unicode="&#xc0;" horiz-adv-x="591" 
d="M310 0l3 35l52 9q16 3 18.5 13t0.5 22l-22 146h-184l-33 -85q-18 -46 -16 -67.5t23 -26.5l45 -11l3 -35h-223l3 35l37 12q23 7 35.5 20t26.5 45l207 469v33l101 25l98 -560q3 -14 8.5 -21.5t24.5 -11.5l52 -11l3 -35h-263zM314 541h-5l-114 -274h160zM348 677l-144 187
h100l66 -187h-22z" />
    <glyph glyph-name="Aacute" unicode="&#xc1;" horiz-adv-x="591" 
d="M310 0l3 35l52 9q16 3 18.5 13t0.5 22l-22 146h-184l-33 -85q-18 -46 -16 -67.5t23 -26.5l45 -11l3 -35h-223l3 35l37 12q23 7 35.5 20t26.5 45l207 469v33l101 25l98 -560q3 -14 8.5 -21.5t24.5 -11.5l52 -11l3 -35h-263zM314 541h-5l-114 -274h160zM316 677h-22
l116 187h100z" />
    <glyph glyph-name="Acircumflex" unicode="&#xc2;" horiz-adv-x="591" 
d="M310 0l3 35l52 9q16 3 18.5 13t0.5 22l-22 146h-184l-33 -85q-18 -46 -16 -67.5t23 -26.5l45 -11l3 -35h-223l3 35l37 12q23 7 35.5 20t26.5 45l207 469v33l101 25l98 -560q3 -14 8.5 -21.5t24.5 -11.5l52 -11l3 -35h-263zM314 541h-5l-114 -274h160zM447 677l-86 128h-2
l-122 -128h-22l106 187h92l56 -187h-22z" />
    <glyph glyph-name="Atilde" unicode="&#xc3;" horiz-adv-x="591" 
d="M310 0l3 35l52 9q16 3 18.5 13t0.5 22l-22 146h-184l-33 -85q-18 -46 -16 -67.5t23 -26.5l45 -11l3 -35h-223l3 35l37 12q23 7 35.5 20t26.5 45l207 469v33l101 25l98 -560q3 -14 8.5 -21.5t24.5 -11.5l52 -11l3 -35h-263zM314 541h-5l-114 -274h160zM534 810
q-18 -60 -45.5 -91.5t-69.5 -31.5q-24 0 -44 11.5t-37.5 25t-32.5 25t-29 11.5t-26.5 -13.5t-32.5 -51.5h-26q17 60 44.5 91.5t69.5 31.5q24 0 44 -11.5t37 -25t32 -25t30 -11.5q14 0 27 13.5t33 51.5h26z" />
    <glyph glyph-name="Adieresis" unicode="&#xc4;" horiz-adv-x="591" 
d="M310 0l3 35l52 9q16 3 18.5 13t0.5 22l-22 146h-184l-33 -85q-18 -46 -16 -67.5t23 -26.5l45 -11l3 -35h-223l3 35l37 12q23 7 35.5 20t26.5 45l207 469v33l101 25l98 -560q3 -14 8.5 -21.5t24.5 -11.5l52 -11l3 -35h-263zM314 541h-5l-114 -274h160zM502 774
q0 -25 -15.5 -44t-43.5 -19t-43.5 19t-15.5 44t15.5 44t43.5 19t43.5 -19t15.5 -44zM302 774q0 -25 -15.5 -44t-43.5 -19t-43.5 19t-15.5 44t15.5 44t43.5 19t43.5 -19t15.5 -44z" />
    <glyph glyph-name="Aring" unicode="&#xc5;" horiz-adv-x="591" 
d="M314 541h-5l-114 -274h160zM409 688q0 25 -15.5 44t-43.5 19t-43.5 -19t-15.5 -44t15.5 -44t43.5 -19t43.5 19t15.5 44zM299 612q-18 12 -28.5 32.5t-9.5 43.5q1 37 24 63.5t65 26.5t65.5 -26.5t23.5 -63.5q0 -26 -12 -47.5t-34 -32.5l92 -529q2 -14 8 -21.5t25 -11.5
l52 -11l3 -35h-263l3 35l52 9q16 3 18.5 13t0.5 22l-22 146h-184l-33 -85q-18 -46 -16 -67.5t23 -26.5l45 -11l3 -35h-223l3 35l37 12q23 7 35.5 20t26.5 45z" />
    <glyph glyph-name="AE" unicode="&#xc6;" horiz-adv-x="797" 
d="M718 0h-459l3 35l56 11q23 4 26 24l21 155h-179l-43 -71q-15 -25 -27 -49.5t-12 -36.5q0 -11 6.5 -15.5t17.5 -6.5l45 -11l3 -35h-223l3 35l37 12q23 7 40 24t32 41l273 443q5 8 1.5 14.5t-17.5 9.5l-53 11l-3 35h535l-25 -186h-49l-11 97q-2 17 -7.5 27t-25.5 15
t-59.5 6.5t-108.5 1.5h-13l-35 -249h5q29 0 47 0.5t29 2.5t16.5 6.5t9.5 12.5l32 67h39l-51 -215h-38l5 64q1 7 -2 11.5t-13 7.5t-29.5 4t-51.5 1h-3l-34 -260h7q75 0 118 1.5t66 6.5t32.5 15t16.5 27l39 92h54zM415 589h-7l-196 -322h159z" />
    <glyph glyph-name="Ccedilla" unicode="&#xc7;" horiz-adv-x="618" 
d="M292 -13q-61 6 -106.5 28.5t-75.5 58.5t-45 84.5t-15 106.5q0 75 28.5 145t81.5 123q48 48 110.5 77t136.5 29q18 0 38 -2t39.5 -5t36 -6.5t26.5 -6.5l72 15l-28 -205h-45l-12 132q-24 15 -54 25.5t-75 10.5q-49 0 -94.5 -24t-80.5 -68t-56.5 -107t-21.5 -140
q0 -60 17.5 -107t49.5 -79q20 -20 52 -32.5t68 -12.5q62 0 117 30l60 136h52l-47 -193l-51 9q-29 -10 -66.5 -17t-68.5 -7h-2l-46 -42q57 0 89 -21.5t32 -59.5q0 -53 -61.5 -89t-166.5 -43l-5 24q168 21 168 93q0 20 -19 33t-59 13q-30 0 -63 -6l3 20z" />
    <glyph glyph-name="Egrave" unicode="&#xc8;" horiz-adv-x="578" 
d="M494 0h-483l3 35l55 11q23 4 26 24l66 485q2 9 -2 15t-18 9l-51 11l-3 35h490l-25 -186h-49l-11 97q-2 17 -7.5 27t-25.5 15t-59.5 6.5t-108.5 1.5h-30l-34 -249h21q29 0 47 0.5t29 2.5t16.5 6.5t9.5 12.5l32 67h39l-51 -215h-38l5 64q1 7 -2 11.5t-13 7.5t-29.5 4
t-51.5 1h-19l-35 -260h24q75 0 118 1.5t66 6.5t32.5 15t16.5 27l39 92h54zM362 677l-144 187h100l66 -187h-22z" />
    <glyph glyph-name="Eacute" unicode="&#xc9;" horiz-adv-x="578" 
d="M494 0h-483l3 35l55 11q23 4 26 24l66 485q2 9 -2 15t-18 9l-51 11l-3 35h490l-25 -186h-49l-11 97q-2 17 -7.5 27t-25.5 15t-59.5 6.5t-108.5 1.5h-30l-34 -249h21q29 0 47 0.5t29 2.5t16.5 6.5t9.5 12.5l32 67h39l-51 -215h-38l5 64q1 7 -2 11.5t-13 7.5t-29.5 4
t-51.5 1h-19l-35 -260h24q75 0 118 1.5t66 6.5t32.5 15t16.5 27l39 92h54zM290 677h-22l116 187h100z" />
    <glyph glyph-name="Ecircumflex" unicode="&#xca;" horiz-adv-x="578" 
d="M494 0h-483l3 35l55 11q23 4 26 24l66 485q2 9 -2 15t-18 9l-51 11l-3 35h490l-25 -186h-49l-11 97q-2 17 -7.5 27t-25.5 15t-59.5 6.5t-108.5 1.5h-30l-34 -249h21q29 0 47 0.5t29 2.5t16.5 6.5t9.5 12.5l32 67h39l-51 -215h-38l5 64q1 7 -2 11.5t-13 7.5t-29.5 4
t-51.5 1h-19l-35 -260h24q75 0 118 1.5t66 6.5t32.5 15t16.5 27l39 92h54zM451 677l-86 128h-2l-122 -128h-22l106 187h92l56 -187h-22z" />
    <glyph glyph-name="Edieresis" unicode="&#xcb;" horiz-adv-x="578" 
d="M494 0h-483l3 35l55 11q23 4 26 24l66 485q2 9 -2 15t-18 9l-51 11l-3 35h490l-25 -186h-49l-11 97q-2 17 -7.5 27t-25.5 15t-59.5 6.5t-108.5 1.5h-30l-34 -249h21q29 0 47 0.5t29 2.5t16.5 6.5t9.5 12.5l32 67h39l-51 -215h-38l5 64q1 7 -2 11.5t-13 7.5t-29.5 4
t-51.5 1h-19l-35 -260h24q75 0 118 1.5t66 6.5t32.5 15t16.5 27l39 92h54zM506 774q0 -25 -15.5 -44t-43.5 -19t-43.5 19t-15.5 44t15.5 44t43.5 19t43.5 -19t15.5 -44zM306 774q0 -25 -15.5 -44t-43.5 -19t-43.5 19t-15.5 44t15.5 44t43.5 19t43.5 -19t15.5 -44z" />
    <glyph glyph-name="Igrave" unicode="&#xcc;" horiz-adv-x="359" 
d="M14 0l3 35l65 11q23 4 26 24l66 485q2 9 -2 15.5t-18 8.5l-61 11l-3 35h273l-3 -35l-65 -11q-23 -5 -26 -24l-65 -485q-3 -20 20 -24l61 -11l3 -35h-274zM232 677l-144 187h100l66 -187h-22z" />
    <glyph glyph-name="Iacute" unicode="&#xcd;" horiz-adv-x="359" 
d="M14 0l3 35l65 11q23 4 26 24l66 485q2 9 -2 15.5t-18 8.5l-61 11l-3 35h273l-3 -35l-65 -11q-23 -5 -26 -24l-65 -485q-3 -20 20 -24l61 -11l3 -35h-274zM240 677h-22l116 187h100z" />
    <glyph glyph-name="Icircumflex" unicode="&#xce;" horiz-adv-x="359" 
d="M14 0l3 35l65 11q23 4 26 24l66 485q2 9 -2 15.5t-18 8.5l-61 11l-3 35h273l-3 -35l-65 -11q-23 -5 -26 -24l-65 -485q-3 -20 20 -24l61 -11l3 -35h-274zM336 677l-86 128h-2l-122 -128h-22l106 187h92l56 -187h-22z" />
    <glyph glyph-name="Idieresis" unicode="&#xcf;" horiz-adv-x="359" 
d="M14 0l3 35l65 11q23 4 26 24l66 485q2 9 -2 15.5t-18 8.5l-61 11l-3 35h273l-3 -35l-65 -11q-23 -5 -26 -24l-65 -485q-3 -20 20 -24l61 -11l3 -35h-274zM399 774q0 -25 -15.5 -44t-43.5 -19t-43.5 19t-15.5 44t15.5 44t43.5 19t43.5 -19t15.5 -44zM199 774
q0 -25 -15.5 -44t-43.5 -19t-43.5 19t-15.5 44t15.5 44t43.5 19t43.5 -19t15.5 -44z" />
    <glyph glyph-name="Eth" unicode="&#xd0;" horiz-adv-x="659" 
d="M335 339l3 -41h-116l-33 -244l69 -15q58 2 107.5 24t85.5 63t56.5 99.5t20.5 133.5q0 50 -13 91.5t-39.5 71.5t-67 47t-94.5 17h-54l-33 -247h108zM44 298l3 41h84l29 216q2 9 -2 15t-18 9l-51 11l-3 35h249q69 0 124.5 -20t93.5 -55.5t58.5 -85.5t20.5 -110
q0 -72 -23.5 -132.5t-75.5 -111.5q-48 -48 -124.5 -79t-176.5 -31h-221l3 35l55 11q23 4 26 24l31 228h-82z" />
    <glyph glyph-name="Ntilde" unicode="&#xd1;" horiz-adv-x="716" 
d="M734 590l-48 -8q-14 -3 -24 -9t-17.5 -26t-14.5 -58.5t-16 -106.5l-53 -391h-54l-289 535h-5l-37 -283q-9 -67 -13 -106t-2.5 -59t9.5 -26t23 -9l47 -8l3 -35h-233l3 35l48 8q15 3 24.5 10t17 27t14 58.5t15.5 104.5l33 246q5 44 -1.5 63t-29.5 26l-45 12l-3 35h185
l260 -483h5l33 240q9 69 13.5 108t3 58.5t-9 25t-22.5 8.5l-48 8l-3 35h234zM567 810q-18 -60 -45.5 -91.5t-69.5 -31.5q-24 0 -44 11.5t-37.5 25t-32.5 25t-29 11.5t-26.5 -13.5t-32.5 -51.5h-26q17 60 44.5 91.5t69.5 31.5q24 0 44 -11.5t37 -25t32 -25t30 -11.5
q14 0 27 13.5t33 51.5h26z" />
    <glyph glyph-name="Ograve" unicode="&#xd2;" horiz-adv-x="695" 
d="M668 348q0 -77 -26.5 -146t-76.5 -120q-43 -45 -101 -71t-129 -26q-64 0 -116.5 22t-90 60.5t-58 92t-20.5 116.5q0 72 22.5 136t64.5 114q44 52 106 82.5t140 30.5q64 0 116.5 -22t90 -60.5t58 -92t20.5 -116.5zM566 363q0 54 -14 102.5t-46 80.5q-24 24 -56 37.5
t-77 13.5q-39 0 -70.5 -15.5t-56 -42t-42.5 -60.5t-29.5 -71t-17 -74.5t-5.5 -70.5q0 -54 14 -102.5t46 -80.5q24 -24 56 -37.5t77 -13.5q39 0 70.5 15.5t56 42t42.5 60.5t29.5 71t17 74.5t5.5 70.5zM400 677l-144 187h100l66 -187h-22z" />
    <glyph glyph-name="Oacute" unicode="&#xd3;" horiz-adv-x="695" 
d="M668 348q0 -77 -26.5 -146t-76.5 -120q-43 -45 -101 -71t-129 -26q-64 0 -116.5 22t-90 60.5t-58 92t-20.5 116.5q0 72 22.5 136t64.5 114q44 52 106 82.5t140 30.5q64 0 116.5 -22t90 -60.5t58 -92t20.5 -116.5zM566 363q0 54 -14 102.5t-46 80.5q-24 24 -56 37.5
t-77 13.5q-39 0 -70.5 -15.5t-56 -42t-42.5 -60.5t-29.5 -71t-17 -74.5t-5.5 -70.5q0 -54 14 -102.5t46 -80.5q24 -24 56 -37.5t77 -13.5q39 0 70.5 15.5t56 42t42.5 60.5t29.5 71t17 74.5t5.5 70.5zM368 677h-22l116 187h100z" />
    <glyph glyph-name="Ocircumflex" unicode="&#xd4;" horiz-adv-x="695" 
d="M668 348q0 -77 -26.5 -146t-76.5 -120q-43 -45 -101 -71t-129 -26q-64 0 -116.5 22t-90 60.5t-58 92t-20.5 116.5q0 72 22.5 136t64.5 114q44 52 106 82.5t140 30.5q64 0 116.5 -22t90 -60.5t58 -92t20.5 -116.5zM566 363q0 54 -14 102.5t-46 80.5q-24 24 -56 37.5
t-77 13.5q-39 0 -70.5 -15.5t-56 -42t-42.5 -60.5t-29.5 -71t-17 -74.5t-5.5 -70.5q0 -54 14 -102.5t46 -80.5q24 -24 56 -37.5t77 -13.5q39 0 70.5 15.5t56 42t42.5 60.5t29.5 71t17 74.5t5.5 70.5zM509 677l-86 128h-2l-122 -128h-22l106 187h92l56 -187h-22z" />
    <glyph glyph-name="Otilde" unicode="&#xd5;" horiz-adv-x="695" 
d="M668 348q0 -77 -26.5 -146t-76.5 -120q-43 -45 -101 -71t-129 -26q-64 0 -116.5 22t-90 60.5t-58 92t-20.5 116.5q0 72 22.5 136t64.5 114q44 52 106 82.5t140 30.5q64 0 116.5 -22t90 -60.5t58 -92t20.5 -116.5zM566 363q0 54 -14 102.5t-46 80.5q-24 24 -56 37.5
t-77 13.5q-39 0 -70.5 -15.5t-56 -42t-42.5 -60.5t-29.5 -71t-17 -74.5t-5.5 -70.5q0 -54 14 -102.5t46 -80.5q24 -24 56 -37.5t77 -13.5q39 0 70.5 15.5t56 42t42.5 60.5t29.5 71t17 74.5t5.5 70.5zM596 810q-18 -60 -45.5 -91.5t-69.5 -31.5q-24 0 -44 11.5t-37.5 25
t-32.5 25t-29 11.5t-26.5 -13.5t-32.5 -51.5h-26q17 60 44.5 91.5t69.5 31.5q24 0 44 -11.5t37 -25t32 -25t30 -11.5q14 0 27 13.5t33 51.5h26z" />
    <glyph glyph-name="Odieresis" unicode="&#xd6;" horiz-adv-x="695" 
d="M668 348q0 -77 -26.5 -146t-76.5 -120q-43 -45 -101 -71t-129 -26q-64 0 -116.5 22t-90 60.5t-58 92t-20.5 116.5q0 72 22.5 136t64.5 114q44 52 106 82.5t140 30.5q64 0 116.5 -22t90 -60.5t58 -92t20.5 -116.5zM566 363q0 54 -14 102.5t-46 80.5q-24 24 -56 37.5
t-77 13.5q-39 0 -70.5 -15.5t-56 -42t-42.5 -60.5t-29.5 -71t-17 -74.5t-5.5 -70.5q0 -54 14 -102.5t46 -80.5q24 -24 56 -37.5t77 -13.5q39 0 70.5 15.5t56 42t42.5 60.5t29.5 71t17 74.5t5.5 70.5zM554 774q0 -25 -15.5 -44t-43.5 -19t-43.5 19t-15.5 44t15.5 44t43.5 19
t43.5 -19t15.5 -44zM354 774q0 -25 -15.5 -44t-43.5 -19t-43.5 19t-15.5 44t15.5 44t43.5 19t43.5 -19t15.5 -44z" />
    <glyph glyph-name="multiply" unicode="&#xd7;" horiz-adv-x="486" 
d="M413 28l-168 169l-169 -169l-37 37l169 169l-169 168l37 37l169 -169l169 170l37 -37l-170 -169l169 -169z" />
    <glyph glyph-name="Oslash" unicode="&#xd8;" horiz-adv-x="695" 
d="M236 60q43 -31 109 -31q39 0 70.5 15.5t56 42t42.5 60.5t29.5 71t17 74.5t5.5 70.5q0 51 -12 97t-40 78zM483 565q-22 16 -48.5 24t-61.5 8q-39 0 -70.5 -15.5t-56 -42t-42.5 -60.5t-29.5 -71t-17 -74.5t-5.5 -70.5q0 -51 12 -97.5t41 -78.5zM173 31q-58 38 -90.5 101.5
t-32.5 143.5q0 72 22.5 136t64.5 114q44 52 106 82.5t140 30.5q72 0 127 -27l44 76h47l-28 -48q-11 -18 -19 -32.5t-9 -15.5q58 -38 90.5 -101t32.5 -143q0 -77 -26.5 -146t-76.5 -120q-43 -45 -101 -71t-129 -26t-127 27l-50 -86h-46z" />
    <glyph glyph-name="Ugrave" unicode="&#xd9;" horiz-adv-x="714" 
d="M734 590l-48 -8q-14 -3 -23.5 -9t-17 -26t-14.5 -58.5t-17 -106.5l-25 -183q-8 -55 -30.5 -95.5t-56 -67t-77 -39t-93.5 -12.5q-48 0 -89 11.5t-71 35t-47.5 59t-17.5 84.5q0 14 1 30.5t3 28.5l45 321q2 9 -2 15t-18 9l-51 11l-3 35h254l-3 -35l-55 -11q-23 -4 -26 -24
l-42 -305q-2 -11 -3.5 -26.5t-1.5 -29.5q0 -42 12.5 -71t34 -47.5t51.5 -27t65 -8.5q34 0 63.5 8.5t53 28t39.5 52.5t23 81l23 172q10 69 14 107.5t2.5 58.5t-9.5 25.5t-23 8.5l-47 8l-3 35h233zM430 677l-144 187h100l66 -187h-22z" />
    <glyph glyph-name="Uacute" unicode="&#xda;" horiz-adv-x="714" 
d="M734 590l-48 -8q-14 -3 -23.5 -9t-17 -26t-14.5 -58.5t-17 -106.5l-25 -183q-8 -55 -30.5 -95.5t-56 -67t-77 -39t-93.5 -12.5q-48 0 -89 11.5t-71 35t-47.5 59t-17.5 84.5q0 14 1 30.5t3 28.5l45 321q2 9 -2 15t-18 9l-51 11l-3 35h254l-3 -35l-55 -11q-23 -4 -26 -24
l-42 -305q-2 -11 -3.5 -26.5t-1.5 -29.5q0 -42 12.5 -71t34 -47.5t51.5 -27t65 -8.5q34 0 63.5 8.5t53 28t39.5 52.5t23 81l23 172q10 69 14 107.5t2.5 58.5t-9.5 25.5t-23 8.5l-47 8l-3 35h233zM408 677h-22l116 187h100z" />
    <glyph glyph-name="Ucircumflex" unicode="&#xdb;" horiz-adv-x="714" 
d="M734 590l-48 -8q-14 -3 -23.5 -9t-17 -26t-14.5 -58.5t-17 -106.5l-25 -183q-8 -55 -30.5 -95.5t-56 -67t-77 -39t-93.5 -12.5q-48 0 -89 11.5t-71 35t-47.5 59t-17.5 84.5q0 14 1 30.5t3 28.5l45 321q2 9 -2 15t-18 9l-51 11l-3 35h254l-3 -35l-55 -11q-23 -4 -26 -24
l-42 -305q-2 -11 -3.5 -26.5t-1.5 -29.5q0 -42 12.5 -71t34 -47.5t51.5 -27t65 -8.5q34 0 63.5 8.5t53 28t39.5 52.5t23 81l23 172q10 69 14 107.5t2.5 58.5t-9.5 25.5t-23 8.5l-47 8l-3 35h233zM524 677l-86 128h-2l-122 -128h-22l106 187h92l56 -187h-22z" />
    <glyph glyph-name="Udieresis" unicode="&#xdc;" horiz-adv-x="714" 
d="M734 590l-48 -8q-14 -3 -23.5 -9t-17 -26t-14.5 -58.5t-17 -106.5l-25 -183q-8 -55 -30.5 -95.5t-56 -67t-77 -39t-93.5 -12.5q-48 0 -89 11.5t-71 35t-47.5 59t-17.5 84.5q0 14 1 30.5t3 28.5l45 321q2 9 -2 15t-18 9l-51 11l-3 35h254l-3 -35l-55 -11q-23 -4 -26 -24
l-42 -305q-2 -11 -3.5 -26.5t-1.5 -29.5q0 -42 12.5 -71t34 -47.5t51.5 -27t65 -8.5q34 0 63.5 8.5t53 28t39.5 52.5t23 81l23 172q10 69 14 107.5t2.5 58.5t-9.5 25.5t-23 8.5l-47 8l-3 35h233zM564 774q0 -25 -15.5 -44t-43.5 -19t-43.5 19t-15.5 44t15.5 44t43.5 19
t43.5 -19t15.5 -44zM364 774q0 -25 -15.5 -44t-43.5 -19t-43.5 19t-15.5 44t15.5 44t43.5 19t43.5 -19t15.5 -44z" />
    <glyph glyph-name="Yacute" unicode="&#xdd;" horiz-adv-x="593" 
d="M645 590l-28 -7q-27 -7 -49 -20t-47 -50l-166 -245l-26 -198q-3 -20 20 -24l69 -11l3 -35h-292l4 35l74 11q13 2 18.5 8.5t7.5 15.5l26 198l-120 245q-16 32 -29 45t-35 20l-39 12l-2 35h258l-4 -35l-41 -6q-25 -4 -25 -23t19 -57l88 -193h5l143 218q11 18 10.5 32
t-29.5 20l-44 9l-3 35h237zM347 677h-22l116 187h100z" />
    <glyph glyph-name="Thorn" unicode="&#xde;" horiz-adv-x="562" 
d="M539 328q0 -49 -22 -86t-58 -62t-82.5 -37.5t-95.5 -12.5q-20 0 -40 2t-40 5l-10 -67q-3 -21 20 -24l72 -11l3 -35h-275l3 35l55 11q23 4 26 24l67 485q2 9 -2 15t-18 9l-50 11l-3 35h253l-3 -35l-55 -11q-23 -4 -26 -24l-7 -55h64q51 0 92.5 -12.5t71 -35.5t45 -54.5
t15.5 -69.5zM438 330q0 30 -10.5 54t-29 41.5t-44.5 27t-58 9.5h-50l-39 -285q17 -5 36 -7.5t35 -2.5q71 0 115.5 42.5t44.5 120.5z" />
    <glyph glyph-name="germandbls" unicode="&#xdf;" horiz-adv-x="555" 
d="M500 115q-3 -37 -20.5 -62t-42 -40t-51.5 -21.5t-48 -6.5q-56 0 -91 16t-35 61q0 22 14 36t36 14q18 0 27.5 -12t9.5 -29q0 -10 -7 -24q21 -8 45 -13.5t59 -7.5q5 2 11 10t11 18t9 20t5 17q2 27 -21 53t-52 55q-12 12 -28 27t-29.5 32.5t-22 37.5t-6.5 42q3 35 18.5 59
t37.5 39t47 21.5t48 6.5q54 0 89 -15.5t35 -59.5q0 -21 -13.5 -35t-35.5 -14q-17 0 -27 12t-10 29q0 10 6 20q-7 3 -18.5 7t-24.5 7t-26 5t-24 3q-10 -5 -20.5 -22.5t-12.5 -38.5q-3 -29 20 -55t54 -57l28 -29q16 -15 28.5 -32t21 -35.5t6.5 -38.5zM444 615q0 -23 -13.5 -39
t-35.5 -16q-26 0 -42 20t-22 51l-81 -14q-14 -32 -23.5 -75t-19.5 -94l-63 -334q-9 -49 -20.5 -97t-24.5 -90t-28 -74.5t-32 -50.5q-23 -23 -53.5 -35.5t-60.5 -12.5q-32 0 -55 17t-23 46q0 24 13.5 39.5t36.5 15.5q27 0 42 -20.5t18 -49.5l55 23q5 10 10.5 31t11.5 47.5
t12 55t11 55.5l65 382l-87 4l3 29l95 23q4 23 11 47.5t17 48.5t23 45.5t29 37.5q26 26 56.5 41t78.5 15q45 0 70.5 -22.5t25.5 -49.5z" />
    <glyph glyph-name="agrave" unicode="&#xe0;" horiz-adv-x="473" 
d="M342 395l20 69h71l-50 -169l-53 -242l29 -10l79 60l17 -18q-9 -18 -24.5 -35.5t-33.5 -32t-36.5 -23.5t-33.5 -9q-8 0 -20.5 2.5t-24.5 7t-21 10.5t-9 12q0 5 5 22.5t12.5 43.5t17 57t19.5 62h-8q-57 -108 -97.5 -162.5t-85.5 -54.5q-38 0 -66.5 31.5t-28.5 92.5
q0 40 9 81t24 79t35.5 70.5t43.5 55.5q30 30 64.5 50t70.5 20q15 0 26.5 -6.5t19.5 -16.5t13.5 -22.5t9.5 -24.5h6zM328 335q-8 13 -20 27.5t-27 26.5t-31.5 20t-33.5 8q-10 0 -17.5 -4.5t-15.5 -12.5q-12 -12 -26.5 -42.5t-27 -70t-21.5 -81.5t-9 -77q0 -39 13.5 -57.5
t37.5 -18.5q13 0 26.5 10t32 34.5t43.5 65.5t60 102zM299 510l-144 187h100l66 -187h-22z" />
    <glyph glyph-name="aacute" unicode="&#xe1;" horiz-adv-x="473" 
d="M342 395l20 69h71l-50 -169l-53 -242l29 -10l79 60l17 -18q-9 -18 -24.5 -35.5t-33.5 -32t-36.5 -23.5t-33.5 -9q-8 0 -20.5 2.5t-24.5 7t-21 10.5t-9 12q0 5 5 22.5t12.5 43.5t17 57t19.5 62h-8q-57 -108 -97.5 -162.5t-85.5 -54.5q-38 0 -66.5 31.5t-28.5 92.5
q0 40 9 81t24 79t35.5 70.5t43.5 55.5q30 30 64.5 50t70.5 20q15 0 26.5 -6.5t19.5 -16.5t13.5 -22.5t9.5 -24.5h6zM328 335q-8 13 -20 27.5t-27 26.5t-31.5 20t-33.5 8q-10 0 -17.5 -4.5t-15.5 -12.5q-12 -12 -26.5 -42.5t-27 -70t-21.5 -81.5t-9 -77q0 -39 13.5 -57.5
t37.5 -18.5q13 0 26.5 10t32 34.5t43.5 65.5t60 102zM237 510h-22l116 187h100z" />
    <glyph glyph-name="acircumflex" unicode="&#xe2;" horiz-adv-x="473" 
d="M342 395l20 69h71l-50 -169l-53 -242l29 -10l79 60l17 -18q-9 -18 -24.5 -35.5t-33.5 -32t-36.5 -23.5t-33.5 -9q-8 0 -20.5 2.5t-24.5 7t-21 10.5t-9 12q0 5 5 22.5t12.5 43.5t17 57t19.5 62h-8q-57 -108 -97.5 -162.5t-85.5 -54.5q-38 0 -66.5 31.5t-28.5 92.5
q0 40 9 81t24 79t35.5 70.5t43.5 55.5q30 30 64.5 50t70.5 20q15 0 26.5 -6.5t19.5 -16.5t13.5 -22.5t9.5 -24.5h6zM328 335q-8 13 -20 27.5t-27 26.5t-31.5 20t-33.5 8q-10 0 -17.5 -4.5t-15.5 -12.5q-12 -12 -26.5 -42.5t-27 -70t-21.5 -81.5t-9 -77q0 -39 13.5 -57.5
t37.5 -18.5q13 0 26.5 10t32 34.5t43.5 65.5t60 102zM373 510l-86 128h-2l-122 -128h-22l106 187h92l56 -187h-22z" />
    <glyph glyph-name="atilde" unicode="&#xe3;" horiz-adv-x="473" 
d="M342 395l20 69h71l-50 -169l-53 -242l29 -10l79 60l17 -18q-9 -18 -24.5 -35.5t-33.5 -32t-36.5 -23.5t-33.5 -9q-8 0 -20.5 2.5t-24.5 7t-21 10.5t-9 12q0 5 5 22.5t12.5 43.5t17 57t19.5 62h-8q-57 -108 -97.5 -162.5t-85.5 -54.5q-38 0 -66.5 31.5t-28.5 92.5
q0 40 9 81t24 79t35.5 70.5t43.5 55.5q30 30 64.5 50t70.5 20q15 0 26.5 -6.5t19.5 -16.5t13.5 -22.5t9.5 -24.5h6zM328 335q-8 13 -20 27.5t-27 26.5t-31.5 20t-33.5 8q-10 0 -17.5 -4.5t-15.5 -12.5q-12 -12 -26.5 -42.5t-27 -70t-21.5 -81.5t-9 -77q0 -39 13.5 -57.5
t37.5 -18.5q13 0 26.5 10t32 34.5t43.5 65.5t60 102zM450 643q-18 -60 -45.5 -91.5t-69.5 -31.5q-24 0 -44 11.5t-37.5 25t-32.5 25t-29 11.5t-26.5 -13.5t-32.5 -51.5h-26q17 60 44.5 91.5t69.5 31.5q24 0 44 -11.5t37 -25t32 -25t30 -11.5q14 0 27 13.5t33 51.5h26z" />
    <glyph glyph-name="adieresis" unicode="&#xe4;" horiz-adv-x="473" 
d="M342 395l20 69h71l-50 -169l-53 -242l29 -10l79 60l17 -18q-9 -18 -24.5 -35.5t-33.5 -32t-36.5 -23.5t-33.5 -9q-8 0 -20.5 2.5t-24.5 7t-21 10.5t-9 12q0 5 5 22.5t12.5 43.5t17 57t19.5 62h-8q-57 -108 -97.5 -162.5t-85.5 -54.5q-38 0 -66.5 31.5t-28.5 92.5
q0 40 9 81t24 79t35.5 70.5t43.5 55.5q30 30 64.5 50t70.5 20q15 0 26.5 -6.5t19.5 -16.5t13.5 -22.5t9.5 -24.5h6zM328 335q-8 13 -20 27.5t-27 26.5t-31.5 20t-33.5 8q-10 0 -17.5 -4.5t-15.5 -12.5q-12 -12 -26.5 -42.5t-27 -70t-21.5 -81.5t-9 -77q0 -39 13.5 -57.5
t37.5 -18.5q13 0 26.5 10t32 34.5t43.5 65.5t60 102zM443 607q0 -25 -15.5 -44t-43.5 -19t-43.5 19t-15.5 44t15.5 44t43.5 19t43.5 -19t15.5 -44zM243 607q0 -25 -15.5 -44t-43.5 -19t-43.5 19t-15.5 44t15.5 44t43.5 19t43.5 -19t15.5 -44z" />
    <glyph glyph-name="aring" unicode="&#xe5;" horiz-adv-x="473" 
d="M342 395l20 69h71l-50 -169l-53 -242l29 -10l79 60l17 -18q-9 -18 -24.5 -35.5t-33.5 -32t-36.5 -23.5t-33.5 -9q-8 0 -20.5 2.5t-24.5 7t-21 10.5t-9 12q0 5 5 22.5t12.5 43.5t17 57t19.5 62h-8q-57 -108 -97.5 -162.5t-85.5 -54.5q-38 0 -66.5 31.5t-28.5 92.5
q0 40 9 81t24 79t35.5 70.5t43.5 55.5q30 30 64.5 50t70.5 20q15 0 26.5 -6.5t19.5 -16.5t13.5 -22.5t9.5 -24.5h6zM328 335q-8 13 -20 27.5t-27 26.5t-31.5 20t-33.5 8q-10 0 -17.5 -4.5t-15.5 -12.5q-12 -12 -26.5 -42.5t-27 -70t-21.5 -81.5t-9 -77q0 -39 13.5 -57.5
t37.5 -18.5q13 0 26.5 10t32 34.5t43.5 65.5t60 102zM373 607q0 -37 -23.5 -63.5t-65.5 -26.5t-66 26.5t-23 63.5t24 63.5t65 26.5t65.5 -26.5t23.5 -63.5zM343 607q0 25 -15.5 44t-43.5 19t-43.5 -19t-15.5 -44t15.5 -44t43.5 -19t43.5 19t15.5 44z" />
    <glyph glyph-name="ae" unicode="&#xe6;" horiz-adv-x="612" 
d="M343 352q35 56 70.5 84t85.5 28q49 0 78 -27.5t29 -66.5q0 -26 -14 -46t-45 -40.5t-81 -46t-123 -61.5v-24q0 -51 25.5 -79t61.5 -28q22 0 49.5 14.5t69.5 44.5l13 -18q-40 -47 -76 -74t-86 -27q-30 0 -55 12t-43 33t-28 49.5t-10 61.5v10q-47 -83 -89 -124.5t-68 -41.5
q-21 0 -37 11t-27.5 30.5t-17 46t-5.5 56.5q0 81 28 150.5t74 115.5q30 30 64.5 50t70.5 20q18 0 32 -11.5t24.5 -28.5t18 -36.5t11.5 -36.5zM346 205q59 31 96 53.5t57.5 41.5t28 35.5t7.5 35.5q0 9 -9.5 17t-23 14t-26.5 9t-21 3q-14 0 -22 -3.5t-13 -8.5q-18 -18 -40 -70
t-36 -127h2zM321 308q-9 21 -22 40.5t-29 34.5t-32.5 24.5t-33.5 9.5q-10 0 -17.5 -4.5t-15.5 -12.5q-12 -12 -24.5 -39.5t-23 -63t-17.5 -74.5t-7 -74q0 -39 11 -64.5t27 -25.5q19 0 38.5 19t40 49t41 66.5t40.5 71.5q7 11 13 22t11 21z" />
    <glyph glyph-name="ccedilla" unicode="&#xe7;" horiz-adv-x="383" 
d="M145 -13q-51 8 -83 51t-32 103q0 56 19 113.5t51.5 104t76.5 76t94 29.5q24 0 44 -7t35 -18.5t23.5 -26.5t8.5 -32q0 -23 -14.5 -40t-34.5 -17q-43 0 -43 40q0 9 2.5 17t5.5 13q-2 3 -11 7.5t-21 8.5t-25.5 7t-25.5 3q-5 0 -12 -5.5t-12 -10.5q-13 -13 -27.5 -40.5
t-26.5 -62.5t-20 -74t-8 -74q0 -51 25.5 -79t61.5 -28q22 0 49.5 14.5t69.5 44.5l13 -18q-35 -42 -66.5 -67.5t-72.5 -31.5l-48 -44q57 0 89 -21.5t32 -59.5q0 -53 -61.5 -89t-166.5 -43l-5 24q168 21 168 93q0 20 -19 33t-59 13q-30 0 -63 -6l3 20q24 22 43 40
q17 15 30.5 27.5t12.5 12.5z" />
    <glyph glyph-name="egrave" unicode="&#xe8;" horiz-adv-x="378" 
d="M109 152q0 -51 25.5 -79t61.5 -28q22 0 49.5 14.5t69.5 44.5l13 -18q-40 -47 -76 -74t-86 -27q-30 0 -55 12t-43 33t-28 49.5t-10 61.5q0 58 19.5 116t51.5 104t75 74.5t89 28.5q49 0 78 -27.5t29 -66.5q0 -26 -14 -46t-45 -40.5t-81 -46t-123 -61.5v-24zM112 205
q59 31 96 53.5t57.5 41.5t28 35.5t7.5 35.5q0 9 -9.5 17t-23 14t-26.5 9t-21 3q-14 0 -22 -3.5t-13 -8.5q-18 -18 -40 -70t-36 -127h2zM282 510l-144 187h100l66 -187h-22z" />
    <glyph glyph-name="eacute" unicode="&#xe9;" horiz-adv-x="378" 
d="M109 152q0 -51 25.5 -79t61.5 -28q22 0 49.5 14.5t69.5 44.5l13 -18q-40 -47 -76 -74t-86 -27q-30 0 -55 12t-43 33t-28 49.5t-10 61.5q0 58 19.5 116t51.5 104t75 74.5t89 28.5q49 0 78 -27.5t29 -66.5q0 -26 -14 -46t-45 -40.5t-81 -46t-123 -61.5v-24zM112 205
q59 31 96 53.5t57.5 41.5t28 35.5t7.5 35.5q0 9 -9.5 17t-23 14t-26.5 9t-21 3q-14 0 -22 -3.5t-13 -8.5q-18 -18 -40 -70t-36 -127h2zM230 510h-22l116 187h100z" />
    <glyph glyph-name="ecircumflex" unicode="&#xea;" horiz-adv-x="378" 
d="M109 152q0 -51 25.5 -79t61.5 -28q22 0 49.5 14.5t69.5 44.5l13 -18q-40 -47 -76 -74t-86 -27q-30 0 -55 12t-43 33t-28 49.5t-10 61.5q0 58 19.5 116t51.5 104t75 74.5t89 28.5q49 0 78 -27.5t29 -66.5q0 -26 -14 -46t-45 -40.5t-81 -46t-123 -61.5v-24zM112 205
q59 31 96 53.5t57.5 41.5t28 35.5t7.5 35.5q0 9 -9.5 17t-23 14t-26.5 9t-21 3q-14 0 -22 -3.5t-13 -8.5q-18 -18 -40 -70t-36 -127h2zM361 510l-86 128h-2l-122 -128h-22l106 187h92l56 -187h-22z" />
    <glyph glyph-name="edieresis" unicode="&#xeb;" horiz-adv-x="378" 
d="M109 152q0 -51 25.5 -79t61.5 -28q22 0 49.5 14.5t69.5 44.5l13 -18q-40 -47 -76 -74t-86 -27q-30 0 -55 12t-43 33t-28 49.5t-10 61.5q0 58 19.5 116t51.5 104t75 74.5t89 28.5q49 0 78 -27.5t29 -66.5q0 -26 -14 -46t-45 -40.5t-81 -46t-123 -61.5v-24zM112 205
q59 31 96 53.5t57.5 41.5t28 35.5t7.5 35.5q0 9 -9.5 17t-23 14t-26.5 9t-21 3q-14 0 -22 -3.5t-13 -8.5q-18 -18 -40 -70t-36 -127h2zM426 607q0 -25 -15.5 -44t-43.5 -19t-43.5 19t-15.5 44t15.5 44t43.5 19t43.5 -19t15.5 -44zM226 607q0 -25 -15.5 -44t-43.5 -19
t-43.5 19t-15.5 44t15.5 44t43.5 19t43.5 -19t15.5 -44z" />
    <glyph glyph-name="igrave" unicode="&#xec;" horiz-adv-x="253" 
d="M236 85q-9 -18 -24.5 -35.5t-33.5 -32t-36.5 -23.5t-33.5 -9q-8 0 -20.5 3t-24.5 8t-20 10.5t-7 10.5l99 380l-29 5l-76 -80l-17 18q9 20 23.5 42t32 40t35.5 30t33 12q8 0 21.5 -3t26.5 -7.5t22 -10t7 -11.5l-103 -379l29 -10l79 60zM189 510l-144 187h100l66 -187h-22z
" />
    <glyph glyph-name="iacute" unicode="&#xed;" horiz-adv-x="253" 
d="M236 85q-9 -18 -24.5 -35.5t-33.5 -32t-36.5 -23.5t-33.5 -9q-8 0 -20.5 3t-24.5 8t-20 10.5t-7 10.5l99 380l-29 5l-76 -80l-17 18q9 20 23.5 42t32 40t35.5 30t33 12q8 0 21.5 -3t26.5 -7.5t22 -10t7 -11.5l-103 -379l29 -10l79 60zM127 510h-22l116 187h100z" />
    <glyph glyph-name="icircumflex" unicode="&#xee;" horiz-adv-x="253" 
d="M236 85q-9 -18 -24.5 -35.5t-33.5 -32t-36.5 -23.5t-33.5 -9q-8 0 -20.5 3t-24.5 8t-20 10.5t-7 10.5l99 380l-29 5l-76 -80l-17 18q9 20 23.5 42t32 40t35.5 30t33 12q8 0 21.5 -3t26.5 -7.5t22 -10t7 -11.5l-103 -379l29 -10l79 60zM268 510l-86 128h-2l-122 -128h-22
l106 187h92l56 -187h-22z" />
    <glyph glyph-name="idieresis" unicode="&#xef;" horiz-adv-x="253" 
d="M236 85q-9 -18 -24.5 -35.5t-33.5 -32t-36.5 -23.5t-33.5 -9q-8 0 -20.5 3t-24.5 8t-20 10.5t-7 10.5l99 380l-29 5l-76 -80l-17 18q9 20 23.5 42t32 40t35.5 30t33 12q8 0 21.5 -3t26.5 -7.5t22 -10t7 -11.5l-103 -379l29 -10l79 60zM333 607q0 -25 -15.5 -44t-43.5 -19
t-43.5 19t-15.5 44t15.5 44t43.5 19t43.5 -19t15.5 -44zM133 607q0 -25 -15.5 -44t-43.5 -19t-43.5 19t-15.5 44t15.5 44t43.5 19t43.5 -19t15.5 -44z" />
    <glyph glyph-name="eth" unicode="&#xf0;" horiz-adv-x="440" 
d="M122 256q-6 -24 -9.5 -51t-3.5 -52q0 -23 4.5 -47t13.5 -43.5t23.5 -32t33.5 -12.5q27 0 49 20.5t39 49.5t28 60t16 52q3 12 5 28t3.5 31t2.5 27.5t1 18.5q0 23 -4 45.5t-13 40.5t-23 29t-34 11q-25 0 -47 -20t-39 -47.5t-29 -57.5t-17 -50zM114 515l10 43l116 36
q-39 29 -98 47l19 42q77 -24 134 -72l6 2q7 2 17 5t22.5 7t25.5 8q31 10 71 22l-10 -43l-99 -31q45 -47 69.5 -107.5t25.5 -129.5q0 -69 -19.5 -134t-52 -115t-76 -80t-91.5 -30q-39 0 -67.5 14.5t-47.5 40.5t-28 62t-9 79q0 50 16.5 100.5t46 91t69 66t85.5 25.5
q67 0 95 -63q-5 46 -21.5 87.5t-48.5 75.5z" />
    <glyph glyph-name="ntilde" unicode="&#xf1;" horiz-adv-x="507" 
d="M481 85q-9 -18 -24.5 -35.5t-33.5 -32t-36.5 -23.5t-33.5 -9q-8 0 -20.5 2.5t-24 7t-20 10.5t-8.5 12q0 9 5.5 31t13 48.5t16.5 55t16 51.5q6 21 13 42.5t13 41.5t9.5 36t3.5 26q0 16 -14 29.5t-32 13.5q-23 0 -64 -64.5t-102 -192.5l-27 -140l-82 5l35 147l51 245l-28 5
l-78 -75l-16 18q9 20 23.5 42t31.5 40t35 30t33 12q8 0 21 -2.5t25 -7t21 -10.5t9 -12q0 -9 -8 -42.5t-18.5 -73.5t-20.5 -77.5t-15 -55.5h9q47 101 79 159.5t59 85.5q21 21 39.5 28.5t38.5 7.5q13 0 25.5 -5.5t22.5 -14.5t16 -21.5t6 -27.5q0 -29 -12 -79t-29 -105
q-7 -22 -13.5 -45t-13 -44t-12 -39t-9.5 -30l29 -10l79 60zM462 643q-18 -60 -45.5 -91.5t-69.5 -31.5q-24 0 -44 11.5t-37.5 25t-32.5 25t-29 11.5t-26.5 -13.5t-32.5 -51.5h-26q17 60 44.5 91.5t69.5 31.5q24 0 44 -11.5t37 -25t32 -25t30 -11.5q14 0 27 13.5t33 51.5h26z
" />
    <glyph glyph-name="ograve" unicode="&#xf2;" horiz-adv-x="440" 
d="M406 268q0 -50 -17.5 -100.5t-47.5 -91t-70.5 -66t-86.5 -25.5q-39 0 -67.5 14.5t-47.5 40.5t-28 62t-9 79q0 50 17.5 100.5t47.5 91t70.5 66t86.5 25.5q39 0 67.5 -14.5t47.5 -40.5t28 -62t9 -79zM328 305q0 23 -4 45.5t-13 40.5t-23 29t-34 11q-25 0 -47 -20t-39 -47.5
t-29 -57.5t-17 -50q-6 -24 -9.5 -51t-3.5 -52q0 -23 4.5 -47t13.5 -43.5t23.5 -32t33.5 -12.5q27 0 49 20.5t39 49.5t28 60t16 52q5 25 8.5 52.5t3.5 52.5zM293 510l-144 187h100l66 -187h-22z" />
    <glyph glyph-name="oacute" unicode="&#xf3;" horiz-adv-x="440" 
d="M406 268q0 -50 -17.5 -100.5t-47.5 -91t-70.5 -66t-86.5 -25.5q-39 0 -67.5 14.5t-47.5 40.5t-28 62t-9 79q0 50 17.5 100.5t47.5 91t70.5 66t86.5 25.5q39 0 67.5 -14.5t47.5 -40.5t28 -62t9 -79zM328 305q0 23 -4 45.5t-13 40.5t-23 29t-34 11q-25 0 -47 -20t-39 -47.5
t-29 -57.5t-17 -50q-6 -24 -9.5 -51t-3.5 -52q0 -23 4.5 -47t13.5 -43.5t23.5 -32t33.5 -12.5q27 0 49 20.5t39 49.5t28 60t16 52q5 25 8.5 52.5t3.5 52.5zM241 510h-22l116 187h100z" />
    <glyph glyph-name="ocircumflex" unicode="&#xf4;" horiz-adv-x="440" 
d="M406 268q0 -50 -17.5 -100.5t-47.5 -91t-70.5 -66t-86.5 -25.5q-39 0 -67.5 14.5t-47.5 40.5t-28 62t-9 79q0 50 17.5 100.5t47.5 91t70.5 66t86.5 25.5q39 0 67.5 -14.5t47.5 -40.5t28 -62t9 -79zM328 305q0 23 -4 45.5t-13 40.5t-23 29t-34 11q-25 0 -47 -20t-39 -47.5
t-29 -57.5t-17 -50q-6 -24 -9.5 -51t-3.5 -52q0 -23 4.5 -47t13.5 -43.5t23.5 -32t33.5 -12.5q27 0 49 20.5t39 49.5t28 60t16 52q5 25 8.5 52.5t3.5 52.5zM372 510l-86 128h-2l-122 -128h-22l106 187h92l56 -187h-22z" />
    <glyph glyph-name="otilde" unicode="&#xf5;" horiz-adv-x="440" 
d="M406 268q0 -50 -17.5 -100.5t-47.5 -91t-70.5 -66t-86.5 -25.5q-39 0 -67.5 14.5t-47.5 40.5t-28 62t-9 79q0 50 17.5 100.5t47.5 91t70.5 66t86.5 25.5q39 0 67.5 -14.5t47.5 -40.5t28 -62t9 -79zM328 305q0 23 -4 45.5t-13 40.5t-23 29t-34 11q-25 0 -47 -20t-39 -47.5
t-29 -57.5t-17 -50q-6 -24 -9.5 -51t-3.5 -52q0 -23 4.5 -47t13.5 -43.5t23.5 -32t33.5 -12.5q27 0 49 20.5t39 49.5t28 60t16 52q5 25 8.5 52.5t3.5 52.5zM455 643q-18 -60 -45.5 -91.5t-69.5 -31.5q-24 0 -44 11.5t-37.5 25t-32.5 25t-29 11.5t-26.5 -13.5t-32.5 -51.5
h-26q17 60 44.5 91.5t69.5 31.5q24 0 44 -11.5t37 -25t32 -25t30 -11.5q14 0 27 13.5t33 51.5h26z" />
    <glyph glyph-name="odieresis" unicode="&#xf6;" horiz-adv-x="440" 
d="M406 268q0 -50 -17.5 -100.5t-47.5 -91t-70.5 -66t-86.5 -25.5q-39 0 -67.5 14.5t-47.5 40.5t-28 62t-9 79q0 50 17.5 100.5t47.5 91t70.5 66t86.5 25.5q39 0 67.5 -14.5t47.5 -40.5t28 -62t9 -79zM328 305q0 23 -4 45.5t-13 40.5t-23 29t-34 11q-25 0 -47 -20t-39 -47.5
t-29 -57.5t-17 -50q-6 -24 -9.5 -51t-3.5 -52q0 -23 4.5 -47t13.5 -43.5t23.5 -32t33.5 -12.5q27 0 49 20.5t39 49.5t28 60t16 52q5 25 8.5 52.5t3.5 52.5zM447 607q0 -25 -15.5 -44t-43.5 -19t-43.5 19t-15.5 44t15.5 44t43.5 19t43.5 -19t15.5 -44zM247 607
q0 -25 -15.5 -44t-43.5 -19t-43.5 19t-15.5 44t15.5 44t43.5 19t43.5 -19t15.5 -44z" />
    <glyph glyph-name="divide" unicode="&#xf7;" horiz-adv-x="486" 
d="M41 208l3 54h399l3 -54h-405zM296 94q0 -20 -14 -36t-37 -16t-37.5 16t-14.5 36t14.5 35.5t37.5 15.5t37 -15.5t14 -35.5zM296 374q0 -20 -14.5 -36t-37.5 -16t-37 16t-14 36t14 36t37 16t37.5 -16t14.5 -36z" />
    <glyph glyph-name="oslash" unicode="&#xf8;" horiz-adv-x="440" 
d="M228 207q-17 -30 -33 -59q-17 -28 -30 -50.5t-21 -36.5l-9 -14q19 -29 49 -29q27 0 49 20.5t39 49.5t28 60t16 52q5 25 8.5 52.5t3.5 52.5q0 32 -8 62zM302 405q-19 26 -48 26q-25 0 -47 -20t-39 -47.5t-29 -57.5t-17 -50q-6 -24 -9.5 -51t-3.5 -52q0 -35 9 -67zM82 24
q-26 26 -38 66.5t-12 90.5t17.5 100.5t47.5 91t70.5 66t86.5 25.5q41 0 72 -17l87 151h40l-99 -172q26 -26 39 -66.5t13 -91.5q0 -50 -17.5 -100.5t-47.5 -91t-70.5 -66t-86.5 -25.5q-44 0 -74 18q-11 -20 -24.5 -43t-24.5 -43q-13 -24 -27 -46h-40z" />
    <glyph glyph-name="ugrave" unicode="&#xf9;" horiz-adv-x="507" 
d="M28 340q9 20 23.5 42t32 40t35.5 30t33 12q8 0 20.5 -2.5t24.5 -7t21 -10.5t9 -12q0 -9 -5.5 -31t-13 -48.5t-16.5 -55t-16 -51.5q-6 -21 -13 -42.5t-13 -41.5t-9.5 -36t-3.5 -26q0 -16 14 -29.5t32 -13.5q23 0 64 64.5t102 192.5l27 140l82 -5l-35 -147
q-11 -61 -22 -112q-4 -22 -8.5 -43.5t-8.5 -40.5t-7.5 -33t-5.5 -20l29 -10l79 60l17 -18q-9 -18 -24.5 -35.5t-33.5 -32t-36.5 -23.5t-33.5 -9q-8 0 -20.5 2.5t-24 7t-20 10.5t-8.5 12q0 9 8 42.5t18.5 73.5t20.5 77.5t15 55.5h-9q-47 -101 -79 -159.5t-59 -85.5
q-21 -21 -39.5 -28.5t-38.5 -7.5q-13 0 -25.5 5.5t-22.5 14.5t-16 21.5t-6 27.5q0 29 12 79t29 105q14 45 26.5 89t20.5 70l-29 5l-76 -80zM306 510l-144 187h100l66 -187h-22z" />
    <glyph glyph-name="uacute" unicode="&#xfa;" horiz-adv-x="507" 
d="M28 340q9 20 23.5 42t32 40t35.5 30t33 12q8 0 20.5 -2.5t24.5 -7t21 -10.5t9 -12q0 -9 -5.5 -31t-13 -48.5t-16.5 -55t-16 -51.5q-6 -21 -13 -42.5t-13 -41.5t-9.5 -36t-3.5 -26q0 -16 14 -29.5t32 -13.5q23 0 64 64.5t102 192.5l27 140l82 -5l-35 -147
q-11 -61 -22 -112q-4 -22 -8.5 -43.5t-8.5 -40.5t-7.5 -33t-5.5 -20l29 -10l79 60l17 -18q-9 -18 -24.5 -35.5t-33.5 -32t-36.5 -23.5t-33.5 -9q-8 0 -20.5 2.5t-24 7t-20 10.5t-8.5 12q0 9 8 42.5t18.5 73.5t20.5 77.5t15 55.5h-9q-47 -101 -79 -159.5t-59 -85.5
q-21 -21 -39.5 -28.5t-38.5 -7.5q-13 0 -25.5 5.5t-22.5 14.5t-16 21.5t-6 27.5q0 29 12 79t29 105q14 45 26.5 89t20.5 70l-29 5l-76 -80zM264 510h-22l116 187h100z" />
    <glyph glyph-name="ucircumflex" unicode="&#xfb;" horiz-adv-x="507" 
d="M28 340q9 20 23.5 42t32 40t35.5 30t33 12q8 0 20.5 -2.5t24.5 -7t21 -10.5t9 -12q0 -9 -5.5 -31t-13 -48.5t-16.5 -55t-16 -51.5q-6 -21 -13 -42.5t-13 -41.5t-9.5 -36t-3.5 -26q0 -16 14 -29.5t32 -13.5q23 0 64 64.5t102 192.5l27 140l82 -5l-35 -147
q-11 -61 -22 -112q-4 -22 -8.5 -43.5t-8.5 -40.5t-7.5 -33t-5.5 -20l29 -10l79 60l17 -18q-9 -18 -24.5 -35.5t-33.5 -32t-36.5 -23.5t-33.5 -9q-8 0 -20.5 2.5t-24 7t-20 10.5t-8.5 12q0 9 8 42.5t18.5 73.5t20.5 77.5t15 55.5h-9q-47 -101 -79 -159.5t-59 -85.5
q-21 -21 -39.5 -28.5t-38.5 -7.5q-13 0 -25.5 5.5t-22.5 14.5t-16 21.5t-6 27.5q0 29 12 79t29 105q14 45 26.5 89t20.5 70l-29 5l-76 -80zM395 510l-86 128h-2l-122 -128h-22l106 187h92l56 -187h-22z" />
    <glyph glyph-name="udieresis" unicode="&#xfc;" horiz-adv-x="507" 
d="M28 340q9 20 23.5 42t32 40t35.5 30t33 12q8 0 20.5 -2.5t24.5 -7t21 -10.5t9 -12q0 -9 -5.5 -31t-13 -48.5t-16.5 -55t-16 -51.5q-6 -21 -13 -42.5t-13 -41.5t-9.5 -36t-3.5 -26q0 -16 14 -29.5t32 -13.5q23 0 64 64.5t102 192.5l27 140l82 -5l-35 -147
q-11 -61 -22 -112q-4 -22 -8.5 -43.5t-8.5 -40.5t-7.5 -33t-5.5 -20l29 -10l79 60l17 -18q-9 -18 -24.5 -35.5t-33.5 -32t-36.5 -23.5t-33.5 -9q-8 0 -20.5 2.5t-24 7t-20 10.5t-8.5 12q0 9 8 42.5t18.5 73.5t20.5 77.5t15 55.5h-9q-47 -101 -79 -159.5t-59 -85.5
q-21 -21 -39.5 -28.5t-38.5 -7.5q-13 0 -25.5 5.5t-22.5 14.5t-16 21.5t-6 27.5q0 29 12 79t29 105q14 45 26.5 89t20.5 70l-29 5l-76 -80zM470 607q0 -25 -15.5 -44t-43.5 -19t-43.5 19t-15.5 44t15.5 44t43.5 19t43.5 -19t15.5 -44zM270 607q0 -25 -15.5 -44t-43.5 -19
t-43.5 19t-15.5 44t15.5 44t43.5 19t43.5 -19t15.5 -44z" />
    <glyph glyph-name="yacute" unicode="&#xfd;" horiz-adv-x="429" 
d="M434 397q0 -20 -10.5 -46t-26.5 -54t-35 -55.5t-35 -50.5l-101 -144l-59 -112q-49 -93 -96 -142t-101 -49q-15 0 -29 4.5t-25 13.5t-17.5 21.5t-6.5 27.5q0 24 17.5 39.5t35.5 15.5q12 0 23.5 -5t20.5 -14t14.5 -21t4.5 -26l17 2l135 191l-49 13l7 391l-29 5l-76 -80
l-17 18q9 20 23.5 42t32 40t35.5 30t33 12q8 0 21 -2.5t25.5 -7t21.5 -10.5t9 -12l-12 -379h11l169 282v10q-21 8 -36.5 23t-15.5 36q0 25 15 43.5t40 18.5q31 0 48.5 -18.5t17.5 -50.5zM235 510h-22l116 187h100z" />
    <glyph glyph-name="thorn" unicode="&#xfe;" horiz-adv-x="446" 
d="M413 320q0 -81 -30.5 -152.5t-76.5 -117.5q-30 -30 -64.5 -48t-70.5 -18q-25 0 -45 11.5t-33 27.5h-1l-39 -199q-3 -20 19 -24l67 -11l4 -35h-251l2 35l56 11q14 2 19.5 8t7.5 16l160 749q5 18 -6 23l-63 28l4 25l167 48l-55 -233l-52 -217h8q57 108 97.5 162.5
t85.5 54.5q19 0 35.5 -11t28.5 -30.5t19 -46t7 -56.5zM334 300q0 39 -11 67.5t-35 28.5q-13 0 -26.5 -10t-32 -34.5t-43.5 -65t-60 -102.5l-20 -88q11 -13 24.5 -26t27 -24t27 -18t25.5 -7q7 0 15 4.5t16 12.5q15 15 31.5 45t30 67t22.5 76.5t9 73.5z" />
    <glyph glyph-name="ydieresis" unicode="&#xff;" horiz-adv-x="429" 
d="M434 397q0 -20 -10.5 -46t-26.5 -54t-35 -55.5t-35 -50.5l-101 -144l-59 -112q-49 -93 -96 -142t-101 -49q-15 0 -29 4.5t-25 13.5t-17.5 21.5t-6.5 27.5q0 24 17.5 39.5t35.5 15.5q12 0 23.5 -5t20.5 -14t14.5 -21t4.5 -26l17 2l135 191l-49 13l7 391l-29 5l-76 -80
l-17 18q9 20 23.5 42t32 40t35.5 30t33 12q8 0 21 -2.5t25.5 -7t21.5 -10.5t9 -12l-12 -379h11l169 282v10q-21 8 -36.5 23t-15.5 36q0 25 15 43.5t40 18.5q31 0 48.5 -18.5t17.5 -50.5zM431 607q0 -25 -15.5 -44t-43.5 -19t-43.5 19t-15.5 44t15.5 44t43.5 19t43.5 -19
t15.5 -44zM231 607q0 -25 -15.5 -44t-43.5 -19t-43.5 19t-15.5 44t15.5 44t43.5 19t43.5 -19t15.5 -44z" />
    <glyph glyph-name="dotlessi" unicode="&#x131;" horiz-adv-x="253" 
d="M236 85q-9 -18 -24.5 -35.5t-33.5 -32t-36.5 -23.5t-33.5 -9q-8 0 -20.5 3t-24.5 8t-20 10.5t-7 10.5l99 380l-29 5l-76 -80l-17 18q9 20 23.5 42t32 40t35.5 30t33 12q8 0 21.5 -3t26.5 -7.5t22 -10t7 -11.5l-103 -379l29 -10l79 60z" />
    <glyph glyph-name="Lslash" unicode="&#x141;" horiz-adv-x="558" 
d="M112 200q0 1 -12 -2.5t-27 -7.5q-18 -4 -39 -10v43l84 22l41 310q3 20 -20 24l-52 11l-3 35h263l-3 -35l-63 -11q-14 -2 -19 -8.5t-7 -15.5l-18 -142q-3 -27 -6.5 -52t-6.5 -45t-4 -33l-2 -12l107 29v-43l-113 -30l-25 -188h29q64 0 101.5 1.5t59 7t30.5 15.5t16 26
l46 111h52l-48 -200h-462l3 35l55 11q23 4 26 24z" />
    <glyph glyph-name="lslash" unicode="&#x142;" horiz-adv-x="270" 
d="M81 201q0 1 -12.5 -2.5t-28.5 -8.5q-18 -5 -42 -11v43l92 25l64 326q3 19 -6 23l-63 28l4 25l165 48q-14 -70 -29 -144q-13 -63 -28.5 -138.5t-30.5 -146.5l83 22v-43l-92 -25q-14 -67 -24.5 -114t-12.5 -55l29 -10l79 60l17 -18q-9 -18 -24.5 -35.5t-33.5 -32
t-36.5 -23.5t-33.5 -9q-8 0 -20 6.5t-23 15t-18.5 17.5t-6.5 13z" />
    <glyph glyph-name="OE" unicode="&#x152;" horiz-adv-x="904" 
d="M825 0h-478q-69 0 -124.5 20t-93.5 55.5t-58.5 85.5t-20.5 110q0 72 23.5 132.5t75.5 111.5q48 48 124.5 79t176.5 31h458l-35 -186h-39l-11 97q-2 17 -7.5 27t-25.5 15t-59.5 6.5t-108.5 1.5h-30l-34 -249h21q29 0 48.5 1.5t32 5t20 9t12.5 13.5l21 60h39l-51 -215h-38
l5 64q1 7 -2 11.5t-13 7.5t-29.5 4t-51.5 1h-19l-35 -260h24q75 0 118 1.5t66 6.5t32.5 15t16.5 27l39 92h54zM424 586q-58 -2 -107.5 -24t-85.5 -63t-56.5 -99.5t-20.5 -133.5q0 -50 13 -91.5t39.5 -71.5t67 -47t94.5 -17h54l71 532z" />
    <glyph glyph-name="oe" unicode="&#x153;" horiz-adv-x="658" 
d="M652 370q0 -26 -14 -46t-45 -40.5t-81 -46t-123 -61.5v-24q0 -51 25.5 -79t61.5 -28q22 0 49.5 14.5t69.5 44.5l13 -18q-40 -47 -76 -74t-86 -27q-45 0 -73 22.5t-41 58.5q-27 -36 -64.5 -58.5t-83.5 -22.5q-39 0 -67.5 14.5t-47.5 40.5t-28 61.5t-9 78.5q0 50 16.5 101
t45.5 91.5t70 66t90 25.5q54 0 85.5 -27t45.5 -74q29 45 70 73t90 28t78 -27.5t29 -66.5zM392 205q59 31 96 53.5t57.5 41.5t28 35.5t7.5 35.5q0 9 -9.5 17t-23 14t-26.5 9t-21 3q-14 0 -22 -3.5t-13 -8.5q-18 -18 -40 -70t-36 -127h2zM328 305q0 23 -4 45.5t-13 40.5
t-23 29t-34 11q-25 0 -47 -20t-39 -47.5t-29 -57.5t-17 -50q-6 -24 -9.5 -51t-3.5 -52q0 -23 4.5 -47t13.5 -43.5t23.5 -32t33.5 -12.5q27 0 49 20.5t39 49.5t28 60t16 52q5 25 8.5 52.5t3.5 52.5z" />
    <glyph glyph-name="Scaron" unicode="&#x160;" horiz-adv-x="502" 
d="M443 171q0 -41 -18.5 -75.5t-50.5 -59t-75 -38t-93 -13.5q-59 0 -103.5 8t-83.5 21l12 179h41l28 -137q23 -12 53 -19.5t71 -7.5q63 0 96.5 30t34.5 78q0 26 -9.5 46t-27 38t-42 34.5t-53.5 34.5q-33 20 -59.5 39t-44.5 40t-27.5 47t-9.5 60q0 36 18 65.5t47 51.5
t66.5 34t76.5 12q26 0 45 -1t35 -3.5t30 -5.5t30 -6q0 1 8 2.5t18 3.5l26 6l-26 -192h-44l-13 124q-26 12 -56.5 19.5t-68.5 7.5q-19 0 -38 -5.5t-34 -16.5t-24.5 -26t-9.5 -35q0 -26 8.5 -47t26 -39t42.5 -35t56 -35q28 -16 54 -34.5t45.5 -40t31 -48.5t11.5 -61zM354 677
h-92l-56 187h22l87 -128h2l121 128h22z" />
    <glyph glyph-name="scaron" unicode="&#x161;" horiz-adv-x="347" 
d="M340 389q0 -22 -13.5 -36t-35.5 -14q-17 0 -27 12t-10 29q0 10 6 22q-17 8 -38 14.5t-44 8.5q-7 -2 -15 -9t-15.5 -16t-12.5 -19.5t-6 -19.5q-1 -14 5 -28t17 -28t24.5 -27.5t26.5 -27.5q11 -12 26.5 -28t29 -34.5t22.5 -39t7 -40.5q-3 -31 -19.5 -54t-40 -38.5
t-49.5 -23t-48 -7.5q-28 0 -52.5 3.5t-43 12.5t-29.5 24t-11 37q0 21 14 35t36 14q18 0 27.5 -12t9.5 -29q0 -10 -7 -22q19 -8 44.5 -15.5t47.5 -9.5q7 3 16 11t16.5 17.5t13.5 20t7 18.5q1 14 -5.5 28t-17 27.5t-24 27t-27.5 26.5q-12 11 -27 27t-28.5 35t-22.5 39.5
t-7 41.5q3 31 19.5 54t39 38t49 22.5t48.5 7.5q54 0 89 -15.5t35 -59.5zM276 510h-92l-56 187h22l87 -128h2l121 128h22z" />
    <glyph glyph-name="Ydieresis" unicode="&#x178;" horiz-adv-x="593" 
d="M645 590l-28 -7q-27 -7 -49 -20t-47 -50l-166 -245l-26 -198q-3 -20 20 -24l69 -11l3 -35h-292l4 35l74 11q13 2 18.5 8.5t7.5 15.5l26 198l-120 245q-16 32 -29 45t-35 20l-39 12l-2 35h258l-4 -35l-41 -6q-25 -4 -25 -23t19 -57l88 -193h5l143 218q11 18 10.5 32
t-29.5 20l-44 9l-3 35h237zM523 774q0 -25 -15.5 -44t-43.5 -19t-43.5 19t-15.5 44t15.5 44t43.5 19t43.5 -19t15.5 -44zM323 774q0 -25 -15.5 -44t-43.5 -19t-43.5 19t-15.5 44t15.5 44t43.5 19t43.5 -19t15.5 -44z" />
    <glyph glyph-name="Zcaron" unicode="&#x17d;" horiz-adv-x="563" 
d="M479 0h-476l5 36l459 545v5h-109q-62 0 -97.5 -3.5t-55 -11.5t-29 -21.5t-19.5 -33.5l-31 -83h-44l25 192h478l-5 -37l-460 -545v-5l105 1q66 1 104.5 4t59.5 9.5t31 18t19 29.5l35 88h51zM404 677h-92l-56 187h22l87 -128h2l121 128h22z" />
    <glyph glyph-name="zcaron" unicode="&#x17e;" horiz-adv-x="406" 
d="M309 332q-17 5 -41.5 18t-49 27.5t-45.5 28t-31 17.5l-20 -16q9 -12 14.5 -23t5.5 -21q0 -19 -12 -30.5t-31 -11.5q-24 0 -35.5 13t-11.5 30t8.5 34t25 31t40.5 23.5t55 10.5q36 0 59 -11.5t37.5 -28t22.5 -34t15 -30.5h10l25 105q28 0 46.5 -16t18.5 -36
q0 -29 -20.5 -48t-52.5 -40l-235 -201q17 -4 42.5 -19.5t52 -32.5t49 -32t32.5 -19l21 17q-25 27 -25 48q0 17 12.5 28.5t34.5 11.5q21 0 32 -12t11 -31q0 -16 -7.5 -33.5t-22.5 -31.5t-37.5 -24t-52.5 -13q-33 0 -57.5 10t-41.5 26.5t-29 37t-20 42.5h-10l-27 -111
q-28 0 -46.5 16t-18.5 36q0 29 18 48t50 40zM296 510h-92l-56 187h22l87 -128h2l121 128h22z" />
    <glyph glyph-name="florin" unicode="&#x192;" horiz-adv-x="516" 
d="M534 561q0 -24 -13.5 -41t-36.5 -17q-27 0 -43 20t-19 52l-60 -11q-6 -10 -12 -29.5t-12 -43.5t-11.5 -50.5t-10.5 -52.5h118l4 -48h-128q-9 -48 -19.5 -93.5t-23.5 -85t-30 -72.5t-39 -57q-23 -23 -55.5 -35.5t-62.5 -12.5q-32 0 -55 17t-23 46q0 24 13.5 39.5
t36.5 15.5q27 0 42 -20.5t18 -49.5l58 23q5 11 11.5 32t13 47t12.5 55t10 55l14 92l-87 4l3 29l95 23q14 60 36.5 109t45.5 74q25 26 60 40.5t65 14.5q39 0 62 -20t23 -49z" />
    <glyph glyph-name="circumflex" unicode="&#x2c6;" 
d="M332 510l-86 128h-2l-122 -128h-22l106 187h92l56 -187h-22z" />
    <glyph glyph-name="caron" unicode="&#x2c7;" 
d="M273 510h-92l-56 187h22l87 -128h2l121 128h22z" />
    <glyph glyph-name="breve" unicode="&#x2d8;" 
d="M389 697q-12 -34 -25.5 -68.5t-32 -62t-44 -44.5t-61.5 -17t-56.5 17t-32 44.5t-15.5 62t-7 68.5h22q8 -24 16 -48.5t19 -44.5t26 -32.5t36 -12.5t39 12.5t34 32.5t31 44.5t29 48.5h22z" />
    <glyph glyph-name="dotaccent" unicode="&#x2d9;" 
d="M307 607q0 -25 -15.5 -44t-43.5 -19t-43.5 19t-15.5 44t15.5 44t43.5 19t43.5 -19t15.5 -44z" />
    <glyph glyph-name="ring" unicode="&#x2da;" 
d="M337 607q0 -37 -23.5 -63.5t-65.5 -26.5t-66 26.5t-23 63.5t24 63.5t65 26.5t65.5 -26.5t23.5 -63.5zM307 607q0 25 -15.5 44t-43.5 19t-43.5 -19t-15.5 -44t15.5 -44t43.5 -19t43.5 19t15.5 44z" />
    <glyph glyph-name="ogonek" unicode="&#x2db;" 
d="M246 -201q-25 -16 -51 -26t-56 -10q-21 0 -39.5 6.5t-32.5 18t-22.5 27.5t-8.5 35q0 27 12.5 52t34.5 46.5t50.5 38.5t59.5 29h50q-73 -34 -108 -73t-35 -79q0 -26 18 -44.5t53 -18.5q20 0 36 6t33 16z" />
    <glyph glyph-name="tilde" unicode="&#x2dc;" 
d="M409 643q-18 -60 -45.5 -91.5t-69.5 -31.5q-24 0 -44 11.5t-37.5 25t-32.5 25t-29 11.5t-26.5 -13.5t-32.5 -51.5h-26q17 60 44.5 91.5t69.5 31.5q24 0 44 -11.5t37 -25t32 -25t30 -11.5q14 0 27 13.5t33 51.5h26z" />
    <glyph glyph-name="hungarumlaut" unicode="&#x2dd;" 
d="M279 510h-22l111 187h90zM127 510h-22l111 187h90z" />
    <glyph glyph-name="endash" unicode="&#x2013;" horiz-adv-x="470" 
d="M29 208l3 53h412l3 -53h-418z" />
    <glyph glyph-name="emdash" unicode="&#x2014;" horiz-adv-x="940" 
d="M29 208l3 53h882l3 -53h-888z" />
    <glyph glyph-name="quoteleft" unicode="&#x2018;" horiz-adv-x="232" 
d="M212 427q-6 -23 -26 -38t-48 -15q-37 0 -60 25t-23 59t18 65.5t48 59t69 50.5t82 39l15 -20q-21 -10 -44 -26t-41.5 -35.5t-31 -41t-12.5 -42.5q0 -18 8.5 -32.5t19 -25t18.5 -16t8 -6.5z" />
    <glyph glyph-name="quoteright" unicode="&#x2019;" horiz-adv-x="232" 
d="M237 565q0 -33 -16.5 -61.5t-41 -52t-54.5 -43t-57 -34.5l-24 19q18 10 36.5 23.5t33 30t24 35.5t9.5 38q0 21 -10.5 36.5t-23.5 26t-23.5 16t-10.5 6.5q0 23 21.5 38.5t47.5 15.5q17 0 33 -7t28.5 -19.5t20 -30t7.5 -37.5z" />
    <glyph glyph-name="quotesinglbase" unicode="&#x201a;" horiz-adv-x="232" 
d="M163 23q0 -33 -16.5 -61.5t-41 -52t-54.5 -43t-57 -34.5l-24 19q18 10 36.5 23.5t33 30t24 35t9.5 38.5q0 21 -10.5 36.5t-23.5 26t-23.5 16t-10.5 6.5q0 23 21.5 38.5t47.5 15.5q17 0 33 -7t28.5 -19.5t20 -30t7.5 -37.5z" />
    <glyph glyph-name="quotedblleft" unicode="&#x201c;" horiz-adv-x="434" 
d="M429 428q0 -23 -21.5 -38.5t-47.5 -15.5q-17 0 -33 7t-28.5 19.5t-20 30t-7.5 37.5q0 33 16.5 61.5t41 52t54.5 43t57 34.5l24 -19q-18 -10 -36.5 -23.5t-33 -30t-24 -35t-9.5 -38.5q0 -21 10.5 -36.5t23.5 -26t23.5 -16t10.5 -6.5zM213 428q0 -23 -21.5 -38.5
t-47.5 -15.5q-17 0 -33 7t-28.5 19.5t-20 30t-7.5 37.5q0 33 16.5 61.5t41 52t54.5 43t57 34.5l24 -19q-18 -10 -36.5 -23.5t-33 -30t-24 -35t-9.5 -38.5q0 -21 10.5 -36.5t23.5 -26t23.5 -16t10.5 -6.5z" />
    <glyph glyph-name="quotedblright" unicode="&#x201d;" horiz-adv-x="434" 
d="M460 565q0 -33 -16.5 -61.5t-41 -52t-54.5 -43t-57 -34.5l-24 19q18 10 36.5 23.5t33 30t24 35.5t9.5 38q0 21 -10.5 36.5t-23.5 26t-23.5 16t-10.5 6.5q0 23 21.5 38.5t47.5 15.5q17 0 33 -7t28.5 -19.5t20 -30t7.5 -37.5zM244 565q0 -33 -16.5 -61.5t-41 -52t-54.5 -43
t-57 -34.5l-24 19q18 10 36.5 23.5t33 30t24 35.5t9.5 38q0 21 -10.5 36.5t-23.5 26t-23.5 16t-10.5 6.5q0 23 21.5 38.5t47.5 15.5q17 0 33 -7t28.5 -19.5t20 -30t7.5 -37.5z" />
    <glyph glyph-name="quotedblbase" unicode="&#x201e;" horiz-adv-x="434" 
d="M386 23q0 -33 -16.5 -61.5t-41 -52t-54.5 -43t-57 -34.5l-24 19q18 10 36.5 23.5t33 30t24 35t9.5 38.5q0 21 -10.5 36.5t-23.5 26t-23.5 16t-10.5 6.5q0 23 21.5 38.5t47.5 15.5q17 0 33 -7t28.5 -19.5t20 -30t7.5 -37.5zM170 23q0 -33 -16.5 -61.5t-41 -52t-54.5 -43
t-57 -34.5l-24 19q18 10 36.5 23.5t33 30t24 35t9.5 38.5q0 21 -10.5 36.5t-23.5 26t-23.5 16t-10.5 6.5q0 23 21.5 38.5t47.5 15.5q17 0 33 -7t28.5 -19.5t20 -30t7.5 -37.5z" />
    <glyph glyph-name="dagger" unicode="&#x2020;" horiz-adv-x="470" 
d="M463 391h-180v-547h-40v547h-179l-4 41h183v193h40v-193h184z" />
    <glyph glyph-name="daggerdbl" unicode="&#x2021;" horiz-adv-x="470" 
d="M284 21v-177h-40v177h-183l4 41h179v344h-179l-4 41h183v178h40v-178h184l-4 -41h-180v-344h180l4 -41h-184z" />
    <glyph glyph-name="bullet" unicode="&#x2022;" horiz-adv-x="455" 
d="M420 232q0 -11 -6 -30.5t-14.5 -40.5t-18 -39.5t-17.5 -26.5q-7 -7 -25.5 -17t-39.5 -18.5t-41 -14.5t-31 -6q-10 0 -30 6t-41 14.5t-39 18.5t-25 17q-7 8 -17 26.5t-19 39.5t-15 40.5t-6 30.5t6 30.5t15 40.5t19 39.5t17 25.5q8 8 26 17.5t39 18t41 14.5t30 6
q11 0 30.5 -6t40.5 -14.5t39.5 -18t25.5 -17.5q8 -7 17.5 -25.5t18 -39.5t14.5 -40.5t6 -30.5z" />
    <glyph glyph-name="ellipsis" unicode="&#x2026;" horiz-adv-x="696" 
d="M625 52q0 -26 -18.5 -46.5t-47.5 -20.5t-48.5 20.5t-19.5 46.5t19.5 45.5t48.5 19.5t47.5 -19.5t18.5 -45.5zM393 52q0 -26 -18.5 -46.5t-47.5 -20.5t-48.5 20.5t-19.5 46.5t19.5 45.5t48.5 19.5t47.5 -19.5t18.5 -45.5zM161 52q0 -26 -18.5 -46.5t-47.5 -20.5
t-48.5 20.5t-19.5 46.5t19.5 45.5t48.5 19.5t47.5 -19.5t18.5 -45.5z" />
    <glyph glyph-name="perthousand" unicode="&#x2030;" horiz-adv-x="1126" 
d="M395 500q0 -39 -14.5 -73t-39 -59.5t-58 -40t-72.5 -14.5q-32 0 -60.5 10.5t-49.5 30t-33.5 47t-12.5 61.5q0 38 14.5 71.5t39 59t58 40t70.5 14.5q33 0 61.5 -10t50 -29t34 -46.5t12.5 -61.5zM104 -15h-59l630 654h59zM729 164q0 -39 -14.5 -73t-39.5 -59.5t-58.5 -40
t-71.5 -14.5q-67 0 -110.5 39t-43.5 108q0 39 14 73t38.5 59.5t57.5 40t72 14.5q32 0 60.5 -10t49.5 -29t33.5 -46.5t12.5 -61.5zM345 490q0 50 -31 81.5t-81 31.5q-28 0 -51.5 -11.5t-41 -31t-27.5 -44.5t-10 -52q0 -50 32.5 -79.5t79.5 -29.5q28 0 51.5 10.5t41 29
t27.5 43t10 52.5zM681 158q0 24 -9 44t-24 34.5t-35.5 22.5t-43.5 8q-28 0 -51.5 -11.5t-41 -31t-27.5 -44.5t-10 -52q0 -50 31.5 -79.5t78.5 -29.5q28 0 52 11.5t42 30.5t28 44t10 53zM1110 164q0 -39 -14.5 -73t-39.5 -59.5t-58.5 -40t-71.5 -14.5q-67 0 -110.5 39
t-43.5 108q0 39 14 73t38.5 59.5t57.5 40t72 14.5q32 0 60.5 -10t49.5 -29t33.5 -46.5t12.5 -61.5zM1062 158q0 24 -9 44t-24 34.5t-35.5 22.5t-43.5 8q-28 0 -51.5 -11.5t-41 -31t-27.5 -44.5t-10 -52q0 -50 31.5 -79.5t78.5 -29.5q28 0 52 11.5t42 30.5t28 44t10 53z" />
    <glyph glyph-name="guilsinglleft" unicode="&#x2039;" horiz-adv-x="300" 
d="M225 50l-197 152v42l243 156l7 -20l-178 -160l137 -150z" />
    <glyph glyph-name="guilsinglright" unicode="&#x203a;" horiz-adv-x="300" 
d="M30 46l-7 20l163 155l-122 155l12 20l197 -152l-6 -46z" />
    <glyph glyph-name="fraction" unicode="&#x2044;" horiz-adv-x="618" 
d="M63 -15h-61l554 654h61z" />
    <glyph glyph-name="Euro" unicode="&#x20ac;" horiz-adv-x="504" 
d="M165 213q11 -78 51.5 -124.5t109.5 -46.5q43 0 75.5 17.5t60.5 40.5l12 -25q-31 -38 -77.5 -64t-100.5 -26q-49 0 -87.5 18t-65.5 49.5t-43.5 73t-22.5 87.5h-71l3 41h65v11q0 18 1.5 35.5t3.5 34.5h-57l3 41h62q15 58 43.5 105t66.5 80.5t84 51.5t95 18q78 0 115 -27
t37 -62q0 -24 -12 -41t-37 -17q-14 0 -25 7t-19 19t-12.5 27t-5.5 30q-13 10 -34 15.5t-39 5.5q-65 0 -111.5 -52t-63.5 -160h201l3 -41h-208q-3 -31 -3 -67v-14h192l3 -41h-192z" />
    <glyph glyph-name="trademark" unicode="&#x2122;" horiz-adv-x="917" 
d="M755 253l1 27l30 7q8 2 10.5 13.5t1.5 48.5l-4 232h-10l-107 -316h-50l-85 319h-10l-6 -195q-1 -33 -1.5 -53t0.5 -30.5t4 -14.5t8 -6l32 -5l1 -27h-132l2 27l30 5q5 1 8.5 4.5t6.5 14t5 31t3 54.5l6 188q0 5 -2 9t-10 6l-35 6l-2 27h146l68 -278h10l90 278h148l-2 -27
l-34 -6q-8 -2 -11 -6t-3 -9l4 -228q0 -19 2 -31t4.5 -18.5t6 -9t7.5 -3.5l30 -7l2 -27h-163zM391 489h-30l-6 19q-9 27 -16 44t-17.5 27t-26.5 13.5t-42 3.5h-1v-296q0 -4 2.5 -8t9.5 -6l44 -6l1 -27h-181l2 27l44 6q8 2 10.5 6t2.5 8v296h-1q-21 0 -35.5 -4t-26 -14
t-20 -27t-17.5 -43l-7 -19h-27l7 136h331v-136z" />
    <glyph glyph-name="Delta" unicode="&#x2206;" horiz-adv-x="467" 
d="M511 590l-66 -11q-23 -4 -26 -24l-50 -371q-7 -55 -28 -93.5t-50 -61.5t-65 -33.5t-74 -10.5q-31 0 -62.5 8.5t-57 25t-41 40.5t-15.5 55q0 14 5 26.5t13 21t19.5 13.5t24.5 4q21 -2 35.5 -14t14.5 -32q0 -16 -6 -28.5t-15 -20.5q11 -24 36 -41t52 -17q56 0 85.5 39
t40.5 122l50 368q2 9 -2 15.5t-18 8.5l-72 11l-3 35h278z" />
    <glyph glyph-name="minus" unicode="&#x2212;" horiz-adv-x="486" 
d="M41 208l3 54h399l3 -54h-405z" />
    <glyph glyph-name="apple" unicode="&#xf8ff;" horiz-adv-x="758" 
d="M583 236l69 -189l-189 69l-85 -181l-84 180l-187 -68l68 187l-181 86l181 83l-68 189l187 -69l86 181l83 -181l189 69l-69 -189l180 -82zM531 382l50 139l-139 -50l-63 133l-63 -133l-139 50l51 -139l-134 -63l134 -63l-51 -138l139 51l62 -135l64 135l139 -51l-50 140
l132 62z" />
    <glyph glyph-name="ff" unicode="&#xfb00;" horiz-adv-x="500" 
d="M665 621q0 -24 -13.5 -41t-36.5 -17q-27 0 -43 20t-19 52l-60 -11q-6 -10 -12 -29.5t-12 -43.5t-11.5 -50.5t-10.5 -52.5h119l4 -48h-132l-50 -256q-9 -49 -20.5 -97t-24.5 -90t-28 -74.5t-32 -50.5q-23 -23 -49 -36t-52 -13q-32 0 -55 17t-23 46q0 24 13.5 39.5
t36.5 15.5q27 0 42 -20.5t18 -49.5l45 24q5 10 11 31t12.5 47.5t13 55.5t10.5 55l57 356h-175l-54 -286q-9 -49 -20.5 -97t-24.5 -90t-28 -74.5t-32 -50.5q-23 -24 -53.5 -36t-60.5 -12q-32 0 -55 17t-23 46q0 24 13.5 39.5t36.5 15.5q27 0 42 -20.5t18 -49.5l55 23
q5 10 10.5 31t11.5 47.5t12 55t11 55.5l69 382l-91 4l3 29l95 23q14 60 33 99t42 64q25 26 60 40.5t65 14.5q39 0 62 -20t23 -49q0 -24 -8.5 -39.5t-31.5 -15.5q-27 0 -43 20t-19 52l-70 -14q-12 -21 -20 -62.5t-19 -93.5h176q14 63 36.5 112.5t45.5 74.5q25 26 60 40.5
t65 14.5q39 0 62 -20t23 -49z" />
    <glyph glyph-name="fi" unicode="&#xfb01;" horiz-adv-x="482" 
d="M134 114q-9 -49 -20 -97t-24.5 -90t-28.5 -74.5t-32 -50.5q-23 -24 -53.5 -36t-60.5 -12q-32 0 -55 17t-23 46q0 24 13.5 39.5t36.5 15.5q27 0 42 -20.5t18 -49.5l55 23q5 10 10.5 31t11.5 47.5t12 55t11 55.5l69 382l-91 4l3 29l95 23q4 23 11 47.5t16.5 48.5t22.5 46
t30 39q27 27 68.5 45t92.5 18q48 0 74.5 -23t26.5 -52q0 -24 -14 -41t-37 -17q-27 0 -44 21t-24 53l-106 -14q-14 -33 -25 -78t-18 -97h121q26 16 42 16q8 0 20.5 -6t24.5 -14.5t20 -17t6 -14.5l-98 -359l29 -10l79 60l17 -18q-9 -18 -24.5 -35.5t-33.5 -32t-36.5 -23.5
t-33.5 -9q-8 0 -20 6.5t-22.5 15t-18 17t-6.5 13.5l94 360l-8 3h-161z" />
    <glyph glyph-name="fl" unicode="&#xfb02;" horiz-adv-x="499" 
d="M188 400l-54 -286q-9 -49 -20 -97t-24.5 -90t-28.5 -74.5t-32 -50.5q-23 -24 -53.5 -36t-60.5 -12q-32 0 -55 17t-23 46q0 24 13.5 39.5t36.5 15.5q27 0 42 -20.5t18 -49.5l58 23q5 10 11.5 31t13 47.5t12.5 55.5t10 55l60 382l-87 4l3 29l95 23q4 23 11 47.5t16.5 48.5
t22.5 46t30 39q27 27 68.5 45t92.5 18q19 0 34.5 -4t27.5 -11l57 16l-134 -644l29 -10l79 60l17 -18q-9 -18 -24.5 -35.5t-33.5 -32t-36.5 -23.5t-33.5 -9q-8 0 -20 6.5t-23 15t-18.5 17.5t-6.5 13l71 363h-161zM383 572q-27 19 -37 65l-106 -14q-14 -33 -25 -78t-18 -97
h161z" />
    <glyph glyph-name="ffi" unicode="&#xfb03;" horiz-adv-x="732" 
d="M405 564q-5 -2 -10 -3t-10 -1q-26 0 -42 20t-22 51l-81 -14q-14 -32 -25 -74.5t-18 -94.5h176q12 72 32 116zM434 612q5 5 9.5 10.5t9.5 10.5q27 27 68.5 45t92.5 18q48 0 74.5 -23t26.5 -52q0 -24 -14 -41t-37 -17q-27 0 -44 21t-24 53l-106 -14q-14 -33 -25 -78
t-18 -97h121q26 16 42 16q8 0 20.5 -6t24.5 -14.5t20 -17t6 -14.5l-98 -359l29 -10l79 60l17 -18q-9 -18 -24.5 -35.5t-33.5 -32t-36.5 -23.5t-33.5 -9q-8 0 -20 6.5t-22.5 15t-18 17t-6.5 13.5l94 360l-8 3h-161l-50 -256q-9 -49 -20.5 -97t-24.5 -90t-28 -74.5t-32 -50.5
q-23 -23 -49 -36t-52 -13q-32 0 -55 17t-23 46q0 24 13.5 39.5t36.5 15.5q27 0 42 -20.5t18 -49.5l45 24q5 10 11 31t12.5 47.5t13 55.5t10.5 55l57 356h-175l-54 -286q-9 -49 -20 -97t-24.5 -90t-28.5 -74.5t-32 -50.5q-23 -24 -53.5 -36t-60.5 -12q-32 0 -55 17t-23 46
q0 24 13.5 39.5t36.5 15.5q27 0 42 -20.5t18 -49.5l55 23q5 10 10.5 31t11.5 47.5t12 55t11 55.5l69 382l-91 4l3 29l95 23q4 23 11 47.5t17 48.5t23 45.5t29 37.5q26 26 56.5 41t78.5 15q45 0 70.5 -22.5t25.5 -49.5v-3z" />
    <glyph glyph-name="ffl" unicode="&#xfb04;" horiz-adv-x="749" 
d="M633 572q-14 10 -23 26t-14 39l-106 -14q-14 -33 -25 -78t-18 -97h161zM405 564q-5 -2 -10 -3t-10 -1q-26 0 -42 20t-22 51l-81 -14q-14 -32 -25 -74.5t-18 -94.5h176q12 72 32 116zM434 612q5 5 9.5 10.5t9.5 10.5q27 27 68.5 45t92.5 18q19 0 34.5 -4t27.5 -11l57 16
l-134 -644l29 -10l79 60l17 -18q-9 -18 -24.5 -35.5t-33.5 -32t-36.5 -23.5t-33.5 -9q-8 0 -20 6.5t-23 15t-18.5 17.5t-6.5 13l71 363h-161l-50 -256q-9 -49 -20.5 -97t-24.5 -90t-28 -74.5t-32 -50.5q-23 -23 -49 -36t-52 -13q-32 0 -55 17t-23 46q0 24 13.5 39.5
t36.5 15.5q27 0 42 -20.5t18 -49.5l45 24q5 10 11 31t12.5 47.5t13 55.5t10.5 55l57 356h-175l-54 -286q-9 -49 -20 -97t-24.5 -90t-28.5 -74.5t-32 -50.5q-23 -24 -53.5 -36t-60.5 -12q-32 0 -55 17t-23 46q0 24 13.5 39.5t36.5 15.5q27 0 42 -20.5t18 -49.5l55 23
q5 10 10.5 31t11.5 47.5t12 55t11 55.5l69 382l-91 4l3 29l95 23q4 23 11 47.5t17 48.5t23 45.5t29 37.5q26 26 56.5 41t78.5 15q45 0 70.5 -22.5t25.5 -49.5v-3z" />
    <glyph glyph-name="plusminus" horiz-adv-x="734" 
d="M694 312q0 -68 -25.5 -127.5t-70 -104t-104 -70t-127.5 -25.5t-127.5 25.5t-104 70t-70 104t-25.5 127.5t25.5 127.5t70 104t104 70.5t127.5 26t127.5 -26t104 -70.5t70 -104t25.5 -127.5zM656 312q0 60 -22.5 113.5t-62 93.5t-92 63.5t-112.5 23.5t-112.5 -23.5
t-92 -63.5t-62 -93.5t-22.5 -113.5t22.5 -113.5t62 -93t92 -63t112.5 -23.5t112.5 23.5t92 63t62 93t22.5 113.5zM522 394q0 -27 -11 -50t-29.5 -39.5t-43 -25.5t-50.5 -9q-13 0 -22 0.5t-21 2.5v-84q0 -5 3 -8.5t10 -4.5l39 -6l1 -31h-156l1 31l30 6q13 3 13 13v251
q0 10 -13 13l-30 7l-1 30h144q70 0 103 -26.5t33 -69.5zM462 383q0 35 -23 54t-63 19h-31v-149q11 -2 19 -3t21 -1q35 0 56 22t21 58z" />
  </font>
</defs>
</svg>
