<?xml version="1.0" standalone="no"?>
<!DOCTYPE svg PUBLIC "-//W3C//DTD SVG 1.1//EN" "http://www.w3.org/Graphics/SVG/1.1/DTD/svg11.dtd" >
<svg xmlns="http://www.w3.org/2000/svg" xmlns:xlink="http://www.w3.org/1999/xlink" version="1.1">
<metadata>
Created by FontForge 20170731 at Sun Jan 10 00:41:35 2016
 By Aleksey,,,
Copyright  2004, Joshua Darden &#38; Phil's Fonts, Inc. All rights reserved. Published by Garagefonts USA 301-260-2285 www.garagefonts.com
</metadata>
<defs>
<font id="FreightTextBlackItalicSC" horiz-adv-x="500" >
  <font-face 
    font-family="FreightTextBlackItalicSC"
    font-weight="400"
    font-style="italic"
    font-stretch="normal"
    units-per-em="1000"
    panose-1="2 0 6 3 8 0 0 9 0 4"
    ascent="767"
    descent="-233"
    x-height="473"
    cap-height="625"
    bbox="-75 -280 1564 864"
    underline-thickness="20"
    underline-position="-173"
    slope="-12"
    unicode-range="U+0020-FB04"
  />
<missing-glyph 
 />
    <glyph glyph-name=".notdef" 
 />
    <glyph glyph-name=".null" horiz-adv-x="0" 
 />
    <glyph glyph-name="nonmarkingreturn" horiz-adv-x="204" 
 />
    <glyph glyph-name="space" unicode=" " horiz-adv-x="204" 
 />
    <glyph glyph-name="space" unicode="&#xa0;" horiz-adv-x="204" 
 />
    <glyph glyph-name="exclam" unicode="!" horiz-adv-x="304" 
d="M164 208q-1 -4 -6 -5.5t-10 -1.5t-9 2.5t-4 6.5l-2 371q0 27 22.5 42.5t54.5 15.5h5q19 0 34.5 -5t26 -14t14.5 -21.5t-1 -27.5zM205 63q0 -32 -23 -55.5t-56 -23.5t-56 23t-23 56t23 56.5t56 23.5t56 -24t23 -56z" />
    <glyph glyph-name="quotedbl" unicode="&#x22;" horiz-adv-x="390" 
d="M258 403h-52l115 242h1l101 -35zM78 403h-52l115 242h1l101 -35z" />
    <glyph glyph-name="numbersign" unicode="#" horiz-adv-x="596" 
d="M479 392l-41 -160h121l-2 -58h-137l-48 -180h-57l46 180h-143l-48 -180h-59l48 180h-120l2 58h136l41 160h-122l3 56h136l48 183h59l-47 -183h142l49 183h57l-47 -183h121l-3 -56h-135zM420 392h-144l-40 -160h145z" />
    <glyph glyph-name="dollar" unicode="$" 
d="M155 -166h-51l40 155q-42 5 -78 14t-68 18l22 206l82 -3l32 -163q6 -2 12.5 -4t13.5 -4l49 189q-38 18 -68.5 36.5t-52 41.5t-33 53t-11.5 72q0 40 17.5 75t49.5 61t76 41t97 15h13q6 0 11 -1l27 102h51l-27 -108q22 -4 44.5 -9.5t48.5 -12.5l55 21l-27 -217l-78 3
l-28 145l-30 9l-47 -179q36 -19 66.5 -37.5t52.5 -40.5t34.5 -50.5t12.5 -67.5q0 -50 -18.5 -89t-51 -65.5t-77 -40.5t-97.5 -14h-13q-6 0 -12 1zM297 579h-18q-24 0 -42 -6.5t-31 -17t-19.5 -24t-6.5 -26.5q0 -33 20 -55.5t52 -40.5zM205 43q5 -1 10 -1h11q50 0 77 25.5
t27 65.5q0 32 -22 52.5t-55 38.5z" />
    <glyph glyph-name="percent" unicode="%" horiz-adv-x="746" 
d="M385 500q0 -39 -14.5 -73t-39 -59.5t-58 -40t-72.5 -14.5q-32 0 -60.5 10.5t-49.5 30t-33.5 47t-12.5 61.5q0 38 14.5 71.5t39 59t58 40t70.5 14.5q33 0 61.5 -10t50 -29t34 -46.5t12.5 -61.5zM94 -15h-59l630 654h59zM719 164q0 -39 -14.5 -73t-39.5 -59.5t-58.5 -40
t-71.5 -14.5q-67 0 -110.5 39t-43.5 108q0 39 14 73t38.5 59.5t57.5 40t72 14.5q32 0 60.5 -10t49.5 -29t33.5 -46.5t12.5 -61.5zM335 490q0 50 -31 81.5t-81 31.5q-28 0 -51.5 -11.5t-41 -31t-27.5 -44.5t-10 -52q0 -50 32.5 -79.5t79.5 -29.5q28 0 51.5 10.5t41 29
t27.5 43t10 52.5zM671 158q0 24 -9 44t-24 34.5t-35.5 22.5t-43.5 8q-28 0 -51.5 -11.5t-41 -31t-27.5 -44.5t-10 -52q0 -50 31.5 -79.5t78.5 -29.5q28 0 52 11.5t42 30.5t28 44t10 53z" />
    <glyph glyph-name="ampersand" unicode="&#x26;" horiz-adv-x="699" 
d="M375 111q-54 -64 -111 -94.5t-119 -30.5q-30 0 -56.5 12t-45.5 33t-30 50.5t-11 65.5q0 39 16 68.5t40 51t53 35.5t55 20v2q-29 25 -50 59t-21 79q0 44 21.5 77t56 55.5t77 33.5t83.5 11q43 0 79 -9.5t62 -27.5t40.5 -42.5t14.5 -54.5t-14 -54.5t-39 -43.5t-58 -32.5
t-72 -21.5v-2l124 -128h2l94 88v3q-17 15 -24.5 28.5t-7.5 34.5q0 33 23.5 56t58.5 23q41 0 66 -26t25 -64q0 -56 -49 -92.5t-137 -65.5l-26 -9l154 -163l-151 -66l-121 141h-2zM382 508q0 34 -19 59t-49 25q-29 0 -49 -23.5t-20 -59.5q0 -38 16.5 -66t51.5 -62
q37 27 53 62.5t16 64.5zM198 296q-24 -26 -38.5 -53.5t-14.5 -58.5q0 -35 25 -57t70 -22q23 0 51.5 6.5t53.5 22.5z" />
    <glyph glyph-name="quotesingle" unicode="'" horiz-adv-x="210" 
d="M78 403h-52l115 242h1l101 -35z" />
    <glyph glyph-name="parenleft" unicode="(" horiz-adv-x="395" 
d="M359 -253q-42 21 -89.5 61.5t-88 99.5t-67 135t-26.5 167t26.5 166.5t67 134.5t88 100t89.5 62l29 -42q-39 -21 -81 -59.5t-77.5 -92.5t-58.5 -122t-23 -147t23 -147t58.5 -122t77.5 -92.5t81 -58.5z" />
    <glyph glyph-name="parenright" unicode=")" horiz-adv-x="395" 
d="M8 -212q38 21 80.5 59.5t77.5 93t58 122.5t23 147t-23 147t-58 122t-77.5 92.5t-80.5 59.5l30 42q41 -21 88 -62t87.5 -100t67 -134.5t26.5 -166.5t-26.5 -167t-67 -135t-87.5 -99.5t-88 -61.5z" />
    <glyph glyph-name="asterisk" unicode="*" horiz-adv-x="359" 
d="M353 419l-112 48l-10 -13l83 -92l-26 -52l-21 -8l-56 25l7 124l-15 4l-56 -108l-61 6l-15 17l5 62l118 32v21l-118 32l-5 62l15 17l61 6l56 -107l16 5l-8 122l56 25l21 -8l26 -52l-83 -92l10 -13l112 48l43 -45v-22z" />
    <glyph glyph-name="plus" unicode="+" horiz-adv-x="480" 
d="M271 280v-181h-61v181h-183l3 60h180v181h61v-181h179l3 -60h-182z" />
    <glyph glyph-name="comma" unicode="," horiz-adv-x="232" 
d="M187 53q0 -31 -15 -61.5t-42 -60t-65 -56t-85 -49.5l-25 29q52 31 84.5 68t32.5 72q0 22 -11 38.5t-23.5 28t-23.5 17.5t-11 7q0 13 6.5 26t18 23.5t26.5 17t33 6.5q24 0 43 -9t31.5 -24t19 -34t6.5 -39z" />
    <glyph glyph-name="hyphen" unicode="-" horiz-adv-x="338" 
d="M33 221l3 67h268l3 -67h-274z" />
    <glyph glyph-name="period" unicode="." horiz-adv-x="232" 
d="M185 72q0 -36 -25.5 -62t-62.5 -26t-62.5 25.5t-25.5 62.5t25.5 63t62.5 26q18 0 34 -7t28 -19.5t19 -28.5t7 -34z" />
    <glyph glyph-name="slash" unicode="/" horiz-adv-x="279" 
d="M219 665h56l-217 -877h-56z" />
    <glyph glyph-name="zero" unicode="0" 
d="M481 392q0 -38 -5.5 -83.5t-18.5 -90.5t-33 -87t-49 -74.5t-67 -52t-87 -19.5q-55 0 -93.5 18t-62.5 50t-35 75.5t-11 93.5q0 39 6 84.5t18.5 92t33 89.5t49.5 76t67 53t87 20q55 0 93.5 -19.5t62.5 -53.5t34.5 -78t10.5 -94zM338 476q0 15 -1 35.5t-6.5 39.5t-17 32
t-33.5 13q-20 0 -37 -24.5t-30 -64t-23 -89t-16.5 -100t-9.5 -97.5t-3 -80q0 -15 1 -35t6.5 -37.5t17.5 -30t33 -12.5q20 0 37 24t30 62.5t23 87.5t16.5 99t9.5 96.5t3 80.5z" />
    <glyph glyph-name="one" unicode="1" 
d="M42 0l3 53l96 12q14 2 19.5 8.5t7.5 14.5l58 433l-115 19l7 38l266 64l-74 -554q-2 -18 21 -23l69 -12l3 -53h-361z" />
    <glyph glyph-name="two" unicode="2" 
d="M396 0h-403l-1 65q62 54 120.5 100t104 90t73 89t27.5 97q0 24 -9 42t-23 30t-32 18t-35 6q-46 0 -86 -21t-75 -47l-10 28q16 21 41 45.5t56.5 45.5t68.5 35t76 14q38 0 70.5 -11.5t55.5 -33t36 -51.5t13 -67q0 -50 -30 -96t-79.5 -90.5t-113.5 -88.5t-131 -89v-6h64
q59 0 95.5 0.5t59 3.5t34 8.5t18.5 15.5l29 45h43z" />
    <glyph glyph-name="three" unicode="3" 
d="M447 199q0 -50 -25 -91t-65 -70.5t-90 -46t-100 -16.5q-21 0 -50 5.5t-55.5 17.5t-45 32t-18.5 50q0 27 19.5 47t45.5 20q23 0 39 -11.5t26 -29.5t13.5 -39t2.5 -40q4 0 12 -2t18 -2q29 0 51.5 13.5t38.5 35.5t24 51t8 59q0 42 -22 66t-60 24q-23 0 -38.5 -4.5
t-31.5 -9.5l-15 38q45 24 81 43.5t61 38t38 39t13 47.5q0 35 -27 54.5t-62 19.5q-42 0 -84.5 -21.5t-76.5 -50.5l-10 28q50 65 117 104t139 39q29 0 57.5 -8.5t51 -24t36 -38t13.5 -50.5q0 -45 -22.5 -75.5t-55.5 -52.5t-71.5 -36.5t-70.5 -26.5v-7q19 6 36.5 9.5t33.5 3.5
q56 0 88.5 -34t32.5 -98z" />
    <glyph glyph-name="four" unicode="4" 
d="M390 172l-26 -172h-131l26 172h-250l-3 52l357 420l85 -24l-52 -386h99l-13 -62h-92zM303 493h-11l-220 -259h193z" />
    <glyph glyph-name="five" unicode="5" 
d="M484 504h-281l-33 -93q48 -8 96 -22.5t86 -39t62 -60t24 -85.5t-22 -91t-58 -70.5t-80.5 -45.5t-89.5 -16q-30 0 -62.5 4.5t-59.5 16t-44.5 32.5t-16.5 54q0 27 18.5 47t46.5 20q25 0 41.5 -10.5t27 -27t14.5 -38t4 -44.5q6 -3 17.5 -5t22.5 -2q50 0 84 26t34 81
q0 38 -17.5 65.5t-49.5 47t-76.5 32.5t-98.5 22l115 323h311z" />
    <glyph glyph-name="six" unicode="6" 
d="M25 237q0 67 27.5 135.5t85.5 125.5t149.5 96.5t218.5 47.5l11 -42q-71 -13 -126.5 -38.5t-97.5 -60.5t-70 -79.5t-44 -94.5h4q33 37 74 56t79 19q31 0 57.5 -11.5t46 -33.5t30.5 -53t11 -69q0 -48 -20 -93t-53.5 -80t-78 -56t-94.5 -21q-49 0 -88 20.5t-66 55t-41.5 80
t-14.5 96.5zM170 174q0 -27 3 -52.5t10.5 -45.5t20.5 -32t34 -12q15 0 32 11.5t31.5 34.5t24.5 57t10 79q0 56 -17 87t-52 31q-20 0 -41 -13t-39 -33q-17 -45 -17 -112z" />
    <glyph glyph-name="seven" unicode="7" 
d="M174 -8h-107l356 518v1h-94q-63 0 -98.5 -1.5t-54.5 -5t-26.5 -10t-15.5 -16.5l-40 -60h-43l53 207h438v-38z" />
    <glyph glyph-name="eight" unicode="8" 
d="M458 176q0 -46 -21.5 -81.5t-54.5 -59.5t-74 -36.5t-82 -12.5q-39 0 -78 9.5t-70.5 28.5t-51.5 49t-20 70q0 32 12.5 58.5t32.5 46.5t46.5 33t54.5 19v2q-19 12 -36.5 26.5t-30.5 32t-20.5 39t-7.5 46.5q0 45 18.5 81t49.5 60.5t70 37.5t81 13q39 0 76.5 -9t67 -27.5
t47 -47.5t17.5 -68q0 -33 -12 -57.5t-31 -42.5t-44.5 -29.5t-52.5 -17.5v-2q21 -13 41.5 -29t36.5 -36t26 -43.5t10 -52.5zM357 483q0 22 -5.5 42t-17 35t-28 23.5t-39.5 8.5q-39 0 -63.5 -23.5t-24.5 -64.5q0 -27 12 -48t30 -37.5t39.5 -30t40.5 -25.5q28 20 42 52.5
t14 67.5zM333 120q0 29 -13.5 52t-33.5 41.5t-43.5 33t-44.5 27.5q-30 -21 -47.5 -55.5t-17.5 -72.5q0 -51 27.5 -82.5t78.5 -31.5q40 0 67 21.5t27 66.5z" />
    <glyph glyph-name="nine" unicode="9" 
d="M497 385q0 -67 -27.5 -135.5t-85.5 -125.5t-149 -96.5t-219 -47.5l-11 42q71 13 126.5 38.5t97.5 60.5t70 79.5t44 94.5h-4q-33 -37 -74 -56t-79 -19q-31 0 -57.5 12t-46 33.5t-30.5 52.5t-11 69q0 48 20 93t53.5 80t78.5 56t94 21q50 0 89 -20.5t66 -55t41 -80t14 -96.5
zM352 448q0 27 -3 52.5t-10.5 45.5t-20.5 32t-34 12q-15 0 -32 -11.5t-31.5 -34.5t-24.5 -57t-10 -79q0 -56 17 -87t52 -31q20 0 41 13t39 33q17 45 17 112z" />
    <glyph glyph-name="colon" unicode=":" horiz-adv-x="232" 
d="M227 371q0 -36 -25.5 -62t-62.5 -26t-62.5 25.5t-25.5 62.5t25.5 63t62.5 26q18 0 34 -7t28 -19.5t19 -28.5t7 -34zM185 72q0 -36 -25.5 -62t-62.5 -26t-62.5 25.5t-25.5 62.5t25.5 63t62.5 26q18 0 34 -7t28 -19.5t19 -28.5t7 -34z" />
    <glyph glyph-name="semicolon" unicode=";" horiz-adv-x="232" 
d="M227 371q0 -36 -25.5 -62t-62.5 -26t-62.5 25.5t-25.5 62.5t25.5 63t62.5 26q18 0 34 -7t28 -19.5t19 -28.5t7 -34zM187 43q0 -31 -15 -61.5t-42 -60t-65 -56t-85 -49.5l-25 29q52 31 84.5 68t32.5 72q0 22 -11 38.5t-23.5 28t-23.5 17.5t-11 7q0 13 6.5 26t18 23.5
t26.5 17t33 6.5q24 0 43 -9t31.5 -24t19 -34t6.5 -39z" />
    <glyph glyph-name="less" unicode="&#x3c;" horiz-adv-x="480" 
d="M26 286v46l409 188l17 -66q-90 -39 -161 -71q-30 -14 -59 -26t-52 -23q-26 -12 -50 -23v-2l322 -142l-17 -67z" />
    <glyph glyph-name="equal" unicode="=" horiz-adv-x="470" 
d="M42 365l-5 71h398l-5 -71h-388zM37 183l5 71h388l5 -71h-398z" />
    <glyph glyph-name="greater" unicode="&#x3e;" horiz-adv-x="480" 
d="M35 100l-17 67l322 142v2l-14 6q-13 6 -35.5 16.5t-52 23.5t-59.5 26q-71 32 -161 71l17 66l409 -188v-46z" />
    <glyph glyph-name="question" unicode="?" horiz-adv-x="403" 
d="M417 448q0 -41 -14.5 -69t-36.5 -46.5t-49 -29t-53 -18.5q-34 -11 -58 -18.5t-24 -23.5q0 -14 9 -28t25 -25h-68q-27 14 -44 40t-17 53q0 30 14.5 51t37.5 35.5t51 23.5t54 16q35 9 59.5 16.5t24.5 18.5q0 12 -10 23.5t-27.5 20t-41 13.5t-51.5 5q-21 0 -40.5 -2.5
t-34.5 -5.5q-24 24 -24 52q0 38 30.5 63.5t87.5 25.5q39 0 75 -14t63.5 -39.5t44.5 -60.5t17 -77zM209 63q0 -32 -23 -55.5t-56 -23.5t-56 23t-23 56t23 56.5t56 23.5t56 -24t23 -56z" />
    <glyph glyph-name="at" unicode="@" horiz-adv-x="910" 
d="M482 102q0 10 5 27.5t11.5 37t13.5 39t11 32.5h-11q-25 -37 -46 -71.5t-41 -60t-42 -41t-49 -15.5q-51 0 -84 33.5t-33 97.5q0 32 8.5 65t24 64.5t36.5 61t45 53.5q29 29 63.5 46t65.5 17q42 0 62 -22.5t31 -61.5h10l31 84h121l-62 -173l-51 -183q-3 -12 20 -25t56 -13
q32 0 58.5 18.5t46 49.5t30.5 70.5t11 82.5q0 76 -26 135t-73.5 99.5t-113 61.5t-144.5 21t-148.5 -31.5t-121 -85t-81 -123t-29.5 -146.5q0 -82 27.5 -149.5t76.5 -115.5t116.5 -74t148.5 -26q31 0 64 5.5t66 15.5l12 -39q-38 -13 -73.5 -19.5t-76.5 -6.5q-86 0 -161 31
t-130.5 85t-87 127.5t-31.5 158.5q0 89 33 168.5t91 139t137.5 94t173.5 34.5q85 0 158 -24t126.5 -69.5t84 -111.5t30.5 -150q0 -57 -18.5 -109.5t-51.5 -93t-79 -65t-102 -24.5q-24 0 -49 6t-45 16t-32.5 23.5t-12.5 28.5zM537 355q-9 15 -22.5 27t-28.5 20.5t-28.5 13
t-21.5 4.5q-11 0 -17 -3t-13 -10q-8 -8 -18.5 -29.5t-19.5 -49t-15.5 -56.5t-6.5 -52q0 -32 12.5 -52.5t32.5 -20.5q14 0 27.5 11t27.5 28.5t29 40t32 45.5z" />
    <glyph glyph-name="A" unicode="A" horiz-adv-x="648" 
d="M298 0l3 46l26 3q19 3 29.5 9t13.5 19t0 35.5t-10 56.5l-5 23h-192l-3 -8q-23 -54 -19 -90.5t35 -42.5l26 -5l3 -46h-250l3 46l20 6q19 5 32.5 11t28.5 26.5t36 60.5t55 113l143 300v43l164 34l117 -537q5 -22 14 -33.5t30 -16.5l23 -7l3 -46h-326zM305 488h-12
l-107 -241h160z" />
    <glyph glyph-name="B" unicode="B" horiz-adv-x="641" 
d="M602 167q0 -59 -44 -103q-31 -31 -81.5 -47.5t-116.5 -16.5h-357l5 44l43 11q15 4 19.5 9.5t6.5 14.5l64 467q2 9 -1 14.5t-19 9.5l-40 11l-2 44h336q102 0 157.5 -34.5t55.5 -103.5q0 -35 -15.5 -62t-41 -47t-59 -33.5t-70.5 -21.5v-5q28 -6 56.5 -16.5t51.5 -28
t37.5 -43.5t14.5 -63zM450 464q0 50 -32.5 81.5t-85.5 31.5h-17l-32 -232h50q22 0 43 7t37.5 21.5t26.5 37t10 53.5zM423 168q0 31 -9 54.5t-24.5 39.5t-36 24.5t-42.5 8.5h-36l-33 -241l43 -7h7q31 0 55 10.5t41 27.5t26 38.5t9 44.5z" />
    <glyph glyph-name="C" unicode="C" horiz-adv-x="682" 
d="M589 0l-69 14q-31 -12 -74 -21.5t-99 -9.5q-76 0 -132 21t-93 58.5t-55 89.5t-18 115q0 71 31 140.5t85 123.5q49 49 115 78.5t144 29.5q25 0 49.5 -2.5t46.5 -7t39.5 -9.5t27.5 -10l99 29l-31 -240h-94l-32 156q-36 28 -82 28q-47 0 -86 -28.5t-66.5 -75t-42.5 -107
t-15 -123.5t15 -106.5t42 -70.5q34 -34 86 -34q20 0 40 5.5t36 13.5l79 161h100z" />
    <glyph glyph-name="D" unicode="D" horiz-adv-x="712" 
d="M695 344q0 -72 -25.5 -129.5t-79.5 -111.5q-46 -47 -124 -75t-171 -28h-292l5 44l43 11q15 4 19.5 9.5t6.5 14.5l64 467q2 9 -1 14.5t-19 9.5l-40 11l-2 44q85 1 149 1h133q83 0 145.5 -20.5t104.5 -58t63 -89.5t21 -114zM512 341q0 51 -9 94t-29 73.5t-53 47.5t-81 17
h-26l-70 -508l65 -15q41 3 78 22.5t65 56t44 90t16 122.5z" />
    <glyph glyph-name="E" unicode="E" horiz-adv-x="676" 
d="M584 0h-581l5 44l43 11q15 4 19.5 9.5t6.5 14.5l64 467q2 9 -1.5 14.5t-18.5 9.5l-40 11l-2 44h591l-29 -225h-89l-10 69q-5 37 -15 58t-30.5 31.5t-52.5 13.5t-82 3h-48l-33 -236h16q27 0 51 7.5t38 34.5l35 69h64l-60 -268h-63l-3 63q-1 25 -15.5 34t-58.5 9h-12
l-31 -238h62q48 0 80.5 3.5t55.5 14.5t40 32t34 57l28 55h90z" />
    <glyph glyph-name="F" unicode="F" horiz-adv-x="641" 
d="M533 400l-11 69q-6 37 -16.5 58t-31 31.5t-52.5 13.5t-81 3h-27l-34 -253h12q28 0 52.5 7t38.5 35l35 70h63l-60 -268h-63l4 62q0 26 -18.5 34t-63.5 8h-9l-25 -191q-3 -20 20 -24l53 -11l3 -44h-319l5 44l43 11q15 4 19.5 9.5t6.5 14.5l64 467q2 9 -1.5 14.5t-18.5 9.5
l-40 11l-2 44h571l-28 -225h-89z" />
    <glyph glyph-name="G" unicode="G" horiz-adv-x="738" 
d="M709 244l-46 -11q-24 -6 -27 -24l-26 -140l58 -7l3 -38q-56 -16 -132 -28.5t-161 -12.5t-147 20t-102.5 57t-60 89.5t-19.5 117.5q0 71 31 140.5t85 123.5q24 24 56.5 44t69 34.5t75.5 22t78 7.5q25 0 49.5 -2.5t46.5 -7t39.5 -9.5t27.5 -10l99 29l-31 -233h-94l-32 149
q-9 7 -21.5 12t-27 8.5t-28.5 5.5t-25 2q-47 0 -86 -28.5t-66.5 -75t-42.5 -107t-15 -123.5t15 -106.5t42 -70.5q17 -17 41.5 -25.5t50.5 -8.5q20 0 35 2t24 4l27 165q2 11 -3 15.5t-21 8.5l-39 11l-3 44h308z" />
    <glyph glyph-name="H" unicode="H" horiz-adv-x="761" 
d="M398 0l3 44l43 11q15 4 19.5 8.5t6.5 15.5l29 212h-225l-29 -212q-3 -19 20 -24l42 -11l3 -44h-305l3 44l43 11q14 4 19 9.5t7 14.5l64 467q2 9 -1.5 14.5t-18.5 9.5l-41 11l-3 44h306l-3 -44l-45 -11q-23 -8 -26 -24l-27 -200h225l27 200q2 11 -1.5 15.5t-18.5 8.5
l-40 11l-3 44h307l-5 -44l-44 -11q-23 -8 -26 -24l-64 -467q-3 -19 20 -24l41 -11l3 -44h-305z" />
    <glyph glyph-name="I" unicode="I" horiz-adv-x="386" 
d="M5 0l3 44l53 11q14 4 19 9.5t7 14.5l64 467q2 9 -1.5 15t-18.5 9l-51 11l-3 44h326l-3 -44l-55 -11q-23 -5 -26 -24l-64 -467q-3 -16 20 -24l52 -11l4 -44h-326z" />
    <glyph glyph-name="J" unicode="J" horiz-adv-x="475" 
d="M491 581l-43 -11q-23 -4 -26 -24l-40 -292q-19 -137 -81.5 -204t-177.5 -67q-30 0 -57 7t-46.5 20t-30.5 32t-10 43q0 14 6.5 26.5t16.5 21.5t22.5 14t24.5 5q17 0 33.5 -5t30 -18.5t22 -38t9.5 -63.5h1q26 23 39.5 69t20.5 94l48 356q3 20 -20 24l-60 11l-2 44h324z" />
    <glyph glyph-name="K" unicode="K" horiz-adv-x="704" 
d="M381 0l3 44l17 7q15 5 17 17t-6 30l-81 186q0 1 -10 -8t-23 -20q-15 -12 -34 -29l-19 -148q-3 -19 20 -24l41 -11l1 -44h-305l5 44l43 11q15 4 19.5 9.5t6.5 14.5l63 467q2 9 -1.5 14.5t-18.5 9.5l-41 11l-1 44h305l-4 -44l-45 -11q-23 -8 -26 -24l-31 -244l167 167
q32 32 44.5 50.5t12.5 29.5q-3 17 -20 25l-24 8l-2 43h274l-4 -43l-37 -12q-22 -8 -56.5 -30t-82.5 -62l-97 -82l142 -287q9 -18 15.5 -28.5t13.5 -17t15 -10t19 -7.5l6 -2l1 -44h-282z" />
    <glyph glyph-name="L" unicode="L" horiz-adv-x="599" 
d="M517 0h-515l5 44l43 11q15 4 19.5 9.5t6.5 14.5l64 467q2 9 -1 14.5t-19 9.5l-40 11l-2 44h304l-4 -44l-43 -11q-23 -8 -26 -24l-68 -496h31q37 0 63 5t46 17.5t35.5 33t31.5 51.5l28 55h90z" />
    <glyph glyph-name="M" unicode="M" horiz-adv-x="929" 
d="M560 0l3 44l49 12q8 2 13.5 8t10 24t9.5 52t11 92l34 314h-15l-221 -526h-168l-49 534h-15l-53 -318q-11 -65 -16 -100.5t-6 -53t3 -21t11 -5.5l56 -12l3 -44h-227l3 44l49 12q8 2 14.5 6.5t13 21.5t14.5 52.5t19 99.5l51 304q2 9 -0.5 19t-15.5 12l-56 10l-1 44h310
l42 -460h15l193 460h298l-4 -44l-53 -11q-13 -2 -19 -9.5t-7 -16.5l-37 -312q-7 -61 -10.5 -95.5t-2.5 -51.5t7 -21.5t16 -7.5l45 -12l2 -44h-319z" />
    <glyph glyph-name="N" unicode="N" horiz-adv-x="715" 
d="M741 581l-48 -13q-10 -3 -18.5 -14t-16 -33.5t-14.5 -59t-15 -90.5l-53 -378h-138l-235 483h-10l-31 -222q-8 -55 -11 -92t-2.5 -60t5.5 -33t13 -12l58 -13l3 -44h-246l3 44l48 13q10 3 18.5 13.5t16 33t14.5 59.5t15 91l41 290q1 5 -1 14t-16 12l-41 11l-2 44h233
l216 -447h10l27 193q8 55 11 92t2.5 60t-5.5 33.5t-13 11.5l-58 13l-3 44h246z" />
    <glyph glyph-name="O" unicode="O" horiz-adv-x="735" 
d="M704 348q0 -80 -32.5 -148t-86.5 -122q-46 -46 -106.5 -69.5t-130.5 -23.5q-64 0 -119.5 21t-95.5 59t-63 91.5t-23 117.5q0 74 25.5 138.5t76.5 115.5q50 50 113.5 79.5t140.5 29.5q64 0 119 -21t95.5 -59t63.5 -91t23 -118zM521 392q0 20 -1.5 42t-6.5 43.5t-14 42
t-23 35.5q-13 12 -29.5 19.5t-39.5 7.5q-36 0 -63 -19.5t-46.5 -51t-32.5 -71t-20.5 -79t-11 -75.5t-3.5 -60q0 -41 8 -85t37 -73q12 -13 28.5 -20.5t40.5 -7.5q35 0 62 19.5t46.5 50.5t32.5 70t21 78t11.5 74.5t3.5 59.5z" />
    <glyph glyph-name="P" unicode="P" horiz-adv-x="613" 
d="M612 446q0 -46 -21.5 -84t-59.5 -65t-91.5 -42t-117.5 -15q-13 0 -27.5 1t-26.5 1l-22 -163q-2 -20 20 -24l52 -11l1 -44h-316l5 44l43 11q15 4 19.5 9.5t6.5 14.5l64 467q2 9 -1.5 14.5t-18.5 9.5l-40 11l-2 44h285q55 0 100.5 -11.5t78.5 -34t51 -56t18 -77.5zM441 434
q0 33 -10 59t-26.5 45t-38.5 29t-45 10h-8l-40 -288q7 -1 13 -1.5t12 -0.5q64 0 103.5 39t39.5 108z" />
    <glyph glyph-name="Q" unicode="Q" horiz-adv-x="735" 
d="M675 -170q-34 -10 -84.5 -17.5t-110.5 -8.5q-45 0 -82.5 9t-70.5 32.5t-62.5 64.5t-57.5 104q-72 35 -116 102t-44 158q0 74 26.5 138t72.5 114q48 51 113.5 81t141.5 30q65 0 120 -21t96 -59t64 -91t23 -118q0 -80 -31 -149t-84 -119q-15 -14 -35.5 -28.5t-44.5 -27
t-50.5 -22t-53.5 -13.5q25 -34 48.5 -57t53.5 -37.5t68.5 -22t93.5 -10.5zM520 394q0 20 -1.5 42t-6.5 44t-14 42t-24 35q-12 12 -29 19.5t-39 7.5q-36 0 -63 -20t-46.5 -52t-32 -72t-20 -80t-10.5 -76t-3 -60q0 -20 1.5 -42t6.5 -43t13.5 -40t23.5 -33q12 -13 28.5 -20.5
t41.5 -7.5q35 0 61.5 19.5t46 51.5t32.5 71t20.5 79t10.5 75.5t3 59.5z" />
    <glyph glyph-name="R" unicode="R" horiz-adv-x="660" 
d="M422 0l-35 90l-79 171l-35 3l-27 -185q-2 -9 3.5 -13.5t16.5 -10.5l28 -11l3 -44h-292l3 44l43 11q15 4 19.5 9.5t6.5 14.5l62 467q2 9 -2 14.5t-18 9.5l-40 11l-2 44h325q56 0 99.5 -11.5t72.5 -32t44 -47.5t15 -59q0 -63 -41.5 -111t-131.5 -74l115 -206
q9 -17 20.5 -24.5t29.5 -13.5l6 -2l1 -44h-210zM449 449q0 29 -9 53t-24.5 40.5t-36 25.5t-44.5 9h-21l-37 -258l54 -11q23 4 44.5 14.5t38 28t26 42t9.5 56.5z" />
    <glyph glyph-name="S" unicode="S" horiz-adv-x="567" 
d="M516 194q0 -50 -19.5 -89t-53.5 -65.5t-81 -40.5t-103 -14q-70 0 -127.5 11t-105.5 25l23 206l87 -3l33 -163q22 -7 45.5 -11.5t54.5 -4.5q48 0 73.5 24.5t25.5 62.5q0 21 -10 36.5t-27 28t-39 23.5l-46 23q-40 20 -72 38.5t-54 41t-33.5 52t-11.5 70.5q0 40 18.5 75
t52 61t80 41t101.5 15q48 0 88 -8.5t89 -20.5l58 21l-28 -217l-82 3l-30 145q-46 16 -102 16q-45 0 -70 -22.5t-25 -47.5q0 -24 11 -41.5t29.5 -32t43 -26.5t50.5 -25q36 -18 65 -35.5t49.5 -39t31.5 -48.5t11 -64z" />
    <glyph glyph-name="T" unicode="T" horiz-adv-x="662" 
d="M582 401l-10 70q-5 37 -15.5 57.5t-24.5 31t-30.5 13t-33.5 2.5h-10l-66 -496q-2 -9 4 -15.5t16 -8.5l50 -11l4 -44h-321l2 44l52 11q14 3 19.5 9t6.5 15l66 496h-6q-19 0 -36 -3.5t-32.5 -15t-31 -33t-30.5 -56.5l-29 -66h-92l49 224h610l-28 -224h-83z" />
    <glyph glyph-name="U" unicode="U" horiz-adv-x="702" 
d="M739 581l-48 -13q-10 -3 -18.5 -14t-16 -33.5t-14.5 -59t-15 -90.5l-23 -159q-9 -61 -32.5 -105.5t-59 -74t-80.5 -44t-97 -14.5q-55 0 -101 13.5t-79 40.5t-51.5 67.5t-18.5 93.5q0 15 0.5 26t2.5 25l41 306q2 9 -1.5 14.5t-18.5 9.5l-40 11l-3 44h305l-3 -44l-44 -11
q-23 -8 -26 -24l-45 -322q-2 -14 -3 -27.5t-1 -36.5q0 -21 8.5 -41t24.5 -35.5t39.5 -25.5t53.5 -10q70 0 111.5 42.5t55.5 144.5l20 136q8 55 11 92t2 60t-5.5 33.5t-13.5 11.5l-57 13l-3 44h246z" />
    <glyph glyph-name="V" unicode="V" horiz-adv-x="634" 
d="M700 579l-21 -6q-19 -5 -32 -11.5t-28 -26.5t-36 -60.5t-56 -112.5l-175 -362h-136l-116 522q-5 22 -14 33.5t-29 16.5l-23 7l-3 46h326l-3 -46l-28 -3q-19 -3 -29 -9t-13.5 -19t-0.5 -35t10 -57l57 -321h10l129 286q18 39 24.5 67t4.5 46t-11.5 27.5t-25.5 12.5l-25 5
l-3 46h250z" />
    <glyph glyph-name="W" unicode="W" horiz-adv-x="997" 
d="M1084 579l-22 -7q-21 -6 -37.5 -14.5t-34.5 -29.5t-39.5 -60t-53.5 -106l-179 -362h-135l-51 373h-10l-175 -373h-139l-107 522q-5 22 -13.5 33.5t-29.5 16.5l-29 7l-3 46h338l-3 -46l-32 -3q-27 -4 -35.5 -30.5t2.5 -89.5l46 -318h10l148 323l-9 61q-3 22 -12 33.5
t-31 16.5l-29 7l-3 46h338l-3 -46l-32 -3q-15 -2 -23.5 -8.5t-12.5 -20.5t-2.5 -36t5.5 -55l34 -318h10l102 222q25 59 38 98t14.5 63.5t-7.5 36.5t-27 16l-17 5l-3 46h257z" />
    <glyph glyph-name="X" unicode="X" horiz-adv-x="650" 
d="M304 0l2 44l26 7q20 5 27 27t-14 58l-52 107h-10l-67 -74q-27 -30 -38.5 -51t-11.5 -35t10 -21.5t25 -11.5l22 -6l4 -44h-259l3 44l43 11q12 3 24.5 12.5t26 22t27 26.5t25.5 26l143 144l-110 190q-26 44 -41 67.5t-25 26.5l-34 11l-3 44h325l-3 -44l-26 -7q-9 -3 -16 -9
t-10 -16t0 -25t15 -35l41 -87h10l69 77q21 24 31 40.5t10.5 28t-7 18t-21.5 9.5l-24 6l-3 44h241l-3 -44l-43 -11q-11 -3 -27.5 -16.5t-34.5 -31t-35 -35.5t-29 -31l-98 -96l123 -224q22 -41 34.5 -59t25.5 -22l33 -11l3 -44h-324z" />
    <glyph glyph-name="Y" unicode="Y" horiz-adv-x="601" 
d="M665 579l-21 -7q-12 -3 -23 -8.5t-25.5 -20t-35 -41t-52.5 -71.5l-123 -173l-23 -179q-3 -19 20 -24l49 -11l-4 -44h-322l9 44l53 11q23 4 26 24l22 167l-124 284q-9 19 -18 27.5t-23 13.5l-22 8l-3 46h315l-3 -46l-38 -6q-29 -5 -27.5 -32t21.5 -85l54 -154h10l88 127
q26 38 39.5 64t15.5 43t-6 25.5t-25 11.5l-27 6l-3 46h229z" />
    <glyph glyph-name="Z" unicode="Z" horiz-adv-x="641" 
d="M543 0h-538l8 54l429 508v10h-98q-30 0 -52 -3.5t-38.5 -14t-30 -30t-27.5 -52.5l-30 -71h-89l29 224h545l-7 -55l-437 -508l-1 -10l105 -2q41 0 66.5 7t42 20.5t28 33t24.5 44.5l29 56h91z" />
    <glyph glyph-name="bracketleft" unicode="[" horiz-adv-x="368" 
d="M90 -222v873h262v-51h-203v-770h203v-52h-262z" />
    <glyph glyph-name="backslash" unicode="\" horiz-adv-x="279" 
d="M220 -212l-217 877h56l217 -877h-56z" />
    <glyph glyph-name="bracketright" unicode="]" horiz-adv-x="368" 
d="M16 -170h203v770h-203v51h262v-873h-262v52z" />
    <glyph glyph-name="asciicircum" unicode="^" horiz-adv-x="300" 
d="M329 520l-86 112h-2l-116 -112h-68l121 177h144l75 -177h-68z" />
    <glyph glyph-name="underscore" unicode="_" horiz-adv-x="470" 
d="M-9 -53l3 53h482l3 -53h-488z" />
    <glyph glyph-name="grave" unicode="`" horiz-adv-x="398" 
d="M238 520l-159 177h154l73 -177h-68z" />
    <glyph glyph-name="a" unicode="a" horiz-adv-x="556" 
d="M265 369h-15l-90 -186h144zM134 126q-8 -21 -12.5 -35t-3 -22.5t8.5 -13.5t22 -8l17 -4l-3 -43h-200l8 43l15 4q12 3 23 7.5t24 18t29.5 39.5t40.5 72l129 247l3 28l148 25l91 -397q4 -17 15.5 -26t32.5 -15l11 -3l-3 -43h-266l8 43l15 3q14 3 22.5 6.5t12.5 11t3 21
t-7 35.5l-5 19h-174z" />
    <glyph glyph-name="b" unicode="b" horiz-adv-x="555" 
d="M507 128q0 -49 -31 -79q-22 -23 -64 -36t-111 -13h-297l9 43l31 9q17 4 19 18l44 333q1 7 -2 11t-13 7l-28 9l2 43h266q94 0 141.5 -24t47.5 -83q0 -27 -12.5 -46.5t-32.5 -33.5t-44.5 -22.5t-48.5 -13.5v-9q17 -1 38.5 -8.5t40.5 -21t32 -34t13 -49.5zM371 344
q0 38 -20.5 62t-71.5 24h-20l-23 -173l46 1q35 1 62 23t27 63zM357 131q0 46 -27 67.5t-64 21.5h-35l-22 -164l22 -13h28q43 0 70.5 24t27.5 64z" />
    <glyph glyph-name="c" unicode="c" horiz-adv-x="595" 
d="M479 0l-59 11q-26 -10 -66 -17t-88 -7q-60 0 -104 16t-73 44.5t-43 68t-14 86.5q0 54 21.5 105.5t62.5 92.5q38 38 90 61t116 23q20 0 42.5 -2t43 -5.5t37.5 -7.5t26 -7l83 22l-25 -182h-86l-32 118q-6 5 -15.5 9t-20 6.5t-19 4t-13.5 1.5q-36 0 -63.5 -19.5t-46.5 -53
t-29 -78.5t-10 -96t14.5 -84t33.5 -52q16 -16 33.5 -22t33.5 -6q13 0 25 3t19 7l67 125h94z" />
    <glyph glyph-name="d" unicode="d" horiz-adv-x="604" 
d="M570 252q0 -45 -20 -89.5t-58 -81.5q-39 -36 -100.5 -58.5t-138.5 -22.5h-249l9 43l31 9q17 4 19 18l44 333q1 7 -2 11t-13 7l-28 9l-4 43l258 1q59 0 105.5 -16t79 -45.5t50 -70.5t17.5 -90zM407 258q0 39 -9.5 70.5t-25.5 54t-37.5 34.5t-46.5 12h-30l-49 -374l52 -13
q29 2 55 16.5t46.5 41.5t32.5 66.5t12 91.5z" />
    <glyph glyph-name="e" unicode="e" horiz-adv-x="572" 
d="M481 0h-477l9 43l31 9q17 4 19 18l44 333q1 7 -2 11t-13 7l-28 9l-4 43h491l-22 -170h-78l-7 52q-3 24 -12.5 38.5t-25.5 23t-40.5 11t-57.5 2.5h-49l-23 -173h16q14 0 34 6t30 25l27 53h56l-47 -203h-54l-4 47q-2 18 -12 25.5t-38 7.5h-13l-23 -175h53q61 0 98 14.5
t56 61.5l20 51h83z" />
    <glyph glyph-name="f" unicode="f" horiz-adv-x="547" 
d="M442 303l-7 52q-3 23 -12.5 38t-25.5 23t-40.5 11t-57.5 3h-40l-25 -188h17q14 0 33.5 4.5t30.5 26.5l27 53h56l-47 -203h-54l-4 47q-1 18 -11.5 25.5t-38.5 7.5h-14l-18 -133q-2 -15 15 -18l45 -9l-4 -43h-263l9 43l31 9q17 4 19 18l44 333q1 7 -2 11t-13 7l-28 9l-4 43
h482l-22 -170h-78z" />
    <glyph glyph-name="g" unicode="g" horiz-adv-x="602" 
d="M556 178l-34 -9q-17 -4 -20 -18l-13 -94l47 -5v-34q-47 -12 -110.5 -21.5t-134.5 -9.5q-66 0 -114.5 15.5t-80.5 44t-48 68t-16 87.5q0 54 21.5 106t63.5 93q38 38 90 60.5t115 22.5q20 0 42.5 -2t43 -5.5t37.5 -7.5t26 -7l83 22l-25 -182h-86l-32 118q-6 5 -15.5 9
t-20 6.5t-19 4t-13.5 1.5q-36 0 -63.5 -19.5t-46.5 -53t-29 -78.5t-10 -96q0 -50 14.5 -83.5t33.5 -52.5q16 -16 34.5 -22.5t33.5 -6.5q8 0 14 1t14 4l15 117q1 8 -3.5 11t-17.5 7l-24 9l-1 43h255z" />
    <glyph glyph-name="h" unicode="h" horiz-adv-x="638" 
d="M330 0l2 43l31 9q12 4 15 7t4 11l20 147h-171l-20 -147q-2 -14 15 -18l30 -9l3 -43h-249l3 43l31 9q17 4 19 18l44 333q1 7 -2 11t-13 7l-28 9l-4 43h248l-1 -43l-33 -9q-17 -4 -19 -18l-19 -142h171l19 142q1 8 -1.5 11t-13.5 7l-28 9l-3 43h248l-2 -43l-32 -9
q-12 -3 -15.5 -7t-4.5 -11l-44 -333q-1 -7 2 -10.5t14 -7.5l29 -9l3 -43h-248z" />
    <glyph glyph-name="i" unicode="i" horiz-adv-x="333" 
d="M7 0l6 43l38 9q17 4 19 18l44 333q2 14 -15 18l-35 9l-4 43h266l-4 -43l-40 -9q-17 -4 -19 -18l-44 -333q-2 -14 15 -18l37 -9l2 -43h-266z" />
    <glyph glyph-name="j" unicode="j" horiz-adv-x="425" 
d="M412 430l-32 -9q-12 -3 -15.5 -7t-4.5 -11l-23 -175q-9 -69 -31 -115.5t-53 -75t-70 -41t-83 -12.5q-56 0 -83.5 23t-27.5 57q0 23 15 39.5t39 16.5t39 -7.5t22.5 -20.5t9 -30t-1.5 -36h18q22 20 32.5 54.5t15.5 72.5l33 250q2 14 -15 18l-41 9l-4 43h264z" />
    <glyph glyph-name="k" unicode="k" horiz-adv-x="610" 
d="M330 0l2 43l16 4q13 3 13.5 14t-6.5 25l-70 132l-61 -49l-13 -99q-2 -14 15 -18l30 -9l2 -43h-248l3 43l31 9q17 4 19 18l44 333q1 7 -2 11t-13 7l-28 9l-3 43h248l-2 -43l-33 -9q-17 -4 -19 -18l-23 -175l142 121q39 33 42 55q3 17 -17 23l-20 6l-3 40h227l-3 -43
l-44 -9q-24 -5 -57 -29t-88 -71l-13 -11l127 -228q8 -13 18 -20t21 -12l17 -7l3 -43h-254z" />
    <glyph glyph-name="l" unicode="l" horiz-adv-x="506" 
d="M432 0h-422l3 43l31 9q17 4 19 18l44 333q1 7 -2 11t-13 7l-28 9l-3 43h261l-3 -43l-45 -9q-17 -3 -19 -18l-47 -360h8q35 0 60 4.5t43 15t30 26.5t22 40l21 51h78z" />
    <glyph glyph-name="m" unicode="m" horiz-adv-x="778" 
d="M463 0l3 43l30 9q12 4 15 7t4 11l37 343h-15l-172 -398h-130l-32 404h-15l-40 -227q-8 -43 -11.5 -70t-3 -42t4.5 -20.5t12 -7.5l38 -9l3 -43h-182l3 43l32 9q8 2 14 9t12 22.5t12.5 42t13.5 66.5l38 211q3 14 -15 18l-40 9l-3 43h277l12 -311h15l130 311h239l-3 -43
l-31 -9q-12 -4 -15.5 -7.5t-4.5 -10.5l-32 -333q-1 -7 2 -10.5t14 -7.5l30 -9l3 -43h-249z" />
    <glyph glyph-name="n" unicode="n" horiz-adv-x="613" 
d="M612 430l-32 -9q-7 -2 -13 -8.5t-11.5 -22t-10 -42t-10.5 -67.5l-38 -286h-146l-187 331h-15l-15 -134q-5 -40 -7 -66t-1 -42t5.5 -23t11.5 -9l39 -9l3 -43h-185l3 43l31 9q8 2 14 9t11 22t10 41.5t10 67.5l28 211q1 7 -2 11t-13 7l-28 9l-4 43h204l186 -330h15l15 138
q5 40 7 66t1 42t-5 23t-12 9l-38 9l-3 43h185z" />
    <glyph glyph-name="o" unicode="o" horiz-adv-x="589" 
d="M555 263q0 -60 -26 -111.5t-69 -93.5q-35 -35 -84.5 -54.5t-103.5 -19.5q-49 0 -92.5 16.5t-76 46t-51 70.5t-18.5 90q0 57 19.5 106.5t57.5 87.5q40 38 92.5 62.5t112.5 24.5q50 0 93.5 -16.5t75.5 -46.5t51 -71.5t19 -90.5zM397 298q0 15 -1 31.5t-4.5 33t-10 30.5
t-16.5 24q-5 9 -18.5 14.5t-30.5 5.5q-25 0 -44.5 -14.5t-33.5 -38.5t-23 -53.5t-14.5 -59t-7.5 -56.5t-2 -45q0 -30 5.5 -64t23.5 -53q6 -10 20 -15.5t32 -5.5q25 0 44 14.5t32.5 38.5t23 53t15 59t8 56.5t2.5 44.5z" />
    <glyph glyph-name="p" unicode="p" horiz-adv-x="541" 
d="M532 343q0 -46 -22 -78.5t-57 -52.5t-78.5 -29t-85.5 -9q-23 0 -41 1t-23 2l-14 -107q-2 -15 15 -18l45 -9l3 -43h-263l3 43l31 9q17 4 19 18l44 333q1 7 -2 11t-13 7l-28 9l-3 43h270q103 0 151.5 -34t48.5 -96zM370 335q0 42 -21.5 70.5t-73.5 28.5h-16l-28 -215
q6 -2 20.5 -2.5t25.5 -0.5q20 0 37 9.5t29.5 26t19.5 38t7 45.5z" />
    <glyph glyph-name="q" unicode="q" horiz-adv-x="589" 
d="M564 -129q-32 -7 -77 -13t-102 -6q-31 0 -59.5 6.5t-55 23.5t-51 46.5t-47.5 74.5q-62 26 -100 79t-38 125q0 57 19.5 106.5t57.5 87.5q40 38 92.5 62.5t112.5 24.5q50 0 93.5 -16.5t75.5 -46.5t51 -71.5t19 -90.5q0 -60 -26 -111.5t-69 -93.5q-26 -26 -60.5 -43.5
t-72.5 -25.5q23 -27 45 -43t48 -25t58.5 -12t77.5 -3zM397 298q0 15 -1 31.5t-4.5 33t-10 30.5t-16.5 24q-5 9 -18.5 14.5t-30.5 5.5q-25 0 -44.5 -14.5t-33.5 -38.5t-23 -53.5t-14.5 -59t-7.5 -56.5t-2 -45q0 -30 5.5 -64t23.5 -53q6 -10 20 -15.5t32 -5.5q25 0 44 14.5
t32.5 38.5t23 53t15 59t8 56.5t2.5 44.5z" />
    <glyph glyph-name="r" unicode="r" horiz-adv-x="582" 
d="M356 0l-27 67l-58 128l-43 2l-17 -127q-2 -14 15 -18l30 -9l3 -43h-249l3 43l31 9q17 4 19 18l44 333q1 7 -2 11t-13 7l-28 9l-3 43h284q47 0 82.5 -10t60 -27t37 -40t12.5 -50q0 -21 -6.5 -41.5t-21.5 -39t-39.5 -34t-61.5 -27.5l77 -122q8 -16 18.5 -25.5t28.5 -11.5
l14 -2l3 -43h-193zM377 340q0 49 -27 71.5t-60 22.5h-32l-25 -193l62 -6q11 2 25.5 9t27 20t21 31.5t8.5 44.5z" />
    <glyph glyph-name="s" unicode="s" horiz-adv-x="490" 
d="M430 146q0 -37 -15.5 -66.5t-43.5 -50t-65 -31.5t-81 -11q-67 0 -112 6t-84 15l21 157h81l28 -123q16 -5 25.5 -6.5t31.5 -1.5q38 0 60.5 19.5t22.5 48.5q0 14 -5.5 24.5t-17.5 20t-30.5 19t-44.5 22.5q-23 11 -47 24t-43.5 30t-31.5 40t-12 55q0 33 16.5 60t45 46
t66.5 29.5t82 10.5q21 0 37.5 -1t33.5 -3.5t35 -5.5t42 -8l46 11l-22 -158h-75l-32 111q-14 4 -31.5 7t-41.5 3q-34 0 -52.5 -16.5t-18.5 -38.5q0 -16 7 -28.5t21 -23t34 -21t45 -23.5q21 -11 43.5 -23.5t40.5 -29.5t29.5 -38.5t11.5 -50.5z" />
    <glyph glyph-name="t" unicode="t" horiz-adv-x="577" 
d="M482 298l-6 57q-3 23 -8.5 38t-14.5 23t-20 11t-24 3h-18l-48 -360q-2 -14 15 -18l37 -9l3 -43h-264l3 43l38 9q17 4 19 18l48 361h-15q-31 0 -51.5 -16t-37.5 -61l-22 -56h-83l38 175h512l-23 -175h-78z" />
    <glyph glyph-name="u" unicode="u" horiz-adv-x="594" 
d="M596 430l-32 -9q-7 -2 -13 -6t-11 -18t-10 -41.5t-12 -76.5l-16 -115q-12 -87 -64 -135t-151 -48q-49 0 -89 10t-68.5 30.5t-44 50.5t-15.5 69v17q0 8 2 17l31 228q2 14 -15 18l-28 9l-3 43h249l-3 -43l-33 -9q-17 -4 -19 -18l-28 -215q-2 -11 -3.5 -22.5t-1.5 -28.5
q0 -51 29.5 -74t80.5 -23q46 0 80 31t44 105l14 105q5 40 7 66t1 42t-5 23t-12 9l-38 9l-3 43h183z" />
    <glyph glyph-name="v" unicode="v" horiz-adv-x="555" 
d="M585 430l-16 -4q-13 -3 -24 -7.5t-23.5 -18t-29 -39.5t-40.5 -72l-152 -289h-130l-89 386q-4 17 -15 25.5t-33 15.5l-10 3l-3 43h267l-3 -43l-16 -3q-14 -3 -22.5 -6.5t-12.5 -11t-3 -20.5t7 -36l54 -249h15l110 230q23 47 21.5 66t-31.5 26l-16 4l-3 43h201z" />
    <glyph glyph-name="w" unicode="w" horiz-adv-x="844" 
d="M869 430l-16 -4q-13 -3 -24 -8t-23.5 -18.5t-28 -39.5t-37.5 -71l-142 -289h-130l-39 267h-15l-125 -267h-130l-73 386q-3 17 -14 25.5t-34 15.5l-10 3l-3 43h272l-3 -43l-16 -3q-29 -5 -35.5 -20t-0.5 -54l38 -249h15l110 254l-4 28q-2 17 -13.5 25.5t-34.5 15.5l-10 3
l-3 43h269l-3 -43l-16 -3q-16 -3 -25 -8.5t-12 -14.5t-2 -21.5t3 -29.5l35 -249h15l100 230q21 48 19.5 66t-33.5 26l-16 4l-3 43h201z" />
    <glyph glyph-name="x" unicode="x" horiz-adv-x="560" 
d="M267 0l3 43l16 3q20 4 24.5 12t-3.5 22l-70 117h-3l-70 -73q-29 -30 -31 -49t22 -25l23 -6l3 -44h-201l3 43l15 5q28 9 56 31t73 67l81 80l-135 184q-7 10 -30 17l-10 3l-3 43h268l-3 -43l-17 -3q-24 -5 -24 -16t9 -26l61 -100h2l63 64q29 29 31.5 48.5t-21.5 25.5l-24 6
l-3 44h202l-3 -43l-16 -5q-13 -4 -26 -11.5t-28 -19t-33.5 -28t-41.5 -39.5l-76 -73l141 -191q7 -10 30 -17l11 -3l3 -43h-268z" />
    <glyph glyph-name="y" unicode="y" horiz-adv-x="541" 
d="M577 430l-16 -5q-14 -4 -27 -12t-28 -22t-34.5 -37t-45.5 -57l-80 -104l-16 -123q-2 -14 15 -18l37 -9l3 -43h-264l3 43l38 9q17 4 19 18l15 110l-126 230q-5 10 -30 17l-10 3l-3 43h263l-3 -43l-17 -3q-29 -5 -28.5 -25t16.5 -59l47 -114h15l68 90q35 47 37.5 72.5
t-21.5 31.5l-24 6l-3 44h203z" />
    <glyph glyph-name="z" unicode="z" horiz-adv-x="543" 
d="M448 0h-437l5 41l333 384l1 5h-94q-14 0 -27.5 -2.5t-25.5 -11t-23 -23.5t-21 -40l-22 -54h-72l13 174h450l-6 -45l-340 -380v-5h47q61 0 98 14.5t56 61.5l20 51h83z" />
    <glyph glyph-name="braceleft" unicode="{" horiz-adv-x="362" 
d="M341 -212q-62 2 -106.5 14t-73 32t-41.5 47t-13 59q0 23 7.5 48t17 49t17 45.5t7.5 39.5t-4 31.5t-16.5 23.5t-35.5 16.5t-62 11.5l-11 35l11 33q34 6 57 12.5t36.5 16t19 23t5.5 31.5t-7.5 39.5t-17 45.5t-17 49t-7.5 48q0 32 13 59t41.5 47t73 32t106.5 14v-40
q-29 -3 -48 -9.5t-30 -16.5t-15 -24t-4 -31q0 -22 7.5 -45t17 -47.5t17 -50t7.5 -52.5q0 -45 -42 -80t-138 -49v-11q95 -13 137.5 -49t42.5 -81q0 -27 -7.5 -52.5t-17 -50t-17 -48t-7.5 -45.5q0 -17 4 -31t15 -24t30 -16t48 -9v-40z" />
    <glyph glyph-name="bar" unicode="|" horiz-adv-x="274" 
d="M111 690h52v-877h-52v877z" />
    <glyph glyph-name="braceright" unicode="}" horiz-adv-x="362" 
d="M330 205q-38 -5 -61.5 -11.5t-36 -16.5t-16.5 -23.5t-4 -31.5t7.5 -39.5t17 -45.5t17 -49t7.5 -48q0 -32 -13 -59t-41.5 -47t-72.5 -32t-106 -14v40q29 3 48 9t30 16t15 24t4 31q0 22 -7.5 45.5t-17 48t-17 50t-7.5 52.5q0 45 42 81t137 49v11q-95 14 -137 49t-42 80
q0 27 7.5 52.5t17 50t17 47.5t7.5 45q0 17 -4 31t-15 24t-30 16.5t-48 9.5v40q62 -2 106 -14t72.5 -32t41.5 -47t13 -59q0 -23 -7.5 -48t-17 -49t-17 -45.5t-7.5 -39.5t5.5 -31.5t19 -23t36.5 -16t57 -12.5l11 -33z" />
    <glyph glyph-name="asciitilde" unicode="~" horiz-adv-x="400" 
d="M267 258q17 0 29 15t26 42h56q-8 -42 -20 -70.5t-28 -45.5t-35.5 -24t-42.5 -7q-21 0 -41.5 11t-40 23.5t-36.5 23.5t-31 11q-19 0 -27 -16t-20 -43h-60q16 83 48 115t78 32q21 0 41 -10.5t38.5 -23t35 -23t30.5 -10.5z" />
    <glyph glyph-name="exclamdown" unicode="&#xa1;" horiz-adv-x="304" 
d="M112 560q0 32 23 55.5t56 23.5t56 -23t23 -56t-23 -56.5t-56 -23.5t-56 24t-23 56zM153 415q2 4 6.5 5.5t9.5 1.5t9 -2t4 -7l2 -371q0 -27 -22.5 -42.5t-54.5 -15.5h-5q-19 0 -34.5 5t-26 14t-14.5 21.5t1 27.5z" />
    <glyph glyph-name="cent" unicode="&#xa2;" 
d="M237 -165h-56l37 150q-39 1 -69 15.5t-51 39.5t-32 58.5t-11 71.5q0 54 20 108.5t56.5 97.5t89 70t116.5 27h2l40 163h56l-42 -172q36 -12 59 -36.5t23 -58.5q0 -39 -22.5 -59t-52.5 -20q-17 0 -28.5 5.5t-19.5 14.5l-55 -233q19 8 50 26.5t69 42.5l19 -24
q-26 -38 -66 -75.5t-93 -53.5zM242 81q21 89 39 159q8 30 15 58.5t12.5 51t8.5 36.5l3 13q-21 6 -42 6q-8 0 -18 -10t-21 -33t-19 -53t-13.5 -64.5t-5.5 -69.5q0 -32 10 -57t31 -37z" />
    <glyph glyph-name="sterling" unicode="&#xa3;" 
d="M109 315q2 22 4 45t5 45q7 47 27.5 89t52.5 74.5t76.5 51.5t99.5 19q70 0 107.5 -26t37.5 -71q0 -32 -17 -51t-52 -19q-18 0 -31.5 9t-22 23.5t-9.5 34t7 40.5q-5 5 -14.5 10.5t-24.5 5.5q-13 0 -25 -6.5t-22.5 -23t-19.5 -45.5t-15 -74q-5 -36 -9.5 -69t-9.5 -62h132
l2 -51h-143q-2 -8 -3.5 -16t-3.5 -16q-9 -34 -21 -59.5t-26 -42.5v-5q15 -4 34.5 -8.5t39 -8t38.5 -6t34 -2.5q26 0 45 5.5t33 19.5q11 11 18.5 25.5t15.5 35.5l29 -10q5 -97 -31.5 -143.5t-111.5 -46.5q-37 0 -66.5 13t-52 30.5t-37.5 34t-24 23.5q-30 -38 -78.5 -65.5
t-101.5 -35.5l-8 55q36 7 60 19.5t39.5 33t23.5 49t12 67.5q1 10 1.5 23.5t1.5 30.5h-100l3 51h101z" />
    <glyph glyph-name="currency" unicode="&#xa4;" 
d="M191 219q10 -69 44 -106.5t97 -37.5q35 0 68.5 15.5t63.5 41.5l17 -16q-13 -28 -34 -52.5t-47.5 -41.5t-57 -27t-63.5 -10q-50 0 -89.5 17.5t-68 49t-45 74.5t-20.5 93h-60l3 53h56v1q2 36 9 72h-52l3 53h63q16 48 42.5 90t62.5 73.5t82 49.5t102 18q69 0 109.5 -25
t41.5 -61q0 -32 -19.5 -51.5t-46.5 -19.5q-35 0 -54 28.5t-14 68.5q-4 2 -13.5 6t-22.5 4q-25 0 -47 -15t-40.5 -40t-33 -58t-24.5 -68h203l3 -53h-217q-2 -17 -3.5 -33.5t-1.5 -32.5v-7h203l3 -53h-202z" />
    <glyph glyph-name="yen" unicode="&#xa5;" 
d="M575 580l-22 -7q-12 -4 -23 -10t-24 -19t-30 -36t-43 -61l-95 -142h126l2 -51h-146l-9 -76h153l3 -51h-158l-7 -49q-3 -18 19 -24l49 -11l3 -43h-296l3 43l51 11q22 4 24 24l6 49h-136l2 51h144l9 76h-156l3 51h139l-104 237q-5 12 -11 17.5t-17 9.5l-33 11l-3 45h284
l-3 -45l-27 -6q-16 -4 -17.5 -31t12.5 -72l44 -144h9l77 120q41 64 47.5 92.5t-28.5 36.5l-19 4l-3 45h204z" />
    <glyph glyph-name="brokenbar" unicode="&#xa6;" horiz-adv-x="461" 
d="M459 430l-32 -9q-12 -3 -15.5 -7t-4.5 -11l-35 -246q-7 -50 -28.5 -83.5t-51 -53.5t-65 -28.5t-70.5 -8.5q-37 0 -68 8t-53.5 22t-35 33t-12.5 40q0 34 21 57t54 23q27 0 47 -15.5t20 -38.5q0 -19 -8 -33t-22 -24q8 -10 22 -18t31 -8q23 0 41 24.5t25 72.5l39 277
q2 14 -15 18l-41 9l2 43h263z" />
    <glyph glyph-name="section" unicode="&#xa7;" 
d="M474 298q0 -47 -26 -82t-68 -57q15 -13 24 -30t9 -38q0 -31 -15.5 -59t-43.5 -49.5t-65 -33.5t-81 -12q-79 0 -121.5 24.5t-42.5 66.5q0 31 21.5 51t48.5 20q18 0 35.5 -8.5t31 -23t21 -32.5t4.5 -37q12 -7 24 -9.5t23 -2.5q27 0 43 15.5t16 39.5q0 10 -10.5 21t-27 22
t-38 23t-44.5 25q-27 14 -53.5 29.5t-47.5 33t-34.5 38t-13.5 45.5q2 48 29 83t69 57q-15 13 -24 29t-9 39q0 32 15 59.5t42 48t63.5 32t79.5 11.5q79 0 115.5 -24t36.5 -64q0 -32 -21.5 -53t-48.5 -21q-18 0 -32 8.5t-23.5 22.5t-14 32t-1.5 37q-4 3 -11 5t-14.5 4t-15 3
t-11.5 1q-19 0 -30.5 -4.5t-17.5 -12t-8 -16.5t-2 -18q0 -12 10 -23t26.5 -22.5t38 -23t44.5 -23.5q26 -15 52 -30.5t47 -33.5t34 -38.5t13 -44.5zM381 227q0 16 -7.5 29t-20.5 24.5t-29.5 22t-34.5 20.5q-32 17 -64.5 35t-58.5 38q-26 -14 -26 -48q0 -30 28.5 -52t68.5 -43
q29 -18 61.5 -35t58.5 -37q24 15 24 46z" />
    <glyph glyph-name="dieresis" unicode="&#xa8;" horiz-adv-x="400" 
d="M433 605q0 -31 -18.5 -53t-52.5 -22t-52.5 22t-18.5 53t18.5 54t52.5 23t52.5 -23t18.5 -54zM205 605q0 -31 -18.5 -53t-52.5 -22t-53.5 22t-19.5 53t19.5 54t53.5 23t52.5 -23t18.5 -54z" />
    <glyph glyph-name="copyright" unicode="&#xa9;" horiz-adv-x="801" 
d="M771 311q0 -77 -29 -144.5t-79 -118t-117.5 -79.5t-144.5 -29t-144.5 29t-118 79.5t-79.5 118t-29 144.5t29 145t79.5 118.5t118 79.5t144.5 29t144.5 -29t117.5 -79.5t79 -118.5t29 -145zM727 311q0 68 -25.5 128t-70 105t-103.5 71t-127 26t-127.5 -26t-104 -71
t-70 -105t-25.5 -128q0 -67 25.5 -127t70 -105t104 -71t127.5 -26t127 26t103.5 71t70 105t25.5 127zM554 117l-46 10q-20 -9 -48.5 -14.5t-51.5 -5.5q-58 0 -99 17t-66.5 45.5t-37.5 66t-12 77.5q0 44 17.5 80.5t47.5 63t69.5 41.5t82.5 15q32 0 55.5 -5.5t37.5 -11.5
l59 16v-145h-58l-30 97q-25 16 -67 16q-51 0 -82 -39t-31 -122q0 -35 8 -67.5t23 -57.5t37.5 -40t51.5 -15q19 0 31.5 3.5t21.5 8.5l36 99h62z" />
    <glyph glyph-name="ordfeminine" unicode="&#xaa;" horiz-adv-x="425" 
d="M327 576l17 62l99 -8l-46 -172l-24 -107l20 -6l49 47l14 -18q-10 -16 -22.5 -32t-27.5 -29.5t-32 -22t-34 -8.5q-8 0 -20 5.5t-23.5 13.5t-19.5 16.5t-8 14.5q0 7 4.5 20.5t11.5 31t15.5 39t16.5 44.5h-9q-25 -42 -46.5 -76.5t-41.5 -58.5t-40 -37t-43 -13
q-33 0 -56.5 24.5t-23.5 74.5q0 55 22.5 110.5t62.5 94.5q27 27 56.5 39t55.5 12q34 0 46.5 -17.5t19.5 -43.5h7zM312 532q-26 19 -48.5 32.5t-36.5 13.5q-8 0 -13 -2.5t-11 -8.5q-7 -7 -14 -23t-12.5 -36.5t-9 -42.5t-3.5 -42q0 -58 38 -58q14 0 36 28.5t56 81.5z" />
    <glyph glyph-name="guillemotleft" unicode="&#xab;" horiz-adv-x="510" 
d="M459 32l-229 156v70l275 160l10 -22l-185 -175l145 -167zM229 42l-221 146v70l263 150l10 -22l-159 -165l123 -157z" />
    <glyph glyph-name="logicalnot" unicode="&#xac;" horiz-adv-x="556" 
d="M265 369h-15l-90 -186h144zM134 126q-8 -21 -12.5 -35t-3 -22.5t8.5 -13.5t22 -8l17 -4l-3 -43h-200l8 43l15 4q12 3 23 7.5t24 18t29.5 39.5t40.5 72l129 247l3 28l148 25l91 -397q4 -17 15.5 -26t32.5 -15l11 -3l-3 -43h-266l8 43l15 3q14 3 22.5 6.5t12.5 11t3 21
t-7 35.5l-5 19h-174z" />
    <glyph glyph-name="registered" unicode="&#xae;" horiz-adv-x="802" 
d="M772 314q0 -77 -29 -144.5t-79 -118t-118 -79.5t-145 -29t-144.5 29t-118 79.5t-79.5 118t-29 144.5t29 144.5t79.5 118t118 79.5t144.5 29t145 -29t118 -79.5t79 -118t29 -144.5zM728 314q0 68 -25.5 128t-70 105t-104 71t-127.5 26q-67 0 -127 -26t-104 -71t-70 -105
t-26 -128t26 -128t70 -104.5t104 -70.5t127 -26q68 0 127.5 26t104 70.5t70 104.5t25.5 128zM476 120l-23 43l-72 122l-23 2v-110q0 -9 14 -14l21 -7l4 -36h-182l3 36l28 7q15 4 15 14v271q0 11 -15 15l-28 7l-3 37h202q40 0 68.5 -7.5t47 -21t27 -31.5t8.5 -38
q0 -79 -94 -105l86 -126q5 -8 12.5 -10t12.5 -5l12 -7l3 -36h-124zM466 391q0 40 -24.5 61t-58.5 21h-25v-151l32 -4q34 2 55 18.5t21 54.5z" />
    <glyph glyph-name="macron" unicode="&#xaf;" horiz-adv-x="400" 
d="M61 551l15 75h320l5 -75h-340z" />
    <glyph glyph-name="degree" unicode="&#xb0;" horiz-adv-x="410" 
d="M411 500q0 -39 -14.5 -73t-39 -59.5t-58 -40t-72.5 -14.5q-32 0 -60.5 10.5t-49.5 30t-33.5 47t-12.5 61.5q0 38 14.5 71.5t39 59t58 40t70.5 14.5q33 0 61.5 -10t50 -29t34 -46.5t12.5 -61.5zM361 490q0 50 -31 81.5t-81 31.5q-28 0 -51.5 -11.5t-41 -31t-27.5 -44.5
t-10 -52q0 -50 32.5 -79.5t79.5 -29.5q28 0 51.5 10.5t41 29t27.5 43t10 52.5z" />
    <glyph glyph-name="plusminus" unicode="&#xb1;" horiz-adv-x="801" 
d="M771 311q0 -77 -29 -144.5t-79 -117.5t-117.5 -79t-144.5 -29t-144.5 29t-118 79t-79.5 117.5t-29 144.5t29 145t79.5 118.5t118 79.5t144.5 29t144.5 -29t117.5 -79.5t79 -118.5t29 -145zM727 311q0 68 -25.5 128t-70 105t-103.5 71t-127 26t-127.5 -26t-104 -71
t-70 -105t-25.5 -128q0 -67 25.5 -127t70 -105t104 -71t127.5 -26t127 26t103.5 71t70 105t25.5 127zM586 393q0 -30 -12 -54t-33.5 -41t-50.5 -26t-64 -9q-8 0 -21.5 0.5t-21.5 1.5v-91q0 -10 14 -14l33 -8l4 -36h-194l3 36l28 8q14 4 14 14v271q0 10 -14 14l-28 8l-3 36
h179q85 0 126 -29.5t41 -80.5zM485 386q0 38 -23 60.5t-55 22.5h-24v-170q8 -1 15.5 -2t21.5 -1q31 0 48 22.5t17 67.5z" />
    <glyph glyph-name="acute" unicode="&#xb4;" horiz-adv-x="398" 
d="M214 520h-66l121 177h154z" />
    <glyph glyph-name="mu" unicode="&#xb5;" horiz-adv-x="602" 
d="M556 178l-34 -9q-17 -4 -20 -18l-13 -94l47 -5v-34q-47 -12 -110.5 -21.5t-134.5 -9.5q-66 0 -114.5 15.5t-80.5 44t-48 68t-16 87.5q0 54 21.5 106t63.5 93q38 38 90 60.5t115 22.5q20 0 42.5 -2t43 -5.5t37.5 -7.5t26 -7l83 22l-25 -182h-86l-32 118q-6 5 -15.5 9
t-20 6.5t-19 4t-13.5 1.5q-36 0 -63.5 -19.5t-46.5 -53t-29 -78.5t-10 -96q0 -50 14.5 -83.5t33.5 -52.5q16 -16 34.5 -22.5t33.5 -6.5q8 0 14 1t14 4l15 117q1 8 -3.5 11t-17.5 7l-24 9l-1 43h255z" />
    <glyph glyph-name="paragraph" unicode="&#xb6;" 
d="M325 -32l38 269q-14 -1 -24.5 -2t-27.5 -1q-55 0 -101 13.5t-79 37.5t-51.5 58t-18.5 76q0 57 20 96t58.5 63.5t94.5 35.5t129 11h123l-86 -657h-75z" />
    <glyph glyph-name="periodcentered" unicode="&#xb7;" horiz-adv-x="232" 
d="M208 248q0 -36 -25.5 -62t-62.5 -26t-62.5 25.5t-25.5 62.5t25.5 63t62.5 26q18 0 34 -7t28 -19.5t19 -28.5t7 -34z" />
    <glyph glyph-name="cedilla" unicode="&#xb8;" horiz-adv-x="400" 
d="M8 -250q81 9 125 30t44 48q0 49 -77 49q-22 0 -39.5 -1.5t-36.5 -6.5l2 28l137 124h56l-85 -72q61 -5 96.5 -27.5t35.5 -63.5q0 -30 -19 -54.5t-52.5 -42.5t-79.5 -28.5t-100 -12.5z" />
    <glyph glyph-name="ordmasculine" unicode="&#xba;" horiz-adv-x="381" 
d="M398 484q0 -40 -14 -77t-39.5 -65t-60 -44.5t-76.5 -16.5q-68 0 -107.5 42.5t-39.5 110.5q0 41 14 77.5t39.5 64.5t60.5 44.5t77 16.5q69 0 107.5 -42t38.5 -111zM295 526q0 32 -11.5 49.5t-31.5 17.5q-14 0 -26 -10.5t-22.5 -28.5t-18 -41.5t-12.5 -48.5
q-4 -21 -6.5 -39t-2.5 -32q0 -32 11.5 -49.5t31.5 -17.5q14 0 26 10.5t22.5 28.5t18 41.5t12.5 48.5q4 20 6.5 38.5t2.5 32.5z" />
    <glyph glyph-name="guillemotright" unicode="&#xbb;" horiz-adv-x="510" 
d="M230 38l-10 22l161 165l-123 157l16 22l219 -146v-70zM-2 28l-10 22l183 175l-143 167l14 22l231 -156v-70z" />
    <glyph glyph-name="onequarter" unicode="&#xbc;" horiz-adv-x="1094" 
d="M442 303l-7 52q-3 23 -12.5 38t-25.5 23t-40.5 11t-57.5 3h-40l-25 -188h17q14 0 33.5 4.5t30.5 26.5l27 53h56l-47 -203h-54l-4 47q-1 18 -11.5 25.5t-38.5 7.5h-14l-18 -133q-2 -15 15 -18l45 -9l-4 -43h-263l9 43l31 9q17 4 19 18l44 333q1 7 -2 11t-13 7l-28 9l-4 43
h482l-22 -170h-78zM989 303l-7 52q-3 23 -12.5 38t-25.5 23t-40.5 11t-57.5 3h-40l-25 -188h17q14 0 33.5 4.5t30.5 26.5l27 53h56l-47 -203h-54l-4 47q-1 18 -11.5 25.5t-38.5 7.5h-14l-18 -133q-2 -15 15 -18l45 -9l-4 -43h-263l9 43l31 9q17 4 19 18l44 333q1 7 -2 11
t-13 7l-28 9l-4 43h482l-22 -170h-78z" />
    <glyph glyph-name="onehalf" unicode="&#xbd;" horiz-adv-x="1427" 
d="M442 303l-7 52q-3 23 -12.5 38t-25.5 23t-40.5 11t-57.5 3h-40l-25 -188h17q14 0 33.5 4.5t30.5 26.5l27 53h56l-47 -203h-54l-4 47q-1 18 -11.5 25.5t-38.5 7.5h-14l-18 -133q-2 -15 15 -18l45 -9l-4 -43h-263l9 43l31 9q17 4 19 18l44 333q1 7 -2 11t-13 7l-28 9l-4 43
h482l-22 -170h-78zM989 303l-7 52q-3 23 -12.5 38t-25.5 23t-40.5 11t-57.5 3h-40l-25 -188h17q14 0 33.5 4.5t30.5 26.5l27 53h56l-47 -203h-54l-4 47q-1 18 -11.5 25.5t-38.5 7.5h-14l-18 -133q-2 -15 15 -18l45 -9l-4 -43h-263l9 43l31 9q17 4 19 18l44 333q1 7 -2 11
t-13 7l-28 9l-4 43h482l-22 -170h-78zM1101 0l6 43l38 9q17 4 19 18l44 333q2 14 -15 18l-35 9l-4 43h266l-4 -43l-40 -9q-17 -4 -19 -18l-44 -333q-2 -14 15 -18l37 -9l2 -43h-266z" />
    <glyph glyph-name="threequarters" unicode="&#xbe;" horiz-adv-x="1600" 
d="M442 303l-7 52q-3 23 -12.5 38t-25.5 23t-40.5 11t-57.5 3h-40l-25 -188h17q14 0 33.5 4.5t30.5 26.5l27 53h56l-47 -203h-54l-4 47q-1 18 -11.5 25.5t-38.5 7.5h-14l-18 -133q-2 -15 15 -18l45 -9l-4 -43h-263l9 43l31 9q17 4 19 18l44 333q1 7 -2 11t-13 7l-28 9l-4 43
h482l-22 -170h-78zM989 303l-7 52q-3 23 -12.5 38t-25.5 23t-40.5 11t-57.5 3h-40l-25 -188h17q14 0 33.5 4.5t30.5 26.5l27 53h56l-47 -203h-54l-4 47q-1 18 -11.5 25.5t-38.5 7.5h-14l-18 -133q-2 -15 15 -18l45 -9l-4 -43h-263l9 43l31 9q17 4 19 18l44 333q1 7 -2 11
t-13 7l-28 9l-4 43h482l-22 -170h-78zM1526 0h-422l3 43l31 9q17 4 19 18l44 333q1 7 -2 11t-13 7l-28 9l-3 43h261l-3 -43l-45 -9q-17 -3 -19 -18l-47 -360h8q35 0 60 4.5t43 15t30 26.5t22 40l21 51h78z" />
    <glyph glyph-name="questiondown" unicode="&#xbf;" horiz-adv-x="403" 
d="M0 175q0 41 14.5 69t36.5 46.5t49.5 29.5t52.5 18q34 11 58 18.5t24 23.5q0 14 -9 28t-25 25h68q27 -14 44 -40t17 -53q0 -30 -14.5 -51t-37.5 -35.5t-51 -23.5t-54 -16q-35 -9 -59.5 -16.5t-24.5 -18.5q0 -12 10 -23.5t27.5 -20t41 -13.5t51.5 -5q21 0 40.5 2.5
t34.5 5.5q24 -24 24 -52q0 -38 -30.5 -63.5t-87.5 -25.5q-39 0 -75 14t-63.5 39.5t-44.5 60.5t-17 77zM208 560q0 32 23 55.5t56 23.5t56 -23t23 -56t-23 -56.5t-56 -23.5t-56 24t-23 56z" />
    <glyph glyph-name="Agrave" unicode="&#xc0;" horiz-adv-x="648" 
d="M298 0l3 46l26 3q19 3 29.5 9t13.5 19t0 35.5t-10 56.5l-5 23h-192l-3 -8q-23 -54 -19 -90.5t35 -42.5l26 -5l3 -46h-250l3 46l20 6q19 5 32.5 11t28.5 26.5t36 60.5t55 113l143 300v43l164 34l117 -537q5 -22 14 -33.5t30 -16.5l23 -7l3 -46h-326zM305 488h-12
l-107 -241h160zM363 687l-159 177h154l73 -177h-68z" />
    <glyph glyph-name="Aacute" unicode="&#xc1;" horiz-adv-x="648" 
d="M298 0l3 46l26 3q19 3 29.5 9t13.5 19t0 35.5t-10 56.5l-5 23h-192l-3 -8q-23 -54 -19 -90.5t35 -42.5l26 -5l3 -46h-250l3 46l20 6q19 5 32.5 11t28.5 26.5t36 60.5t55 113l143 300v43l164 34l117 -537q5 -22 14 -33.5t30 -16.5l23 -7l3 -46h-326zM305 488h-12
l-107 -241h160zM369 687h-66l121 177h154z" />
    <glyph glyph-name="Acircumflex" unicode="&#xc2;" horiz-adv-x="648" 
d="M298 0l3 46l26 3q19 3 29.5 9t13.5 19t0 35.5t-10 56.5l-5 23h-192l-3 -8q-23 -54 -19 -90.5t35 -42.5l26 -5l3 -46h-250l3 46l20 6q19 5 32.5 11t28.5 26.5t36 60.5t55 113l143 300v43l164 34l117 -537q5 -22 14 -33.5t30 -16.5l23 -7l3 -46h-326zM305 488h-12
l-107 -241h160zM453 687l-86 112h-2l-116 -112h-68l121 177h144l75 -177h-68z" />
    <glyph glyph-name="Atilde" unicode="&#xc3;" horiz-adv-x="648" 
d="M298 0l3 46l26 3q19 3 29.5 9t13.5 19t0 35.5t-10 56.5l-5 23h-192l-3 -8q-23 -54 -19 -90.5t35 -42.5l26 -5l3 -46h-250l3 46l20 6q19 5 32.5 11t28.5 26.5t36 60.5t55 113l143 300v43l164 34l117 -537q5 -22 14 -33.5t30 -16.5l23 -7l3 -46h-326zM305 488h-12
l-107 -241h160zM552 840q-8 -42 -20 -70.5t-28 -45.5t-35.5 -24t-42.5 -7q-21 0 -41.5 11t-40 23.5t-36.5 23.5t-31 11q-19 0 -27 -16t-20 -43h-60q16 83 48 115t78 32q21 0 41 -10.5t38.5 -23t35 -23t30.5 -10.5q17 0 29 15t26 42h56z" />
    <glyph glyph-name="Adieresis" unicode="&#xc4;" horiz-adv-x="648" 
d="M298 0l3 46l26 3q19 3 29.5 9t13.5 19t0 35.5t-10 56.5l-5 23h-192l-3 -8q-23 -54 -19 -90.5t35 -42.5l26 -5l3 -46h-250l3 46l20 6q19 5 32.5 11t28.5 26.5t36 60.5t55 113l143 300v43l164 34l117 -537q5 -22 14 -33.5t30 -16.5l23 -7l3 -46h-326zM305 488h-12
l-107 -241h160zM557 772q0 -31 -18.5 -53t-52.5 -22t-52.5 22t-18.5 53t18.5 54t52.5 23t52.5 -23t18.5 -54zM329 772q0 -31 -18.5 -53t-52.5 -22t-53.5 22t-19.5 53t19.5 54t53.5 23t52.5 -23t18.5 -54z" />
    <glyph glyph-name="Aring" unicode="&#xc5;" horiz-adv-x="648" 
d="M308 488h-15l-108 -246h159zM445 696q0 28 -18.5 50.5t-50.5 22.5t-50.5 -22.5t-18.5 -50.5t18.5 -49.5t50.5 -21.5t50.5 21.5t18.5 49.5zM298 617q-31 31 -31 79q1 22 8.5 42t21.5 35t34 24t45 9t45 -9t33.5 -24t21 -35t7.5 -42q0 -26 -10 -49t-29 -38l110 -506
q5 -22 14 -33.5t30 -16.5l23 -7l3 -46h-326l3 46l26 3q19 3 29.5 9t13.5 19t0 35.5t-10 56.5l-5 23h-192l-3 -8q-23 -54 -19 -90.5t35 -42.5l26 -5l3 -46h-250l3 46l20 6q19 5 32 11.5t28 26.5t36 60.5t56 112.5z" />
    <glyph glyph-name="AE" unicode="&#xc6;" horiz-adv-x="952" 
d="M860 0h-587l9 43l45 11q14 3 19 9t7 15l19 141h-198l-20 -29q-24 -35 -34 -59t-10 -41t10 -26.5t26 -12.5l26 -5l3 -46h-250l3 46l20 6q19 6 33 13t31 26t42.5 54.5t66.5 97.5l165 248q25 38 17.5 58t-35.5 25l-41 8l2 43h717l-29 -225h-89l-10 69q-5 37 -15 58
t-30.5 31.5t-52.5 13.5t-82 3h-48l-33 -236h16q27 0 51 7.5t38 34.5l35 69h64l-60 -268h-63l-3 63q-1 25 -15.5 34t-58.5 9h-12l-31 -238h62q48 0 80.5 3.5t55.5 14.5t40 32t34 57l28 55h90zM419 577h-7l-206 -309h172z" />
    <glyph glyph-name="Ccedilla" unicode="&#xc7;" horiz-adv-x="682" 
d="M323 -16q-70 3 -121.5 25.5t-85.5 59.5t-50.5 87.5t-16.5 110.5q0 71 31 140.5t85 123.5q49 49 115 78.5t144 29.5q25 0 49.5 -2.5t46.5 -7t39.5 -9.5t27.5 -10l99 29l-31 -240h-94l-32 156q-36 28 -82 28q-47 0 -86 -28.5t-66.5 -75t-42.5 -107t-15 -123.5t15 -106.5
t42 -70.5q34 -34 86 -34q20 0 40 5.5t36 13.5l79 161h100l-46 -218l-69 14q-26 -11 -62.5 -19.5t-81.5 -10.5l-41 -35q61 -5 96.5 -27.5t35.5 -63.5q0 -30 -19 -54.5t-52.5 -42.5t-79.5 -28.5t-100 -12.5l-7 30q81 9 125 30t44 48q0 49 -77 49q-22 0 -39.5 -1.5t-36.5 -6.5
l2 28z" />
    <glyph glyph-name="Egrave" unicode="&#xc8;" horiz-adv-x="676" 
d="M584 0h-581l5 44l43 11q15 4 19.5 9.5t6.5 14.5l64 467q2 9 -1.5 14.5t-18.5 9.5l-40 11l-2 44h591l-29 -225h-89l-10 69q-5 37 -15 58t-30.5 31.5t-52.5 13.5t-82 3h-48l-33 -236h16q27 0 51 7.5t38 34.5l35 69h64l-60 -268h-63l-3 63q-1 25 -15.5 34t-58.5 9h-12
l-31 -238h62q48 0 80.5 3.5t55.5 14.5t40 32t34 57l28 55h90zM387 687l-159 177h154l73 -177h-68z" />
    <glyph glyph-name="Eacute" unicode="&#xc9;" horiz-adv-x="676" 
d="M584 0h-581l5 44l43 11q15 4 19.5 9.5t6.5 14.5l64 467q2 9 -1.5 14.5t-18.5 9.5l-40 11l-2 44h591l-29 -225h-89l-10 69q-5 37 -15 58t-30.5 31.5t-52.5 13.5t-82 3h-48l-33 -236h16q27 0 51 7.5t38 34.5l35 69h64l-60 -268h-63l-3 63q-1 25 -15.5 34t-58.5 9h-12
l-31 -238h62q48 0 80.5 3.5t55.5 14.5t40 32t34 57l28 55h90zM403 687h-66l121 177h154z" />
    <glyph glyph-name="Ecircumflex" unicode="&#xca;" horiz-adv-x="676" 
d="M584 0h-581l5 44l43 11q15 4 19.5 9.5t6.5 14.5l64 467q2 9 -1.5 14.5t-18.5 9.5l-40 11l-2 44h591l-29 -225h-89l-10 69q-5 37 -15 58t-30.5 31.5t-52.5 13.5t-82 3h-48l-33 -236h16q27 0 51 7.5t38 34.5l35 69h64l-60 -268h-63l-3 63q-1 25 -15.5 34t-58.5 9h-12
l-31 -238h62q48 0 80.5 3.5t55.5 14.5t40 32t34 57l28 55h90zM467 687l-86 112h-2l-116 -112h-68l121 177h144l75 -177h-68z" />
    <glyph glyph-name="Edieresis" unicode="&#xcb;" horiz-adv-x="676" 
d="M584 0h-581l5 44l43 11q15 4 19.5 9.5t6.5 14.5l64 467q2 9 -1.5 14.5t-18.5 9.5l-40 11l-2 44h591l-29 -225h-89l-10 69q-5 37 -15 58t-30.5 31.5t-52.5 13.5t-82 3h-48l-33 -236h16q27 0 51 7.5t38 34.5l35 69h64l-60 -268h-63l-3 63q-1 25 -15.5 34t-58.5 9h-12
l-31 -238h62q48 0 80.5 3.5t55.5 14.5t40 32t34 57l28 55h90zM581 772q0 -31 -18.5 -53t-52.5 -22t-52.5 22t-18.5 53t18.5 54t52.5 23t52.5 -23t18.5 -54zM353 772q0 -31 -18.5 -53t-52.5 -22t-53.5 22t-19.5 53t19.5 54t53.5 23t52.5 -23t18.5 -54z" />
    <glyph glyph-name="Igrave" unicode="&#xcc;" horiz-adv-x="386" 
d="M5 0l3 44l53 11q14 4 19 9.5t7 14.5l64 467q2 9 -1.5 15t-18.5 9l-51 11l-3 44h326l-3 -44l-55 -11q-23 -5 -26 -24l-64 -467q-3 -16 20 -24l52 -11l4 -44h-326zM232 687l-159 177h154l73 -177h-68z" />
    <glyph glyph-name="Iacute" unicode="&#xcd;" horiz-adv-x="386" 
d="M5 0l3 44l53 11q14 4 19 9.5t7 14.5l64 467q2 9 -1.5 15t-18.5 9l-51 11l-3 44h326l-3 -44l-55 -11q-23 -5 -26 -24l-64 -467q-3 -16 20 -24l52 -11l4 -44h-326zM278 687h-66l121 177h154z" />
    <glyph glyph-name="Icircumflex" unicode="&#xce;" horiz-adv-x="386" 
d="M5 0l3 44l53 11q14 4 19 9.5t7 14.5l64 467q2 9 -1.5 15t-18.5 9l-51 11l-3 44h326l-3 -44l-55 -11q-23 -5 -26 -24l-64 -467q-3 -16 20 -24l52 -11l4 -44h-326zM344 687l-86 112h-2l-116 -112h-68l121 177h144l75 -177h-68z" />
    <glyph glyph-name="Idieresis" unicode="&#xcf;" horiz-adv-x="386" 
d="M5 0l3 44l53 11q14 4 19 9.5t7 14.5l64 467q2 9 -1.5 15t-18.5 9l-51 11l-3 44h326l-3 -44l-55 -11q-23 -5 -26 -24l-64 -467q-3 -16 20 -24l52 -11l4 -44h-326zM436 772q0 -31 -18.5 -53t-52.5 -22t-52.5 22t-18.5 53t18.5 54t52.5 23t52.5 -23t18.5 -54zM208 772
q0 -31 -18.5 -53t-52.5 -22t-53.5 22t-19.5 53t19.5 54t53.5 23t52.5 -23t18.5 -54z" />
    <glyph glyph-name="Eth" unicode="&#xd0;" horiz-adv-x="712" 
d="M395 339l3 -51h-123l-31 -223l65 -15q41 3 78 22.5t65 56t44 90t16 122.5q0 51 -9 94t-29 73.5t-53 47.5t-81 17h-26l-32 -234h113zM44 288l3 51h66l28 207q2 9 -1 14.5t-19 9.5l-40 11l-2 44q85 1 149 1h133q83 0 145.5 -20.5t104.5 -58t63 -89.5t21 -114
q0 -72 -25.5 -129.5t-79.5 -111.5q-46 -47 -124 -75t-171 -28h-292l5 44l43 11q15 4 19.5 9.5t6.5 14.5l29 209h-62z" />
    <glyph glyph-name="Ntilde" unicode="&#xd1;" horiz-adv-x="715" 
d="M741 581l-48 -13q-10 -3 -18.5 -14t-16 -33.5t-14.5 -59t-15 -90.5l-53 -378h-138l-235 483h-10l-31 -222q-8 -55 -11 -92t-2.5 -60t5.5 -33t13 -12l58 -13l3 -44h-246l3 44l48 13q10 3 18.5 13.5t16 33t14.5 59.5t15 91l41 290q1 5 -1 14t-16 12l-41 11l-2 44h233
l216 -447h10l27 193q8 55 11 92t2.5 60t-5.5 33.5t-13 11.5l-58 13l-3 44h246zM605 840q-8 -42 -20 -70.5t-28 -45.5t-35.5 -24t-42.5 -7q-21 0 -41.5 11t-40 23.5t-36.5 23.5t-31 11q-19 0 -27 -16t-20 -43h-60q16 83 48 115t78 32q21 0 41 -10.5t38.5 -23t35 -23
t30.5 -10.5q17 0 29 15t26 42h56z" />
    <glyph glyph-name="Ograve" unicode="&#xd2;" horiz-adv-x="735" 
d="M704 348q0 -80 -32.5 -148t-86.5 -122q-46 -46 -106.5 -69.5t-130.5 -23.5q-64 0 -119.5 21t-95.5 59t-63 91.5t-23 117.5q0 74 25.5 138.5t76.5 115.5q50 50 113.5 79.5t140.5 29.5q64 0 119 -21t95.5 -59t63.5 -91t23 -118zM521 392q0 20 -1.5 42t-6.5 43.5t-14 42
t-23 35.5q-13 12 -29.5 19.5t-39.5 7.5q-36 0 -63 -19.5t-46.5 -51t-32.5 -71t-20.5 -79t-11 -75.5t-3.5 -60q0 -41 8 -85t37 -73q12 -13 28.5 -20.5t40.5 -7.5q35 0 62 19.5t46.5 50.5t32.5 70t21 78t11.5 74.5t3.5 59.5zM396 687l-159 177h154l73 -177h-68z" />
    <glyph glyph-name="Oacute" unicode="&#xd3;" horiz-adv-x="735" 
d="M704 348q0 -80 -32.5 -148t-86.5 -122q-46 -46 -106.5 -69.5t-130.5 -23.5q-64 0 -119.5 21t-95.5 59t-63 91.5t-23 117.5q0 74 25.5 138.5t76.5 115.5q50 50 113.5 79.5t140.5 29.5q64 0 119 -21t95.5 -59t63.5 -91t23 -118zM521 392q0 20 -1.5 42t-6.5 43.5t-14 42
t-23 35.5q-13 12 -29.5 19.5t-39.5 7.5q-36 0 -63 -19.5t-46.5 -51t-32.5 -71t-20.5 -79t-11 -75.5t-3.5 -60q0 -41 8 -85t37 -73q12 -13 28.5 -20.5t40.5 -7.5q35 0 62 19.5t46.5 50.5t32.5 70t21 78t11.5 74.5t3.5 59.5zM422 687h-66l121 177h154z" />
    <glyph glyph-name="Ocircumflex" unicode="&#xd4;" horiz-adv-x="735" 
d="M704 348q0 -80 -32.5 -148t-86.5 -122q-46 -46 -106.5 -69.5t-130.5 -23.5q-64 0 -119.5 21t-95.5 59t-63 91.5t-23 117.5q0 74 25.5 138.5t76.5 115.5q50 50 113.5 79.5t140.5 29.5q64 0 119 -21t95.5 -59t63.5 -91t23 -118zM521 392q0 20 -1.5 42t-6.5 43.5t-14 42
t-23 35.5q-13 12 -29.5 19.5t-39.5 7.5q-36 0 -63 -19.5t-46.5 -51t-32.5 -71t-20.5 -79t-11 -75.5t-3.5 -60q0 -41 8 -85t37 -73q12 -13 28.5 -20.5t40.5 -7.5q35 0 62 19.5t46.5 50.5t32.5 70t21 78t11.5 74.5t3.5 59.5zM526 687l-86 112h-2l-116 -112h-68l121 177h144
l75 -177h-68z" />
    <glyph glyph-name="Otilde" unicode="&#xd5;" horiz-adv-x="735" 
d="M704 348q0 -80 -32.5 -148t-86.5 -122q-46 -46 -106.5 -69.5t-130.5 -23.5q-64 0 -119.5 21t-95.5 59t-63 91.5t-23 117.5q0 74 25.5 138.5t76.5 115.5q50 50 113.5 79.5t140.5 29.5q64 0 119 -21t95.5 -59t63.5 -91t23 -118zM521 392q0 20 -1.5 42t-6.5 43.5t-14 42
t-23 35.5q-13 12 -29.5 19.5t-39.5 7.5q-36 0 -63 -19.5t-46.5 -51t-32.5 -71t-20.5 -79t-11 -75.5t-3.5 -60q0 -41 8 -85t37 -73q12 -13 28.5 -20.5t40.5 -7.5q35 0 62 19.5t46.5 50.5t32.5 70t21 78t11.5 74.5t3.5 59.5zM595 840q-8 -42 -20 -70.5t-28 -45.5t-35.5 -24
t-42.5 -7q-21 0 -41.5 11t-40 23.5t-36.5 23.5t-31 11q-19 0 -27 -16t-20 -43h-60q16 83 48 115t78 32q21 0 41 -10.5t38.5 -23t35 -23t30.5 -10.5q17 0 29 15t26 42h56z" />
    <glyph glyph-name="Odieresis" unicode="&#xd6;" horiz-adv-x="735" 
d="M704 348q0 -80 -32.5 -148t-86.5 -122q-46 -46 -106.5 -69.5t-130.5 -23.5q-64 0 -119.5 21t-95.5 59t-63 91.5t-23 117.5q0 74 25.5 138.5t76.5 115.5q50 50 113.5 79.5t140.5 29.5q64 0 119 -21t95.5 -59t63.5 -91t23 -118zM521 392q0 20 -1.5 42t-6.5 43.5t-14 42
t-23 35.5q-13 12 -29.5 19.5t-39.5 7.5q-36 0 -63 -19.5t-46.5 -51t-32.5 -71t-20.5 -79t-11 -75.5t-3.5 -60q0 -41 8 -85t37 -73q12 -13 28.5 -20.5t40.5 -7.5q35 0 62 19.5t46.5 50.5t32.5 70t21 78t11.5 74.5t3.5 59.5zM620 772q0 -31 -18.5 -53t-52.5 -22t-52.5 22
t-18.5 53t18.5 54t52.5 23t52.5 -23t18.5 -54zM392 772q0 -31 -18.5 -53t-52.5 -22t-53.5 22t-19.5 53t19.5 54t53.5 23t52.5 -23t18.5 -54z" />
    <glyph glyph-name="multiply" unicode="&#xd7;" horiz-adv-x="486" 
d="M413 103l-168 169l-169 -169l-37 37l169 169l-169 168l37 37l169 -169l169 170l37 -37l-170 -169l169 -169z" />
    <glyph glyph-name="Oslash" unicode="&#xd8;" horiz-adv-x="735" 
d="M274 75q16 -16 34 -28t48 -12q36 0 63 19.5t47.5 51t34 71t21.5 79.5t12 76t4 60q0 25 -3.5 54.5t-12.5 56.5zM501 546q-24 41 -82 41q-36 0 -63.5 -20t-48 -51.5t-33.5 -71.5t-21.5 -80.5t-12 -76.5t-3.5 -61q0 -26 3 -54.5t12 -54.5zM199 25q-65 37 -103 100.5
t-37 148.5q0 74 25.5 138.5t76.5 115.5q50 50 113.5 79.5t140.5 29.5q67 0 125 -23l43 74h47l-54 -92q65 -36 103 -99.5t37 -148.5q0 -80 -32.5 -148t-86.5 -122q-46 -46 -106.5 -69.5t-130.5 -23.5q-67 0 -125 23l-48 -82h-46z" />
    <glyph glyph-name="Ugrave" unicode="&#xd9;" horiz-adv-x="702" 
d="M739 581l-48 -13q-10 -3 -18.5 -14t-16 -33.5t-14.5 -59t-15 -90.5l-23 -159q-9 -61 -32.5 -105.5t-59 -74t-80.5 -44t-97 -14.5q-55 0 -101 13.5t-79 40.5t-51.5 67.5t-18.5 93.5q0 15 0.5 26t2.5 25l41 306q2 9 -1.5 14.5t-18.5 9.5l-40 11l-3 44h305l-3 -44l-44 -11
q-23 -8 -26 -24l-45 -322q-2 -14 -3 -27.5t-1 -36.5q0 -21 8.5 -41t24.5 -35.5t39.5 -25.5t53.5 -10q70 0 111.5 42.5t55.5 144.5l20 136q8 55 11 92t2 60t-5.5 33.5t-13.5 11.5l-57 13l-3 44h246zM420 687l-159 177h154l73 -177h-68z" />
    <glyph glyph-name="Uacute" unicode="&#xda;" horiz-adv-x="702" 
d="M739 581l-48 -13q-10 -3 -18.5 -14t-16 -33.5t-14.5 -59t-15 -90.5l-23 -159q-9 -61 -32.5 -105.5t-59 -74t-80.5 -44t-97 -14.5q-55 0 -101 13.5t-79 40.5t-51.5 67.5t-18.5 93.5q0 15 0.5 26t2.5 25l41 306q2 9 -1.5 14.5t-18.5 9.5l-40 11l-3 44h305l-3 -44l-44 -11
q-23 -8 -26 -24l-45 -322q-2 -14 -3 -27.5t-1 -36.5q0 -21 8.5 -41t24.5 -35.5t39.5 -25.5t53.5 -10q70 0 111.5 42.5t55.5 144.5l20 136q8 55 11 92t2 60t-5.5 33.5t-13.5 11.5l-57 13l-3 44h246zM446 687h-66l121 177h154z" />
    <glyph glyph-name="Ucircumflex" unicode="&#xdb;" horiz-adv-x="702" 
d="M739 581l-48 -13q-10 -3 -18.5 -14t-16 -33.5t-14.5 -59t-15 -90.5l-23 -159q-9 -61 -32.5 -105.5t-59 -74t-80.5 -44t-97 -14.5q-55 0 -101 13.5t-79 40.5t-51.5 67.5t-18.5 93.5q0 15 0.5 26t2.5 25l41 306q2 9 -1.5 14.5t-18.5 9.5l-40 11l-3 44h305l-3 -44l-44 -11
q-23 -8 -26 -24l-45 -322q-2 -14 -3 -27.5t-1 -36.5q0 -21 8.5 -41t24.5 -35.5t39.5 -25.5t53.5 -10q70 0 111.5 42.5t55.5 144.5l20 136q8 55 11 92t2 60t-5.5 33.5t-13.5 11.5l-57 13l-3 44h246zM533 687l-86 112h-2l-116 -112h-68l121 177h144l75 -177h-68z" />
    <glyph glyph-name="Udieresis" unicode="&#xdc;" horiz-adv-x="702" 
d="M739 581l-48 -13q-10 -3 -18.5 -14t-16 -33.5t-14.5 -59t-15 -90.5l-23 -159q-9 -61 -32.5 -105.5t-59 -74t-80.5 -44t-97 -14.5q-55 0 -101 13.5t-79 40.5t-51.5 67.5t-18.5 93.5q0 15 0.5 26t2.5 25l41 306q2 9 -1.5 14.5t-18.5 9.5l-40 11l-3 44h305l-3 -44l-44 -11
q-23 -8 -26 -24l-45 -322q-2 -14 -3 -27.5t-1 -36.5q0 -21 8.5 -41t24.5 -35.5t39.5 -25.5t53.5 -10q70 0 111.5 42.5t55.5 144.5l20 136q8 55 11 92t2 60t-5.5 33.5t-13.5 11.5l-57 13l-3 44h246zM604 772q0 -31 -18.5 -53t-52.5 -22t-52.5 22t-18.5 53t18.5 54t52.5 23
t52.5 -23t18.5 -54zM376 772q0 -31 -18.5 -53t-52.5 -22t-53.5 22t-19.5 53t19.5 54t53.5 23t52.5 -23t18.5 -54z" />
    <glyph glyph-name="Yacute" unicode="&#xdd;" horiz-adv-x="601" 
d="M665 579l-21 -7q-12 -3 -23 -8.5t-25.5 -20t-35 -41t-52.5 -71.5l-123 -173l-23 -179q-3 -19 20 -24l49 -11l-4 -44h-322l9 44l53 11q23 4 26 24l22 167l-124 284q-9 19 -18 27.5t-23 13.5l-22 8l-3 46h315l-3 -46l-38 -6q-29 -5 -27.5 -32t21.5 -85l54 -154h10l88 127
q26 38 39.5 64t15.5 43t-6 25.5t-25 11.5l-27 6l-3 46h229zM395 687h-66l121 177h154z" />
    <glyph glyph-name="Thorn" unicode="&#xde;" horiz-adv-x="613" 
d="M597 326q0 -46 -21.5 -84t-59.5 -65t-91.5 -42t-117.5 -15q-13 0 -27.5 1t-26.5 1l-7 -43q-2 -20 20 -24l52 -11l1 -44h-316l5 44l43 11q15 4 19.5 9.5t6.5 14.5l64 467q2 9 -1.5 14.5t-18.5 9.5l-41 11l-3 44h306l-3 -44l-45 -11q-23 -8 -26 -24l-5 -41h45
q55 0 100.5 -11.5t78.5 -34t51 -56t18 -77.5zM426 314q0 33 -10 59t-26.5 45t-38.5 29t-45 10h-8l-40 -288q7 -1 13 -1.5t12 -0.5q64 0 103.5 39t39.5 108z" />
    <glyph glyph-name="germandbls" unicode="&#xdf;" horiz-adv-x="980" 
d="M430 146q0 -37 -15.5 -66.5t-43.5 -50t-65 -31.5t-81 -11q-67 0 -112 6t-84 15l21 157h81l28 -123q16 -5 25.5 -6.5t31.5 -1.5q38 0 60.5 19.5t22.5 48.5q0 14 -5.5 24.5t-17.5 20t-30.5 19t-44.5 22.5q-23 11 -47 24t-43.5 30t-31.5 40t-12 55q0 33 16.5 60t45 46
t66.5 29.5t82 10.5q21 0 37.5 -1t33.5 -3.5t35 -5.5t42 -8l46 11l-22 -158h-75l-32 111q-14 4 -31.5 7t-41.5 3q-34 0 -52.5 -16.5t-18.5 -38.5q0 -16 7 -28.5t21 -23t34 -21t45 -23.5q21 -11 43.5 -23.5t40.5 -29.5t29.5 -38.5t11.5 -50.5zM920 146q0 -37 -15.5 -66.5
t-43.5 -50t-65 -31.5t-81 -11q-67 0 -112 6t-84 15l21 157h81l28 -123q16 -5 25.5 -6.5t31.5 -1.5q38 0 60.5 19.5t22.5 48.5q0 14 -5.5 24.5t-17.5 20t-30.5 19t-44.5 22.5q-23 11 -47 24t-43.5 30t-31.5 40t-12 55q0 33 16.5 60t45 46t66.5 29.5t82 10.5q21 0 37.5 -1
t33.5 -3.5t35 -5.5t42 -8l46 11l-22 -158h-75l-32 111q-14 4 -31.5 7t-41.5 3q-34 0 -52.5 -16.5t-18.5 -38.5q0 -16 7 -28.5t21 -23t34 -21t45 -23.5q21 -11 43.5 -23.5t40.5 -29.5t29.5 -38.5t11.5 -50.5z" />
    <glyph glyph-name="agrave" unicode="&#xe0;" horiz-adv-x="556" 
d="M265 369h-15l-90 -186h144zM134 126q-8 -21 -12.5 -35t-3 -22.5t8.5 -13.5t22 -8l17 -4l-3 -43h-200l8 43l15 4q12 3 23 7.5t24 18t29.5 39.5t40.5 72l129 247l3 28l148 25l91 -397q4 -17 15.5 -26t32.5 -15l11 -3l-3 -43h-266l8 43l15 3q14 3 22.5 6.5t12.5 11t3 21
t-7 35.5l-5 19h-174zM297 520l-159 177h154l73 -177h-68z" />
    <glyph glyph-name="aacute" unicode="&#xe1;" horiz-adv-x="556" 
d="M265 369h-15l-90 -186h144zM134 126q-8 -21 -12.5 -35t-3 -22.5t8.5 -13.5t22 -8l17 -4l-3 -43h-200l8 43l15 4q12 3 23 7.5t24 18t29.5 39.5t40.5 72l129 247l3 28l148 25l91 -397q4 -17 15.5 -26t32.5 -15l11 -3l-3 -43h-266l8 43l15 3q14 3 22.5 6.5t12.5 11t3 21
t-7 35.5l-5 19h-174zM323 520h-66l121 177h154z" />
    <glyph glyph-name="acircumflex" unicode="&#xe2;" horiz-adv-x="556" 
d="M265 369h-15l-90 -186h144zM134 126q-8 -21 -12.5 -35t-3 -22.5t8.5 -13.5t22 -8l17 -4l-3 -43h-200l8 43l15 4q12 3 23 7.5t24 18t29.5 39.5t40.5 72l129 247l3 28l148 25l91 -397q4 -17 15.5 -26t32.5 -15l11 -3l-3 -43h-266l8 43l15 3q14 3 22.5 6.5t12.5 11t3 21
t-7 35.5l-5 19h-174zM407 520l-86 112h-2l-116 -112h-68l121 177h144l75 -177h-68z" />
    <glyph glyph-name="atilde" unicode="&#xe3;" horiz-adv-x="556" 
d="M265 369h-15l-90 -186h144zM134 126q-8 -21 -12.5 -35t-3 -22.5t8.5 -13.5t22 -8l17 -4l-3 -43h-200l8 43l15 4q12 3 23 7.5t24 18t29.5 39.5t40.5 72l129 247l3 28l148 25l91 -397q4 -17 15.5 -26t32.5 -15l11 -3l-3 -43h-266l8 43l15 3q14 3 22.5 6.5t12.5 11t3 21
t-7 35.5l-5 19h-174zM506 673q-8 -42 -20 -70.5t-28 -45.5t-35.5 -24t-42.5 -7q-21 0 -41.5 11t-40 23.5t-36.5 23.5t-31 11q-19 0 -27 -16t-20 -43h-60q16 83 48 115t78 32q21 0 41 -10.5t38.5 -23t35 -23t30.5 -10.5q17 0 29 15t26 42h56z" />
    <glyph glyph-name="adieresis" unicode="&#xe4;" horiz-adv-x="556" 
d="M265 369h-15l-90 -186h144zM134 126q-8 -21 -12.5 -35t-3 -22.5t8.5 -13.5t22 -8l17 -4l-3 -43h-200l8 43l15 4q12 3 23 7.5t24 18t29.5 39.5t40.5 72l129 247l3 28l148 25l91 -397q4 -17 15.5 -26t32.5 -15l11 -3l-3 -43h-266l8 43l15 3q14 3 22.5 6.5t12.5 11t3 21
t-7 35.5l-5 19h-174zM511 605q0 -31 -18.5 -53t-52.5 -22t-52.5 22t-18.5 53t18.5 54t52.5 23t52.5 -23t18.5 -54zM283 605q0 -31 -18.5 -53t-52.5 -22t-53.5 22t-19.5 53t19.5 54t53.5 23t52.5 -23t18.5 -54z" />
    <glyph glyph-name="aring" unicode="&#xe5;" horiz-adv-x="556" 
d="M265 369h-15l-90 -186h144zM396 543q0 28 -18.5 50.5t-50.5 22.5t-50.5 -22.5t-18.5 -50.5t18.5 -49.5t50.5 -21.5t50.5 21.5t18.5 49.5zM474 87q4 -17 15.5 -26t32.5 -15l11 -3l-3 -43h-266l8 43l15 3q14 3 22.5 6.5t12.5 11t3 21t-7 35.5l-5 19h-174l-5 -13
q-8 -21 -12.5 -35t-3 -22.5t8.5 -13.5t22 -8l17 -4l-3 -43h-200l8 43l15 4q12 3 23 7.5t24 18t29.5 39.5t40.5 72l146 280q-31 33 -31 79q1 22 8.5 42t21.5 35t34 24t45 9t45 -9t33.5 -24t21 -35t7.5 -42q0 -28 -11.5 -52t-32.5 -39z" />
    <glyph glyph-name="ae" unicode="&#xe6;" horiz-adv-x="823" 
d="M732 0h-477l9 43l31 9q17 4 19 18l9 69h-164l-3 -4q-20 -26 -28.5 -45t-8.5 -27q0 -13 18 -16l30 -4l3 -43h-207l6 43l18 4q15 4 27.5 8.5t27.5 17.5t35.5 39t50.5 72l134 190q14 21 10 32.5t-27 16.5l-30 7l-3 43h590l-22 -170h-78l-7 52q-3 24 -12.5 38.5t-25.5 23
t-40.5 11t-57.5 2.5h-49l-23 -173h16q14 0 34 6t30 25l27 53h56l-47 -203h-54l-4 47q-2 18 -12 25.5t-38 7.5h-13l-23 -175h53q61 0 98 14.5t56 61.5l20 51h83zM361 423h-10l-163 -240h141z" />
    <glyph glyph-name="ccedilla" unicode="&#xe7;" horiz-adv-x="595" 
d="M225 -11q-99 11 -146 68.5t-47 144.5q0 54 21.5 105.5t62.5 92.5q38 38 90 61t116 23q20 0 42.5 -2t43 -5.5t37.5 -7.5t26 -7l83 22l-25 -182h-86l-32 118q-6 5 -15.5 9t-20 6.5t-19 4t-13.5 1.5q-36 0 -63.5 -19.5t-46.5 -53t-29 -78.5t-10 -96t14.5 -84t33.5 -52
q16 -16 33.5 -22t33.5 -6q13 0 25 3t19 7l67 125h94l-35 -165l-59 11q-24 -9 -61.5 -16t-82.5 -8l-45 -38q61 -5 96.5 -27.5t35.5 -63.5q0 -30 -19 -54.5t-52.5 -42.5t-79.5 -28.5t-100 -12.5l-7 30q81 9 125 30t44 48q0 49 -77 49q-22 0 -39.5 -1.5t-36.5 -6.5l2 28z" />
    <glyph glyph-name="egrave" unicode="&#xe8;" horiz-adv-x="572" 
d="M481 0h-477l9 43l31 9q17 4 19 18l44 333q1 7 -2 11t-13 7l-28 9l-4 43h491l-22 -170h-78l-7 52q-3 24 -12.5 38.5t-25.5 23t-40.5 11t-57.5 2.5h-49l-23 -173h16q14 0 34 6t30 25l27 53h56l-47 -203h-54l-4 47q-2 18 -12 25.5t-38 7.5h-13l-23 -175h53q61 0 98 14.5
t56 61.5l20 51h83zM325 520l-159 177h154l73 -177h-68z" />
    <glyph glyph-name="eacute" unicode="&#xe9;" horiz-adv-x="572" 
d="M481 0h-477l9 43l31 9q17 4 19 18l44 333q1 7 -2 11t-13 7l-28 9l-4 43h491l-22 -170h-78l-7 52q-3 24 -12.5 38.5t-25.5 23t-40.5 11t-57.5 2.5h-49l-23 -173h16q14 0 34 6t30 25l27 53h56l-47 -203h-54l-4 47q-2 18 -12 25.5t-38 7.5h-13l-23 -175h53q61 0 98 14.5
t56 61.5l20 51h83zM341 520h-66l121 177h154z" />
    <glyph glyph-name="ecircumflex" unicode="&#xea;" horiz-adv-x="572" 
d="M481 0h-477l9 43l31 9q17 4 19 18l44 333q1 7 -2 11t-13 7l-28 9l-4 43h491l-22 -170h-78l-7 52q-3 24 -12.5 38.5t-25.5 23t-40.5 11t-57.5 2.5h-49l-23 -173h16q14 0 34 6t30 25l27 53h56l-47 -203h-54l-4 47q-2 18 -12 25.5t-38 7.5h-13l-23 -175h53q61 0 98 14.5
t56 61.5l20 51h83zM415 520l-86 112h-2l-116 -112h-68l121 177h144l75 -177h-68z" />
    <glyph glyph-name="edieresis" unicode="&#xeb;" horiz-adv-x="572" 
d="M481 0h-477l9 43l31 9q17 4 19 18l44 333q1 7 -2 11t-13 7l-28 9l-4 43h491l-22 -170h-78l-7 52q-3 24 -12.5 38.5t-25.5 23t-40.5 11t-57.5 2.5h-49l-23 -173h16q14 0 34 6t30 25l27 53h56l-47 -203h-54l-4 47q-2 18 -12 25.5t-38 7.5h-13l-23 -175h53q61 0 98 14.5
t56 61.5l20 51h83zM519 605q0 -31 -18.5 -53t-52.5 -22t-52.5 22t-18.5 53t18.5 54t52.5 23t52.5 -23t18.5 -54zM291 605q0 -31 -18.5 -53t-52.5 -22t-53.5 22t-19.5 53t19.5 54t53.5 23t52.5 -23t18.5 -54z" />
    <glyph glyph-name="igrave" unicode="&#xec;" horiz-adv-x="333" 
d="M7 0l6 43l38 9q17 4 19 18l44 333q2 14 -15 18l-35 9l-4 43h266l-4 -43l-40 -9q-17 -4 -19 -18l-44 -333q-2 -14 15 -18l37 -9l2 -43h-266zM175 520l-159 177h154l73 -177h-68z" />
    <glyph glyph-name="iacute" unicode="&#xed;" horiz-adv-x="333" 
d="M7 0l6 43l38 9q17 4 19 18l44 333q2 14 -15 18l-35 9l-4 43h266l-4 -43l-40 -9q-17 -4 -19 -18l-44 -333q-2 -14 15 -18l37 -9l2 -43h-266zM221 520h-66l121 177h154z" />
    <glyph glyph-name="icircumflex" unicode="&#xee;" horiz-adv-x="333" 
d="M7 0l6 43l38 9q17 4 19 18l44 333q2 14 -15 18l-35 9l-4 43h266l-4 -43l-40 -9q-17 -4 -19 -18l-44 -333q-2 -14 15 -18l37 -9l2 -43h-266zM295 520l-86 112h-2l-116 -112h-68l121 177h144l75 -177h-68z" />
    <glyph glyph-name="idieresis" unicode="&#xef;" horiz-adv-x="333" 
d="M7 0l6 43l38 9q17 4 19 18l44 333q2 14 -15 18l-35 9l-4 43h266l-4 -43l-40 -9q-17 -4 -19 -18l-44 -333q-2 -14 15 -18l37 -9l2 -43h-266zM394 605q0 -31 -18.5 -53t-52.5 -22t-52.5 22t-18.5 53t18.5 54t52.5 23t52.5 -23t18.5 -54zM166 605q0 -31 -18.5 -53t-52.5 -22
t-53.5 22t-19.5 53t19.5 54t53.5 23t52.5 -23t18.5 -54z" />
    <glyph glyph-name="eth" unicode="&#xf0;" horiz-adv-x="607" 
d="M333 265l3 -51h-97l-20 -159l52 -13q29 2 55 16.5t46.5 41.5t32.5 66.5t12 91.5q0 39 -9.5 70.5t-25.5 54t-37.5 34.5t-46.5 12h-30l-22 -164h87zM32 214l3 51h64l18 138q1 7 -2 11t-13 7l-28 9l-4 43l258 1q59 0 105.5 -16t79 -45.5t50 -70.5t17.5 -90q0 -45 -20 -89.5
t-58 -81.5q-39 -36 -100.5 -58.5t-138.5 -22.5h-249l9 43l31 9q17 4 19 18l19 144h-60z" />
    <glyph glyph-name="ntilde" unicode="&#xf1;" horiz-adv-x="613" 
d="M612 430l-32 -9q-7 -2 -13 -8.5t-11.5 -22t-10 -42t-10.5 -67.5l-38 -286h-146l-187 331h-15l-15 -134q-5 -40 -7 -66t-1 -42t5.5 -23t11.5 -9l39 -9l3 -43h-185l3 43l31 9q8 2 14 9t11 22t10 41.5t10 67.5l28 211q1 7 -2 11t-13 7l-28 9l-4 43h204l186 -330h15l15 138
q5 40 7 66t1 42t-5 23t-12 9l-38 9l-3 43h185zM534 673q-8 -42 -20 -70.5t-28 -45.5t-35.5 -24t-42.5 -7q-21 0 -41.5 11t-40 23.5t-36.5 23.5t-31 11q-19 0 -27 -16t-20 -43h-60q16 83 48 115t78 32q21 0 41 -10.5t38.5 -23t35 -23t30.5 -10.5q17 0 29 15t26 42h56z" />
    <glyph glyph-name="ograve" unicode="&#xf2;" horiz-adv-x="589" 
d="M555 263q0 -60 -26 -111.5t-69 -93.5q-35 -35 -84.5 -54.5t-103.5 -19.5q-49 0 -92.5 16.5t-76 46t-51 70.5t-18.5 90q0 57 19.5 106.5t57.5 87.5q40 38 92.5 62.5t112.5 24.5q50 0 93.5 -16.5t75.5 -46.5t51 -71.5t19 -90.5zM397 298q0 15 -1 31.5t-4.5 33t-10 30.5
t-16.5 24q-5 9 -18.5 14.5t-30.5 5.5q-25 0 -44.5 -14.5t-33.5 -38.5t-23 -53.5t-14.5 -59t-7.5 -56.5t-2 -45q0 -30 5.5 -64t23.5 -53q6 -10 20 -15.5t32 -5.5q25 0 44 14.5t32.5 38.5t23 53t15 59t8 56.5t2.5 44.5zM303 520l-159 177h154l73 -177h-68z" />
    <glyph glyph-name="oacute" unicode="&#xf3;" horiz-adv-x="589" 
d="M555 263q0 -60 -26 -111.5t-69 -93.5q-35 -35 -84.5 -54.5t-103.5 -19.5q-49 0 -92.5 16.5t-76 46t-51 70.5t-18.5 90q0 57 19.5 106.5t57.5 87.5q40 38 92.5 62.5t112.5 24.5q50 0 93.5 -16.5t75.5 -46.5t51 -71.5t19 -90.5zM397 298q0 15 -1 31.5t-4.5 33t-10 30.5
t-16.5 24q-5 9 -18.5 14.5t-30.5 5.5q-25 0 -44.5 -14.5t-33.5 -38.5t-23 -53.5t-14.5 -59t-7.5 -56.5t-2 -45q0 -30 5.5 -64t23.5 -53q6 -10 20 -15.5t32 -5.5q25 0 44 14.5t32.5 38.5t23 53t15 59t8 56.5t2.5 44.5zM339 520h-66l121 177h154z" />
    <glyph glyph-name="ocircumflex" unicode="&#xf4;" horiz-adv-x="589" 
d="M555 263q0 -60 -26 -111.5t-69 -93.5q-35 -35 -84.5 -54.5t-103.5 -19.5q-49 0 -92.5 16.5t-76 46t-51 70.5t-18.5 90q0 57 19.5 106.5t57.5 87.5q40 38 92.5 62.5t112.5 24.5q50 0 93.5 -16.5t75.5 -46.5t51 -71.5t19 -90.5zM397 298q0 15 -1 31.5t-4.5 33t-10 30.5
t-16.5 24q-5 9 -18.5 14.5t-30.5 5.5q-25 0 -44.5 -14.5t-33.5 -38.5t-23 -53.5t-14.5 -59t-7.5 -56.5t-2 -45q0 -30 5.5 -64t23.5 -53q6 -10 20 -15.5t32 -5.5q25 0 44 14.5t32.5 38.5t23 53t15 59t8 56.5t2.5 44.5zM423 520l-86 112h-2l-116 -112h-68l121 177h144l75 -177
h-68z" />
    <glyph glyph-name="otilde" unicode="&#xf5;" horiz-adv-x="589" 
d="M555 263q0 -60 -26 -111.5t-69 -93.5q-35 -35 -84.5 -54.5t-103.5 -19.5q-49 0 -92.5 16.5t-76 46t-51 70.5t-18.5 90q0 57 19.5 106.5t57.5 87.5q40 38 92.5 62.5t112.5 24.5q50 0 93.5 -16.5t75.5 -46.5t51 -71.5t19 -90.5zM397 298q0 15 -1 31.5t-4.5 33t-10 30.5
t-16.5 24q-5 9 -18.5 14.5t-30.5 5.5q-25 0 -44.5 -14.5t-33.5 -38.5t-23 -53.5t-14.5 -59t-7.5 -56.5t-2 -45q0 -30 5.5 -64t23.5 -53q6 -10 20 -15.5t32 -5.5q25 0 44 14.5t32.5 38.5t23 53t15 59t8 56.5t2.5 44.5zM522 673q-8 -42 -20 -70.5t-28 -45.5t-35.5 -24
t-42.5 -7q-21 0 -41.5 11t-40 23.5t-36.5 23.5t-31 11q-19 0 -27 -16t-20 -43h-60q16 83 48 115t78 32q21 0 41 -10.5t38.5 -23t35 -23t30.5 -10.5q17 0 29 15t26 42h56z" />
    <glyph glyph-name="odieresis" unicode="&#xf6;" horiz-adv-x="589" 
d="M555 263q0 -60 -26 -111.5t-69 -93.5q-35 -35 -84.5 -54.5t-103.5 -19.5q-49 0 -92.5 16.5t-76 46t-51 70.5t-18.5 90q0 57 19.5 106.5t57.5 87.5q40 38 92.5 62.5t112.5 24.5q50 0 93.5 -16.5t75.5 -46.5t51 -71.5t19 -90.5zM397 298q0 15 -1 31.5t-4.5 33t-10 30.5
t-16.5 24q-5 9 -18.5 14.5t-30.5 5.5q-25 0 -44.5 -14.5t-33.5 -38.5t-23 -53.5t-14.5 -59t-7.5 -56.5t-2 -45q0 -30 5.5 -64t23.5 -53q6 -10 20 -15.5t32 -5.5q25 0 44 14.5t32.5 38.5t23 53t15 59t8 56.5t2.5 44.5zM527 605q0 -31 -18.5 -53t-52.5 -22t-52.5 22t-18.5 53
t18.5 54t52.5 23t52.5 -23t18.5 -54zM299 605q0 -31 -18.5 -53t-52.5 -22t-53.5 22t-19.5 53t19.5 54t53.5 23t52.5 -23t18.5 -54z" />
    <glyph glyph-name="divide" unicode="&#xf7;" horiz-adv-x="486" 
d="M41 283l3 54h399l3 -54h-405zM296 169q0 -20 -14 -36t-37 -16t-37.5 16t-14.5 36t14.5 35.5t37.5 15.5t37 -15.5t14 -35.5zM296 449q0 -20 -14.5 -36t-37.5 -16t-37 16t-14 36t14 36t37 16t37.5 -16t14.5 -36z" />
    <glyph glyph-name="oslash" unicode="&#xf8;" horiz-adv-x="581" 
d="M206 74q5 -10 14 -21q6 -10 20 -15.5t32 -5.5q25 0 44 14.5t32.5 38.5t23 53t15 59t8 56.5t2.5 44.5q0 10 -0.5 20t-1.5 21zM382 392q-4 7 -8 13.5t-9 11.5q-5 9 -18.5 14.5t-30.5 5.5q-25 0 -44.5 -14.5t-33.5 -38.5t-23 -53.5t-14.5 -59t-7.5 -56.5t-2 -45
q0 -10 0.5 -20.5t1.5 -21.5zM123 30q-41 30 -65 75t-24 102t19.5 106.5t57.5 87.5q40 38 92.5 62.5t112.5 24.5q64 0 115 -27q1 0 7.5 9.5t14.5 20.5q10 13 21 30h50q-17 -22 -29 -40q-11 -15 -19.5 -28t-9.5 -13q41 -30 65 -75.5t24 -101.5q0 -60 -26 -111.5t-69 -93.5
q-35 -35 -84.5 -54.5t-103.5 -19.5q-60 0 -112 25l-46 -65h-52z" />
    <glyph glyph-name="ugrave" unicode="&#xf9;" horiz-adv-x="594" 
d="M596 430l-32 -9q-7 -2 -13 -6t-11 -18t-10 -41.5t-12 -76.5l-16 -115q-12 -87 -64 -135t-151 -48q-49 0 -89 10t-68.5 30.5t-44 50.5t-15.5 69v17q0 8 2 17l31 228q2 14 -15 18l-28 9l-3 43h249l-3 -43l-33 -9q-17 -4 -19 -18l-28 -215q-2 -11 -3.5 -22.5t-1.5 -28.5
q0 -51 29.5 -74t80.5 -23q46 0 80 31t44 105l14 105q5 40 7 66t1 42t-5 23t-12 9l-38 9l-3 43h183zM336 520l-159 177h154l73 -177h-68z" />
    <glyph glyph-name="uacute" unicode="&#xfa;" horiz-adv-x="594" 
d="M596 430l-32 -9q-7 -2 -13 -6t-11 -18t-10 -41.5t-12 -76.5l-16 -115q-12 -87 -64 -135t-151 -48q-49 0 -89 10t-68.5 30.5t-44 50.5t-15.5 69v17q0 8 2 17l31 228q2 14 -15 18l-28 9l-3 43h249l-3 -43l-33 -9q-17 -4 -19 -18l-28 -215q-2 -11 -3.5 -22.5t-1.5 -28.5
q0 -51 29.5 -74t80.5 -23q46 0 80 31t44 105l14 105q5 40 7 66t1 42t-5 23t-12 9l-38 9l-3 43h183zM372 520h-66l121 177h154z" />
    <glyph glyph-name="ucircumflex" unicode="&#xfb;" horiz-adv-x="594" 
d="M596 430l-32 -9q-7 -2 -13 -6t-11 -18t-10 -41.5t-12 -76.5l-16 -115q-12 -87 -64 -135t-151 -48q-49 0 -89 10t-68.5 30.5t-44 50.5t-15.5 69v17q0 8 2 17l31 228q2 14 -15 18l-28 9l-3 43h249l-3 -43l-33 -9q-17 -4 -19 -18l-28 -215q-2 -11 -3.5 -22.5t-1.5 -28.5
q0 -51 29.5 -74t80.5 -23q46 0 80 31t44 105l14 105q5 40 7 66t1 42t-5 23t-12 9l-38 9l-3 43h183zM436 520l-86 112h-2l-116 -112h-68l121 177h144l75 -177h-68z" />
    <glyph glyph-name="udieresis" unicode="&#xfc;" horiz-adv-x="594" 
d="M596 430l-32 -9q-7 -2 -13 -6t-11 -18t-10 -41.5t-12 -76.5l-16 -115q-12 -87 -64 -135t-151 -48q-49 0 -89 10t-68.5 30.5t-44 50.5t-15.5 69v17q0 8 2 17l31 228q2 14 -15 18l-28 9l-3 43h249l-3 -43l-33 -9q-17 -4 -19 -18l-28 -215q-2 -11 -3.5 -22.5t-1.5 -28.5
q0 -51 29.5 -74t80.5 -23q46 0 80 31t44 105l14 105q5 40 7 66t1 42t-5 23t-12 9l-38 9l-3 43h183zM540 605q0 -31 -18.5 -53t-52.5 -22t-52.5 22t-18.5 53t18.5 54t52.5 23t52.5 -23t18.5 -54zM312 605q0 -31 -18.5 -53t-52.5 -22t-53.5 22t-19.5 53t19.5 54t53.5 23
t52.5 -23t18.5 -54z" />
    <glyph glyph-name="yacute" unicode="&#xfd;" horiz-adv-x="541" 
d="M577 430l-16 -5q-14 -4 -27 -12t-28 -22t-34.5 -37t-45.5 -57l-80 -104l-16 -123q-2 -14 15 -18l37 -9l3 -43h-264l3 43l38 9q17 4 19 18l15 110l-126 230q-5 10 -30 17l-10 3l-3 43h263l-3 -43l-17 -3q-29 -5 -28.5 -25t16.5 -59l47 -114h15l68 90q35 47 37.5 72.5
t-21.5 31.5l-24 6l-3 44h203zM285 520h-66l121 177h154z" />
    <glyph glyph-name="thorn" unicode="&#xfe;" horiz-adv-x="541" 
d="M521 261q0 -46 -22 -78.5t-57 -52.5t-78.5 -29t-85.5 -9q-23 0 -41 1t-23 2l-3 -25q-2 -15 15 -18l45 -9l-4 -43h-262l9 43l31 9q17 4 19 18l43 333q1 7 -2 11t-13 7l-28 9l-3 43h258l-4 -43l-40 -9q-17 -4 -19 -18l-2 -12h67q103 0 151.5 -34t48.5 -96zM359 253
q0 42 -21.5 70.5t-73.5 28.5h-16l-28 -215q6 -2 20.5 -2.5t25.5 -0.5q20 0 37 9.5t29.5 26t19.5 38t7 45.5z" />
    <glyph glyph-name="ydieresis" unicode="&#xff;" horiz-adv-x="541" 
d="M577 430l-16 -5q-14 -4 -27 -12t-28 -22t-34.5 -37t-45.5 -57l-80 -104l-16 -123q-2 -14 15 -18l37 -9l3 -43h-264l3 43l38 9q17 4 19 18l15 110l-126 230q-5 10 -30 17l-10 3l-3 43h263l-3 -43l-17 -3q-29 -5 -28.5 -25t16.5 -59l47 -114h15l68 90q35 47 37.5 72.5
t-21.5 31.5l-24 6l-3 44h203zM513 605q0 -31 -18.5 -53t-52.5 -22t-52.5 22t-18.5 53t18.5 54t52.5 23t52.5 -23t18.5 -54zM285 605q0 -31 -18.5 -53t-52.5 -22t-53.5 22t-19.5 53t19.5 54t53.5 23t52.5 -23t18.5 -54z" />
    <glyph glyph-name="dotlessi" unicode="&#x131;" horiz-adv-x="333" 
d="M7 0l6 43l38 9q17 4 19 18l44 333q2 14 -15 18l-35 9l-4 43h266l-4 -43l-40 -9q-17 -4 -19 -18l-44 -333q-2 -14 15 -18l37 -9l2 -43h-266z" />
    <glyph glyph-name="Lslash" unicode="&#x141;" horiz-adv-x="599" 
d="M90 183q0 1 -8.5 -1.5t-19.5 -5.5l-28 -8v53l64 17l42 308q2 9 -1 14.5t-19 9.5l-40 11l-2 44h304l-4 -44l-43 -11q-23 -8 -26 -24l-18 -130q-3 -24 -6.5 -47.5t-6 -41.5t-3.5 -30l-2 -11l82 23v-53l-89 -24l-25 -182h31q37 0 63 5t46 17.5t35.5 33t31.5 51.5l28 55h90
l-49 -212h-515l5 44l43 11q15 4 19.5 9.5t6.5 14.5z" />
    <glyph glyph-name="lslash" unicode="&#x142;" horiz-adv-x="506" 
d="M208 43h8q35 0 60 4.5t43 15t30 26.5t22 40l21 51h78l-38 -180h-422l3 43l31 9q17 4 19 18l13 97q0 1 -6.5 -1t-14.5 -4q-10 -3 -21 -6v53q14 4 25 7q9 2 16.5 4.5t7.5 1.5l24 181q1 7 -2 11t-13 7l-28 9l-3 43h261l-3 -43l-45 -9q-17 -3 -19 -18l-18 -138l98 27v-53
l-105 -29z" />
    <glyph glyph-name="OE" unicode="&#x152;" horiz-adv-x="1031" 
d="M939 0h-558q-83 0 -145.5 20.5t-104.5 57.5t-63 89t-21 114q0 72 25.5 129.5t79.5 111.5q46 46 124 74.5t171 28.5h578l-29 -225h-89l-10 69q-5 37 -15 58t-30.5 31.5t-52.5 13.5t-82 3h-48l-33 -236h16q27 0 51 7.5t38 34.5l35 69h64l-60 -268h-63l-3 63q-1 25 -15.5 34
t-58.5 9h-12l-31 -238h62q48 0 80.5 3.5t55.5 14.5t40 32t34 57l28 55h90zM432 575q-41 -3 -78 -22.5t-64.5 -56t-43.5 -90t-16 -122.5q0 -112 43.5 -172t128.5 -60h26l70 508z" />
    <glyph glyph-name="oe" unicode="&#x153;" horiz-adv-x="858" 
d="M286 0q-59 0 -106 16t-79.5 45.5t-50 70t-16.5 89.5q1 45 20.5 89.5t57.5 81.5t100 59t139 22h486l-22 -170h-78l-7 52q-3 24 -12.5 38.5t-25.5 23t-40.5 11t-57.5 2.5h-49l-23 -173h16q14 0 34 6t30 25l27 53h56l-47 -203h-54l-4 47q-2 18 -12 25.5t-38 7.5h-13
l-23 -175h53q61 0 98 14.5t56 61.5l20 51h83l-37 -170h-481zM197 215q0 -39 9.5 -70.5t25.5 -54t37.5 -34.5t46.5 -12h30l49 374l-52 13q-28 -2 -54.5 -16.5t-47 -41.5t-32.5 -66t-12 -92z" />
    <glyph glyph-name="Scaron" unicode="&#x160;" horiz-adv-x="567" 
d="M516 194q0 -50 -19.5 -89t-53.5 -65.5t-81 -40.5t-103 -14q-70 0 -127.5 11t-105.5 25l23 206l87 -3l33 -163q22 -7 45.5 -11.5t54.5 -4.5q48 0 73.5 24.5t25.5 62.5q0 21 -10 36.5t-27 28t-39 23.5l-46 23q-40 20 -72 38.5t-54 41t-33.5 52t-11.5 70.5q0 40 18.5 75
t52 61t80 41t101.5 15q48 0 88 -8.5t89 -20.5l58 21l-28 -217l-82 3l-30 145q-46 16 -102 16q-45 0 -70 -22.5t-25 -47.5q0 -24 11 -41.5t29.5 -32t43 -26.5t50.5 -25q36 -18 65 -35.5t49.5 -39t31.5 -48.5t11 -64zM421 687h-144l-73 177h66l86 -112h2l116 112h68z" />
    <glyph glyph-name="scaron" unicode="&#x161;" horiz-adv-x="490" 
d="M430 146q0 -37 -15.5 -66.5t-43.5 -50t-65 -31.5t-81 -11q-67 0 -112 6t-84 15l21 157h81l28 -123q16 -5 25.5 -6.5t31.5 -1.5q38 0 60.5 19.5t22.5 48.5q0 14 -5.5 24.5t-17.5 20t-30.5 19t-44.5 22.5q-23 11 -47 24t-43.5 30t-31.5 40t-12 55q0 33 16.5 60t45 46
t66.5 29.5t82 10.5q21 0 37.5 -1t33.5 -3.5t35 -5.5t42 -8l46 11l-22 -158h-75l-32 111q-14 4 -31.5 7t-41.5 3q-34 0 -52.5 -16.5t-18.5 -38.5q0 -16 7 -28.5t21 -23t34 -21t45 -23.5q21 -11 43.5 -23.5t40.5 -29.5t29.5 -38.5t11.5 -50.5zM343 520h-144l-73 177h66
l86 -112h2l116 112h68z" />
    <glyph glyph-name="Ydieresis" unicode="&#x178;" horiz-adv-x="601" 
d="M665 579l-21 -7q-12 -3 -23 -8.5t-25.5 -20t-35 -41t-52.5 -71.5l-123 -173l-23 -179q-3 -19 20 -24l49 -11l-4 -44h-322l9 44l53 11q23 4 26 24l22 167l-124 284q-9 19 -18 27.5t-23 13.5l-22 8l-3 46h315l-3 -46l-38 -6q-29 -5 -27.5 -32t21.5 -85l54 -154h10l88 127
q26 38 39.5 64t15.5 43t-6 25.5t-25 11.5l-27 6l-3 46h229zM573 772q0 -31 -18.5 -53t-52.5 -22t-52.5 22t-18.5 53t18.5 54t52.5 23t52.5 -23t18.5 -54zM345 772q0 -31 -18.5 -53t-52.5 -22t-53.5 22t-19.5 53t19.5 54t53.5 23t52.5 -23t18.5 -54z" />
    <glyph glyph-name="Zcaron" unicode="&#x17d;" horiz-adv-x="641" 
d="M543 0h-538l8 54l429 508v10h-98q-30 0 -52 -3.5t-38.5 -14t-30 -30t-27.5 -52.5l-30 -71h-89l29 224h545l-7 -55l-437 -508l-1 -10l105 -2q41 0 66.5 7t42 20.5t28 33t24.5 44.5l29 56h91zM458 687h-144l-73 177h66l86 -112h2l116 112h68z" />
    <glyph glyph-name="zcaron" unicode="&#x17e;" horiz-adv-x="543" 
d="M448 0h-437l5 41l333 384l1 5h-94q-14 0 -27.5 -2.5t-25.5 -11t-23 -23.5t-21 -40l-22 -54h-72l13 174h450l-6 -45l-340 -380v-5h47q61 0 98 14.5t56 61.5l20 51h83zM369 520h-144l-73 177h66l86 -112h2l116 112h68z" />
    <glyph glyph-name="florin" unicode="&#x192;" 
d="M548 542q0 -32 -19.5 -56.5t-51.5 -24.5q-37 0 -58.5 25t-23.5 73l-31 -6q-4 -12 -8.5 -33.5t-9 -45.5t-9 -47.5t-8.5 -38.5h129l4 -66h-142q-17 -99 -43 -167t-73 -115q-29 -29 -67.5 -42.5t-73.5 -13.5q-23 0 -43.5 7t-35.5 19.5t-24 29.5t-9 36q0 34 18.5 53t44.5 19
q34 0 56 -23t25 -61l50 9q8 24 16 57.5t13 79.5l11 102l-82 10l3 39l90 39q17 65 39 103.5t43 61.5q17 19 38 33t43 23.5t42.5 14.5t36.5 5q46 0 78 -25.5t32 -73.5z" />
    <glyph glyph-name="circumflex" unicode="&#x2c6;" horiz-adv-x="400" 
d="M329 520l-86 112h-2l-116 -112h-68l121 177h144l75 -177h-68z" />
    <glyph glyph-name="caron" unicode="&#x2c7;" horiz-adv-x="400" 
d="M298 520h-144l-73 177h66l86 -112h2l116 112h68z" />
    <glyph glyph-name="breve" unicode="&#x2d8;" horiz-adv-x="400" 
d="M415 697q-20 -93 -71 -137.5t-118 -44.5t-102 44t-37 138h66q8 -50 25.5 -76t55.5 -26t66.5 28.5t50.5 73.5h64z" />
    <glyph glyph-name="dotaccent" unicode="&#x2d9;" horiz-adv-x="400" 
d="M323 615q0 -32 -20 -55.5t-57 -23.5q-35 0 -54 23.5t-19 55.5t19 56.5t54 24.5q37 0 57 -24.5t20 -56.5z" />
    <glyph glyph-name="ring" unicode="&#x2da;" horiz-adv-x="400" 
d="M355 619q0 -22 -7.5 -42t-21 -35t-33.5 -24t-45 -9t-45 9t-34.5 24t-22 35t-7.5 42q1 22 8.5 42t21.5 35t34 24t45 9t45 -9t33.5 -24t21 -35t7.5 -42zM317 619q0 28 -18.5 50.5t-50.5 22.5t-50.5 -22.5t-18.5 -50.5t18.5 -49.5t50.5 -21.5t50.5 21.5t18.5 49.5z" />
    <glyph glyph-name="ogonek" unicode="&#x2db;" horiz-adv-x="400" 
d="M264 -177q-26 -23 -59 -42.5t-77 -19.5q-49 0 -82.5 27.5t-33.5 77.5q0 25 13 49t36 45t54 37.5t66 28.5h62q-37 -16 -64 -35.5t-44.5 -39t-26 -37.5t-8.5 -31q0 -52 65 -52q22 0 46 6t44 14z" />
    <glyph glyph-name="tilde" unicode="&#x2dc;" horiz-adv-x="400" 
d="M428 673q-8 -42 -20 -70.5t-28 -45.5t-35.5 -24t-42.5 -7q-21 0 -41.5 11t-40 23.5t-36.5 23.5t-31 11q-19 0 -27 -16t-20 -43h-60q16 83 48 115t78 32q21 0 41 -10.5t38.5 -23t35 -23t30.5 -10.5q17 0 29 15t26 42h56z" />
    <glyph glyph-name="hungarumlaut" unicode="&#x2dd;" horiz-adv-x="400" 
d="M342 520h-60l122 177h148zM142 520h-60l122 177h148z" />
    <glyph glyph-name="endash" unicode="&#x2013;" 
d="M0 221v67h500v-67h-500z" />
    <glyph glyph-name="emdash" unicode="&#x2014;" horiz-adv-x="1000" 
d="M0 221v67h1000v-67h-1000z" />
    <glyph glyph-name="quoteleft" unicode="&#x2018;" horiz-adv-x="252" 
d="M232 397q0 -13 -6.5 -26t-18 -23.5t-26.5 -17t-33 -6.5q-24 0 -43 9t-31.5 24t-19 34t-6.5 39q0 31 15 61.5t42 60t65.5 56t84.5 49.5l25 -29q-52 -31 -84.5 -68t-32.5 -72q0 -22 11 -38.5t23.5 -28t23.5 -17.5t11 -7z" />
    <glyph glyph-name="quoteright" unicode="&#x2019;" horiz-adv-x="252" 
d="M275 553q0 -31 -15 -61.5t-42 -60t-65 -56t-85 -49.5l-25 29q52 31 84.5 68t32.5 72q0 22 -11 38.5t-23.5 28t-23.5 17.5t-11 7q0 13 6.5 26t18 23.5t26.5 17t33 6.5q24 0 43 -9t31.5 -24t19 -34t6.5 -39z" />
    <glyph glyph-name="quotesinglbase" unicode="&#x201a;" horiz-adv-x="252" 
d="M187 53q0 -31 -15 -61.5t-42 -60t-65 -56t-85 -49.5l-25 29q52 31 84.5 68t32.5 72q0 22 -11 38.5t-23.5 28t-23.5 17.5t-11 7q0 13 6.5 26t18 23.5t26.5 17t33 6.5q24 0 43 -9t31.5 -24t19 -34t6.5 -39z" />
    <glyph glyph-name="quotedblleft" unicode="&#x201c;" horiz-adv-x="481" 
d="M461 397q0 -13 -6.5 -26t-18 -23.5t-26.5 -17t-33 -6.5q-24 0 -43 9t-31.5 24t-19 34t-6.5 39q0 31 15 61.5t42 60t65.5 56t84.5 49.5l25 -29q-52 -31 -84.5 -68t-32.5 -72q0 -22 11 -38.5t23.5 -28t23.5 -17.5t11 -7zM232 397q0 -13 -6.5 -26t-18 -23.5t-26.5 -17
t-33 -6.5q-24 0 -43 9t-31.5 24t-19 34t-6.5 39q0 31 15 61.5t42 60t65.5 56t84.5 49.5l25 -29q-52 -31 -84.5 -68t-32.5 -72q0 -22 11 -38.5t23.5 -28t23.5 -17.5t11 -7z" />
    <glyph glyph-name="quotedblright" unicode="&#x201d;" horiz-adv-x="481" 
d="M504 553q0 -31 -15 -61.5t-42 -60t-65 -56t-85 -49.5l-25 29q52 31 84.5 68t32.5 72q0 22 -11 38.5t-23.5 28t-23.5 17.5t-11 7q0 13 6.5 26t18 23.5t26.5 17t33 6.5q24 0 43 -9t31.5 -24t19 -34t6.5 -39zM275 553q0 -31 -15 -61.5t-42 -60t-65 -56t-85 -49.5l-25 29
q52 31 84.5 68t32.5 72q0 22 -11 38.5t-23.5 28t-23.5 17.5t-11 7q0 13 6.5 26t18 23.5t26.5 17t33 6.5q24 0 43 -9t31.5 -24t19 -34t6.5 -39z" />
    <glyph glyph-name="quotedblbase" unicode="&#x201e;" horiz-adv-x="481" 
d="M416 53q0 -31 -15 -61.5t-42 -60t-65 -56t-85 -49.5l-25 29q52 31 84.5 68t32.5 72q0 22 -11 38.5t-23.5 28t-23.5 17.5t-11 7q0 13 6.5 26t18 23.5t26.5 17t33 6.5q24 0 43 -9t31.5 -24t19 -34t6.5 -39zM187 53q0 -31 -15 -61.5t-42 -60t-65 -56t-85 -49.5l-25 29
q52 31 84.5 68t32.5 72q0 22 -11 38.5t-23.5 28t-23.5 17.5t-11 7q0 13 6.5 26t18 23.5t26.5 17t33 6.5q24 0 43 -9t31.5 -24t19 -34t6.5 -39z" />
    <glyph glyph-name="dagger" unicode="&#x2020;" horiz-adv-x="470" 
d="M466 385h-180v-539h-48v539h-179l-4 51h183v191h48v-191h184z" />
    <glyph glyph-name="daggerdbl" unicode="&#x2021;" horiz-adv-x="470" 
d="M288 19v-173h-48v173h-183l4 49h179v332h-179l-4 49h183v178h48v-178h184l-4 -49h-180v-332h180l4 -49h-184z" />
    <glyph glyph-name="bullet" unicode="&#x2022;" horiz-adv-x="455" 
d="M420 232q0 -11 -6 -30.5t-14.5 -40.5t-18 -39.5t-17.5 -26.5q-7 -7 -25.5 -17t-39.5 -18.5t-41 -14.5t-31 -6q-10 0 -30 6t-41 14.5t-39 18.5t-25 17q-7 8 -17 26.5t-19 39.5t-15 40.5t-6 30.5t6 30.5t15 40.5t19 39.5t17 25.5q8 8 26 17.5t39 18t41 14.5t30 6
q11 0 30.5 -6t40.5 -14.5t39.5 -18t25.5 -17.5q8 -7 17.5 -25.5t18 -39.5t14.5 -40.5t6 -30.5z" />
    <glyph glyph-name="ellipsis" unicode="&#x2026;" horiz-adv-x="696" 
d="M649 72q0 -36 -25.5 -62t-62.5 -26t-62.5 25.5t-25.5 62.5t25.5 63t62.5 26q18 0 34 -7t28 -19.5t19 -28.5t7 -34zM417 72q0 -36 -25.5 -62t-62.5 -26t-62.5 25.5t-25.5 62.5t25.5 63t62.5 26q18 0 34 -7t28 -19.5t19 -28.5t7 -34zM185 72q0 -36 -25.5 -62t-62.5 -26
t-62.5 25.5t-25.5 62.5t25.5 63t62.5 26q18 0 34 -7t28 -19.5t19 -28.5t7 -34z" />
    <glyph glyph-name="perthousand" unicode="&#x2030;" horiz-adv-x="1126" 
d="M385 500q0 -39 -14.5 -73t-39 -59.5t-58 -40t-72.5 -14.5q-32 0 -60.5 10.5t-49.5 30t-33.5 47t-12.5 61.5q0 38 14.5 71.5t39 59t58 40t70.5 14.5q33 0 61.5 -10t50 -29t34 -46.5t12.5 -61.5zM94 -15h-59l630 654h59zM719 164q0 -39 -14.5 -73t-39.5 -59.5t-58.5 -40
t-71.5 -14.5q-67 0 -110.5 39t-43.5 108q0 39 14 73t38.5 59.5t57.5 40t72 14.5q32 0 60.5 -10t49.5 -29t33.5 -46.5t12.5 -61.5zM335 490q0 50 -31 81.5t-81 31.5q-28 0 -51.5 -11.5t-41 -31t-27.5 -44.5t-10 -52q0 -50 32.5 -79.5t79.5 -29.5q28 0 51.5 10.5t41 29
t27.5 43t10 52.5zM671 158q0 24 -9 44t-24 34.5t-35.5 22.5t-43.5 8q-28 0 -51.5 -11.5t-41 -31t-27.5 -44.5t-10 -52q0 -50 31.5 -79.5t78.5 -29.5q28 0 52 11.5t42 30.5t28 44t10 53zM1100 164q0 -39 -14.5 -73t-39.5 -59.5t-58.5 -40t-71.5 -14.5q-67 0 -110.5 39
t-43.5 108q0 39 14 73t38.5 59.5t57.5 40t72 14.5q32 0 60.5 -10t49.5 -29t33.5 -46.5t12.5 -61.5zM1052 158q0 24 -9 44t-24 34.5t-35.5 22.5t-43.5 8q-28 0 -51.5 -11.5t-41 -31t-27.5 -44.5t-10 -52q0 -50 31.5 -79.5t78.5 -29.5q28 0 52 11.5t42 30.5t28 44t10 53z" />
    <glyph glyph-name="guilsinglleft" unicode="&#x2039;" horiz-adv-x="300" 
d="M249 32l-231 156v70l277 160l10 -22l-183 -175l141 -167z" />
    <glyph glyph-name="guilsinglright" unicode="&#x203a;" horiz-adv-x="300" 
d="M20 28l-10 22l167 171l-127 171l14 22l231 -156l-6 -74z" />
    <glyph glyph-name="fraction" unicode="&#x2044;" horiz-adv-x="617" 
d="M66 -14h-68l554 652h69z" />
    <glyph glyph-name="Euro" unicode="&#x20ac;" 
d="M191 219q10 -69 44 -106.5t97 -37.5q35 0 68.5 15.5t63.5 41.5l17 -16q-13 -28 -34 -52.5t-47.5 -41.5t-57 -27t-63.5 -10q-50 0 -89.5 17.5t-68 49t-45 74.5t-20.5 93h-60l3 53h56v1q2 36 9 72h-52l3 53h63q16 48 42.5 90t62.5 73.5t82 49.5t102 18q69 0 109.5 -25
t41.5 -61q0 -32 -19.5 -51.5t-46.5 -19.5q-35 0 -54 28.5t-14 68.5q-4 2 -13.5 6t-22.5 4q-25 0 -47 -15t-40.5 -40t-33 -58t-24.5 -68h203l3 -53h-217q-2 -17 -3.5 -33.5t-1.5 -32.5v-7h203l3 -53h-202z" />
    <glyph glyph-name="trademark" unicode="&#x2122;" horiz-adv-x="956" 
d="M769 253l1 32l35 7q4 1 6.5 3t4 8t1.5 17v29l-5 232h-10l-88 -316h-86l-64 319h-10l-7 -195q-1 -33 -1 -52.5t1.5 -29.5t4 -13t6.5 -4l32 -5l3 -32h-146l3 32l30 5q6 1 10 4t6.5 12.5t4 29t2.5 53.5l6 183q0 5 -2.5 9t-10.5 6l-34 6l-2 32h193l42 -266h10l67 266h188
l-2 -32l-33 -6q-8 -2 -11 -6t-3 -9l4 -223q1 -37 6 -46t14 -11l31 -7l2 -32h-199zM420 472h-52l-4 19q-6 28 -11 47t-13 31t-21 17t-34 5h-1v-286q0 -4 2.5 -8t9.5 -6l34 -6l3 -32h-196l3 32l34 6q8 2 10.5 6t2.5 8v286h-1q-19 0 -31.5 -6t-20.5 -18t-14 -31t-13 -45l-5 -19
h-49l8 153h359v-153z" />
    <glyph glyph-name="Delta" unicode="&#x2206;" horiz-adv-x="461" 
d="M459 430l-32 -9q-12 -3 -15.5 -7t-4.5 -11l-35 -246q-7 -50 -28.5 -83.5t-51 -53.5t-65 -28.5t-70.5 -8.5q-37 0 -68 8t-53.5 22t-35 33t-12.5 40q0 34 21 57t54 23q27 0 47 -15.5t20 -38.5q0 -19 -8 -33t-22 -24q8 -10 22 -18t31 -8q23 0 41 24.5t25 72.5l39 277
q2 14 -15 18l-41 9l2 43h263z" />
    <glyph glyph-name="product" unicode="&#x220f;" horiz-adv-x="602" 
d="M556 178l-34 -9q-17 -4 -20 -18l-13 -94l47 -5v-34q-47 -12 -110.5 -21.5t-134.5 -9.5q-66 0 -114.5 15.5t-80.5 44t-48 68t-16 87.5q0 54 21.5 106t63.5 93q38 38 90 60.5t115 22.5q20 0 42.5 -2t43 -5.5t37.5 -7.5t26 -7l83 22l-25 -182h-86l-32 118q-6 5 -15.5 9
t-20 6.5t-19 4t-13.5 1.5q-36 0 -63.5 -19.5t-46.5 -53t-29 -78.5t-10 -96q0 -50 14.5 -83.5t33.5 -52.5q16 -16 34.5 -22.5t33.5 -6.5q8 0 14 1t14 4l15 117q1 8 -3.5 11t-17.5 7l-24 9l-1 43h255z" />
    <glyph glyph-name="minus" unicode="&#x2212;" horiz-adv-x="486" 
d="M41 283l3 54h399l3 -54h-405z" />
    <glyph glyph-name="apple" unicode="&#xf8ff;" horiz-adv-x="758" 
d="M583 236l69 -189l-189 69l-85 -181l-84 180l-187 -68l68 187l-181 86l181 83l-68 189l187 -69l86 181l83 -181l189 69l-69 -189l180 -82zM531 382l50 139l-139 -50l-63 133l-63 -133l-139 50l51 -139l-134 -63l134 -63l-51 -138l139 51l62 -135l64 135l139 -51l-50 140
l132 62z" />
    <glyph glyph-name="ff" unicode="&#xfb00;" horiz-adv-x="1094" 
d="M442 303l-7 52q-3 23 -12.5 38t-25.5 23t-40.5 11t-57.5 3h-40l-25 -188h17q14 0 33.5 4.5t30.5 26.5l27 53h56l-47 -203h-54l-4 47q-1 18 -11.5 25.5t-38.5 7.5h-14l-18 -133q-2 -15 15 -18l45 -9l-4 -43h-263l9 43l31 9q17 4 19 18l44 333q1 7 -2 11t-13 7l-28 9l-4 43
h482l-22 -170h-78zM989 303l-7 52q-3 23 -12.5 38t-25.5 23t-40.5 11t-57.5 3h-40l-25 -188h17q14 0 33.5 4.5t30.5 26.5l27 53h56l-47 -203h-54l-4 47q-1 18 -11.5 25.5t-38.5 7.5h-14l-18 -133q-2 -15 15 -18l45 -9l-4 -43h-263l9 43l31 9q17 4 19 18l44 333q1 7 -2 11
t-13 7l-28 9l-4 43h482l-22 -170h-78z" />
    <glyph glyph-name="fi" unicode="&#xfb01;" horiz-adv-x="880" 
d="M442 303l-7 52q-3 23 -12.5 38t-25.5 23t-40.5 11t-57.5 3h-40l-25 -188h17q14 0 33.5 4.5t30.5 26.5l27 53h56l-47 -203h-54l-4 47q-1 18 -11.5 25.5t-38.5 7.5h-14l-18 -133q-2 -15 15 -18l45 -9l-4 -43h-263l9 43l31 9q17 4 19 18l44 333q1 7 -2 11t-13 7l-28 9l-4 43
h482l-22 -170h-78zM554 0l6 43l38 9q17 4 19 18l44 333q2 14 -15 18l-35 9l-4 43h266l-4 -43l-40 -9q-17 -4 -19 -18l-44 -333q-2 -14 15 -18l37 -9l2 -43h-266z" />
    <glyph glyph-name="fl" unicode="&#xfb02;" horiz-adv-x="1053" 
d="M442 303l-7 52q-3 23 -12.5 38t-25.5 23t-40.5 11t-57.5 3h-40l-25 -188h17q14 0 33.5 4.5t30.5 26.5l27 53h56l-47 -203h-54l-4 47q-1 18 -11.5 25.5t-38.5 7.5h-14l-18 -133q-2 -15 15 -18l45 -9l-4 -43h-263l9 43l31 9q17 4 19 18l44 333q1 7 -2 11t-13 7l-28 9l-4 43
h482l-22 -170h-78zM979 0h-422l3 43l31 9q17 4 19 18l44 333q1 7 -2 11t-13 7l-28 9l-3 43h261l-3 -43l-45 -9q-17 -3 -19 -18l-47 -360h8q35 0 60 4.5t43 15t30 26.5t22 40l21 51h78z" />
    <glyph glyph-name="ffi" unicode="&#xfb03;" horiz-adv-x="1427" 
d="M442 303l-7 52q-3 23 -12.5 38t-25.5 23t-40.5 11t-57.5 3h-40l-25 -188h17q14 0 33.5 4.5t30.5 26.5l27 53h56l-47 -203h-54l-4 47q-1 18 -11.5 25.5t-38.5 7.5h-14l-18 -133q-2 -15 15 -18l45 -9l-4 -43h-263l9 43l31 9q17 4 19 18l44 333q1 7 -2 11t-13 7l-28 9l-4 43
h482l-22 -170h-78zM989 303l-7 52q-3 23 -12.5 38t-25.5 23t-40.5 11t-57.5 3h-40l-25 -188h17q14 0 33.5 4.5t30.5 26.5l27 53h56l-47 -203h-54l-4 47q-1 18 -11.5 25.5t-38.5 7.5h-14l-18 -133q-2 -15 15 -18l45 -9l-4 -43h-263l9 43l31 9q17 4 19 18l44 333q1 7 -2 11
t-13 7l-28 9l-4 43h482l-22 -170h-78zM1101 0l6 43l38 9q17 4 19 18l44 333q2 14 -15 18l-35 9l-4 43h266l-4 -43l-40 -9q-17 -4 -19 -18l-44 -333q-2 -14 15 -18l37 -9l2 -43h-266z" />
    <glyph glyph-name="ffl" unicode="&#xfb04;" horiz-adv-x="1600" 
d="M442 303l-7 52q-3 23 -12.5 38t-25.5 23t-40.5 11t-57.5 3h-40l-25 -188h17q14 0 33.5 4.5t30.5 26.5l27 53h56l-47 -203h-54l-4 47q-1 18 -11.5 25.5t-38.5 7.5h-14l-18 -133q-2 -15 15 -18l45 -9l-4 -43h-263l9 43l31 9q17 4 19 18l44 333q1 7 -2 11t-13 7l-28 9l-4 43
h482l-22 -170h-78zM989 303l-7 52q-3 23 -12.5 38t-25.5 23t-40.5 11t-57.5 3h-40l-25 -188h17q14 0 33.5 4.5t30.5 26.5l27 53h56l-47 -203h-54l-4 47q-1 18 -11.5 25.5t-38.5 7.5h-14l-18 -133q-2 -15 15 -18l45 -9l-4 -43h-263l9 43l31 9q17 4 19 18l44 333q1 7 -2 11
t-13 7l-28 9l-4 43h482l-22 -170h-78zM1526 0h-422l3 43l31 9q17 4 19 18l44 333q1 7 -2 11t-13 7l-28 9l-3 43h261l-3 -43l-45 -9q-17 -3 -19 -18l-47 -360h8q35 0 60 4.5t43 15t30 26.5t22 40l21 51h78z" />
  </font>
</defs>
</svg>
