<svg id="topLogo" width="938" height="938" viewBox="0 0 938 938" fill="none" xmlns="http://www.w3.org/2000/svg">
<g clip-path="url(#clip0)">
<path id="top-corner" d="M937.624 461.034L476.59 0L6.44922e-05 476.59L461.034 937.624L937.624 461.034Z" fill="white"/>
<path class="first-path-logo" d="M702.088 628.845C699.805 628.845 698.697 625.92 698.697 620.967C698.697 616.014 699.772 613.155 702.021 613.155C703.565 613.155 704.204 614.019 704.808 616.147L708.736 614.884C707.83 611.526 706.084 609 702.088 609C696.884 609 694.4 614.319 694.4 621.033C694.4 627.715 696.817 633 702.021 633C705.613 633 707.661 630.872 708.769 627.05L705.143 625.521C704.27 628.047 703.531 628.845 702.088 628.845" fill="#222A33"/>
<path class="first-path-logo" d="M715.957 632.636H711.757V609.366H718.002C719.986 609.249 721.939 609.899 723.457 611.182C724.16 611.893 724.704 612.744 725.054 613.68C725.404 614.616 725.552 615.616 725.488 616.613C725.554 617.949 725.209 619.274 724.502 620.409C723.794 621.545 722.756 622.437 721.527 622.966L725.557 632.633H720.989L717.33 623.792H715.957V632.635V632.636ZM715.957 613.422V619.904H718.035C720.196 619.904 721.291 618.819 721.291 616.679C721.291 614.457 720.182 613.422 717.8 613.422H715.957Z" fill="#222A33"/>
<path class="first-path-logo" d="M735.829 633C734.612 633.032 733.411 632.723 732.36 632.109C731.309 631.494 730.451 630.598 729.883 629.522C728.547 626.898 727.912 623.974 728.04 621.033C727.913 618.074 728.56 615.133 729.916 612.5C730.489 611.419 731.352 610.519 732.409 609.901C733.465 609.282 734.672 608.971 735.896 609C737.108 608.97 738.305 609.28 739.351 609.894C740.397 610.509 741.249 611.404 741.813 612.478C743.145 615.103 743.778 618.026 743.651 620.967C743.777 623.925 743.132 626.866 741.78 629.5C741.212 630.579 740.354 631.478 739.302 632.097C738.251 632.715 737.048 633.028 735.829 633V633ZM735.829 613.155C735.22 613.16 734.629 613.362 734.144 613.73C733.66 614.099 733.307 614.615 733.14 615.2C732.514 617.054 732.242 619.009 732.34 620.964C732.248 622.933 732.532 624.901 733.175 626.764C733.35 627.355 733.708 627.874 734.198 628.249C734.687 628.623 735.283 628.832 735.899 628.846C736.504 628.838 737.09 628.634 737.57 628.265C738.049 627.896 738.396 627.381 738.559 626.798C739.183 624.943 739.454 622.988 739.359 621.034C739.45 619.066 739.168 617.098 738.528 615.234C738.357 614.646 738.003 614.128 737.518 613.754C737.032 613.38 736.441 613.171 735.829 613.155V613.155Z" fill="#222A33"/>
<path class="first-path-logo" d="M753.858 618.673C751.306 617.31 750.5 616.446 750.5 615.05C750.499 614.767 750.558 614.488 750.671 614.229C750.785 613.97 750.951 613.738 751.16 613.547C751.369 613.356 751.615 613.211 751.883 613.12C752.151 613.03 752.434 612.996 752.716 613.022C754.328 613.022 755.066 613.554 756.443 615.083L759.232 612.324C758.532 611.271 757.577 610.414 756.454 609.832C755.332 609.251 754.08 608.964 752.817 609C751.967 608.947 751.115 609.07 750.314 609.361C749.513 609.652 748.781 610.105 748.163 610.691C747.546 611.278 747.055 611.985 746.723 612.769C746.39 613.554 746.223 614.398 746.232 615.25C746.232 619.106 748.347 620.867 751.839 622.663C754.592 624.063 755.431 625.123 755.431 626.452C755.464 626.8 755.418 627.151 755.297 627.479C755.175 627.807 754.982 628.103 754.73 628.346C754.478 628.589 754.175 628.772 753.843 628.881C753.511 628.991 753.159 629.024 752.812 628.978C751.402 628.978 749.891 628.114 748.481 626.319L745.632 629.344C746.435 630.458 747.488 631.369 748.707 632.004C749.925 632.639 751.275 632.98 752.649 633C757.014 633 759.699 630.208 759.699 626.352C759.699 622.43 757.92 620.834 753.857 618.673" fill="#222A33"/>
<path class="first-path-logo" d="M765 626.319L762.146 629.344C763.214 630.745 764.641 631.831 766.276 632.488L769.834 628.922C769.66 628.944 769.507 628.978 769.331 628.978C767.921 628.978 766.41 628.114 765 626.319Z" fill="#222A33"/>
<path class="first-path-logo" d="M770.272 618.673C767.72 617.31 766.915 616.446 766.915 615.05C766.914 614.767 766.973 614.488 767.086 614.229C767.2 613.97 767.366 613.738 767.575 613.547C767.784 613.356 768.03 613.211 768.298 613.12C768.566 613.03 768.849 612.996 769.131 613.022C770.743 613.022 771.481 613.554 772.858 615.083L775.644 612.324C774.945 611.272 773.989 610.414 772.867 609.833C771.745 609.251 770.494 608.965 769.231 609C768.381 608.948 767.53 609.071 766.73 609.362C765.93 609.654 765.198 610.107 764.581 610.693C763.963 611.279 763.473 611.987 763.141 612.771C762.809 613.555 762.642 614.399 762.651 615.25C762.651 619.106 764.766 620.867 768.258 622.663C771.011 624.063 771.85 625.123 771.85 626.452C771.849 626.601 771.826 626.801 771.807 626.949L775.548 623.209C774.739 621.353 773.034 620.142 770.272 618.673Z" fill="#222A33"/>
<path class="second-path-logo" d="M804.78 623.394C804.78 627.416 803.974 628.879 802.027 628.879C800.113 628.879 799.207 627.416 799.207 623.394V609.366H795.01V623.394C795.01 629.178 796.991 633.001 801.993 633.001C807.163 633.001 808.976 629.378 808.976 623.328V609.366H804.78V623.394Z" fill="white"/>
<path class="second-path-logo" d="M812.232 609.366V613.355H817.1V632.635H821.3V613.355H826.168V609.366H812.232Z" fill="white"/>
<path class="second-path-logo" d="M788.408 625.52C787.535 628.048 786.797 628.848 785.353 628.848C783.07 628.848 781.965 625.92 781.965 620.967C781.895 619.1 782.139 617.234 782.686 615.448L777.672 620.412C777.667 620.617 777.665 620.824 777.665 621.033C777.665 627.715 780.082 633 785.286 633C788.879 633 790.927 630.873 792.035 627.05L788.409 625.521" fill="white"/>
<path class="second-path-logo" d="M788.073 616.147L792.001 614.884C791.381 612.582 790.362 610.67 788.496 609.696L784.981 613.176C785.082 613.163 785.184 613.156 785.286 613.156C786.83 613.156 787.469 614.02 788.073 616.148" fill="white"/>
</g>
<defs>
<clipPath id="clip0">
<rect width="937.624" height="937.624" fill="white"/>
</clipPath>
</defs>
</svg>
