<svg id="CROSSCUT_LOGO_BLACK" xmlns="http://www.w3.org/2000/svg" xmlns:xlink="http://www.w3.org/1999/xlink" width="132.165" height="24" viewBox="0 0 132.165 24">
  <defs>
    <clipPath id="clip-path">
      <path id="Clip_2" data-name="Clip 2" d="M0,0H65.3V23.987H0Z" fill="none"/>
    </clipPath>
  </defs>
  <g id="Group_6" data-name="Group 6">
    <path id="Clip_2-2" data-name="Clip 2" d="M0,0H65.3V23.987H0Z" fill="none"/>
    <g id="Group_6-2" data-name="Group 6" clip-path="url(#clip-path)">
      <path id="Fill_1" data-name="Fill 1" d="M7.688,19.845c-2.283,0-3.391-2.925-3.391-7.878S5.372,4.155,7.621,4.155c1.544,0,2.183.864,2.787,2.992l3.928-1.263C13.43,2.526,11.684,0,7.688,0,2.484,0,0,5.319,0,12.033,0,18.715,2.417,24,7.621,24c3.592,0,5.64-2.128,6.748-5.95l-3.626-1.529c-.873,2.526-1.612,3.324-3.055,3.324" fill="#222a33"/>
      <path id="Fill_3" data-name="Fill 3" d="M4.2,23.27H0V0H6.245A7.741,7.741,0,0,1,11.7,1.816a7.081,7.081,0,0,1,2.031,5.431A6.566,6.566,0,0,1,9.77,13.6L13.8,23.267H9.232L5.573,14.426H4.2v8.843Zm0-19.214v6.482H6.278c2.161,0,3.256-1.085,3.256-3.225,0-2.222-1.109-3.257-3.491-3.257Z" transform="translate(17.357 0.366)" fill="#222a33"/>
      <path id="Fill_4" data-name="Fill 4" d="M7.789,24a6.53,6.53,0,0,1-5.946-3.478A17.08,17.08,0,0,1,0,12.033,17.048,17.048,0,0,1,1.876,3.5,6.589,6.589,0,0,1,7.856,0a6.5,6.5,0,0,1,5.917,3.478,17.123,17.123,0,0,1,1.838,8.489A17.089,17.089,0,0,1,13.74,20.5,6.557,6.557,0,0,1,7.789,24Zm0-19.845A2.82,2.82,0,0,0,5.1,6.2a15.576,15.576,0,0,0-.8,5.764,15.552,15.552,0,0,0,.835,5.8,2.911,2.911,0,0,0,2.724,2.082,2.8,2.8,0,0,0,2.66-2.048,15.672,15.672,0,0,0,.8-5.764,15.644,15.644,0,0,0-.831-5.8A2.888,2.888,0,0,0,7.789,4.155Z" transform="translate(33.64)" fill="#222a33"/>
      <path id="Fill_5" data-name="Fill 5" d="M8.226,9.673C5.674,8.31,4.868,7.446,4.868,6.05A2.032,2.032,0,0,1,7.084,4.022c1.612,0,2.35.532,3.727,2.061L13.6,3.324A7.449,7.449,0,0,0,7.185,0,6.2,6.2,0,0,0,.6,6.25c0,3.856,2.115,5.617,5.607,7.413,2.753,1.4,3.592,2.46,3.592,3.789a2.326,2.326,0,0,1-2.619,2.526c-1.41,0-2.921-.864-4.331-2.659L0,20.344A8.808,8.808,0,0,0,7.017,24c4.365,0,7.05-2.792,7.05-6.648,0-3.922-1.779-5.518-5.842-7.679" transform="translate(51.232)" fill="#222a33"/>
    </g>
  </g>
  <path id="Fill_7" data-name="Fill 7" d="M2.854,0,0,3.025A9.775,9.775,0,0,0,4.13,6.169L7.71,2.625a4.087,4.087,0,0,1-.525.034c-1.41,0-2.921-.864-4.331-2.659" transform="translate(67.346 17.319)" fill="#222a33"/>
  <g id="Group_13" data-name="Group 13" transform="translate(67.783)">
    <path id="Fill_8" data-name="Fill 8" d="M7.621,9.673C5.069,8.31,4.264,7.446,4.264,6.05A2.032,2.032,0,0,1,6.48,4.022c1.612,0,2.35.532,3.727,2.061l2.786-2.759A7.449,7.449,0,0,0,6.58,0,6.2,6.2,0,0,0,0,6.25c0,3.856,2.115,5.617,5.607,7.413,2.753,1.4,3.592,2.46,3.592,3.789a3.716,3.716,0,0,1-.029.447l3.727-3.69c-.809-1.856-2.514-3.066-5.276-4.535" transform="translate(0.168)" fill="#222a33"/>
    <path id="Fill_10" data-name="Fill 10" d="M9.77,14.028c0,4.022-.806,5.485-2.753,5.485-1.914,0-2.82-1.463-2.82-5.485V0H0V14.028c0,5.784,1.981,9.607,6.983,9.607,5.17,0,6.983-3.623,6.983-9.673V0H9.77V14.028" transform="translate(33.227 0.366)" fill="#fff"/>
    <path id="Fill_11" data-name="Fill 11" d="M0,0V3.989H4.868v19.28h4.2V3.989h4.868V0H0" transform="translate(50.449 0.366)" fill="#fff"/>
    <g id="Group" transform="translate(15)">
      <path id="Fill_12" data-name="Fill 12" d="M10.743,10.072C9.87,12.6,9.132,13.4,7.688,13.4,5.405,13.4,4.3,10.472,4.3,5.519A16.713,16.713,0,0,1,5.021,0L.007,4.964Q0,5.272,0,5.585c0,6.682,2.417,11.967,7.621,11.967,3.593,0,5.641-2.127,6.749-5.95l-3.626-1.529" transform="translate(0.882 6.448)" fill="#fff"/>
      <path id="Fill_14" data-name="Fill 14" d="M3.092,6.451,7.02,5.188C6.4,2.886,5.381.974,3.515,0L0,3.48A2.4,2.4,0,0,1,.305,3.46c1.544,0,2.183.864,2.787,2.992" transform="translate(8.198 0.696)" fill="#fff"/>
    </g>
  </g>
</svg>
