<svg xmlns="http://www.w3.org/2000/svg" width="18.516" height="18.021" viewBox="0 0 18.516 18.021">
  <path id="Path" d="M17.089.613a.577.577,0,0,0-.153-.43A.57.57,0,0,0,16.519,0H.571A.569.569,0,0,0,.154.182.577.577,0,0,0,0,.613a8.6,8.6,0,0,0,6.83,7.828V16a.575.575,0,0,0,.329.52.568.568,0,0,0,.607-.079l2.284-1.915a.574.574,0,0,0,.206-.441V8.441A8.6,8.6,0,0,0,17.089.613Z" transform="translate(0.713 0.713)" fill="none" stroke="#222a33" stroke-linecap="round" stroke-linejoin="round" stroke-miterlimit="10" stroke-width="1.425"/>
</svg>
