<svg xmlns="http://www.w3.org/2000/svg" width="18" height="15" viewBox="0 0 18 15">
  <path id="Path" d="M16.15,3.738c.011.164.011.328.011.492,0,5-3.712,10.77-10.5,10.77A10.234,10.234,0,0,1,0,13.3a7.44,7.44,0,0,0,.891.047,7.27,7.27,0,0,0,4.58-1.617A3.709,3.709,0,0,1,2.022,9.105a4.537,4.537,0,0,0,.7.059,3.808,3.808,0,0,0,.971-.129A3.763,3.763,0,0,1,.731,5.32V5.273a3.644,3.644,0,0,0,1.668.48A3.809,3.809,0,0,1,.754,2.6a3.832,3.832,0,0,1,.5-1.91A10.4,10.4,0,0,0,8.863,4.652a4.38,4.38,0,0,1-.091-.867A3.736,3.736,0,0,1,12.461,0a3.637,3.637,0,0,1,2.7,1.2A7.152,7.152,0,0,0,17.5.281a3.759,3.759,0,0,1-1.622,2.086A7.248,7.248,0,0,0,18,1.781,8.046,8.046,0,0,1,16.15,3.738Z" fill="#13a1df"/>
</svg>
