<svg xmlns="http://www.w3.org/2000/svg" width="18" height="18" viewBox="0 0 18 18">
  <path id="Shape" d="M16.714,18H1.282A1.291,1.291,0,0,1,0,16.7V1.3A1.291,1.291,0,0,1,1.282,0H16.714A1.293,1.293,0,0,1,18,1.3V16.7A1.293,1.293,0,0,1,16.714,18ZM11.387,8.972c1.386,0,1.386,1.317,1.386,2.278v4.179H15.44V10.72c0-2.126-.388-4.094-3.2-4.094A2.825,2.825,0,0,0,9.711,8.012H9.675V6.838H7.115v8.591H9.784V11.178C9.784,10.087,9.974,8.972,11.387,8.972ZM2.772,6.838v8.591H5.44l0-8.591ZM4.106,2.571A1.547,1.547,0,1,0,5.653,4.118,1.548,1.548,0,0,0,4.106,2.571Z" fill="#0077b5"/>
</svg>
